G75*
%MOIN*%
%OFA0B0*%
%FSLAX25Y25*%
%IPPOS*%
%LPD*%
%AMOC8*
5,1,8,0,0,1.08239X$1,22.5*
%
%ADD10C,0.01000*%
%ADD11C,0.06000*%
%ADD12OC8,0.06000*%
%ADD13R,0.06299X0.07098*%
%ADD14R,0.05118X0.05906*%
%ADD15R,0.08661X0.02362*%
%ADD16R,0.11811X0.55118*%
%ADD17C,0.05150*%
%ADD18R,0.07874X0.07874*%
%ADD19C,0.07874*%
%ADD20C,0.05543*%
%ADD21C,0.07400*%
%ADD22C,0.02400*%
%ADD23C,0.05600*%
%ADD24C,0.04362*%
%ADD25C,0.03200*%
%ADD26C,0.01600*%
%ADD27C,0.04000*%
D10*
X0023082Y0020657D02*
X0033082Y0010657D01*
X0404283Y0010657D01*
X0404283Y0219319D01*
X0023082Y0219319D01*
X0023053Y0219267D01*
X0013082Y0209968D01*
X0013082Y0070657D01*
X0023082Y0060657D01*
X0023082Y0020657D01*
D11*
X0073082Y0017657D02*
X0073082Y0023657D01*
X0083082Y0023657D02*
X0083082Y0017657D01*
X0093082Y0017657D02*
X0093082Y0023657D01*
X0103082Y0023657D02*
X0103082Y0017657D01*
X0113082Y0017657D02*
X0113082Y0023657D01*
X0123082Y0023657D02*
X0123082Y0017657D01*
X0133082Y0017657D02*
X0133082Y0023657D01*
X0143082Y0023657D02*
X0143082Y0017657D01*
X0163082Y0017657D02*
X0163082Y0023657D01*
X0173082Y0023657D02*
X0173082Y0017657D01*
X0183082Y0017657D02*
X0183082Y0023657D01*
X0193082Y0023657D02*
X0193082Y0017657D01*
X0203082Y0017657D02*
X0203082Y0023657D01*
X0213082Y0023657D02*
X0213082Y0017657D01*
X0223082Y0017657D02*
X0223082Y0023657D01*
X0233082Y0023657D02*
X0233082Y0017657D01*
X0248082Y0017657D02*
X0248082Y0023657D01*
X0258082Y0023657D02*
X0258082Y0017657D01*
X0268082Y0017657D02*
X0268082Y0023657D01*
X0278082Y0023657D02*
X0278082Y0017657D01*
X0288082Y0017657D02*
X0288082Y0023657D01*
X0298082Y0023657D02*
X0298082Y0017657D01*
X0308082Y0017657D02*
X0308082Y0023657D01*
X0318082Y0023657D02*
X0318082Y0017657D01*
X0213082Y0207657D02*
X0213082Y0213657D01*
X0203082Y0213657D02*
X0203082Y0207657D01*
X0193082Y0207657D02*
X0193082Y0213657D01*
X0183082Y0213657D02*
X0183082Y0207657D01*
X0173082Y0207657D02*
X0173082Y0213657D01*
X0163082Y0213657D02*
X0163082Y0207657D01*
X0153082Y0207657D02*
X0153082Y0213657D01*
X0143082Y0213657D02*
X0143082Y0207657D01*
D12*
X0043082Y0190657D03*
X0033082Y0190657D03*
X0033082Y0180657D03*
X0043082Y0180657D03*
X0043082Y0170657D03*
X0033082Y0170657D03*
X0033082Y0160657D03*
X0043082Y0160657D03*
X0043082Y0150657D03*
X0033082Y0150657D03*
X0033082Y0140657D03*
X0043082Y0140657D03*
X0043082Y0130657D03*
X0033082Y0130657D03*
X0033082Y0120657D03*
X0043082Y0120657D03*
X0043082Y0110657D03*
X0033082Y0110657D03*
X0033082Y0100657D03*
X0043082Y0100657D03*
X0043082Y0090657D03*
X0033082Y0090657D03*
X0033082Y0080657D03*
X0043082Y0080657D03*
X0043082Y0070657D03*
X0033082Y0070657D03*
X0033082Y0060657D03*
X0043082Y0060657D03*
X0043082Y0050657D03*
X0033082Y0050657D03*
X0033082Y0040657D03*
X0043082Y0040657D03*
X0043082Y0030657D03*
X0033082Y0030657D03*
X0033082Y0020657D03*
X0043082Y0020657D03*
D13*
X0044266Y0209601D03*
X0033069Y0209601D03*
D14*
X0052989Y0209846D03*
X0060469Y0209846D03*
X0128977Y0187485D03*
X0136457Y0187485D03*
X0145302Y0187624D03*
X0152782Y0187624D03*
X0306032Y0184547D03*
X0313513Y0184547D03*
X0325179Y0184542D03*
X0332660Y0184542D03*
D15*
X0341756Y0170443D03*
X0341756Y0165443D03*
X0341756Y0160443D03*
X0341756Y0155443D03*
X0341756Y0150443D03*
X0341756Y0145443D03*
X0341756Y0140443D03*
X0341756Y0135443D03*
X0341756Y0130443D03*
X0341756Y0125443D03*
X0290575Y0125443D03*
X0290575Y0130443D03*
X0290575Y0135443D03*
X0290575Y0140443D03*
X0290575Y0145443D03*
X0290575Y0150443D03*
X0290575Y0155443D03*
X0290575Y0160443D03*
X0290575Y0165443D03*
X0290575Y0170443D03*
X0161927Y0168840D03*
X0161927Y0163840D03*
X0161927Y0158840D03*
X0161927Y0153840D03*
X0161927Y0148840D03*
X0161927Y0143840D03*
X0161927Y0138840D03*
X0161927Y0133840D03*
X0161927Y0128840D03*
X0110746Y0128840D03*
X0110746Y0133840D03*
X0110746Y0138840D03*
X0110746Y0143840D03*
X0110746Y0148840D03*
X0110746Y0153840D03*
X0110746Y0158840D03*
X0110746Y0163840D03*
X0110746Y0168840D03*
X0110746Y0173840D03*
X0161927Y0173840D03*
D16*
X0136336Y0151340D03*
X0316165Y0147943D03*
D17*
X0316165Y0152943D03*
X0316165Y0142943D03*
X0316165Y0132943D03*
X0316165Y0122943D03*
X0316165Y0162943D03*
X0316165Y0172943D03*
X0136336Y0176340D03*
X0136336Y0166340D03*
X0136336Y0156340D03*
X0136336Y0146340D03*
X0136336Y0136340D03*
X0136336Y0126340D03*
D18*
X0175584Y0132763D03*
X0191853Y0133010D03*
X0191853Y0148758D03*
X0175584Y0148511D03*
X0175810Y0172461D03*
X0191414Y0172748D03*
X0191414Y0188496D03*
X0175810Y0188209D03*
X0096226Y0188235D03*
X0080657Y0188020D03*
X0080657Y0172272D03*
X0096226Y0172487D03*
X0095848Y0151092D03*
X0080325Y0151121D03*
X0080325Y0135373D03*
X0095848Y0135344D03*
X0260867Y0130681D03*
X0276593Y0130676D03*
X0276593Y0146424D03*
X0260867Y0146429D03*
X0260482Y0163088D03*
X0276583Y0163679D03*
X0276583Y0179427D03*
X0260482Y0178836D03*
X0359359Y0172076D03*
X0375307Y0171822D03*
X0375307Y0187570D03*
X0359359Y0187824D03*
X0360564Y0148624D03*
X0376089Y0148882D03*
X0376089Y0133134D03*
X0360564Y0132876D03*
D19*
X0358117Y0054519D02*
X0365991Y0054519D01*
X0373826Y0039834D02*
X0373826Y0031960D01*
X0350295Y0031980D02*
X0350295Y0039854D01*
D20*
X0393223Y0132445D03*
X0393223Y0142287D03*
X0393223Y0152130D03*
X0393223Y0161972D03*
X0393223Y0171815D03*
X0393223Y0181657D03*
X0235064Y0181657D03*
X0235064Y0171815D03*
X0235064Y0161972D03*
X0235064Y0152130D03*
X0235064Y0142287D03*
X0235064Y0132445D03*
X0211441Y0132445D03*
X0211441Y0142287D03*
X0211441Y0152130D03*
X0211441Y0161972D03*
X0211441Y0171815D03*
X0211441Y0181657D03*
X0060903Y0181657D03*
X0060903Y0171815D03*
X0060903Y0161972D03*
X0060903Y0152130D03*
X0060903Y0142287D03*
X0060903Y0132445D03*
D21*
X0111715Y0055504D03*
X0125595Y0055027D03*
X0138833Y0055039D03*
X0151785Y0055647D03*
X0164283Y0055604D03*
X0176289Y0055540D03*
X0175289Y0045540D03*
X0163283Y0045604D03*
X0164283Y0035604D03*
X0176289Y0035540D03*
X0151785Y0035647D03*
X0138833Y0035039D03*
X0137833Y0045039D03*
X0150785Y0045647D03*
X0124595Y0045027D03*
X0110715Y0045504D03*
X0111715Y0035504D03*
X0125595Y0035027D03*
D22*
X0108430Y0040281D02*
X0106883Y0038733D01*
X0106176Y0037026D01*
X0105915Y0037656D01*
X0105015Y0038557D01*
X0070423Y0073148D01*
X0070423Y0137472D01*
X0069936Y0138648D01*
X0065675Y0142909D01*
X0065675Y0143236D01*
X0064949Y0144990D01*
X0063606Y0146333D01*
X0061853Y0147059D01*
X0059954Y0147059D01*
X0058201Y0146333D01*
X0056858Y0144990D01*
X0056132Y0143236D01*
X0056132Y0141338D01*
X0056858Y0139584D01*
X0058201Y0138242D01*
X0059954Y0137516D01*
X0061853Y0137516D01*
X0061969Y0137564D01*
X0062645Y0136888D01*
X0061853Y0137216D01*
X0059954Y0137216D01*
X0058201Y0136490D01*
X0056858Y0135148D01*
X0056132Y0133394D01*
X0056132Y0131496D01*
X0056858Y0129742D01*
X0057703Y0128897D01*
X0057703Y0070300D01*
X0058191Y0069124D01*
X0059091Y0068224D01*
X0089882Y0037432D01*
X0089882Y0028432D01*
X0084618Y0028433D01*
X0084077Y0028657D01*
X0082088Y0028657D01*
X0081549Y0028434D01*
X0074611Y0028436D01*
X0074077Y0028657D01*
X0072088Y0028657D01*
X0071556Y0028437D01*
X0062137Y0028440D01*
X0075470Y0041773D01*
X0075570Y0041873D01*
X0075800Y0041968D01*
X0076976Y0043144D01*
X0077612Y0044681D01*
X0077612Y0046344D01*
X0076976Y0047881D01*
X0075800Y0049057D01*
X0074263Y0049694D01*
X0072599Y0049694D01*
X0071063Y0049057D01*
X0069887Y0047881D01*
X0069250Y0046344D01*
X0069250Y0045735D01*
X0054919Y0031404D01*
X0054919Y0155360D01*
X0057843Y0158285D01*
X0058201Y0157927D01*
X0059954Y0157201D01*
X0061853Y0157201D01*
X0063606Y0157927D01*
X0064949Y0159269D01*
X0065675Y0161023D01*
X0065675Y0162922D01*
X0065176Y0164127D01*
X0074388Y0151185D01*
X0074388Y0146356D01*
X0075560Y0145184D01*
X0085091Y0145184D01*
X0086217Y0146310D01*
X0089935Y0146303D01*
X0091083Y0145155D01*
X0100614Y0145155D01*
X0101785Y0146326D01*
X0101785Y0148902D01*
X0102760Y0148902D01*
X0104215Y0149504D01*
X0104215Y0148840D01*
X0110746Y0148840D01*
X0117276Y0148840D01*
X0117276Y0150310D01*
X0117126Y0150870D01*
X0116837Y0151371D01*
X0116727Y0151481D01*
X0117076Y0151830D01*
X0117076Y0155849D01*
X0116586Y0156340D01*
X0117076Y0156830D01*
X0117076Y0160849D01*
X0116586Y0161340D01*
X0117076Y0161830D01*
X0117076Y0165640D01*
X0118449Y0165640D01*
X0119625Y0166127D01*
X0120525Y0167027D01*
X0125926Y0172428D01*
X0126826Y0173328D01*
X0127313Y0174504D01*
X0127313Y0176607D01*
X0128431Y0177724D01*
X0128431Y0136992D01*
X0119209Y0146213D01*
X0118180Y0146640D01*
X0117066Y0146640D01*
X0117028Y0146640D01*
X0117126Y0146809D01*
X0117276Y0147369D01*
X0117276Y0148839D01*
X0110746Y0148839D01*
X0110746Y0148840D01*
X0110746Y0148839D01*
X0104215Y0148839D01*
X0104215Y0147369D01*
X0104365Y0146809D01*
X0104654Y0146308D01*
X0104764Y0146198D01*
X0104415Y0145849D01*
X0104415Y0141830D01*
X0104905Y0141340D01*
X0104415Y0140849D01*
X0104415Y0136830D01*
X0104905Y0136340D01*
X0104415Y0135849D01*
X0104415Y0131830D01*
X0104905Y0131340D01*
X0104415Y0130849D01*
X0104415Y0126830D01*
X0105587Y0125658D01*
X0115700Y0125658D01*
X0115700Y0115804D01*
X0116126Y0114775D01*
X0125745Y0105156D01*
X0126145Y0104190D01*
X0128605Y0101730D01*
X0129505Y0100830D01*
X0130681Y0100343D01*
X0171741Y0100343D01*
X0196289Y0075795D01*
X0195231Y0075795D01*
X0193695Y0075158D01*
X0192519Y0073982D01*
X0191882Y0072445D01*
X0191882Y0071958D01*
X0180369Y0060445D01*
X0180099Y0059791D01*
X0179518Y0060372D01*
X0177423Y0061240D01*
X0175155Y0061240D01*
X0173060Y0060372D01*
X0171457Y0058769D01*
X0170589Y0056674D01*
X0170589Y0054406D01*
X0171457Y0052311D01*
X0173004Y0050764D01*
X0172060Y0050372D01*
X0170457Y0048769D01*
X0170445Y0048740D01*
X0168153Y0048740D01*
X0168115Y0048833D01*
X0166567Y0050381D01*
X0167512Y0050772D01*
X0169115Y0052375D01*
X0169983Y0054470D01*
X0169983Y0056738D01*
X0169115Y0058833D01*
X0167512Y0060436D01*
X0165417Y0061304D01*
X0163149Y0061304D01*
X0161054Y0060436D01*
X0159451Y0058833D01*
X0158583Y0056738D01*
X0158583Y0054470D01*
X0159451Y0052375D01*
X0160998Y0050827D01*
X0160054Y0050436D01*
X0158451Y0048833D01*
X0158439Y0048804D01*
X0155647Y0048804D01*
X0155617Y0048876D01*
X0154069Y0050424D01*
X0155014Y0050815D01*
X0156617Y0052418D01*
X0157485Y0054513D01*
X0157485Y0056781D01*
X0156617Y0058876D01*
X0155014Y0060479D01*
X0152919Y0061347D01*
X0150651Y0061347D01*
X0148556Y0060479D01*
X0146953Y0058876D01*
X0146085Y0056781D01*
X0146085Y0054513D01*
X0146953Y0052418D01*
X0148501Y0050870D01*
X0147556Y0050479D01*
X0146529Y0049452D01*
X0141708Y0049226D01*
X0141118Y0049816D01*
X0142062Y0050207D01*
X0143666Y0051811D01*
X0144533Y0053906D01*
X0144533Y0056173D01*
X0143666Y0058268D01*
X0142062Y0059872D01*
X0139967Y0060739D01*
X0137700Y0060739D01*
X0135605Y0059872D01*
X0134001Y0058268D01*
X0133133Y0056173D01*
X0133133Y0053906D01*
X0134001Y0051811D01*
X0135549Y0050263D01*
X0134605Y0049872D01*
X0133769Y0049036D01*
X0128653Y0049031D01*
X0127880Y0049804D01*
X0128824Y0050195D01*
X0130428Y0051799D01*
X0131295Y0053894D01*
X0131295Y0056161D01*
X0130428Y0058256D01*
X0128824Y0059860D01*
X0126729Y0060727D01*
X0124462Y0060727D01*
X0122367Y0059860D01*
X0120763Y0058256D01*
X0119895Y0056161D01*
X0119895Y0053894D01*
X0120763Y0051799D01*
X0122311Y0050251D01*
X0121367Y0049860D01*
X0120671Y0049165D01*
X0114918Y0049362D01*
X0113999Y0050281D01*
X0114944Y0050672D01*
X0116547Y0052275D01*
X0117415Y0054370D01*
X0117415Y0056638D01*
X0116547Y0058733D01*
X0114944Y0060336D01*
X0112849Y0061204D01*
X0110581Y0061204D01*
X0108486Y0060336D01*
X0106883Y0058733D01*
X0106015Y0056638D01*
X0106015Y0054370D01*
X0106883Y0052275D01*
X0108430Y0050728D01*
X0107486Y0050336D01*
X0105883Y0048733D01*
X0105015Y0046638D01*
X0105015Y0044370D01*
X0105883Y0042275D01*
X0107486Y0040672D01*
X0108430Y0040281D01*
X0107589Y0039440D02*
X0104131Y0039440D01*
X0106170Y0037041D02*
X0106182Y0037041D01*
X0103202Y0035844D02*
X0103202Y0020777D01*
X0103082Y0020657D01*
X0093082Y0020657D02*
X0093082Y0038758D01*
X0060903Y0070936D01*
X0060903Y0132445D01*
X0056510Y0130583D02*
X0054919Y0130583D01*
X0054919Y0132981D02*
X0056132Y0132981D01*
X0057091Y0135380D02*
X0054919Y0135380D01*
X0054919Y0137779D02*
X0059320Y0137779D01*
X0056613Y0140177D02*
X0054919Y0140177D01*
X0054919Y0142576D02*
X0056132Y0142576D01*
X0056852Y0144974D02*
X0054919Y0144974D01*
X0054919Y0147373D02*
X0059920Y0147373D01*
X0059954Y0147358D02*
X0061853Y0147358D01*
X0063606Y0148085D01*
X0064949Y0149427D01*
X0065675Y0151181D01*
X0065675Y0153079D01*
X0064949Y0154833D01*
X0063606Y0156175D01*
X0061853Y0156901D01*
X0059954Y0156901D01*
X0058201Y0156175D01*
X0056858Y0154833D01*
X0056132Y0153079D01*
X0056132Y0151181D01*
X0056858Y0149427D01*
X0058201Y0148085D01*
X0059954Y0147358D01*
X0061887Y0147373D02*
X0074388Y0147373D01*
X0074388Y0149771D02*
X0065091Y0149771D01*
X0065675Y0152170D02*
X0073687Y0152170D01*
X0071980Y0154568D02*
X0065058Y0154568D01*
X0064988Y0159365D02*
X0068565Y0159365D01*
X0066858Y0161764D02*
X0065675Y0161764D01*
X0064382Y0165242D02*
X0063606Y0166018D01*
X0061853Y0166744D01*
X0059954Y0166744D01*
X0058201Y0166018D01*
X0057598Y0165415D01*
X0057354Y0165415D01*
X0056824Y0165450D01*
X0056720Y0165415D01*
X0056611Y0165415D01*
X0056121Y0165212D01*
X0055618Y0165041D01*
X0055536Y0164969D01*
X0055435Y0164927D01*
X0055060Y0164552D01*
X0054919Y0164429D01*
X0054919Y0185225D01*
X0068249Y0198556D01*
X0085184Y0198556D01*
X0085337Y0198492D01*
X0087001Y0198492D01*
X0088538Y0199129D01*
X0089714Y0200305D01*
X0090350Y0201842D01*
X0090350Y0203505D01*
X0089714Y0205042D01*
X0088538Y0206218D01*
X0087001Y0206854D01*
X0085337Y0206854D01*
X0083801Y0206218D01*
X0083338Y0205756D01*
X0069577Y0205756D01*
X0065029Y0210304D01*
X0065029Y0213619D01*
X0138082Y0213619D01*
X0138082Y0206663D01*
X0138843Y0204825D01*
X0140250Y0203419D01*
X0142088Y0202657D01*
X0144077Y0202657D01*
X0145915Y0203419D01*
X0147321Y0204825D01*
X0148082Y0206663D01*
X0148082Y0213619D01*
X0148082Y0213619D01*
X0148082Y0206663D01*
X0148843Y0204825D01*
X0150250Y0203419D01*
X0152088Y0202657D01*
X0154077Y0202657D01*
X0155915Y0203419D01*
X0157321Y0204825D01*
X0158082Y0206663D01*
X0158082Y0213619D01*
X0158082Y0213619D01*
X0158082Y0206663D01*
X0158843Y0204825D01*
X0160250Y0203419D01*
X0162088Y0202657D01*
X0164077Y0202657D01*
X0165915Y0203419D01*
X0167321Y0204825D01*
X0168082Y0206663D01*
X0168082Y0213619D01*
X0168082Y0213619D01*
X0168082Y0206663D01*
X0168843Y0204825D01*
X0170250Y0203419D01*
X0172088Y0202657D01*
X0174077Y0202657D01*
X0175915Y0203419D01*
X0177321Y0204825D01*
X0178082Y0206663D01*
X0178082Y0213619D01*
X0178082Y0213619D01*
X0178082Y0206663D01*
X0178843Y0204825D01*
X0180250Y0203419D01*
X0182088Y0202657D01*
X0184077Y0202657D01*
X0185915Y0203419D01*
X0187321Y0204825D01*
X0188082Y0206663D01*
X0188082Y0213619D01*
X0188082Y0213619D01*
X0188082Y0206663D01*
X0188843Y0204825D01*
X0190250Y0203419D01*
X0192088Y0202657D01*
X0194077Y0202657D01*
X0195915Y0203419D01*
X0197321Y0204825D01*
X0198082Y0206663D01*
X0198082Y0213619D01*
X0198082Y0213619D01*
X0198082Y0206663D01*
X0198843Y0204825D01*
X0200250Y0203419D01*
X0202088Y0202657D01*
X0204077Y0202657D01*
X0205915Y0203419D01*
X0207321Y0204825D01*
X0208082Y0206663D01*
X0208082Y0213619D01*
X0208082Y0213619D01*
X0208082Y0206663D01*
X0208843Y0204825D01*
X0210250Y0203419D01*
X0212088Y0202657D01*
X0214077Y0202657D01*
X0215915Y0203419D01*
X0217321Y0204825D01*
X0218082Y0206663D01*
X0218082Y0213619D01*
X0398583Y0213619D01*
X0398583Y0028342D01*
X0378609Y0028348D01*
X0378859Y0028597D01*
X0379763Y0030779D01*
X0379763Y0041015D01*
X0378859Y0043197D01*
X0377189Y0044867D01*
X0375006Y0045771D01*
X0372645Y0045771D01*
X0370462Y0044867D01*
X0368792Y0043197D01*
X0367889Y0041015D01*
X0367889Y0030779D01*
X0368792Y0028597D01*
X0369039Y0028350D01*
X0355246Y0028354D01*
X0355544Y0028764D01*
X0355982Y0029624D01*
X0356281Y0030543D01*
X0356432Y0031497D01*
X0356432Y0035917D01*
X0350295Y0035917D01*
X0344158Y0035917D01*
X0344158Y0031497D01*
X0344309Y0030543D01*
X0344608Y0029624D01*
X0345046Y0028764D01*
X0345341Y0028357D01*
X0321282Y0028364D01*
X0321282Y0079310D01*
X0359108Y0117136D01*
X0359595Y0118312D01*
X0359595Y0119585D01*
X0359108Y0120762D01*
X0358208Y0121662D01*
X0356372Y0123498D01*
X0356372Y0126739D01*
X0359795Y0126739D01*
X0359795Y0132107D01*
X0361332Y0132107D01*
X0361332Y0126739D01*
X0364790Y0126739D01*
X0365350Y0126889D01*
X0365852Y0127179D01*
X0366261Y0127588D01*
X0366551Y0128090D01*
X0366701Y0128649D01*
X0366701Y0132108D01*
X0361332Y0132108D01*
X0361332Y0133645D01*
X0359795Y0133645D01*
X0359795Y0139013D01*
X0356372Y0139013D01*
X0356372Y0140814D01*
X0355884Y0141990D01*
X0354984Y0142890D01*
X0354192Y0143682D01*
X0354535Y0143824D01*
X0354661Y0143824D01*
X0355798Y0142687D01*
X0365329Y0142687D01*
X0366466Y0143824D01*
X0370444Y0143824D01*
X0371323Y0142945D01*
X0380854Y0142945D01*
X0381991Y0144082D01*
X0382195Y0144082D01*
X0383959Y0144812D01*
X0385310Y0146163D01*
X0389001Y0149854D01*
X0389178Y0149427D01*
X0390520Y0148085D01*
X0392274Y0147358D01*
X0394172Y0147358D01*
X0395926Y0148085D01*
X0397268Y0149427D01*
X0397995Y0151181D01*
X0397995Y0153079D01*
X0397268Y0154833D01*
X0395926Y0156175D01*
X0394172Y0156901D01*
X0392274Y0156901D01*
X0390520Y0156175D01*
X0389852Y0155507D01*
X0389852Y0158595D01*
X0390520Y0157927D01*
X0392274Y0157201D01*
X0394172Y0157201D01*
X0395926Y0157927D01*
X0397268Y0159269D01*
X0397995Y0161023D01*
X0397995Y0162922D01*
X0397268Y0164675D01*
X0395926Y0166018D01*
X0394172Y0166744D01*
X0393942Y0166744D01*
X0395646Y0167450D01*
X0396997Y0168800D01*
X0397292Y0169096D01*
X0398023Y0170860D01*
X0398023Y0172770D01*
X0397292Y0174534D01*
X0395942Y0175884D01*
X0394178Y0176615D01*
X0392268Y0176615D01*
X0391555Y0176319D01*
X0388297Y0176319D01*
X0386533Y0175589D01*
X0382333Y0171389D01*
X0381244Y0170300D01*
X0381244Y0170971D01*
X0387130Y0176857D01*
X0394178Y0176857D01*
X0395942Y0177588D01*
X0397292Y0178938D01*
X0398023Y0180703D01*
X0398023Y0182612D01*
X0397292Y0184376D01*
X0395942Y0185727D01*
X0394178Y0186457D01*
X0384187Y0186457D01*
X0382423Y0185727D01*
X0381444Y0184747D01*
X0381444Y0186802D01*
X0376076Y0186802D01*
X0376076Y0188339D01*
X0381444Y0188339D01*
X0381444Y0191797D01*
X0381294Y0192356D01*
X0381005Y0192858D01*
X0380595Y0193268D01*
X0380093Y0193557D01*
X0379534Y0193707D01*
X0376076Y0193707D01*
X0376076Y0188339D01*
X0374539Y0188339D01*
X0374539Y0193707D01*
X0371080Y0193707D01*
X0370521Y0193557D01*
X0370019Y0193268D01*
X0369610Y0192858D01*
X0369320Y0192356D01*
X0369170Y0191797D01*
X0369170Y0188339D01*
X0374538Y0188339D01*
X0374538Y0186802D01*
X0369170Y0186802D01*
X0369170Y0183344D01*
X0369320Y0182784D01*
X0369610Y0182282D01*
X0370019Y0181873D01*
X0370521Y0181583D01*
X0371080Y0181433D01*
X0374539Y0181433D01*
X0374539Y0186802D01*
X0376076Y0186802D01*
X0376076Y0181433D01*
X0378130Y0181433D01*
X0374456Y0177759D01*
X0370542Y0177759D01*
X0369658Y0176876D01*
X0365261Y0176876D01*
X0364124Y0178013D01*
X0354593Y0178013D01*
X0353422Y0176841D01*
X0353422Y0167838D01*
X0352992Y0167409D01*
X0352992Y0175295D01*
X0352505Y0176471D01*
X0350056Y0178921D01*
X0350056Y0179408D01*
X0349419Y0180945D01*
X0348243Y0182121D01*
X0346706Y0182757D01*
X0345043Y0182757D01*
X0343506Y0182121D01*
X0342330Y0180945D01*
X0341693Y0179408D01*
X0341693Y0177745D01*
X0342330Y0176208D01*
X0343506Y0175032D01*
X0345043Y0174395D01*
X0345530Y0174395D01*
X0346301Y0173624D01*
X0338341Y0173624D01*
X0338341Y0182203D01*
X0337854Y0183379D01*
X0337219Y0184015D01*
X0337219Y0184576D01*
X0341891Y0189248D01*
X0342791Y0190148D01*
X0343278Y0191324D01*
X0343278Y0191494D01*
X0343623Y0191839D01*
X0344259Y0193375D01*
X0344259Y0195039D01*
X0343623Y0196575D01*
X0342447Y0197752D01*
X0340910Y0198388D01*
X0339247Y0198388D01*
X0337710Y0197752D01*
X0336534Y0196575D01*
X0335897Y0195039D01*
X0335897Y0193375D01*
X0336211Y0192619D01*
X0333087Y0189495D01*
X0329272Y0189495D01*
X0328920Y0189142D01*
X0328567Y0189495D01*
X0321792Y0189495D01*
X0320620Y0188324D01*
X0320620Y0187742D01*
X0318072Y0187742D01*
X0318072Y0188328D01*
X0316900Y0189500D01*
X0316303Y0189500D01*
X0316303Y0190601D01*
X0316648Y0190945D01*
X0317284Y0192482D01*
X0317284Y0194146D01*
X0316648Y0195682D01*
X0315472Y0196858D01*
X0313935Y0197495D01*
X0312272Y0197495D01*
X0310735Y0196858D01*
X0309559Y0195682D01*
X0308922Y0194146D01*
X0308922Y0192482D01*
X0309559Y0190945D01*
X0309903Y0190601D01*
X0309903Y0189283D01*
X0309441Y0189550D01*
X0308881Y0189700D01*
X0306112Y0189700D01*
X0306112Y0184626D01*
X0305953Y0184626D01*
X0305953Y0184467D01*
X0306112Y0184467D01*
X0306112Y0179394D01*
X0308881Y0179394D01*
X0309441Y0179544D01*
X0309906Y0179813D01*
X0310125Y0179594D01*
X0316900Y0179594D01*
X0318072Y0180766D01*
X0318072Y0181342D01*
X0320620Y0181342D01*
X0320620Y0180761D01*
X0321792Y0179590D01*
X0328567Y0179590D01*
X0328920Y0179942D01*
X0329272Y0179590D01*
X0331941Y0179590D01*
X0331941Y0133121D01*
X0331932Y0133103D01*
X0331923Y0132978D01*
X0331875Y0132863D01*
X0331875Y0132348D01*
X0331836Y0131833D01*
X0331875Y0131715D01*
X0331875Y0131590D01*
X0332072Y0131114D01*
X0332420Y0130056D01*
X0332420Y0129931D01*
X0332617Y0129455D01*
X0332778Y0128965D01*
X0332859Y0128870D01*
X0332907Y0128755D01*
X0333271Y0128390D01*
X0333608Y0127999D01*
X0333719Y0127943D01*
X0333807Y0127855D01*
X0334283Y0127657D01*
X0334744Y0127425D01*
X0334868Y0127415D01*
X0334983Y0127368D01*
X0335425Y0127368D01*
X0335425Y0123433D01*
X0336597Y0122262D01*
X0344706Y0122262D01*
X0306270Y0083825D01*
X0305369Y0082925D01*
X0304882Y0081749D01*
X0304882Y0028369D01*
X0302325Y0028370D01*
X0302325Y0089828D01*
X0303515Y0089335D01*
X0305178Y0089335D01*
X0306715Y0089972D01*
X0307891Y0091148D01*
X0308527Y0092685D01*
X0308527Y0094348D01*
X0307891Y0095885D01*
X0307546Y0096229D01*
X0307546Y0130744D01*
X0307059Y0131920D01*
X0301494Y0137485D01*
X0300593Y0138385D01*
X0299417Y0138873D01*
X0296905Y0138873D01*
X0296905Y0142452D01*
X0296556Y0142801D01*
X0296666Y0142911D01*
X0296955Y0143413D01*
X0297105Y0143972D01*
X0297105Y0145443D01*
X0297105Y0146914D01*
X0296955Y0147473D01*
X0296666Y0147975D01*
X0296556Y0148084D01*
X0296905Y0148433D01*
X0296905Y0152452D01*
X0296415Y0152943D01*
X0296905Y0153433D01*
X0296905Y0157452D01*
X0296415Y0157943D01*
X0296905Y0158433D01*
X0296905Y0162452D01*
X0296415Y0162943D01*
X0296905Y0163433D01*
X0296905Y0167452D01*
X0296415Y0167943D01*
X0296905Y0168433D01*
X0296905Y0172452D01*
X0295734Y0173624D01*
X0293885Y0173624D01*
X0293885Y0175065D01*
X0294230Y0175409D01*
X0294866Y0176946D01*
X0294866Y0178609D01*
X0294230Y0180146D01*
X0293054Y0181322D01*
X0291517Y0181959D01*
X0289853Y0181959D01*
X0288317Y0181322D01*
X0287141Y0180146D01*
X0286504Y0178609D01*
X0286504Y0176946D01*
X0287141Y0175409D01*
X0287485Y0175065D01*
X0287485Y0173624D01*
X0285415Y0173624D01*
X0284244Y0172452D01*
X0284244Y0168433D01*
X0284734Y0167943D01*
X0284244Y0167452D01*
X0284244Y0163433D01*
X0284734Y0162943D01*
X0284244Y0162452D01*
X0284244Y0161121D01*
X0282520Y0162845D01*
X0282520Y0168444D01*
X0281348Y0169616D01*
X0271817Y0169616D01*
X0270680Y0168479D01*
X0265794Y0168479D01*
X0265248Y0169025D01*
X0262847Y0169025D01*
X0262826Y0169076D01*
X0261476Y0170427D01*
X0259004Y0172899D01*
X0265248Y0172899D01*
X0266419Y0174070D01*
X0266419Y0183601D01*
X0265248Y0184773D01*
X0264012Y0184773D01*
X0264012Y0185369D01*
X0264356Y0185713D01*
X0264993Y0187250D01*
X0264993Y0188913D01*
X0264356Y0190450D01*
X0263180Y0191626D01*
X0261643Y0192263D01*
X0259980Y0192263D01*
X0258443Y0191626D01*
X0257267Y0190450D01*
X0256631Y0188913D01*
X0256631Y0187250D01*
X0257267Y0185713D01*
X0257612Y0185369D01*
X0257612Y0184773D01*
X0255717Y0184773D01*
X0254545Y0183601D01*
X0254545Y0177357D01*
X0246176Y0185727D01*
X0244412Y0186457D01*
X0234109Y0186457D01*
X0232345Y0185727D01*
X0230995Y0184376D01*
X0230264Y0182612D01*
X0230264Y0180703D01*
X0230995Y0178938D01*
X0232345Y0177588D01*
X0234109Y0176857D01*
X0241469Y0176857D01*
X0243038Y0175288D01*
X0241360Y0175983D01*
X0237544Y0175983D01*
X0236019Y0176615D01*
X0234109Y0176615D01*
X0232345Y0175884D01*
X0230995Y0174534D01*
X0230264Y0172770D01*
X0230264Y0170860D01*
X0230995Y0169096D01*
X0231626Y0168464D01*
X0232977Y0167114D01*
X0233992Y0166693D01*
X0232361Y0166018D01*
X0231820Y0165477D01*
X0226805Y0170492D01*
X0226805Y0189986D01*
X0227150Y0190330D01*
X0227786Y0191867D01*
X0227786Y0193530D01*
X0227150Y0195067D01*
X0225973Y0196243D01*
X0224437Y0196880D01*
X0222773Y0196880D01*
X0221237Y0196243D01*
X0220060Y0195067D01*
X0219424Y0193530D01*
X0219424Y0191867D01*
X0220060Y0190330D01*
X0220405Y0189986D01*
X0220405Y0170492D01*
X0215086Y0165172D01*
X0214990Y0165172D01*
X0214144Y0166018D01*
X0212391Y0166744D01*
X0210492Y0166744D01*
X0208739Y0166018D01*
X0207396Y0164675D01*
X0206670Y0162922D01*
X0206670Y0161023D01*
X0207396Y0159269D01*
X0208739Y0157927D01*
X0210492Y0157201D01*
X0212391Y0157201D01*
X0214144Y0157927D01*
X0214990Y0158772D01*
X0217048Y0158772D01*
X0218224Y0159260D01*
X0223605Y0164641D01*
X0228986Y0159260D01*
X0230162Y0158772D01*
X0231516Y0158772D01*
X0232361Y0157927D01*
X0234115Y0157201D01*
X0236013Y0157201D01*
X0237767Y0157927D01*
X0239109Y0159269D01*
X0239836Y0161023D01*
X0239836Y0162922D01*
X0239109Y0164675D01*
X0237767Y0166018D01*
X0236884Y0166383D01*
X0238417Y0166383D01*
X0243501Y0161299D01*
X0243501Y0152747D01*
X0244232Y0150983D01*
X0251504Y0143710D01*
X0252855Y0142360D01*
X0254619Y0141629D01*
X0254964Y0141629D01*
X0256101Y0140492D01*
X0265632Y0140492D01*
X0266769Y0141629D01*
X0270685Y0141629D01*
X0271828Y0140487D01*
X0280989Y0140487D01*
X0280875Y0140211D01*
X0280875Y0136798D01*
X0280820Y0136813D01*
X0277362Y0136813D01*
X0277362Y0131444D01*
X0275825Y0131444D01*
X0275825Y0136813D01*
X0272366Y0136813D01*
X0271807Y0136663D01*
X0271305Y0136373D01*
X0270896Y0135963D01*
X0270606Y0135462D01*
X0270456Y0134902D01*
X0270456Y0131444D01*
X0275824Y0131444D01*
X0275824Y0129907D01*
X0270456Y0129907D01*
X0270456Y0126449D01*
X0270606Y0125889D01*
X0270896Y0125388D01*
X0271305Y0124978D01*
X0271807Y0124688D01*
X0272366Y0124539D01*
X0275825Y0124539D01*
X0275825Y0129907D01*
X0277362Y0129907D01*
X0277362Y0124539D01*
X0280820Y0124539D01*
X0280875Y0124553D01*
X0280875Y0120412D01*
X0281362Y0119236D01*
X0282262Y0118336D01*
X0284882Y0115715D01*
X0284882Y0028375D01*
X0281282Y0028376D01*
X0281282Y0029829D01*
X0280795Y0031005D01*
X0279895Y0031906D01*
X0220030Y0091770D01*
X0220972Y0091770D01*
X0222508Y0092407D01*
X0222673Y0092571D01*
X0222438Y0092005D01*
X0222438Y0090341D01*
X0223075Y0088805D01*
X0224251Y0087628D01*
X0225787Y0086992D01*
X0227451Y0086992D01*
X0228988Y0087628D01*
X0230164Y0088805D01*
X0230800Y0090341D01*
X0230800Y0092005D01*
X0230164Y0093541D01*
X0229819Y0093886D01*
X0229819Y0098179D01*
X0229332Y0099355D01*
X0214641Y0114046D01*
X0214641Y0128897D01*
X0215487Y0129742D01*
X0216213Y0131496D01*
X0216213Y0133394D01*
X0215487Y0135148D01*
X0214144Y0136490D01*
X0212391Y0137216D01*
X0210492Y0137216D01*
X0208739Y0136490D01*
X0207396Y0135148D01*
X0206803Y0133715D01*
X0206803Y0138139D01*
X0207751Y0139087D01*
X0207893Y0139087D01*
X0208739Y0138242D01*
X0210492Y0137516D01*
X0212391Y0137516D01*
X0214144Y0138242D01*
X0215487Y0139584D01*
X0216213Y0141338D01*
X0216213Y0143236D01*
X0215487Y0144990D01*
X0214144Y0146333D01*
X0212391Y0147059D01*
X0210492Y0147059D01*
X0208739Y0146333D01*
X0207893Y0145487D01*
X0205789Y0145487D01*
X0204612Y0145000D01*
X0203712Y0144100D01*
X0200890Y0141278D01*
X0200403Y0140101D01*
X0200403Y0111852D01*
X0200724Y0111077D01*
X0186523Y0125277D01*
X0185623Y0126177D01*
X0184447Y0126664D01*
X0179955Y0126664D01*
X0180370Y0126775D01*
X0180872Y0127065D01*
X0181281Y0127475D01*
X0181571Y0127976D01*
X0181721Y0128536D01*
X0181721Y0131994D01*
X0176352Y0131994D01*
X0176352Y0133531D01*
X0174815Y0133531D01*
X0174815Y0131994D01*
X0169447Y0131994D01*
X0169447Y0128536D01*
X0169597Y0127976D01*
X0169886Y0127475D01*
X0170296Y0127065D01*
X0170798Y0126775D01*
X0171212Y0126664D01*
X0168092Y0126664D01*
X0168257Y0126830D01*
X0168257Y0130849D01*
X0167767Y0131340D01*
X0168257Y0131830D01*
X0168257Y0135849D01*
X0167767Y0136340D01*
X0168257Y0136830D01*
X0168257Y0140849D01*
X0167767Y0141340D01*
X0168257Y0141830D01*
X0168257Y0145849D01*
X0167767Y0146340D01*
X0168257Y0146830D01*
X0168257Y0148501D01*
X0168806Y0147952D01*
X0169647Y0147604D01*
X0169647Y0143745D01*
X0170818Y0142574D01*
X0180349Y0142574D01*
X0181521Y0143745D01*
X0181521Y0143958D01*
X0185951Y0143958D01*
X0187088Y0142821D01*
X0196619Y0142821D01*
X0197790Y0143992D01*
X0197790Y0153523D01*
X0196694Y0154620D01*
X0208961Y0166887D01*
X0212269Y0166887D01*
X0214033Y0167618D01*
X0215511Y0169096D01*
X0216241Y0170860D01*
X0216241Y0172770D01*
X0215511Y0174534D01*
X0214160Y0175884D01*
X0212396Y0176615D01*
X0210487Y0176615D01*
X0210179Y0176487D01*
X0207641Y0176487D01*
X0208011Y0176857D01*
X0212396Y0176857D01*
X0214160Y0177588D01*
X0215511Y0178938D01*
X0216241Y0180703D01*
X0216241Y0182612D01*
X0215511Y0184376D01*
X0214160Y0185727D01*
X0212396Y0186457D01*
X0205068Y0186457D01*
X0203304Y0185727D01*
X0201953Y0184376D01*
X0196221Y0178644D01*
X0196180Y0178685D01*
X0186649Y0178685D01*
X0185477Y0177513D01*
X0185477Y0177261D01*
X0181712Y0177261D01*
X0180575Y0178398D01*
X0171045Y0178398D01*
X0169873Y0177226D01*
X0169873Y0173312D01*
X0168974Y0172413D01*
X0167834Y0171273D01*
X0167767Y0171340D01*
X0168257Y0171830D01*
X0168257Y0175849D01*
X0167086Y0177021D01*
X0156768Y0177021D01*
X0155596Y0175849D01*
X0155596Y0173103D01*
X0155269Y0173238D01*
X0153606Y0173238D01*
X0152069Y0172602D01*
X0150893Y0171425D01*
X0150257Y0169889D01*
X0150257Y0168225D01*
X0150893Y0166689D01*
X0152069Y0165512D01*
X0153606Y0164876D01*
X0155269Y0164876D01*
X0155596Y0165011D01*
X0155596Y0161830D01*
X0156087Y0161340D01*
X0155596Y0160849D01*
X0155596Y0156830D01*
X0156087Y0156340D01*
X0155596Y0155849D01*
X0155596Y0151830D01*
X0155787Y0151640D01*
X0154079Y0151640D01*
X0154022Y0151663D01*
X0151701Y0151663D01*
X0151669Y0151650D01*
X0150809Y0151650D01*
X0149780Y0151223D01*
X0144242Y0145685D01*
X0144242Y0179727D01*
X0143070Y0180899D01*
X0137284Y0180899D01*
X0137246Y0180914D01*
X0137151Y0180914D01*
X0138270Y0182033D01*
X0138769Y0182532D01*
X0139845Y0182532D01*
X0140949Y0183636D01*
X0141914Y0182672D01*
X0148689Y0182672D01*
X0149042Y0183024D01*
X0149395Y0182672D01*
X0156170Y0182672D01*
X0157341Y0183843D01*
X0157341Y0184442D01*
X0159359Y0184442D01*
X0159703Y0184098D01*
X0161240Y0183461D01*
X0162903Y0183461D01*
X0164440Y0184098D01*
X0165616Y0185274D01*
X0166253Y0186811D01*
X0166253Y0188474D01*
X0165616Y0190011D01*
X0164440Y0191187D01*
X0162903Y0191823D01*
X0161240Y0191823D01*
X0159703Y0191187D01*
X0159359Y0190842D01*
X0157341Y0190842D01*
X0157341Y0191405D01*
X0156170Y0192577D01*
X0149467Y0192577D01*
X0149475Y0192596D01*
X0149887Y0193007D01*
X0150523Y0194544D01*
X0150523Y0196208D01*
X0149887Y0197744D01*
X0148711Y0198920D01*
X0147174Y0199557D01*
X0145511Y0199557D01*
X0143974Y0198920D01*
X0142798Y0197744D01*
X0142161Y0196208D01*
X0142161Y0194544D01*
X0142397Y0193975D01*
X0140352Y0191930D01*
X0139845Y0192438D01*
X0133070Y0192438D01*
X0132851Y0192219D01*
X0132385Y0192488D01*
X0131826Y0192638D01*
X0129057Y0192638D01*
X0129057Y0187564D01*
X0128898Y0187564D01*
X0128898Y0187405D01*
X0124218Y0187405D01*
X0124218Y0184242D01*
X0124368Y0183683D01*
X0124658Y0183181D01*
X0124747Y0183092D01*
X0121400Y0179745D01*
X0120913Y0178569D01*
X0120913Y0176466D01*
X0117076Y0172629D01*
X0117076Y0175849D01*
X0115905Y0177021D01*
X0112900Y0177021D01*
X0107962Y0189061D01*
X0107760Y0189606D01*
X0107721Y0189648D01*
X0107699Y0189702D01*
X0107290Y0190114D01*
X0106895Y0190540D01*
X0106843Y0190564D01*
X0106802Y0190605D01*
X0106267Y0190829D01*
X0105739Y0191072D01*
X0105681Y0191074D01*
X0105628Y0191097D01*
X0105047Y0191099D01*
X0102163Y0191209D01*
X0102163Y0193000D01*
X0100991Y0194172D01*
X0091460Y0194172D01*
X0090289Y0193000D01*
X0090289Y0183470D01*
X0091460Y0182298D01*
X0100991Y0182298D01*
X0102163Y0183470D01*
X0102163Y0184805D01*
X0102800Y0184780D01*
X0105982Y0177021D01*
X0105587Y0177021D01*
X0104415Y0175849D01*
X0104415Y0171830D01*
X0104905Y0171340D01*
X0104533Y0170968D01*
X0102163Y0173338D01*
X0102163Y0177252D01*
X0100991Y0178424D01*
X0091460Y0178424D01*
X0090289Y0177252D01*
X0090289Y0177072D01*
X0086560Y0177072D01*
X0085423Y0178209D01*
X0081509Y0178209D01*
X0077835Y0181883D01*
X0079889Y0181883D01*
X0079889Y0187251D01*
X0081426Y0187251D01*
X0081426Y0181883D01*
X0084884Y0181883D01*
X0085444Y0182033D01*
X0085945Y0182322D01*
X0086355Y0182732D01*
X0086645Y0183234D01*
X0086794Y0183793D01*
X0086794Y0187251D01*
X0081426Y0187251D01*
X0081426Y0188788D01*
X0086794Y0188788D01*
X0086794Y0192246D01*
X0086645Y0192806D01*
X0086355Y0193308D01*
X0085945Y0193717D01*
X0085444Y0194007D01*
X0084884Y0194157D01*
X0081426Y0194157D01*
X0081426Y0188788D01*
X0079889Y0188788D01*
X0079889Y0187251D01*
X0074520Y0187251D01*
X0074520Y0185203D01*
X0074383Y0185335D01*
X0073749Y0185969D01*
X0073694Y0185992D01*
X0073650Y0186033D01*
X0072813Y0186356D01*
X0071984Y0186700D01*
X0071925Y0186700D01*
X0071869Y0186721D01*
X0070972Y0186700D01*
X0070075Y0186700D01*
X0070020Y0186677D01*
X0059834Y0186433D01*
X0058088Y0185660D01*
X0056770Y0184278D01*
X0056082Y0182497D01*
X0056128Y0180588D01*
X0056900Y0178842D01*
X0058283Y0177524D01*
X0060064Y0176836D01*
X0069089Y0177052D01*
X0074720Y0171421D01*
X0074720Y0167506D01*
X0075892Y0166335D01*
X0085423Y0166335D01*
X0086560Y0167472D01*
X0090538Y0167472D01*
X0091460Y0166550D01*
X0095375Y0166550D01*
X0097184Y0164741D01*
X0097184Y0160491D01*
X0097914Y0158727D01*
X0098140Y0158502D01*
X0097504Y0158502D01*
X0095739Y0157771D01*
X0094997Y0157029D01*
X0091083Y0157029D01*
X0089957Y0155903D01*
X0086239Y0155910D01*
X0085091Y0157058D01*
X0081991Y0157058D01*
X0069912Y0174027D01*
X0069755Y0174406D01*
X0069364Y0174798D01*
X0069043Y0175249D01*
X0068695Y0175467D01*
X0068405Y0175757D01*
X0067893Y0175968D01*
X0067424Y0176262D01*
X0067020Y0176330D01*
X0066641Y0176487D01*
X0066087Y0176487D01*
X0065541Y0176579D01*
X0065141Y0176487D01*
X0062092Y0176487D01*
X0061853Y0176587D01*
X0061790Y0176587D01*
X0061565Y0176664D01*
X0060291Y0176587D01*
X0059954Y0176587D01*
X0059896Y0176563D01*
X0059659Y0176548D01*
X0058512Y0175989D01*
X0058201Y0175860D01*
X0058156Y0175816D01*
X0057943Y0175712D01*
X0057097Y0174756D01*
X0056858Y0174518D01*
X0056834Y0174460D01*
X0056677Y0174282D01*
X0056261Y0173075D01*
X0056132Y0172764D01*
X0056132Y0172701D01*
X0056054Y0172477D01*
X0056132Y0171203D01*
X0056132Y0170866D01*
X0056156Y0170808D01*
X0056170Y0170571D01*
X0056729Y0169423D01*
X0056858Y0169112D01*
X0056903Y0169068D01*
X0057007Y0168854D01*
X0057962Y0168008D01*
X0058201Y0167770D01*
X0058259Y0167746D01*
X0058436Y0167588D01*
X0059571Y0167197D01*
X0060318Y0166887D01*
X0060469Y0166887D01*
X0060611Y0166838D01*
X0061419Y0166887D01*
X0063211Y0166887D01*
X0064382Y0165242D01*
X0063443Y0166561D02*
X0062295Y0166561D01*
X0059512Y0166561D02*
X0054919Y0166561D01*
X0054919Y0168959D02*
X0056955Y0168959D01*
X0056122Y0171358D02*
X0054919Y0171358D01*
X0054919Y0173756D02*
X0056496Y0173756D01*
X0054919Y0176155D02*
X0058852Y0176155D01*
X0057203Y0178553D02*
X0054919Y0178553D01*
X0054919Y0180952D02*
X0056119Y0180952D01*
X0056412Y0183350D02*
X0054919Y0183350D01*
X0055442Y0185749D02*
X0058287Y0185749D01*
X0057841Y0188147D02*
X0079889Y0188147D01*
X0079889Y0188788D02*
X0074520Y0188788D01*
X0074520Y0192246D01*
X0074670Y0192806D01*
X0074960Y0193308D01*
X0075370Y0193717D01*
X0075871Y0194007D01*
X0076431Y0194157D01*
X0079889Y0194157D01*
X0079889Y0188788D01*
X0081426Y0188147D02*
X0090289Y0188147D01*
X0090289Y0185749D02*
X0086794Y0185749D01*
X0086676Y0183350D02*
X0090408Y0183350D01*
X0096226Y0188235D02*
X0104980Y0187899D01*
X0110746Y0173840D01*
X0110746Y0168840D01*
X0117812Y0168840D01*
X0124113Y0175140D01*
X0124113Y0177932D01*
X0127689Y0181508D01*
X0133220Y0181508D01*
X0136457Y0184746D01*
X0136457Y0187485D01*
X0140433Y0187485D01*
X0146342Y0193394D01*
X0146342Y0195376D01*
X0142161Y0195343D02*
X0065036Y0195343D01*
X0062638Y0192944D02*
X0074750Y0192944D01*
X0074520Y0190546D02*
X0060239Y0190546D01*
X0051719Y0186551D02*
X0051719Y0156686D01*
X0057248Y0162215D01*
X0060903Y0161972D01*
X0056525Y0156967D02*
X0070273Y0156967D01*
X0078642Y0161764D02*
X0097184Y0161764D01*
X0097184Y0164162D02*
X0076935Y0164162D01*
X0075666Y0166561D02*
X0075227Y0166561D01*
X0074720Y0168959D02*
X0073520Y0168959D01*
X0074720Y0171358D02*
X0071813Y0171358D01*
X0072385Y0173756D02*
X0070105Y0173756D01*
X0069986Y0176155D02*
X0067596Y0176155D01*
X0078766Y0180952D02*
X0104370Y0180952D01*
X0103387Y0183350D02*
X0102043Y0183350D01*
X0109320Y0185749D02*
X0124218Y0185749D01*
X0124218Y0187564D02*
X0128898Y0187564D01*
X0128898Y0192638D01*
X0126128Y0192638D01*
X0125569Y0192488D01*
X0125067Y0192198D01*
X0124658Y0191788D01*
X0124368Y0191287D01*
X0124218Y0190727D01*
X0124218Y0187564D01*
X0124218Y0188147D02*
X0108337Y0188147D01*
X0106883Y0190546D02*
X0124218Y0190546D01*
X0128898Y0190546D02*
X0129057Y0190546D01*
X0129057Y0188147D02*
X0128898Y0188147D01*
X0124560Y0183350D02*
X0110304Y0183350D01*
X0111288Y0180952D02*
X0122607Y0180952D01*
X0120913Y0178553D02*
X0112271Y0178553D01*
X0116771Y0176155D02*
X0120602Y0176155D01*
X0118203Y0173756D02*
X0117076Y0173756D01*
X0124856Y0171358D02*
X0128431Y0171358D01*
X0128431Y0173756D02*
X0127003Y0173756D01*
X0125926Y0172428D02*
X0125926Y0172428D01*
X0127313Y0176155D02*
X0128431Y0176155D01*
X0137188Y0180952D02*
X0198529Y0180952D01*
X0196180Y0182559D02*
X0197351Y0183731D01*
X0197351Y0189908D01*
X0198332Y0190888D01*
X0199822Y0190888D01*
X0200166Y0190544D01*
X0201703Y0189907D01*
X0203367Y0189907D01*
X0204903Y0190544D01*
X0206079Y0191720D01*
X0206716Y0193257D01*
X0206716Y0194920D01*
X0206079Y0196457D01*
X0204903Y0197633D01*
X0203367Y0198269D01*
X0201703Y0198269D01*
X0200166Y0197633D01*
X0199822Y0197288D01*
X0196370Y0197288D01*
X0195194Y0196801D01*
X0194294Y0195901D01*
X0192826Y0194433D01*
X0186649Y0194433D01*
X0185477Y0193262D01*
X0185477Y0183731D01*
X0186649Y0182559D01*
X0196180Y0182559D01*
X0196971Y0183350D02*
X0200927Y0183350D01*
X0203357Y0185749D02*
X0197351Y0185749D01*
X0197351Y0188147D02*
X0220405Y0188147D01*
X0220405Y0185749D02*
X0214107Y0185749D01*
X0215936Y0183350D02*
X0220405Y0183350D01*
X0220405Y0180952D02*
X0216241Y0180952D01*
X0215125Y0178553D02*
X0220405Y0178553D01*
X0220405Y0176155D02*
X0213507Y0176155D01*
X0215833Y0173756D02*
X0220405Y0173756D01*
X0220405Y0171358D02*
X0216241Y0171358D01*
X0223605Y0169166D02*
X0223605Y0192699D01*
X0219424Y0192944D02*
X0206587Y0192944D01*
X0206541Y0195343D02*
X0220336Y0195343D01*
X0226874Y0195343D02*
X0309418Y0195343D01*
X0308922Y0192944D02*
X0227786Y0192944D01*
X0227239Y0190546D02*
X0257363Y0190546D01*
X0256631Y0188147D02*
X0226805Y0188147D01*
X0226805Y0185749D02*
X0232398Y0185749D01*
X0230570Y0183350D02*
X0226805Y0183350D01*
X0226805Y0180952D02*
X0230264Y0180952D01*
X0231380Y0178553D02*
X0226805Y0178553D01*
X0226805Y0176155D02*
X0232998Y0176155D01*
X0230673Y0173756D02*
X0226805Y0173756D01*
X0226805Y0171358D02*
X0230264Y0171358D01*
X0231131Y0168959D02*
X0228337Y0168959D01*
X0230736Y0166561D02*
X0233672Y0166561D01*
X0239322Y0164162D02*
X0240638Y0164162D01*
X0239836Y0161764D02*
X0243036Y0161764D01*
X0243501Y0159365D02*
X0239149Y0159365D01*
X0237767Y0156175D02*
X0236013Y0156901D01*
X0234115Y0156901D01*
X0232361Y0156175D01*
X0231019Y0154833D01*
X0230292Y0153079D01*
X0230292Y0151181D01*
X0231019Y0149427D01*
X0232361Y0148085D01*
X0234115Y0147358D01*
X0236013Y0147358D01*
X0237767Y0148085D01*
X0239109Y0149427D01*
X0239836Y0151181D01*
X0239836Y0153079D01*
X0239109Y0154833D01*
X0237767Y0156175D01*
X0239219Y0154568D02*
X0243501Y0154568D01*
X0243501Y0156967D02*
X0199040Y0156967D01*
X0196746Y0154568D02*
X0207287Y0154568D01*
X0207396Y0154833D02*
X0206670Y0153079D01*
X0206670Y0151181D01*
X0207396Y0149427D01*
X0208739Y0148085D01*
X0210492Y0147358D01*
X0212391Y0147358D01*
X0214144Y0148085D01*
X0215487Y0149427D01*
X0216213Y0151181D01*
X0216213Y0153079D01*
X0215487Y0154833D01*
X0214144Y0156175D01*
X0212391Y0156901D01*
X0210492Y0156901D01*
X0208739Y0156175D01*
X0207396Y0154833D01*
X0206670Y0152170D02*
X0197790Y0152170D01*
X0197790Y0149771D02*
X0207254Y0149771D01*
X0210458Y0147373D02*
X0197790Y0147373D01*
X0197790Y0144974D02*
X0204586Y0144974D01*
X0206425Y0142287D02*
X0211441Y0142287D01*
X0210922Y0141767D01*
X0206425Y0142287D02*
X0203603Y0139465D01*
X0203603Y0112489D01*
X0220140Y0095951D01*
X0222025Y0092207D02*
X0222522Y0092207D01*
X0222659Y0089808D02*
X0221992Y0089808D01*
X0224391Y0087410D02*
X0224779Y0087410D01*
X0226789Y0085011D02*
X0284882Y0085011D01*
X0284882Y0082613D02*
X0229188Y0082613D01*
X0231586Y0080214D02*
X0284882Y0080214D01*
X0284882Y0077816D02*
X0233985Y0077816D01*
X0236383Y0075417D02*
X0284882Y0075417D01*
X0284882Y0073019D02*
X0238782Y0073019D01*
X0241180Y0070620D02*
X0284882Y0070620D01*
X0284882Y0068222D02*
X0243579Y0068222D01*
X0245977Y0065823D02*
X0284882Y0065823D01*
X0284882Y0063425D02*
X0248376Y0063425D01*
X0250774Y0061026D02*
X0284882Y0061026D01*
X0284882Y0058628D02*
X0253173Y0058628D01*
X0255571Y0056229D02*
X0284882Y0056229D01*
X0284882Y0053831D02*
X0257970Y0053831D01*
X0260368Y0051432D02*
X0284882Y0051432D01*
X0284882Y0049034D02*
X0262767Y0049034D01*
X0265165Y0046635D02*
X0284882Y0046635D01*
X0284882Y0044237D02*
X0267564Y0044237D01*
X0269963Y0041838D02*
X0284882Y0041838D01*
X0284882Y0039440D02*
X0272361Y0039440D01*
X0274760Y0037041D02*
X0284882Y0037041D01*
X0284882Y0034643D02*
X0277158Y0034643D01*
X0279557Y0032244D02*
X0284882Y0032244D01*
X0284882Y0029845D02*
X0281276Y0029845D01*
X0278082Y0029193D02*
X0278082Y0020657D01*
X0288082Y0020657D02*
X0288082Y0117041D01*
X0284075Y0121048D01*
X0284075Y0139575D01*
X0285127Y0140627D01*
X0290390Y0140627D01*
X0290575Y0140443D01*
X0296905Y0140177D02*
X0308260Y0140177D01*
X0308260Y0137779D02*
X0301200Y0137779D01*
X0298781Y0135673D02*
X0290804Y0135673D01*
X0290575Y0135443D01*
X0290575Y0130443D02*
X0297319Y0130443D01*
X0299125Y0128637D01*
X0299125Y0021700D01*
X0298082Y0020657D01*
X0308082Y0020657D02*
X0308082Y0081113D01*
X0349142Y0122173D01*
X0349142Y0134176D01*
X0347875Y0135443D01*
X0341756Y0135443D01*
X0341631Y0130568D02*
X0335620Y0130568D01*
X0335075Y0132227D01*
X0335141Y0132293D01*
X0335141Y0181567D01*
X0332660Y0184048D01*
X0332660Y0184542D01*
X0340078Y0191961D01*
X0340078Y0194207D01*
X0336076Y0192944D02*
X0317284Y0192944D01*
X0316788Y0195343D02*
X0336023Y0195343D01*
X0337700Y0197741D02*
X0204642Y0197741D01*
X0200428Y0197741D02*
X0149888Y0197741D01*
X0150523Y0195343D02*
X0193736Y0195343D01*
X0197007Y0194088D02*
X0202535Y0194088D01*
X0204905Y0190546D02*
X0219971Y0190546D01*
X0200164Y0190546D02*
X0197989Y0190546D01*
X0197007Y0194088D02*
X0191414Y0188496D01*
X0185477Y0188147D02*
X0176579Y0188147D01*
X0176579Y0187440D02*
X0176579Y0188977D01*
X0181947Y0188977D01*
X0181947Y0192436D01*
X0181797Y0192995D01*
X0181507Y0193497D01*
X0181098Y0193906D01*
X0180596Y0194196D01*
X0180037Y0194346D01*
X0176578Y0194346D01*
X0176578Y0188978D01*
X0175041Y0188978D01*
X0175041Y0194346D01*
X0171583Y0194346D01*
X0171024Y0194196D01*
X0170522Y0193906D01*
X0170113Y0193497D01*
X0169823Y0192995D01*
X0169673Y0192436D01*
X0169673Y0188977D01*
X0175041Y0188977D01*
X0175041Y0187440D01*
X0176578Y0187440D01*
X0176578Y0182072D01*
X0180037Y0182072D01*
X0180596Y0182222D01*
X0181098Y0182512D01*
X0181507Y0182921D01*
X0181797Y0183423D01*
X0181947Y0183982D01*
X0181947Y0187440D01*
X0176579Y0187440D01*
X0175041Y0187440D02*
X0175041Y0182072D01*
X0171583Y0182072D01*
X0171024Y0182222D01*
X0170522Y0182512D01*
X0170113Y0182921D01*
X0169823Y0183423D01*
X0169673Y0183982D01*
X0169673Y0187440D01*
X0175041Y0187440D01*
X0175041Y0188147D02*
X0166253Y0188147D01*
X0165813Y0185749D02*
X0169673Y0185749D01*
X0169865Y0183350D02*
X0156848Y0183350D01*
X0152782Y0187624D02*
X0152800Y0187642D01*
X0162072Y0187642D01*
X0165081Y0190546D02*
X0169673Y0190546D01*
X0169809Y0192944D02*
X0149824Y0192944D01*
X0145302Y0187624D02*
X0145162Y0187485D01*
X0140433Y0187485D01*
X0140663Y0183350D02*
X0141236Y0183350D01*
X0144242Y0178553D02*
X0186517Y0178553D01*
X0185858Y0183350D02*
X0181755Y0183350D01*
X0181947Y0185749D02*
X0185477Y0185749D01*
X0185477Y0190546D02*
X0181947Y0190546D01*
X0181811Y0192944D02*
X0185477Y0192944D01*
X0176578Y0192944D02*
X0175041Y0192944D01*
X0175041Y0190546D02*
X0176578Y0190546D01*
X0176578Y0185749D02*
X0175041Y0185749D01*
X0175041Y0183350D02*
X0176578Y0183350D01*
X0169873Y0176155D02*
X0167952Y0176155D01*
X0168257Y0173756D02*
X0169873Y0173756D01*
X0167918Y0171358D02*
X0167785Y0171358D01*
X0155596Y0173756D02*
X0144242Y0173756D01*
X0144242Y0171358D02*
X0150865Y0171358D01*
X0150257Y0168959D02*
X0144242Y0168959D01*
X0144242Y0166561D02*
X0151021Y0166561D01*
X0155596Y0164162D02*
X0144242Y0164162D01*
X0144242Y0161764D02*
X0155662Y0161764D01*
X0155596Y0159365D02*
X0144242Y0159365D01*
X0144242Y0156967D02*
X0155596Y0156967D01*
X0155596Y0154568D02*
X0144242Y0154568D01*
X0144242Y0152170D02*
X0155596Y0152170D01*
X0161927Y0153840D02*
X0170044Y0153840D01*
X0170181Y0153702D01*
X0170181Y0153365D01*
X0171525Y0152021D01*
X0169647Y0147373D02*
X0168257Y0147373D01*
X0168257Y0144974D02*
X0169647Y0144974D01*
X0170816Y0142576D02*
X0168257Y0142576D01*
X0168257Y0140177D02*
X0200434Y0140177D01*
X0200403Y0137779D02*
X0197787Y0137779D01*
X0197790Y0137775D02*
X0196619Y0138947D01*
X0187088Y0138947D01*
X0185916Y0137775D01*
X0185916Y0128244D01*
X0187088Y0127073D01*
X0191160Y0127073D01*
X0191160Y0126566D01*
X0190816Y0126222D01*
X0190179Y0124685D01*
X0190179Y0123021D01*
X0190816Y0121485D01*
X0191992Y0120309D01*
X0193529Y0119672D01*
X0195192Y0119672D01*
X0196729Y0120309D01*
X0197905Y0121485D01*
X0198542Y0123021D01*
X0198542Y0124685D01*
X0197905Y0126222D01*
X0197560Y0126566D01*
X0197560Y0128014D01*
X0197790Y0128244D01*
X0197790Y0137775D01*
X0197790Y0135380D02*
X0200403Y0135380D01*
X0200403Y0132981D02*
X0197790Y0132981D01*
X0197790Y0130583D02*
X0200403Y0130583D01*
X0200403Y0128184D02*
X0197730Y0128184D01*
X0198085Y0125786D02*
X0200403Y0125786D01*
X0200403Y0123387D02*
X0198542Y0123387D01*
X0194360Y0123853D02*
X0194360Y0130503D01*
X0191853Y0133010D01*
X0185916Y0132981D02*
X0176352Y0132981D01*
X0176352Y0133531D02*
X0181721Y0133531D01*
X0181721Y0136989D01*
X0181571Y0137549D01*
X0181281Y0138050D01*
X0180872Y0138460D01*
X0180370Y0138750D01*
X0179810Y0138900D01*
X0176352Y0138900D01*
X0176352Y0133531D01*
X0174815Y0133531D02*
X0174815Y0138900D01*
X0171357Y0138900D01*
X0170798Y0138750D01*
X0170296Y0138460D01*
X0169886Y0138050D01*
X0169597Y0137549D01*
X0169447Y0136989D01*
X0169447Y0133531D01*
X0174815Y0133531D01*
X0174815Y0132981D02*
X0168257Y0132981D01*
X0168257Y0130583D02*
X0169447Y0130583D01*
X0169541Y0128184D02*
X0168257Y0128184D01*
X0167471Y0123464D02*
X0183811Y0123464D01*
X0278082Y0029193D01*
X0268082Y0028253D02*
X0268082Y0020657D01*
X0258082Y0020657D02*
X0258082Y0031704D01*
X0240807Y0048980D01*
X0239670Y0056664D02*
X0268082Y0028253D01*
X0248082Y0030953D02*
X0248082Y0020657D01*
X0233082Y0020657D02*
X0233082Y0069778D01*
X0183471Y0119389D01*
X0168385Y0119389D01*
X0167910Y0116644D02*
X0167962Y0116592D01*
X0179087Y0116592D01*
X0222606Y0073072D01*
X0222963Y0073072D01*
X0227285Y0062012D02*
X0227522Y0062012D01*
X0227285Y0062012D02*
X0176705Y0112592D01*
X0135149Y0112592D01*
X0131657Y0116084D01*
X0129558Y0112723D02*
X0133833Y0108448D01*
X0175688Y0108448D01*
X0223082Y0061054D01*
X0223082Y0020657D01*
X0238458Y0040577D02*
X0248082Y0030953D01*
X0216607Y0060003D02*
X0173067Y0103543D01*
X0131318Y0103543D01*
X0128858Y0106003D01*
X0126141Y0104199D02*
X0070423Y0104199D01*
X0070423Y0101801D02*
X0128535Y0101801D01*
X0124303Y0106598D02*
X0070423Y0106598D01*
X0070423Y0108996D02*
X0121905Y0108996D01*
X0119506Y0111395D02*
X0070423Y0111395D01*
X0070423Y0113793D02*
X0117108Y0113793D01*
X0115700Y0116192D02*
X0070423Y0116192D01*
X0070423Y0118590D02*
X0115700Y0118590D01*
X0115700Y0120989D02*
X0070423Y0120989D01*
X0070423Y0123387D02*
X0077395Y0123387D01*
X0077756Y0122999D02*
X0076456Y0124397D01*
X0075789Y0126187D01*
X0075906Y0129436D01*
X0075560Y0129436D01*
X0074388Y0130608D01*
X0074388Y0140139D01*
X0075560Y0141310D01*
X0085091Y0141310D01*
X0086262Y0140139D01*
X0086262Y0130608D01*
X0085528Y0129873D01*
X0085382Y0125841D01*
X0084589Y0124105D01*
X0083191Y0122804D01*
X0081402Y0122137D01*
X0079493Y0122206D01*
X0077756Y0122999D01*
X0083818Y0123387D02*
X0115700Y0123387D01*
X0105459Y0125786D02*
X0085357Y0125786D01*
X0085467Y0128184D02*
X0104415Y0128184D01*
X0104415Y0130583D02*
X0101842Y0130583D01*
X0101836Y0130558D02*
X0101985Y0131117D01*
X0101985Y0134575D01*
X0096617Y0134575D01*
X0096617Y0129207D01*
X0100075Y0129207D01*
X0100635Y0129357D01*
X0101136Y0129646D01*
X0101546Y0130056D01*
X0101836Y0130558D01*
X0101985Y0132981D02*
X0104415Y0132981D01*
X0104415Y0135380D02*
X0096617Y0135380D01*
X0096617Y0136112D02*
X0101985Y0136112D01*
X0101985Y0139571D01*
X0101836Y0140130D01*
X0101546Y0140632D01*
X0101136Y0141041D01*
X0100635Y0141331D01*
X0100075Y0141481D01*
X0096617Y0141481D01*
X0096617Y0136112D01*
X0096617Y0134575D01*
X0095080Y0134575D01*
X0095080Y0129207D01*
X0091622Y0129207D01*
X0091062Y0129357D01*
X0090561Y0129646D01*
X0090151Y0130056D01*
X0089861Y0130558D01*
X0089711Y0131117D01*
X0089711Y0134575D01*
X0095080Y0134575D01*
X0095080Y0136112D01*
X0089711Y0136112D01*
X0089711Y0139571D01*
X0089861Y0140130D01*
X0090151Y0140632D01*
X0090561Y0141041D01*
X0091062Y0141331D01*
X0091622Y0141481D01*
X0095080Y0141481D01*
X0095080Y0136112D01*
X0096617Y0136112D01*
X0096617Y0137779D02*
X0095080Y0137779D01*
X0095080Y0140177D02*
X0096617Y0140177D01*
X0101808Y0140177D02*
X0104415Y0140177D01*
X0104415Y0137779D02*
X0101985Y0137779D01*
X0104415Y0142576D02*
X0066009Y0142576D01*
X0064955Y0144974D02*
X0104415Y0144974D01*
X0104215Y0147373D02*
X0101785Y0147373D01*
X0101806Y0153702D02*
X0110608Y0153702D01*
X0110746Y0153840D01*
X0117076Y0154568D02*
X0128431Y0154568D01*
X0128431Y0152170D02*
X0117076Y0152170D01*
X0117276Y0149771D02*
X0128431Y0149771D01*
X0128431Y0147373D02*
X0117276Y0147373D01*
X0120449Y0144974D02*
X0128431Y0144974D01*
X0128431Y0142576D02*
X0122847Y0142576D01*
X0125246Y0140177D02*
X0128431Y0140177D01*
X0128431Y0137779D02*
X0127644Y0137779D01*
X0144242Y0147373D02*
X0145929Y0147373D01*
X0144242Y0149771D02*
X0148327Y0149771D01*
X0162022Y0158745D02*
X0169845Y0158745D01*
X0171358Y0160257D01*
X0171693Y0160257D01*
X0162022Y0158745D02*
X0162003Y0158747D01*
X0161986Y0158752D01*
X0161969Y0158761D01*
X0161955Y0158773D01*
X0161943Y0158787D01*
X0161934Y0158804D01*
X0161929Y0158821D01*
X0161927Y0158840D01*
X0180351Y0142576D02*
X0202188Y0142576D01*
X0206803Y0137779D02*
X0209858Y0137779D01*
X0213025Y0137779D02*
X0224163Y0137779D01*
X0224163Y0140177D02*
X0215732Y0140177D01*
X0216213Y0142576D02*
X0225842Y0142576D01*
X0225551Y0142284D02*
X0225551Y0142284D01*
X0227204Y0143938D01*
X0227204Y0143938D01*
X0228105Y0144838D01*
X0229281Y0145325D01*
X0231354Y0145325D01*
X0232361Y0146333D01*
X0234115Y0147059D01*
X0236013Y0147059D01*
X0237767Y0146333D01*
X0239109Y0144990D01*
X0239836Y0143236D01*
X0239836Y0141338D01*
X0239109Y0139584D01*
X0237767Y0138242D01*
X0236013Y0137516D01*
X0234115Y0137516D01*
X0232361Y0138242D01*
X0231678Y0138925D01*
X0231243Y0138925D01*
X0230563Y0138246D01*
X0230563Y0134048D01*
X0231019Y0135148D01*
X0232361Y0136490D01*
X0234115Y0137216D01*
X0236013Y0137216D01*
X0237767Y0136490D01*
X0239109Y0135148D01*
X0239836Y0133394D01*
X0239836Y0131496D01*
X0239109Y0129742D01*
X0237767Y0128400D01*
X0237270Y0128194D01*
X0237270Y0105006D01*
X0237615Y0104661D01*
X0238251Y0103124D01*
X0238251Y0101461D01*
X0237615Y0099924D01*
X0236439Y0098748D01*
X0234902Y0098112D01*
X0233238Y0098112D01*
X0231702Y0098748D01*
X0230526Y0099924D01*
X0229889Y0101461D01*
X0229889Y0103124D01*
X0230526Y0104661D01*
X0230870Y0105006D01*
X0230870Y0105921D01*
X0229732Y0104783D01*
X0228195Y0104146D01*
X0226532Y0104146D01*
X0224995Y0104783D01*
X0223819Y0105959D01*
X0223182Y0107496D01*
X0223182Y0109159D01*
X0223819Y0110696D01*
X0224163Y0111040D01*
X0224163Y0140208D01*
X0224651Y0141384D01*
X0225551Y0142284D01*
X0227363Y0139571D02*
X0229917Y0142125D01*
X0234902Y0142125D01*
X0235064Y0142287D01*
X0239836Y0142576D02*
X0252639Y0142576D01*
X0250240Y0144974D02*
X0239116Y0144974D01*
X0236048Y0147373D02*
X0247842Y0147373D01*
X0245443Y0149771D02*
X0239252Y0149771D01*
X0239836Y0152170D02*
X0243740Y0152170D01*
X0234080Y0147373D02*
X0212425Y0147373D01*
X0215493Y0144974D02*
X0228433Y0144974D01*
X0230876Y0149771D02*
X0215629Y0149771D01*
X0216213Y0152170D02*
X0230292Y0152170D01*
X0230909Y0154568D02*
X0215596Y0154568D01*
X0218330Y0159365D02*
X0228880Y0159365D01*
X0230799Y0161972D02*
X0223605Y0169166D01*
X0216411Y0161972D01*
X0211441Y0161972D01*
X0206670Y0161764D02*
X0203837Y0161764D01*
X0201439Y0159365D02*
X0207357Y0159365D01*
X0207184Y0164162D02*
X0206236Y0164162D01*
X0208635Y0166561D02*
X0210050Y0166561D01*
X0212833Y0166561D02*
X0216474Y0166561D01*
X0215374Y0168959D02*
X0218873Y0168959D01*
X0223127Y0164162D02*
X0224083Y0164162D01*
X0226482Y0161764D02*
X0220728Y0161764D01*
X0230799Y0161972D02*
X0235064Y0161972D01*
X0260482Y0163088D02*
X0261073Y0163679D01*
X0265313Y0168959D02*
X0271161Y0168959D01*
X0272356Y0173290D02*
X0275814Y0173290D01*
X0275814Y0178658D01*
X0270446Y0178658D01*
X0270446Y0175200D01*
X0270596Y0174640D01*
X0270885Y0174139D01*
X0271295Y0173729D01*
X0271797Y0173440D01*
X0272356Y0173290D01*
X0271268Y0173756D02*
X0266105Y0173756D01*
X0266419Y0176155D02*
X0270446Y0176155D01*
X0270446Y0178553D02*
X0266419Y0178553D01*
X0266419Y0180952D02*
X0270446Y0180952D01*
X0270446Y0180195D02*
X0275814Y0180195D01*
X0275814Y0178658D01*
X0277351Y0178658D01*
X0277351Y0173290D01*
X0280810Y0173290D01*
X0281369Y0173440D01*
X0281871Y0173729D01*
X0282280Y0174139D01*
X0282570Y0174640D01*
X0282720Y0175200D01*
X0282720Y0178658D01*
X0277352Y0178658D01*
X0277352Y0180195D01*
X0282720Y0180195D01*
X0282720Y0183653D01*
X0282570Y0184213D01*
X0282280Y0184714D01*
X0281871Y0185124D01*
X0281369Y0185414D01*
X0280810Y0185564D01*
X0277351Y0185564D01*
X0277351Y0180195D01*
X0275814Y0180195D01*
X0275814Y0185564D01*
X0272356Y0185564D01*
X0271797Y0185414D01*
X0271295Y0185124D01*
X0270885Y0184714D01*
X0270596Y0184213D01*
X0270446Y0183653D01*
X0270446Y0180195D01*
X0275814Y0180952D02*
X0277351Y0180952D01*
X0277351Y0183350D02*
X0275814Y0183350D01*
X0270446Y0183350D02*
X0266419Y0183350D01*
X0264371Y0185749D02*
X0301273Y0185749D01*
X0301273Y0184626D02*
X0305953Y0184626D01*
X0305953Y0189700D01*
X0303184Y0189700D01*
X0302624Y0189550D01*
X0302123Y0189260D01*
X0301713Y0188850D01*
X0301423Y0188349D01*
X0301273Y0187789D01*
X0301273Y0184626D01*
X0301273Y0184467D02*
X0301273Y0181304D01*
X0301423Y0180745D01*
X0301713Y0180243D01*
X0302123Y0179834D01*
X0302624Y0179544D01*
X0303184Y0179394D01*
X0305953Y0179394D01*
X0305953Y0184467D01*
X0301273Y0184467D01*
X0301273Y0183350D02*
X0282720Y0183350D01*
X0282720Y0180952D02*
X0287946Y0180952D01*
X0286504Y0178553D02*
X0282720Y0178553D01*
X0282720Y0176155D02*
X0286832Y0176155D01*
X0287485Y0173756D02*
X0281898Y0173756D01*
X0284244Y0171358D02*
X0260545Y0171358D01*
X0260482Y0178836D02*
X0260812Y0179165D01*
X0260812Y0188082D01*
X0264993Y0188147D02*
X0301369Y0188147D01*
X0305953Y0188147D02*
X0306112Y0188147D01*
X0306112Y0185749D02*
X0305953Y0185749D01*
X0305953Y0183350D02*
X0306112Y0183350D01*
X0306112Y0180952D02*
X0305953Y0180952D01*
X0313103Y0184956D02*
X0313103Y0193314D01*
X0309903Y0190546D02*
X0264261Y0190546D01*
X0257252Y0185749D02*
X0246123Y0185749D01*
X0248552Y0183350D02*
X0254545Y0183350D01*
X0254545Y0180952D02*
X0250951Y0180952D01*
X0253349Y0178553D02*
X0254545Y0178553D01*
X0242171Y0176155D02*
X0237130Y0176155D01*
X0275814Y0176155D02*
X0277351Y0176155D01*
X0277351Y0178553D02*
X0275814Y0178553D01*
X0275814Y0173756D02*
X0277351Y0173756D01*
X0282005Y0168959D02*
X0284244Y0168959D01*
X0284244Y0166561D02*
X0282520Y0166561D01*
X0282520Y0164162D02*
X0284244Y0164162D01*
X0284244Y0161764D02*
X0283601Y0161764D01*
X0282116Y0156461D02*
X0283134Y0155443D01*
X0290575Y0155443D01*
X0296905Y0154568D02*
X0308260Y0154568D01*
X0308260Y0152170D02*
X0296905Y0152170D01*
X0296905Y0149771D02*
X0308260Y0149771D01*
X0308260Y0147373D02*
X0296982Y0147373D01*
X0297105Y0145443D02*
X0290575Y0145443D01*
X0290575Y0145443D01*
X0297105Y0145443D01*
X0297105Y0144974D02*
X0308260Y0144974D01*
X0308260Y0142576D02*
X0296782Y0142576D01*
X0298781Y0135673D02*
X0304346Y0130107D01*
X0304346Y0093516D01*
X0308329Y0092207D02*
X0314651Y0092207D01*
X0317049Y0094605D02*
X0308421Y0094605D01*
X0307546Y0097004D02*
X0319448Y0097004D01*
X0321846Y0099402D02*
X0307546Y0099402D01*
X0307546Y0101801D02*
X0324245Y0101801D01*
X0326643Y0104199D02*
X0307546Y0104199D01*
X0307546Y0106598D02*
X0329042Y0106598D01*
X0331440Y0108996D02*
X0307546Y0108996D01*
X0307546Y0111395D02*
X0333839Y0111395D01*
X0336238Y0113793D02*
X0307546Y0113793D01*
X0307546Y0116192D02*
X0338636Y0116192D01*
X0341035Y0118590D02*
X0323106Y0118590D01*
X0322899Y0118384D02*
X0324071Y0119555D01*
X0324071Y0176330D01*
X0322899Y0177502D01*
X0317113Y0177502D01*
X0317075Y0177518D01*
X0315255Y0177518D01*
X0315217Y0177502D01*
X0309431Y0177502D01*
X0308260Y0176330D01*
X0308260Y0119555D01*
X0309431Y0118384D01*
X0315217Y0118384D01*
X0315255Y0118368D01*
X0317075Y0118368D01*
X0317113Y0118384D01*
X0322899Y0118384D01*
X0324071Y0120989D02*
X0343433Y0120989D01*
X0335471Y0123387D02*
X0324071Y0123387D01*
X0324071Y0125786D02*
X0335425Y0125786D01*
X0333448Y0128184D02*
X0324071Y0128184D01*
X0324071Y0130583D02*
X0332247Y0130583D01*
X0331923Y0132981D02*
X0324071Y0132981D01*
X0324071Y0135380D02*
X0331941Y0135380D01*
X0331941Y0137779D02*
X0324071Y0137779D01*
X0324071Y0140177D02*
X0331941Y0140177D01*
X0331941Y0142576D02*
X0324071Y0142576D01*
X0324071Y0144974D02*
X0331941Y0144974D01*
X0331941Y0147373D02*
X0324071Y0147373D01*
X0324071Y0149771D02*
X0331941Y0149771D01*
X0331941Y0152170D02*
X0324071Y0152170D01*
X0324071Y0154568D02*
X0331941Y0154568D01*
X0331941Y0156967D02*
X0324071Y0156967D01*
X0324071Y0159365D02*
X0331941Y0159365D01*
X0331941Y0161764D02*
X0324071Y0161764D01*
X0324071Y0164162D02*
X0331941Y0164162D01*
X0331941Y0166561D02*
X0324071Y0166561D01*
X0324071Y0168959D02*
X0331941Y0168959D01*
X0331941Y0171358D02*
X0324071Y0171358D01*
X0324071Y0173756D02*
X0331941Y0173756D01*
X0331941Y0176155D02*
X0324071Y0176155D01*
X0320620Y0180952D02*
X0318072Y0180952D01*
X0313517Y0184542D02*
X0325179Y0184542D01*
X0320620Y0188147D02*
X0318072Y0188147D01*
X0316303Y0190546D02*
X0334138Y0190546D01*
X0338392Y0185749D02*
X0353422Y0185749D01*
X0353422Y0188147D02*
X0340790Y0188147D01*
X0342956Y0190546D02*
X0353422Y0190546D01*
X0353422Y0192589D02*
X0353422Y0183059D01*
X0354593Y0181887D01*
X0364124Y0181887D01*
X0365296Y0183059D01*
X0365296Y0192589D01*
X0365089Y0192796D01*
X0366065Y0193773D01*
X0366702Y0195310D01*
X0366702Y0196973D01*
X0366065Y0198510D01*
X0364889Y0199686D01*
X0363352Y0200322D01*
X0361689Y0200322D01*
X0360152Y0199686D01*
X0358976Y0198510D01*
X0358340Y0196973D01*
X0358340Y0195310D01*
X0358568Y0194757D01*
X0358189Y0193761D01*
X0354593Y0193761D01*
X0353422Y0192589D01*
X0353777Y0192944D02*
X0344081Y0192944D01*
X0344133Y0195343D02*
X0358340Y0195343D01*
X0358658Y0197741D02*
X0342457Y0197741D01*
X0361248Y0200140D02*
X0089549Y0200140D01*
X0090350Y0202538D02*
X0398583Y0202538D01*
X0398583Y0200140D02*
X0363793Y0200140D01*
X0366384Y0197741D02*
X0398583Y0197741D01*
X0398583Y0195343D02*
X0366702Y0195343D01*
X0365236Y0192944D02*
X0369696Y0192944D01*
X0369170Y0190546D02*
X0365296Y0190546D01*
X0365296Y0188147D02*
X0374538Y0188147D01*
X0376076Y0188147D02*
X0398583Y0188147D01*
X0398583Y0185749D02*
X0395889Y0185749D01*
X0397717Y0183350D02*
X0398583Y0183350D01*
X0398583Y0180952D02*
X0398023Y0180952D01*
X0398583Y0178553D02*
X0396907Y0178553D01*
X0395289Y0176155D02*
X0398583Y0176155D01*
X0398583Y0173756D02*
X0397614Y0173756D01*
X0398023Y0171358D02*
X0398583Y0171358D01*
X0398583Y0168959D02*
X0397155Y0168959D01*
X0398583Y0166561D02*
X0394615Y0166561D01*
X0397481Y0164162D02*
X0398583Y0164162D01*
X0398583Y0161764D02*
X0397995Y0161764D01*
X0398583Y0159365D02*
X0397308Y0159365D01*
X0398583Y0156967D02*
X0389852Y0156967D01*
X0397378Y0154568D02*
X0398583Y0154568D01*
X0398583Y0152170D02*
X0397995Y0152170D01*
X0397411Y0149771D02*
X0398583Y0149771D01*
X0398583Y0147373D02*
X0394207Y0147373D01*
X0394172Y0147059D02*
X0392274Y0147059D01*
X0390520Y0146333D01*
X0389178Y0144990D01*
X0388451Y0143236D01*
X0388451Y0141338D01*
X0389178Y0139584D01*
X0390520Y0138242D01*
X0392274Y0137516D01*
X0394172Y0137516D01*
X0395926Y0138242D01*
X0397268Y0139584D01*
X0397995Y0141338D01*
X0397995Y0143236D01*
X0397268Y0144990D01*
X0395926Y0146333D01*
X0394172Y0147059D01*
X0392239Y0147373D02*
X0386520Y0147373D01*
X0388918Y0149771D02*
X0389035Y0149771D01*
X0389171Y0144974D02*
X0384121Y0144974D01*
X0388451Y0142576D02*
X0355299Y0142576D01*
X0356372Y0140177D02*
X0388932Y0140177D01*
X0391639Y0137779D02*
X0382026Y0137779D01*
X0382026Y0137899D02*
X0380854Y0139071D01*
X0371323Y0139071D01*
X0370152Y0137899D01*
X0370152Y0128368D01*
X0371323Y0127197D01*
X0372889Y0127197D01*
X0372889Y0124531D01*
X0372681Y0124030D01*
X0372681Y0122367D01*
X0373318Y0120830D01*
X0374494Y0119654D01*
X0376031Y0119018D01*
X0377694Y0119018D01*
X0379231Y0119654D01*
X0380407Y0120830D01*
X0381043Y0122367D01*
X0381043Y0124030D01*
X0380407Y0125567D01*
X0379289Y0126685D01*
X0379289Y0127197D01*
X0380854Y0127197D01*
X0382026Y0128368D01*
X0382026Y0137899D01*
X0382026Y0135380D02*
X0389410Y0135380D01*
X0389178Y0135148D02*
X0388451Y0133394D01*
X0388451Y0131496D01*
X0389178Y0129742D01*
X0390520Y0128400D01*
X0392274Y0127673D01*
X0394172Y0127673D01*
X0395926Y0128400D01*
X0397268Y0129742D01*
X0397995Y0131496D01*
X0397995Y0133394D01*
X0397268Y0135148D01*
X0395926Y0136490D01*
X0394172Y0137216D01*
X0392274Y0137216D01*
X0390520Y0136490D01*
X0389178Y0135148D01*
X0388451Y0132981D02*
X0382026Y0132981D01*
X0382026Y0130583D02*
X0388829Y0130583D01*
X0391039Y0128184D02*
X0381842Y0128184D01*
X0380188Y0125786D02*
X0398583Y0125786D01*
X0398583Y0128184D02*
X0395406Y0128184D01*
X0397617Y0130583D02*
X0398583Y0130583D01*
X0398583Y0132981D02*
X0397995Y0132981D01*
X0398583Y0135380D02*
X0397036Y0135380D01*
X0398583Y0137779D02*
X0394807Y0137779D01*
X0397514Y0140177D02*
X0398583Y0140177D01*
X0398583Y0142576D02*
X0397995Y0142576D01*
X0398583Y0144974D02*
X0397275Y0144974D01*
X0376089Y0133134D02*
X0376089Y0123973D01*
X0376862Y0123199D01*
X0372681Y0123387D02*
X0356482Y0123387D01*
X0356372Y0125786D02*
X0372889Y0125786D01*
X0370335Y0128184D02*
X0366576Y0128184D01*
X0366701Y0130583D02*
X0370152Y0130583D01*
X0370152Y0132981D02*
X0361332Y0132981D01*
X0361332Y0133645D02*
X0366701Y0133645D01*
X0366701Y0137103D01*
X0366551Y0137662D01*
X0366261Y0138164D01*
X0365852Y0138574D01*
X0365350Y0138863D01*
X0364790Y0139013D01*
X0361332Y0139013D01*
X0361332Y0133645D01*
X0361332Y0135380D02*
X0359795Y0135380D01*
X0359795Y0137779D02*
X0361332Y0137779D01*
X0366484Y0137779D02*
X0370152Y0137779D01*
X0370152Y0135380D02*
X0366701Y0135380D01*
X0361332Y0130583D02*
X0359795Y0130583D01*
X0359795Y0128184D02*
X0361332Y0128184D01*
X0353172Y0122172D02*
X0356395Y0118949D01*
X0318082Y0080636D01*
X0318082Y0020657D01*
X0321282Y0029845D02*
X0344536Y0029845D01*
X0344158Y0032244D02*
X0321282Y0032244D01*
X0321282Y0034643D02*
X0344158Y0034643D01*
X0344158Y0035917D02*
X0350295Y0035917D01*
X0350295Y0035917D01*
X0350295Y0035917D01*
X0356432Y0035917D01*
X0356432Y0040337D01*
X0356281Y0041291D01*
X0355982Y0042210D01*
X0355544Y0043071D01*
X0354976Y0043852D01*
X0354293Y0044535D01*
X0353512Y0045103D01*
X0352651Y0045542D01*
X0351732Y0045840D01*
X0350778Y0045991D01*
X0350295Y0045991D01*
X0349812Y0045991D01*
X0348858Y0045840D01*
X0347939Y0045542D01*
X0347079Y0045103D01*
X0346297Y0044535D01*
X0345614Y0043852D01*
X0345046Y0043071D01*
X0344608Y0042210D01*
X0344309Y0041291D01*
X0344158Y0040337D01*
X0344158Y0035917D01*
X0344158Y0037041D02*
X0321282Y0037041D01*
X0321282Y0039440D02*
X0344158Y0039440D01*
X0344487Y0041838D02*
X0321282Y0041838D01*
X0321282Y0044237D02*
X0345998Y0044237D01*
X0350295Y0044237D02*
X0350295Y0044237D01*
X0350295Y0045991D02*
X0350295Y0035917D01*
X0350295Y0035917D01*
X0350295Y0045991D01*
X0354592Y0044237D02*
X0369832Y0044237D01*
X0368229Y0041838D02*
X0356103Y0041838D01*
X0356432Y0039440D02*
X0367889Y0039440D01*
X0367889Y0037041D02*
X0356432Y0037041D01*
X0356432Y0034643D02*
X0367889Y0034643D01*
X0367889Y0032244D02*
X0356432Y0032244D01*
X0356054Y0029845D02*
X0368275Y0029845D01*
X0379376Y0029845D02*
X0398583Y0029845D01*
X0398583Y0032244D02*
X0379763Y0032244D01*
X0379763Y0034643D02*
X0398583Y0034643D01*
X0398583Y0037041D02*
X0379763Y0037041D01*
X0379763Y0039440D02*
X0398583Y0039440D01*
X0398583Y0041838D02*
X0379422Y0041838D01*
X0377819Y0044237D02*
X0398583Y0044237D01*
X0398583Y0046635D02*
X0321282Y0046635D01*
X0321282Y0049034D02*
X0355845Y0049034D01*
X0354754Y0049485D02*
X0356936Y0048582D01*
X0367172Y0048582D01*
X0369354Y0049485D01*
X0371024Y0051156D01*
X0371928Y0053338D01*
X0371928Y0055700D01*
X0371024Y0057882D01*
X0369354Y0059552D01*
X0367172Y0060456D01*
X0356936Y0060456D01*
X0354754Y0059552D01*
X0353084Y0057882D01*
X0352180Y0055700D01*
X0352180Y0053338D01*
X0353084Y0051156D01*
X0354754Y0049485D01*
X0352969Y0051432D02*
X0321282Y0051432D01*
X0321282Y0053831D02*
X0352180Y0053831D01*
X0352399Y0056229D02*
X0321282Y0056229D01*
X0321282Y0058628D02*
X0353830Y0058628D01*
X0370278Y0058628D02*
X0398583Y0058628D01*
X0398583Y0061026D02*
X0321282Y0061026D01*
X0321282Y0063425D02*
X0398583Y0063425D01*
X0398583Y0065823D02*
X0321282Y0065823D01*
X0321282Y0068222D02*
X0398583Y0068222D01*
X0398583Y0070620D02*
X0321282Y0070620D01*
X0321282Y0073019D02*
X0398583Y0073019D01*
X0398583Y0075417D02*
X0321282Y0075417D01*
X0321282Y0077816D02*
X0398583Y0077816D01*
X0398583Y0080214D02*
X0322186Y0080214D01*
X0324585Y0082613D02*
X0398583Y0082613D01*
X0398583Y0085011D02*
X0326983Y0085011D01*
X0329382Y0087410D02*
X0398583Y0087410D01*
X0398583Y0089808D02*
X0331780Y0089808D01*
X0334179Y0092207D02*
X0398583Y0092207D01*
X0398583Y0094605D02*
X0336577Y0094605D01*
X0338976Y0097004D02*
X0398583Y0097004D01*
X0398583Y0099402D02*
X0341374Y0099402D01*
X0343773Y0101801D02*
X0398583Y0101801D01*
X0398583Y0104199D02*
X0346171Y0104199D01*
X0348570Y0106598D02*
X0398583Y0106598D01*
X0398583Y0108996D02*
X0350968Y0108996D01*
X0353367Y0111395D02*
X0398583Y0111395D01*
X0398583Y0113793D02*
X0355765Y0113793D01*
X0358164Y0116192D02*
X0398583Y0116192D01*
X0398583Y0118590D02*
X0359595Y0118590D01*
X0358881Y0120989D02*
X0373252Y0120989D01*
X0380473Y0120989D02*
X0398583Y0120989D01*
X0398583Y0123387D02*
X0381043Y0123387D01*
X0353172Y0122172D02*
X0353172Y0140177D01*
X0347906Y0145443D01*
X0341756Y0145443D01*
X0341756Y0150443D02*
X0353392Y0150443D01*
X0353392Y0148868D01*
X0353147Y0148624D01*
X0347924Y0155443D02*
X0341756Y0155443D01*
X0347924Y0155443D02*
X0349295Y0156814D01*
X0349295Y0156923D01*
X0350948Y0158576D01*
X0348811Y0165443D02*
X0341756Y0165443D01*
X0348811Y0165443D02*
X0348811Y0165933D01*
X0349792Y0166914D01*
X0349792Y0174658D01*
X0345875Y0178576D01*
X0341693Y0178553D02*
X0338341Y0178553D01*
X0338341Y0176155D02*
X0342383Y0176155D01*
X0346169Y0173756D02*
X0338341Y0173756D01*
X0331941Y0178553D02*
X0294866Y0178553D01*
X0294538Y0176155D02*
X0308260Y0176155D01*
X0308260Y0173756D02*
X0293885Y0173756D01*
X0296905Y0171358D02*
X0308260Y0171358D01*
X0308260Y0168959D02*
X0296905Y0168959D01*
X0296905Y0166561D02*
X0308260Y0166561D01*
X0308260Y0164162D02*
X0296905Y0164162D01*
X0296905Y0161764D02*
X0308260Y0161764D01*
X0308260Y0159365D02*
X0296905Y0159365D01*
X0296905Y0156967D02*
X0308260Y0156967D01*
X0290575Y0150443D02*
X0283912Y0150443D01*
X0282561Y0149093D01*
X0280875Y0140177D02*
X0239355Y0140177D01*
X0236648Y0137779D02*
X0280875Y0137779D01*
X0277362Y0135380D02*
X0275825Y0135380D01*
X0275825Y0132981D02*
X0277362Y0132981D01*
X0276593Y0130676D02*
X0276593Y0120908D01*
X0276765Y0120736D01*
X0280875Y0120989D02*
X0264672Y0120989D01*
X0264672Y0121121D02*
X0264672Y0119458D01*
X0264036Y0117921D01*
X0262859Y0116745D01*
X0261323Y0116108D01*
X0259659Y0116108D01*
X0258123Y0116745D01*
X0256946Y0117921D01*
X0256310Y0119458D01*
X0256310Y0121121D01*
X0256946Y0122658D01*
X0257291Y0123002D01*
X0257291Y0124744D01*
X0256101Y0124744D01*
X0254930Y0125915D01*
X0254930Y0135446D01*
X0256101Y0136618D01*
X0265632Y0136618D01*
X0266804Y0135446D01*
X0266804Y0125915D01*
X0265632Y0124744D01*
X0263691Y0124744D01*
X0263691Y0123002D01*
X0264036Y0122658D01*
X0264672Y0121121D01*
X0263691Y0123387D02*
X0280875Y0123387D01*
X0277362Y0125786D02*
X0275825Y0125786D01*
X0275825Y0128184D02*
X0277362Y0128184D01*
X0275824Y0130583D02*
X0266804Y0130583D01*
X0266804Y0132981D02*
X0270456Y0132981D01*
X0270584Y0135380D02*
X0266804Y0135380D01*
X0260867Y0130681D02*
X0260491Y0130305D01*
X0260491Y0120289D01*
X0264313Y0118590D02*
X0282007Y0118590D01*
X0284406Y0116192D02*
X0261525Y0116192D01*
X0259457Y0116192D02*
X0237270Y0116192D01*
X0237270Y0118590D02*
X0256669Y0118590D01*
X0256310Y0120989D02*
X0237270Y0120989D01*
X0237270Y0123387D02*
X0257291Y0123387D01*
X0255059Y0125786D02*
X0237270Y0125786D01*
X0237270Y0128184D02*
X0254930Y0128184D01*
X0254930Y0130583D02*
X0239458Y0130583D01*
X0239836Y0132981D02*
X0254930Y0132981D01*
X0254930Y0135380D02*
X0238877Y0135380D01*
X0233480Y0137779D02*
X0230563Y0137779D01*
X0230563Y0135380D02*
X0231251Y0135380D01*
X0235064Y0132445D02*
X0234070Y0131451D01*
X0234070Y0102293D01*
X0231047Y0099402D02*
X0229285Y0099402D01*
X0229819Y0097004D02*
X0284882Y0097004D01*
X0284882Y0099402D02*
X0237093Y0099402D01*
X0238251Y0101801D02*
X0284882Y0101801D01*
X0284882Y0104199D02*
X0237806Y0104199D01*
X0237270Y0106598D02*
X0284882Y0106598D01*
X0284882Y0108996D02*
X0237270Y0108996D01*
X0237270Y0111395D02*
X0284882Y0111395D01*
X0284882Y0113793D02*
X0237270Y0113793D01*
X0227363Y0108327D02*
X0227363Y0139571D01*
X0224163Y0135380D02*
X0215254Y0135380D01*
X0216213Y0132981D02*
X0224163Y0132981D01*
X0224163Y0130583D02*
X0215835Y0130583D01*
X0214641Y0128184D02*
X0224163Y0128184D01*
X0224163Y0125786D02*
X0214641Y0125786D01*
X0214641Y0123387D02*
X0224163Y0123387D01*
X0224163Y0120989D02*
X0214641Y0120989D01*
X0214641Y0118590D02*
X0224163Y0118590D01*
X0224163Y0116192D02*
X0214641Y0116192D01*
X0214894Y0113793D02*
X0224163Y0113793D01*
X0224163Y0111395D02*
X0217292Y0111395D01*
X0219691Y0108996D02*
X0223182Y0108996D01*
X0223554Y0106598D02*
X0222090Y0106598D01*
X0224488Y0104199D02*
X0226403Y0104199D01*
X0228323Y0104199D02*
X0230334Y0104199D01*
X0229889Y0101801D02*
X0226887Y0101801D01*
X0226619Y0097543D02*
X0211441Y0112720D01*
X0211441Y0132445D01*
X0207629Y0135380D02*
X0206803Y0135380D01*
X0190635Y0125786D02*
X0186015Y0125786D01*
X0185976Y0128184D02*
X0181627Y0128184D01*
X0181721Y0130583D02*
X0185916Y0130583D01*
X0185916Y0135380D02*
X0181721Y0135380D01*
X0181438Y0137779D02*
X0185920Y0137779D01*
X0176352Y0137779D02*
X0174815Y0137779D01*
X0174815Y0135380D02*
X0176352Y0135380D01*
X0169447Y0135380D02*
X0168257Y0135380D01*
X0168257Y0137779D02*
X0169729Y0137779D01*
X0188413Y0123387D02*
X0190179Y0123387D01*
X0190812Y0120989D02*
X0191312Y0120989D01*
X0193210Y0118590D02*
X0200403Y0118590D01*
X0200403Y0116192D02*
X0195609Y0116192D01*
X0198007Y0113793D02*
X0200403Y0113793D01*
X0200406Y0111395D02*
X0200592Y0111395D01*
X0200403Y0120989D02*
X0197409Y0120989D01*
X0175688Y0108448D02*
X0175544Y0108592D01*
X0172682Y0099402D02*
X0070423Y0099402D01*
X0070423Y0097004D02*
X0175080Y0097004D01*
X0177479Y0094605D02*
X0070423Y0094605D01*
X0070423Y0092207D02*
X0179877Y0092207D01*
X0182276Y0089808D02*
X0070423Y0089808D01*
X0070423Y0087410D02*
X0184674Y0087410D01*
X0187073Y0085011D02*
X0070423Y0085011D01*
X0070423Y0082613D02*
X0189471Y0082613D01*
X0191870Y0080214D02*
X0070423Y0080214D01*
X0070423Y0077816D02*
X0194268Y0077816D01*
X0194320Y0075417D02*
X0070423Y0075417D01*
X0070552Y0073019D02*
X0192120Y0073019D01*
X0190544Y0070620D02*
X0072951Y0070620D01*
X0075349Y0068222D02*
X0188146Y0068222D01*
X0185747Y0065823D02*
X0077748Y0065823D01*
X0080146Y0063425D02*
X0183349Y0063425D01*
X0180950Y0061026D02*
X0177939Y0061026D01*
X0174638Y0061026D02*
X0166088Y0061026D01*
X0162478Y0061026D02*
X0153694Y0061026D01*
X0149876Y0061026D02*
X0113279Y0061026D01*
X0110151Y0061026D02*
X0082545Y0061026D01*
X0084943Y0058628D02*
X0106839Y0058628D01*
X0106015Y0056229D02*
X0087342Y0056229D01*
X0089740Y0053831D02*
X0106238Y0053831D01*
X0107726Y0051432D02*
X0092139Y0051432D01*
X0094537Y0049034D02*
X0106183Y0049034D01*
X0105015Y0046635D02*
X0096936Y0046635D01*
X0099334Y0044237D02*
X0105070Y0044237D01*
X0106320Y0041838D02*
X0101733Y0041838D01*
X0089882Y0037041D02*
X0070738Y0037041D01*
X0068340Y0034643D02*
X0089882Y0034643D01*
X0089882Y0032244D02*
X0065941Y0032244D01*
X0063543Y0029845D02*
X0089882Y0029845D01*
X0103202Y0035844D02*
X0067223Y0071822D01*
X0067223Y0136836D01*
X0061529Y0142530D01*
X0060903Y0142287D01*
X0068407Y0140177D02*
X0074427Y0140177D01*
X0074388Y0137779D02*
X0070297Y0137779D01*
X0070423Y0135380D02*
X0074388Y0135380D01*
X0074388Y0132981D02*
X0070423Y0132981D01*
X0070423Y0130583D02*
X0074413Y0130583D01*
X0075861Y0128184D02*
X0070423Y0128184D01*
X0070423Y0125786D02*
X0075938Y0125786D01*
X0086237Y0130583D02*
X0089855Y0130583D01*
X0089711Y0132981D02*
X0086262Y0132981D01*
X0086262Y0135380D02*
X0095080Y0135380D01*
X0095080Y0132981D02*
X0096617Y0132981D01*
X0096617Y0130583D02*
X0095080Y0130583D01*
X0089711Y0137779D02*
X0086262Y0137779D01*
X0086224Y0140177D02*
X0089888Y0140177D01*
X0091021Y0156967D02*
X0085183Y0156967D01*
X0080349Y0159365D02*
X0097650Y0159365D01*
X0101984Y0162174D02*
X0105317Y0158840D01*
X0110746Y0158840D01*
X0117076Y0159365D02*
X0128431Y0159365D01*
X0128431Y0156967D02*
X0117076Y0156967D01*
X0117010Y0161764D02*
X0128431Y0161764D01*
X0128431Y0164162D02*
X0117076Y0164162D01*
X0120059Y0166561D02*
X0128431Y0166561D01*
X0128431Y0168959D02*
X0122457Y0168959D01*
X0120525Y0167027D02*
X0120525Y0167027D01*
X0104887Y0171358D02*
X0104143Y0171358D01*
X0104415Y0173756D02*
X0102163Y0173756D01*
X0102163Y0176155D02*
X0104721Y0176155D01*
X0105354Y0178553D02*
X0081164Y0178553D01*
X0081426Y0183350D02*
X0079889Y0183350D01*
X0079889Y0185749D02*
X0081426Y0185749D01*
X0074520Y0185749D02*
X0073969Y0185749D01*
X0079889Y0190546D02*
X0081426Y0190546D01*
X0081426Y0192944D02*
X0079889Y0192944D01*
X0086565Y0192944D02*
X0090289Y0192944D01*
X0090289Y0190546D02*
X0086794Y0190546D01*
X0102163Y0192944D02*
X0141367Y0192944D01*
X0142796Y0197741D02*
X0067435Y0197741D01*
X0067324Y0202156D02*
X0051719Y0186551D01*
X0043082Y0190657D02*
X0033082Y0190657D01*
X0033069Y0190671D01*
X0033069Y0209601D01*
X0044266Y0209601D02*
X0052744Y0209601D01*
X0052989Y0209846D01*
X0060469Y0209846D02*
X0060961Y0209846D01*
X0068652Y0202156D01*
X0067870Y0202156D02*
X0067324Y0202156D01*
X0067998Y0207335D02*
X0138082Y0207335D01*
X0138082Y0209734D02*
X0065599Y0209734D01*
X0065029Y0212132D02*
X0138082Y0212132D01*
X0138797Y0204937D02*
X0089757Y0204937D01*
X0144242Y0176155D02*
X0155902Y0176155D01*
X0157367Y0204937D02*
X0158797Y0204937D01*
X0158082Y0207335D02*
X0158082Y0207335D01*
X0158082Y0209734D02*
X0158082Y0209734D01*
X0158082Y0212132D02*
X0158082Y0212132D01*
X0148082Y0212132D02*
X0148082Y0212132D01*
X0148082Y0209734D02*
X0148082Y0209734D01*
X0148082Y0207335D02*
X0148082Y0207335D01*
X0147367Y0204937D02*
X0148797Y0204937D01*
X0167367Y0204937D02*
X0168797Y0204937D01*
X0168082Y0207335D02*
X0168082Y0207335D01*
X0168082Y0209734D02*
X0168082Y0209734D01*
X0168082Y0212132D02*
X0168082Y0212132D01*
X0178082Y0212132D02*
X0178082Y0212132D01*
X0178082Y0209734D02*
X0178082Y0209734D01*
X0178082Y0207335D02*
X0178082Y0207335D01*
X0177367Y0204937D02*
X0178797Y0204937D01*
X0187367Y0204937D02*
X0188797Y0204937D01*
X0188082Y0207335D02*
X0188082Y0207335D01*
X0188082Y0209734D02*
X0188082Y0209734D01*
X0188082Y0212132D02*
X0188082Y0212132D01*
X0198082Y0212132D02*
X0198082Y0212132D01*
X0198082Y0209734D02*
X0198082Y0209734D01*
X0198082Y0207335D02*
X0198082Y0207335D01*
X0197367Y0204937D02*
X0198797Y0204937D01*
X0207367Y0204937D02*
X0208797Y0204937D01*
X0208082Y0207335D02*
X0208082Y0207335D01*
X0208082Y0209734D02*
X0208082Y0209734D01*
X0208082Y0212132D02*
X0208082Y0212132D01*
X0218082Y0212132D02*
X0398583Y0212132D01*
X0398583Y0209734D02*
X0218082Y0209734D01*
X0218082Y0207335D02*
X0398583Y0207335D01*
X0398583Y0204937D02*
X0217367Y0204937D01*
X0290685Y0177778D02*
X0290685Y0170553D01*
X0290575Y0170443D01*
X0290575Y0165443D01*
X0293424Y0180952D02*
X0301368Y0180952D01*
X0313103Y0184956D02*
X0313513Y0184547D01*
X0313517Y0184542D01*
X0337866Y0183350D02*
X0353422Y0183350D01*
X0349412Y0180952D02*
X0377648Y0180952D01*
X0376076Y0183350D02*
X0374539Y0183350D01*
X0374539Y0185749D02*
X0376076Y0185749D01*
X0381444Y0185749D02*
X0382477Y0185749D01*
X0381444Y0190546D02*
X0398583Y0190546D01*
X0398583Y0192944D02*
X0380918Y0192944D01*
X0376076Y0192944D02*
X0374539Y0192944D01*
X0374539Y0190546D02*
X0376076Y0190546D01*
X0369170Y0185749D02*
X0365296Y0185749D01*
X0365296Y0183350D02*
X0369170Y0183350D01*
X0375250Y0178553D02*
X0350423Y0178553D01*
X0352636Y0176155D02*
X0353422Y0176155D01*
X0353422Y0173756D02*
X0352992Y0173756D01*
X0352992Y0171358D02*
X0353422Y0171358D01*
X0353422Y0168959D02*
X0352992Y0168959D01*
X0342337Y0180952D02*
X0338341Y0180952D01*
X0359359Y0187824D02*
X0359845Y0189123D01*
X0362521Y0196141D01*
X0386428Y0176155D02*
X0387900Y0176155D01*
X0384701Y0173756D02*
X0384029Y0173756D01*
X0382302Y0171358D02*
X0381631Y0171358D01*
X0341631Y0130568D02*
X0341756Y0130443D01*
X0308260Y0130583D02*
X0307546Y0130583D01*
X0307546Y0128184D02*
X0308260Y0128184D01*
X0308260Y0125786D02*
X0307546Y0125786D01*
X0307546Y0123387D02*
X0308260Y0123387D01*
X0308260Y0120989D02*
X0307546Y0120989D01*
X0307546Y0118590D02*
X0309225Y0118590D01*
X0308260Y0132981D02*
X0305997Y0132981D01*
X0308260Y0135380D02*
X0303599Y0135380D01*
X0270456Y0128184D02*
X0266804Y0128184D01*
X0266674Y0125786D02*
X0270666Y0125786D01*
X0226619Y0097543D02*
X0226619Y0091173D01*
X0230579Y0089808D02*
X0284882Y0089808D01*
X0284882Y0087410D02*
X0228460Y0087410D01*
X0230716Y0092207D02*
X0284882Y0092207D01*
X0284882Y0094605D02*
X0229819Y0094605D01*
X0196063Y0071614D02*
X0183082Y0058633D01*
X0183082Y0020657D01*
X0173082Y0020657D02*
X0173082Y0032334D01*
X0176289Y0035540D01*
X0164283Y0035604D02*
X0163082Y0034403D01*
X0163082Y0020657D01*
X0151785Y0029360D02*
X0151785Y0035647D01*
X0151785Y0029360D02*
X0143082Y0020657D01*
X0150828Y0045604D02*
X0163283Y0045604D01*
X0163347Y0045540D01*
X0175289Y0045540D01*
X0170721Y0049034D02*
X0167914Y0049034D01*
X0168172Y0051432D02*
X0172336Y0051432D01*
X0170827Y0053831D02*
X0169718Y0053831D01*
X0169983Y0056229D02*
X0170589Y0056229D01*
X0171398Y0058628D02*
X0169200Y0058628D01*
X0159366Y0058628D02*
X0156720Y0058628D01*
X0157485Y0056229D02*
X0158583Y0056229D01*
X0158848Y0053831D02*
X0157202Y0053831D01*
X0155631Y0051432D02*
X0160394Y0051432D01*
X0158651Y0049034D02*
X0155460Y0049034D01*
X0150828Y0045604D02*
X0150785Y0045647D01*
X0147939Y0051432D02*
X0143287Y0051432D01*
X0144502Y0053831D02*
X0146368Y0053831D01*
X0146085Y0056229D02*
X0144510Y0056229D01*
X0143306Y0058628D02*
X0146850Y0058628D01*
X0134361Y0058628D02*
X0130056Y0058628D01*
X0131267Y0056229D02*
X0133157Y0056229D01*
X0133165Y0053831D02*
X0131269Y0053831D01*
X0130061Y0051432D02*
X0134380Y0051432D01*
X0131373Y0049034D02*
X0128650Y0049034D01*
X0121130Y0051432D02*
X0115704Y0051432D01*
X0117191Y0053831D02*
X0119921Y0053831D01*
X0119923Y0056229D02*
X0117415Y0056229D01*
X0116591Y0058628D02*
X0121134Y0058628D01*
X0087875Y0039440D02*
X0073137Y0039440D01*
X0075535Y0041838D02*
X0085476Y0041838D01*
X0083078Y0044237D02*
X0077428Y0044237D01*
X0077492Y0046635D02*
X0080679Y0046635D01*
X0078281Y0049034D02*
X0075823Y0049034D01*
X0075882Y0051432D02*
X0054919Y0051432D01*
X0054919Y0049034D02*
X0071039Y0049034D01*
X0069371Y0046635D02*
X0054919Y0046635D01*
X0054919Y0044237D02*
X0067751Y0044237D01*
X0065353Y0041838D02*
X0054919Y0041838D01*
X0054919Y0039440D02*
X0062954Y0039440D01*
X0060556Y0037041D02*
X0054919Y0037041D01*
X0054919Y0034643D02*
X0058157Y0034643D01*
X0055759Y0032244D02*
X0054919Y0032244D01*
X0051719Y0024273D02*
X0052299Y0023693D01*
X0051719Y0024273D02*
X0051719Y0156686D01*
X0054919Y0154568D02*
X0056749Y0154568D01*
X0056132Y0152170D02*
X0054919Y0152170D01*
X0054919Y0149771D02*
X0056716Y0149771D01*
X0085649Y0166561D02*
X0091450Y0166561D01*
X0057703Y0128184D02*
X0054919Y0128184D01*
X0054919Y0125786D02*
X0057703Y0125786D01*
X0057703Y0123387D02*
X0054919Y0123387D01*
X0054919Y0120989D02*
X0057703Y0120989D01*
X0057703Y0118590D02*
X0054919Y0118590D01*
X0054919Y0116192D02*
X0057703Y0116192D01*
X0057703Y0113793D02*
X0054919Y0113793D01*
X0054919Y0111395D02*
X0057703Y0111395D01*
X0057703Y0108996D02*
X0054919Y0108996D01*
X0054919Y0106598D02*
X0057703Y0106598D01*
X0057703Y0104199D02*
X0054919Y0104199D01*
X0054919Y0101801D02*
X0057703Y0101801D01*
X0057703Y0099402D02*
X0054919Y0099402D01*
X0054919Y0097004D02*
X0057703Y0097004D01*
X0057703Y0094605D02*
X0054919Y0094605D01*
X0054919Y0092207D02*
X0057703Y0092207D01*
X0057703Y0089808D02*
X0054919Y0089808D01*
X0054919Y0087410D02*
X0057703Y0087410D01*
X0057703Y0085011D02*
X0054919Y0085011D01*
X0054919Y0082613D02*
X0057703Y0082613D01*
X0057703Y0080214D02*
X0054919Y0080214D01*
X0054919Y0077816D02*
X0057703Y0077816D01*
X0057703Y0075417D02*
X0054919Y0075417D01*
X0054919Y0073019D02*
X0057703Y0073019D01*
X0057703Y0070620D02*
X0054919Y0070620D01*
X0054919Y0068222D02*
X0059093Y0068222D01*
X0061491Y0065823D02*
X0054919Y0065823D01*
X0054919Y0063425D02*
X0063890Y0063425D01*
X0066288Y0061026D02*
X0054919Y0061026D01*
X0054919Y0058628D02*
X0068687Y0058628D01*
X0071085Y0056229D02*
X0054919Y0056229D01*
X0054919Y0053831D02*
X0073484Y0053831D01*
X0193082Y0057700D02*
X0193082Y0020657D01*
X0193082Y0057700D02*
X0201191Y0065808D01*
X0302325Y0065823D02*
X0304882Y0065823D01*
X0304882Y0063425D02*
X0302325Y0063425D01*
X0302325Y0061026D02*
X0304882Y0061026D01*
X0304882Y0058628D02*
X0302325Y0058628D01*
X0302325Y0056229D02*
X0304882Y0056229D01*
X0304882Y0053831D02*
X0302325Y0053831D01*
X0302325Y0051432D02*
X0304882Y0051432D01*
X0304882Y0049034D02*
X0302325Y0049034D01*
X0302325Y0046635D02*
X0304882Y0046635D01*
X0304882Y0044237D02*
X0302325Y0044237D01*
X0302325Y0041838D02*
X0304882Y0041838D01*
X0304882Y0039440D02*
X0302325Y0039440D01*
X0302325Y0037041D02*
X0304882Y0037041D01*
X0304882Y0034643D02*
X0302325Y0034643D01*
X0302325Y0032244D02*
X0304882Y0032244D01*
X0304882Y0029845D02*
X0302325Y0029845D01*
X0350295Y0037041D02*
X0350295Y0037041D01*
X0350295Y0039440D02*
X0350295Y0039440D01*
X0350295Y0041838D02*
X0350295Y0041838D01*
X0368263Y0049034D02*
X0398583Y0049034D01*
X0398583Y0051432D02*
X0371139Y0051432D01*
X0371928Y0053831D02*
X0398583Y0053831D01*
X0398583Y0056229D02*
X0371709Y0056229D01*
X0312252Y0089808D02*
X0306320Y0089808D01*
X0302373Y0089808D02*
X0302325Y0089808D01*
X0302325Y0087410D02*
X0309854Y0087410D01*
X0307455Y0085011D02*
X0302325Y0085011D01*
X0302325Y0082613D02*
X0305240Y0082613D01*
X0304882Y0080214D02*
X0302325Y0080214D01*
X0302325Y0077816D02*
X0304882Y0077816D01*
X0304882Y0075417D02*
X0302325Y0075417D01*
X0302325Y0073019D02*
X0304882Y0073019D01*
X0304882Y0070620D02*
X0302325Y0070620D01*
X0302325Y0068222D02*
X0304882Y0068222D01*
D23*
X0276123Y0111980D02*
X0276593Y0112450D01*
X0276593Y0130676D01*
X0276593Y0146424D02*
X0279892Y0146424D01*
X0282561Y0149093D01*
X0276593Y0146424D02*
X0276588Y0146429D01*
X0260867Y0146429D01*
X0255574Y0146429D01*
X0248301Y0153702D01*
X0248301Y0163287D01*
X0240405Y0171183D01*
X0235696Y0171183D01*
X0235064Y0171815D01*
X0235064Y0181657D02*
X0243457Y0181657D01*
X0258757Y0166357D01*
X0258757Y0164813D01*
X0260482Y0163088D01*
X0261073Y0163679D02*
X0276583Y0163679D01*
X0276583Y0161994D01*
X0282116Y0156461D01*
X0285758Y0192419D02*
X0276123Y0192419D01*
X0211441Y0181657D02*
X0206023Y0181657D01*
X0197229Y0172864D01*
X0191530Y0172864D01*
X0191414Y0172748D01*
X0191127Y0172461D01*
X0175810Y0172461D01*
X0171693Y0168344D01*
X0171693Y0160257D01*
X0171525Y0152021D02*
X0172073Y0152021D01*
X0175584Y0148511D01*
X0175831Y0148758D01*
X0191853Y0148758D01*
X0191853Y0156568D01*
X0206973Y0171687D01*
X0211314Y0171687D01*
X0211441Y0171815D01*
X0120448Y0192793D02*
X0120448Y0193891D01*
X0096226Y0172487D02*
X0101984Y0166729D01*
X0101984Y0162174D01*
X0101984Y0161446D01*
X0101806Y0153702D02*
X0098458Y0153702D01*
X0095848Y0151092D01*
X0080325Y0151121D01*
X0065686Y0171687D01*
X0061273Y0171687D01*
X0060903Y0171815D01*
X0060903Y0181657D02*
X0071030Y0181900D01*
X0080657Y0172272D01*
X0096011Y0172272D01*
X0096226Y0172487D01*
X0080920Y0135321D02*
X0080620Y0126968D01*
X0080920Y0135321D02*
X0080325Y0135373D01*
X0101056Y0115399D02*
X0107360Y0099182D01*
X0112353Y0099182D01*
X0352841Y0148318D02*
X0353147Y0148624D01*
X0360564Y0148624D01*
X0375831Y0148624D01*
X0376089Y0148882D01*
X0381240Y0148882D01*
X0385052Y0152693D01*
X0385052Y0167319D01*
X0389252Y0171519D01*
X0392927Y0171519D01*
X0393223Y0171815D01*
X0393223Y0181657D02*
X0385142Y0181657D01*
X0375307Y0171822D01*
X0375053Y0172076D01*
X0359359Y0172076D01*
X0359359Y0166987D01*
X0350948Y0158576D01*
D24*
X0345875Y0178576D03*
X0340078Y0194207D03*
X0362521Y0196141D03*
X0313103Y0193314D03*
X0290685Y0177778D03*
X0276123Y0192419D03*
X0260812Y0188082D03*
X0223605Y0192699D03*
X0202535Y0194088D03*
X0162072Y0187642D03*
X0146342Y0195376D03*
X0120448Y0193891D03*
X0086169Y0202673D03*
X0154438Y0169057D03*
X0154033Y0133830D03*
X0194360Y0123853D03*
X0227363Y0108327D03*
X0234070Y0102293D03*
X0220140Y0095951D03*
X0226619Y0091173D03*
X0222963Y0073072D03*
X0227522Y0062012D03*
X0216607Y0060003D03*
X0201191Y0065808D03*
X0196063Y0071614D03*
X0239670Y0056664D03*
X0240807Y0048980D03*
X0238458Y0040577D03*
X0304346Y0093516D03*
X0276123Y0111980D03*
X0260491Y0120289D03*
X0376862Y0123199D03*
X0101056Y0115399D03*
X0080620Y0126968D03*
X0073431Y0045512D03*
D25*
X0073431Y0044825D01*
X0052299Y0023693D01*
X0048650Y0020045D01*
X0043695Y0020045D01*
X0043082Y0020657D01*
X0113082Y0020657D02*
X0111715Y0035504D01*
X0125595Y0035027D02*
X0123082Y0020657D01*
X0133082Y0020657D02*
X0138833Y0035039D01*
X0043904Y0189835D02*
X0043082Y0190657D01*
X0067870Y0202156D02*
X0068652Y0202156D01*
X0085651Y0202156D01*
X0086169Y0202673D01*
D26*
X0154438Y0169057D02*
X0161709Y0169057D01*
X0161927Y0168840D01*
X0161927Y0148840D02*
X0153489Y0148840D01*
X0153465Y0148863D01*
X0152258Y0148863D01*
X0152244Y0148850D01*
X0151366Y0148850D01*
X0144553Y0142037D01*
X0144553Y0119632D01*
X0147251Y0116933D01*
X0149704Y0116933D01*
X0149714Y0116924D01*
X0167630Y0116924D01*
X0167910Y0116644D01*
X0168007Y0119010D02*
X0168385Y0119389D01*
X0168007Y0119010D02*
X0148528Y0119010D01*
X0146990Y0120549D01*
X0146990Y0141118D01*
X0149711Y0143840D01*
X0161927Y0143840D01*
X0161927Y0138840D02*
X0151027Y0138840D01*
X0149176Y0136988D01*
X0149176Y0124274D01*
X0150957Y0122493D01*
X0166499Y0122493D01*
X0167471Y0123464D01*
X0167552Y0123545D01*
X0161927Y0133840D02*
X0154042Y0133840D01*
X0154033Y0133830D01*
X0127738Y0133725D02*
X0127738Y0120003D01*
X0131657Y0116084D01*
X0129558Y0112723D02*
X0123539Y0118742D01*
X0123539Y0132605D01*
X0117304Y0138840D01*
X0110746Y0138840D01*
X0110746Y0143840D02*
X0117623Y0143840D01*
X0127738Y0133725D01*
X0118500Y0131204D02*
X0118500Y0116361D01*
X0128858Y0106003D01*
X0118500Y0131204D02*
X0115865Y0133840D01*
X0110746Y0133840D01*
X0043082Y0020657D02*
X0033082Y0020657D01*
D27*
X0110715Y0045504D02*
X0124595Y0045027D01*
X0137833Y0045039D01*
X0150785Y0045647D01*
M02*
