G75*
%MOIN*%
%OFA0B0*%
%FSLAX25Y25*%
%IPPOS*%
%LPD*%
%AMOC8*
5,1,8,0,0,1.08239X$1,22.5*
%
%ADD10C,0.01000*%
%ADD11C,0.07200*%
%ADD12R,0.07499X0.08298*%
%ADD13R,0.06318X0.07106*%
%ADD14R,0.09861X0.03562*%
%ADD15R,0.09074X0.09074*%
%ADD16C,0.09074*%
%ADD17C,0.06743*%
%ADD18C,0.08600*%
%ADD19OC8,0.07200*%
%ADD20C,0.05562*%
D10*
X0023777Y0020657D02*
X0033777Y0010657D01*
X0404978Y0010657D01*
X0404978Y0219319D01*
X0023777Y0219319D01*
X0023748Y0219267D01*
X0013777Y0209968D01*
X0013777Y0070657D01*
X0023777Y0060657D01*
X0023777Y0020657D01*
D11*
X0073777Y0017657D02*
X0073777Y0023657D01*
X0083777Y0023657D02*
X0083777Y0017657D01*
X0093777Y0017657D02*
X0093777Y0023657D01*
X0103777Y0023657D02*
X0103777Y0017657D01*
X0113777Y0017657D02*
X0113777Y0023657D01*
X0123777Y0023657D02*
X0123777Y0017657D01*
X0133777Y0017657D02*
X0133777Y0023657D01*
X0143777Y0023657D02*
X0143777Y0017657D01*
X0163777Y0017657D02*
X0163777Y0023657D01*
X0173777Y0023657D02*
X0173777Y0017657D01*
X0183777Y0017657D02*
X0183777Y0023657D01*
X0193777Y0023657D02*
X0193777Y0017657D01*
X0203777Y0017657D02*
X0203777Y0023657D01*
X0213777Y0023657D02*
X0213777Y0017657D01*
X0223777Y0017657D02*
X0223777Y0023657D01*
X0233777Y0023657D02*
X0233777Y0017657D01*
X0248777Y0017657D02*
X0248777Y0023657D01*
X0258777Y0023657D02*
X0258777Y0017657D01*
X0268777Y0017657D02*
X0268777Y0023657D01*
X0278777Y0023657D02*
X0278777Y0017657D01*
X0288777Y0017657D02*
X0288777Y0023657D01*
X0298777Y0023657D02*
X0298777Y0017657D01*
X0308777Y0017657D02*
X0308777Y0023657D01*
X0318777Y0023657D02*
X0318777Y0017657D01*
X0213777Y0207657D02*
X0213777Y0213657D01*
X0203777Y0213657D02*
X0203777Y0207657D01*
X0193777Y0207657D02*
X0193777Y0213657D01*
X0183777Y0213657D02*
X0183777Y0207657D01*
X0173777Y0207657D02*
X0173777Y0213657D01*
X0163777Y0213657D02*
X0163777Y0207657D01*
X0153777Y0207657D02*
X0153777Y0213657D01*
X0143777Y0213657D02*
X0143777Y0207657D01*
D12*
X0044961Y0209601D03*
X0033764Y0209601D03*
X0364659Y0065570D03*
X0375855Y0065570D03*
D13*
X0353660Y0065509D03*
X0346180Y0065509D03*
X0318332Y0160370D03*
X0310852Y0160370D03*
X0302003Y0160273D03*
X0294523Y0160273D03*
X0138455Y0160370D03*
X0130974Y0160370D03*
X0122130Y0160370D03*
X0114650Y0160370D03*
X0061164Y0209846D03*
X0053684Y0209846D03*
D14*
X0096418Y0146670D03*
X0096418Y0141670D03*
X0096418Y0136670D03*
X0096418Y0131670D03*
X0096418Y0126670D03*
X0096418Y0121670D03*
X0096418Y0116670D03*
X0096418Y0111670D03*
X0096418Y0106670D03*
X0096418Y0101670D03*
X0147599Y0101670D03*
X0147599Y0106670D03*
X0147599Y0111670D03*
X0147599Y0116670D03*
X0147599Y0121670D03*
X0147599Y0126670D03*
X0147599Y0131670D03*
X0147599Y0136670D03*
X0147599Y0141670D03*
X0147599Y0146670D03*
X0276247Y0146670D03*
X0276247Y0141670D03*
X0276247Y0136670D03*
X0276247Y0131670D03*
X0276247Y0126670D03*
X0276247Y0121670D03*
X0276247Y0116670D03*
X0276247Y0111670D03*
X0276247Y0106670D03*
X0276247Y0101670D03*
X0327428Y0101670D03*
X0327428Y0106670D03*
X0327428Y0111670D03*
X0327428Y0116670D03*
X0327428Y0121670D03*
X0327428Y0126670D03*
X0327428Y0131670D03*
X0327428Y0136670D03*
X0327428Y0141670D03*
X0327428Y0146670D03*
D15*
X0262252Y0145096D03*
X0246579Y0145096D03*
X0246579Y0160844D03*
X0262252Y0160844D03*
X0261155Y0123644D03*
X0245629Y0123644D03*
X0245629Y0107896D03*
X0261155Y0107896D03*
X0177526Y0107896D03*
X0161256Y0107896D03*
X0161256Y0123644D03*
X0177526Y0123644D03*
X0177087Y0145096D03*
X0161483Y0145096D03*
X0161483Y0160844D03*
X0177087Y0160844D03*
X0081898Y0160844D03*
X0066330Y0160844D03*
X0066330Y0145096D03*
X0081898Y0145096D03*
X0081675Y0123644D03*
X0065984Y0123644D03*
X0065984Y0107896D03*
X0081675Y0107896D03*
D16*
X0350990Y0039854D02*
X0350990Y0031980D01*
X0374520Y0031960D02*
X0374520Y0039834D01*
X0366686Y0054519D02*
X0358812Y0054519D01*
D17*
X0220737Y0105258D03*
X0220737Y0115100D03*
X0220737Y0124943D03*
X0220737Y0134785D03*
X0220737Y0144628D03*
X0220737Y0154470D03*
X0197114Y0154470D03*
X0197114Y0144628D03*
X0197114Y0134785D03*
X0197114Y0124943D03*
X0197114Y0115100D03*
X0197114Y0105258D03*
X0046576Y0105258D03*
X0046576Y0115100D03*
X0046576Y0124943D03*
X0046576Y0134785D03*
X0046576Y0144628D03*
X0046576Y0154470D03*
D18*
X0117681Y0179378D03*
X0127681Y0178378D03*
X0137681Y0179378D03*
X0137665Y0189415D03*
X0127665Y0188415D03*
X0117665Y0189415D03*
X0113754Y0055457D03*
X0123754Y0055457D03*
X0133754Y0055457D03*
X0143754Y0055457D03*
X0142754Y0045457D03*
X0132754Y0045457D03*
X0122754Y0045457D03*
X0112754Y0045457D03*
X0113754Y0035457D03*
X0123754Y0035457D03*
X0133754Y0035457D03*
X0143754Y0035457D03*
D19*
X0043782Y0030656D03*
X0033782Y0030656D03*
X0033782Y0020656D03*
X0043782Y0020656D03*
X0043787Y0180654D03*
X0033787Y0180654D03*
X0033787Y0190654D03*
X0043787Y0190654D03*
D20*
X0140110Y0141870D03*
X0188208Y0166901D03*
X0209446Y0152402D03*
X0276552Y0152826D03*
X0310536Y0169147D03*
X0330094Y0165037D03*
X0337470Y0141787D03*
X0258333Y0098107D03*
X0269744Y0092379D03*
X0282986Y0089574D03*
X0293121Y0087929D03*
X0302776Y0087693D03*
X0360033Y0089482D03*
X0397120Y0090742D03*
X0384366Y0065570D03*
X0257613Y0033416D03*
X0251080Y0040922D03*
X0180244Y0051420D03*
X0180647Y0060904D03*
X0181050Y0068976D03*
X0181119Y0078601D03*
X0181252Y0087137D03*
X0180421Y0096616D03*
X0188494Y0101004D03*
X0139676Y0106603D03*
X0075644Y0095726D03*
X0083134Y0051360D03*
X0209517Y0190400D03*
X0330674Y0191493D03*
M02*
