G75*
%MOIN*%
%OFA0B0*%
%FSLAX25Y25*%
%IPPOS*%
%LPD*%
%AMOC8*
5,1,8,0,0,1.08239X$1,22.5*
%
%ADD10C,0.01000*%
%ADD11C,0.07200*%
%ADD12C,0.09074*%
%ADD13C,0.06743*%
%ADD14C,0.08600*%
%ADD15OC8,0.07200*%
%ADD16C,0.05562*%
D10*
X0023777Y0020657D02*
X0033777Y0010657D01*
X0404978Y0010657D01*
X0404978Y0219319D01*
X0023777Y0219319D01*
X0023748Y0219267D01*
X0013777Y0209968D01*
X0013777Y0070657D01*
X0023777Y0060657D01*
X0023777Y0020657D01*
D11*
X0073777Y0017657D02*
X0073777Y0023657D01*
X0083777Y0023657D02*
X0083777Y0017657D01*
X0093777Y0017657D02*
X0093777Y0023657D01*
X0103777Y0023657D02*
X0103777Y0017657D01*
X0113777Y0017657D02*
X0113777Y0023657D01*
X0123777Y0023657D02*
X0123777Y0017657D01*
X0133777Y0017657D02*
X0133777Y0023657D01*
X0143777Y0023657D02*
X0143777Y0017657D01*
X0163777Y0017657D02*
X0163777Y0023657D01*
X0173777Y0023657D02*
X0173777Y0017657D01*
X0183777Y0017657D02*
X0183777Y0023657D01*
X0193777Y0023657D02*
X0193777Y0017657D01*
X0203777Y0017657D02*
X0203777Y0023657D01*
X0213777Y0023657D02*
X0213777Y0017657D01*
X0223777Y0017657D02*
X0223777Y0023657D01*
X0233777Y0023657D02*
X0233777Y0017657D01*
X0248777Y0017657D02*
X0248777Y0023657D01*
X0258777Y0023657D02*
X0258777Y0017657D01*
X0268777Y0017657D02*
X0268777Y0023657D01*
X0278777Y0023657D02*
X0278777Y0017657D01*
X0288777Y0017657D02*
X0288777Y0023657D01*
X0298777Y0023657D02*
X0298777Y0017657D01*
X0308777Y0017657D02*
X0308777Y0023657D01*
X0318777Y0023657D02*
X0318777Y0017657D01*
X0213777Y0207657D02*
X0213777Y0213657D01*
X0203777Y0213657D02*
X0203777Y0207657D01*
X0193777Y0207657D02*
X0193777Y0213657D01*
X0183777Y0213657D02*
X0183777Y0207657D01*
X0173777Y0207657D02*
X0173777Y0213657D01*
X0163777Y0213657D02*
X0163777Y0207657D01*
X0153777Y0207657D02*
X0153777Y0213657D01*
X0143777Y0213657D02*
X0143777Y0207657D01*
D12*
X0358812Y0054519D02*
X0366686Y0054519D01*
X0374520Y0039834D02*
X0374520Y0031960D01*
X0350990Y0031980D02*
X0350990Y0039854D01*
D13*
X0220737Y0105258D03*
X0220737Y0115100D03*
X0220737Y0124943D03*
X0220737Y0134785D03*
X0220737Y0144628D03*
X0220737Y0154470D03*
X0197114Y0154470D03*
X0197114Y0144628D03*
X0197114Y0134785D03*
X0197114Y0124943D03*
X0197114Y0115100D03*
X0197114Y0105258D03*
X0046576Y0105258D03*
X0046576Y0115100D03*
X0046576Y0124943D03*
X0046576Y0134785D03*
X0046576Y0144628D03*
X0046576Y0154470D03*
D14*
X0117681Y0179378D03*
X0127681Y0178378D03*
X0137681Y0179378D03*
X0137665Y0189415D03*
X0127665Y0188415D03*
X0117665Y0189415D03*
X0113754Y0055457D03*
X0123754Y0055457D03*
X0133754Y0055457D03*
X0143754Y0055457D03*
X0142754Y0045457D03*
X0132754Y0045457D03*
X0122754Y0045457D03*
X0112754Y0045457D03*
X0113754Y0035457D03*
X0123754Y0035457D03*
X0133754Y0035457D03*
X0143754Y0035457D03*
D15*
X0043782Y0030656D03*
X0033782Y0030656D03*
X0033782Y0020656D03*
X0043782Y0020656D03*
X0043787Y0180654D03*
X0033787Y0180654D03*
X0033787Y0190654D03*
X0043787Y0190654D03*
D16*
X0140110Y0141870D03*
X0188208Y0166901D03*
X0209446Y0152402D03*
X0276552Y0152826D03*
X0310536Y0169147D03*
X0330094Y0165037D03*
X0337470Y0141787D03*
X0258333Y0098107D03*
X0269744Y0092379D03*
X0282986Y0089574D03*
X0293121Y0087929D03*
X0302776Y0087693D03*
X0360033Y0089482D03*
X0397120Y0090742D03*
X0384366Y0065570D03*
X0257613Y0033416D03*
X0251080Y0040922D03*
X0180244Y0051420D03*
X0180647Y0060904D03*
X0181050Y0068976D03*
X0181119Y0078601D03*
X0181252Y0087137D03*
X0180421Y0096616D03*
X0188494Y0101004D03*
X0139676Y0106603D03*
X0075644Y0095726D03*
X0083134Y0051360D03*
X0209517Y0190400D03*
X0330674Y0191493D03*
M02*
