G75*
%MOIN*%
%OFA0B0*%
%FSLAX25Y25*%
%IPPOS*%
%LPD*%
%AMOC8*
5,1,8,0,0,1.08239X$1,22.5*
%
%ADD10C,0.01000*%
%ADD11R,0.03700X0.00100*%
%ADD12R,0.05300X0.00100*%
%ADD13R,0.06500X0.00100*%
%ADD14R,0.07500X0.00100*%
%ADD15R,0.08300X0.00100*%
%ADD16R,0.09200X0.00100*%
%ADD17R,0.09900X0.00100*%
%ADD18R,0.10500X0.00100*%
%ADD19R,0.11200X0.00100*%
%ADD20R,0.11900X0.00100*%
%ADD21R,0.12300X0.00100*%
%ADD22R,0.12900X0.00100*%
%ADD23R,0.13400X0.00100*%
%ADD24R,0.13900X0.00100*%
%ADD25R,0.14300X0.00100*%
%ADD26R,0.14900X0.00100*%
%ADD27R,0.15300X0.00100*%
%ADD28R,0.15700X0.00100*%
%ADD29R,0.16100X0.00100*%
%ADD30R,0.16500X0.00100*%
%ADD31R,0.16900X0.00100*%
%ADD32R,0.17200X0.00100*%
%ADD33R,0.17500X0.00100*%
%ADD34R,0.17900X0.00100*%
%ADD35R,0.18300X0.00100*%
%ADD36R,0.18600X0.00100*%
%ADD37R,0.18900X0.00100*%
%ADD38R,0.19300X0.00100*%
%ADD39R,0.19500X0.00100*%
%ADD40R,0.19900X0.00100*%
%ADD41R,0.20100X0.00100*%
%ADD42R,0.20500X0.00100*%
%ADD43R,0.20700X0.00100*%
%ADD44R,0.21000X0.00100*%
%ADD45R,0.21300X0.00100*%
%ADD46R,0.21500X0.00100*%
%ADD47R,0.21800X0.00100*%
%ADD48R,0.22100X0.00100*%
%ADD49R,0.22300X0.00100*%
%ADD50R,0.22500X0.00100*%
%ADD51R,0.22900X0.00100*%
%ADD52R,0.23100X0.00100*%
%ADD53R,0.23300X0.00100*%
%ADD54R,0.23500X0.00100*%
%ADD55R,0.23700X0.00100*%
%ADD56R,0.23900X0.00100*%
%ADD57R,0.24200X0.00100*%
%ADD58R,0.24500X0.00100*%
%ADD59R,0.24700X0.00100*%
%ADD60R,0.24900X0.00100*%
%ADD61R,0.25100X0.00100*%
%ADD62R,0.25300X0.00100*%
%ADD63R,0.25500X0.00100*%
%ADD64R,0.25700X0.00100*%
%ADD65R,0.25900X0.00100*%
%ADD66R,0.26100X0.00100*%
%ADD67R,0.26300X0.00100*%
%ADD68R,0.12200X0.00100*%
%ADD69R,0.11500X0.00100*%
%ADD70R,0.02600X0.00100*%
%ADD71R,0.11600X0.00100*%
%ADD72R,0.11000X0.00100*%
%ADD73R,0.00800X0.00100*%
%ADD74R,0.00700X0.00100*%
%ADD75R,0.10600X0.00100*%
%ADD76R,0.00400X0.00100*%
%ADD77R,0.10400X0.00100*%
%ADD78R,0.10100X0.00100*%
%ADD79R,0.00300X0.00100*%
%ADD80R,0.09700X0.00100*%
%ADD81R,0.09500X0.00100*%
%ADD82R,0.09600X0.00100*%
%ADD83R,0.09300X0.00100*%
%ADD84R,0.00200X0.00100*%
%ADD85R,0.09100X0.00100*%
%ADD86R,0.08900X0.00100*%
%ADD87R,0.08700X0.00100*%
%ADD88R,0.08800X0.00100*%
%ADD89R,0.08600X0.00100*%
%ADD90R,0.08500X0.00100*%
%ADD91R,0.00100X0.00100*%
%ADD92R,0.02500X0.00100*%
%ADD93R,0.08200X0.00100*%
%ADD94R,0.08100X0.00100*%
%ADD95R,0.00500X0.00100*%
%ADD96R,0.03100X0.00100*%
%ADD97R,0.08000X0.00100*%
%ADD98R,0.04100X0.00100*%
%ADD99R,0.05100X0.00100*%
%ADD100R,0.07800X0.00100*%
%ADD101R,0.05900X0.00100*%
%ADD102R,0.02900X0.00100*%
%ADD103R,0.01100X0.00100*%
%ADD104R,0.06300X0.00100*%
%ADD105R,0.02400X0.00100*%
%ADD106R,0.04400X0.00100*%
%ADD107R,0.07000X0.00100*%
%ADD108R,0.07900X0.00100*%
%ADD109R,0.03200X0.00100*%
%ADD110R,0.07600X0.00100*%
%ADD111R,0.03400X0.00100*%
%ADD112R,0.04000X0.00100*%
%ADD113R,0.03900X0.00100*%
%ADD114R,0.06100X0.00100*%
%ADD115R,0.04200X0.00100*%
%ADD116R,0.04900X0.00100*%
%ADD117R,0.03500X0.00100*%
%ADD118R,0.04500X0.00100*%
%ADD119R,0.06800X0.00100*%
%ADD120R,0.04300X0.00100*%
%ADD121R,0.05500X0.00100*%
%ADD122R,0.03600X0.00100*%
%ADD123R,0.07300X0.00100*%
%ADD124R,0.05400X0.00100*%
%ADD125R,0.07700X0.00100*%
%ADD126R,0.05700X0.00100*%
%ADD127R,0.03800X0.00100*%
%ADD128R,0.09000X0.00100*%
%ADD129R,0.05600X0.00100*%
%ADD130R,0.01200X0.00100*%
%ADD131R,0.06700X0.00100*%
%ADD132R,0.09400X0.00100*%
%ADD133R,0.07200X0.00100*%
%ADD134R,0.06900X0.00100*%
%ADD135R,0.08400X0.00100*%
%ADD136R,0.07100X0.00100*%
%ADD137R,0.10000X0.00100*%
%ADD138R,0.01400X0.00100*%
%ADD139R,0.10200X0.00100*%
%ADD140R,0.05800X0.00100*%
%ADD141R,0.01600X0.00100*%
%ADD142R,0.00600X0.00100*%
%ADD143R,0.10700X0.00100*%
%ADD144R,0.01700X0.00100*%
%ADD145R,0.18500X0.00100*%
%ADD146R,0.06000X0.00100*%
%ADD147R,0.01800X0.00100*%
%ADD148R,0.11400X0.00100*%
%ADD149R,0.00900X0.00100*%
%ADD150R,0.01900X0.00100*%
%ADD151R,0.04600X0.00100*%
%ADD152R,0.12500X0.00100*%
%ADD153R,0.10300X0.00100*%
%ADD154R,0.02300X0.00100*%
%ADD155R,0.04700X0.00100*%
%ADD156R,0.11700X0.00100*%
%ADD157R,0.05200X0.00100*%
%ADD158R,0.04800X0.00100*%
%ADD159R,0.06200X0.00100*%
%ADD160R,0.12000X0.00100*%
%ADD161R,0.10900X0.00100*%
%ADD162R,0.12600X0.00100*%
%ADD163R,0.11100X0.00100*%
%ADD164R,0.05000X0.00100*%
%ADD165R,0.11300X0.00100*%
%ADD166R,0.12700X0.00100*%
%ADD167R,0.12400X0.00100*%
%ADD168R,0.06400X0.00100*%
%ADD169R,0.06600X0.00100*%
%ADD170R,0.03000X0.00100*%
%ADD171R,0.12800X0.00100*%
%ADD172R,0.11800X0.00100*%
%ADD173R,0.01000X0.00100*%
%ADD174R,0.01500X0.00100*%
%ADD175R,0.02000X0.00100*%
%ADD176R,0.02700X0.00100*%
%ADD177R,0.02800X0.00100*%
%ADD178R,0.07400X0.00100*%
%ADD179R,0.03300X0.00100*%
%ADD180R,0.12100X0.00100*%
%ADD181R,0.01300X0.00100*%
%ADD182R,0.02100X0.00100*%
%ADD183R,0.09800X0.00100*%
%ADD184R,0.10800X0.00100*%
%ADD185R,0.02200X0.00100*%
%ADD186R,0.26500X0.00100*%
%ADD187R,0.26200X0.00100*%
%ADD188R,0.26000X0.00100*%
%ADD189R,0.25800X0.00100*%
%ADD190R,0.25600X0.00100*%
%ADD191R,0.25400X0.00100*%
%ADD192R,0.25200X0.00100*%
%ADD193R,0.25000X0.00100*%
%ADD194R,0.24800X0.00100*%
%ADD195R,0.24600X0.00100*%
%ADD196R,0.24300X0.00100*%
%ADD197R,0.24100X0.00100*%
%ADD198R,0.22700X0.00100*%
%ADD199R,0.21700X0.00100*%
%ADD200R,0.20900X0.00100*%
%ADD201R,0.20300X0.00100*%
%ADD202R,0.19700X0.00100*%
%ADD203R,0.19100X0.00100*%
%ADD204R,0.18200X0.00100*%
%ADD205R,0.17100X0.00100*%
%ADD206R,0.16700X0.00100*%
%ADD207R,0.16400X0.00100*%
%ADD208R,0.16000X0.00100*%
%ADD209R,0.15600X0.00100*%
%ADD210R,0.15100X0.00100*%
%ADD211R,0.14700X0.00100*%
%ADD212R,0.13800X0.00100*%
%ADD213R,0.13300X0.00100*%
%ADD214C,0.01100*%
%ADD215C,0.00600*%
%ADD216C,0.00400*%
%ADD217R,0.00787X0.00787*%
%ADD218R,0.00591X0.00984*%
%ADD219C,0.00800*%
%ADD220R,0.01969X0.02953*%
%ADD221C,0.00500*%
D10*
X0023082Y0020657D02*
X0033082Y0010657D01*
X0404283Y0010657D01*
X0404283Y0219319D01*
X0023082Y0219319D01*
X0023053Y0219267D01*
X0013082Y0209968D01*
X0013082Y0070657D01*
X0023082Y0060657D01*
X0023082Y0020657D01*
X0073140Y0134390D02*
X0074272Y0134399D01*
X0075404Y0134390D01*
X0073140Y0134389D02*
X0073140Y0152106D01*
X0075404Y0152106D01*
X0085247Y0152106D02*
X0087510Y0152106D01*
X0087510Y0134389D01*
X0085247Y0134389D01*
X0088663Y0134360D02*
X0090927Y0134360D01*
X0088663Y0134360D02*
X0088663Y0152076D01*
X0090927Y0152076D01*
X0103033Y0152076D02*
X0103033Y0134360D01*
X0100770Y0134360D01*
X0075736Y0171288D02*
X0074604Y0171297D01*
X0073472Y0171288D01*
X0073472Y0189004D01*
X0075736Y0189004D01*
X0085579Y0189004D02*
X0087842Y0189004D01*
X0087842Y0171288D01*
X0085579Y0171288D01*
X0089041Y0171503D02*
X0091304Y0171503D01*
X0089041Y0171503D02*
X0089041Y0189219D01*
X0091304Y0189219D01*
X0103411Y0189219D02*
X0103411Y0171503D01*
X0101147Y0171503D01*
X0168625Y0171477D02*
X0168625Y0189193D01*
X0170889Y0189193D01*
X0180731Y0189193D02*
X0182995Y0189193D01*
X0182995Y0171477D01*
X0180731Y0171477D01*
X0184229Y0171764D02*
X0186493Y0171764D01*
X0184229Y0171764D02*
X0184229Y0189480D01*
X0186493Y0189480D01*
X0198599Y0189480D02*
X0198599Y0171764D01*
X0196336Y0171764D01*
X0196775Y0149742D02*
X0199038Y0149742D01*
X0199038Y0132026D01*
X0196775Y0132026D01*
X0184668Y0132026D02*
X0184668Y0149742D01*
X0186932Y0149742D01*
X0182769Y0149495D02*
X0182769Y0131778D01*
X0180505Y0131778D01*
X0170662Y0131778D02*
X0168399Y0131778D01*
X0168399Y0149495D01*
X0170662Y0149495D01*
X0170889Y0171477D02*
X0169757Y0171486D01*
X0168625Y0171477D01*
X0180505Y0149494D02*
X0181637Y0149485D01*
X0182769Y0149494D01*
X0253682Y0147413D02*
X0253682Y0129697D01*
X0265788Y0129697D02*
X0268052Y0129697D01*
X0268052Y0147413D01*
X0265788Y0147413D01*
X0269408Y0147408D02*
X0271672Y0147408D01*
X0269408Y0147408D02*
X0269408Y0129691D01*
X0271672Y0129691D01*
X0281514Y0129691D02*
X0283778Y0129691D01*
X0283778Y0147408D01*
X0267667Y0162104D02*
X0265404Y0162104D01*
X0267667Y0162104D02*
X0267667Y0179820D01*
X0269398Y0180411D02*
X0271662Y0180411D01*
X0269398Y0180411D02*
X0269398Y0162694D01*
X0281504Y0162694D02*
X0283768Y0162694D01*
X0283768Y0180411D01*
X0281504Y0180411D01*
X0255561Y0179820D02*
X0253297Y0179820D01*
X0253297Y0162104D01*
X0255561Y0162104D01*
X0255945Y0147413D02*
X0253682Y0147413D01*
X0269398Y0162695D02*
X0270530Y0162704D01*
X0271662Y0162695D01*
X0352174Y0171092D02*
X0354438Y0171092D01*
X0352174Y0171092D02*
X0352174Y0188808D01*
X0354438Y0188808D01*
X0366544Y0188808D02*
X0366544Y0171092D01*
X0364280Y0171092D01*
X0368122Y0170838D02*
X0368122Y0188555D01*
X0370386Y0188555D01*
X0380228Y0188555D02*
X0382492Y0188555D01*
X0382492Y0170838D01*
X0380228Y0170838D01*
X0381010Y0149866D02*
X0383274Y0149866D01*
X0383274Y0132149D01*
X0381010Y0132149D01*
X0368904Y0132149D02*
X0368904Y0149866D01*
X0371167Y0149866D01*
X0367749Y0149608D02*
X0367749Y0131892D01*
X0365485Y0131892D01*
X0355642Y0131892D02*
X0353379Y0131892D01*
X0353379Y0149608D01*
X0355642Y0149608D01*
X0368122Y0170838D02*
X0369254Y0170847D01*
X0370386Y0170838D01*
X0367749Y0149608D02*
X0366617Y0149599D01*
X0365485Y0149608D01*
X0283778Y0147407D02*
X0282646Y0147398D01*
X0281514Y0147407D01*
X0267667Y0179820D02*
X0266535Y0179811D01*
X0265403Y0179820D01*
X0198600Y0189480D02*
X0197468Y0189471D01*
X0196336Y0189480D01*
X0103411Y0189219D02*
X0102279Y0189210D01*
X0101147Y0189219D01*
X0100770Y0152076D02*
X0101902Y0152067D01*
X0103034Y0152076D01*
X0184668Y0132026D02*
X0185800Y0132035D01*
X0186932Y0132026D01*
X0253682Y0129697D02*
X0254814Y0129706D01*
X0255946Y0129697D01*
X0368904Y0132150D02*
X0370036Y0132159D01*
X0371168Y0132150D01*
X0366544Y0188808D02*
X0365412Y0188799D01*
X0364280Y0188808D01*
D11*
X0264395Y0091615D03*
X0269495Y0091115D03*
X0269695Y0091015D03*
X0268695Y0086615D03*
X0268395Y0086015D03*
X0274595Y0084215D03*
X0267995Y0077015D03*
X0267895Y0076915D03*
X0260995Y0077715D03*
X0260795Y0077415D03*
X0257995Y0082215D03*
X0266395Y0064215D03*
X0300595Y0072915D03*
X0370995Y0085715D03*
X0370995Y0085815D03*
X0370995Y0085915D03*
D12*
X0370995Y0082515D03*
X0370995Y0082415D03*
X0370995Y0082315D03*
X0370995Y0082215D03*
X0357095Y0075315D03*
X0366695Y0072615D03*
X0366695Y0072515D03*
X0375295Y0072515D03*
X0375295Y0072615D03*
X0336995Y0077315D03*
X0336795Y0075315D03*
X0332795Y0072415D03*
X0329095Y0081715D03*
X0322195Y0083315D03*
X0315495Y0083415D03*
X0300595Y0075015D03*
X0316895Y0072815D03*
X0336695Y0083715D03*
X0333095Y0086315D03*
X0274095Y0080515D03*
X0269995Y0089415D03*
X0270195Y0089715D03*
X0270095Y0089815D03*
X0270295Y0090015D03*
X0270295Y0090215D03*
X0266395Y0092015D03*
X0262395Y0089915D03*
X0262295Y0089815D03*
X0259395Y0085515D03*
X0259295Y0085115D03*
X0259095Y0085015D03*
X0252495Y0075115D03*
X0252495Y0075015D03*
X0252695Y0074715D03*
X0252795Y0074515D03*
X0252895Y0074215D03*
X0266395Y0064315D03*
D13*
X0266395Y0064415D03*
X0279795Y0075315D03*
X0279895Y0075515D03*
X0279995Y0075715D03*
X0279995Y0075915D03*
X0280295Y0087715D03*
X0280195Y0087915D03*
X0280095Y0088315D03*
X0279995Y0088515D03*
X0278995Y0090715D03*
X0278895Y0090815D03*
X0293495Y0088715D03*
X0293495Y0088615D03*
X0293495Y0088515D03*
X0307695Y0088515D03*
X0307695Y0088415D03*
X0307695Y0088615D03*
X0300595Y0076615D03*
X0252895Y0088615D03*
X0252795Y0088515D03*
X0252495Y0087715D03*
X0252195Y0077615D03*
X0353695Y0072815D03*
D14*
X0366595Y0077215D03*
X0366595Y0077315D03*
X0366595Y0077415D03*
X0366595Y0077515D03*
X0375395Y0077515D03*
X0375395Y0077415D03*
X0375395Y0077315D03*
X0353695Y0085715D03*
X0316895Y0073615D03*
X0300595Y0077915D03*
X0300595Y0078015D03*
X0307195Y0085715D03*
X0307195Y0085815D03*
X0307195Y0085915D03*
X0293995Y0085915D03*
X0293995Y0086015D03*
X0278895Y0089915D03*
X0254695Y0091315D03*
X0254595Y0091215D03*
X0254495Y0091115D03*
X0252795Y0077315D03*
X0252895Y0077215D03*
X0254795Y0072815D03*
X0266395Y0072515D03*
X0266395Y0064515D03*
X0278795Y0074115D03*
D15*
X0277895Y0073215D03*
X0277795Y0073015D03*
X0276895Y0071715D03*
X0276795Y0071615D03*
X0268295Y0074215D03*
X0267595Y0073315D03*
X0267495Y0073215D03*
X0267295Y0073115D03*
X0255995Y0071615D03*
X0255895Y0071715D03*
X0266395Y0064615D03*
X0255695Y0092315D03*
X0255795Y0092415D03*
X0266395Y0099715D03*
X0276995Y0092415D03*
X0320795Y0080515D03*
X0353695Y0085515D03*
D16*
X0334445Y0078615D03*
X0331745Y0080415D03*
X0320345Y0080315D03*
X0275845Y0070915D03*
X0266445Y0064715D03*
X0256945Y0070915D03*
X0256845Y0093215D03*
D17*
X0257495Y0093615D03*
X0275295Y0093615D03*
X0275195Y0070515D03*
X0266395Y0064815D03*
X0257595Y0070515D03*
X0332495Y0079915D03*
X0332795Y0079715D03*
X0332895Y0079615D03*
X0333195Y0079415D03*
X0333395Y0079315D03*
X0333495Y0079215D03*
X0353695Y0073915D03*
X0353695Y0084915D03*
D18*
X0353695Y0084615D03*
X0353695Y0074215D03*
X0332895Y0073615D03*
X0266395Y0064915D03*
X0266395Y0099415D03*
D19*
X0318745Y0084215D03*
X0319345Y0079415D03*
X0332845Y0073915D03*
X0333045Y0084715D03*
X0266445Y0065015D03*
D20*
X0266395Y0065115D03*
X0318995Y0078815D03*
X0318795Y0083515D03*
X0332895Y0074315D03*
X0353695Y0075115D03*
D21*
X0332895Y0074615D03*
X0266395Y0065215D03*
X0266395Y0099115D03*
D22*
X0266395Y0065315D03*
X0332895Y0075115D03*
D23*
X0266445Y0065415D03*
D24*
X0266395Y0065515D03*
D25*
X0266395Y0065615D03*
X0266395Y0098715D03*
D26*
X0266395Y0065715D03*
D27*
X0266395Y0065815D03*
D28*
X0266395Y0065915D03*
D29*
X0266395Y0066015D03*
D30*
X0266395Y0066115D03*
D31*
X0266395Y0066215D03*
D32*
X0266445Y0066315D03*
D33*
X0266395Y0066415D03*
X0266395Y0097915D03*
D34*
X0266395Y0097815D03*
X0266395Y0066515D03*
D35*
X0266395Y0066615D03*
D36*
X0266445Y0066715D03*
X0273145Y0074015D03*
D37*
X0266395Y0066815D03*
X0266395Y0097515D03*
D38*
X0266395Y0066915D03*
D39*
X0266395Y0067015D03*
X0266395Y0097315D03*
D40*
X0266395Y0067115D03*
D41*
X0266395Y0067215D03*
X0266395Y0097115D03*
D42*
X0266395Y0067315D03*
D43*
X0266395Y0067415D03*
X0266395Y0096915D03*
D44*
X0266445Y0067515D03*
D45*
X0266395Y0067615D03*
X0266395Y0096715D03*
D46*
X0266395Y0096615D03*
X0266395Y0067715D03*
D47*
X0266445Y0067815D03*
D48*
X0266395Y0067915D03*
X0266395Y0096415D03*
D49*
X0266395Y0096315D03*
X0266395Y0068015D03*
D50*
X0266395Y0068115D03*
X0266395Y0096215D03*
D51*
X0266395Y0068215D03*
D52*
X0266395Y0068315D03*
X0266395Y0096015D03*
D53*
X0266395Y0095915D03*
X0266395Y0068415D03*
D54*
X0266395Y0068515D03*
X0266395Y0095815D03*
D55*
X0266395Y0095715D03*
X0266395Y0068615D03*
D56*
X0266395Y0068715D03*
X0266395Y0095615D03*
D57*
X0266445Y0068815D03*
D58*
X0266395Y0068915D03*
D59*
X0266395Y0069015D03*
D60*
X0266395Y0069115D03*
D61*
X0266395Y0069215D03*
D62*
X0266395Y0069315D03*
D63*
X0266395Y0069415D03*
D64*
X0266395Y0069515D03*
D65*
X0266395Y0069615D03*
D66*
X0266395Y0069715D03*
D67*
X0266395Y0069815D03*
X0266395Y0094415D03*
D68*
X0259345Y0069915D03*
X0273545Y0069915D03*
X0318845Y0078415D03*
X0318845Y0078515D03*
X0332845Y0074515D03*
X0333045Y0084015D03*
X0333045Y0084115D03*
D69*
X0318795Y0084015D03*
X0318795Y0083915D03*
X0319195Y0079215D03*
X0332895Y0074115D03*
X0353695Y0074815D03*
X0353695Y0084015D03*
X0258895Y0070015D03*
D70*
X0260645Y0074615D03*
X0261945Y0079915D03*
X0262145Y0080215D03*
X0262045Y0080315D03*
X0262245Y0080615D03*
X0257545Y0080715D03*
X0257445Y0080515D03*
X0267345Y0083915D03*
X0267545Y0084215D03*
X0268445Y0078515D03*
X0268245Y0078215D03*
X0274645Y0085815D03*
X0268445Y0091815D03*
X0266445Y0070015D03*
X0318545Y0086515D03*
D71*
X0319145Y0079115D03*
X0333045Y0084515D03*
X0273945Y0070015D03*
D72*
X0274245Y0070115D03*
X0258545Y0070115D03*
X0258345Y0094015D03*
X0274445Y0094015D03*
X0318745Y0084415D03*
X0333045Y0084815D03*
X0332845Y0073815D03*
X0353645Y0084315D03*
D73*
X0316945Y0072215D03*
X0274945Y0074215D03*
X0266445Y0071815D03*
X0264745Y0070115D03*
X0257145Y0078515D03*
X0257145Y0078715D03*
X0265545Y0080115D03*
X0265645Y0080015D03*
X0265745Y0080415D03*
X0269445Y0081415D03*
X0269645Y0081515D03*
X0264045Y0084415D03*
X0263945Y0084515D03*
X0264145Y0084815D03*
X0263845Y0084115D03*
D74*
X0265395Y0079815D03*
X0269495Y0081315D03*
X0269695Y0081615D03*
X0269595Y0081815D03*
X0274595Y0087815D03*
X0273895Y0091915D03*
X0257095Y0078615D03*
X0256795Y0077815D03*
X0264895Y0071815D03*
X0267895Y0071815D03*
X0268095Y0070115D03*
X0272995Y0074215D03*
D75*
X0274545Y0070215D03*
X0258245Y0070215D03*
X0319645Y0079815D03*
X0318745Y0084715D03*
X0333045Y0085015D03*
D76*
X0353645Y0075215D03*
X0274545Y0075915D03*
X0269345Y0072115D03*
X0268545Y0071915D03*
X0268645Y0070215D03*
X0269145Y0070315D03*
X0269545Y0070415D03*
X0264145Y0070215D03*
X0263645Y0070315D03*
X0263245Y0070415D03*
X0256945Y0074215D03*
X0256745Y0077915D03*
X0265345Y0079515D03*
X0269745Y0081915D03*
X0270045Y0082315D03*
X0264245Y0085015D03*
X0264345Y0085415D03*
X0264545Y0085715D03*
X0263045Y0091915D03*
X0264545Y0092315D03*
X0269345Y0093815D03*
X0270045Y0093615D03*
X0273945Y0091815D03*
X0274045Y0091715D03*
X0274945Y0092115D03*
X0274945Y0088815D03*
X0274645Y0088215D03*
D77*
X0274945Y0093815D03*
X0257845Y0093815D03*
X0258045Y0070315D03*
X0274745Y0070315D03*
X0318745Y0084815D03*
X0333045Y0085115D03*
D78*
X0333095Y0085215D03*
X0319895Y0080015D03*
X0353695Y0084815D03*
X0353695Y0074015D03*
X0274995Y0070415D03*
X0257795Y0070415D03*
X0257695Y0093715D03*
D79*
X0261695Y0093215D03*
X0262195Y0093415D03*
X0262495Y0093515D03*
X0262795Y0093615D03*
X0263095Y0093715D03*
X0263495Y0093815D03*
X0263695Y0092115D03*
X0263295Y0092015D03*
X0262495Y0091715D03*
X0266595Y0091715D03*
X0267095Y0091715D03*
X0269095Y0092115D03*
X0269495Y0092015D03*
X0269795Y0091915D03*
X0270295Y0093515D03*
X0270595Y0093415D03*
X0270895Y0093315D03*
X0271095Y0093215D03*
X0269695Y0093715D03*
X0264595Y0085615D03*
X0264395Y0085315D03*
X0269895Y0082215D03*
X0265295Y0079415D03*
X0265195Y0079215D03*
X0265195Y0079015D03*
X0264995Y0078915D03*
X0264895Y0078815D03*
X0271895Y0074515D03*
X0272495Y0074315D03*
X0272695Y0076015D03*
X0270195Y0072415D03*
X0268995Y0072015D03*
X0269895Y0070515D03*
X0270195Y0070615D03*
X0270495Y0070715D03*
X0270995Y0070915D03*
X0263795Y0072015D03*
X0263495Y0072115D03*
X0262595Y0072415D03*
X0261795Y0070915D03*
X0262295Y0070715D03*
X0262595Y0070615D03*
X0262895Y0070515D03*
X0255795Y0077615D03*
X0255495Y0077715D03*
X0354395Y0083615D03*
D80*
X0353695Y0073815D03*
X0333795Y0079015D03*
X0332195Y0080115D03*
X0275395Y0070615D03*
X0266395Y0073015D03*
X0257395Y0070615D03*
X0257295Y0093515D03*
X0275495Y0093515D03*
D81*
X0275695Y0093415D03*
X0257295Y0070715D03*
X0331995Y0080215D03*
X0334095Y0078815D03*
X0353695Y0073715D03*
D82*
X0353645Y0085015D03*
X0333045Y0085415D03*
X0333945Y0078915D03*
X0332845Y0073315D03*
X0320145Y0080215D03*
X0318745Y0085215D03*
X0275545Y0070715D03*
X0257145Y0093415D03*
D83*
X0275995Y0093215D03*
X0277695Y0073815D03*
X0275695Y0070815D03*
X0266395Y0072915D03*
X0257095Y0070815D03*
X0318695Y0085315D03*
X0331895Y0080315D03*
X0334295Y0078715D03*
X0333095Y0085515D03*
X0353695Y0085115D03*
X0353695Y0073615D03*
D84*
X0354445Y0075415D03*
X0354645Y0075515D03*
X0352945Y0075415D03*
X0352745Y0075515D03*
X0352945Y0083615D03*
X0354645Y0083515D03*
X0276345Y0088815D03*
X0275445Y0088915D03*
X0272745Y0090315D03*
X0272345Y0090615D03*
X0272045Y0090815D03*
X0271845Y0090915D03*
X0271545Y0091115D03*
X0271345Y0091215D03*
X0271145Y0091315D03*
X0270945Y0091415D03*
X0270745Y0091515D03*
X0270545Y0091615D03*
X0270345Y0091715D03*
X0270045Y0091815D03*
X0271345Y0093115D03*
X0271545Y0093015D03*
X0271745Y0092915D03*
X0271945Y0092815D03*
X0272145Y0092715D03*
X0272345Y0092615D03*
X0272645Y0092415D03*
X0272845Y0092315D03*
X0272945Y0092215D03*
X0273145Y0092115D03*
X0273545Y0091815D03*
X0274445Y0091915D03*
X0275245Y0092015D03*
X0264845Y0086415D03*
X0264845Y0086315D03*
X0264445Y0085515D03*
X0270045Y0082515D03*
X0270245Y0082715D03*
X0270345Y0083115D03*
X0270445Y0083315D03*
X0270545Y0083515D03*
X0265145Y0079115D03*
X0264745Y0078215D03*
X0263145Y0073215D03*
X0262845Y0073115D03*
X0262545Y0073215D03*
X0262345Y0073315D03*
X0261945Y0072715D03*
X0262145Y0072615D03*
X0262345Y0072515D03*
X0262845Y0072315D03*
X0263145Y0072215D03*
X0261745Y0072815D03*
X0261345Y0073015D03*
X0261145Y0073115D03*
X0260845Y0073315D03*
X0260545Y0073515D03*
X0260245Y0073715D03*
X0259745Y0074115D03*
X0258445Y0073015D03*
X0259045Y0072515D03*
X0259445Y0072215D03*
X0259745Y0072015D03*
X0260045Y0071815D03*
X0260345Y0071615D03*
X0260545Y0071515D03*
X0260745Y0071415D03*
X0260945Y0071315D03*
X0261145Y0071215D03*
X0261345Y0071115D03*
X0261545Y0071015D03*
X0262045Y0070815D03*
X0256945Y0074315D03*
X0256945Y0074515D03*
X0256545Y0074215D03*
X0255745Y0074215D03*
X0256045Y0077715D03*
X0256245Y0077815D03*
X0269645Y0072215D03*
X0269945Y0072315D03*
X0270445Y0072515D03*
X0270645Y0072615D03*
X0270845Y0072715D03*
X0271445Y0073015D03*
X0271645Y0073115D03*
X0271945Y0073315D03*
X0272145Y0073415D03*
X0272445Y0073615D03*
X0273245Y0073615D03*
X0272145Y0074415D03*
X0271645Y0074615D03*
X0271345Y0074815D03*
X0272145Y0076315D03*
X0272445Y0076115D03*
X0275445Y0074315D03*
X0275645Y0074415D03*
X0273045Y0072015D03*
X0272745Y0071815D03*
X0272445Y0071615D03*
X0272245Y0071515D03*
X0272045Y0071415D03*
X0271845Y0071315D03*
X0271645Y0071215D03*
X0271445Y0071115D03*
X0271245Y0071015D03*
X0270745Y0070815D03*
X0259145Y0089515D03*
X0259945Y0090215D03*
X0260345Y0090515D03*
X0260645Y0090715D03*
X0260745Y0090815D03*
X0260945Y0090915D03*
X0261245Y0091115D03*
X0261445Y0091215D03*
X0261645Y0091315D03*
X0261845Y0091415D03*
X0262045Y0091515D03*
X0262245Y0091615D03*
X0262745Y0091815D03*
X0261945Y0093315D03*
X0261445Y0093115D03*
X0261245Y0093015D03*
X0261045Y0092915D03*
X0260845Y0092815D03*
X0260645Y0092715D03*
X0260345Y0092515D03*
X0260145Y0092415D03*
X0259845Y0092215D03*
X0259545Y0092015D03*
X0259245Y0091815D03*
X0259145Y0091715D03*
X0258645Y0091315D03*
D85*
X0256695Y0093115D03*
X0266395Y0099615D03*
X0276095Y0093115D03*
X0277795Y0073715D03*
X0275995Y0071015D03*
X0256795Y0071015D03*
X0353695Y0085215D03*
D86*
X0353695Y0085315D03*
X0334595Y0078515D03*
X0333095Y0085615D03*
X0353695Y0073515D03*
X0276195Y0071115D03*
X0266395Y0072815D03*
X0256595Y0071115D03*
X0256395Y0092915D03*
X0276395Y0092915D03*
D87*
X0256295Y0092815D03*
X0267995Y0073715D03*
X0276395Y0071315D03*
X0256495Y0071215D03*
X0256395Y0071315D03*
X0318695Y0085515D03*
X0353695Y0073415D03*
D88*
X0331345Y0080615D03*
X0320545Y0080415D03*
X0277845Y0073615D03*
X0276345Y0071215D03*
X0268445Y0074115D03*
X0268245Y0073815D03*
X0276545Y0092815D03*
D89*
X0276645Y0092715D03*
X0256145Y0092715D03*
X0277845Y0073515D03*
X0276545Y0071415D03*
X0256245Y0071415D03*
X0332845Y0073015D03*
X0334845Y0078415D03*
X0333045Y0085715D03*
D90*
X0331195Y0080715D03*
X0318695Y0085615D03*
X0353695Y0085415D03*
X0277895Y0073415D03*
X0277795Y0073315D03*
X0276695Y0071515D03*
X0267995Y0073615D03*
X0266395Y0072715D03*
X0256095Y0071515D03*
X0255895Y0092515D03*
X0255995Y0092615D03*
X0276795Y0092615D03*
D91*
X0275695Y0091615D03*
X0275695Y0091515D03*
X0275595Y0091715D03*
X0275695Y0090915D03*
X0275595Y0090715D03*
X0275495Y0090515D03*
X0275395Y0090415D03*
X0275395Y0090315D03*
X0275295Y0090215D03*
X0275195Y0090015D03*
X0275095Y0089815D03*
X0274995Y0089615D03*
X0274895Y0089415D03*
X0274795Y0089215D03*
X0274695Y0089015D03*
X0274595Y0088815D03*
X0274495Y0088615D03*
X0274395Y0088415D03*
X0274295Y0088215D03*
X0274195Y0088015D03*
X0274095Y0087815D03*
X0273995Y0087615D03*
X0273895Y0087415D03*
X0273795Y0087215D03*
X0273795Y0087115D03*
X0273695Y0087015D03*
X0273695Y0086915D03*
X0273595Y0086715D03*
X0273495Y0086515D03*
X0273395Y0086315D03*
X0273395Y0086215D03*
X0273295Y0086015D03*
X0273195Y0085815D03*
X0273095Y0085615D03*
X0273095Y0085515D03*
X0272995Y0085315D03*
X0272995Y0085215D03*
X0272895Y0085115D03*
X0272895Y0085015D03*
X0272795Y0084815D03*
X0272795Y0084715D03*
X0272695Y0084515D03*
X0272695Y0084415D03*
X0272595Y0084315D03*
X0272595Y0084215D03*
X0272495Y0084015D03*
X0272495Y0083915D03*
X0272395Y0083715D03*
X0272395Y0083615D03*
X0272295Y0083415D03*
X0272295Y0083315D03*
X0272195Y0083115D03*
X0272195Y0083015D03*
X0272095Y0082815D03*
X0272095Y0082715D03*
X0271995Y0082515D03*
X0271995Y0082415D03*
X0271995Y0082315D03*
X0271895Y0082115D03*
X0271895Y0082015D03*
X0271795Y0081815D03*
X0271795Y0081715D03*
X0271795Y0081615D03*
X0271695Y0081415D03*
X0271695Y0081315D03*
X0271695Y0081215D03*
X0271595Y0081015D03*
X0271595Y0080915D03*
X0271595Y0080815D03*
X0271495Y0080415D03*
X0271495Y0080315D03*
X0271495Y0080215D03*
X0271395Y0079915D03*
X0271395Y0079815D03*
X0271395Y0079715D03*
X0271395Y0079615D03*
X0271395Y0079515D03*
X0271395Y0079415D03*
X0271295Y0078915D03*
X0271295Y0078815D03*
X0271295Y0078715D03*
X0271295Y0078615D03*
X0271295Y0078515D03*
X0271295Y0078415D03*
X0271395Y0077915D03*
X0271395Y0077815D03*
X0271395Y0077715D03*
X0271395Y0077615D03*
X0271495Y0077315D03*
X0271495Y0077215D03*
X0271595Y0077015D03*
X0271695Y0076815D03*
X0271795Y0076715D03*
X0271895Y0076515D03*
X0271995Y0076415D03*
X0272295Y0076215D03*
X0271095Y0075015D03*
X0271195Y0074915D03*
X0271495Y0074715D03*
X0270795Y0075315D03*
X0270695Y0075415D03*
X0270595Y0075515D03*
X0270495Y0075615D03*
X0270395Y0075815D03*
X0270295Y0075915D03*
X0270195Y0076115D03*
X0270095Y0076315D03*
X0269995Y0076515D03*
X0269995Y0076615D03*
X0269895Y0076815D03*
X0269895Y0076915D03*
X0269795Y0077115D03*
X0269795Y0077215D03*
X0269795Y0077315D03*
X0269795Y0077415D03*
X0269695Y0077715D03*
X0269695Y0077815D03*
X0269695Y0077915D03*
X0269695Y0078015D03*
X0269695Y0078115D03*
X0269695Y0078215D03*
X0269695Y0078315D03*
X0269695Y0079015D03*
X0269695Y0079115D03*
X0269695Y0079215D03*
X0269695Y0079315D03*
X0269695Y0079415D03*
X0269695Y0079515D03*
X0269695Y0079615D03*
X0269695Y0079715D03*
X0269795Y0080115D03*
X0269795Y0080215D03*
X0269795Y0080315D03*
X0269795Y0080415D03*
X0269895Y0080715D03*
X0269895Y0080815D03*
X0269895Y0080915D03*
X0269995Y0081315D03*
X0269995Y0081415D03*
X0270095Y0081715D03*
X0270095Y0081815D03*
X0270095Y0081915D03*
X0270195Y0082115D03*
X0270195Y0082215D03*
X0270295Y0082515D03*
X0270295Y0082615D03*
X0270095Y0082615D03*
X0269995Y0082715D03*
X0269895Y0082615D03*
X0269795Y0082515D03*
X0269695Y0082315D03*
X0269595Y0082215D03*
X0269495Y0082015D03*
X0269395Y0081915D03*
X0269295Y0081715D03*
X0269195Y0081615D03*
X0269095Y0081515D03*
X0268995Y0081315D03*
X0268895Y0081215D03*
X0268795Y0081015D03*
X0268695Y0080915D03*
X0268595Y0080715D03*
X0268495Y0080615D03*
X0268395Y0080515D03*
X0268295Y0080315D03*
X0268195Y0080215D03*
X0268095Y0080015D03*
X0267995Y0079915D03*
X0267895Y0079815D03*
X0267895Y0079715D03*
X0267795Y0079615D03*
X0267695Y0079515D03*
X0267595Y0079315D03*
X0267495Y0079215D03*
X0267395Y0079015D03*
X0267295Y0078915D03*
X0267195Y0078815D03*
X0267195Y0078715D03*
X0267095Y0078615D03*
X0266995Y0078515D03*
X0266895Y0078315D03*
X0266795Y0078215D03*
X0266695Y0078015D03*
X0266595Y0077915D03*
X0266495Y0077815D03*
X0266395Y0077615D03*
X0266295Y0077515D03*
X0266195Y0077315D03*
X0266095Y0077215D03*
X0265995Y0077115D03*
X0265995Y0077015D03*
X0265895Y0076915D03*
X0265795Y0076815D03*
X0265695Y0076615D03*
X0265595Y0076515D03*
X0265495Y0076315D03*
X0265395Y0076215D03*
X0265295Y0076115D03*
X0265295Y0076015D03*
X0265195Y0075915D03*
X0265095Y0075815D03*
X0264995Y0075615D03*
X0264895Y0075515D03*
X0264795Y0075315D03*
X0264695Y0075215D03*
X0264595Y0075115D03*
X0264495Y0074915D03*
X0264395Y0074815D03*
X0264295Y0074615D03*
X0264195Y0074515D03*
X0264095Y0074315D03*
X0263995Y0074215D03*
X0263895Y0074115D03*
X0263795Y0073915D03*
X0263695Y0073815D03*
X0263595Y0073615D03*
X0263495Y0073515D03*
X0263395Y0073415D03*
X0263295Y0073315D03*
X0262195Y0073415D03*
X0262095Y0073615D03*
X0261995Y0073815D03*
X0261995Y0073915D03*
X0261995Y0074015D03*
X0261995Y0074115D03*
X0262095Y0074415D03*
X0262095Y0074515D03*
X0262095Y0074615D03*
X0262195Y0074815D03*
X0262195Y0074915D03*
X0262195Y0075015D03*
X0262295Y0075315D03*
X0262295Y0075415D03*
X0262395Y0075715D03*
X0262395Y0075815D03*
X0262395Y0075915D03*
X0262495Y0076115D03*
X0262495Y0076215D03*
X0262595Y0076515D03*
X0262595Y0076615D03*
X0262595Y0076715D03*
X0262695Y0076915D03*
X0262695Y0077015D03*
X0262695Y0077115D03*
X0262795Y0077415D03*
X0262795Y0077515D03*
X0262895Y0077815D03*
X0262895Y0077915D03*
X0262995Y0078215D03*
X0262995Y0078315D03*
X0262995Y0078415D03*
X0263095Y0078615D03*
X0263095Y0078715D03*
X0263095Y0078815D03*
X0263195Y0079015D03*
X0263195Y0079115D03*
X0263195Y0079215D03*
X0263295Y0079515D03*
X0263295Y0079615D03*
X0263395Y0079915D03*
X0263395Y0080015D03*
X0263395Y0080115D03*
X0263495Y0080315D03*
X0263495Y0080415D03*
X0263595Y0080815D03*
X0263595Y0080915D03*
X0263695Y0081115D03*
X0263695Y0081215D03*
X0263695Y0081315D03*
X0263795Y0081615D03*
X0263795Y0081715D03*
X0263895Y0082015D03*
X0263895Y0082115D03*
X0263995Y0082415D03*
X0263995Y0082515D03*
X0263995Y0082615D03*
X0264095Y0082815D03*
X0264095Y0082915D03*
X0264195Y0083315D03*
X0264195Y0083415D03*
X0264295Y0083715D03*
X0264295Y0083815D03*
X0264295Y0083915D03*
X0264395Y0084115D03*
X0264395Y0084215D03*
X0264495Y0084515D03*
X0264495Y0084615D03*
X0264495Y0084715D03*
X0264595Y0084915D03*
X0264595Y0085015D03*
X0264595Y0085115D03*
X0264695Y0085415D03*
X0264695Y0085515D03*
X0264795Y0085815D03*
X0264795Y0085915D03*
X0264795Y0086015D03*
X0264795Y0086115D03*
X0264895Y0086215D03*
X0264695Y0086215D03*
X0264595Y0086115D03*
X0264595Y0086015D03*
X0264495Y0085915D03*
X0264595Y0085815D03*
X0264395Y0085815D03*
X0264295Y0085615D03*
X0264195Y0085515D03*
X0264095Y0085315D03*
X0263995Y0085215D03*
X0263895Y0085015D03*
X0263795Y0084915D03*
X0263695Y0084715D03*
X0263595Y0084615D03*
X0263495Y0084415D03*
X0263395Y0084315D03*
X0263295Y0084115D03*
X0263195Y0084015D03*
X0263095Y0083815D03*
X0262995Y0083715D03*
X0262895Y0083515D03*
X0262795Y0083415D03*
X0262695Y0083215D03*
X0262595Y0083115D03*
X0262495Y0082915D03*
X0262395Y0082815D03*
X0262295Y0082615D03*
X0262195Y0082515D03*
X0262095Y0082315D03*
X0261995Y0082215D03*
X0261895Y0082015D03*
X0261795Y0081915D03*
X0261695Y0081715D03*
X0261595Y0081615D03*
X0261495Y0081415D03*
X0261395Y0081315D03*
X0261295Y0081115D03*
X0261195Y0081015D03*
X0261095Y0080815D03*
X0260995Y0080715D03*
X0260895Y0080515D03*
X0260795Y0080415D03*
X0260695Y0080215D03*
X0260595Y0080115D03*
X0260495Y0079915D03*
X0260395Y0079815D03*
X0260295Y0079615D03*
X0260195Y0079515D03*
X0260095Y0079415D03*
X0260095Y0079315D03*
X0259995Y0079215D03*
X0259895Y0079115D03*
X0259895Y0079015D03*
X0259795Y0078915D03*
X0259695Y0078715D03*
X0259595Y0078615D03*
X0259495Y0078515D03*
X0259495Y0078415D03*
X0259395Y0078315D03*
X0259295Y0078215D03*
X0259295Y0078115D03*
X0259195Y0078015D03*
X0259095Y0077915D03*
X0259095Y0077815D03*
X0258995Y0077715D03*
X0258895Y0077615D03*
X0258895Y0077515D03*
X0258795Y0077415D03*
X0258695Y0077315D03*
X0258595Y0077115D03*
X0258495Y0077015D03*
X0258395Y0076815D03*
X0258295Y0076715D03*
X0258195Y0076515D03*
X0258095Y0076415D03*
X0257995Y0076215D03*
X0257995Y0076015D03*
X0258095Y0075815D03*
X0258195Y0075715D03*
X0258295Y0075615D03*
X0258495Y0075315D03*
X0258595Y0075215D03*
X0258695Y0075115D03*
X0258795Y0075015D03*
X0258895Y0074915D03*
X0258995Y0074815D03*
X0259095Y0074715D03*
X0259195Y0074615D03*
X0259295Y0074515D03*
X0259395Y0074415D03*
X0259495Y0074315D03*
X0259595Y0074215D03*
X0259895Y0074015D03*
X0259995Y0073915D03*
X0260095Y0073815D03*
X0260395Y0073615D03*
X0260695Y0073415D03*
X0260995Y0073215D03*
X0261495Y0072915D03*
X0260195Y0071715D03*
X0259895Y0071915D03*
X0259595Y0072115D03*
X0259295Y0072315D03*
X0259195Y0072415D03*
X0258895Y0072615D03*
X0258795Y0072715D03*
X0258695Y0072815D03*
X0258295Y0073115D03*
X0258195Y0073215D03*
X0258095Y0073315D03*
X0257995Y0073415D03*
X0257895Y0073515D03*
X0257795Y0073615D03*
X0257695Y0073715D03*
X0257595Y0073815D03*
X0257495Y0073915D03*
X0257295Y0074215D03*
X0257195Y0074315D03*
X0257095Y0074415D03*
X0256895Y0074615D03*
X0256795Y0074415D03*
X0256695Y0074315D03*
X0255595Y0074315D03*
X0255495Y0074415D03*
X0255395Y0074615D03*
X0255295Y0074815D03*
X0255295Y0074915D03*
X0255295Y0075015D03*
X0255295Y0075115D03*
X0255395Y0075315D03*
X0255495Y0075515D03*
X0255595Y0075615D03*
X0255695Y0075815D03*
X0255795Y0075915D03*
X0255895Y0076115D03*
X0255995Y0076215D03*
X0256095Y0076415D03*
X0256195Y0076515D03*
X0256295Y0076715D03*
X0256395Y0076815D03*
X0256495Y0077015D03*
X0256595Y0077115D03*
X0256695Y0077315D03*
X0256795Y0077415D03*
X0256895Y0077515D03*
X0256895Y0077615D03*
X0256995Y0077715D03*
X0257095Y0077915D03*
X0257195Y0078015D03*
X0257295Y0078115D03*
X0257295Y0078215D03*
X0257395Y0078315D03*
X0257495Y0078415D03*
X0257595Y0078615D03*
X0257695Y0078715D03*
X0257795Y0078915D03*
X0257895Y0079015D03*
X0257895Y0079115D03*
X0257995Y0079215D03*
X0258095Y0079315D03*
X0258195Y0079515D03*
X0258295Y0079615D03*
X0258395Y0079815D03*
X0258495Y0079915D03*
X0258595Y0080115D03*
X0258695Y0080215D03*
X0258795Y0080415D03*
X0258895Y0080515D03*
X0258995Y0080715D03*
X0259095Y0080815D03*
X0259195Y0081015D03*
X0259295Y0081115D03*
X0259395Y0081315D03*
X0259495Y0081415D03*
X0259595Y0081615D03*
X0259695Y0081715D03*
X0259795Y0081915D03*
X0259895Y0082015D03*
X0259995Y0082215D03*
X0260095Y0082315D03*
X0260195Y0082515D03*
X0260295Y0082615D03*
X0260395Y0082815D03*
X0260495Y0082915D03*
X0260595Y0083115D03*
X0260695Y0083215D03*
X0260795Y0083415D03*
X0260895Y0083515D03*
X0260995Y0083715D03*
X0261095Y0083815D03*
X0261195Y0084015D03*
X0261295Y0084115D03*
X0261395Y0084315D03*
X0261495Y0084415D03*
X0261595Y0084615D03*
X0261695Y0084715D03*
X0261795Y0084915D03*
X0261895Y0085015D03*
X0261995Y0085215D03*
X0262095Y0085315D03*
X0262195Y0085515D03*
X0262295Y0085615D03*
X0262395Y0085815D03*
X0262495Y0085915D03*
X0262595Y0086115D03*
X0262695Y0086215D03*
X0262795Y0086415D03*
X0262895Y0086515D03*
X0262995Y0086715D03*
X0263095Y0086815D03*
X0263195Y0086915D03*
X0263295Y0087115D03*
X0263395Y0087215D03*
X0263395Y0087315D03*
X0263495Y0087415D03*
X0263595Y0087515D03*
X0263695Y0087715D03*
X0263795Y0087815D03*
X0263895Y0088015D03*
X0263995Y0088115D03*
X0264095Y0088315D03*
X0264195Y0088415D03*
X0264295Y0088615D03*
X0264395Y0088715D03*
X0264495Y0088915D03*
X0264595Y0089015D03*
X0264695Y0089215D03*
X0264795Y0089315D03*
X0264895Y0089515D03*
X0264995Y0089615D03*
X0265095Y0089815D03*
X0265195Y0089915D03*
X0265295Y0090115D03*
X0265395Y0090215D03*
X0265495Y0090415D03*
X0265595Y0090515D03*
X0265695Y0090715D03*
X0265795Y0090815D03*
X0265895Y0091015D03*
X0265995Y0091115D03*
X0266095Y0091315D03*
X0266195Y0091415D03*
X0266395Y0091615D03*
X0267295Y0091615D03*
X0267395Y0091515D03*
X0267495Y0091415D03*
X0267595Y0091315D03*
X0267595Y0091215D03*
X0267695Y0091015D03*
X0267695Y0090915D03*
X0267595Y0090515D03*
X0267595Y0090415D03*
X0267495Y0090115D03*
X0267495Y0090015D03*
X0267495Y0089915D03*
X0267395Y0089715D03*
X0267395Y0089615D03*
X0267295Y0089215D03*
X0267295Y0089115D03*
X0267195Y0088915D03*
X0267195Y0088815D03*
X0267195Y0088715D03*
X0267095Y0088415D03*
X0267095Y0088315D03*
X0266995Y0088015D03*
X0266995Y0087915D03*
X0266895Y0087615D03*
X0266895Y0087515D03*
X0266895Y0087415D03*
X0266795Y0087215D03*
X0266795Y0087115D03*
X0266695Y0086715D03*
X0266695Y0086615D03*
X0266595Y0086315D03*
X0266595Y0086215D03*
X0266595Y0086115D03*
X0266495Y0085915D03*
X0266495Y0085815D03*
X0266395Y0085515D03*
X0266395Y0085415D03*
X0266295Y0085115D03*
X0266295Y0085015D03*
X0266295Y0084915D03*
X0266195Y0084615D03*
X0266195Y0084515D03*
X0266095Y0084215D03*
X0266095Y0084115D03*
X0265995Y0083815D03*
X0265995Y0083715D03*
X0265995Y0083615D03*
X0265895Y0083415D03*
X0265895Y0083315D03*
X0265895Y0083215D03*
X0265795Y0083015D03*
X0265795Y0082915D03*
X0265795Y0082815D03*
X0265695Y0082515D03*
X0265695Y0082415D03*
X0265595Y0082115D03*
X0265595Y0082015D03*
X0265595Y0081915D03*
X0265495Y0081715D03*
X0265495Y0081615D03*
X0265395Y0081315D03*
X0265395Y0081215D03*
X0265395Y0081115D03*
X0265295Y0080815D03*
X0265295Y0080715D03*
X0265195Y0080415D03*
X0265195Y0080315D03*
X0265095Y0080015D03*
X0265095Y0079915D03*
X0264995Y0079615D03*
X0264995Y0079515D03*
X0264995Y0079415D03*
X0264895Y0079215D03*
X0264895Y0079115D03*
X0264895Y0079015D03*
X0264795Y0078715D03*
X0264795Y0078615D03*
X0264795Y0078515D03*
X0264895Y0078415D03*
X0264995Y0078515D03*
X0264995Y0078615D03*
X0265095Y0078715D03*
X0265195Y0078815D03*
X0265295Y0078915D03*
X0265395Y0079115D03*
X0265495Y0079215D03*
X0265595Y0079415D03*
X0265695Y0079515D03*
X0265795Y0079715D03*
X0265895Y0079815D03*
X0265995Y0079915D03*
X0266095Y0080115D03*
X0266195Y0080215D03*
X0266295Y0080415D03*
X0266395Y0080515D03*
X0266495Y0080615D03*
X0266495Y0080715D03*
X0266595Y0080815D03*
X0266695Y0080915D03*
X0266795Y0081115D03*
X0266895Y0081215D03*
X0266995Y0081415D03*
X0267095Y0081515D03*
X0267195Y0081615D03*
X0267195Y0081715D03*
X0267295Y0081815D03*
X0267395Y0081915D03*
X0267495Y0082115D03*
X0267595Y0082215D03*
X0267695Y0082415D03*
X0267795Y0082515D03*
X0267895Y0082615D03*
X0267895Y0082715D03*
X0267995Y0082815D03*
X0268095Y0082915D03*
X0268195Y0083115D03*
X0268295Y0083215D03*
X0268395Y0083415D03*
X0268495Y0083515D03*
X0268595Y0083615D03*
X0268595Y0083715D03*
X0268695Y0083815D03*
X0268795Y0083915D03*
X0268895Y0084115D03*
X0268995Y0084215D03*
X0269095Y0084415D03*
X0269195Y0084515D03*
X0269295Y0084615D03*
X0269395Y0084815D03*
X0269495Y0084915D03*
X0269595Y0085115D03*
X0269695Y0085215D03*
X0269795Y0085315D03*
X0269795Y0085415D03*
X0269895Y0085515D03*
X0269995Y0085615D03*
X0270095Y0085815D03*
X0270195Y0085915D03*
X0270295Y0086115D03*
X0270395Y0086215D03*
X0270495Y0086315D03*
X0270495Y0086415D03*
X0270595Y0086515D03*
X0270695Y0086615D03*
X0270795Y0086815D03*
X0270895Y0086915D03*
X0270995Y0087115D03*
X0271095Y0087215D03*
X0271195Y0087415D03*
X0271295Y0087515D03*
X0271395Y0087615D03*
X0271495Y0087815D03*
X0271595Y0087915D03*
X0271695Y0088115D03*
X0271795Y0088215D03*
X0271895Y0088315D03*
X0271895Y0088415D03*
X0271995Y0088515D03*
X0272095Y0088615D03*
X0272195Y0088815D03*
X0272295Y0088915D03*
X0272395Y0089115D03*
X0272495Y0089215D03*
X0272595Y0089315D03*
X0272695Y0089515D03*
X0272795Y0089615D03*
X0272895Y0089815D03*
X0272995Y0089915D03*
X0272995Y0090115D03*
X0272595Y0090415D03*
X0272495Y0090515D03*
X0272195Y0090715D03*
X0271695Y0091015D03*
X0272495Y0092515D03*
X0273295Y0092015D03*
X0273395Y0091915D03*
X0273695Y0091715D03*
X0273795Y0091615D03*
X0273895Y0091515D03*
X0273995Y0091415D03*
X0274095Y0091515D03*
X0274195Y0091615D03*
X0273995Y0091615D03*
X0274295Y0091815D03*
X0275295Y0088815D03*
X0275195Y0088715D03*
X0275095Y0088515D03*
X0274995Y0088215D03*
X0274995Y0088115D03*
X0274995Y0088015D03*
X0275095Y0087815D03*
X0275195Y0087615D03*
X0275295Y0087415D03*
X0275395Y0087315D03*
X0275495Y0087115D03*
X0275595Y0086915D03*
X0275695Y0086715D03*
X0275795Y0086515D03*
X0275895Y0086315D03*
X0275995Y0086115D03*
X0275995Y0086015D03*
X0276095Y0085815D03*
X0276195Y0085615D03*
X0276195Y0085515D03*
X0276295Y0085315D03*
X0276295Y0085215D03*
X0276395Y0084915D03*
X0276395Y0084815D03*
X0276495Y0084615D03*
X0276495Y0084515D03*
X0276495Y0084415D03*
X0276595Y0084115D03*
X0276595Y0084015D03*
X0276595Y0083915D03*
X0276695Y0083515D03*
X0276695Y0083415D03*
X0276695Y0083315D03*
X0276695Y0083215D03*
X0276795Y0082515D03*
X0276795Y0082415D03*
X0276795Y0082315D03*
X0276795Y0082215D03*
X0276795Y0082115D03*
X0276795Y0082015D03*
X0276795Y0081915D03*
X0276795Y0081815D03*
X0276795Y0081715D03*
X0276795Y0081615D03*
X0276695Y0080915D03*
X0276695Y0080815D03*
X0276695Y0080715D03*
X0276695Y0080615D03*
X0276595Y0080215D03*
X0276595Y0080115D03*
X0276595Y0080015D03*
X0276495Y0079715D03*
X0276495Y0079615D03*
X0276495Y0079515D03*
X0276395Y0079315D03*
X0276395Y0079215D03*
X0276295Y0078915D03*
X0276195Y0078715D03*
X0276195Y0078615D03*
X0276095Y0078415D03*
X0276095Y0078315D03*
X0275995Y0078115D03*
X0275895Y0077915D03*
X0275895Y0077815D03*
X0275795Y0077715D03*
X0275795Y0077615D03*
X0275695Y0077415D03*
X0275595Y0077215D03*
X0275495Y0077115D03*
X0275495Y0077015D03*
X0275395Y0076915D03*
X0275295Y0076715D03*
X0275195Y0076515D03*
X0275095Y0076415D03*
X0274995Y0076215D03*
X0274895Y0076115D03*
X0274795Y0076015D03*
X0275995Y0074815D03*
X0276095Y0074915D03*
X0276195Y0075015D03*
X0276295Y0075215D03*
X0276395Y0075315D03*
X0276495Y0075515D03*
X0276595Y0075615D03*
X0276595Y0075715D03*
X0276695Y0075815D03*
X0276795Y0076015D03*
X0276895Y0076115D03*
X0276895Y0076215D03*
X0276995Y0076315D03*
X0277095Y0076515D03*
X0277195Y0076715D03*
X0277295Y0076915D03*
X0277395Y0077115D03*
X0277395Y0077215D03*
X0277495Y0077315D03*
X0277495Y0077415D03*
X0277595Y0077615D03*
X0277695Y0077915D03*
X0277795Y0078115D03*
X0277795Y0078215D03*
X0277895Y0078415D03*
X0277895Y0078515D03*
X0277995Y0078815D03*
X0277995Y0078915D03*
X0278095Y0079115D03*
X0278095Y0079215D03*
X0278195Y0079515D03*
X0278195Y0079615D03*
X0278195Y0079715D03*
X0278295Y0080115D03*
X0278295Y0080215D03*
X0278295Y0080315D03*
X0278395Y0080715D03*
X0278395Y0080815D03*
X0278395Y0080915D03*
X0278395Y0081015D03*
X0278395Y0081115D03*
X0278395Y0081215D03*
X0278395Y0081315D03*
X0278395Y0081415D03*
X0278395Y0082815D03*
X0278395Y0082915D03*
X0278395Y0083015D03*
X0278395Y0083115D03*
X0278395Y0083215D03*
X0278395Y0083315D03*
X0278395Y0083415D03*
X0278295Y0083815D03*
X0278295Y0083915D03*
X0278295Y0084015D03*
X0278295Y0084115D03*
X0278195Y0084415D03*
X0278195Y0084515D03*
X0278195Y0084615D03*
X0278095Y0084915D03*
X0278095Y0085015D03*
X0277995Y0085315D03*
X0277895Y0085615D03*
X0277895Y0085715D03*
X0277795Y0085915D03*
X0277795Y0086015D03*
X0277695Y0086215D03*
X0277695Y0086315D03*
X0277595Y0086515D03*
X0277495Y0086715D03*
X0277495Y0086815D03*
X0277395Y0087015D03*
X0277295Y0087215D03*
X0277195Y0087415D03*
X0277095Y0087615D03*
X0276995Y0087815D03*
X0276895Y0088015D03*
X0276795Y0088215D03*
X0276695Y0088315D03*
X0276595Y0088515D03*
X0276495Y0088615D03*
X0270595Y0083615D03*
X0270495Y0083415D03*
X0270495Y0083215D03*
X0270295Y0083215D03*
X0270395Y0083015D03*
X0270395Y0082915D03*
X0270195Y0082815D03*
X0270095Y0082915D03*
X0270195Y0083015D03*
X0264895Y0086515D03*
X0258695Y0089015D03*
X0258595Y0088915D03*
X0258495Y0088815D03*
X0258395Y0088715D03*
X0258295Y0088615D03*
X0258195Y0088415D03*
X0258095Y0088315D03*
X0257995Y0088215D03*
X0257895Y0088015D03*
X0257795Y0087915D03*
X0257695Y0087715D03*
X0257595Y0087615D03*
X0257495Y0087415D03*
X0257395Y0087315D03*
X0257395Y0087215D03*
X0257295Y0087115D03*
X0257295Y0087015D03*
X0257195Y0086915D03*
X0257095Y0086715D03*
X0256995Y0086515D03*
X0256995Y0086415D03*
X0256895Y0086315D03*
X0256895Y0086215D03*
X0256795Y0086015D03*
X0256695Y0085815D03*
X0256695Y0085715D03*
X0256595Y0085515D03*
X0256595Y0085415D03*
X0256495Y0085215D03*
X0256495Y0085115D03*
X0256395Y0084915D03*
X0256395Y0084815D03*
X0256295Y0084515D03*
X0256295Y0084415D03*
X0256295Y0084315D03*
X0256195Y0084115D03*
X0256195Y0084015D03*
X0256195Y0083915D03*
X0256095Y0083415D03*
X0256095Y0083315D03*
X0256095Y0083215D03*
X0256095Y0083115D03*
X0255995Y0082415D03*
X0256095Y0081115D03*
X0256095Y0081015D03*
X0256095Y0080915D03*
X0256095Y0080815D03*
X0256095Y0080715D03*
X0256195Y0080315D03*
X0256195Y0080215D03*
X0256195Y0080115D03*
X0256295Y0079815D03*
X0256295Y0079715D03*
X0256295Y0079615D03*
X0256395Y0079415D03*
X0256395Y0079315D03*
X0256395Y0079215D03*
X0256495Y0079015D03*
X0256495Y0078915D03*
X0256595Y0078715D03*
X0256595Y0078615D03*
X0256595Y0078515D03*
X0256595Y0078415D03*
X0256595Y0078315D03*
X0256495Y0078115D03*
X0256395Y0077915D03*
X0255295Y0077815D03*
X0255195Y0077915D03*
X0255095Y0078015D03*
X0254995Y0078215D03*
X0254995Y0078315D03*
X0254895Y0078515D03*
X0254895Y0078615D03*
X0254795Y0078815D03*
X0254795Y0078915D03*
X0254695Y0079115D03*
X0254695Y0079215D03*
X0254695Y0079315D03*
X0254595Y0079615D03*
X0254595Y0079715D03*
X0254595Y0079815D03*
X0254495Y0080215D03*
X0254495Y0080315D03*
X0254495Y0080415D03*
X0254395Y0080815D03*
X0254395Y0080915D03*
X0254395Y0081015D03*
X0254395Y0081115D03*
X0254395Y0081215D03*
X0254395Y0081315D03*
X0254395Y0081415D03*
X0254395Y0081515D03*
X0254395Y0081615D03*
X0254395Y0081715D03*
X0254395Y0081815D03*
X0254395Y0081915D03*
X0254395Y0082015D03*
X0254395Y0082115D03*
X0254395Y0082215D03*
X0254395Y0082315D03*
X0254395Y0082415D03*
X0254395Y0082515D03*
X0254395Y0082615D03*
X0254395Y0082715D03*
X0254395Y0082815D03*
X0254395Y0082915D03*
X0254395Y0083015D03*
X0254395Y0083115D03*
X0254395Y0083215D03*
X0254395Y0083315D03*
X0254495Y0083715D03*
X0254495Y0083815D03*
X0254495Y0083915D03*
X0254495Y0084015D03*
X0254595Y0084415D03*
X0254595Y0084515D03*
X0254695Y0084815D03*
X0254695Y0084915D03*
X0254695Y0085015D03*
X0254795Y0085215D03*
X0254795Y0085315D03*
X0254895Y0085615D03*
X0254895Y0085715D03*
X0254995Y0085915D03*
X0254995Y0086015D03*
X0255095Y0086215D03*
X0255195Y0086415D03*
X0255195Y0086515D03*
X0255295Y0086715D03*
X0255295Y0086815D03*
X0255395Y0086915D03*
X0255395Y0087015D03*
X0255495Y0087215D03*
X0255595Y0087415D03*
X0255695Y0087615D03*
X0255795Y0087815D03*
X0255895Y0087915D03*
X0255895Y0088015D03*
X0255995Y0088115D03*
X0256095Y0088315D03*
X0256195Y0088515D03*
X0256295Y0088615D03*
X0256395Y0088815D03*
X0256495Y0088915D03*
X0256595Y0089115D03*
X0256695Y0089215D03*
X0256795Y0089315D03*
X0256895Y0089515D03*
X0256995Y0089615D03*
X0257095Y0089715D03*
X0257295Y0090015D03*
X0257395Y0090115D03*
X0257495Y0090215D03*
X0257595Y0090315D03*
X0257695Y0090415D03*
X0257795Y0090515D03*
X0257895Y0090615D03*
X0257995Y0090715D03*
X0258095Y0090815D03*
X0258195Y0090915D03*
X0258295Y0091015D03*
X0258395Y0091115D03*
X0258495Y0091215D03*
X0258895Y0091515D03*
X0258995Y0091615D03*
X0259395Y0091915D03*
X0259695Y0092115D03*
X0259995Y0092315D03*
X0260495Y0092615D03*
X0261095Y0091015D03*
X0260495Y0090615D03*
X0260195Y0090415D03*
X0260095Y0090315D03*
X0259795Y0090115D03*
X0259695Y0090015D03*
X0259595Y0089915D03*
X0259495Y0089815D03*
X0259395Y0089715D03*
X0259295Y0089615D03*
X0258895Y0089215D03*
X0258795Y0089115D03*
X0264695Y0078315D03*
X0264695Y0078115D03*
X0271795Y0073215D03*
X0272295Y0073515D03*
X0273395Y0073515D03*
X0273495Y0073415D03*
X0273595Y0073215D03*
X0273695Y0072915D03*
X0273695Y0072815D03*
X0273595Y0072615D03*
X0273595Y0072515D03*
X0273495Y0072415D03*
X0273195Y0072115D03*
X0272895Y0071915D03*
X0272595Y0071715D03*
X0271295Y0072915D03*
X0271095Y0072815D03*
X0275795Y0074515D03*
X0275895Y0074615D03*
X0316395Y0082015D03*
X0351195Y0080315D03*
X0351195Y0080215D03*
X0351195Y0080115D03*
X0351195Y0080015D03*
X0351195Y0079915D03*
X0351195Y0079115D03*
X0351195Y0079015D03*
X0351195Y0078915D03*
X0351195Y0078815D03*
X0351195Y0078715D03*
X0351495Y0077215D03*
X0351495Y0077115D03*
X0351595Y0076915D03*
X0351795Y0076515D03*
X0351895Y0076315D03*
X0352195Y0075915D03*
X0352295Y0075815D03*
X0352595Y0075615D03*
X0354795Y0075615D03*
X0355395Y0076215D03*
X0355595Y0076515D03*
X0355695Y0076715D03*
X0355795Y0076915D03*
X0355895Y0077215D03*
X0356095Y0078015D03*
X0356095Y0078115D03*
X0356195Y0079115D03*
X0356195Y0079215D03*
X0356195Y0079315D03*
X0356195Y0079415D03*
X0356195Y0079515D03*
X0356195Y0079615D03*
X0356195Y0079715D03*
X0356195Y0079815D03*
X0356195Y0079915D03*
X0356095Y0080915D03*
X0356095Y0081015D03*
X0355895Y0081815D03*
X0355795Y0082115D03*
X0355595Y0082515D03*
X0355395Y0082815D03*
X0354895Y0083315D03*
X0354795Y0083415D03*
X0352595Y0083415D03*
X0352295Y0083215D03*
X0352195Y0083115D03*
X0351895Y0082715D03*
X0351795Y0082515D03*
X0351695Y0082315D03*
X0351595Y0082115D03*
X0351495Y0081815D03*
X0351395Y0081515D03*
D92*
X0336695Y0082215D03*
X0268495Y0078615D03*
X0268295Y0078315D03*
X0262395Y0080715D03*
X0262295Y0080515D03*
X0261995Y0080115D03*
X0257395Y0080415D03*
X0267495Y0084115D03*
X0260695Y0074515D03*
X0266395Y0071715D03*
D93*
X0277045Y0071815D03*
X0277345Y0072215D03*
X0277845Y0073115D03*
X0255745Y0071815D03*
X0255545Y0092215D03*
X0277145Y0092315D03*
X0316945Y0074015D03*
X0330945Y0080815D03*
X0333045Y0085815D03*
X0332845Y0072915D03*
D94*
X0353695Y0073215D03*
X0318695Y0085715D03*
X0278895Y0089315D03*
X0255495Y0092115D03*
X0255695Y0071915D03*
X0277195Y0071915D03*
X0277695Y0072715D03*
D95*
X0265395Y0079715D03*
X0269695Y0081715D03*
X0269895Y0082015D03*
X0269795Y0082115D03*
X0269995Y0082415D03*
X0264395Y0085215D03*
X0264195Y0085115D03*
X0264195Y0084915D03*
X0264095Y0084715D03*
X0264095Y0092215D03*
X0263895Y0093915D03*
X0268295Y0092315D03*
X0268695Y0092215D03*
X0268895Y0093915D03*
X0274795Y0088715D03*
X0274895Y0088615D03*
X0274795Y0088415D03*
X0274695Y0088515D03*
X0274995Y0088915D03*
X0275795Y0089015D03*
X0274595Y0088015D03*
X0256995Y0078315D03*
X0256895Y0078115D03*
X0264295Y0071915D03*
D96*
X0266395Y0071915D03*
X0260495Y0075015D03*
X0261395Y0078715D03*
X0261395Y0078815D03*
X0261795Y0079415D03*
X0267995Y0077715D03*
X0267995Y0085015D03*
X0268095Y0085415D03*
X0269195Y0091415D03*
X0353695Y0072315D03*
X0368895Y0078015D03*
X0368995Y0078415D03*
X0368995Y0078515D03*
X0369095Y0078815D03*
X0369095Y0078915D03*
X0369195Y0079215D03*
X0369195Y0079315D03*
X0369195Y0079415D03*
X0369295Y0079615D03*
X0369295Y0079715D03*
X0369295Y0079815D03*
X0369295Y0079915D03*
X0369395Y0080115D03*
X0369395Y0080215D03*
X0369395Y0080315D03*
X0372595Y0080315D03*
X0372595Y0080215D03*
X0372595Y0080115D03*
X0372595Y0080015D03*
X0372695Y0079915D03*
X0372695Y0079815D03*
X0372695Y0079715D03*
X0372695Y0079615D03*
X0372795Y0079415D03*
X0372795Y0079315D03*
X0372795Y0079215D03*
X0372795Y0079115D03*
X0372895Y0078915D03*
X0372895Y0078815D03*
X0372895Y0078715D03*
X0372995Y0078515D03*
X0372995Y0078415D03*
X0372995Y0078315D03*
X0372995Y0078215D03*
X0373095Y0078015D03*
X0373095Y0077915D03*
X0373095Y0077815D03*
D97*
X0335245Y0078215D03*
X0316945Y0073915D03*
X0306945Y0084515D03*
X0294245Y0084615D03*
X0294245Y0084715D03*
X0278945Y0089215D03*
X0255345Y0092015D03*
X0255245Y0091915D03*
X0255445Y0072115D03*
X0255545Y0072015D03*
X0266445Y0072615D03*
X0277245Y0072015D03*
X0277345Y0072115D03*
X0277445Y0072315D03*
X0277845Y0072915D03*
D98*
X0273495Y0077415D03*
X0273595Y0077615D03*
X0273595Y0077715D03*
X0274495Y0083315D03*
X0274495Y0083415D03*
X0274595Y0083715D03*
X0269095Y0087515D03*
X0263895Y0091315D03*
X0264295Y0091515D03*
X0260695Y0077215D03*
X0260495Y0076915D03*
X0260595Y0076815D03*
X0260395Y0076515D03*
X0267795Y0076515D03*
X0266395Y0072015D03*
X0292295Y0072515D03*
X0292295Y0072615D03*
X0292295Y0072715D03*
X0292295Y0072815D03*
X0292295Y0072915D03*
X0292295Y0073015D03*
X0292295Y0073115D03*
X0292295Y0073215D03*
X0292295Y0073315D03*
X0292295Y0073415D03*
X0292295Y0073515D03*
X0292295Y0073615D03*
X0292295Y0073715D03*
X0292295Y0073815D03*
X0292295Y0073915D03*
X0292295Y0074015D03*
X0292295Y0074115D03*
X0292295Y0074215D03*
X0292295Y0074315D03*
X0292295Y0074415D03*
X0292295Y0074515D03*
X0292295Y0074615D03*
X0292295Y0074715D03*
X0292295Y0074815D03*
X0292295Y0074915D03*
X0292295Y0075015D03*
X0292295Y0075115D03*
X0292295Y0075215D03*
X0292295Y0075315D03*
X0292295Y0075415D03*
X0292295Y0075515D03*
X0292295Y0075615D03*
X0292295Y0075715D03*
X0292295Y0075815D03*
X0292295Y0075915D03*
X0292295Y0076015D03*
X0292295Y0076115D03*
X0292295Y0076215D03*
X0292295Y0076315D03*
X0292295Y0076415D03*
X0292295Y0076515D03*
X0292295Y0076615D03*
X0292295Y0076715D03*
X0292295Y0076815D03*
X0292295Y0076915D03*
X0292295Y0077015D03*
X0292295Y0077115D03*
X0292295Y0077215D03*
X0292295Y0077315D03*
X0292295Y0077415D03*
X0292295Y0077515D03*
X0292295Y0077615D03*
X0292295Y0077715D03*
X0292295Y0077815D03*
X0292295Y0077915D03*
X0292295Y0078015D03*
X0292295Y0078115D03*
X0292295Y0078215D03*
X0292295Y0078315D03*
X0292295Y0078415D03*
X0292295Y0078515D03*
X0292295Y0078615D03*
X0292295Y0078715D03*
X0292295Y0078815D03*
X0292295Y0078915D03*
X0292295Y0079015D03*
X0292295Y0079115D03*
X0292295Y0079215D03*
X0292295Y0079315D03*
X0292295Y0079415D03*
X0292295Y0079515D03*
X0292295Y0079615D03*
X0292295Y0079715D03*
X0292295Y0079815D03*
X0292295Y0079915D03*
X0292295Y0080015D03*
X0292295Y0080115D03*
X0292295Y0080215D03*
X0292295Y0080315D03*
X0292295Y0080415D03*
X0292295Y0080515D03*
X0292295Y0080615D03*
X0292295Y0080715D03*
X0292295Y0080815D03*
X0292295Y0080915D03*
X0292295Y0081015D03*
X0292295Y0081115D03*
X0292295Y0081215D03*
X0292295Y0081315D03*
X0292295Y0081415D03*
X0292295Y0081515D03*
X0292295Y0081615D03*
X0292295Y0081715D03*
X0292295Y0081815D03*
X0292295Y0081915D03*
X0292295Y0082015D03*
X0292295Y0082115D03*
X0292295Y0082215D03*
X0292295Y0082315D03*
X0292295Y0082415D03*
X0292295Y0082515D03*
X0292295Y0082615D03*
X0292295Y0082715D03*
X0292295Y0082815D03*
X0292295Y0082915D03*
X0292295Y0083015D03*
X0292295Y0083115D03*
X0292295Y0083215D03*
X0292295Y0083315D03*
X0292295Y0083415D03*
X0292295Y0083515D03*
X0292295Y0083615D03*
X0292295Y0083715D03*
X0292295Y0083815D03*
X0292295Y0083915D03*
X0292295Y0084015D03*
X0292295Y0084115D03*
X0292295Y0084215D03*
X0292295Y0084315D03*
X0292295Y0084415D03*
X0292295Y0084515D03*
X0300595Y0073415D03*
X0308895Y0073415D03*
X0308895Y0073315D03*
X0308895Y0073215D03*
X0308895Y0073115D03*
X0308895Y0073015D03*
X0308895Y0072915D03*
X0308895Y0072815D03*
X0308895Y0072715D03*
X0308895Y0072615D03*
X0308895Y0073515D03*
X0308895Y0073615D03*
X0308895Y0073715D03*
X0308895Y0073815D03*
X0308895Y0073915D03*
X0308895Y0074015D03*
X0308895Y0074115D03*
X0308895Y0074215D03*
X0308895Y0074315D03*
X0308895Y0074415D03*
X0308895Y0074515D03*
X0308895Y0074615D03*
X0308895Y0074715D03*
X0308895Y0074815D03*
X0308895Y0074915D03*
X0308895Y0075015D03*
X0308895Y0075115D03*
X0308895Y0075215D03*
X0308895Y0075315D03*
X0308895Y0075415D03*
X0308895Y0075515D03*
X0308895Y0075615D03*
X0308895Y0075715D03*
X0308895Y0075815D03*
X0308895Y0075915D03*
X0308895Y0076015D03*
X0308895Y0076115D03*
X0308895Y0076215D03*
X0308895Y0076315D03*
X0308895Y0076415D03*
X0308895Y0076515D03*
X0308895Y0076615D03*
X0308895Y0076715D03*
X0308895Y0076815D03*
X0308895Y0076915D03*
X0308895Y0077015D03*
X0308895Y0077115D03*
X0308895Y0077215D03*
X0308895Y0077315D03*
X0308895Y0077415D03*
X0308895Y0077515D03*
X0308895Y0077615D03*
X0308895Y0077715D03*
X0308895Y0077815D03*
X0308895Y0077915D03*
X0308895Y0078015D03*
X0308895Y0078115D03*
X0308895Y0078215D03*
X0308895Y0078315D03*
X0308895Y0078415D03*
X0308895Y0078515D03*
X0308895Y0078615D03*
X0308895Y0078715D03*
X0308895Y0078815D03*
X0308895Y0078915D03*
X0308895Y0079015D03*
X0308895Y0079115D03*
X0308895Y0079215D03*
X0308895Y0079315D03*
X0308895Y0079415D03*
X0308895Y0079515D03*
X0308895Y0079615D03*
X0308895Y0079715D03*
X0308895Y0079815D03*
X0308895Y0079915D03*
X0308895Y0080015D03*
X0308895Y0080115D03*
X0308895Y0080215D03*
X0308895Y0080315D03*
X0308895Y0080415D03*
X0308895Y0080515D03*
X0308895Y0080615D03*
X0308895Y0080715D03*
X0308895Y0080815D03*
X0308895Y0080915D03*
X0308895Y0081015D03*
X0308895Y0081115D03*
X0308895Y0081215D03*
X0308895Y0081315D03*
X0308895Y0081415D03*
X0308895Y0081515D03*
X0308895Y0081615D03*
X0308895Y0081715D03*
X0308895Y0081815D03*
X0308895Y0081915D03*
X0308895Y0082015D03*
X0308895Y0082115D03*
X0308895Y0082215D03*
X0308895Y0082315D03*
X0308895Y0082415D03*
X0308895Y0082515D03*
X0308895Y0082615D03*
X0308895Y0082715D03*
X0308895Y0082815D03*
X0308895Y0082915D03*
X0308895Y0083015D03*
X0308895Y0083115D03*
X0308895Y0083215D03*
X0308895Y0083315D03*
X0308895Y0083415D03*
X0308895Y0083515D03*
X0308895Y0083615D03*
X0308895Y0083715D03*
X0308895Y0083815D03*
X0308895Y0083915D03*
X0308895Y0084015D03*
X0308895Y0084115D03*
X0308895Y0084215D03*
X0308895Y0084315D03*
X0314695Y0082715D03*
X0322895Y0081715D03*
X0322895Y0081615D03*
X0322895Y0081515D03*
X0322895Y0081415D03*
X0322895Y0081315D03*
X0322895Y0081215D03*
X0322895Y0081115D03*
X0322895Y0081015D03*
X0322895Y0080915D03*
X0322895Y0080815D03*
X0322895Y0080715D03*
X0322895Y0078315D03*
X0322895Y0078215D03*
X0322895Y0078115D03*
X0322895Y0078015D03*
X0322895Y0077915D03*
X0322895Y0077815D03*
X0322895Y0077715D03*
X0322895Y0077615D03*
X0322895Y0077515D03*
X0322895Y0077415D03*
X0322895Y0077315D03*
X0322895Y0077215D03*
X0322895Y0077115D03*
X0322895Y0077015D03*
X0322895Y0076915D03*
X0322895Y0076815D03*
X0322895Y0076715D03*
X0322895Y0076615D03*
X0322895Y0076515D03*
X0322895Y0076415D03*
X0322895Y0076315D03*
X0322895Y0076215D03*
X0323195Y0074015D03*
X0323195Y0073915D03*
X0323195Y0073815D03*
X0323295Y0073715D03*
X0323295Y0073615D03*
X0323295Y0073515D03*
X0323395Y0073415D03*
X0323395Y0073315D03*
X0323395Y0073215D03*
X0323495Y0073115D03*
X0323495Y0073015D03*
X0323595Y0072815D03*
X0323695Y0072615D03*
X0333095Y0086415D03*
X0353695Y0072415D03*
X0370995Y0084815D03*
X0370995Y0084915D03*
X0370995Y0085015D03*
D99*
X0370995Y0082915D03*
X0370995Y0082815D03*
X0370995Y0082715D03*
X0370995Y0082615D03*
X0357395Y0075715D03*
X0357395Y0075515D03*
X0349995Y0075515D03*
X0349895Y0075715D03*
X0350195Y0083615D03*
X0353695Y0086215D03*
X0336895Y0075415D03*
X0328895Y0075415D03*
X0328795Y0075515D03*
X0328995Y0081815D03*
X0314795Y0075515D03*
X0300595Y0074815D03*
X0300595Y0074715D03*
X0274195Y0081115D03*
X0269795Y0089015D03*
X0270095Y0089615D03*
X0262695Y0090215D03*
X0259095Y0084915D03*
X0258995Y0084515D03*
X0258795Y0084215D03*
X0266395Y0072115D03*
D100*
X0268145Y0074315D03*
X0255345Y0072215D03*
X0255245Y0072315D03*
X0255145Y0072415D03*
X0278945Y0089415D03*
X0294145Y0085215D03*
X0294145Y0085115D03*
X0300645Y0078315D03*
X0307045Y0084915D03*
X0307045Y0085015D03*
X0307045Y0085115D03*
X0316945Y0073815D03*
X0332845Y0072815D03*
X0255145Y0091815D03*
X0255045Y0091715D03*
X0254945Y0091615D03*
D101*
X0260695Y0087815D03*
X0260695Y0087615D03*
X0260495Y0087515D03*
X0260895Y0087915D03*
X0260895Y0088115D03*
X0261095Y0088215D03*
X0261895Y0089415D03*
X0251595Y0085015D03*
X0251595Y0084915D03*
X0251595Y0084815D03*
X0251595Y0084715D03*
X0251495Y0084515D03*
X0251495Y0084415D03*
X0251395Y0083815D03*
X0251395Y0083715D03*
X0251395Y0080515D03*
X0251495Y0079815D03*
X0251495Y0079715D03*
X0251595Y0079415D03*
X0251595Y0079315D03*
X0251595Y0079215D03*
X0251595Y0079115D03*
X0251695Y0078915D03*
X0251695Y0078815D03*
X0266395Y0072215D03*
X0280995Y0078415D03*
X0281095Y0078815D03*
X0281195Y0079115D03*
X0281195Y0079215D03*
X0281195Y0079315D03*
X0281295Y0079615D03*
X0281295Y0079715D03*
X0281395Y0081915D03*
X0281395Y0082015D03*
X0281395Y0082115D03*
X0281395Y0082215D03*
X0281395Y0082315D03*
X0281395Y0083815D03*
X0281395Y0083915D03*
X0281295Y0084415D03*
X0281295Y0084515D03*
X0281295Y0084615D03*
X0281195Y0084815D03*
X0281195Y0084915D03*
X0281195Y0085015D03*
X0278795Y0091515D03*
X0278795Y0091615D03*
X0278695Y0091715D03*
X0293195Y0090315D03*
X0293195Y0090215D03*
X0293195Y0090115D03*
X0307995Y0090115D03*
X0307995Y0090015D03*
X0307995Y0090215D03*
X0300595Y0075815D03*
X0322095Y0075415D03*
X0366695Y0073815D03*
X0370995Y0080915D03*
X0370995Y0081015D03*
X0370995Y0081115D03*
X0370995Y0081215D03*
X0375295Y0073915D03*
X0375295Y0073815D03*
X0375295Y0073715D03*
D102*
X0332795Y0072215D03*
X0328995Y0076715D03*
X0268095Y0077815D03*
X0261595Y0079215D03*
X0257695Y0080915D03*
X0257695Y0081115D03*
X0257495Y0080615D03*
X0267895Y0084915D03*
X0260595Y0074815D03*
X0260695Y0074715D03*
D103*
X0261595Y0073315D03*
X0261895Y0073115D03*
X0256895Y0074015D03*
X0257195Y0079015D03*
X0263495Y0083415D03*
X0266095Y0081115D03*
X0265995Y0080915D03*
X0265795Y0080615D03*
X0269395Y0081115D03*
X0274595Y0087415D03*
X0274595Y0087715D03*
X0335995Y0082115D03*
X0353695Y0075315D03*
X0353695Y0072215D03*
D104*
X0336295Y0077815D03*
X0353695Y0086015D03*
X0375295Y0074715D03*
X0318695Y0086115D03*
X0307795Y0088915D03*
X0307795Y0089015D03*
X0307795Y0089115D03*
X0293395Y0089115D03*
X0293395Y0089215D03*
X0280695Y0086615D03*
X0280595Y0086915D03*
X0280495Y0087415D03*
X0280395Y0087615D03*
X0280295Y0087815D03*
X0278995Y0090915D03*
X0278895Y0091015D03*
X0278895Y0091115D03*
X0278195Y0092215D03*
X0266395Y0099915D03*
X0252495Y0087815D03*
X0252395Y0087615D03*
X0252295Y0087115D03*
X0252095Y0086615D03*
X0252095Y0077715D03*
X0252595Y0076115D03*
X0266395Y0072315D03*
X0267895Y0075115D03*
X0280195Y0076115D03*
X0280195Y0076215D03*
X0280295Y0076315D03*
X0280395Y0076815D03*
X0280495Y0077015D03*
X0300595Y0076415D03*
X0300595Y0076315D03*
X0316895Y0073115D03*
D105*
X0316845Y0072315D03*
X0319445Y0080715D03*
X0274745Y0086215D03*
X0274645Y0086115D03*
X0274645Y0086015D03*
X0274645Y0086415D03*
X0267345Y0083815D03*
X0267145Y0083515D03*
X0262145Y0080415D03*
X0257545Y0080315D03*
X0268545Y0078815D03*
X0268545Y0078715D03*
X0260845Y0074315D03*
X0260745Y0074415D03*
D106*
X0267745Y0076415D03*
X0274445Y0082715D03*
X0274445Y0082815D03*
X0274545Y0083015D03*
X0274545Y0083115D03*
X0269045Y0087315D03*
X0269245Y0087715D03*
X0269145Y0087815D03*
X0263845Y0091215D03*
X0263645Y0091115D03*
X0263545Y0091015D03*
X0258445Y0083415D03*
X0300645Y0073815D03*
X0314345Y0076215D03*
X0314345Y0076315D03*
X0314345Y0076415D03*
X0314345Y0076515D03*
X0314345Y0076615D03*
X0314345Y0076715D03*
X0314345Y0076815D03*
X0314345Y0076915D03*
X0314445Y0077215D03*
X0314445Y0077315D03*
X0314545Y0077515D03*
X0322745Y0075915D03*
X0328245Y0076515D03*
X0328245Y0076615D03*
X0332845Y0072315D03*
X0348845Y0078715D03*
X0348845Y0078815D03*
X0348845Y0078915D03*
X0348845Y0079015D03*
X0348845Y0079115D03*
X0348845Y0079915D03*
X0348845Y0080015D03*
X0348845Y0080115D03*
X0348845Y0080215D03*
X0348845Y0080315D03*
X0348945Y0080815D03*
X0349045Y0081415D03*
X0349045Y0081515D03*
X0349145Y0081815D03*
X0349245Y0082115D03*
X0358145Y0082115D03*
X0358245Y0081815D03*
X0358345Y0081315D03*
X0358445Y0081015D03*
X0358445Y0080915D03*
X0358545Y0079915D03*
X0358545Y0079815D03*
X0358545Y0079715D03*
X0358545Y0079615D03*
X0358545Y0079515D03*
X0358545Y0079415D03*
X0358545Y0079315D03*
X0358545Y0079215D03*
X0358545Y0079115D03*
X0358445Y0078015D03*
X0364545Y0079415D03*
X0364545Y0079515D03*
X0364545Y0079615D03*
X0364445Y0079815D03*
X0364445Y0079915D03*
X0364445Y0080015D03*
X0364445Y0080115D03*
X0364345Y0080215D03*
X0364345Y0080315D03*
X0364345Y0080415D03*
X0364345Y0080515D03*
X0364245Y0080715D03*
X0364245Y0080815D03*
X0364245Y0080915D03*
X0364145Y0081115D03*
X0364145Y0081215D03*
X0364145Y0081315D03*
X0364045Y0081615D03*
X0364045Y0081715D03*
X0363945Y0082015D03*
X0363945Y0082115D03*
X0363845Y0082415D03*
X0363845Y0082515D03*
X0363745Y0082915D03*
X0363745Y0083015D03*
X0363645Y0083315D03*
X0363645Y0083415D03*
X0363545Y0083815D03*
X0363445Y0084215D03*
X0363145Y0085515D03*
X0371045Y0084315D03*
X0378145Y0082615D03*
X0378145Y0082515D03*
X0378145Y0082415D03*
X0378045Y0082115D03*
X0378045Y0082015D03*
X0377945Y0081715D03*
X0377945Y0081615D03*
X0377845Y0081315D03*
X0377845Y0081215D03*
X0377845Y0081115D03*
X0377745Y0080915D03*
X0377745Y0080815D03*
X0377745Y0080715D03*
X0377645Y0080515D03*
X0377645Y0080415D03*
X0377645Y0080315D03*
X0377545Y0080115D03*
X0377545Y0080015D03*
X0377545Y0079915D03*
X0377445Y0079715D03*
X0377445Y0079615D03*
X0377445Y0079515D03*
X0377345Y0079215D03*
X0377345Y0079115D03*
X0377245Y0078815D03*
X0377245Y0078715D03*
X0377245Y0078615D03*
X0377145Y0078415D03*
X0377145Y0078315D03*
X0377145Y0078215D03*
X0377045Y0078015D03*
X0377045Y0077915D03*
X0377045Y0077815D03*
X0378245Y0082815D03*
X0378245Y0082915D03*
X0378245Y0083015D03*
X0378345Y0083315D03*
X0378345Y0083415D03*
X0378445Y0083715D03*
X0378445Y0083815D03*
X0378545Y0084115D03*
X0378545Y0084215D03*
X0378645Y0084515D03*
X0378645Y0084615D03*
X0378745Y0084915D03*
X0378745Y0085015D03*
X0378745Y0085115D03*
X0378845Y0085415D03*
X0378845Y0085515D03*
X0378945Y0085815D03*
X0378945Y0085915D03*
X0379045Y0086215D03*
X0364645Y0079215D03*
X0364645Y0079115D03*
X0364645Y0079015D03*
X0364645Y0078915D03*
X0364745Y0078815D03*
X0364745Y0078715D03*
X0364745Y0078615D03*
X0364745Y0078515D03*
X0364845Y0078415D03*
X0364845Y0078315D03*
X0364845Y0078215D03*
X0364845Y0078115D03*
X0364945Y0077915D03*
X0364945Y0077815D03*
X0364945Y0077715D03*
X0337445Y0082615D03*
X0337445Y0082715D03*
X0322745Y0082615D03*
D107*
X0307445Y0087115D03*
X0307445Y0087215D03*
X0293745Y0087215D03*
X0293745Y0087315D03*
X0293745Y0087415D03*
X0278945Y0090215D03*
X0253845Y0090215D03*
X0253745Y0090115D03*
X0252745Y0076815D03*
X0252745Y0076615D03*
X0253945Y0073815D03*
X0254045Y0073715D03*
X0266445Y0072415D03*
X0267945Y0074615D03*
X0267845Y0074715D03*
X0279045Y0074215D03*
X0300645Y0077315D03*
X0353645Y0072915D03*
X0366645Y0076215D03*
X0366645Y0076315D03*
X0375345Y0076315D03*
X0375345Y0076215D03*
X0375345Y0076115D03*
D108*
X0353695Y0085615D03*
X0330695Y0080915D03*
X0306995Y0084615D03*
X0306995Y0084715D03*
X0306995Y0084815D03*
X0294195Y0084815D03*
X0294195Y0084915D03*
X0294195Y0085015D03*
X0278895Y0089515D03*
X0254895Y0091415D03*
X0277795Y0072815D03*
X0277695Y0072615D03*
X0277695Y0072515D03*
X0277595Y0072415D03*
D109*
X0273545Y0076715D03*
X0268145Y0077615D03*
X0268045Y0077515D03*
X0261545Y0078915D03*
X0261345Y0078615D03*
X0261245Y0078415D03*
X0257645Y0081315D03*
X0267945Y0085215D03*
X0268145Y0085515D03*
X0269345Y0091315D03*
X0274645Y0085415D03*
X0316845Y0072415D03*
X0368845Y0077715D03*
X0368845Y0077815D03*
X0368845Y0077915D03*
X0368945Y0078115D03*
X0368945Y0078215D03*
X0368945Y0078315D03*
X0369045Y0078615D03*
X0369045Y0078715D03*
X0369145Y0079015D03*
X0369145Y0079115D03*
X0369245Y0079515D03*
X0369345Y0080015D03*
X0372745Y0079515D03*
X0372845Y0079015D03*
X0372945Y0078615D03*
X0373045Y0078115D03*
D110*
X0375345Y0077615D03*
X0366645Y0077615D03*
X0335545Y0078115D03*
X0307145Y0085415D03*
X0307145Y0085515D03*
X0307145Y0085615D03*
X0300645Y0078115D03*
X0294045Y0085615D03*
X0294045Y0085715D03*
X0294045Y0085815D03*
X0278945Y0089615D03*
X0252845Y0077415D03*
X0254845Y0072715D03*
X0254945Y0072615D03*
X0255045Y0072515D03*
D111*
X0260545Y0075115D03*
X0261145Y0078215D03*
X0261345Y0078515D03*
X0257845Y0081515D03*
X0257845Y0081715D03*
X0267945Y0077415D03*
X0267945Y0077215D03*
X0273545Y0076615D03*
X0274545Y0084915D03*
X0274745Y0085015D03*
X0268445Y0086115D03*
X0268345Y0085915D03*
X0268145Y0085615D03*
X0269445Y0091215D03*
X0300645Y0072515D03*
D112*
X0300645Y0073315D03*
X0308945Y0072515D03*
X0323545Y0072915D03*
X0323645Y0072715D03*
X0323745Y0072515D03*
X0314645Y0082515D03*
X0314645Y0082615D03*
X0318545Y0086415D03*
X0308945Y0084415D03*
X0337345Y0082315D03*
X0371045Y0085115D03*
X0371045Y0085215D03*
X0273645Y0077315D03*
X0267845Y0076615D03*
X0260445Y0076715D03*
X0260245Y0075815D03*
X0260345Y0075515D03*
X0258145Y0082415D03*
X0258145Y0082615D03*
X0268645Y0086815D03*
X0268745Y0086915D03*
X0268945Y0087215D03*
X0269045Y0087415D03*
X0264045Y0091415D03*
D113*
X0268895Y0087115D03*
X0268795Y0086715D03*
X0274495Y0084115D03*
X0260595Y0077015D03*
X0260295Y0075715D03*
X0258095Y0082515D03*
X0296395Y0084315D03*
X0296395Y0084415D03*
X0296495Y0084215D03*
X0296495Y0084115D03*
X0296595Y0083915D03*
X0296595Y0083815D03*
X0296695Y0083615D03*
X0296695Y0083515D03*
X0296795Y0083415D03*
X0296795Y0083315D03*
X0296895Y0083115D03*
X0296895Y0083015D03*
X0296995Y0082815D03*
X0296995Y0082715D03*
X0297095Y0082515D03*
X0297195Y0082315D03*
X0297195Y0082215D03*
X0297295Y0082015D03*
X0297295Y0081915D03*
X0297395Y0081715D03*
X0297495Y0081515D03*
X0297495Y0081415D03*
X0297595Y0081215D03*
X0297595Y0081115D03*
X0297695Y0080915D03*
X0297795Y0080715D03*
X0297795Y0080615D03*
X0297895Y0080415D03*
X0297895Y0080315D03*
X0297995Y0080115D03*
X0298095Y0079915D03*
X0298095Y0079815D03*
X0298195Y0079615D03*
X0298195Y0079515D03*
X0298295Y0079315D03*
X0298395Y0079115D03*
X0298395Y0079015D03*
X0298495Y0078815D03*
X0298495Y0078715D03*
X0298595Y0078515D03*
X0302595Y0078415D03*
X0302695Y0078615D03*
X0302695Y0078715D03*
X0302795Y0078915D03*
X0302895Y0079115D03*
X0302895Y0079215D03*
X0302995Y0079415D03*
X0302995Y0079515D03*
X0303095Y0079715D03*
X0303195Y0079915D03*
X0303195Y0080015D03*
X0303295Y0080215D03*
X0303295Y0080315D03*
X0303395Y0080515D03*
X0303495Y0080715D03*
X0303495Y0080815D03*
X0303595Y0081015D03*
X0303595Y0081115D03*
X0303695Y0081315D03*
X0303795Y0081515D03*
X0303795Y0081615D03*
X0303895Y0081815D03*
X0303895Y0081915D03*
X0303995Y0082015D03*
X0303995Y0082115D03*
X0304095Y0082315D03*
X0304095Y0082415D03*
X0304195Y0082615D03*
X0304195Y0082715D03*
X0304295Y0082915D03*
X0304395Y0083115D03*
X0304395Y0083215D03*
X0304495Y0083415D03*
X0304495Y0083515D03*
X0304595Y0083615D03*
X0304595Y0083715D03*
X0304695Y0083915D03*
X0304695Y0084015D03*
X0304795Y0084215D03*
X0304795Y0084315D03*
X0314595Y0082415D03*
X0314595Y0082315D03*
X0300595Y0073215D03*
X0300595Y0073115D03*
X0316895Y0072515D03*
X0370995Y0085315D03*
X0370995Y0085415D03*
D114*
X0370995Y0080815D03*
X0370995Y0080715D03*
X0370995Y0080615D03*
X0370995Y0080515D03*
X0375295Y0074215D03*
X0366695Y0074215D03*
X0353695Y0072715D03*
X0336495Y0077715D03*
X0332795Y0072515D03*
X0316895Y0073015D03*
X0300595Y0076115D03*
X0281095Y0079015D03*
X0280995Y0078715D03*
X0280995Y0078615D03*
X0280895Y0078315D03*
X0280795Y0077615D03*
X0280695Y0077415D03*
X0280695Y0077315D03*
X0280595Y0077115D03*
X0281295Y0080415D03*
X0281195Y0084715D03*
X0281095Y0085115D03*
X0281095Y0085215D03*
X0280995Y0085415D03*
X0280995Y0085515D03*
X0280895Y0086215D03*
X0280895Y0086315D03*
X0280795Y0086515D03*
X0280695Y0086815D03*
X0278795Y0091415D03*
X0278395Y0092115D03*
X0266395Y0091915D03*
X0252095Y0086815D03*
X0252095Y0086715D03*
X0251995Y0086515D03*
X0251995Y0086415D03*
X0251895Y0086215D03*
X0251795Y0085515D03*
X0251795Y0085415D03*
X0251695Y0085115D03*
X0251595Y0084615D03*
X0251595Y0084315D03*
X0251695Y0079015D03*
X0251795Y0078715D03*
X0251895Y0078415D03*
X0251995Y0077915D03*
X0252595Y0075915D03*
X0267895Y0075215D03*
X0293295Y0089615D03*
X0293295Y0089715D03*
X0293295Y0089815D03*
X0307895Y0089615D03*
X0307895Y0089515D03*
D115*
X0314745Y0082815D03*
X0322845Y0082215D03*
X0322845Y0082115D03*
X0322845Y0082015D03*
X0322845Y0081915D03*
X0322845Y0081815D03*
X0322845Y0076115D03*
X0343145Y0072515D03*
X0371045Y0084715D03*
X0300645Y0073615D03*
X0300645Y0073515D03*
X0273645Y0077515D03*
X0273645Y0077815D03*
X0273645Y0077915D03*
X0274445Y0083515D03*
X0274645Y0083615D03*
X0274545Y0083815D03*
X0268845Y0087015D03*
X0269145Y0087615D03*
X0269745Y0090815D03*
X0258345Y0083115D03*
X0258145Y0082815D03*
X0258245Y0082715D03*
X0260345Y0076615D03*
X0260245Y0076215D03*
X0260145Y0075915D03*
X0267845Y0076715D03*
D116*
X0273795Y0079215D03*
X0273795Y0079315D03*
X0273995Y0079415D03*
X0273995Y0080015D03*
X0274295Y0081215D03*
X0274295Y0081315D03*
X0274195Y0081515D03*
X0269895Y0089215D03*
X0262995Y0090515D03*
X0258895Y0084415D03*
X0300595Y0074515D03*
X0314695Y0075615D03*
X0314895Y0078015D03*
X0315195Y0083315D03*
X0322595Y0075715D03*
X0328695Y0075615D03*
X0328895Y0082015D03*
X0329095Y0083515D03*
X0329195Y0083615D03*
X0336995Y0083515D03*
X0337195Y0077015D03*
X0337095Y0075615D03*
X0349695Y0076015D03*
X0353695Y0072515D03*
X0357595Y0075915D03*
X0357695Y0076015D03*
X0357495Y0083215D03*
X0357395Y0083415D03*
X0357295Y0083515D03*
X0349995Y0083415D03*
X0349995Y0083315D03*
X0370995Y0083315D03*
X0370995Y0083215D03*
X0370995Y0083115D03*
X0316895Y0072715D03*
D117*
X0300595Y0072615D03*
X0273595Y0076815D03*
X0267895Y0077115D03*
X0261195Y0078115D03*
X0260995Y0077915D03*
X0260995Y0077815D03*
X0257895Y0081915D03*
X0268495Y0086215D03*
X0274595Y0084515D03*
X0274595Y0084415D03*
X0274695Y0084715D03*
X0266395Y0092215D03*
X0264795Y0091815D03*
X0264595Y0091715D03*
X0260395Y0075315D03*
X0353695Y0086415D03*
X0370995Y0086215D03*
D118*
X0370995Y0084215D03*
X0370995Y0084115D03*
X0370995Y0084015D03*
X0363795Y0082815D03*
X0363795Y0082715D03*
X0363795Y0082615D03*
X0363895Y0082315D03*
X0363895Y0082215D03*
X0363995Y0081915D03*
X0363995Y0081815D03*
X0364095Y0081515D03*
X0364095Y0081415D03*
X0364195Y0081015D03*
X0364295Y0080615D03*
X0364495Y0079715D03*
X0364595Y0079315D03*
X0363695Y0083115D03*
X0363695Y0083215D03*
X0363595Y0083515D03*
X0363595Y0083615D03*
X0363595Y0083715D03*
X0363495Y0083915D03*
X0363495Y0084015D03*
X0363495Y0084115D03*
X0363395Y0084315D03*
X0363395Y0084415D03*
X0363395Y0084515D03*
X0363395Y0084615D03*
X0363295Y0084715D03*
X0363295Y0084815D03*
X0363295Y0084915D03*
X0363295Y0085015D03*
X0363195Y0085115D03*
X0363195Y0085215D03*
X0363195Y0085315D03*
X0363195Y0085415D03*
X0363095Y0085615D03*
X0363095Y0085715D03*
X0363095Y0085815D03*
X0363095Y0085915D03*
X0362995Y0086015D03*
X0362995Y0086115D03*
X0362995Y0086215D03*
X0357995Y0082515D03*
X0358095Y0082215D03*
X0358195Y0082015D03*
X0358295Y0081715D03*
X0358395Y0081215D03*
X0358495Y0078115D03*
X0358395Y0077715D03*
X0358295Y0077315D03*
X0358295Y0077215D03*
X0358195Y0077015D03*
X0358195Y0076915D03*
X0349195Y0076915D03*
X0349095Y0077115D03*
X0349095Y0077215D03*
X0348995Y0077615D03*
X0348895Y0078215D03*
X0348895Y0078315D03*
X0348895Y0080715D03*
X0349295Y0082315D03*
X0349395Y0082515D03*
X0349495Y0082715D03*
X0353695Y0086315D03*
X0337395Y0082915D03*
X0337395Y0082815D03*
X0337295Y0083015D03*
X0328295Y0076415D03*
X0328295Y0076315D03*
X0322695Y0082715D03*
X0314995Y0083115D03*
X0314595Y0077615D03*
X0314495Y0077415D03*
X0314395Y0076115D03*
X0314395Y0076015D03*
X0316895Y0072615D03*
X0300595Y0073915D03*
X0300595Y0074015D03*
X0273695Y0078315D03*
X0273695Y0078415D03*
X0273595Y0078115D03*
X0274395Y0082315D03*
X0274395Y0082415D03*
X0274395Y0082515D03*
X0269395Y0088015D03*
X0269295Y0088115D03*
X0269495Y0088315D03*
X0269495Y0088415D03*
X0269995Y0090515D03*
X0269895Y0090615D03*
X0258495Y0083315D03*
X0258295Y0083015D03*
X0260295Y0076315D03*
X0377095Y0078115D03*
X0377195Y0078515D03*
X0377295Y0078915D03*
X0377295Y0079015D03*
X0377395Y0079315D03*
X0377395Y0079415D03*
X0377495Y0079815D03*
X0377595Y0080215D03*
X0377695Y0080615D03*
X0377795Y0081015D03*
X0377895Y0081415D03*
X0377895Y0081515D03*
X0377995Y0081815D03*
X0377995Y0081915D03*
X0378095Y0082215D03*
X0378095Y0082315D03*
X0378195Y0082715D03*
X0378295Y0083115D03*
X0378295Y0083215D03*
X0378395Y0083515D03*
X0378395Y0083615D03*
X0378495Y0083915D03*
X0378495Y0084015D03*
X0378595Y0084315D03*
X0378595Y0084415D03*
X0378695Y0084715D03*
X0378695Y0084815D03*
X0378795Y0085215D03*
X0378795Y0085315D03*
X0378895Y0085615D03*
X0378895Y0085715D03*
X0378995Y0086015D03*
X0378995Y0086115D03*
D119*
X0375345Y0075915D03*
X0375345Y0075815D03*
X0375345Y0075715D03*
X0375345Y0075615D03*
X0366645Y0075715D03*
X0366645Y0075815D03*
X0366645Y0075915D03*
X0332845Y0072615D03*
X0330045Y0081115D03*
X0318645Y0086015D03*
X0307545Y0087615D03*
X0307545Y0087715D03*
X0307545Y0087815D03*
X0293645Y0087815D03*
X0293645Y0087715D03*
X0293645Y0087915D03*
X0279645Y0089015D03*
X0278945Y0090415D03*
X0300645Y0077015D03*
X0279345Y0074715D03*
X0279245Y0074415D03*
X0253145Y0089015D03*
X0253245Y0089315D03*
X0253345Y0089515D03*
X0253445Y0089615D03*
D120*
X0258395Y0083215D03*
X0258195Y0082915D03*
X0260395Y0076415D03*
X0260195Y0076115D03*
X0260295Y0076015D03*
X0267795Y0076315D03*
X0274395Y0083215D03*
X0269295Y0087915D03*
X0269795Y0090715D03*
X0300595Y0073715D03*
X0314395Y0077015D03*
X0314395Y0077115D03*
X0322795Y0076015D03*
X0322795Y0082315D03*
X0322795Y0082415D03*
X0322795Y0082515D03*
X0314895Y0083015D03*
X0314795Y0082915D03*
X0337495Y0082515D03*
X0337495Y0082415D03*
X0343095Y0082415D03*
X0343095Y0082315D03*
X0343095Y0082215D03*
X0343095Y0082115D03*
X0343095Y0082015D03*
X0343095Y0081915D03*
X0343095Y0081815D03*
X0343095Y0081715D03*
X0343095Y0081615D03*
X0343095Y0081515D03*
X0343095Y0081415D03*
X0343095Y0081315D03*
X0343095Y0081215D03*
X0343095Y0081115D03*
X0343095Y0081015D03*
X0343095Y0080915D03*
X0343095Y0080815D03*
X0343095Y0080715D03*
X0343095Y0080615D03*
X0343095Y0080515D03*
X0343095Y0080415D03*
X0343095Y0080315D03*
X0343095Y0080215D03*
X0343095Y0080115D03*
X0343095Y0080015D03*
X0343095Y0079915D03*
X0343095Y0079815D03*
X0343095Y0079715D03*
X0343095Y0079615D03*
X0343095Y0079515D03*
X0343095Y0079415D03*
X0343095Y0079315D03*
X0343095Y0079215D03*
X0343095Y0079115D03*
X0343095Y0079015D03*
X0343095Y0078915D03*
X0343095Y0078815D03*
X0343095Y0078715D03*
X0343095Y0078615D03*
X0343095Y0078515D03*
X0343095Y0078415D03*
X0343095Y0078315D03*
X0343095Y0078215D03*
X0343095Y0078115D03*
X0343095Y0078015D03*
X0343095Y0077915D03*
X0343095Y0077815D03*
X0343095Y0077715D03*
X0343095Y0077615D03*
X0343095Y0077515D03*
X0343095Y0077415D03*
X0343095Y0077315D03*
X0343095Y0077215D03*
X0343095Y0077115D03*
X0343095Y0077015D03*
X0343095Y0076915D03*
X0343095Y0076815D03*
X0343095Y0076715D03*
X0343095Y0076615D03*
X0343095Y0076515D03*
X0343095Y0076415D03*
X0343095Y0076315D03*
X0343095Y0076215D03*
X0343095Y0076115D03*
X0343095Y0076015D03*
X0343095Y0075915D03*
X0343095Y0075815D03*
X0343095Y0075715D03*
X0343095Y0075615D03*
X0343095Y0075515D03*
X0343095Y0075415D03*
X0343095Y0075315D03*
X0343095Y0075215D03*
X0343095Y0075115D03*
X0343095Y0075015D03*
X0343095Y0074915D03*
X0343095Y0074815D03*
X0343095Y0074715D03*
X0343095Y0074615D03*
X0343095Y0074515D03*
X0343095Y0074415D03*
X0343095Y0074315D03*
X0343095Y0074215D03*
X0343095Y0074115D03*
X0343095Y0074015D03*
X0343095Y0073915D03*
X0343095Y0073815D03*
X0343095Y0073715D03*
X0343095Y0073615D03*
X0343095Y0073515D03*
X0343095Y0073415D03*
X0343095Y0073315D03*
X0343095Y0073215D03*
X0343095Y0073115D03*
X0343095Y0073015D03*
X0343095Y0072915D03*
X0343095Y0072815D03*
X0343095Y0072715D03*
X0343095Y0072615D03*
X0343095Y0082515D03*
X0343095Y0082615D03*
X0343095Y0082715D03*
X0343095Y0082815D03*
X0343095Y0082915D03*
X0343095Y0083015D03*
X0343095Y0083115D03*
X0343095Y0083215D03*
X0343095Y0083315D03*
X0343095Y0083415D03*
X0343095Y0083515D03*
X0343095Y0083615D03*
X0343095Y0083715D03*
X0343095Y0083815D03*
X0343095Y0083915D03*
X0343095Y0084015D03*
X0343095Y0084115D03*
X0343095Y0084215D03*
X0343095Y0084315D03*
X0343095Y0084415D03*
X0343095Y0084515D03*
X0343095Y0084615D03*
X0343095Y0084715D03*
X0343095Y0084815D03*
X0343095Y0084915D03*
X0343095Y0085015D03*
X0343095Y0085115D03*
X0343095Y0085215D03*
X0343095Y0085315D03*
X0343095Y0085415D03*
X0343095Y0085515D03*
X0343095Y0085615D03*
X0343095Y0085715D03*
X0343095Y0085815D03*
X0343095Y0085915D03*
X0343095Y0086015D03*
X0343095Y0086115D03*
X0343095Y0086215D03*
X0343095Y0086315D03*
X0343095Y0086415D03*
X0343095Y0086515D03*
X0343095Y0086615D03*
X0343095Y0086715D03*
X0343095Y0086815D03*
X0343095Y0086915D03*
X0343095Y0087015D03*
X0343095Y0087115D03*
X0343095Y0087215D03*
X0343095Y0087315D03*
X0343095Y0087415D03*
X0343095Y0087515D03*
X0343095Y0087615D03*
X0343095Y0087715D03*
X0343095Y0087815D03*
X0343095Y0087915D03*
X0343095Y0088015D03*
X0343095Y0088115D03*
X0343095Y0088215D03*
X0343095Y0088315D03*
X0343095Y0088415D03*
X0343095Y0088515D03*
X0343095Y0088615D03*
X0343095Y0088715D03*
X0343095Y0088815D03*
X0343095Y0088915D03*
X0343095Y0089015D03*
X0343095Y0089115D03*
X0343095Y0089215D03*
X0343095Y0089315D03*
X0343095Y0089415D03*
X0343095Y0089515D03*
X0343095Y0089615D03*
X0343095Y0089715D03*
X0343095Y0089815D03*
X0343095Y0089915D03*
X0343095Y0090015D03*
X0343095Y0090115D03*
X0343095Y0090215D03*
X0343095Y0090315D03*
X0343095Y0090415D03*
X0343095Y0090515D03*
X0343095Y0090615D03*
X0343095Y0090715D03*
X0343095Y0090815D03*
X0343095Y0090915D03*
X0343095Y0091015D03*
X0343095Y0091115D03*
X0343095Y0091215D03*
X0343095Y0091315D03*
X0343095Y0091415D03*
X0343095Y0091515D03*
X0364895Y0078015D03*
X0370995Y0084415D03*
X0370995Y0084515D03*
X0370995Y0084615D03*
D121*
X0370995Y0082115D03*
X0370995Y0082015D03*
X0370995Y0081915D03*
X0370995Y0081815D03*
X0356795Y0083815D03*
X0350595Y0083815D03*
X0336495Y0083815D03*
X0329595Y0083815D03*
X0336895Y0077415D03*
X0322295Y0075515D03*
X0308195Y0091115D03*
X0308195Y0091215D03*
X0292995Y0091215D03*
X0292995Y0091315D03*
X0292995Y0091415D03*
X0262295Y0089715D03*
X0261795Y0089215D03*
X0259895Y0086415D03*
X0259795Y0086215D03*
X0259595Y0085715D03*
X0259395Y0085615D03*
X0252495Y0075315D03*
X0252595Y0075215D03*
X0300595Y0075315D03*
X0353695Y0072615D03*
X0366695Y0072815D03*
X0366695Y0072915D03*
X0366695Y0073015D03*
X0375295Y0073015D03*
X0375295Y0072915D03*
X0375295Y0072815D03*
X0375295Y0072715D03*
D122*
X0371045Y0086015D03*
X0371045Y0086115D03*
X0300645Y0072815D03*
X0300645Y0072715D03*
X0273545Y0077015D03*
X0273445Y0076915D03*
X0261145Y0078015D03*
X0260845Y0077515D03*
X0260545Y0075215D03*
X0257945Y0081815D03*
X0257945Y0082015D03*
X0268245Y0085715D03*
X0268545Y0086315D03*
X0268545Y0086415D03*
X0274545Y0084615D03*
D123*
X0278895Y0090115D03*
X0293895Y0086615D03*
X0293895Y0086515D03*
X0293895Y0086415D03*
X0300595Y0077715D03*
X0307295Y0086315D03*
X0307295Y0086415D03*
X0318695Y0085915D03*
X0316895Y0073515D03*
X0332795Y0072715D03*
X0353695Y0073015D03*
X0366595Y0076815D03*
X0366595Y0076915D03*
X0366595Y0077015D03*
X0375395Y0077015D03*
X0375395Y0076915D03*
X0375395Y0076815D03*
X0267995Y0074515D03*
X0254595Y0073015D03*
X0254495Y0073115D03*
X0254395Y0073215D03*
X0252795Y0076915D03*
X0252795Y0077115D03*
X0254195Y0090715D03*
X0254295Y0090815D03*
X0266395Y0099815D03*
D124*
X0262545Y0090015D03*
X0262145Y0089615D03*
X0262045Y0089515D03*
X0259545Y0085815D03*
X0259445Y0085415D03*
X0259245Y0085315D03*
X0267745Y0075715D03*
X0267745Y0075515D03*
X0253045Y0074115D03*
X0292945Y0091515D03*
X0308245Y0091515D03*
X0308245Y0091415D03*
X0308245Y0091315D03*
X0329245Y0081615D03*
X0329045Y0075315D03*
X0314945Y0075415D03*
X0300645Y0075215D03*
X0300645Y0075115D03*
X0350345Y0075315D03*
X0366645Y0072715D03*
D125*
X0375395Y0077715D03*
X0353695Y0073115D03*
X0333095Y0085915D03*
X0321095Y0080615D03*
X0318695Y0085815D03*
X0307095Y0085315D03*
X0307095Y0085215D03*
X0300595Y0078215D03*
X0294095Y0085315D03*
X0294095Y0085415D03*
X0294095Y0085515D03*
X0278895Y0089715D03*
X0254895Y0091515D03*
X0252895Y0077515D03*
X0254795Y0072915D03*
X0267995Y0074415D03*
X0316895Y0073715D03*
D126*
X0316895Y0072915D03*
X0329195Y0075215D03*
X0321895Y0083415D03*
X0318595Y0086215D03*
X0308095Y0090515D03*
X0308095Y0090615D03*
X0308095Y0090715D03*
X0293095Y0090715D03*
X0293095Y0090815D03*
X0300595Y0075615D03*
X0300595Y0075515D03*
X0267795Y0075315D03*
X0267695Y0075415D03*
X0252595Y0075415D03*
X0252495Y0075515D03*
X0260195Y0086915D03*
X0260295Y0087115D03*
X0260395Y0087215D03*
X0260395Y0087315D03*
X0260495Y0087415D03*
X0260695Y0087715D03*
X0260895Y0088015D03*
X0261095Y0088315D03*
X0261195Y0088415D03*
X0261295Y0088615D03*
X0261395Y0088715D03*
X0261795Y0089115D03*
X0261795Y0089315D03*
X0350495Y0075215D03*
X0356895Y0075215D03*
X0366695Y0073415D03*
X0366695Y0073315D03*
X0366695Y0073215D03*
X0375295Y0073215D03*
X0375295Y0073315D03*
X0375295Y0073415D03*
X0370995Y0081315D03*
X0370995Y0081415D03*
X0370995Y0081515D03*
X0370995Y0081615D03*
X0353695Y0086115D03*
D127*
X0371045Y0085615D03*
X0371045Y0085515D03*
X0304845Y0084415D03*
X0304745Y0084115D03*
X0304645Y0083815D03*
X0304445Y0083315D03*
X0304345Y0083015D03*
X0304245Y0082815D03*
X0304145Y0082515D03*
X0304045Y0082215D03*
X0303845Y0081715D03*
X0303745Y0081415D03*
X0303645Y0081215D03*
X0303545Y0080915D03*
X0303445Y0080615D03*
X0303345Y0080415D03*
X0303245Y0080115D03*
X0303145Y0079815D03*
X0303045Y0079615D03*
X0302945Y0079315D03*
X0302845Y0079015D03*
X0302745Y0078815D03*
X0302645Y0078515D03*
X0298645Y0078415D03*
X0298545Y0078615D03*
X0298445Y0078915D03*
X0298345Y0079215D03*
X0298245Y0079415D03*
X0298145Y0079715D03*
X0298045Y0080015D03*
X0297945Y0080215D03*
X0297845Y0080515D03*
X0297745Y0080815D03*
X0297645Y0081015D03*
X0297545Y0081315D03*
X0297445Y0081615D03*
X0297345Y0081815D03*
X0297245Y0082115D03*
X0297145Y0082415D03*
X0297045Y0082615D03*
X0296945Y0082915D03*
X0296845Y0083215D03*
X0296645Y0083715D03*
X0296545Y0084015D03*
X0296345Y0084515D03*
X0300645Y0073015D03*
X0273545Y0077215D03*
X0273445Y0077115D03*
X0267845Y0076815D03*
X0260945Y0077615D03*
X0260745Y0077315D03*
X0260645Y0077115D03*
X0260345Y0075615D03*
X0260245Y0075415D03*
X0258045Y0082115D03*
X0258045Y0082315D03*
X0268545Y0086515D03*
X0269745Y0090915D03*
X0274645Y0084315D03*
X0274545Y0084015D03*
X0274545Y0083915D03*
D128*
X0276245Y0093015D03*
X0256545Y0093015D03*
X0318745Y0085415D03*
X0331545Y0080515D03*
X0332845Y0073115D03*
D129*
X0336545Y0075215D03*
X0336745Y0077515D03*
X0329345Y0081515D03*
X0315445Y0078315D03*
X0300645Y0075415D03*
X0308145Y0090815D03*
X0308145Y0090915D03*
X0308145Y0091015D03*
X0293045Y0091015D03*
X0293045Y0090915D03*
X0293045Y0091115D03*
X0261645Y0089015D03*
X0261545Y0088915D03*
X0260045Y0086715D03*
X0259945Y0086515D03*
X0259645Y0086115D03*
X0259745Y0086015D03*
X0259545Y0085915D03*
X0253145Y0074015D03*
X0366645Y0073115D03*
X0375345Y0073115D03*
X0371045Y0081715D03*
D130*
X0274545Y0087515D03*
X0273945Y0092115D03*
X0263645Y0083515D03*
X0263545Y0083615D03*
X0266145Y0081215D03*
X0269145Y0080815D03*
X0269245Y0080615D03*
X0269045Y0080315D03*
X0257145Y0078815D03*
X0261445Y0073415D03*
X0261745Y0073215D03*
X0273945Y0074115D03*
D131*
X0279295Y0074515D03*
X0279395Y0074615D03*
X0279495Y0074815D03*
X0279595Y0075115D03*
X0300595Y0076915D03*
X0316895Y0073215D03*
X0336095Y0077915D03*
X0333095Y0086115D03*
X0353695Y0085915D03*
X0366595Y0075615D03*
X0307595Y0087915D03*
X0307595Y0088015D03*
X0293595Y0088015D03*
X0293595Y0088115D03*
X0293595Y0088215D03*
X0279795Y0088715D03*
X0278995Y0090515D03*
X0253195Y0089215D03*
X0252995Y0088715D03*
X0252695Y0076515D03*
X0252695Y0076315D03*
D132*
X0256945Y0093315D03*
X0275845Y0093315D03*
X0332845Y0073215D03*
D133*
X0333045Y0086015D03*
X0353645Y0085815D03*
X0366645Y0076715D03*
X0366645Y0076615D03*
X0375345Y0076615D03*
X0375345Y0076715D03*
X0307345Y0086515D03*
X0307345Y0086615D03*
X0307345Y0086715D03*
X0293845Y0086715D03*
X0293845Y0086815D03*
X0278945Y0090015D03*
X0254145Y0090615D03*
X0254045Y0090515D03*
X0252745Y0077015D03*
X0254245Y0073415D03*
X0254345Y0073315D03*
X0300645Y0077515D03*
X0300645Y0077615D03*
D134*
X0300595Y0077215D03*
X0300595Y0077115D03*
X0316895Y0073315D03*
X0307495Y0087315D03*
X0307495Y0087415D03*
X0307495Y0087515D03*
X0293695Y0087515D03*
X0293695Y0087615D03*
X0279595Y0088915D03*
X0278995Y0090315D03*
X0253695Y0090015D03*
X0253495Y0089715D03*
X0253395Y0089415D03*
X0252695Y0076715D03*
X0253895Y0073915D03*
X0279195Y0074315D03*
X0366595Y0076015D03*
X0366595Y0076115D03*
X0375395Y0076015D03*
D135*
X0353645Y0073315D03*
X0335045Y0078315D03*
X0276945Y0092515D03*
X0267845Y0073515D03*
X0267745Y0073415D03*
D136*
X0254195Y0073515D03*
X0254095Y0073615D03*
X0253695Y0089815D03*
X0253695Y0089915D03*
X0253895Y0090315D03*
X0253995Y0090415D03*
X0279495Y0089115D03*
X0293795Y0087115D03*
X0293795Y0087015D03*
X0293795Y0086915D03*
X0307395Y0086915D03*
X0307395Y0086815D03*
X0307395Y0087015D03*
X0300595Y0077415D03*
X0316895Y0073415D03*
X0335795Y0078015D03*
X0366595Y0076515D03*
X0366595Y0076415D03*
X0375395Y0076415D03*
X0375395Y0076515D03*
D137*
X0333045Y0079515D03*
X0332845Y0073415D03*
X0318745Y0085015D03*
D138*
X0274645Y0087115D03*
X0274545Y0087315D03*
X0268945Y0080015D03*
X0266245Y0081315D03*
X0266145Y0081415D03*
X0266345Y0081615D03*
X0266345Y0081715D03*
X0266045Y0081015D03*
X0263145Y0082615D03*
X0263245Y0082815D03*
X0263445Y0083115D03*
X0263545Y0083215D03*
X0257245Y0079315D03*
X0261245Y0073615D03*
X0261445Y0073515D03*
X0266445Y0094215D03*
D139*
X0275145Y0093715D03*
X0318745Y0084915D03*
X0332845Y0073515D03*
D140*
X0336645Y0077615D03*
X0329445Y0081415D03*
X0308045Y0090315D03*
X0308045Y0090415D03*
X0293145Y0090415D03*
X0293145Y0090515D03*
X0293145Y0090615D03*
X0281345Y0084115D03*
X0281345Y0084015D03*
X0281445Y0083415D03*
X0281445Y0083315D03*
X0281445Y0083215D03*
X0281445Y0083115D03*
X0281445Y0083015D03*
X0281445Y0082915D03*
X0281445Y0082815D03*
X0281445Y0082715D03*
X0281445Y0082615D03*
X0281445Y0082515D03*
X0281445Y0082415D03*
X0281445Y0081815D03*
X0281445Y0081715D03*
X0281445Y0081615D03*
X0281445Y0081515D03*
X0281445Y0081415D03*
X0281445Y0081315D03*
X0281445Y0081215D03*
X0281445Y0081115D03*
X0281445Y0081015D03*
X0281445Y0080915D03*
X0281445Y0080815D03*
X0281445Y0080715D03*
X0281345Y0080315D03*
X0281345Y0080215D03*
X0281345Y0080115D03*
X0281245Y0079515D03*
X0261545Y0088815D03*
X0260345Y0087015D03*
X0260045Y0086815D03*
X0259945Y0086315D03*
X0251445Y0084015D03*
X0251445Y0083915D03*
X0251345Y0083315D03*
X0251345Y0083215D03*
X0251345Y0083115D03*
X0251345Y0083015D03*
X0251345Y0082915D03*
X0251345Y0082815D03*
X0251345Y0082715D03*
X0251345Y0082615D03*
X0251345Y0082515D03*
X0251345Y0082415D03*
X0251345Y0082315D03*
X0251345Y0082215D03*
X0251345Y0082115D03*
X0251345Y0082015D03*
X0251345Y0081915D03*
X0251345Y0081815D03*
X0251345Y0081715D03*
X0251345Y0081615D03*
X0251345Y0081515D03*
X0251345Y0081415D03*
X0251345Y0081315D03*
X0251345Y0081215D03*
X0251345Y0081115D03*
X0251345Y0081015D03*
X0251345Y0080915D03*
X0251345Y0080815D03*
X0251445Y0080415D03*
X0251445Y0080315D03*
X0251445Y0080215D03*
X0251545Y0079615D03*
X0252545Y0075615D03*
X0300645Y0075715D03*
X0366645Y0073715D03*
X0366645Y0073615D03*
X0366645Y0073515D03*
X0375345Y0073515D03*
X0375345Y0073615D03*
D141*
X0274645Y0086915D03*
X0266545Y0082115D03*
X0266345Y0081815D03*
X0268945Y0079915D03*
X0268745Y0079615D03*
X0263345Y0083015D03*
X0257345Y0079415D03*
X0261045Y0073815D03*
X0261245Y0073715D03*
D142*
X0256145Y0074115D03*
X0256445Y0077615D03*
X0256545Y0077715D03*
X0256745Y0078015D03*
X0256845Y0078215D03*
X0257045Y0078415D03*
X0265245Y0079315D03*
X0265445Y0079615D03*
X0265545Y0079915D03*
X0273145Y0075915D03*
X0272845Y0073715D03*
X0264045Y0084615D03*
X0274545Y0088115D03*
X0274745Y0088315D03*
X0275145Y0089015D03*
X0268345Y0094015D03*
X0264445Y0094015D03*
D143*
X0258095Y0093915D03*
X0274695Y0093915D03*
X0318795Y0084615D03*
X0332895Y0073715D03*
X0353695Y0074315D03*
X0353695Y0084515D03*
D144*
X0274695Y0087015D03*
X0273995Y0092215D03*
X0266695Y0082415D03*
X0266595Y0082215D03*
X0266595Y0082015D03*
X0268895Y0079815D03*
X0268695Y0079515D03*
X0262895Y0082015D03*
X0263095Y0082315D03*
X0262995Y0082415D03*
X0263195Y0082715D03*
X0257295Y0079615D03*
X0257195Y0079515D03*
X0260995Y0073915D03*
D145*
X0273195Y0073915D03*
X0266395Y0097615D03*
D146*
X0278445Y0092015D03*
X0278545Y0091815D03*
X0280945Y0086015D03*
X0280945Y0085915D03*
X0281045Y0085715D03*
X0281045Y0085615D03*
X0281145Y0085315D03*
X0281245Y0084315D03*
X0281245Y0084215D03*
X0281345Y0083715D03*
X0281345Y0083615D03*
X0281345Y0083515D03*
X0281345Y0080615D03*
X0281345Y0080515D03*
X0281245Y0080015D03*
X0281245Y0079915D03*
X0281245Y0079815D03*
X0281145Y0079415D03*
X0281145Y0078915D03*
X0281045Y0078515D03*
X0280945Y0078215D03*
X0280945Y0078115D03*
X0280845Y0077915D03*
X0261245Y0088515D03*
X0260045Y0086615D03*
X0251845Y0086015D03*
X0251845Y0085915D03*
X0251745Y0085715D03*
X0251745Y0085615D03*
X0251645Y0085315D03*
X0251645Y0085215D03*
X0251545Y0084215D03*
X0251545Y0084115D03*
X0251445Y0083615D03*
X0251445Y0083515D03*
X0251445Y0083415D03*
X0251445Y0080715D03*
X0251445Y0080615D03*
X0251545Y0080115D03*
X0251545Y0080015D03*
X0251545Y0079915D03*
X0251645Y0079515D03*
X0251745Y0078615D03*
X0251745Y0078515D03*
X0251845Y0078315D03*
X0251845Y0078215D03*
X0251945Y0078015D03*
X0252545Y0075815D03*
X0252645Y0075715D03*
X0293245Y0089915D03*
X0293245Y0090015D03*
X0307945Y0089915D03*
X0307945Y0089815D03*
X0307945Y0089715D03*
X0329645Y0081315D03*
X0333045Y0086215D03*
X0300645Y0076015D03*
X0300645Y0075915D03*
X0366645Y0074115D03*
X0366645Y0074015D03*
X0366645Y0073915D03*
X0375345Y0074015D03*
X0375345Y0074115D03*
D147*
X0274645Y0086715D03*
X0266745Y0082515D03*
X0263045Y0082215D03*
X0262845Y0082115D03*
X0262745Y0081715D03*
X0257345Y0079815D03*
X0260945Y0074015D03*
X0268645Y0079315D03*
D148*
X0274145Y0094115D03*
X0258645Y0094115D03*
X0318745Y0084115D03*
X0319245Y0079315D03*
X0332845Y0074015D03*
X0333045Y0084615D03*
X0353645Y0074715D03*
D149*
X0274595Y0087615D03*
X0274595Y0087915D03*
X0265395Y0092415D03*
X0265295Y0094115D03*
X0267495Y0094115D03*
X0263995Y0084315D03*
X0263795Y0084215D03*
X0263695Y0083815D03*
X0265895Y0080715D03*
X0265795Y0080515D03*
X0265795Y0080315D03*
X0265595Y0080215D03*
X0269295Y0080915D03*
X0256995Y0074115D03*
D150*
X0260895Y0074115D03*
X0257395Y0079715D03*
X0262695Y0081615D03*
X0262895Y0081915D03*
X0266895Y0082815D03*
X0268595Y0079415D03*
X0268595Y0079215D03*
X0266395Y0092315D03*
D151*
X0266445Y0092115D03*
X0269345Y0088215D03*
X0274445Y0082915D03*
X0274345Y0082615D03*
X0274345Y0082115D03*
X0274345Y0082015D03*
X0273745Y0078715D03*
X0273745Y0078615D03*
X0273745Y0078515D03*
X0273645Y0078015D03*
X0267845Y0076215D03*
X0267745Y0076115D03*
X0300645Y0074115D03*
X0314445Y0075915D03*
X0314645Y0077715D03*
X0314745Y0077815D03*
X0322645Y0082815D03*
X0322645Y0082915D03*
X0328745Y0082915D03*
X0328745Y0082815D03*
X0328745Y0082715D03*
X0328745Y0082615D03*
X0328745Y0082515D03*
X0328845Y0083015D03*
X0328845Y0083115D03*
X0328945Y0083315D03*
X0337245Y0083115D03*
X0328445Y0076115D03*
X0328445Y0076015D03*
X0328345Y0076215D03*
X0348945Y0078415D03*
X0348945Y0078515D03*
X0348945Y0078615D03*
X0349045Y0077915D03*
X0349045Y0077815D03*
X0349045Y0077715D03*
X0349145Y0077415D03*
X0349145Y0077315D03*
X0349145Y0077015D03*
X0349245Y0076715D03*
X0349345Y0076515D03*
X0349445Y0076315D03*
X0348945Y0079715D03*
X0348945Y0079815D03*
X0348945Y0080415D03*
X0348945Y0080515D03*
X0348945Y0080615D03*
X0349045Y0080915D03*
X0349045Y0081015D03*
X0349045Y0081115D03*
X0349045Y0081215D03*
X0349045Y0081315D03*
X0349145Y0081615D03*
X0349145Y0081715D03*
X0349245Y0081915D03*
X0349245Y0082015D03*
X0349345Y0082215D03*
X0349445Y0082415D03*
X0349545Y0082815D03*
X0349745Y0083115D03*
X0357745Y0082915D03*
X0357845Y0082815D03*
X0357945Y0082615D03*
X0357945Y0082415D03*
X0358145Y0081915D03*
X0358245Y0081615D03*
X0358245Y0081515D03*
X0358245Y0081415D03*
X0358345Y0081115D03*
X0358345Y0080815D03*
X0358445Y0080715D03*
X0358445Y0080615D03*
X0358445Y0080515D03*
X0358445Y0080415D03*
X0358445Y0080315D03*
X0358445Y0080215D03*
X0358445Y0080115D03*
X0358445Y0080015D03*
X0358445Y0079015D03*
X0358445Y0078915D03*
X0358445Y0078815D03*
X0358445Y0078715D03*
X0358445Y0078615D03*
X0358445Y0078515D03*
X0358445Y0078415D03*
X0358445Y0078315D03*
X0358345Y0077915D03*
X0358345Y0077815D03*
X0358245Y0077415D03*
X0358145Y0076715D03*
X0358045Y0076515D03*
X0371045Y0083915D03*
D152*
X0318995Y0074215D03*
X0318995Y0074115D03*
X0318895Y0074315D03*
X0318895Y0074415D03*
D153*
X0319795Y0079915D03*
X0353695Y0084715D03*
X0353695Y0074115D03*
D154*
X0353695Y0086515D03*
X0273695Y0076215D03*
X0268595Y0078915D03*
X0262495Y0081015D03*
X0262295Y0080915D03*
X0267195Y0083315D03*
X0267295Y0083615D03*
X0267295Y0083715D03*
X0260895Y0074215D03*
D155*
X0258395Y0083515D03*
X0258495Y0083715D03*
X0258695Y0084015D03*
X0263195Y0090715D03*
X0263295Y0090815D03*
X0263495Y0090915D03*
X0269495Y0088515D03*
X0269695Y0088815D03*
X0270095Y0090415D03*
X0274295Y0082215D03*
X0274295Y0081815D03*
X0274295Y0081715D03*
X0274295Y0081615D03*
X0273795Y0078915D03*
X0273695Y0078215D03*
X0300595Y0074215D03*
X0314495Y0075815D03*
X0314595Y0075715D03*
X0314795Y0077915D03*
X0315095Y0083215D03*
X0322495Y0083015D03*
X0328795Y0082415D03*
X0328795Y0082315D03*
X0328895Y0083215D03*
X0328995Y0083415D03*
X0337195Y0083215D03*
X0337295Y0076415D03*
X0337295Y0076315D03*
X0337295Y0076215D03*
X0337295Y0076115D03*
X0337295Y0076015D03*
X0328495Y0075915D03*
X0322695Y0075815D03*
X0348995Y0078015D03*
X0348995Y0078115D03*
X0349095Y0077515D03*
X0349295Y0076815D03*
X0349395Y0076615D03*
X0349495Y0076215D03*
X0348895Y0079215D03*
X0348895Y0079315D03*
X0348895Y0079415D03*
X0348895Y0079515D03*
X0348895Y0079615D03*
X0349495Y0082615D03*
X0349695Y0082915D03*
X0349795Y0083215D03*
X0357795Y0082715D03*
X0357995Y0082315D03*
X0358395Y0078215D03*
X0358295Y0077615D03*
X0358295Y0077515D03*
X0358195Y0077115D03*
X0358095Y0076815D03*
X0357995Y0076615D03*
X0357895Y0076415D03*
X0357895Y0076215D03*
X0357795Y0076115D03*
X0370995Y0083515D03*
X0370995Y0083615D03*
X0370995Y0083715D03*
X0370995Y0083815D03*
D156*
X0353695Y0083915D03*
X0353695Y0074915D03*
X0332895Y0074215D03*
X0319095Y0079015D03*
X0318795Y0083715D03*
X0318795Y0083815D03*
X0333095Y0084415D03*
X0266395Y0099215D03*
D157*
X0262845Y0090315D03*
X0262545Y0090115D03*
X0259245Y0085215D03*
X0259145Y0084815D03*
X0258945Y0084715D03*
X0269845Y0089315D03*
X0269945Y0089515D03*
X0270245Y0089915D03*
X0270245Y0090115D03*
X0267745Y0075615D03*
X0252845Y0074315D03*
X0252745Y0074415D03*
X0252645Y0074615D03*
X0252545Y0074815D03*
X0252545Y0074915D03*
X0300645Y0074915D03*
X0315245Y0078215D03*
X0322445Y0075615D03*
X0329345Y0083715D03*
X0337045Y0077215D03*
X0350145Y0075415D03*
X0357245Y0075415D03*
X0357045Y0083715D03*
X0350345Y0083715D03*
X0350245Y0083515D03*
D158*
X0349745Y0083015D03*
X0357445Y0083315D03*
X0357545Y0083115D03*
X0357645Y0083015D03*
X0357845Y0076315D03*
X0349745Y0075815D03*
X0349645Y0075915D03*
X0349645Y0076115D03*
X0349445Y0076415D03*
X0337345Y0076515D03*
X0337345Y0076615D03*
X0337345Y0076715D03*
X0337245Y0076815D03*
X0337245Y0076915D03*
X0337245Y0075915D03*
X0337145Y0075815D03*
X0337145Y0075715D03*
X0328645Y0075715D03*
X0328545Y0075815D03*
X0328845Y0082115D03*
X0328845Y0082215D03*
X0322445Y0083115D03*
X0337045Y0083415D03*
X0337145Y0083315D03*
X0371045Y0083415D03*
X0300645Y0074415D03*
X0300645Y0074315D03*
X0273845Y0078815D03*
X0273945Y0079515D03*
X0273945Y0079615D03*
X0273945Y0079715D03*
X0274045Y0080215D03*
X0274145Y0080815D03*
X0274145Y0080915D03*
X0274245Y0081415D03*
X0274245Y0081915D03*
X0267845Y0076015D03*
X0267745Y0075915D03*
X0258545Y0083615D03*
X0258545Y0083815D03*
X0258745Y0083915D03*
X0258745Y0084115D03*
X0258845Y0084315D03*
X0269545Y0088615D03*
X0269745Y0088715D03*
X0269745Y0088915D03*
X0269845Y0089115D03*
D159*
X0278445Y0091915D03*
X0278845Y0091315D03*
X0278845Y0091215D03*
X0280545Y0087215D03*
X0280645Y0087015D03*
X0280745Y0086715D03*
X0280745Y0086415D03*
X0280845Y0086115D03*
X0280945Y0085815D03*
X0280845Y0078015D03*
X0280745Y0077815D03*
X0280745Y0077715D03*
X0280645Y0077515D03*
X0280645Y0077215D03*
X0280545Y0076915D03*
X0280445Y0076715D03*
X0280345Y0076515D03*
X0300645Y0076215D03*
X0307845Y0089215D03*
X0307845Y0089315D03*
X0307845Y0089415D03*
X0293345Y0089415D03*
X0293345Y0089315D03*
X0293345Y0089515D03*
X0252345Y0087415D03*
X0252245Y0087215D03*
X0252145Y0087015D03*
X0252145Y0086915D03*
X0252045Y0086315D03*
X0251945Y0086115D03*
X0251845Y0085815D03*
X0251945Y0078115D03*
X0252045Y0077815D03*
X0366645Y0074615D03*
X0366645Y0074515D03*
X0366645Y0074415D03*
X0366645Y0074315D03*
X0370945Y0080415D03*
X0375345Y0074615D03*
X0375345Y0074515D03*
X0375345Y0074415D03*
X0375345Y0074315D03*
D160*
X0332845Y0074415D03*
X0318945Y0078715D03*
X0333045Y0084215D03*
X0273745Y0094215D03*
X0259045Y0094215D03*
D161*
X0319495Y0079615D03*
X0353695Y0084415D03*
X0353695Y0074415D03*
D162*
X0332845Y0074815D03*
X0318845Y0074615D03*
X0318845Y0074515D03*
X0318745Y0074915D03*
D163*
X0319395Y0079515D03*
X0318795Y0084315D03*
X0353695Y0084215D03*
X0353695Y0074515D03*
X0266395Y0099315D03*
D164*
X0266445Y0100015D03*
X0263145Y0090615D03*
X0262845Y0090415D03*
X0258945Y0084615D03*
X0270045Y0090315D03*
X0274245Y0081015D03*
X0274045Y0080715D03*
X0274045Y0080615D03*
X0274145Y0080415D03*
X0274145Y0080315D03*
X0273945Y0080115D03*
X0274045Y0079915D03*
X0274045Y0079815D03*
X0273845Y0079115D03*
X0273845Y0079015D03*
X0267745Y0075815D03*
X0300645Y0074615D03*
X0315045Y0078115D03*
X0322345Y0083215D03*
X0318645Y0086315D03*
X0328945Y0081915D03*
X0336845Y0083615D03*
X0337145Y0077115D03*
X0336945Y0075515D03*
X0349945Y0075615D03*
X0357445Y0075615D03*
X0357545Y0075815D03*
X0357145Y0083615D03*
X0371045Y0083015D03*
D165*
X0353695Y0084115D03*
X0353695Y0074615D03*
D166*
X0332895Y0074915D03*
X0318795Y0074815D03*
X0318795Y0074715D03*
X0318695Y0075015D03*
X0318695Y0075115D03*
X0318695Y0075215D03*
D167*
X0332845Y0074715D03*
X0333045Y0083915D03*
D168*
X0329845Y0081215D03*
X0307745Y0088715D03*
X0307745Y0088815D03*
X0293445Y0088815D03*
X0293445Y0088915D03*
X0293445Y0089015D03*
X0280545Y0087115D03*
X0280445Y0087315D03*
X0280345Y0087515D03*
X0280245Y0088015D03*
X0280145Y0088115D03*
X0280145Y0088215D03*
X0280345Y0076615D03*
X0280245Y0076415D03*
X0280145Y0076015D03*
X0280045Y0075815D03*
X0279945Y0075615D03*
X0267845Y0074915D03*
X0267745Y0075015D03*
X0252645Y0076015D03*
X0252645Y0076215D03*
X0252345Y0087315D03*
X0252445Y0087515D03*
X0252545Y0087915D03*
X0252545Y0088015D03*
X0252645Y0088115D03*
X0252745Y0088315D03*
X0300645Y0076515D03*
X0366645Y0075115D03*
X0366645Y0075015D03*
X0366645Y0074915D03*
X0366645Y0074815D03*
X0366645Y0074715D03*
X0375345Y0074815D03*
X0375345Y0074915D03*
X0375345Y0075015D03*
X0375345Y0075115D03*
D169*
X0375345Y0075215D03*
X0375345Y0075315D03*
X0375345Y0075415D03*
X0375345Y0075515D03*
X0366645Y0075515D03*
X0366645Y0075415D03*
X0366645Y0075315D03*
X0366645Y0075215D03*
X0307645Y0088115D03*
X0307645Y0088215D03*
X0307645Y0088315D03*
X0293545Y0088315D03*
X0293545Y0088415D03*
X0279945Y0088415D03*
X0279945Y0088615D03*
X0279845Y0088815D03*
X0278945Y0090615D03*
X0279745Y0075415D03*
X0279745Y0075215D03*
X0279645Y0075015D03*
X0279545Y0074915D03*
X0267845Y0074815D03*
X0252645Y0076415D03*
X0252745Y0088215D03*
X0252845Y0088415D03*
X0252945Y0088815D03*
X0253045Y0088915D03*
X0253145Y0089115D03*
X0300645Y0076815D03*
X0300645Y0076715D03*
D170*
X0273545Y0076515D03*
X0261745Y0079315D03*
X0261545Y0079115D03*
X0261545Y0079015D03*
X0261845Y0079715D03*
X0260545Y0074915D03*
X0267845Y0084715D03*
X0267745Y0084815D03*
X0267945Y0085115D03*
X0274645Y0085215D03*
X0274645Y0085315D03*
X0274645Y0085715D03*
X0269045Y0091515D03*
D171*
X0266445Y0099015D03*
X0318645Y0075315D03*
X0332845Y0075015D03*
D172*
X0319045Y0078915D03*
X0318745Y0083615D03*
X0333045Y0084315D03*
X0353645Y0075015D03*
D173*
X0329945Y0076815D03*
X0273945Y0075815D03*
X0269245Y0080715D03*
X0269445Y0081015D03*
X0269545Y0081215D03*
X0265945Y0080815D03*
X0263645Y0083715D03*
X0263645Y0083915D03*
X0263845Y0084015D03*
X0257145Y0078915D03*
X0275245Y0089115D03*
X0267445Y0092415D03*
X0266445Y0092515D03*
D174*
X0274695Y0087215D03*
X0268895Y0080115D03*
X0268795Y0079715D03*
X0266195Y0081515D03*
X0266495Y0081915D03*
X0263095Y0082515D03*
X0273895Y0076015D03*
X0315795Y0082115D03*
D175*
X0274645Y0086515D03*
X0274645Y0086815D03*
X0266945Y0082915D03*
X0266745Y0082715D03*
X0266645Y0082315D03*
X0262545Y0081315D03*
X0268545Y0079015D03*
X0273745Y0076115D03*
D176*
X0273695Y0076315D03*
X0268195Y0078015D03*
X0261895Y0079815D03*
X0261895Y0080015D03*
X0261795Y0079615D03*
X0257595Y0080815D03*
X0267695Y0084515D03*
X0268695Y0091715D03*
X0315195Y0082215D03*
X0333095Y0086515D03*
D177*
X0274645Y0085915D03*
X0274645Y0085615D03*
X0274645Y0085515D03*
X0267745Y0084615D03*
X0267545Y0084415D03*
X0267545Y0084315D03*
X0267445Y0084015D03*
X0268345Y0078415D03*
X0268145Y0078115D03*
X0268145Y0077915D03*
X0261745Y0079515D03*
X0257645Y0081015D03*
X0273545Y0076415D03*
X0268845Y0091615D03*
D178*
X0278945Y0089815D03*
X0293945Y0086315D03*
X0293945Y0086215D03*
X0293945Y0086115D03*
X0300645Y0077815D03*
X0307245Y0086015D03*
X0307245Y0086115D03*
X0307245Y0086215D03*
X0330445Y0081015D03*
X0366645Y0077115D03*
X0375345Y0077115D03*
X0375345Y0077215D03*
X0254445Y0091015D03*
X0254345Y0090915D03*
D179*
X0267995Y0085315D03*
X0268295Y0085815D03*
X0274595Y0084815D03*
X0274695Y0085115D03*
X0261195Y0078315D03*
X0257695Y0081215D03*
X0257695Y0081415D03*
X0257795Y0081615D03*
X0267995Y0077315D03*
X0266395Y0100115D03*
D180*
X0318895Y0078615D03*
D181*
X0353695Y0083715D03*
X0274095Y0092015D03*
X0263395Y0083315D03*
X0263295Y0082915D03*
X0268995Y0080415D03*
X0268995Y0080215D03*
X0269195Y0080515D03*
X0257195Y0079215D03*
X0257095Y0079115D03*
D182*
X0257295Y0079915D03*
X0257395Y0080115D03*
X0262495Y0081115D03*
X0262695Y0081415D03*
X0262595Y0081515D03*
X0262795Y0081815D03*
X0266695Y0082615D03*
X0267095Y0083215D03*
X0268495Y0079115D03*
D183*
X0266445Y0099515D03*
X0318745Y0085115D03*
X0320045Y0080115D03*
X0332345Y0080015D03*
X0332645Y0079815D03*
X0333645Y0079115D03*
X0333045Y0085315D03*
D184*
X0333045Y0084915D03*
X0318745Y0084515D03*
X0319545Y0079715D03*
D185*
X0274645Y0086315D03*
X0274645Y0086615D03*
X0267145Y0083415D03*
X0266945Y0083115D03*
X0267045Y0083015D03*
X0262445Y0081215D03*
X0262345Y0080815D03*
X0257445Y0080215D03*
X0257445Y0080015D03*
D186*
X0266395Y0094315D03*
D187*
X0266445Y0094515D03*
D188*
X0266445Y0094615D03*
D189*
X0266445Y0094715D03*
D190*
X0266445Y0094815D03*
D191*
X0266445Y0094915D03*
D192*
X0266445Y0095015D03*
D193*
X0266445Y0095115D03*
D194*
X0266445Y0095215D03*
D195*
X0266445Y0095315D03*
D196*
X0266395Y0095415D03*
D197*
X0266395Y0095515D03*
D198*
X0266395Y0096115D03*
D199*
X0266395Y0096515D03*
D200*
X0266395Y0096815D03*
D201*
X0266395Y0097015D03*
D202*
X0266395Y0097215D03*
D203*
X0266395Y0097415D03*
D204*
X0266445Y0097715D03*
D205*
X0266395Y0098015D03*
D206*
X0266395Y0098115D03*
D207*
X0266445Y0098215D03*
D208*
X0266445Y0098315D03*
D209*
X0266445Y0098415D03*
D210*
X0266395Y0098515D03*
D211*
X0266395Y0098615D03*
D212*
X0266445Y0098815D03*
D213*
X0266395Y0098915D03*
D214*
X0176931Y0086755D02*
X0175947Y0087739D01*
X0174962Y0087739D01*
X0173978Y0086755D01*
X0173978Y0083803D01*
X0175947Y0083803D01*
X0176931Y0084787D01*
X0176931Y0086755D01*
X0173978Y0083803D02*
X0172010Y0085771D01*
X0171026Y0087739D01*
X0166494Y0085951D02*
X0166494Y0083983D01*
X0165510Y0082999D01*
X0163542Y0082999D02*
X0162557Y0084967D01*
X0162557Y0085951D01*
X0163542Y0086936D01*
X0165510Y0086936D01*
X0166494Y0085951D01*
X0163542Y0082999D02*
X0160589Y0082999D01*
X0160589Y0086936D01*
X0155255Y0085416D02*
X0149350Y0085416D01*
X0152302Y0082463D01*
X0152302Y0086400D01*
X0149350Y0079954D02*
X0155255Y0076018D01*
X0154271Y0073509D02*
X0149350Y0073509D01*
X0149350Y0076018D02*
X0155255Y0079954D01*
X0160589Y0080490D02*
X0166494Y0076553D01*
X0165510Y0074045D02*
X0160589Y0074045D01*
X0160589Y0076553D02*
X0166494Y0080490D01*
X0171026Y0081294D02*
X0176931Y0077357D01*
X0175947Y0074848D02*
X0171026Y0074848D01*
X0171026Y0077357D02*
X0176931Y0081294D01*
X0175947Y0074848D02*
X0176931Y0073864D01*
X0176931Y0071896D01*
X0175947Y0070912D01*
X0171026Y0070912D01*
X0166494Y0071092D02*
X0165510Y0070108D01*
X0160589Y0070108D01*
X0162557Y0067599D02*
X0166494Y0067599D01*
X0163542Y0067599D02*
X0163542Y0063662D01*
X0162557Y0063662D02*
X0166494Y0063662D01*
X0162557Y0063662D02*
X0160589Y0065631D01*
X0162557Y0067599D01*
X0155255Y0067063D02*
X0151318Y0067063D01*
X0149350Y0065095D01*
X0151318Y0063127D01*
X0155255Y0063127D01*
X0152302Y0063127D02*
X0152302Y0067063D01*
X0154271Y0069572D02*
X0149350Y0069572D01*
X0154271Y0069572D02*
X0155255Y0070556D01*
X0155255Y0072525D01*
X0154271Y0073509D01*
X0165510Y0074045D02*
X0166494Y0073060D01*
X0166494Y0071092D01*
X0171026Y0066434D02*
X0172994Y0068403D01*
X0176931Y0068403D01*
X0173978Y0068403D02*
X0173978Y0064466D01*
X0172994Y0064466D02*
X0171026Y0066434D01*
X0172994Y0064466D02*
X0176931Y0064466D01*
X0142196Y0063207D02*
X0138259Y0063207D01*
X0136291Y0065175D01*
X0138259Y0067143D01*
X0142196Y0067143D01*
X0141212Y0069652D02*
X0136291Y0069652D01*
X0139243Y0067143D02*
X0139243Y0063207D01*
X0141212Y0069652D02*
X0142196Y0070636D01*
X0142196Y0072605D01*
X0141212Y0073589D01*
X0136291Y0073589D01*
X0136291Y0076098D02*
X0142196Y0080034D01*
X0141212Y0082543D02*
X0142196Y0083527D01*
X0142196Y0085496D01*
X0141212Y0086480D01*
X0140227Y0086480D01*
X0139243Y0085496D01*
X0139243Y0084511D01*
X0139243Y0085496D02*
X0138259Y0086480D01*
X0137275Y0086480D01*
X0136291Y0085496D01*
X0136291Y0083527D01*
X0137275Y0082543D01*
X0136291Y0080034D02*
X0142196Y0076098D01*
X0129601Y0077046D02*
X0123696Y0080983D01*
X0124680Y0083492D02*
X0123696Y0084476D01*
X0123696Y0086444D01*
X0124680Y0087428D01*
X0125664Y0087428D01*
X0129601Y0083492D01*
X0129601Y0087428D01*
X0129601Y0080983D02*
X0123696Y0077046D01*
X0123696Y0074537D02*
X0128616Y0074537D01*
X0129601Y0073553D01*
X0129601Y0071585D01*
X0128616Y0070601D01*
X0123696Y0070601D01*
X0125664Y0068092D02*
X0129601Y0068092D01*
X0126648Y0068092D02*
X0126648Y0064155D01*
X0125664Y0064155D02*
X0129601Y0064155D01*
X0125664Y0064155D02*
X0123696Y0066124D01*
X0125664Y0068092D01*
X0115400Y0068112D02*
X0111464Y0068112D01*
X0109495Y0066144D01*
X0111464Y0064175D01*
X0115400Y0064175D01*
X0112448Y0064175D02*
X0112448Y0068112D01*
X0114416Y0070621D02*
X0109495Y0070621D01*
X0109495Y0074557D02*
X0114416Y0074557D01*
X0115400Y0073573D01*
X0115400Y0071605D01*
X0114416Y0070621D01*
X0115400Y0077066D02*
X0109495Y0081003D01*
X0111464Y0083512D02*
X0109495Y0085480D01*
X0115400Y0085480D01*
X0115400Y0083512D02*
X0115400Y0087448D01*
X0115400Y0081003D02*
X0109495Y0077066D01*
D215*
X0030582Y0015657D02*
X0028082Y0018157D01*
X0028082Y0023157D01*
X0030582Y0025657D01*
X0045582Y0025657D01*
X0048082Y0023157D01*
X0048082Y0018157D01*
X0045582Y0015657D01*
X0030582Y0015657D01*
X0030582Y0025657D02*
X0028082Y0028157D01*
X0028082Y0033157D01*
X0030582Y0035657D01*
X0045582Y0035657D01*
X0048082Y0033157D01*
X0048082Y0028157D01*
X0045582Y0025657D01*
X0045582Y0035657D02*
X0048082Y0038157D01*
X0048082Y0043157D01*
X0045582Y0045657D01*
X0030582Y0045657D01*
X0028082Y0043157D01*
X0028082Y0038157D01*
X0030582Y0035657D01*
X0030582Y0045657D02*
X0028082Y0048157D01*
X0028082Y0053157D01*
X0030582Y0055657D01*
X0045582Y0055657D01*
X0048082Y0053157D01*
X0048082Y0048157D01*
X0045582Y0045657D01*
X0045582Y0055657D02*
X0048082Y0058157D01*
X0048082Y0063157D01*
X0045582Y0065657D01*
X0030582Y0065657D01*
X0028082Y0063157D01*
X0028082Y0058157D01*
X0030582Y0055657D01*
X0030582Y0065657D02*
X0028082Y0068157D01*
X0028082Y0073157D01*
X0030582Y0075657D01*
X0045582Y0075657D01*
X0048082Y0073157D01*
X0048082Y0068157D01*
X0045582Y0065657D01*
X0045582Y0075657D02*
X0048082Y0078157D01*
X0048082Y0083157D01*
X0045582Y0085657D01*
X0030582Y0085657D01*
X0028082Y0083157D01*
X0028082Y0078157D01*
X0030582Y0075657D01*
X0030582Y0085657D02*
X0028082Y0088157D01*
X0028082Y0093157D01*
X0030582Y0095657D01*
X0045582Y0095657D01*
X0048082Y0093157D01*
X0048082Y0088157D01*
X0045582Y0085657D01*
X0045582Y0095657D02*
X0048082Y0098157D01*
X0048082Y0103157D01*
X0045582Y0105657D01*
X0048082Y0108157D01*
X0048082Y0113157D01*
X0045582Y0115657D01*
X0030582Y0115657D01*
X0028082Y0113157D01*
X0028082Y0108157D01*
X0030582Y0105657D01*
X0045582Y0105657D01*
X0030582Y0105657D01*
X0028082Y0103157D01*
X0028082Y0098157D01*
X0030582Y0095657D01*
X0030582Y0115657D02*
X0028082Y0118157D01*
X0028082Y0123157D01*
X0030582Y0125657D01*
X0045582Y0125657D01*
X0048082Y0123157D01*
X0048082Y0118157D01*
X0045582Y0115657D01*
X0045582Y0125657D02*
X0048082Y0128157D01*
X0048082Y0133157D01*
X0045582Y0135657D01*
X0030582Y0135657D01*
X0028082Y0133157D01*
X0028082Y0128157D01*
X0030582Y0125657D01*
X0030582Y0135657D02*
X0028082Y0138157D01*
X0028082Y0143157D01*
X0030582Y0145657D01*
X0045582Y0145657D01*
X0048082Y0143157D01*
X0048082Y0138157D01*
X0045582Y0135657D01*
X0045582Y0145657D02*
X0048082Y0148157D01*
X0048082Y0153157D01*
X0045582Y0155657D01*
X0030582Y0155657D01*
X0028082Y0153157D01*
X0028082Y0148157D01*
X0030582Y0145657D01*
X0030582Y0155657D02*
X0028082Y0158157D01*
X0028082Y0163157D01*
X0030582Y0165657D01*
X0045582Y0165657D01*
X0048082Y0163157D01*
X0048082Y0158157D01*
X0045582Y0155657D01*
X0045582Y0165657D02*
X0048082Y0168157D01*
X0048082Y0173157D01*
X0045582Y0175657D01*
X0030582Y0175657D01*
X0028082Y0173157D01*
X0028082Y0168157D01*
X0030582Y0165657D01*
X0030582Y0175657D02*
X0028082Y0178157D01*
X0028082Y0183157D01*
X0030582Y0185657D01*
X0045582Y0185657D01*
X0048082Y0183157D01*
X0048082Y0178157D01*
X0045582Y0175657D01*
X0045582Y0185657D02*
X0048082Y0188157D01*
X0048082Y0193157D01*
X0045582Y0195657D01*
X0030582Y0195657D01*
X0028082Y0193157D01*
X0028082Y0188157D01*
X0030582Y0185657D01*
X0138082Y0208157D02*
X0140582Y0205657D01*
X0145582Y0205657D01*
X0148082Y0208157D01*
X0150582Y0205657D01*
X0155582Y0205657D01*
X0158082Y0208157D01*
X0158082Y0213157D01*
X0155582Y0215657D01*
X0150582Y0215657D01*
X0148082Y0213157D01*
X0148082Y0208157D01*
X0148082Y0213157D02*
X0145582Y0215657D01*
X0140582Y0215657D01*
X0138082Y0213157D01*
X0138082Y0208157D01*
X0158082Y0208157D02*
X0160582Y0205657D01*
X0165582Y0205657D01*
X0168082Y0208157D01*
X0170582Y0205657D01*
X0175582Y0205657D01*
X0178082Y0208157D01*
X0180582Y0205657D01*
X0185582Y0205657D01*
X0188082Y0208157D01*
X0188082Y0213157D01*
X0185582Y0215657D01*
X0180582Y0215657D01*
X0178082Y0213157D01*
X0178082Y0208157D01*
X0178082Y0213157D02*
X0175582Y0215657D01*
X0170582Y0215657D01*
X0168082Y0213157D01*
X0168082Y0208157D01*
X0168082Y0213157D02*
X0165582Y0215657D01*
X0160582Y0215657D01*
X0158082Y0213157D01*
X0188082Y0213157D02*
X0190582Y0215657D01*
X0195582Y0215657D01*
X0198082Y0213157D01*
X0200582Y0215657D01*
X0205582Y0215657D01*
X0208082Y0213157D01*
X0210582Y0215657D01*
X0215582Y0215657D01*
X0218082Y0213157D01*
X0218082Y0208157D01*
X0215582Y0205657D01*
X0210582Y0205657D01*
X0208082Y0208157D01*
X0205582Y0205657D01*
X0200582Y0205657D01*
X0198082Y0208157D01*
X0195582Y0205657D01*
X0190582Y0205657D01*
X0188082Y0208157D01*
X0198082Y0208157D02*
X0198082Y0213157D01*
X0208082Y0213157D02*
X0208082Y0208157D01*
X0205582Y0025657D02*
X0200582Y0025657D01*
X0198082Y0023157D01*
X0198082Y0018157D01*
X0200582Y0015657D01*
X0205582Y0015657D01*
X0208082Y0018157D01*
X0208082Y0023157D01*
X0205582Y0025657D01*
X0208082Y0023157D02*
X0210582Y0025657D01*
X0215582Y0025657D01*
X0218082Y0023157D01*
X0220582Y0025657D01*
X0225582Y0025657D01*
X0228082Y0023157D01*
X0230582Y0025657D01*
X0235582Y0025657D01*
X0238082Y0023157D01*
X0238082Y0018157D01*
X0235582Y0015657D01*
X0230582Y0015657D01*
X0228082Y0018157D01*
X0225582Y0015657D01*
X0220582Y0015657D01*
X0218082Y0018157D01*
X0215582Y0015657D01*
X0210582Y0015657D01*
X0208082Y0018157D01*
X0218082Y0018157D02*
X0218082Y0023157D01*
X0228082Y0023157D02*
X0228082Y0018157D01*
X0243082Y0018157D02*
X0245582Y0015657D01*
X0250582Y0015657D01*
X0253082Y0018157D01*
X0255582Y0015657D01*
X0260582Y0015657D01*
X0263082Y0018157D01*
X0263082Y0023157D01*
X0260582Y0025657D01*
X0255582Y0025657D01*
X0253082Y0023157D01*
X0253082Y0018157D01*
X0263082Y0018157D02*
X0265582Y0015657D01*
X0270582Y0015657D01*
X0273082Y0018157D01*
X0275582Y0015657D01*
X0280582Y0015657D01*
X0283082Y0018157D01*
X0285582Y0015657D01*
X0290582Y0015657D01*
X0293082Y0018157D01*
X0293082Y0023157D01*
X0290582Y0025657D01*
X0285582Y0025657D01*
X0283082Y0023157D01*
X0283082Y0018157D01*
X0293082Y0018157D02*
X0295582Y0015657D01*
X0300582Y0015657D01*
X0303082Y0018157D01*
X0305582Y0015657D01*
X0310582Y0015657D01*
X0313082Y0018157D01*
X0315582Y0015657D01*
X0320582Y0015657D01*
X0323082Y0018157D01*
X0323082Y0023157D01*
X0320582Y0025657D01*
X0315582Y0025657D01*
X0313082Y0023157D01*
X0313082Y0018157D01*
X0303082Y0018157D02*
X0303082Y0023157D01*
X0305582Y0025657D01*
X0310582Y0025657D01*
X0313082Y0023157D01*
X0303082Y0023157D02*
X0300582Y0025657D01*
X0295582Y0025657D01*
X0293082Y0023157D01*
X0283082Y0023157D02*
X0280582Y0025657D01*
X0275582Y0025657D01*
X0273082Y0023157D01*
X0273082Y0018157D01*
X0273082Y0023157D02*
X0270582Y0025657D01*
X0265582Y0025657D01*
X0263082Y0023157D01*
X0253082Y0023157D02*
X0250582Y0025657D01*
X0245582Y0025657D01*
X0243082Y0023157D01*
X0243082Y0018157D01*
X0198082Y0018157D02*
X0195582Y0015657D01*
X0190582Y0015657D01*
X0188082Y0018157D01*
X0185582Y0015657D01*
X0180582Y0015657D01*
X0178082Y0018157D01*
X0175582Y0015657D01*
X0170582Y0015657D01*
X0168082Y0018157D01*
X0165582Y0015657D01*
X0160582Y0015657D01*
X0158082Y0018157D01*
X0158082Y0023157D01*
X0160582Y0025657D01*
X0165582Y0025657D01*
X0168082Y0023157D01*
X0170582Y0025657D01*
X0175582Y0025657D01*
X0178082Y0023157D01*
X0178082Y0018157D01*
X0168082Y0018157D02*
X0168082Y0023157D01*
X0178082Y0023157D02*
X0180582Y0025657D01*
X0185582Y0025657D01*
X0188082Y0023157D01*
X0190582Y0025657D01*
X0195582Y0025657D01*
X0198082Y0023157D01*
X0188082Y0023157D02*
X0188082Y0018157D01*
X0148082Y0018157D02*
X0145582Y0015657D01*
X0140582Y0015657D01*
X0138082Y0018157D01*
X0135582Y0015657D01*
X0130582Y0015657D01*
X0128082Y0018157D01*
X0125582Y0015657D01*
X0120582Y0015657D01*
X0118082Y0018157D01*
X0115582Y0015657D01*
X0110582Y0015657D01*
X0108082Y0018157D01*
X0105582Y0015657D01*
X0100582Y0015657D01*
X0098082Y0018157D01*
X0095582Y0015657D01*
X0090582Y0015657D01*
X0088082Y0018157D01*
X0085582Y0015657D01*
X0080582Y0015657D01*
X0078082Y0018157D01*
X0075582Y0015657D01*
X0070582Y0015657D01*
X0068082Y0018157D01*
X0068082Y0023157D01*
X0070582Y0025657D01*
X0075582Y0025657D01*
X0078082Y0023157D01*
X0080582Y0025657D01*
X0085582Y0025657D01*
X0088082Y0023157D01*
X0088082Y0018157D01*
X0078082Y0018157D02*
X0078082Y0023157D01*
X0088082Y0023157D02*
X0090582Y0025657D01*
X0095582Y0025657D01*
X0098082Y0023157D01*
X0100582Y0025657D01*
X0105582Y0025657D01*
X0108082Y0023157D01*
X0110582Y0025657D01*
X0115582Y0025657D01*
X0118082Y0023157D01*
X0118082Y0018157D01*
X0108082Y0018157D02*
X0108082Y0023157D01*
X0098082Y0023157D02*
X0098082Y0018157D01*
X0118082Y0023157D02*
X0120582Y0025657D01*
X0125582Y0025657D01*
X0128082Y0023157D01*
X0130582Y0025657D01*
X0135582Y0025657D01*
X0138082Y0023157D01*
X0140582Y0025657D01*
X0145582Y0025657D01*
X0148082Y0023157D01*
X0148082Y0018157D01*
X0138082Y0018157D02*
X0138082Y0023157D01*
X0128082Y0023157D02*
X0128082Y0018157D01*
D216*
X0314991Y0190625D02*
X0315758Y0190625D01*
X0315758Y0191392D01*
X0314991Y0191392D01*
X0314991Y0190625D01*
X0317293Y0190625D02*
X0320362Y0190625D01*
X0318827Y0190625D02*
X0318827Y0195229D01*
X0317293Y0193694D01*
X0321897Y0193694D02*
X0321897Y0191392D01*
X0322664Y0190625D01*
X0324966Y0190625D01*
X0324966Y0193694D01*
X0326500Y0192927D02*
X0328035Y0192927D01*
X0326500Y0190625D02*
X0326500Y0195229D01*
X0329570Y0195229D01*
X0140781Y0197964D02*
X0137711Y0197964D01*
X0137711Y0193360D01*
X0136177Y0193360D02*
X0136177Y0196429D01*
X0137711Y0195662D02*
X0139246Y0195662D01*
X0136177Y0193360D02*
X0133875Y0193360D01*
X0133107Y0194127D01*
X0133107Y0196429D01*
X0131573Y0193360D02*
X0128503Y0193360D01*
X0126969Y0193360D02*
X0126202Y0193360D01*
X0126202Y0194127D01*
X0126969Y0194127D01*
X0126969Y0193360D01*
X0130038Y0193360D02*
X0130038Y0197964D01*
X0128503Y0196429D01*
X0078843Y0208249D02*
X0078076Y0207482D01*
X0076541Y0207482D01*
X0075774Y0208249D01*
X0078843Y0211319D01*
X0078843Y0208249D01*
X0075774Y0208249D02*
X0075774Y0211319D01*
X0076541Y0212086D01*
X0078076Y0212086D01*
X0078843Y0211319D01*
X0074239Y0211319D02*
X0071170Y0208249D01*
X0071170Y0207482D01*
X0069635Y0207482D02*
X0066566Y0207482D01*
X0069635Y0210551D01*
X0069635Y0211319D01*
X0068868Y0212086D01*
X0067333Y0212086D01*
X0066566Y0211319D01*
X0071170Y0212086D02*
X0074239Y0212086D01*
X0074239Y0211319D01*
X0040832Y0207633D02*
X0040759Y0207556D01*
X0040684Y0207481D01*
X0040606Y0207410D01*
X0040525Y0207341D01*
X0040442Y0207275D01*
X0040357Y0207212D01*
X0040269Y0207153D01*
X0040180Y0207096D01*
X0040088Y0207043D01*
X0039994Y0206993D01*
X0039899Y0206947D01*
X0039802Y0206904D01*
X0039704Y0206865D01*
X0039604Y0206829D01*
X0039503Y0206797D01*
X0039401Y0206769D01*
X0039298Y0206744D01*
X0039194Y0206723D01*
X0039089Y0206706D01*
X0038984Y0206692D01*
X0038879Y0206683D01*
X0038773Y0206677D01*
X0038667Y0206675D01*
X0038561Y0206677D01*
X0038455Y0206683D01*
X0038350Y0206692D01*
X0038245Y0206706D01*
X0038140Y0206723D01*
X0038036Y0206744D01*
X0037933Y0206769D01*
X0037831Y0206797D01*
X0037730Y0206829D01*
X0037630Y0206865D01*
X0037532Y0206904D01*
X0037435Y0206947D01*
X0037340Y0206993D01*
X0037246Y0207043D01*
X0037154Y0207096D01*
X0037065Y0207153D01*
X0036977Y0207212D01*
X0036892Y0207275D01*
X0036809Y0207341D01*
X0036728Y0207410D01*
X0036650Y0207481D01*
X0036575Y0207556D01*
X0036502Y0207633D01*
X0036502Y0211569D02*
X0036575Y0211646D01*
X0036650Y0211721D01*
X0036728Y0211792D01*
X0036809Y0211861D01*
X0036892Y0211927D01*
X0036977Y0211990D01*
X0037065Y0212049D01*
X0037154Y0212106D01*
X0037246Y0212159D01*
X0037340Y0212209D01*
X0037435Y0212255D01*
X0037532Y0212298D01*
X0037630Y0212337D01*
X0037730Y0212373D01*
X0037831Y0212405D01*
X0037933Y0212433D01*
X0038036Y0212458D01*
X0038140Y0212479D01*
X0038245Y0212496D01*
X0038350Y0212510D01*
X0038455Y0212519D01*
X0038561Y0212525D01*
X0038667Y0212527D01*
X0038773Y0212525D01*
X0038879Y0212519D01*
X0038984Y0212510D01*
X0039089Y0212496D01*
X0039194Y0212479D01*
X0039298Y0212458D01*
X0039401Y0212433D01*
X0039503Y0212405D01*
X0039604Y0212373D01*
X0039704Y0212337D01*
X0039802Y0212298D01*
X0039899Y0212255D01*
X0039994Y0212209D01*
X0040088Y0212159D01*
X0040180Y0212106D01*
X0040269Y0212049D01*
X0040357Y0211990D01*
X0040442Y0211927D01*
X0040525Y0211861D01*
X0040606Y0211792D01*
X0040684Y0211721D01*
X0040759Y0211646D01*
X0040832Y0211569D01*
X0028252Y0212046D02*
X0028252Y0209744D01*
X0023648Y0209744D01*
X0023648Y0212046D01*
X0024415Y0212814D01*
X0025183Y0212814D01*
X0025950Y0212046D01*
X0025950Y0209744D01*
X0026717Y0208210D02*
X0027485Y0208210D01*
X0028252Y0207442D01*
X0028252Y0205908D01*
X0027485Y0205140D01*
X0027485Y0203606D02*
X0023648Y0203606D01*
X0024415Y0205140D02*
X0025183Y0205140D01*
X0025950Y0205908D01*
X0025950Y0207442D01*
X0026717Y0208210D01*
X0024415Y0208210D02*
X0023648Y0207442D01*
X0023648Y0205908D01*
X0024415Y0205140D01*
X0027485Y0203606D02*
X0028252Y0202838D01*
X0028252Y0201304D01*
X0027485Y0200536D01*
X0023648Y0200536D01*
X0025950Y0212046D02*
X0026717Y0212814D01*
X0027485Y0212814D01*
X0028252Y0212046D01*
D217*
X0038667Y0209601D03*
D218*
X0036600Y0211865D03*
D219*
X0114289Y0177166D02*
X0119407Y0182284D01*
X0131218Y0182284D01*
X0131218Y0179686D01*
X0141848Y0179686D01*
X0141848Y0182284D01*
X0158383Y0182284D01*
X0158383Y0182048D02*
X0158383Y0176143D01*
X0158383Y0126536D02*
X0158383Y0120631D01*
X0158383Y0120395D02*
X0141454Y0120395D01*
X0141454Y0122993D01*
X0130824Y0122993D01*
X0130824Y0120395D01*
X0114289Y0120395D01*
X0114289Y0120631D02*
X0114289Y0126536D01*
X0113715Y0060504D02*
X0108715Y0060504D01*
X0106215Y0058004D01*
X0106215Y0053004D01*
X0108715Y0050504D01*
X0106215Y0048004D01*
X0106215Y0043004D01*
X0108715Y0040504D01*
X0106215Y0038004D01*
X0106215Y0033004D01*
X0108715Y0030504D01*
X0113715Y0030504D01*
X0116215Y0033004D01*
X0116215Y0038004D01*
X0113715Y0040504D01*
X0116215Y0043004D01*
X0116215Y0048004D01*
X0113715Y0050504D01*
X0116215Y0053004D01*
X0116215Y0058004D01*
X0113715Y0060504D01*
X0120095Y0057527D02*
X0120095Y0052527D01*
X0122595Y0050027D01*
X0120095Y0047527D01*
X0120095Y0042527D01*
X0122595Y0040027D01*
X0120095Y0037527D01*
X0120095Y0032527D01*
X0122595Y0030027D01*
X0127595Y0030027D01*
X0130095Y0032527D01*
X0130095Y0037527D01*
X0127595Y0040027D01*
X0130095Y0042527D01*
X0130095Y0047527D01*
X0127595Y0050027D01*
X0130095Y0052527D01*
X0130095Y0057527D01*
X0127595Y0060027D01*
X0122595Y0060027D01*
X0120095Y0057527D01*
X0133333Y0057539D02*
X0133333Y0052539D01*
X0135833Y0050039D01*
X0133333Y0047539D01*
X0133333Y0042539D01*
X0135833Y0040039D01*
X0133333Y0037539D01*
X0133333Y0032539D01*
X0135833Y0030039D01*
X0140833Y0030039D01*
X0143333Y0032539D01*
X0143333Y0037539D01*
X0140833Y0040039D01*
X0143333Y0042539D01*
X0143333Y0047539D01*
X0140833Y0050039D01*
X0143333Y0052539D01*
X0143333Y0057539D01*
X0140833Y0060039D01*
X0135833Y0060039D01*
X0133333Y0057539D01*
X0146285Y0058147D02*
X0146285Y0053147D01*
X0148785Y0050647D01*
X0146285Y0048147D01*
X0146285Y0043147D01*
X0148785Y0040647D01*
X0146285Y0038147D01*
X0146285Y0033147D01*
X0148785Y0030647D01*
X0153785Y0030647D01*
X0156285Y0033147D01*
X0156285Y0038147D01*
X0153785Y0040647D01*
X0156285Y0043147D01*
X0156285Y0048147D01*
X0153785Y0050647D01*
X0156285Y0053147D01*
X0156285Y0058147D01*
X0153785Y0060647D01*
X0148785Y0060647D01*
X0146285Y0058147D01*
X0158783Y0058104D02*
X0158783Y0053104D01*
X0161283Y0050604D01*
X0158783Y0048104D01*
X0158783Y0043104D01*
X0161283Y0040604D01*
X0158783Y0038104D01*
X0158783Y0033104D01*
X0161283Y0030604D01*
X0166283Y0030604D01*
X0168783Y0033104D01*
X0168783Y0038104D01*
X0166283Y0040604D01*
X0168783Y0043104D01*
X0168783Y0048104D01*
X0166283Y0050604D01*
X0168783Y0053104D01*
X0168783Y0058104D01*
X0166283Y0060604D01*
X0161283Y0060604D01*
X0158783Y0058104D01*
X0170789Y0058040D02*
X0170789Y0053040D01*
X0173289Y0050540D01*
X0170789Y0048040D01*
X0170789Y0043040D01*
X0173289Y0040540D01*
X0170789Y0038040D01*
X0170789Y0033040D01*
X0173289Y0030540D01*
X0178289Y0030540D01*
X0180789Y0033040D01*
X0180789Y0038040D01*
X0178289Y0040540D01*
X0180789Y0043040D01*
X0180789Y0048040D01*
X0178289Y0050540D01*
X0180789Y0053040D01*
X0180789Y0058040D01*
X0178289Y0060540D01*
X0173289Y0060540D01*
X0170789Y0058040D01*
X0294118Y0116998D02*
X0310653Y0116998D01*
X0310653Y0119596D01*
X0321283Y0119596D01*
X0321283Y0116998D01*
X0338212Y0116998D01*
X0338212Y0117234D02*
X0338212Y0123140D01*
X0294118Y0123140D02*
X0294118Y0117234D01*
X0338212Y0172746D02*
X0338212Y0178652D01*
X0338212Y0178888D02*
X0321677Y0178888D01*
X0321677Y0176289D01*
X0311047Y0176289D01*
X0311047Y0178888D01*
X0299236Y0178888D01*
X0294118Y0173770D01*
X0346660Y0052826D02*
X0352959Y0052826D01*
X0346660Y0052826D02*
X0346660Y0046527D01*
X0371660Y0052826D02*
X0402959Y0052826D01*
X0402959Y0018968D01*
X0346660Y0018968D01*
X0346660Y0025267D01*
D220*
X0282499Y0134120D03*
X0270688Y0134120D03*
X0266772Y0142984D03*
X0254961Y0142984D03*
X0254577Y0166533D03*
X0266388Y0166533D03*
X0270677Y0175982D03*
X0282488Y0175982D03*
X0353453Y0175521D03*
X0365264Y0175521D03*
X0369402Y0184125D03*
X0381213Y0184125D03*
X0381994Y0145437D03*
X0370183Y0145437D03*
X0366469Y0136321D03*
X0354658Y0136321D03*
X0197759Y0145313D03*
X0185948Y0145313D03*
X0181489Y0136207D03*
X0169678Y0136207D03*
X0101754Y0138789D03*
X0089943Y0138789D03*
X0086231Y0147677D03*
X0074420Y0147677D03*
X0090320Y0175932D03*
X0086563Y0184575D03*
X0074752Y0184575D03*
X0102131Y0175932D03*
X0169904Y0184764D03*
X0181716Y0184764D03*
X0185509Y0176193D03*
X0197320Y0176193D03*
D221*
X0200123Y0186657D02*
X0200123Y0124157D01*
X0222760Y0124157D02*
X0222760Y0186657D01*
X0223745Y0186657D02*
X0223745Y0124157D01*
X0246383Y0124157D02*
X0246383Y0186657D01*
X0381904Y0186657D02*
X0381904Y0124157D01*
X0404542Y0124157D02*
X0404542Y0186657D01*
X0072222Y0186657D02*
X0072222Y0124157D01*
X0049585Y0124157D02*
X0049585Y0186657D01*
M02*
