G75*
%MOIN*%
%OFA0B0*%
%FSLAX25Y25*%
%IPPOS*%
%LPD*%
%AMOC8*
5,1,8,0,0,1.08239X$1,22.5*
%
%ADD10C,0.01000*%
%ADD11R,0.06299X0.07098*%
%ADD12R,0.05118X0.05906*%
%ADD13R,0.08661X0.02362*%
%ADD14R,0.07874X0.07874*%
D10*
X0023777Y0020657D02*
X0033777Y0010657D01*
X0404978Y0010657D01*
X0404978Y0219319D01*
X0023777Y0219319D01*
X0023748Y0219267D01*
X0013777Y0209968D01*
X0013777Y0070657D01*
X0023777Y0060657D01*
X0023777Y0020657D01*
D11*
X0033764Y0209601D03*
X0044961Y0209601D03*
X0364659Y0065570D03*
X0375855Y0065570D03*
D12*
X0353660Y0065509D03*
X0346180Y0065509D03*
X0318332Y0160370D03*
X0310852Y0160370D03*
X0302003Y0160273D03*
X0294523Y0160273D03*
X0138455Y0160370D03*
X0130974Y0160370D03*
X0122130Y0160370D03*
X0114650Y0160370D03*
X0061164Y0209846D03*
X0053684Y0209846D03*
D13*
X0096418Y0146670D03*
X0096418Y0141670D03*
X0096418Y0136670D03*
X0096418Y0131670D03*
X0096418Y0126670D03*
X0096418Y0121670D03*
X0096418Y0116670D03*
X0096418Y0111670D03*
X0096418Y0106670D03*
X0096418Y0101670D03*
X0147599Y0101670D03*
X0147599Y0106670D03*
X0147599Y0111670D03*
X0147599Y0116670D03*
X0147599Y0121670D03*
X0147599Y0126670D03*
X0147599Y0131670D03*
X0147599Y0136670D03*
X0147599Y0141670D03*
X0147599Y0146670D03*
X0276247Y0146670D03*
X0276247Y0141670D03*
X0276247Y0136670D03*
X0276247Y0131670D03*
X0276247Y0126670D03*
X0276247Y0121670D03*
X0276247Y0116670D03*
X0276247Y0111670D03*
X0276247Y0106670D03*
X0276247Y0101670D03*
X0327428Y0101670D03*
X0327428Y0106670D03*
X0327428Y0111670D03*
X0327428Y0116670D03*
X0327428Y0121670D03*
X0327428Y0126670D03*
X0327428Y0131670D03*
X0327428Y0136670D03*
X0327428Y0141670D03*
X0327428Y0146670D03*
D14*
X0262252Y0145096D03*
X0246579Y0145096D03*
X0246579Y0160844D03*
X0262252Y0160844D03*
X0261155Y0123644D03*
X0245629Y0123644D03*
X0245629Y0107896D03*
X0261155Y0107896D03*
X0177526Y0107896D03*
X0161256Y0107896D03*
X0161256Y0123644D03*
X0177526Y0123644D03*
X0177087Y0145096D03*
X0161483Y0145096D03*
X0161483Y0160844D03*
X0177087Y0160844D03*
X0081898Y0160844D03*
X0066330Y0160844D03*
X0066330Y0145096D03*
X0081898Y0145096D03*
X0081675Y0123644D03*
X0065984Y0123644D03*
X0065984Y0107896D03*
X0081675Y0107896D03*
M02*
