G75*
%MOIN*%
%OFA0B0*%
%FSLAX25Y25*%
%IPPOS*%
%LPD*%
%AMOC8*
5,1,8,0,0,1.08239X$1,22.5*
%
%ADD10C,0.01000*%
%ADD11C,0.06000*%
%ADD12OC8,0.06000*%
%ADD13C,0.05150*%
%ADD14C,0.07874*%
%ADD15C,0.05543*%
%ADD16C,0.07400*%
%ADD17C,0.02400*%
%ADD18C,0.04362*%
%ADD19C,0.05600*%
%ADD20C,0.01600*%
%ADD21C,0.03200*%
D10*
X0023082Y0020657D02*
X0033082Y0010657D01*
X0404283Y0010657D01*
X0404283Y0219319D01*
X0023082Y0219319D01*
X0023053Y0219267D01*
X0013082Y0209968D01*
X0013082Y0070657D01*
X0023082Y0060657D01*
X0023082Y0020657D01*
D11*
X0073082Y0017657D02*
X0073082Y0023657D01*
X0083082Y0023657D02*
X0083082Y0017657D01*
X0093082Y0017657D02*
X0093082Y0023657D01*
X0103082Y0023657D02*
X0103082Y0017657D01*
X0113082Y0017657D02*
X0113082Y0023657D01*
X0123082Y0023657D02*
X0123082Y0017657D01*
X0133082Y0017657D02*
X0133082Y0023657D01*
X0143082Y0023657D02*
X0143082Y0017657D01*
X0163082Y0017657D02*
X0163082Y0023657D01*
X0173082Y0023657D02*
X0173082Y0017657D01*
X0183082Y0017657D02*
X0183082Y0023657D01*
X0193082Y0023657D02*
X0193082Y0017657D01*
X0203082Y0017657D02*
X0203082Y0023657D01*
X0213082Y0023657D02*
X0213082Y0017657D01*
X0223082Y0017657D02*
X0223082Y0023657D01*
X0233082Y0023657D02*
X0233082Y0017657D01*
X0248082Y0017657D02*
X0248082Y0023657D01*
X0258082Y0023657D02*
X0258082Y0017657D01*
X0268082Y0017657D02*
X0268082Y0023657D01*
X0278082Y0023657D02*
X0278082Y0017657D01*
X0288082Y0017657D02*
X0288082Y0023657D01*
X0298082Y0023657D02*
X0298082Y0017657D01*
X0308082Y0017657D02*
X0308082Y0023657D01*
X0318082Y0023657D02*
X0318082Y0017657D01*
X0213082Y0207657D02*
X0213082Y0213657D01*
X0203082Y0213657D02*
X0203082Y0207657D01*
X0193082Y0207657D02*
X0193082Y0213657D01*
X0183082Y0213657D02*
X0183082Y0207657D01*
X0173082Y0207657D02*
X0173082Y0213657D01*
X0163082Y0213657D02*
X0163082Y0207657D01*
X0153082Y0207657D02*
X0153082Y0213657D01*
X0143082Y0213657D02*
X0143082Y0207657D01*
D12*
X0043082Y0190657D03*
X0033082Y0190657D03*
X0033082Y0180657D03*
X0043082Y0180657D03*
X0043082Y0170657D03*
X0033082Y0170657D03*
X0033082Y0160657D03*
X0043082Y0160657D03*
X0043082Y0150657D03*
X0033082Y0150657D03*
X0033082Y0140657D03*
X0043082Y0140657D03*
X0043082Y0130657D03*
X0033082Y0130657D03*
X0033082Y0120657D03*
X0043082Y0120657D03*
X0043082Y0110657D03*
X0033082Y0110657D03*
X0033082Y0100657D03*
X0043082Y0100657D03*
X0043082Y0090657D03*
X0033082Y0090657D03*
X0033082Y0080657D03*
X0043082Y0080657D03*
X0043082Y0070657D03*
X0033082Y0070657D03*
X0033082Y0060657D03*
X0043082Y0060657D03*
X0043082Y0050657D03*
X0033082Y0050657D03*
X0033082Y0040657D03*
X0043082Y0040657D03*
X0043082Y0030657D03*
X0033082Y0030657D03*
X0033082Y0020657D03*
X0043082Y0020657D03*
D13*
X0136336Y0126340D03*
X0136336Y0136340D03*
X0136336Y0146340D03*
X0136336Y0156340D03*
X0136336Y0166340D03*
X0136336Y0176340D03*
X0316165Y0172943D03*
X0316165Y0162943D03*
X0316165Y0152943D03*
X0316165Y0142943D03*
X0316165Y0132943D03*
X0316165Y0122943D03*
D14*
X0358117Y0054519D02*
X0365991Y0054519D01*
X0373826Y0039834D02*
X0373826Y0031960D01*
X0350295Y0031980D02*
X0350295Y0039854D01*
D15*
X0393223Y0132445D03*
X0393223Y0142287D03*
X0393223Y0152130D03*
X0393223Y0161972D03*
X0393223Y0171815D03*
X0393223Y0181657D03*
X0235064Y0181657D03*
X0235064Y0171815D03*
X0235064Y0161972D03*
X0235064Y0152130D03*
X0235064Y0142287D03*
X0235064Y0132445D03*
X0211441Y0132445D03*
X0211441Y0142287D03*
X0211441Y0152130D03*
X0211441Y0161972D03*
X0211441Y0171815D03*
X0211441Y0181657D03*
X0060903Y0181657D03*
X0060903Y0171815D03*
X0060903Y0161972D03*
X0060903Y0152130D03*
X0060903Y0142287D03*
X0060903Y0132445D03*
D16*
X0111715Y0055504D03*
X0125595Y0055027D03*
X0138833Y0055039D03*
X0151785Y0055647D03*
X0164283Y0055604D03*
X0176289Y0055540D03*
X0175289Y0045540D03*
X0163283Y0045604D03*
X0164283Y0035604D03*
X0176289Y0035540D03*
X0151785Y0035647D03*
X0138833Y0035039D03*
X0137833Y0045039D03*
X0150785Y0045647D03*
X0124595Y0045027D03*
X0110715Y0045504D03*
X0111715Y0035504D03*
X0125595Y0035027D03*
D17*
X0120260Y0037041D02*
X0117248Y0037041D01*
X0117415Y0036638D02*
X0116547Y0038733D01*
X0114944Y0040336D01*
X0113999Y0040728D01*
X0115127Y0041855D01*
X0116388Y0041855D01*
X0117711Y0042403D01*
X0118723Y0043416D01*
X0118908Y0043862D01*
X0119763Y0041799D01*
X0121367Y0040195D01*
X0122311Y0039804D01*
X0120763Y0038256D01*
X0119895Y0036161D01*
X0119895Y0033894D01*
X0120763Y0031799D01*
X0122367Y0030195D01*
X0124462Y0029327D01*
X0126729Y0029327D01*
X0128824Y0030195D01*
X0130428Y0031799D01*
X0131295Y0033894D01*
X0131295Y0036161D01*
X0130428Y0038256D01*
X0128824Y0039860D01*
X0127880Y0040251D01*
X0129428Y0041799D01*
X0130295Y0043894D01*
X0130295Y0046161D01*
X0129428Y0048256D01*
X0128035Y0049649D01*
X0128688Y0049981D01*
X0129439Y0050527D01*
X0130096Y0051184D01*
X0130641Y0051935D01*
X0131063Y0052763D01*
X0131350Y0053646D01*
X0131495Y0054563D01*
X0131495Y0055027D01*
X0125595Y0055027D01*
X0119695Y0055027D01*
X0119695Y0054563D01*
X0119841Y0053646D01*
X0120128Y0052763D01*
X0120549Y0051935D01*
X0121095Y0051184D01*
X0121752Y0050527D01*
X0122197Y0050204D01*
X0121367Y0049860D01*
X0119763Y0048256D01*
X0119085Y0046620D01*
X0118723Y0047495D01*
X0117711Y0048507D01*
X0116388Y0049055D01*
X0115225Y0049055D01*
X0114154Y0050126D01*
X0114807Y0050458D01*
X0115558Y0051004D01*
X0116215Y0051661D01*
X0116761Y0052412D01*
X0117183Y0053239D01*
X0117470Y0054123D01*
X0117615Y0055040D01*
X0117615Y0055504D01*
X0111715Y0055504D01*
X0111715Y0055504D01*
X0117615Y0055504D01*
X0117615Y0055969D01*
X0117470Y0056886D01*
X0117183Y0057769D01*
X0116761Y0058596D01*
X0116215Y0059348D01*
X0115558Y0060004D01*
X0114807Y0060550D01*
X0113980Y0060972D01*
X0113096Y0061259D01*
X0112179Y0061404D01*
X0111715Y0061404D01*
X0111715Y0055504D01*
X0105815Y0055504D01*
X0105815Y0055040D01*
X0105960Y0054123D01*
X0106247Y0053239D01*
X0106669Y0052412D01*
X0107215Y0051661D01*
X0107871Y0051004D01*
X0108317Y0050680D01*
X0107486Y0050336D01*
X0106205Y0049055D01*
X0075801Y0049055D01*
X0075800Y0049057D01*
X0074263Y0049694D01*
X0072599Y0049694D01*
X0071063Y0049057D01*
X0069887Y0047881D01*
X0069250Y0046344D01*
X0069250Y0044681D01*
X0069887Y0043144D01*
X0071063Y0041968D01*
X0072599Y0041331D01*
X0074263Y0041331D01*
X0075528Y0041855D01*
X0106303Y0041855D01*
X0107486Y0040672D01*
X0108430Y0040281D01*
X0106883Y0038733D01*
X0106015Y0036638D01*
X0106015Y0034370D01*
X0106883Y0032275D01*
X0108486Y0030672D01*
X0110581Y0029804D01*
X0112849Y0029804D01*
X0114944Y0030672D01*
X0116547Y0032275D01*
X0117415Y0034370D01*
X0117415Y0036638D01*
X0117415Y0034643D02*
X0119895Y0034643D01*
X0120579Y0032244D02*
X0116516Y0032244D01*
X0112948Y0029845D02*
X0123211Y0029845D01*
X0124077Y0028657D02*
X0122088Y0028657D01*
X0120250Y0027896D01*
X0118843Y0026490D01*
X0118082Y0024652D01*
X0117321Y0026490D01*
X0115915Y0027896D01*
X0114077Y0028657D01*
X0112088Y0028657D01*
X0110250Y0027896D01*
X0108843Y0026490D01*
X0108082Y0024652D01*
X0107321Y0026490D01*
X0105915Y0027896D01*
X0104077Y0028657D01*
X0102088Y0028657D01*
X0100250Y0027896D01*
X0098843Y0026490D01*
X0098082Y0024652D01*
X0097321Y0026490D01*
X0095915Y0027896D01*
X0094077Y0028657D01*
X0092088Y0028657D01*
X0090250Y0027896D01*
X0088843Y0026490D01*
X0088082Y0024652D01*
X0087321Y0026490D01*
X0085915Y0027896D01*
X0085500Y0028068D01*
X0085500Y0029782D01*
X0085013Y0030958D01*
X0082066Y0033905D01*
X0081166Y0034805D01*
X0079990Y0035293D01*
X0063288Y0035293D01*
X0062219Y0036362D01*
X0062219Y0083819D01*
X0077492Y0099093D01*
X0217368Y0099093D01*
X0216595Y0098320D01*
X0215959Y0096783D01*
X0215959Y0096296D01*
X0195458Y0075795D01*
X0195231Y0075795D01*
X0193695Y0075158D01*
X0192519Y0073982D01*
X0191882Y0072445D01*
X0191882Y0070782D01*
X0192519Y0069245D01*
X0193695Y0068069D01*
X0195231Y0067432D01*
X0196895Y0067432D01*
X0197430Y0067654D01*
X0197009Y0066640D01*
X0197009Y0064977D01*
X0197646Y0063440D01*
X0198822Y0062264D01*
X0200359Y0061627D01*
X0202022Y0061627D01*
X0203559Y0062264D01*
X0204735Y0063440D01*
X0205372Y0064977D01*
X0205372Y0065400D01*
X0226964Y0086992D01*
X0227451Y0086992D01*
X0228988Y0087628D01*
X0230164Y0088805D01*
X0230800Y0090341D01*
X0230800Y0092005D01*
X0230164Y0093541D01*
X0228988Y0094718D01*
X0227451Y0095354D01*
X0225787Y0095354D01*
X0224251Y0094718D01*
X0224086Y0094553D01*
X0224321Y0095120D01*
X0224321Y0096783D01*
X0223685Y0098320D01*
X0222912Y0099093D01*
X0231357Y0099093D01*
X0231702Y0098748D01*
X0233238Y0098112D01*
X0234902Y0098112D01*
X0236439Y0098748D01*
X0237615Y0099924D01*
X0238251Y0101461D01*
X0238251Y0103124D01*
X0237615Y0104661D01*
X0236439Y0105837D01*
X0234902Y0106474D01*
X0233238Y0106474D01*
X0231702Y0105837D01*
X0231357Y0105493D01*
X0230442Y0105493D01*
X0230908Y0105959D01*
X0231544Y0107496D01*
X0231544Y0109159D01*
X0230908Y0110696D01*
X0229732Y0111872D01*
X0228195Y0112508D01*
X0226532Y0112508D01*
X0224995Y0111872D01*
X0224648Y0111525D01*
X0103866Y0111415D01*
X0105137Y0112699D01*
X0105860Y0114466D01*
X0105597Y0172252D01*
X0124518Y0191172D01*
X0125248Y0192936D01*
X0125248Y0194846D01*
X0124518Y0196610D01*
X0123167Y0197960D01*
X0121403Y0198691D01*
X0119494Y0198691D01*
X0117729Y0197960D01*
X0098061Y0178292D01*
X0098051Y0178288D01*
X0097385Y0177616D01*
X0096719Y0176950D01*
X0096715Y0176939D01*
X0096707Y0176931D01*
X0096349Y0176057D01*
X0095988Y0175186D01*
X0095988Y0175174D01*
X0095984Y0175164D01*
X0095988Y0174220D01*
X0095988Y0173276D01*
X0095993Y0173266D01*
X0096260Y0114423D01*
X0096999Y0112662D01*
X0098262Y0111410D01*
X0072929Y0111387D01*
X0072299Y0111387D01*
X0072298Y0111387D01*
X0072296Y0111387D01*
X0071706Y0111142D01*
X0071123Y0110900D01*
X0071122Y0110899D01*
X0071120Y0110898D01*
X0070671Y0110448D01*
X0050151Y0089928D01*
X0049664Y0088752D01*
X0049664Y0027437D01*
X0050151Y0026261D01*
X0051051Y0025361D01*
X0051051Y0025361D01*
X0058467Y0017945D01*
X0059643Y0017457D01*
X0068082Y0017457D01*
X0068082Y0016663D01*
X0068209Y0016357D01*
X0045853Y0016357D01*
X0048082Y0018586D01*
X0048082Y0022728D01*
X0045153Y0025657D01*
X0048082Y0028586D01*
X0048082Y0032728D01*
X0045153Y0035657D01*
X0041011Y0035657D01*
X0038082Y0032728D01*
X0035153Y0035657D01*
X0038082Y0038586D01*
X0038082Y0042728D01*
X0035153Y0045657D01*
X0038082Y0048586D01*
X0038082Y0052728D01*
X0035153Y0055657D01*
X0038082Y0058586D01*
X0038082Y0062728D01*
X0035153Y0065657D01*
X0038082Y0068586D01*
X0038082Y0072728D01*
X0035153Y0075657D01*
X0031011Y0075657D01*
X0028082Y0072728D01*
X0028082Y0068586D01*
X0031011Y0065657D01*
X0028303Y0062949D01*
X0027914Y0063886D01*
X0026311Y0065490D01*
X0018782Y0073018D01*
X0018782Y0207490D01*
X0025354Y0213619D01*
X0138082Y0213619D01*
X0138082Y0206663D01*
X0138244Y0206273D01*
X0088404Y0206273D01*
X0087001Y0206854D01*
X0085337Y0206854D01*
X0083801Y0206218D01*
X0082625Y0205042D01*
X0081988Y0203505D01*
X0081988Y0201842D01*
X0082625Y0200305D01*
X0083801Y0199129D01*
X0085337Y0198492D01*
X0087001Y0198492D01*
X0088404Y0199073D01*
X0164621Y0199073D01*
X0161466Y0195919D01*
X0160566Y0195019D01*
X0160079Y0193843D01*
X0160079Y0191342D01*
X0159703Y0191187D01*
X0158527Y0190011D01*
X0157891Y0188474D01*
X0157891Y0186811D01*
X0158527Y0185274D01*
X0159703Y0184098D01*
X0161240Y0183461D01*
X0161682Y0183461D01*
X0170500Y0174643D01*
X0170500Y0140092D01*
X0167038Y0136630D01*
X0157146Y0136630D01*
X0156401Y0137375D01*
X0154865Y0138011D01*
X0153201Y0138011D01*
X0151664Y0137375D01*
X0150488Y0136198D01*
X0149852Y0134662D01*
X0149852Y0132998D01*
X0150488Y0131462D01*
X0151664Y0130285D01*
X0153201Y0129649D01*
X0154865Y0129649D01*
X0156401Y0130285D01*
X0157146Y0131030D01*
X0168755Y0131030D01*
X0169784Y0131456D01*
X0174886Y0136558D01*
X0175674Y0137346D01*
X0176100Y0138375D01*
X0176100Y0176360D01*
X0175674Y0177389D01*
X0166253Y0186810D01*
X0166253Y0186811D01*
X0166253Y0187667D01*
X0166479Y0188213D01*
X0166479Y0191881D01*
X0173672Y0199073D01*
X0220459Y0199073D01*
X0220405Y0198942D01*
X0220405Y0195412D01*
X0220060Y0195067D01*
X0219424Y0193530D01*
X0219424Y0191867D01*
X0220060Y0190330D01*
X0221237Y0189154D01*
X0222773Y0188518D01*
X0224437Y0188518D01*
X0225973Y0189154D01*
X0227150Y0190330D01*
X0227786Y0191867D01*
X0227786Y0193530D01*
X0227150Y0195067D01*
X0226805Y0195412D01*
X0226805Y0196980D01*
X0228898Y0199073D01*
X0340419Y0199073D01*
X0339734Y0198388D01*
X0339247Y0198388D01*
X0337710Y0197752D01*
X0336534Y0196575D01*
X0335897Y0195039D01*
X0335897Y0193375D01*
X0336534Y0191839D01*
X0337710Y0190662D01*
X0339247Y0190026D01*
X0340910Y0190026D01*
X0342447Y0190662D01*
X0343623Y0191839D01*
X0344259Y0193375D01*
X0344259Y0193863D01*
X0349470Y0199073D01*
X0389377Y0199073D01*
X0395497Y0192952D01*
X0395497Y0185880D01*
X0394172Y0186429D01*
X0392274Y0186429D01*
X0390520Y0185703D01*
X0389178Y0184360D01*
X0388451Y0182607D01*
X0388451Y0180708D01*
X0389178Y0178954D01*
X0390520Y0177612D01*
X0392274Y0176886D01*
X0394172Y0176886D01*
X0395897Y0177600D01*
X0395897Y0175872D01*
X0394172Y0176587D01*
X0392274Y0176587D01*
X0390520Y0175860D01*
X0389178Y0174518D01*
X0388451Y0172764D01*
X0388451Y0170866D01*
X0389178Y0169112D01*
X0390520Y0167770D01*
X0392274Y0167043D01*
X0394172Y0167043D01*
X0395897Y0167758D01*
X0395897Y0167441D01*
X0394899Y0166443D01*
X0394172Y0166744D01*
X0392274Y0166744D01*
X0390520Y0166018D01*
X0389178Y0164675D01*
X0388451Y0162922D01*
X0388451Y0161023D01*
X0389178Y0159269D01*
X0390520Y0157927D01*
X0392274Y0157201D01*
X0394172Y0157201D01*
X0395926Y0157927D01*
X0397268Y0159269D01*
X0397615Y0160108D01*
X0398583Y0161076D01*
X0398583Y0016357D01*
X0322956Y0016357D01*
X0323082Y0016663D01*
X0323082Y0024652D01*
X0322321Y0026490D01*
X0320915Y0027896D01*
X0319077Y0028657D01*
X0317088Y0028657D01*
X0315250Y0027896D01*
X0313843Y0026490D01*
X0313082Y0024652D01*
X0312321Y0026490D01*
X0310915Y0027896D01*
X0309077Y0028657D01*
X0307088Y0028657D01*
X0305250Y0027896D01*
X0303843Y0026490D01*
X0303082Y0024652D01*
X0302321Y0026490D01*
X0300915Y0027896D01*
X0299077Y0028657D01*
X0297088Y0028657D01*
X0295250Y0027896D01*
X0293843Y0026490D01*
X0293082Y0024652D01*
X0292321Y0026490D01*
X0290915Y0027896D01*
X0289077Y0028657D01*
X0287088Y0028657D01*
X0285250Y0027896D01*
X0283843Y0026490D01*
X0283082Y0024652D01*
X0282321Y0026490D01*
X0280915Y0027896D01*
X0279077Y0028657D01*
X0277088Y0028657D01*
X0275250Y0027896D01*
X0273843Y0026490D01*
X0273082Y0024652D01*
X0272321Y0026490D01*
X0270915Y0027896D01*
X0269077Y0028657D01*
X0267088Y0028657D01*
X0265250Y0027896D01*
X0263843Y0026490D01*
X0263082Y0024652D01*
X0262321Y0026490D01*
X0260915Y0027896D01*
X0259077Y0028657D01*
X0257088Y0028657D01*
X0255250Y0027896D01*
X0253843Y0026490D01*
X0253082Y0024652D01*
X0252321Y0026490D01*
X0250915Y0027896D01*
X0249077Y0028657D01*
X0247088Y0028657D01*
X0245250Y0027896D01*
X0243843Y0026490D01*
X0243082Y0024652D01*
X0243082Y0016663D01*
X0243209Y0016357D01*
X0237956Y0016357D01*
X0238082Y0016663D01*
X0238082Y0024652D01*
X0237321Y0026490D01*
X0235915Y0027896D01*
X0234077Y0028657D01*
X0232088Y0028657D01*
X0230250Y0027896D01*
X0228843Y0026490D01*
X0228082Y0024652D01*
X0227321Y0026490D01*
X0225915Y0027896D01*
X0224077Y0028657D01*
X0222088Y0028657D01*
X0220250Y0027896D01*
X0218843Y0026490D01*
X0218082Y0024652D01*
X0217321Y0026490D01*
X0216524Y0027287D01*
X0218073Y0028837D01*
X0294725Y0028837D01*
X0295901Y0029324D01*
X0305962Y0039385D01*
X0306862Y0040285D01*
X0307349Y0041461D01*
X0307349Y0090606D01*
X0307891Y0091148D01*
X0308527Y0092685D01*
X0308527Y0094348D01*
X0307891Y0095885D01*
X0306715Y0097061D01*
X0305178Y0097697D01*
X0303515Y0097697D01*
X0301978Y0097061D01*
X0300802Y0095885D01*
X0300165Y0094348D01*
X0300165Y0092685D01*
X0300802Y0091148D01*
X0300949Y0091001D01*
X0300949Y0043423D01*
X0292763Y0035237D01*
X0216111Y0035237D01*
X0214935Y0034749D01*
X0214035Y0033849D01*
X0210369Y0030184D01*
X0209882Y0029007D01*
X0209882Y0027528D01*
X0208843Y0026490D01*
X0208082Y0024652D01*
X0207321Y0026490D01*
X0205915Y0027896D01*
X0204077Y0028657D01*
X0202088Y0028657D01*
X0200250Y0027896D01*
X0198843Y0026490D01*
X0198082Y0024652D01*
X0197321Y0026490D01*
X0195915Y0027896D01*
X0194077Y0028657D01*
X0192088Y0028657D01*
X0190250Y0027896D01*
X0188843Y0026490D01*
X0188082Y0024652D01*
X0187321Y0026490D01*
X0185915Y0027896D01*
X0184077Y0028657D01*
X0182088Y0028657D01*
X0180250Y0027896D01*
X0178843Y0026490D01*
X0178082Y0024652D01*
X0177321Y0026490D01*
X0175915Y0027896D01*
X0174077Y0028657D01*
X0172088Y0028657D01*
X0170250Y0027896D01*
X0168843Y0026490D01*
X0168082Y0024652D01*
X0167321Y0026490D01*
X0165915Y0027896D01*
X0164077Y0028657D01*
X0162088Y0028657D01*
X0160250Y0027896D01*
X0158843Y0026490D01*
X0158082Y0024652D01*
X0158082Y0016663D01*
X0158209Y0016357D01*
X0147956Y0016357D01*
X0148082Y0016663D01*
X0148082Y0024652D01*
X0147321Y0026490D01*
X0145915Y0027896D01*
X0144077Y0028657D01*
X0142088Y0028657D01*
X0140250Y0027896D01*
X0138843Y0026490D01*
X0138082Y0024652D01*
X0137321Y0026490D01*
X0135915Y0027896D01*
X0134077Y0028657D01*
X0132088Y0028657D01*
X0130250Y0027896D01*
X0128843Y0026490D01*
X0128082Y0024652D01*
X0127321Y0026490D01*
X0125915Y0027896D01*
X0124077Y0028657D01*
X0126364Y0027447D02*
X0129801Y0027447D01*
X0127980Y0029845D02*
X0136478Y0029845D01*
X0135605Y0030207D02*
X0137700Y0029339D01*
X0139967Y0029339D01*
X0142062Y0030207D01*
X0143666Y0031811D01*
X0144533Y0033906D01*
X0144533Y0036173D01*
X0143666Y0038268D01*
X0142062Y0039872D01*
X0141118Y0040263D01*
X0142666Y0041811D01*
X0143533Y0043906D01*
X0143533Y0046173D01*
X0142666Y0048268D01*
X0141273Y0049661D01*
X0141926Y0049993D01*
X0142677Y0050539D01*
X0143334Y0051196D01*
X0143880Y0051947D01*
X0144301Y0052775D01*
X0144588Y0053658D01*
X0144733Y0054575D01*
X0144733Y0055039D01*
X0138834Y0055039D01*
X0138834Y0055040D01*
X0144733Y0055040D01*
X0144733Y0055504D01*
X0144588Y0056421D01*
X0144301Y0057304D01*
X0143880Y0058132D01*
X0143334Y0058883D01*
X0142677Y0059540D01*
X0141926Y0060086D01*
X0141098Y0060507D01*
X0140215Y0060794D01*
X0139298Y0060939D01*
X0138833Y0060939D01*
X0138369Y0060939D01*
X0137452Y0060794D01*
X0136569Y0060507D01*
X0135741Y0060086D01*
X0134990Y0059540D01*
X0134333Y0058883D01*
X0133787Y0058132D01*
X0133366Y0057304D01*
X0133079Y0056421D01*
X0132933Y0055504D01*
X0132933Y0055040D01*
X0138833Y0055040D01*
X0138833Y0060939D01*
X0138833Y0055040D01*
X0138833Y0055040D01*
X0138833Y0055039D01*
X0132933Y0055039D01*
X0132933Y0054575D01*
X0133079Y0053658D01*
X0133366Y0052775D01*
X0133787Y0051947D01*
X0134333Y0051196D01*
X0134990Y0050539D01*
X0135435Y0050216D01*
X0134605Y0049872D01*
X0133001Y0048268D01*
X0132133Y0046173D01*
X0132133Y0043906D01*
X0133001Y0041811D01*
X0134605Y0040207D01*
X0135549Y0039816D01*
X0134001Y0038268D01*
X0133133Y0036173D01*
X0133133Y0033906D01*
X0134001Y0031811D01*
X0135605Y0030207D01*
X0133822Y0032244D02*
X0130612Y0032244D01*
X0131295Y0034643D02*
X0133133Y0034643D01*
X0133493Y0037041D02*
X0130931Y0037041D01*
X0129244Y0039440D02*
X0135172Y0039440D01*
X0132990Y0041838D02*
X0129444Y0041838D01*
X0130295Y0044237D02*
X0132133Y0044237D01*
X0132325Y0046635D02*
X0130099Y0046635D01*
X0128650Y0049034D02*
X0133767Y0049034D01*
X0134162Y0051432D02*
X0130276Y0051432D01*
X0131379Y0053831D02*
X0133051Y0053831D01*
X0131495Y0055027D02*
X0131495Y0055492D01*
X0131350Y0056409D01*
X0131063Y0057292D01*
X0130641Y0058120D01*
X0130096Y0058871D01*
X0129439Y0059528D01*
X0128688Y0060074D01*
X0127860Y0060495D01*
X0126977Y0060782D01*
X0126060Y0060927D01*
X0125595Y0060927D01*
X0125131Y0060927D01*
X0124214Y0060782D01*
X0123330Y0060495D01*
X0122503Y0060074D01*
X0121752Y0059528D01*
X0121095Y0058871D01*
X0120549Y0058120D01*
X0120128Y0057292D01*
X0119841Y0056409D01*
X0119695Y0055492D01*
X0119695Y0055027D01*
X0125595Y0055027D01*
X0125595Y0055027D01*
X0125595Y0055027D01*
X0125595Y0055028D02*
X0125595Y0060927D01*
X0125595Y0055028D01*
X0125595Y0055028D01*
X0125595Y0055027D02*
X0131495Y0055027D01*
X0131379Y0056229D02*
X0133048Y0056229D01*
X0134148Y0058628D02*
X0130272Y0058628D01*
X0125595Y0058628D02*
X0125595Y0058628D01*
X0125595Y0056229D02*
X0125595Y0056229D01*
X0120918Y0058628D02*
X0116738Y0058628D01*
X0117574Y0056229D02*
X0119812Y0056229D01*
X0119811Y0053831D02*
X0117375Y0053831D01*
X0115987Y0051432D02*
X0120915Y0051432D01*
X0120540Y0049034D02*
X0116440Y0049034D01*
X0119079Y0046635D02*
X0119092Y0046635D01*
X0119747Y0041838D02*
X0115110Y0041838D01*
X0115841Y0039440D02*
X0121946Y0039440D01*
X0107589Y0039440D02*
X0062219Y0039440D01*
X0062219Y0041838D02*
X0071376Y0041838D01*
X0069434Y0044237D02*
X0062219Y0044237D01*
X0062219Y0046635D02*
X0069371Y0046635D01*
X0071039Y0049034D02*
X0062219Y0049034D01*
X0062219Y0051432D02*
X0107443Y0051432D01*
X0106055Y0053831D02*
X0062219Y0053831D01*
X0062219Y0056229D02*
X0105856Y0056229D01*
X0105815Y0055969D02*
X0105815Y0055504D01*
X0111715Y0055504D01*
X0111715Y0055504D01*
X0111715Y0055504D01*
X0111715Y0061404D01*
X0111250Y0061404D01*
X0110333Y0061259D01*
X0109450Y0060972D01*
X0108623Y0060550D01*
X0107871Y0060004D01*
X0107215Y0059348D01*
X0106669Y0058596D01*
X0106247Y0057769D01*
X0105960Y0056886D01*
X0105815Y0055969D01*
X0106691Y0058628D02*
X0062219Y0058628D01*
X0062219Y0061026D02*
X0109617Y0061026D01*
X0111715Y0061026D02*
X0111715Y0061026D01*
X0113813Y0061026D02*
X0149346Y0061026D01*
X0149520Y0061115D02*
X0148693Y0060693D01*
X0147941Y0060147D01*
X0147285Y0059491D01*
X0146739Y0058739D01*
X0146317Y0057912D01*
X0146030Y0057029D01*
X0145885Y0056111D01*
X0145885Y0055647D01*
X0145885Y0055183D01*
X0146030Y0054265D01*
X0146317Y0053382D01*
X0146739Y0052555D01*
X0147285Y0051803D01*
X0147941Y0051147D01*
X0148387Y0050823D01*
X0147556Y0050479D01*
X0145953Y0048876D01*
X0145085Y0046781D01*
X0145085Y0044513D01*
X0145953Y0042418D01*
X0147556Y0040815D01*
X0148501Y0040424D01*
X0146953Y0038876D01*
X0146085Y0036781D01*
X0146085Y0034513D01*
X0146953Y0032418D01*
X0148556Y0030815D01*
X0150651Y0029947D01*
X0152919Y0029947D01*
X0155014Y0030815D01*
X0156617Y0032418D01*
X0157485Y0034513D01*
X0157485Y0036781D01*
X0156617Y0038876D01*
X0155014Y0040479D01*
X0154069Y0040870D01*
X0155617Y0042418D01*
X0156485Y0044513D01*
X0156485Y0046781D01*
X0155617Y0048876D01*
X0154225Y0050268D01*
X0154877Y0050601D01*
X0155629Y0051147D01*
X0156285Y0051803D01*
X0156831Y0052555D01*
X0157253Y0053382D01*
X0157540Y0054265D01*
X0157685Y0055183D01*
X0157685Y0055647D01*
X0151785Y0055647D01*
X0145885Y0055647D01*
X0151785Y0055647D01*
X0151785Y0055647D01*
X0151785Y0055647D01*
X0151785Y0061547D01*
X0151321Y0061547D01*
X0150403Y0061402D01*
X0149520Y0061115D01*
X0151785Y0061026D02*
X0151785Y0061026D01*
X0151785Y0061547D02*
X0152249Y0061547D01*
X0153167Y0061402D01*
X0154050Y0061115D01*
X0154877Y0060693D01*
X0155629Y0060147D01*
X0156285Y0059491D01*
X0156831Y0058739D01*
X0157253Y0057912D01*
X0157540Y0057029D01*
X0157685Y0056111D01*
X0157685Y0055647D01*
X0151785Y0055647D01*
X0151785Y0055647D01*
X0151785Y0061547D01*
X0154224Y0061026D02*
X0161929Y0061026D01*
X0162018Y0061072D02*
X0161191Y0060650D01*
X0160439Y0060104D01*
X0159783Y0059448D01*
X0159237Y0058696D01*
X0158815Y0057869D01*
X0158528Y0056986D01*
X0158383Y0056068D01*
X0158383Y0055604D01*
X0158383Y0055140D01*
X0158528Y0054222D01*
X0158815Y0053339D01*
X0159237Y0052512D01*
X0159783Y0051760D01*
X0160439Y0051104D01*
X0160885Y0050780D01*
X0160054Y0050436D01*
X0158451Y0048833D01*
X0157583Y0046738D01*
X0157583Y0044470D01*
X0158451Y0042375D01*
X0160054Y0040772D01*
X0160998Y0040381D01*
X0159451Y0038833D01*
X0158583Y0036738D01*
X0158583Y0034470D01*
X0159451Y0032375D01*
X0161054Y0030772D01*
X0163149Y0029904D01*
X0165417Y0029904D01*
X0167512Y0030772D01*
X0169115Y0032375D01*
X0169983Y0034470D01*
X0169983Y0036738D01*
X0169115Y0038833D01*
X0167512Y0040436D01*
X0166567Y0040827D01*
X0168115Y0042375D01*
X0168983Y0044470D01*
X0168983Y0046738D01*
X0168115Y0048833D01*
X0166723Y0050225D01*
X0167375Y0050558D01*
X0168126Y0051104D01*
X0168783Y0051760D01*
X0169329Y0052512D01*
X0169751Y0053339D01*
X0170038Y0054222D01*
X0170183Y0055140D01*
X0170183Y0055604D01*
X0164283Y0055604D01*
X0164283Y0055604D01*
X0170183Y0055604D01*
X0170183Y0056068D01*
X0170038Y0056986D01*
X0169751Y0057869D01*
X0169329Y0058696D01*
X0168783Y0059448D01*
X0168126Y0060104D01*
X0167375Y0060650D01*
X0166548Y0061072D01*
X0165664Y0061359D01*
X0164747Y0061504D01*
X0164283Y0061504D01*
X0164283Y0055604D01*
X0164283Y0055604D01*
X0158383Y0055604D01*
X0164283Y0055604D01*
X0164283Y0055604D01*
X0164283Y0061504D01*
X0163819Y0061504D01*
X0162901Y0061359D01*
X0162018Y0061072D01*
X0164283Y0061026D02*
X0164283Y0061026D01*
X0166637Y0061026D02*
X0174080Y0061026D01*
X0174024Y0061008D02*
X0173196Y0060586D01*
X0172445Y0060041D01*
X0171788Y0059384D01*
X0171243Y0058633D01*
X0170821Y0057805D01*
X0170534Y0056922D01*
X0170389Y0056005D01*
X0170389Y0055540D01*
X0170389Y0055076D01*
X0170534Y0054159D01*
X0170821Y0053275D01*
X0171243Y0052448D01*
X0171788Y0051697D01*
X0172445Y0051040D01*
X0172890Y0050716D01*
X0172060Y0050372D01*
X0170457Y0048769D01*
X0169589Y0046674D01*
X0169589Y0044406D01*
X0170457Y0042311D01*
X0172060Y0040708D01*
X0173004Y0040317D01*
X0171457Y0038769D01*
X0170589Y0036674D01*
X0170589Y0034406D01*
X0171457Y0032311D01*
X0173060Y0030708D01*
X0175155Y0029840D01*
X0177423Y0029840D01*
X0179518Y0030708D01*
X0181121Y0032311D01*
X0181989Y0034406D01*
X0181989Y0036674D01*
X0181121Y0038769D01*
X0179518Y0040372D01*
X0178573Y0040764D01*
X0180121Y0042311D01*
X0180989Y0044406D01*
X0180989Y0046674D01*
X0180121Y0048769D01*
X0178728Y0050162D01*
X0179381Y0050494D01*
X0180132Y0051040D01*
X0180789Y0051697D01*
X0181335Y0052448D01*
X0181756Y0053275D01*
X0182043Y0054159D01*
X0182189Y0055076D01*
X0182189Y0055540D01*
X0176289Y0055540D01*
X0176289Y0055540D01*
X0182189Y0055540D01*
X0182189Y0056005D01*
X0182043Y0056922D01*
X0181756Y0057805D01*
X0181335Y0058633D01*
X0180789Y0059384D01*
X0180132Y0060041D01*
X0179381Y0060586D01*
X0178554Y0061008D01*
X0177670Y0061295D01*
X0176753Y0061440D01*
X0176289Y0061440D01*
X0176289Y0055540D01*
X0170389Y0055540D01*
X0176289Y0055540D01*
X0176289Y0055540D01*
X0176289Y0055540D01*
X0176289Y0061440D01*
X0175824Y0061440D01*
X0174907Y0061295D01*
X0174024Y0061008D01*
X0176289Y0061026D02*
X0176289Y0061026D01*
X0178498Y0061026D02*
X0212505Y0061026D01*
X0212426Y0060835D02*
X0212426Y0059171D01*
X0213062Y0057634D01*
X0214238Y0056458D01*
X0215775Y0055822D01*
X0216262Y0055822D01*
X0234220Y0037864D01*
X0235396Y0037377D01*
X0235745Y0037377D01*
X0236089Y0037033D01*
X0237626Y0036396D01*
X0239289Y0036396D01*
X0240826Y0037033D01*
X0242002Y0038209D01*
X0242639Y0039746D01*
X0242639Y0041409D01*
X0242002Y0042946D01*
X0240826Y0044122D01*
X0239289Y0044758D01*
X0237626Y0044758D01*
X0236743Y0044392D01*
X0220788Y0060347D01*
X0220788Y0060835D01*
X0220151Y0062371D01*
X0218975Y0063547D01*
X0217438Y0064184D01*
X0215775Y0064184D01*
X0214238Y0063547D01*
X0213062Y0062371D01*
X0212426Y0060835D01*
X0212651Y0058628D02*
X0181337Y0058628D01*
X0182153Y0056229D02*
X0214792Y0056229D01*
X0218254Y0053831D02*
X0181937Y0053831D01*
X0180524Y0051432D02*
X0220652Y0051432D01*
X0223051Y0049034D02*
X0179856Y0049034D01*
X0180989Y0046635D02*
X0225449Y0046635D01*
X0227848Y0044237D02*
X0180918Y0044237D01*
X0179648Y0041838D02*
X0230246Y0041838D01*
X0232645Y0039440D02*
X0180450Y0039440D01*
X0181837Y0037041D02*
X0236081Y0037041D01*
X0236032Y0040577D02*
X0216607Y0060003D01*
X0220708Y0061026D02*
X0223405Y0061026D01*
X0223341Y0061180D02*
X0223977Y0059643D01*
X0225154Y0058467D01*
X0226690Y0057831D01*
X0227178Y0057831D01*
X0236626Y0048383D01*
X0236626Y0048148D01*
X0237262Y0046611D01*
X0238438Y0045435D01*
X0239975Y0044799D01*
X0241638Y0044799D01*
X0243175Y0045435D01*
X0244351Y0046611D01*
X0244988Y0048148D01*
X0244988Y0049811D01*
X0244351Y0051348D01*
X0243175Y0052524D01*
X0241888Y0053057D01*
X0242039Y0053120D01*
X0243215Y0054296D01*
X0243852Y0055833D01*
X0243852Y0057496D01*
X0243215Y0059033D01*
X0242039Y0060209D01*
X0240502Y0060845D01*
X0239715Y0060845D01*
X0227144Y0073417D01*
X0227144Y0073904D01*
X0226507Y0075441D01*
X0225331Y0076617D01*
X0223794Y0077254D01*
X0222131Y0077254D01*
X0220594Y0076617D01*
X0219418Y0075441D01*
X0218782Y0073904D01*
X0218782Y0072241D01*
X0219418Y0070704D01*
X0220594Y0069528D01*
X0222131Y0068891D01*
X0222618Y0068891D01*
X0225719Y0065791D01*
X0225154Y0065556D01*
X0223977Y0064380D01*
X0223341Y0062844D01*
X0223341Y0061180D01*
X0223582Y0063425D02*
X0219098Y0063425D01*
X0214116Y0063425D02*
X0204720Y0063425D01*
X0205795Y0065823D02*
X0225687Y0065823D01*
X0223288Y0068222D02*
X0208193Y0068222D01*
X0210592Y0070620D02*
X0219502Y0070620D01*
X0218782Y0073019D02*
X0212990Y0073019D01*
X0215389Y0075417D02*
X0219408Y0075417D01*
X0217787Y0077816D02*
X0300949Y0077816D01*
X0300949Y0080214D02*
X0220186Y0080214D01*
X0222584Y0082613D02*
X0300949Y0082613D01*
X0300949Y0085011D02*
X0224983Y0085011D01*
X0228460Y0087410D02*
X0300949Y0087410D01*
X0300949Y0089808D02*
X0230579Y0089808D01*
X0230716Y0092207D02*
X0300363Y0092207D01*
X0300272Y0094605D02*
X0229100Y0094605D01*
X0226619Y0091173D02*
X0201254Y0065808D01*
X0201191Y0065808D01*
X0201191Y0065846D01*
X0197009Y0065823D02*
X0062219Y0065823D01*
X0062219Y0063425D02*
X0197661Y0063425D01*
X0193542Y0068222D02*
X0062219Y0068222D01*
X0062219Y0070620D02*
X0191949Y0070620D01*
X0192120Y0073019D02*
X0062219Y0073019D01*
X0062219Y0075417D02*
X0194320Y0075417D01*
X0197479Y0077816D02*
X0062219Y0077816D01*
X0062219Y0080214D02*
X0199877Y0080214D01*
X0202276Y0082613D02*
X0062219Y0082613D01*
X0063411Y0085011D02*
X0204674Y0085011D01*
X0207073Y0087410D02*
X0065810Y0087410D01*
X0068208Y0089808D02*
X0209471Y0089808D01*
X0211870Y0092207D02*
X0070607Y0092207D01*
X0073005Y0094605D02*
X0214268Y0094605D01*
X0216050Y0097004D02*
X0075404Y0097004D01*
X0076167Y0102293D02*
X0234070Y0102293D01*
X0237093Y0099402D02*
X0398583Y0099402D01*
X0398583Y0097004D02*
X0306772Y0097004D01*
X0308421Y0094605D02*
X0398583Y0094605D01*
X0398583Y0092207D02*
X0308329Y0092207D01*
X0307349Y0089808D02*
X0398583Y0089808D01*
X0398583Y0087410D02*
X0307349Y0087410D01*
X0307349Y0085011D02*
X0398583Y0085011D01*
X0398583Y0082613D02*
X0307349Y0082613D01*
X0307349Y0080214D02*
X0398583Y0080214D01*
X0398583Y0077816D02*
X0307349Y0077816D01*
X0307349Y0075417D02*
X0398583Y0075417D01*
X0398583Y0073019D02*
X0307349Y0073019D01*
X0307349Y0070620D02*
X0398583Y0070620D01*
X0398583Y0068222D02*
X0307349Y0068222D01*
X0307349Y0065823D02*
X0398583Y0065823D01*
X0398583Y0063425D02*
X0307349Y0063425D01*
X0307349Y0061026D02*
X0398583Y0061026D01*
X0398583Y0058628D02*
X0370278Y0058628D01*
X0371024Y0057882D02*
X0369354Y0059552D01*
X0367172Y0060456D01*
X0356936Y0060456D01*
X0354754Y0059552D01*
X0353084Y0057882D01*
X0352180Y0055700D01*
X0352180Y0053338D01*
X0353084Y0051156D01*
X0354754Y0049485D01*
X0356936Y0048582D01*
X0367172Y0048582D01*
X0369354Y0049485D01*
X0371024Y0051156D01*
X0371928Y0053338D01*
X0371928Y0055700D01*
X0371024Y0057882D01*
X0371709Y0056229D02*
X0398583Y0056229D01*
X0398583Y0053831D02*
X0371928Y0053831D01*
X0371139Y0051432D02*
X0398583Y0051432D01*
X0398583Y0049034D02*
X0368263Y0049034D01*
X0371470Y0045521D02*
X0372388Y0045820D01*
X0373343Y0045971D01*
X0373825Y0045971D01*
X0373825Y0035897D01*
X0367689Y0035897D01*
X0367689Y0031477D01*
X0367840Y0030523D01*
X0368138Y0029604D01*
X0368577Y0028744D01*
X0369144Y0027962D01*
X0369828Y0027279D01*
X0370609Y0026711D01*
X0371470Y0026273D01*
X0372388Y0025974D01*
X0373343Y0025823D01*
X0373825Y0025823D01*
X0373825Y0035897D01*
X0373825Y0035897D01*
X0367689Y0035897D01*
X0367689Y0040317D01*
X0367840Y0041271D01*
X0368138Y0042190D01*
X0368577Y0043051D01*
X0369144Y0043832D01*
X0369828Y0044515D01*
X0370609Y0045083D01*
X0371470Y0045521D01*
X0369549Y0044237D02*
X0354309Y0044237D01*
X0353658Y0044887D02*
X0351476Y0045791D01*
X0349114Y0045791D01*
X0346932Y0044887D01*
X0345262Y0043217D01*
X0344358Y0041035D01*
X0344358Y0030799D01*
X0345262Y0028617D01*
X0346932Y0026947D01*
X0349114Y0026043D01*
X0351476Y0026043D01*
X0353658Y0026947D01*
X0355328Y0028617D01*
X0356232Y0030799D01*
X0356232Y0041035D01*
X0355328Y0043217D01*
X0353658Y0044887D01*
X0355899Y0041838D02*
X0368024Y0041838D01*
X0367689Y0039440D02*
X0356232Y0039440D01*
X0356232Y0037041D02*
X0367689Y0037041D01*
X0367689Y0034643D02*
X0356232Y0034643D01*
X0356232Y0032244D02*
X0367689Y0032244D01*
X0368060Y0029845D02*
X0355837Y0029845D01*
X0354158Y0027447D02*
X0369660Y0027447D01*
X0373825Y0027447D02*
X0373826Y0027447D01*
X0373826Y0025823D02*
X0374309Y0025823D01*
X0375263Y0025974D01*
X0376181Y0026273D01*
X0377042Y0026711D01*
X0377823Y0027279D01*
X0378507Y0027962D01*
X0379074Y0028744D01*
X0379513Y0029604D01*
X0379811Y0030523D01*
X0379963Y0031477D01*
X0379962Y0035897D01*
X0373826Y0035897D01*
X0373826Y0035897D01*
X0379963Y0035897D01*
X0379963Y0040317D01*
X0379811Y0041271D01*
X0379513Y0042190D01*
X0379074Y0043051D01*
X0378507Y0043832D01*
X0377823Y0044515D01*
X0377042Y0045083D01*
X0376181Y0045521D01*
X0375263Y0045820D01*
X0374309Y0045971D01*
X0373826Y0045971D01*
X0373826Y0035897D01*
X0373826Y0025823D01*
X0377991Y0027447D02*
X0398583Y0027447D01*
X0398583Y0029845D02*
X0379591Y0029845D01*
X0379963Y0032244D02*
X0398583Y0032244D01*
X0398583Y0034643D02*
X0379963Y0034643D01*
X0379963Y0037041D02*
X0398583Y0037041D01*
X0398583Y0039440D02*
X0379963Y0039440D01*
X0379627Y0041838D02*
X0398583Y0041838D01*
X0398583Y0044237D02*
X0378102Y0044237D01*
X0373826Y0044237D02*
X0373825Y0044237D01*
X0373825Y0041838D02*
X0373826Y0041838D01*
X0373825Y0039440D02*
X0373826Y0039440D01*
X0373825Y0037041D02*
X0373826Y0037041D01*
X0373826Y0035897D02*
X0373825Y0035897D01*
X0373826Y0035897D01*
X0373825Y0034643D02*
X0373826Y0034643D01*
X0373825Y0032244D02*
X0373826Y0032244D01*
X0373825Y0029845D02*
X0373826Y0029845D01*
X0398583Y0025048D02*
X0322918Y0025048D01*
X0323082Y0022650D02*
X0398583Y0022650D01*
X0398583Y0020251D02*
X0323082Y0020251D01*
X0323082Y0017853D02*
X0398583Y0017853D01*
X0398583Y0046635D02*
X0307349Y0046635D01*
X0307349Y0044237D02*
X0346281Y0044237D01*
X0344691Y0041838D02*
X0307349Y0041838D01*
X0306017Y0039440D02*
X0344358Y0039440D01*
X0344358Y0037041D02*
X0303618Y0037041D01*
X0301219Y0034643D02*
X0344358Y0034643D01*
X0344358Y0032244D02*
X0298821Y0032244D01*
X0296422Y0029845D02*
X0344753Y0029845D01*
X0346432Y0027447D02*
X0321364Y0027447D01*
X0314801Y0027447D02*
X0311364Y0027447D01*
X0312918Y0025048D02*
X0313246Y0025048D01*
X0313082Y0024652D02*
X0313082Y0016663D01*
X0312956Y0016357D01*
X0313209Y0016357D01*
X0313082Y0016663D01*
X0313082Y0024652D01*
X0313082Y0022650D02*
X0313082Y0022650D01*
X0313082Y0020251D02*
X0313082Y0020251D01*
X0313082Y0017853D02*
X0313082Y0017853D01*
X0303209Y0016357D02*
X0302956Y0016357D01*
X0303082Y0016663D01*
X0303082Y0024652D01*
X0303082Y0016663D01*
X0303209Y0016357D01*
X0303082Y0017853D02*
X0303082Y0017853D01*
X0303082Y0020251D02*
X0303082Y0020251D01*
X0303082Y0022650D02*
X0303082Y0022650D01*
X0302918Y0025048D02*
X0303246Y0025048D01*
X0304801Y0027447D02*
X0301364Y0027447D01*
X0294801Y0027447D02*
X0291364Y0027447D01*
X0292918Y0025048D02*
X0293246Y0025048D01*
X0293082Y0024652D02*
X0293082Y0016663D01*
X0292956Y0016357D01*
X0293209Y0016357D01*
X0293082Y0016663D01*
X0293082Y0024652D01*
X0293082Y0022650D02*
X0293082Y0022650D01*
X0293082Y0020251D02*
X0293082Y0020251D01*
X0293082Y0017853D02*
X0293082Y0017853D01*
X0283209Y0016357D02*
X0282956Y0016357D01*
X0283082Y0016663D01*
X0283082Y0024652D01*
X0283082Y0016663D01*
X0283209Y0016357D01*
X0283082Y0017853D02*
X0283082Y0017853D01*
X0283082Y0020251D02*
X0283082Y0020251D01*
X0283082Y0022650D02*
X0283082Y0022650D01*
X0282918Y0025048D02*
X0283246Y0025048D01*
X0284801Y0027447D02*
X0281364Y0027447D01*
X0274801Y0027447D02*
X0271364Y0027447D01*
X0272918Y0025048D02*
X0273246Y0025048D01*
X0273082Y0024652D02*
X0273082Y0016663D01*
X0272956Y0016357D01*
X0273209Y0016357D01*
X0273082Y0016663D01*
X0273082Y0024652D01*
X0273082Y0022650D02*
X0273082Y0022650D01*
X0273082Y0020251D02*
X0273082Y0020251D01*
X0273082Y0017853D02*
X0273082Y0017853D01*
X0263209Y0016357D02*
X0262956Y0016357D01*
X0263082Y0016663D01*
X0263082Y0024652D01*
X0263082Y0016663D01*
X0263209Y0016357D01*
X0263082Y0017853D02*
X0263082Y0017853D01*
X0263082Y0020251D02*
X0263082Y0020251D01*
X0263082Y0022650D02*
X0263082Y0022650D01*
X0262918Y0025048D02*
X0263246Y0025048D01*
X0264801Y0027447D02*
X0261364Y0027447D01*
X0254801Y0027447D02*
X0251364Y0027447D01*
X0244801Y0027447D02*
X0236364Y0027447D01*
X0229801Y0027447D02*
X0226364Y0027447D01*
X0227918Y0025048D02*
X0228246Y0025048D01*
X0228082Y0024652D02*
X0228082Y0016663D01*
X0227956Y0016357D01*
X0228209Y0016357D01*
X0228082Y0016663D01*
X0228082Y0024652D01*
X0228082Y0022650D02*
X0228082Y0022650D01*
X0228082Y0020251D02*
X0228082Y0020251D01*
X0228082Y0017853D02*
X0228082Y0017853D01*
X0218209Y0016357D02*
X0217956Y0016357D01*
X0218082Y0016663D01*
X0218082Y0024652D01*
X0218082Y0016663D01*
X0218209Y0016357D01*
X0218082Y0017853D02*
X0218082Y0017853D01*
X0218082Y0020251D02*
X0218082Y0020251D01*
X0218082Y0022650D02*
X0218082Y0022650D01*
X0217918Y0025048D02*
X0218246Y0025048D01*
X0213082Y0028371D02*
X0213082Y0020657D01*
X0208082Y0020251D02*
X0208082Y0020251D01*
X0208082Y0017853D02*
X0208082Y0017853D01*
X0208082Y0016663D02*
X0208082Y0024652D01*
X0208082Y0016663D01*
X0207956Y0016357D01*
X0208209Y0016357D01*
X0208082Y0016663D01*
X0208082Y0022650D02*
X0208082Y0022650D01*
X0207918Y0025048D02*
X0208246Y0025048D01*
X0209801Y0027447D02*
X0206364Y0027447D01*
X0210229Y0029845D02*
X0177435Y0029845D01*
X0175142Y0029845D02*
X0141189Y0029845D01*
X0139801Y0027447D02*
X0136364Y0027447D01*
X0137918Y0025048D02*
X0138246Y0025048D01*
X0138082Y0024652D02*
X0138082Y0016663D01*
X0137956Y0016357D01*
X0138209Y0016357D01*
X0138082Y0016663D01*
X0138082Y0024652D01*
X0138082Y0022650D02*
X0138082Y0022650D01*
X0138082Y0020251D02*
X0138082Y0020251D01*
X0138082Y0017853D02*
X0138082Y0017853D01*
X0128209Y0016357D02*
X0127956Y0016357D01*
X0128082Y0016663D01*
X0128082Y0024652D01*
X0128082Y0016663D01*
X0128209Y0016357D01*
X0128082Y0017853D02*
X0128082Y0017853D01*
X0128082Y0020251D02*
X0128082Y0020251D01*
X0128082Y0022650D02*
X0128082Y0022650D01*
X0127918Y0025048D02*
X0128246Y0025048D01*
X0119801Y0027447D02*
X0116364Y0027447D01*
X0110481Y0029845D02*
X0085474Y0029845D01*
X0086364Y0027447D02*
X0089801Y0027447D01*
X0096364Y0027447D02*
X0099801Y0027447D01*
X0098246Y0025048D02*
X0097918Y0025048D01*
X0098082Y0024652D02*
X0098082Y0016663D01*
X0097956Y0016357D01*
X0098209Y0016357D01*
X0098082Y0016663D01*
X0098082Y0024652D01*
X0098082Y0022650D02*
X0098082Y0022650D01*
X0098082Y0020251D02*
X0098082Y0020251D01*
X0098082Y0017853D02*
X0098082Y0017853D01*
X0107956Y0016357D02*
X0108082Y0016663D01*
X0108082Y0024652D01*
X0108082Y0016663D01*
X0108209Y0016357D01*
X0107956Y0016357D01*
X0108082Y0017853D02*
X0108082Y0017853D01*
X0108082Y0020251D02*
X0108082Y0020251D01*
X0108082Y0022650D02*
X0108082Y0022650D01*
X0107918Y0025048D02*
X0108246Y0025048D01*
X0109801Y0027447D02*
X0106364Y0027447D01*
X0106914Y0032244D02*
X0083727Y0032244D01*
X0081329Y0034643D02*
X0106015Y0034643D01*
X0106182Y0037041D02*
X0062219Y0037041D01*
X0059019Y0035036D02*
X0059019Y0085145D01*
X0076167Y0102293D01*
X0066821Y0106598D02*
X0046094Y0106598D01*
X0045153Y0105657D02*
X0048082Y0108586D01*
X0048082Y0112728D01*
X0045153Y0115657D01*
X0041011Y0115657D01*
X0038082Y0112728D01*
X0035153Y0115657D01*
X0031011Y0115657D01*
X0028082Y0112728D01*
X0028082Y0108586D01*
X0031011Y0105657D01*
X0028082Y0102728D01*
X0028082Y0098586D01*
X0031011Y0095657D01*
X0028082Y0092728D01*
X0028082Y0088586D01*
X0031011Y0085657D01*
X0028082Y0082728D01*
X0028082Y0078586D01*
X0031011Y0075657D01*
X0035153Y0075657D01*
X0038082Y0078586D01*
X0038082Y0082728D01*
X0035153Y0085657D01*
X0031011Y0085657D01*
X0035153Y0085657D01*
X0038082Y0088586D01*
X0038082Y0092728D01*
X0035153Y0095657D01*
X0031011Y0095657D01*
X0035153Y0095657D01*
X0038082Y0098586D01*
X0038082Y0102728D01*
X0035153Y0105657D01*
X0038082Y0108586D01*
X0038082Y0112728D01*
X0038082Y0108586D01*
X0041011Y0105657D01*
X0038082Y0102728D01*
X0038082Y0098586D01*
X0041011Y0095657D01*
X0038082Y0092728D01*
X0038082Y0088586D01*
X0041011Y0085657D01*
X0038082Y0082728D01*
X0038082Y0078586D01*
X0041011Y0075657D01*
X0038082Y0072728D01*
X0038082Y0068586D01*
X0041011Y0065657D01*
X0038082Y0062728D01*
X0038082Y0058586D01*
X0041011Y0055657D01*
X0038082Y0052728D01*
X0038082Y0048586D01*
X0041011Y0045657D01*
X0038082Y0042728D01*
X0038082Y0038586D01*
X0041011Y0035657D01*
X0045153Y0035657D01*
X0048082Y0038586D01*
X0048082Y0042728D01*
X0045153Y0045657D01*
X0048082Y0048586D01*
X0048082Y0052728D01*
X0045153Y0055657D01*
X0041011Y0055657D01*
X0045153Y0055657D01*
X0048082Y0058586D01*
X0048082Y0062728D01*
X0045153Y0065657D01*
X0048082Y0068586D01*
X0048082Y0072728D01*
X0045153Y0075657D01*
X0041011Y0075657D01*
X0045153Y0075657D01*
X0048082Y0078586D01*
X0048082Y0082728D01*
X0045153Y0085657D01*
X0041011Y0085657D01*
X0045153Y0085657D01*
X0048082Y0088586D01*
X0048082Y0092728D01*
X0045153Y0095657D01*
X0041011Y0095657D01*
X0045153Y0095657D01*
X0048082Y0098586D01*
X0048082Y0102728D01*
X0045153Y0105657D01*
X0041011Y0105657D01*
X0045153Y0105657D01*
X0046611Y0104199D02*
X0064422Y0104199D01*
X0062024Y0101801D02*
X0048082Y0101801D01*
X0048082Y0099402D02*
X0059625Y0099402D01*
X0057227Y0097004D02*
X0046500Y0097004D01*
X0046205Y0094605D02*
X0054828Y0094605D01*
X0052430Y0092207D02*
X0048082Y0092207D01*
X0048082Y0089808D02*
X0050101Y0089808D01*
X0049664Y0087410D02*
X0046906Y0087410D01*
X0045799Y0085011D02*
X0049664Y0085011D01*
X0049664Y0082613D02*
X0048082Y0082613D01*
X0048082Y0080214D02*
X0049664Y0080214D01*
X0049664Y0077816D02*
X0047312Y0077816D01*
X0045393Y0075417D02*
X0049664Y0075417D01*
X0049664Y0073019D02*
X0047792Y0073019D01*
X0048082Y0070620D02*
X0049664Y0070620D01*
X0049664Y0068222D02*
X0047718Y0068222D01*
X0049664Y0065823D02*
X0045319Y0065823D01*
X0045153Y0065657D02*
X0041011Y0065657D01*
X0045153Y0065657D01*
X0047386Y0063425D02*
X0049664Y0063425D01*
X0049664Y0061026D02*
X0048082Y0061026D01*
X0048082Y0058628D02*
X0049664Y0058628D01*
X0049664Y0056229D02*
X0045725Y0056229D01*
X0046980Y0053831D02*
X0049664Y0053831D01*
X0049664Y0051432D02*
X0048082Y0051432D01*
X0048082Y0049034D02*
X0049664Y0049034D01*
X0049664Y0046635D02*
X0046131Y0046635D01*
X0045153Y0045657D02*
X0041011Y0045657D01*
X0045153Y0045657D01*
X0046574Y0044237D02*
X0049664Y0044237D01*
X0049664Y0041838D02*
X0048082Y0041838D01*
X0048082Y0039440D02*
X0049664Y0039440D01*
X0049664Y0037041D02*
X0046537Y0037041D01*
X0046168Y0034643D02*
X0049664Y0034643D01*
X0049664Y0032244D02*
X0048082Y0032244D01*
X0048082Y0029845D02*
X0049664Y0029845D01*
X0049664Y0027447D02*
X0046943Y0027447D01*
X0045153Y0025657D02*
X0041011Y0025657D01*
X0038082Y0022728D01*
X0035153Y0025657D01*
X0038082Y0028586D01*
X0038082Y0032728D01*
X0038082Y0028586D01*
X0041011Y0025657D01*
X0045153Y0025657D01*
X0045762Y0025048D02*
X0051363Y0025048D01*
X0053762Y0022650D02*
X0048082Y0022650D01*
X0048082Y0020251D02*
X0056160Y0020251D01*
X0058688Y0017853D02*
X0047349Y0017853D01*
X0040311Y0016357D02*
X0035853Y0016357D01*
X0038082Y0018586D01*
X0038082Y0022728D01*
X0038082Y0018586D01*
X0040311Y0016357D01*
X0038816Y0017853D02*
X0037349Y0017853D01*
X0038082Y0020251D02*
X0038082Y0020251D01*
X0038082Y0022650D02*
X0038082Y0022650D01*
X0035762Y0025048D02*
X0040402Y0025048D01*
X0035153Y0025657D02*
X0031011Y0025657D01*
X0028782Y0023428D01*
X0028782Y0027886D01*
X0031011Y0025657D01*
X0035153Y0025657D01*
X0036943Y0027447D02*
X0039222Y0027447D01*
X0038082Y0029845D02*
X0038082Y0029845D01*
X0038082Y0032244D02*
X0038082Y0032244D01*
X0036168Y0034643D02*
X0039996Y0034643D01*
X0039628Y0037041D02*
X0036537Y0037041D01*
X0035153Y0035657D02*
X0031011Y0035657D01*
X0028782Y0033428D01*
X0028782Y0037886D01*
X0031011Y0035657D01*
X0035153Y0035657D01*
X0029996Y0034643D02*
X0028782Y0034643D01*
X0028782Y0037041D02*
X0029628Y0037041D01*
X0038082Y0039440D02*
X0038082Y0039440D01*
X0038082Y0041838D02*
X0038082Y0041838D01*
X0036574Y0044237D02*
X0039590Y0044237D01*
X0040034Y0046635D02*
X0036131Y0046635D01*
X0035153Y0045657D02*
X0031011Y0045657D01*
X0028782Y0043428D01*
X0028782Y0047886D01*
X0031011Y0045657D01*
X0035153Y0045657D01*
X0030034Y0046635D02*
X0028782Y0046635D01*
X0028782Y0044237D02*
X0029590Y0044237D01*
X0038082Y0049034D02*
X0038082Y0049034D01*
X0038082Y0051432D02*
X0038082Y0051432D01*
X0036980Y0053831D02*
X0039184Y0053831D01*
X0040439Y0056229D02*
X0035725Y0056229D01*
X0035153Y0055657D02*
X0031011Y0055657D01*
X0028782Y0053428D01*
X0028782Y0057886D01*
X0031011Y0055657D01*
X0035153Y0055657D01*
X0038082Y0058628D02*
X0038082Y0058628D01*
X0038082Y0061026D02*
X0038082Y0061026D01*
X0037386Y0063425D02*
X0038778Y0063425D01*
X0040845Y0065823D02*
X0035319Y0065823D01*
X0035153Y0065657D02*
X0031011Y0065657D01*
X0035153Y0065657D01*
X0037718Y0068222D02*
X0038447Y0068222D01*
X0038082Y0070620D02*
X0038082Y0070620D01*
X0037792Y0073019D02*
X0038372Y0073019D01*
X0040771Y0075417D02*
X0035393Y0075417D01*
X0037312Y0077816D02*
X0038853Y0077816D01*
X0038082Y0080214D02*
X0038082Y0080214D01*
X0038082Y0082613D02*
X0038082Y0082613D01*
X0035799Y0085011D02*
X0040365Y0085011D01*
X0039259Y0087410D02*
X0036906Y0087410D01*
X0038082Y0089808D02*
X0038082Y0089808D01*
X0038082Y0092207D02*
X0038082Y0092207D01*
X0036205Y0094605D02*
X0039959Y0094605D01*
X0039665Y0097004D02*
X0036500Y0097004D01*
X0038082Y0099402D02*
X0038082Y0099402D01*
X0038082Y0101801D02*
X0038082Y0101801D01*
X0036611Y0104199D02*
X0039553Y0104199D01*
X0040071Y0106598D02*
X0036094Y0106598D01*
X0035153Y0105657D02*
X0031011Y0105657D01*
X0035153Y0105657D01*
X0038082Y0108996D02*
X0038082Y0108996D01*
X0038082Y0111395D02*
X0038082Y0111395D01*
X0037017Y0113793D02*
X0039147Y0113793D01*
X0041011Y0115657D02*
X0045153Y0115657D01*
X0048082Y0118586D01*
X0048082Y0122728D01*
X0045153Y0125657D01*
X0041011Y0125657D01*
X0038082Y0122728D01*
X0035153Y0125657D01*
X0031011Y0125657D01*
X0028082Y0122728D01*
X0028082Y0118586D01*
X0031011Y0115657D01*
X0035153Y0115657D01*
X0038082Y0118586D01*
X0038082Y0122728D01*
X0038082Y0118586D01*
X0041011Y0115657D01*
X0040477Y0116192D02*
X0035688Y0116192D01*
X0038082Y0118590D02*
X0038082Y0118590D01*
X0038082Y0120989D02*
X0038082Y0120989D01*
X0037423Y0123387D02*
X0038741Y0123387D01*
X0041011Y0125657D02*
X0045153Y0125657D01*
X0048082Y0128586D01*
X0048082Y0132728D01*
X0045153Y0135657D01*
X0041011Y0135657D01*
X0038082Y0132728D01*
X0035153Y0135657D01*
X0031011Y0135657D01*
X0028082Y0132728D01*
X0028082Y0128586D01*
X0031011Y0125657D01*
X0035153Y0125657D01*
X0038082Y0128586D01*
X0038082Y0132728D01*
X0038082Y0128586D01*
X0041011Y0125657D01*
X0040883Y0125786D02*
X0035282Y0125786D01*
X0037680Y0128184D02*
X0038484Y0128184D01*
X0038082Y0130583D02*
X0038082Y0130583D01*
X0037829Y0132981D02*
X0038335Y0132981D01*
X0040734Y0135380D02*
X0035431Y0135380D01*
X0035153Y0135657D02*
X0038082Y0138586D01*
X0038082Y0142728D01*
X0035153Y0145657D01*
X0031011Y0145657D01*
X0028082Y0142728D01*
X0028082Y0138586D01*
X0031011Y0135657D01*
X0035153Y0135657D01*
X0037274Y0137779D02*
X0038890Y0137779D01*
X0038082Y0138586D02*
X0041011Y0135657D01*
X0045153Y0135657D01*
X0048082Y0138586D01*
X0048082Y0142728D01*
X0045153Y0145657D01*
X0041011Y0145657D01*
X0038082Y0142728D01*
X0038082Y0138586D01*
X0038082Y0140177D02*
X0038082Y0140177D01*
X0038082Y0142576D02*
X0038082Y0142576D01*
X0035837Y0144974D02*
X0040328Y0144974D01*
X0041011Y0145657D02*
X0045153Y0145657D01*
X0048082Y0148586D01*
X0048082Y0152728D01*
X0045153Y0155657D01*
X0041011Y0155657D01*
X0038082Y0152728D01*
X0035153Y0155657D01*
X0031011Y0155657D01*
X0028082Y0152728D01*
X0028082Y0148586D01*
X0031011Y0145657D01*
X0035153Y0145657D01*
X0038082Y0148586D01*
X0038082Y0152728D01*
X0038082Y0148586D01*
X0041011Y0145657D01*
X0039296Y0147373D02*
X0036868Y0147373D01*
X0038082Y0149771D02*
X0038082Y0149771D01*
X0038082Y0152170D02*
X0038082Y0152170D01*
X0036243Y0154568D02*
X0039922Y0154568D01*
X0041011Y0155657D02*
X0045153Y0155657D01*
X0048082Y0158586D01*
X0048082Y0162728D01*
X0045153Y0165657D01*
X0041011Y0165657D01*
X0038082Y0162728D01*
X0035153Y0165657D01*
X0031011Y0165657D01*
X0028082Y0162728D01*
X0028082Y0158586D01*
X0031011Y0155657D01*
X0035153Y0155657D01*
X0038082Y0158586D01*
X0038082Y0162728D01*
X0038082Y0158586D01*
X0041011Y0155657D01*
X0039702Y0156967D02*
X0036462Y0156967D01*
X0038082Y0159365D02*
X0038082Y0159365D01*
X0038082Y0161764D02*
X0038082Y0161764D01*
X0036649Y0164162D02*
X0039516Y0164162D01*
X0041011Y0165657D02*
X0045153Y0165657D01*
X0048082Y0168586D01*
X0048082Y0172728D01*
X0045153Y0175657D01*
X0041011Y0175657D01*
X0038082Y0172728D01*
X0035153Y0175657D01*
X0031011Y0175657D01*
X0028082Y0172728D01*
X0028082Y0168586D01*
X0031011Y0165657D01*
X0035153Y0165657D01*
X0038082Y0168586D01*
X0038082Y0172728D01*
X0038082Y0168586D01*
X0041011Y0165657D01*
X0040108Y0166561D02*
X0036057Y0166561D01*
X0038082Y0168959D02*
X0038082Y0168959D01*
X0038082Y0171358D02*
X0038082Y0171358D01*
X0037055Y0173756D02*
X0039110Y0173756D01*
X0041011Y0175657D02*
X0045153Y0175657D01*
X0048082Y0178586D01*
X0048082Y0182728D01*
X0045295Y0185516D01*
X0048282Y0188503D01*
X0048282Y0190657D01*
X0043082Y0190657D01*
X0037882Y0190657D01*
X0033082Y0190657D01*
X0027882Y0190657D01*
X0027882Y0188503D01*
X0030870Y0185516D01*
X0028082Y0182728D01*
X0028082Y0178586D01*
X0031011Y0175657D01*
X0035153Y0175657D01*
X0038082Y0178586D01*
X0038082Y0182728D01*
X0035295Y0185516D01*
X0038082Y0188304D01*
X0040870Y0185516D01*
X0038082Y0182728D01*
X0038082Y0178586D01*
X0041011Y0175657D01*
X0040514Y0176155D02*
X0035651Y0176155D01*
X0038049Y0178553D02*
X0038115Y0178553D01*
X0038082Y0180952D02*
X0038082Y0180952D01*
X0037460Y0183350D02*
X0038704Y0183350D01*
X0040637Y0185749D02*
X0035527Y0185749D01*
X0037926Y0188147D02*
X0038238Y0188147D01*
X0043082Y0190657D02*
X0043082Y0190657D01*
X0033082Y0190657D01*
X0033082Y0190657D01*
X0027882Y0190657D01*
X0027882Y0192811D01*
X0030928Y0195857D01*
X0033082Y0195857D01*
X0033082Y0190658D01*
X0033082Y0190658D01*
X0033082Y0195857D01*
X0035236Y0195857D01*
X0038082Y0193011D01*
X0040928Y0195857D01*
X0043082Y0195857D01*
X0043082Y0190658D01*
X0043082Y0190658D01*
X0043082Y0195857D01*
X0045236Y0195857D01*
X0048282Y0192811D01*
X0048282Y0190657D01*
X0043082Y0190657D01*
X0043082Y0190657D01*
X0043082Y0192944D02*
X0043082Y0192944D01*
X0043082Y0195343D02*
X0043082Y0195343D01*
X0040414Y0195343D02*
X0035751Y0195343D01*
X0033082Y0195343D02*
X0033082Y0195343D01*
X0033082Y0192944D02*
X0033082Y0192944D01*
X0033082Y0190657D02*
X0033082Y0190657D01*
X0027882Y0190546D02*
X0018782Y0190546D01*
X0018782Y0192944D02*
X0028015Y0192944D01*
X0030414Y0195343D02*
X0018782Y0195343D01*
X0018782Y0197741D02*
X0117510Y0197741D01*
X0115112Y0195343D02*
X0045751Y0195343D01*
X0048149Y0192944D02*
X0112713Y0192944D01*
X0110315Y0190546D02*
X0048282Y0190546D01*
X0047926Y0188147D02*
X0107916Y0188147D01*
X0105518Y0185749D02*
X0063495Y0185749D01*
X0063606Y0185703D02*
X0061853Y0186429D01*
X0059954Y0186429D01*
X0058201Y0185703D01*
X0056858Y0184360D01*
X0056132Y0182607D01*
X0056132Y0180708D01*
X0056858Y0178954D01*
X0058201Y0177612D01*
X0059954Y0176886D01*
X0061853Y0176886D01*
X0063606Y0177612D01*
X0064949Y0178954D01*
X0065675Y0180708D01*
X0065675Y0182607D01*
X0064949Y0184360D01*
X0063606Y0185703D01*
X0065367Y0183350D02*
X0103119Y0183350D01*
X0100721Y0180952D02*
X0065675Y0180952D01*
X0064547Y0178553D02*
X0098322Y0178553D01*
X0096389Y0176155D02*
X0062895Y0176155D01*
X0063606Y0175860D02*
X0061853Y0176587D01*
X0059954Y0176587D01*
X0058201Y0175860D01*
X0056858Y0174518D01*
X0056132Y0172764D01*
X0056132Y0170866D01*
X0056858Y0169112D01*
X0058201Y0167770D01*
X0059954Y0167043D01*
X0061853Y0167043D01*
X0063606Y0167770D01*
X0064949Y0169112D01*
X0065675Y0170866D01*
X0065675Y0172764D01*
X0064949Y0174518D01*
X0063606Y0175860D01*
X0065264Y0173756D02*
X0095988Y0173756D01*
X0096001Y0171358D02*
X0065675Y0171358D01*
X0064796Y0168959D02*
X0096012Y0168959D01*
X0096023Y0166561D02*
X0062295Y0166561D01*
X0061853Y0166744D02*
X0059954Y0166744D01*
X0058201Y0166018D01*
X0056858Y0164675D01*
X0056132Y0162922D01*
X0056132Y0161023D01*
X0056858Y0159269D01*
X0058201Y0157927D01*
X0059954Y0157201D01*
X0061853Y0157201D01*
X0063606Y0157927D01*
X0064949Y0159269D01*
X0065675Y0161023D01*
X0065675Y0162922D01*
X0064949Y0164675D01*
X0063606Y0166018D01*
X0061853Y0166744D01*
X0059512Y0166561D02*
X0046057Y0166561D01*
X0046649Y0164162D02*
X0056646Y0164162D01*
X0056132Y0161764D02*
X0048082Y0161764D01*
X0048082Y0159365D02*
X0056819Y0159365D01*
X0058298Y0156382D02*
X0057665Y0155922D01*
X0057111Y0155369D01*
X0056651Y0154736D01*
X0056296Y0154038D01*
X0056054Y0153294D01*
X0055932Y0152521D01*
X0055932Y0152130D01*
X0060903Y0152130D01*
X0060903Y0152130D01*
X0055932Y0152130D01*
X0055932Y0151739D01*
X0056054Y0150966D01*
X0056296Y0150221D01*
X0056651Y0149524D01*
X0057111Y0148891D01*
X0057665Y0148338D01*
X0058298Y0147878D01*
X0058995Y0147522D01*
X0059739Y0147281D01*
X0060512Y0147158D01*
X0060903Y0147158D01*
X0060903Y0152130D01*
X0060903Y0157101D01*
X0060512Y0157101D01*
X0059739Y0156979D01*
X0058995Y0156737D01*
X0058298Y0156382D01*
X0059701Y0156967D02*
X0046462Y0156967D01*
X0046243Y0154568D02*
X0056566Y0154568D01*
X0055932Y0152170D02*
X0048082Y0152170D01*
X0048082Y0149771D02*
X0056526Y0149771D01*
X0059456Y0147373D02*
X0046868Y0147373D01*
X0045837Y0144974D02*
X0056852Y0144974D01*
X0056858Y0144990D02*
X0056132Y0143236D01*
X0056132Y0141338D01*
X0056858Y0139584D01*
X0058201Y0138242D01*
X0059954Y0137516D01*
X0061853Y0137516D01*
X0063606Y0138242D01*
X0064949Y0139584D01*
X0065675Y0141338D01*
X0065675Y0143236D01*
X0064949Y0144990D01*
X0063606Y0146333D01*
X0061853Y0147059D01*
X0059954Y0147059D01*
X0058201Y0146333D01*
X0056858Y0144990D01*
X0056132Y0142576D02*
X0048082Y0142576D01*
X0048082Y0140177D02*
X0056613Y0140177D01*
X0059320Y0137779D02*
X0047274Y0137779D01*
X0045431Y0135380D02*
X0057091Y0135380D01*
X0056858Y0135148D02*
X0058201Y0136490D01*
X0059954Y0137216D01*
X0061853Y0137216D01*
X0063606Y0136490D01*
X0064949Y0135148D01*
X0065675Y0133394D01*
X0065675Y0131496D01*
X0064949Y0129742D01*
X0063606Y0128400D01*
X0061853Y0127673D01*
X0059954Y0127673D01*
X0058201Y0128400D01*
X0056858Y0129742D01*
X0056132Y0131496D01*
X0056132Y0133394D01*
X0056858Y0135148D01*
X0056132Y0132981D02*
X0047829Y0132981D01*
X0048082Y0130583D02*
X0056510Y0130583D01*
X0058720Y0128184D02*
X0047680Y0128184D01*
X0045282Y0125786D02*
X0096208Y0125786D01*
X0096198Y0128184D02*
X0063087Y0128184D01*
X0065297Y0130583D02*
X0096187Y0130583D01*
X0096176Y0132981D02*
X0065675Y0132981D01*
X0064716Y0135380D02*
X0096165Y0135380D01*
X0096154Y0137779D02*
X0062487Y0137779D01*
X0065194Y0140177D02*
X0096143Y0140177D01*
X0096132Y0142576D02*
X0065675Y0142576D01*
X0064955Y0144974D02*
X0096121Y0144974D01*
X0096110Y0147373D02*
X0062351Y0147373D01*
X0062068Y0147281D02*
X0062812Y0147522D01*
X0063509Y0147878D01*
X0064142Y0148338D01*
X0064696Y0148891D01*
X0065156Y0149524D01*
X0065511Y0150221D01*
X0065753Y0150966D01*
X0065875Y0151739D01*
X0065875Y0152130D01*
X0065875Y0152521D01*
X0065753Y0153294D01*
X0065511Y0154038D01*
X0065156Y0154736D01*
X0064696Y0155369D01*
X0064142Y0155922D01*
X0063509Y0156382D01*
X0062812Y0156737D01*
X0062068Y0156979D01*
X0061295Y0157101D01*
X0060904Y0157101D01*
X0060904Y0152130D01*
X0065875Y0152130D01*
X0060904Y0152130D01*
X0060904Y0152130D01*
X0060903Y0152130D01*
X0060904Y0152130D01*
X0060904Y0147158D01*
X0061295Y0147158D01*
X0062068Y0147281D01*
X0060904Y0147373D02*
X0060903Y0147373D01*
X0060903Y0149771D02*
X0060904Y0149771D01*
X0060903Y0152170D02*
X0060904Y0152170D01*
X0060903Y0154568D02*
X0060904Y0154568D01*
X0060903Y0156967D02*
X0060904Y0156967D01*
X0062106Y0156967D02*
X0096067Y0156967D01*
X0096056Y0159365D02*
X0064988Y0159365D01*
X0065675Y0161764D02*
X0096045Y0161764D01*
X0096034Y0164162D02*
X0065161Y0164162D01*
X0057011Y0168959D02*
X0048082Y0168959D01*
X0048082Y0171358D02*
X0056132Y0171358D01*
X0056543Y0173756D02*
X0047055Y0173756D01*
X0045651Y0176155D02*
X0058912Y0176155D01*
X0057260Y0178553D02*
X0048049Y0178553D01*
X0048082Y0180952D02*
X0056132Y0180952D01*
X0056440Y0183350D02*
X0047460Y0183350D01*
X0045527Y0185749D02*
X0058312Y0185749D01*
X0082790Y0200140D02*
X0018782Y0200140D01*
X0018782Y0202538D02*
X0081988Y0202538D01*
X0082581Y0204937D02*
X0018782Y0204937D01*
X0018782Y0207335D02*
X0138082Y0207335D01*
X0138082Y0209734D02*
X0021188Y0209734D01*
X0023760Y0212132D02*
X0138082Y0212132D01*
X0123386Y0197741D02*
X0163289Y0197741D01*
X0161466Y0195919D02*
X0161466Y0195919D01*
X0160890Y0195343D02*
X0125043Y0195343D01*
X0125248Y0192944D02*
X0160079Y0192944D01*
X0159062Y0190546D02*
X0123891Y0190546D01*
X0121493Y0188147D02*
X0157891Y0188147D01*
X0158330Y0185749D02*
X0119094Y0185749D01*
X0116696Y0183350D02*
X0161793Y0183350D01*
X0164191Y0180952D02*
X0137593Y0180952D01*
X0137454Y0180997D02*
X0136712Y0181114D01*
X0136336Y0181114D01*
X0135960Y0181114D01*
X0135218Y0180997D01*
X0134503Y0180765D01*
X0133834Y0180423D01*
X0133226Y0179982D01*
X0132694Y0179450D01*
X0132252Y0178842D01*
X0131911Y0178172D01*
X0131679Y0177458D01*
X0131561Y0176715D01*
X0131561Y0176340D01*
X0136336Y0176340D01*
X0136336Y0181114D01*
X0136336Y0176340D01*
X0136336Y0176340D01*
X0136336Y0176339D01*
X0136336Y0176339D01*
X0136336Y0171565D01*
X0135960Y0171565D01*
X0135218Y0171682D01*
X0134503Y0171915D01*
X0133834Y0172256D01*
X0133226Y0172698D01*
X0132694Y0173229D01*
X0132252Y0173837D01*
X0131911Y0174507D01*
X0131679Y0175221D01*
X0131561Y0175964D01*
X0131561Y0176339D01*
X0136336Y0176339D01*
X0136336Y0171565D01*
X0136712Y0171565D01*
X0137454Y0171682D01*
X0138169Y0171915D01*
X0138839Y0172256D01*
X0139447Y0172698D01*
X0139978Y0173229D01*
X0140420Y0173837D01*
X0140761Y0174507D01*
X0140993Y0175221D01*
X0141111Y0175964D01*
X0141111Y0176339D01*
X0136336Y0176339D01*
X0136336Y0176340D01*
X0141111Y0176340D01*
X0141111Y0176715D01*
X0140993Y0177458D01*
X0140761Y0178172D01*
X0140420Y0178842D01*
X0139978Y0179450D01*
X0139447Y0179982D01*
X0138839Y0180423D01*
X0138169Y0180765D01*
X0137454Y0180997D01*
X0136336Y0180952D02*
X0136336Y0180952D01*
X0135079Y0180952D02*
X0114297Y0180952D01*
X0111899Y0178553D02*
X0132105Y0178553D01*
X0131561Y0176155D02*
X0109500Y0176155D01*
X0107102Y0173756D02*
X0132311Y0173756D01*
X0136336Y0173756D02*
X0136336Y0173756D01*
X0136336Y0176155D02*
X0136336Y0176155D01*
X0136336Y0178553D02*
X0136336Y0178553D01*
X0140567Y0178553D02*
X0166590Y0178553D01*
X0168988Y0176155D02*
X0141111Y0176155D01*
X0140361Y0173756D02*
X0170500Y0173756D01*
X0170500Y0171358D02*
X0105601Y0171358D01*
X0105612Y0168959D02*
X0132337Y0168959D01*
X0132252Y0168842D02*
X0131911Y0168172D01*
X0131679Y0167458D01*
X0131561Y0166715D01*
X0131561Y0166340D01*
X0136336Y0166340D01*
X0136336Y0171114D01*
X0135960Y0171114D01*
X0135218Y0170997D01*
X0134503Y0170765D01*
X0133834Y0170423D01*
X0133226Y0169982D01*
X0132694Y0169450D01*
X0132252Y0168842D01*
X0131561Y0166561D02*
X0105623Y0166561D01*
X0105634Y0164162D02*
X0132087Y0164162D01*
X0132252Y0163837D02*
X0132694Y0163229D01*
X0133226Y0162698D01*
X0133834Y0162256D01*
X0134503Y0161915D01*
X0135218Y0161682D01*
X0135960Y0161565D01*
X0136336Y0161565D01*
X0136336Y0166339D01*
X0136336Y0166339D01*
X0131561Y0166339D01*
X0131561Y0165964D01*
X0131679Y0165221D01*
X0131911Y0164507D01*
X0132252Y0163837D01*
X0134968Y0161764D02*
X0105645Y0161764D01*
X0105656Y0159365D02*
X0132632Y0159365D01*
X0132694Y0159450D02*
X0132252Y0158842D01*
X0131911Y0158172D01*
X0131679Y0157458D01*
X0131561Y0156715D01*
X0131561Y0156340D01*
X0136336Y0156340D01*
X0136336Y0161114D01*
X0135960Y0161114D01*
X0135218Y0160997D01*
X0134503Y0160765D01*
X0133834Y0160423D01*
X0133226Y0159982D01*
X0132694Y0159450D01*
X0131601Y0156967D02*
X0105667Y0156967D01*
X0105678Y0154568D02*
X0131891Y0154568D01*
X0131911Y0154507D02*
X0132252Y0153837D01*
X0132694Y0153229D01*
X0133226Y0152698D01*
X0133834Y0152256D01*
X0134503Y0151915D01*
X0135218Y0151682D01*
X0135960Y0151565D01*
X0136336Y0151565D01*
X0136336Y0156339D01*
X0136336Y0156339D01*
X0131561Y0156339D01*
X0131561Y0155964D01*
X0131679Y0155221D01*
X0131911Y0154507D01*
X0134003Y0152170D02*
X0105689Y0152170D01*
X0105699Y0149771D02*
X0133015Y0149771D01*
X0133226Y0149982D02*
X0132694Y0149450D01*
X0132252Y0148842D01*
X0131911Y0148172D01*
X0131679Y0147458D01*
X0131561Y0146715D01*
X0131561Y0146340D01*
X0136336Y0146340D01*
X0136336Y0151114D01*
X0135960Y0151114D01*
X0135218Y0150997D01*
X0134503Y0150765D01*
X0133834Y0150423D01*
X0133226Y0149982D01*
X0131665Y0147373D02*
X0105710Y0147373D01*
X0105721Y0144974D02*
X0131759Y0144974D01*
X0131679Y0145221D02*
X0131911Y0144507D01*
X0132252Y0143837D01*
X0132694Y0143229D01*
X0133226Y0142698D01*
X0133834Y0142256D01*
X0134503Y0141915D01*
X0135218Y0141682D01*
X0135960Y0141565D01*
X0136336Y0141565D01*
X0136336Y0146339D01*
X0136336Y0146339D01*
X0131561Y0146339D01*
X0131561Y0145964D01*
X0131679Y0145221D01*
X0133394Y0142576D02*
X0105732Y0142576D01*
X0105743Y0140177D02*
X0133495Y0140177D01*
X0133226Y0139982D02*
X0132694Y0139450D01*
X0132252Y0138842D01*
X0131911Y0138172D01*
X0131679Y0137458D01*
X0131561Y0136715D01*
X0131561Y0136340D01*
X0136336Y0136340D01*
X0136336Y0141114D01*
X0135960Y0141114D01*
X0135218Y0140997D01*
X0134503Y0140765D01*
X0133834Y0140423D01*
X0133226Y0139982D01*
X0131783Y0137779D02*
X0105754Y0137779D01*
X0105765Y0135380D02*
X0131654Y0135380D01*
X0131679Y0135221D02*
X0131911Y0134507D01*
X0132252Y0133837D01*
X0132694Y0133229D01*
X0133226Y0132698D01*
X0133834Y0132256D01*
X0134503Y0131915D01*
X0135218Y0131682D01*
X0135960Y0131565D01*
X0136336Y0131565D01*
X0136336Y0136339D01*
X0136336Y0136339D01*
X0131561Y0136339D01*
X0131561Y0135964D01*
X0131679Y0135221D01*
X0132942Y0132981D02*
X0105776Y0132981D01*
X0105787Y0130583D02*
X0134147Y0130583D01*
X0133834Y0130423D02*
X0133226Y0129982D01*
X0132694Y0129450D01*
X0132252Y0128842D01*
X0131911Y0128172D01*
X0131679Y0127458D01*
X0131561Y0126715D01*
X0131561Y0126340D01*
X0136336Y0126340D01*
X0136336Y0131114D01*
X0135960Y0131114D01*
X0135218Y0130997D01*
X0134503Y0130765D01*
X0133834Y0130423D01*
X0136336Y0130583D02*
X0136336Y0130583D01*
X0136336Y0131114D02*
X0136336Y0126340D01*
X0136336Y0126340D01*
X0136336Y0126339D01*
X0136336Y0126339D01*
X0136336Y0121565D01*
X0135960Y0121565D01*
X0135218Y0121682D01*
X0134503Y0121915D01*
X0133834Y0122256D01*
X0133226Y0122698D01*
X0132694Y0123229D01*
X0132252Y0123837D01*
X0131911Y0124507D01*
X0131679Y0125221D01*
X0131561Y0125964D01*
X0131561Y0126339D01*
X0136336Y0126339D01*
X0136336Y0121565D01*
X0136712Y0121565D01*
X0137454Y0121682D01*
X0138169Y0121915D01*
X0138839Y0122256D01*
X0139447Y0122698D01*
X0139978Y0123229D01*
X0140420Y0123837D01*
X0140761Y0124507D01*
X0140993Y0125221D01*
X0141111Y0125964D01*
X0141111Y0126339D01*
X0136336Y0126339D01*
X0136336Y0126340D01*
X0141111Y0126340D01*
X0141111Y0126715D01*
X0140993Y0127458D01*
X0140761Y0128172D01*
X0140420Y0128842D01*
X0139978Y0129450D01*
X0139447Y0129982D01*
X0138839Y0130423D01*
X0138169Y0130765D01*
X0137454Y0130997D01*
X0136712Y0131114D01*
X0136336Y0131114D01*
X0136336Y0131565D02*
X0136712Y0131565D01*
X0137454Y0131682D01*
X0138169Y0131915D01*
X0138839Y0132256D01*
X0139447Y0132698D01*
X0139978Y0133229D01*
X0140420Y0133837D01*
X0140761Y0134507D01*
X0140993Y0135221D01*
X0141111Y0135964D01*
X0141111Y0136339D01*
X0136336Y0136339D01*
X0136336Y0136340D01*
X0136336Y0136340D01*
X0136336Y0141114D01*
X0136712Y0141114D01*
X0137454Y0140997D01*
X0138169Y0140765D01*
X0138839Y0140423D01*
X0139447Y0139982D01*
X0139978Y0139450D01*
X0140420Y0138842D01*
X0140761Y0138172D01*
X0140993Y0137458D01*
X0141111Y0136715D01*
X0141111Y0136340D01*
X0136336Y0136340D01*
X0136336Y0136339D01*
X0136336Y0131565D01*
X0136336Y0132981D02*
X0136336Y0132981D01*
X0136336Y0135380D02*
X0136336Y0135380D01*
X0136336Y0137779D02*
X0136336Y0137779D01*
X0136336Y0140177D02*
X0136336Y0140177D01*
X0136336Y0141565D02*
X0136712Y0141565D01*
X0137454Y0141682D01*
X0138169Y0141915D01*
X0138839Y0142256D01*
X0139447Y0142698D01*
X0139978Y0143229D01*
X0140420Y0143837D01*
X0140761Y0144507D01*
X0140993Y0145221D01*
X0141111Y0145964D01*
X0141111Y0146339D01*
X0136336Y0146339D01*
X0136336Y0146340D01*
X0136336Y0146340D01*
X0136336Y0151114D01*
X0136712Y0151114D01*
X0137454Y0150997D01*
X0138169Y0150765D01*
X0138839Y0150423D01*
X0139447Y0149982D01*
X0139978Y0149450D01*
X0140420Y0148842D01*
X0140761Y0148172D01*
X0140993Y0147458D01*
X0141111Y0146715D01*
X0141111Y0146340D01*
X0136336Y0146340D01*
X0136336Y0146339D01*
X0136336Y0141565D01*
X0136336Y0142576D02*
X0136336Y0142576D01*
X0136336Y0144974D02*
X0136336Y0144974D01*
X0136336Y0147373D02*
X0136336Y0147373D01*
X0136336Y0149771D02*
X0136336Y0149771D01*
X0136336Y0151565D02*
X0136712Y0151565D01*
X0137454Y0151682D01*
X0138169Y0151915D01*
X0138839Y0152256D01*
X0139447Y0152698D01*
X0139978Y0153229D01*
X0140420Y0153837D01*
X0140761Y0154507D01*
X0140993Y0155221D01*
X0141111Y0155964D01*
X0141111Y0156339D01*
X0136336Y0156339D01*
X0136336Y0156340D01*
X0136336Y0156340D01*
X0136336Y0161114D01*
X0136712Y0161114D01*
X0137454Y0160997D01*
X0138169Y0160765D01*
X0138839Y0160423D01*
X0139447Y0159982D01*
X0139978Y0159450D01*
X0140420Y0158842D01*
X0140761Y0158172D01*
X0140993Y0157458D01*
X0141111Y0156715D01*
X0141111Y0156340D01*
X0136336Y0156340D01*
X0136336Y0156339D01*
X0136336Y0151565D01*
X0136336Y0152170D02*
X0136336Y0152170D01*
X0138670Y0152170D02*
X0170500Y0152170D01*
X0170500Y0154568D02*
X0140781Y0154568D01*
X0141071Y0156967D02*
X0170500Y0156967D01*
X0170500Y0159365D02*
X0140040Y0159365D01*
X0138839Y0162256D02*
X0138169Y0161915D01*
X0137454Y0161682D01*
X0136712Y0161565D01*
X0136336Y0161565D01*
X0136336Y0166339D01*
X0136336Y0166340D01*
X0136336Y0166340D01*
X0136336Y0171114D01*
X0136712Y0171114D01*
X0137454Y0170997D01*
X0138169Y0170765D01*
X0138839Y0170423D01*
X0139447Y0169982D01*
X0139978Y0169450D01*
X0140420Y0168842D01*
X0140761Y0168172D01*
X0140993Y0167458D01*
X0141111Y0166715D01*
X0141111Y0166340D01*
X0136336Y0166340D01*
X0136336Y0166339D01*
X0141111Y0166339D01*
X0141111Y0165964D01*
X0140993Y0165221D01*
X0140761Y0164507D01*
X0140420Y0163837D01*
X0139978Y0163229D01*
X0139447Y0162698D01*
X0138839Y0162256D01*
X0137705Y0161764D02*
X0170500Y0161764D01*
X0170500Y0164162D02*
X0140586Y0164162D01*
X0141111Y0166561D02*
X0170500Y0166561D01*
X0170500Y0168959D02*
X0140335Y0168959D01*
X0136336Y0168959D02*
X0136336Y0168959D01*
X0136336Y0166561D02*
X0136336Y0166561D01*
X0136336Y0164162D02*
X0136336Y0164162D01*
X0136336Y0161764D02*
X0136336Y0161764D01*
X0136336Y0159365D02*
X0136336Y0159365D01*
X0136336Y0156967D02*
X0136336Y0156967D01*
X0136336Y0154568D02*
X0136336Y0154568D01*
X0139657Y0149771D02*
X0170500Y0149771D01*
X0170500Y0147373D02*
X0141007Y0147373D01*
X0140913Y0144974D02*
X0170500Y0144974D01*
X0170500Y0142576D02*
X0139279Y0142576D01*
X0139178Y0140177D02*
X0170500Y0140177D01*
X0168187Y0137779D02*
X0155426Y0137779D01*
X0152640Y0137779D02*
X0140889Y0137779D01*
X0141019Y0135380D02*
X0150149Y0135380D01*
X0149859Y0132981D02*
X0139731Y0132981D01*
X0138525Y0130583D02*
X0151367Y0130583D01*
X0156699Y0130583D02*
X0207048Y0130583D01*
X0207396Y0129742D02*
X0206670Y0131496D01*
X0206670Y0133394D01*
X0207396Y0135148D01*
X0208739Y0136490D01*
X0210492Y0137216D01*
X0212391Y0137216D01*
X0214144Y0136490D01*
X0215487Y0135148D01*
X0216213Y0133394D01*
X0216213Y0131496D01*
X0215487Y0129742D01*
X0214144Y0128400D01*
X0212391Y0127673D01*
X0210492Y0127673D01*
X0208739Y0128400D01*
X0207396Y0129742D01*
X0209258Y0128184D02*
X0140755Y0128184D01*
X0141083Y0125786D02*
X0271323Y0125786D01*
X0271323Y0128184D02*
X0237248Y0128184D01*
X0237767Y0128400D02*
X0239109Y0129742D01*
X0239836Y0131496D01*
X0239836Y0133394D01*
X0239109Y0135148D01*
X0237767Y0136490D01*
X0236013Y0137216D01*
X0234115Y0137216D01*
X0232361Y0136490D01*
X0231019Y0135148D01*
X0230292Y0133394D01*
X0230292Y0131496D01*
X0231019Y0129742D01*
X0232361Y0128400D01*
X0234115Y0127673D01*
X0236013Y0127673D01*
X0237767Y0128400D01*
X0239458Y0130583D02*
X0271323Y0130583D01*
X0271323Y0132981D02*
X0239836Y0132981D01*
X0238877Y0135380D02*
X0271323Y0135380D01*
X0271323Y0137779D02*
X0236648Y0137779D01*
X0236013Y0137516D02*
X0237767Y0138242D01*
X0239109Y0139584D01*
X0239836Y0141338D01*
X0239836Y0143236D01*
X0239109Y0144990D01*
X0237767Y0146333D01*
X0236013Y0147059D01*
X0234115Y0147059D01*
X0232361Y0146333D01*
X0231019Y0144990D01*
X0230292Y0143236D01*
X0230292Y0141338D01*
X0231019Y0139584D01*
X0232361Y0138242D01*
X0234115Y0137516D01*
X0236013Y0137516D01*
X0233480Y0137779D02*
X0213025Y0137779D01*
X0212391Y0137516D02*
X0214144Y0138242D01*
X0215487Y0139584D01*
X0216213Y0141338D01*
X0216213Y0143236D01*
X0215487Y0144990D01*
X0214144Y0146333D01*
X0212391Y0147059D01*
X0210492Y0147059D01*
X0208739Y0146333D01*
X0207396Y0144990D01*
X0206670Y0143236D01*
X0206670Y0141338D01*
X0207396Y0139584D01*
X0208739Y0138242D01*
X0210492Y0137516D01*
X0212391Y0137516D01*
X0209858Y0137779D02*
X0175853Y0137779D01*
X0176100Y0140177D02*
X0207151Y0140177D01*
X0206670Y0142576D02*
X0176100Y0142576D01*
X0176100Y0144974D02*
X0207390Y0144974D01*
X0208836Y0147878D02*
X0209533Y0147522D01*
X0210277Y0147281D01*
X0211050Y0147158D01*
X0211441Y0147158D01*
X0211441Y0152130D01*
X0211441Y0152130D01*
X0206470Y0152130D01*
X0206470Y0152521D01*
X0206592Y0153294D01*
X0206834Y0154038D01*
X0207189Y0154736D01*
X0207649Y0155369D01*
X0208203Y0155922D01*
X0208836Y0156382D01*
X0209533Y0156737D01*
X0210277Y0156979D01*
X0211050Y0157101D01*
X0211441Y0157101D01*
X0211441Y0152130D01*
X0206470Y0152130D01*
X0206470Y0151739D01*
X0206592Y0150966D01*
X0206834Y0150221D01*
X0207189Y0149524D01*
X0207649Y0148891D01*
X0208203Y0148338D01*
X0208836Y0147878D01*
X0209994Y0147373D02*
X0176100Y0147373D01*
X0176100Y0149771D02*
X0207064Y0149771D01*
X0206470Y0152170D02*
X0176100Y0152170D01*
X0176100Y0154568D02*
X0207104Y0154568D01*
X0208739Y0157927D02*
X0210492Y0157201D01*
X0212391Y0157201D01*
X0214144Y0157927D01*
X0215487Y0159269D01*
X0216213Y0161023D01*
X0216213Y0162922D01*
X0215487Y0164675D01*
X0214144Y0166018D01*
X0212391Y0166744D01*
X0210492Y0166744D01*
X0208739Y0166018D01*
X0207396Y0164675D01*
X0206670Y0162922D01*
X0206670Y0161023D01*
X0207396Y0159269D01*
X0208739Y0157927D01*
X0210239Y0156967D02*
X0176100Y0156967D01*
X0176100Y0159365D02*
X0207357Y0159365D01*
X0206670Y0161764D02*
X0176100Y0161764D01*
X0176100Y0164162D02*
X0207184Y0164162D01*
X0210050Y0166561D02*
X0176100Y0166561D01*
X0176100Y0168959D02*
X0207549Y0168959D01*
X0207396Y0169112D02*
X0208739Y0167770D01*
X0210492Y0167043D01*
X0212391Y0167043D01*
X0214144Y0167770D01*
X0215487Y0169112D01*
X0216213Y0170866D01*
X0216213Y0172764D01*
X0215487Y0174518D01*
X0214144Y0175860D01*
X0212391Y0176587D01*
X0210492Y0176587D01*
X0208739Y0175860D01*
X0207396Y0174518D01*
X0206670Y0172764D01*
X0206670Y0170866D01*
X0207396Y0169112D01*
X0206670Y0171358D02*
X0176100Y0171358D01*
X0176100Y0173756D02*
X0207081Y0173756D01*
X0209450Y0176155D02*
X0176100Y0176155D01*
X0174509Y0178553D02*
X0207798Y0178553D01*
X0207396Y0178954D02*
X0208739Y0177612D01*
X0210492Y0176886D01*
X0212391Y0176886D01*
X0214144Y0177612D01*
X0215487Y0178954D01*
X0216213Y0180708D01*
X0216213Y0182607D01*
X0215487Y0184360D01*
X0214144Y0185703D01*
X0212391Y0186429D01*
X0210492Y0186429D01*
X0208739Y0185703D01*
X0207396Y0184360D01*
X0206670Y0182607D01*
X0206670Y0180708D01*
X0207396Y0178954D01*
X0206670Y0180952D02*
X0172111Y0180952D01*
X0169712Y0183350D02*
X0206978Y0183350D01*
X0208850Y0185749D02*
X0167314Y0185749D01*
X0166452Y0188147D02*
X0271323Y0188147D01*
X0271323Y0185749D02*
X0237656Y0185749D01*
X0237767Y0185703D02*
X0236013Y0186429D01*
X0234115Y0186429D01*
X0232361Y0185703D01*
X0231019Y0184360D01*
X0230292Y0182607D01*
X0230292Y0180708D01*
X0231019Y0178954D01*
X0232361Y0177612D01*
X0234115Y0176886D01*
X0236013Y0176886D01*
X0237767Y0177612D01*
X0239109Y0178954D01*
X0239836Y0180708D01*
X0239836Y0182607D01*
X0239109Y0184360D01*
X0237767Y0185703D01*
X0239528Y0183350D02*
X0271323Y0183350D01*
X0271323Y0180952D02*
X0239836Y0180952D01*
X0238708Y0178553D02*
X0271323Y0178553D01*
X0271323Y0176155D02*
X0237056Y0176155D01*
X0237767Y0175860D02*
X0236013Y0176587D01*
X0234115Y0176587D01*
X0232361Y0175860D01*
X0231019Y0174518D01*
X0230292Y0172764D01*
X0230292Y0170866D01*
X0231019Y0169112D01*
X0232361Y0167770D01*
X0234115Y0167043D01*
X0236013Y0167043D01*
X0237767Y0167770D01*
X0239109Y0169112D01*
X0239836Y0170866D01*
X0239836Y0172764D01*
X0239109Y0174518D01*
X0237767Y0175860D01*
X0239425Y0173756D02*
X0271323Y0173756D01*
X0271323Y0171358D02*
X0239836Y0171358D01*
X0238956Y0168959D02*
X0271323Y0168959D01*
X0271323Y0166561D02*
X0236456Y0166561D01*
X0236013Y0166744D02*
X0234115Y0166744D01*
X0232361Y0166018D01*
X0231019Y0164675D01*
X0230292Y0162922D01*
X0230292Y0161023D01*
X0231019Y0159269D01*
X0232361Y0157927D01*
X0234115Y0157201D01*
X0236013Y0157201D01*
X0237767Y0157927D01*
X0239109Y0159269D01*
X0239836Y0161023D01*
X0239836Y0162922D01*
X0239109Y0164675D01*
X0237767Y0166018D01*
X0236013Y0166744D01*
X0233672Y0166561D02*
X0212833Y0166561D01*
X0215334Y0168959D02*
X0231172Y0168959D01*
X0230292Y0171358D02*
X0216213Y0171358D01*
X0215802Y0173756D02*
X0230703Y0173756D01*
X0233072Y0176155D02*
X0213433Y0176155D01*
X0215085Y0178553D02*
X0231420Y0178553D01*
X0230292Y0180952D02*
X0216213Y0180952D01*
X0215905Y0183350D02*
X0230600Y0183350D01*
X0232472Y0185749D02*
X0214033Y0185749D01*
X0220776Y0184344D02*
X0226162Y0184344D01*
X0226906Y0185088D01*
X0227239Y0190546D02*
X0271323Y0190546D01*
X0271323Y0192944D02*
X0227786Y0192944D01*
X0226874Y0195343D02*
X0272258Y0195343D01*
X0272053Y0195138D02*
X0271323Y0193374D01*
X0271323Y0111025D01*
X0272053Y0109261D01*
X0273404Y0107911D01*
X0275168Y0107180D01*
X0277077Y0107180D01*
X0278842Y0107911D01*
X0280192Y0109261D01*
X0280923Y0111025D01*
X0280923Y0193374D01*
X0280192Y0195138D01*
X0278842Y0196488D01*
X0277077Y0197219D01*
X0275168Y0197219D01*
X0273404Y0196488D01*
X0272053Y0195138D01*
X0279987Y0195343D02*
X0336023Y0195343D01*
X0336076Y0192944D02*
X0280923Y0192944D01*
X0280923Y0190546D02*
X0337992Y0190546D01*
X0342165Y0190546D02*
X0395497Y0190546D01*
X0395497Y0192944D02*
X0344081Y0192944D01*
X0345739Y0195343D02*
X0393107Y0195343D01*
X0390709Y0197741D02*
X0348138Y0197741D01*
X0348544Y0202673D02*
X0351225Y0202673D01*
X0348544Y0202673D02*
X0340078Y0194207D01*
X0337700Y0197741D02*
X0227566Y0197741D01*
X0223605Y0198305D02*
X0227973Y0202673D01*
X0223605Y0198305D02*
X0223605Y0192699D01*
X0219424Y0192944D02*
X0167543Y0192944D01*
X0166479Y0190546D02*
X0219971Y0190546D01*
X0220336Y0195343D02*
X0169941Y0195343D01*
X0172340Y0197741D02*
X0220405Y0197741D01*
X0206366Y0194088D02*
X0202535Y0194088D01*
X0172746Y0202673D02*
X0163279Y0193206D01*
X0163279Y0188850D01*
X0162072Y0187642D01*
X0152090Y0195295D02*
X0146423Y0195295D01*
X0146342Y0195376D01*
X0211442Y0157101D02*
X0211442Y0152130D01*
X0216413Y0152130D01*
X0216413Y0152521D01*
X0216291Y0153294D01*
X0216049Y0154038D01*
X0215694Y0154736D01*
X0215234Y0155369D01*
X0214680Y0155922D01*
X0214047Y0156382D01*
X0213350Y0156737D01*
X0212606Y0156979D01*
X0211833Y0157101D01*
X0211442Y0157101D01*
X0211441Y0156967D02*
X0211442Y0156967D01*
X0212644Y0156967D02*
X0233861Y0156967D01*
X0233900Y0156979D02*
X0233155Y0156737D01*
X0232458Y0156382D01*
X0231825Y0155922D01*
X0231272Y0155369D01*
X0230812Y0154736D01*
X0230457Y0154038D01*
X0230215Y0153294D01*
X0230092Y0152521D01*
X0230092Y0152130D01*
X0235064Y0152130D01*
X0235064Y0152130D01*
X0235064Y0157101D01*
X0235455Y0157101D01*
X0236228Y0156979D01*
X0236972Y0156737D01*
X0237670Y0156382D01*
X0238303Y0155922D01*
X0238856Y0155369D01*
X0239316Y0154736D01*
X0239671Y0154038D01*
X0239913Y0153294D01*
X0240036Y0152521D01*
X0240036Y0152130D01*
X0235064Y0152130D01*
X0235064Y0157101D01*
X0234673Y0157101D01*
X0233900Y0156979D01*
X0235064Y0156967D02*
X0235064Y0156967D01*
X0236267Y0156967D02*
X0271323Y0156967D01*
X0271323Y0159365D02*
X0239149Y0159365D01*
X0239836Y0161764D02*
X0271323Y0161764D01*
X0271323Y0164162D02*
X0239322Y0164162D01*
X0230806Y0164162D02*
X0215699Y0164162D01*
X0216213Y0161764D02*
X0230292Y0161764D01*
X0230979Y0159365D02*
X0215526Y0159365D01*
X0215779Y0154568D02*
X0230727Y0154568D01*
X0230092Y0152170D02*
X0216413Y0152170D01*
X0216413Y0152130D02*
X0211442Y0152130D01*
X0211442Y0152130D01*
X0211441Y0152130D01*
X0211442Y0152130D01*
X0211442Y0147158D01*
X0211833Y0147158D01*
X0212606Y0147281D01*
X0213350Y0147522D01*
X0214047Y0147878D01*
X0214680Y0148338D01*
X0215234Y0148891D01*
X0215694Y0149524D01*
X0216049Y0150221D01*
X0216291Y0150966D01*
X0216413Y0151739D01*
X0216413Y0152130D01*
X0215819Y0149771D02*
X0230686Y0149771D01*
X0230812Y0149524D02*
X0231272Y0148891D01*
X0231825Y0148338D01*
X0232458Y0147878D01*
X0233155Y0147522D01*
X0233900Y0147281D01*
X0234673Y0147158D01*
X0235064Y0147158D01*
X0235455Y0147158D01*
X0236228Y0147281D01*
X0236972Y0147522D01*
X0237670Y0147878D01*
X0238303Y0148338D01*
X0238856Y0148891D01*
X0239316Y0149524D01*
X0239671Y0150221D01*
X0239913Y0150966D01*
X0240036Y0151739D01*
X0240036Y0152130D01*
X0235064Y0152130D01*
X0235064Y0152130D01*
X0235064Y0152130D01*
X0230092Y0152130D01*
X0230092Y0151739D01*
X0230215Y0150966D01*
X0230457Y0150221D01*
X0230812Y0149524D01*
X0233617Y0147373D02*
X0212889Y0147373D01*
X0211442Y0147373D02*
X0211441Y0147373D01*
X0211441Y0149771D02*
X0211442Y0149771D01*
X0211441Y0152170D02*
X0211442Y0152170D01*
X0211441Y0154568D02*
X0211442Y0154568D01*
X0215493Y0144974D02*
X0231012Y0144974D01*
X0230292Y0142576D02*
X0216213Y0142576D01*
X0215732Y0140177D02*
X0230773Y0140177D01*
X0231251Y0135380D02*
X0215254Y0135380D01*
X0216213Y0132981D02*
X0230292Y0132981D01*
X0230670Y0130583D02*
X0215835Y0130583D01*
X0213625Y0128184D02*
X0232880Y0128184D01*
X0239355Y0140177D02*
X0271323Y0140177D01*
X0271323Y0142576D02*
X0239836Y0142576D01*
X0239116Y0144974D02*
X0271323Y0144974D01*
X0271323Y0147373D02*
X0236511Y0147373D01*
X0235064Y0147373D02*
X0235064Y0147373D01*
X0235064Y0147158D02*
X0235064Y0152130D01*
X0235064Y0152130D01*
X0235064Y0147158D01*
X0235064Y0149771D02*
X0235064Y0149771D01*
X0235064Y0152170D02*
X0235064Y0152170D01*
X0235064Y0154568D02*
X0235064Y0154568D01*
X0239401Y0154568D02*
X0271323Y0154568D01*
X0271323Y0152170D02*
X0240036Y0152170D01*
X0239442Y0149771D02*
X0271323Y0149771D01*
X0280923Y0149771D02*
X0312584Y0149771D01*
X0312523Y0149832D02*
X0313055Y0149301D01*
X0313663Y0148859D01*
X0314332Y0148518D01*
X0315047Y0148286D01*
X0315789Y0148168D01*
X0316165Y0148168D01*
X0316165Y0152943D01*
X0316165Y0157718D01*
X0315789Y0157718D01*
X0315047Y0157600D01*
X0314332Y0157368D01*
X0313663Y0157027D01*
X0313055Y0156585D01*
X0312523Y0156053D01*
X0312081Y0155445D01*
X0311740Y0154776D01*
X0311508Y0154061D01*
X0311390Y0153319D01*
X0311390Y0152943D01*
X0316165Y0152943D01*
X0316165Y0152943D01*
X0316165Y0152943D01*
X0316165Y0157718D01*
X0316541Y0157718D01*
X0317283Y0157600D01*
X0317998Y0157368D01*
X0318668Y0157027D01*
X0319276Y0156585D01*
X0319807Y0156053D01*
X0320249Y0155445D01*
X0320590Y0154776D01*
X0320822Y0154061D01*
X0320940Y0153319D01*
X0320940Y0152943D01*
X0316165Y0152943D01*
X0311390Y0152943D01*
X0311390Y0152567D01*
X0311508Y0151825D01*
X0311740Y0151110D01*
X0312081Y0150440D01*
X0312523Y0149832D01*
X0311453Y0152170D02*
X0280923Y0152170D01*
X0280923Y0154568D02*
X0311673Y0154568D01*
X0313580Y0156967D02*
X0280923Y0156967D01*
X0280923Y0159365D02*
X0312990Y0159365D01*
X0313055Y0159301D02*
X0313663Y0158859D01*
X0314332Y0158518D01*
X0315047Y0158286D01*
X0315789Y0158168D01*
X0316165Y0158168D01*
X0316165Y0162943D01*
X0316165Y0167718D01*
X0315789Y0167718D01*
X0315047Y0167600D01*
X0314332Y0167368D01*
X0313663Y0167027D01*
X0313055Y0166585D01*
X0312523Y0166053D01*
X0312081Y0165445D01*
X0311740Y0164776D01*
X0311508Y0164061D01*
X0311390Y0163319D01*
X0311390Y0162943D01*
X0316165Y0162943D01*
X0316165Y0162943D01*
X0316165Y0162943D01*
X0316165Y0167718D01*
X0316541Y0167718D01*
X0317283Y0167600D01*
X0317998Y0167368D01*
X0318668Y0167027D01*
X0319276Y0166585D01*
X0319807Y0166053D01*
X0320249Y0165445D01*
X0320590Y0164776D01*
X0320822Y0164061D01*
X0320940Y0163319D01*
X0320940Y0162943D01*
X0316165Y0162943D01*
X0311390Y0162943D01*
X0311390Y0162567D01*
X0311508Y0161825D01*
X0311740Y0161110D01*
X0312081Y0160440D01*
X0312523Y0159832D01*
X0313055Y0159301D01*
X0311528Y0161764D02*
X0280923Y0161764D01*
X0280923Y0164162D02*
X0311541Y0164162D01*
X0313030Y0166561D02*
X0280923Y0166561D01*
X0280923Y0168959D02*
X0313525Y0168959D01*
X0313663Y0168859D02*
X0314332Y0168518D01*
X0315047Y0168286D01*
X0315789Y0168168D01*
X0316165Y0168168D01*
X0316165Y0172943D01*
X0316165Y0177718D01*
X0315789Y0177718D01*
X0315047Y0177600D01*
X0314332Y0177368D01*
X0313663Y0177027D01*
X0313055Y0176585D01*
X0312523Y0176053D01*
X0312081Y0175445D01*
X0311740Y0174776D01*
X0311508Y0174061D01*
X0311390Y0173319D01*
X0311390Y0172943D01*
X0316165Y0172943D01*
X0316165Y0172943D01*
X0316165Y0172943D01*
X0316165Y0177718D01*
X0316541Y0177718D01*
X0317283Y0177600D01*
X0317998Y0177368D01*
X0318668Y0177027D01*
X0319276Y0176585D01*
X0319807Y0176053D01*
X0320249Y0175445D01*
X0320590Y0174776D01*
X0320822Y0174061D01*
X0320940Y0173319D01*
X0320940Y0172943D01*
X0316165Y0172943D01*
X0311390Y0172943D01*
X0311390Y0172567D01*
X0311508Y0171825D01*
X0311740Y0171110D01*
X0312081Y0170440D01*
X0312523Y0169832D01*
X0313055Y0169301D01*
X0313663Y0168859D01*
X0316165Y0168959D02*
X0316165Y0168959D01*
X0316165Y0168168D02*
X0316541Y0168168D01*
X0317283Y0168286D01*
X0317998Y0168518D01*
X0318668Y0168859D01*
X0319276Y0169301D01*
X0319807Y0169832D01*
X0320249Y0170440D01*
X0320590Y0171110D01*
X0320822Y0171825D01*
X0320940Y0172567D01*
X0320940Y0172943D01*
X0316165Y0172943D01*
X0316165Y0172943D01*
X0316165Y0172943D01*
X0316165Y0168168D01*
X0316165Y0166561D02*
X0316165Y0166561D01*
X0316165Y0164162D02*
X0316165Y0164162D01*
X0316165Y0162943D02*
X0316165Y0162943D01*
X0316165Y0162943D01*
X0316165Y0158168D01*
X0316541Y0158168D01*
X0317283Y0158286D01*
X0317998Y0158518D01*
X0318668Y0158859D01*
X0319276Y0159301D01*
X0319807Y0159832D01*
X0320249Y0160440D01*
X0320590Y0161110D01*
X0320822Y0161825D01*
X0320940Y0162567D01*
X0320940Y0162943D01*
X0316165Y0162943D01*
X0316165Y0161764D02*
X0316165Y0161764D01*
X0316165Y0159365D02*
X0316165Y0159365D01*
X0316165Y0156967D02*
X0316165Y0156967D01*
X0316165Y0154568D02*
X0316165Y0154568D01*
X0316165Y0152943D02*
X0316165Y0152943D01*
X0316165Y0152943D01*
X0316165Y0148168D01*
X0316541Y0148168D01*
X0317283Y0148286D01*
X0317998Y0148518D01*
X0318668Y0148859D01*
X0319276Y0149301D01*
X0319807Y0149832D01*
X0320249Y0150440D01*
X0320590Y0151110D01*
X0320822Y0151825D01*
X0320940Y0152567D01*
X0320940Y0152943D01*
X0316165Y0152943D01*
X0316165Y0152170D02*
X0316165Y0152170D01*
X0316165Y0149771D02*
X0316165Y0149771D01*
X0316165Y0147718D02*
X0315789Y0147718D01*
X0315047Y0147600D01*
X0314332Y0147368D01*
X0313663Y0147027D01*
X0313055Y0146585D01*
X0312523Y0146053D01*
X0312081Y0145445D01*
X0311740Y0144776D01*
X0311508Y0144061D01*
X0311390Y0143319D01*
X0311390Y0142943D01*
X0316165Y0142943D01*
X0316165Y0147718D01*
X0316165Y0142943D01*
X0316165Y0142943D01*
X0316165Y0142943D01*
X0311390Y0142943D01*
X0311390Y0142567D01*
X0311508Y0141825D01*
X0311740Y0141110D01*
X0312081Y0140440D01*
X0312523Y0139832D01*
X0313055Y0139301D01*
X0313663Y0138859D01*
X0314332Y0138518D01*
X0315047Y0138286D01*
X0315789Y0138168D01*
X0316165Y0138168D01*
X0316165Y0142943D01*
X0320940Y0142943D01*
X0320940Y0143319D01*
X0320822Y0144061D01*
X0320590Y0144776D01*
X0320249Y0145445D01*
X0319807Y0146053D01*
X0319276Y0146585D01*
X0318668Y0147027D01*
X0317998Y0147368D01*
X0317283Y0147600D01*
X0316541Y0147718D01*
X0316165Y0147718D01*
X0316165Y0147373D02*
X0316165Y0147373D01*
X0314347Y0147373D02*
X0280923Y0147373D01*
X0280923Y0144974D02*
X0311841Y0144974D01*
X0311390Y0142576D02*
X0280923Y0142576D01*
X0280923Y0140177D02*
X0312273Y0140177D01*
X0313663Y0137027D02*
X0314332Y0137368D01*
X0315047Y0137600D01*
X0315789Y0137718D01*
X0316165Y0137718D01*
X0316165Y0132943D01*
X0316165Y0132943D01*
X0316165Y0132943D01*
X0311390Y0132943D01*
X0311390Y0133319D01*
X0311508Y0134061D01*
X0311740Y0134776D01*
X0312081Y0135445D01*
X0312523Y0136053D01*
X0313055Y0136585D01*
X0313663Y0137027D01*
X0312048Y0135380D02*
X0280923Y0135380D01*
X0280923Y0132981D02*
X0311390Y0132981D01*
X0311390Y0132943D02*
X0311390Y0132567D01*
X0311508Y0131825D01*
X0311740Y0131110D01*
X0312081Y0130440D01*
X0312523Y0129832D01*
X0313055Y0129301D01*
X0313663Y0128859D01*
X0314332Y0128518D01*
X0315047Y0128286D01*
X0315789Y0128168D01*
X0316165Y0128168D01*
X0316165Y0132943D01*
X0316165Y0137718D01*
X0316541Y0137718D01*
X0317283Y0137600D01*
X0317998Y0137368D01*
X0318668Y0137027D01*
X0319276Y0136585D01*
X0319807Y0136053D01*
X0320249Y0135445D01*
X0320590Y0134776D01*
X0320822Y0134061D01*
X0320940Y0133319D01*
X0320940Y0132943D01*
X0316165Y0132943D01*
X0311390Y0132943D01*
X0312009Y0130583D02*
X0280923Y0130583D01*
X0280923Y0128184D02*
X0315686Y0128184D01*
X0315789Y0127718D02*
X0315047Y0127600D01*
X0314332Y0127368D01*
X0313663Y0127027D01*
X0313055Y0126585D01*
X0312523Y0126053D01*
X0312081Y0125445D01*
X0311740Y0124776D01*
X0311508Y0124061D01*
X0311390Y0123319D01*
X0311390Y0122943D01*
X0316165Y0122943D01*
X0316165Y0127718D01*
X0315789Y0127718D01*
X0316165Y0127718D02*
X0316165Y0122943D01*
X0316165Y0122943D01*
X0316165Y0122943D01*
X0311390Y0122943D01*
X0311390Y0122567D01*
X0311508Y0121825D01*
X0311740Y0121110D01*
X0312081Y0120440D01*
X0312523Y0119832D01*
X0313055Y0119301D01*
X0313663Y0118859D01*
X0314332Y0118518D01*
X0315047Y0118286D01*
X0315789Y0118168D01*
X0316165Y0118168D01*
X0316165Y0122943D01*
X0320940Y0122943D01*
X0320940Y0123319D01*
X0320822Y0124061D01*
X0320590Y0124776D01*
X0320249Y0125445D01*
X0319807Y0126053D01*
X0319276Y0126585D01*
X0318668Y0127027D01*
X0317998Y0127368D01*
X0317283Y0127600D01*
X0316541Y0127718D01*
X0316165Y0127718D01*
X0316165Y0128168D02*
X0316541Y0128168D01*
X0317283Y0128286D01*
X0317998Y0128518D01*
X0318668Y0128859D01*
X0319276Y0129301D01*
X0319807Y0129832D01*
X0320249Y0130440D01*
X0320590Y0131110D01*
X0320822Y0131825D01*
X0320940Y0132567D01*
X0320940Y0132943D01*
X0316165Y0132943D01*
X0316165Y0132943D01*
X0316165Y0132943D01*
X0316165Y0128168D01*
X0316165Y0128184D02*
X0316165Y0128184D01*
X0316644Y0128184D02*
X0391039Y0128184D01*
X0390520Y0128400D02*
X0392274Y0127673D01*
X0394172Y0127673D01*
X0395926Y0128400D01*
X0397268Y0129742D01*
X0397995Y0131496D01*
X0397995Y0133394D01*
X0397268Y0135148D01*
X0395926Y0136490D01*
X0394172Y0137216D01*
X0392274Y0137216D01*
X0390520Y0136490D01*
X0389178Y0135148D01*
X0388451Y0133394D01*
X0388451Y0131496D01*
X0389178Y0129742D01*
X0390520Y0128400D01*
X0388829Y0130583D02*
X0320322Y0130583D01*
X0320940Y0132981D02*
X0388451Y0132981D01*
X0389410Y0135380D02*
X0320282Y0135380D01*
X0318668Y0138859D02*
X0317998Y0138518D01*
X0317283Y0138286D01*
X0316541Y0138168D01*
X0316165Y0138168D01*
X0316165Y0142943D01*
X0316165Y0142943D01*
X0316165Y0142943D01*
X0320940Y0142943D01*
X0320940Y0142567D01*
X0320822Y0141825D01*
X0320590Y0141110D01*
X0320249Y0140440D01*
X0319807Y0139832D01*
X0319276Y0139301D01*
X0318668Y0138859D01*
X0320058Y0140177D02*
X0388932Y0140177D01*
X0389178Y0139584D02*
X0390520Y0138242D01*
X0392274Y0137516D01*
X0394172Y0137516D01*
X0395926Y0138242D01*
X0397268Y0139584D01*
X0397995Y0141338D01*
X0397995Y0143236D01*
X0397268Y0144990D01*
X0395926Y0146333D01*
X0394172Y0147059D01*
X0392274Y0147059D01*
X0390520Y0146333D01*
X0389178Y0144990D01*
X0388451Y0143236D01*
X0388451Y0141338D01*
X0389178Y0139584D01*
X0391639Y0137779D02*
X0280923Y0137779D01*
X0280923Y0125786D02*
X0312329Y0125786D01*
X0311401Y0123387D02*
X0280923Y0123387D01*
X0280923Y0120989D02*
X0311802Y0120989D01*
X0314190Y0118590D02*
X0280923Y0118590D01*
X0280923Y0116192D02*
X0398583Y0116192D01*
X0398583Y0118590D02*
X0318140Y0118590D01*
X0317998Y0118518D02*
X0318668Y0118859D01*
X0319276Y0119301D01*
X0319807Y0119832D01*
X0320249Y0120440D01*
X0320590Y0121110D01*
X0320822Y0121825D01*
X0320940Y0122567D01*
X0320940Y0122943D01*
X0316165Y0122943D01*
X0316165Y0122943D01*
X0316165Y0122943D01*
X0316165Y0118168D01*
X0316541Y0118168D01*
X0317283Y0118286D01*
X0317998Y0118518D01*
X0316165Y0118590D02*
X0316165Y0118590D01*
X0316165Y0120989D02*
X0316165Y0120989D01*
X0320528Y0120989D02*
X0398583Y0120989D01*
X0398583Y0123387D02*
X0320929Y0123387D01*
X0320001Y0125786D02*
X0398583Y0125786D01*
X0398583Y0128184D02*
X0395406Y0128184D01*
X0397617Y0130583D02*
X0398583Y0130583D01*
X0398583Y0132981D02*
X0397995Y0132981D01*
X0398583Y0135380D02*
X0397036Y0135380D01*
X0398583Y0137779D02*
X0394807Y0137779D01*
X0397514Y0140177D02*
X0398583Y0140177D01*
X0398583Y0142576D02*
X0397995Y0142576D01*
X0398583Y0144974D02*
X0397275Y0144974D01*
X0398583Y0147373D02*
X0394670Y0147373D01*
X0394387Y0147281D02*
X0395131Y0147522D01*
X0395829Y0147878D01*
X0396462Y0148338D01*
X0397015Y0148891D01*
X0397475Y0149524D01*
X0397830Y0150221D01*
X0398072Y0150966D01*
X0398195Y0151739D01*
X0398195Y0152130D01*
X0398195Y0152521D01*
X0398072Y0153294D01*
X0397830Y0154038D01*
X0397475Y0154736D01*
X0397015Y0155369D01*
X0396462Y0155922D01*
X0395829Y0156382D01*
X0395131Y0156737D01*
X0394387Y0156979D01*
X0393614Y0157101D01*
X0393223Y0157101D01*
X0393223Y0152130D01*
X0393223Y0152130D01*
X0398195Y0152130D01*
X0393223Y0152130D01*
X0393223Y0152130D01*
X0393223Y0157101D01*
X0392832Y0157101D01*
X0392059Y0156979D01*
X0391314Y0156737D01*
X0390617Y0156382D01*
X0389984Y0155922D01*
X0389431Y0155369D01*
X0388971Y0154736D01*
X0388616Y0154038D01*
X0388374Y0153294D01*
X0388251Y0152521D01*
X0388251Y0152130D01*
X0393223Y0152130D01*
X0393223Y0152130D01*
X0393223Y0147158D01*
X0393614Y0147158D01*
X0394387Y0147281D01*
X0393223Y0147373D02*
X0393223Y0147373D01*
X0393223Y0147158D02*
X0393223Y0152130D01*
X0393223Y0152130D01*
X0388251Y0152130D01*
X0388251Y0151739D01*
X0388374Y0150966D01*
X0388616Y0150221D01*
X0388971Y0149524D01*
X0389431Y0148891D01*
X0389984Y0148338D01*
X0390617Y0147878D01*
X0391314Y0147522D01*
X0392059Y0147281D01*
X0392832Y0147158D01*
X0393223Y0147158D01*
X0391776Y0147373D02*
X0317984Y0147373D01*
X0319746Y0149771D02*
X0388845Y0149771D01*
X0388251Y0152170D02*
X0320877Y0152170D01*
X0320658Y0154568D02*
X0388885Y0154568D01*
X0392020Y0156967D02*
X0318750Y0156967D01*
X0319340Y0159365D02*
X0389138Y0159365D01*
X0388451Y0161764D02*
X0320802Y0161764D01*
X0320789Y0164162D02*
X0388965Y0164162D01*
X0391831Y0166561D02*
X0319300Y0166561D01*
X0318805Y0168959D02*
X0389331Y0168959D01*
X0394615Y0166561D02*
X0395017Y0166561D01*
X0399083Y0166115D02*
X0399097Y0166115D01*
X0394954Y0161972D01*
X0393223Y0161972D01*
X0397308Y0159365D02*
X0398583Y0159365D01*
X0398583Y0156967D02*
X0394426Y0156967D01*
X0393223Y0156967D02*
X0393223Y0156967D01*
X0393223Y0154568D02*
X0393223Y0154568D01*
X0393223Y0152170D02*
X0393223Y0152170D01*
X0393223Y0149771D02*
X0393223Y0149771D01*
X0397601Y0149771D02*
X0398583Y0149771D01*
X0398583Y0152170D02*
X0398195Y0152170D01*
X0398583Y0154568D02*
X0397560Y0154568D01*
X0389171Y0144974D02*
X0320489Y0144974D01*
X0320940Y0142576D02*
X0388451Y0142576D01*
X0376862Y0123199D02*
X0376862Y0118285D01*
X0377531Y0117616D01*
X0398583Y0113793D02*
X0280923Y0113793D01*
X0280923Y0111395D02*
X0398583Y0111395D01*
X0398583Y0108996D02*
X0279927Y0108996D01*
X0272318Y0108996D02*
X0231544Y0108996D01*
X0231173Y0106598D02*
X0398583Y0106598D01*
X0398583Y0104199D02*
X0237806Y0104199D01*
X0238251Y0101801D02*
X0398583Y0101801D01*
X0353830Y0058628D02*
X0307349Y0058628D01*
X0307349Y0056229D02*
X0352399Y0056229D01*
X0352180Y0053831D02*
X0307349Y0053831D01*
X0307349Y0051432D02*
X0352969Y0051432D01*
X0355845Y0049034D02*
X0307349Y0049034D01*
X0300949Y0049034D02*
X0244988Y0049034D01*
X0244361Y0046635D02*
X0300949Y0046635D01*
X0300949Y0044237D02*
X0240549Y0044237D01*
X0242461Y0041838D02*
X0299364Y0041838D01*
X0296966Y0039440D02*
X0242512Y0039440D01*
X0240835Y0037041D02*
X0294567Y0037041D01*
X0294088Y0032037D02*
X0304149Y0042097D01*
X0304149Y0093319D01*
X0304346Y0093516D01*
X0301921Y0097004D02*
X0224230Y0097004D01*
X0224138Y0094605D02*
X0224108Y0094605D01*
X0220140Y0095951D02*
X0196063Y0071875D01*
X0196063Y0071614D01*
X0176289Y0058628D02*
X0176289Y0058628D01*
X0176289Y0056229D02*
X0176289Y0056229D01*
X0171240Y0058628D02*
X0169364Y0058628D01*
X0170157Y0056229D02*
X0170424Y0056229D01*
X0170641Y0053831D02*
X0169910Y0053831D01*
X0168455Y0051432D02*
X0172053Y0051432D01*
X0170721Y0049034D02*
X0167914Y0049034D01*
X0168983Y0046635D02*
X0169589Y0046635D01*
X0169659Y0044237D02*
X0168886Y0044237D01*
X0167578Y0041838D02*
X0170930Y0041838D01*
X0172127Y0039440D02*
X0168508Y0039440D01*
X0169857Y0037041D02*
X0170741Y0037041D01*
X0170589Y0034643D02*
X0169983Y0034643D01*
X0168984Y0032244D02*
X0171524Y0032244D01*
X0169801Y0027447D02*
X0166364Y0027447D01*
X0159801Y0027447D02*
X0146364Y0027447D01*
X0147918Y0025048D02*
X0158246Y0025048D01*
X0158082Y0022650D02*
X0148082Y0022650D01*
X0148082Y0020251D02*
X0158082Y0020251D01*
X0158082Y0017853D02*
X0148082Y0017853D01*
X0167956Y0016357D02*
X0168082Y0016663D01*
X0168082Y0024652D01*
X0168082Y0016663D01*
X0168209Y0016357D01*
X0167956Y0016357D01*
X0168082Y0017853D02*
X0168082Y0017853D01*
X0168082Y0020251D02*
X0168082Y0020251D01*
X0168082Y0022650D02*
X0168082Y0022650D01*
X0167918Y0025048D02*
X0168246Y0025048D01*
X0176364Y0027447D02*
X0179801Y0027447D01*
X0186364Y0027447D02*
X0189801Y0027447D01*
X0188246Y0025048D02*
X0187918Y0025048D01*
X0188082Y0024652D02*
X0188082Y0016663D01*
X0187956Y0016357D01*
X0188209Y0016357D01*
X0188082Y0016663D01*
X0188082Y0024652D01*
X0188082Y0022650D02*
X0188082Y0022650D01*
X0188082Y0020251D02*
X0188082Y0020251D01*
X0188082Y0017853D02*
X0188082Y0017853D01*
X0197956Y0016357D02*
X0198082Y0016663D01*
X0198082Y0024652D01*
X0198082Y0016663D01*
X0198209Y0016357D01*
X0197956Y0016357D01*
X0198082Y0017853D02*
X0198082Y0017853D01*
X0198082Y0020251D02*
X0198082Y0020251D01*
X0198082Y0022650D02*
X0198082Y0022650D01*
X0197918Y0025048D02*
X0198246Y0025048D01*
X0199801Y0027447D02*
X0196364Y0027447D01*
X0181054Y0032244D02*
X0212430Y0032244D01*
X0214828Y0034643D02*
X0181989Y0034643D01*
X0178246Y0025048D02*
X0177918Y0025048D01*
X0178082Y0024652D02*
X0178082Y0016663D01*
X0177956Y0016357D01*
X0178209Y0016357D01*
X0178082Y0016663D01*
X0178082Y0024652D01*
X0178082Y0022650D02*
X0178082Y0022650D01*
X0178082Y0020251D02*
X0178082Y0020251D01*
X0178082Y0017853D02*
X0178082Y0017853D01*
X0159582Y0032244D02*
X0156443Y0032244D01*
X0157485Y0034643D02*
X0158583Y0034643D01*
X0158708Y0037041D02*
X0157377Y0037041D01*
X0156054Y0039440D02*
X0160057Y0039440D01*
X0158988Y0041838D02*
X0155037Y0041838D01*
X0156370Y0044237D02*
X0157680Y0044237D01*
X0157583Y0046635D02*
X0156485Y0046635D01*
X0155460Y0049034D02*
X0158651Y0049034D01*
X0160111Y0051432D02*
X0155914Y0051432D01*
X0157398Y0053831D02*
X0158655Y0053831D01*
X0158408Y0056229D02*
X0157666Y0056229D01*
X0156888Y0058628D02*
X0159202Y0058628D01*
X0164283Y0058628D02*
X0164283Y0058628D01*
X0164283Y0056229D02*
X0164283Y0056229D01*
X0151785Y0056229D02*
X0151785Y0056229D01*
X0151785Y0058628D02*
X0151785Y0058628D01*
X0146682Y0058628D02*
X0143519Y0058628D01*
X0144619Y0056229D02*
X0145904Y0056229D01*
X0146172Y0053831D02*
X0144616Y0053831D01*
X0143505Y0051432D02*
X0147656Y0051432D01*
X0146111Y0049034D02*
X0141900Y0049034D01*
X0143342Y0046635D02*
X0145085Y0046635D01*
X0145200Y0044237D02*
X0143533Y0044237D01*
X0142677Y0041838D02*
X0146533Y0041838D01*
X0147517Y0039440D02*
X0142494Y0039440D01*
X0144174Y0037041D02*
X0146193Y0037041D01*
X0146085Y0034643D02*
X0144533Y0034643D01*
X0143845Y0032244D02*
X0147127Y0032244D01*
X0118246Y0025048D02*
X0117918Y0025048D01*
X0118082Y0024652D02*
X0118082Y0016663D01*
X0117956Y0016357D01*
X0118209Y0016357D01*
X0118082Y0016663D01*
X0118082Y0024652D01*
X0118082Y0022650D02*
X0118082Y0022650D01*
X0118082Y0020251D02*
X0118082Y0020251D01*
X0118082Y0017853D02*
X0118082Y0017853D01*
X0088209Y0016357D02*
X0087956Y0016357D01*
X0088082Y0016663D01*
X0088082Y0024652D01*
X0088082Y0016663D01*
X0088209Y0016357D01*
X0088082Y0017853D02*
X0088082Y0017853D01*
X0088082Y0020251D02*
X0088082Y0020251D01*
X0088082Y0022650D02*
X0088082Y0022650D01*
X0087918Y0025048D02*
X0088246Y0025048D01*
X0083082Y0020657D02*
X0082300Y0021439D01*
X0082300Y0029145D01*
X0079353Y0032093D01*
X0061962Y0032093D01*
X0059019Y0035036D01*
X0052864Y0028073D02*
X0052864Y0088116D01*
X0072936Y0108187D01*
X0227363Y0108327D01*
X0230209Y0111395D02*
X0271323Y0111395D01*
X0271323Y0113793D02*
X0105585Y0113793D01*
X0105852Y0116192D02*
X0271323Y0116192D01*
X0271323Y0118590D02*
X0105841Y0118590D01*
X0105830Y0120989D02*
X0271323Y0120989D01*
X0271323Y0123387D02*
X0140093Y0123387D01*
X0136336Y0123387D02*
X0136336Y0123387D01*
X0136336Y0125786D02*
X0136336Y0125786D01*
X0136336Y0128184D02*
X0136336Y0128184D01*
X0131917Y0128184D02*
X0105798Y0128184D01*
X0105809Y0125786D02*
X0131590Y0125786D01*
X0132579Y0123387D02*
X0105819Y0123387D01*
X0096219Y0123387D02*
X0047423Y0123387D01*
X0048082Y0120989D02*
X0096230Y0120989D01*
X0096241Y0118590D02*
X0048082Y0118590D01*
X0045688Y0116192D02*
X0096252Y0116192D01*
X0096524Y0113793D02*
X0047017Y0113793D01*
X0048082Y0111395D02*
X0081333Y0111395D01*
X0069219Y0108996D02*
X0048082Y0108996D01*
X0030071Y0106598D02*
X0018782Y0106598D01*
X0018782Y0108996D02*
X0028082Y0108996D01*
X0028082Y0111395D02*
X0018782Y0111395D01*
X0018782Y0113793D02*
X0029147Y0113793D01*
X0030477Y0116192D02*
X0018782Y0116192D01*
X0018782Y0118590D02*
X0028082Y0118590D01*
X0028082Y0120989D02*
X0018782Y0120989D01*
X0018782Y0123387D02*
X0028741Y0123387D01*
X0030883Y0125786D02*
X0018782Y0125786D01*
X0018782Y0128184D02*
X0028484Y0128184D01*
X0028082Y0130583D02*
X0018782Y0130583D01*
X0018782Y0132981D02*
X0028335Y0132981D01*
X0030734Y0135380D02*
X0018782Y0135380D01*
X0018782Y0137779D02*
X0028890Y0137779D01*
X0028082Y0140177D02*
X0018782Y0140177D01*
X0018782Y0142576D02*
X0028082Y0142576D01*
X0030328Y0144974D02*
X0018782Y0144974D01*
X0018782Y0147373D02*
X0029296Y0147373D01*
X0028082Y0149771D02*
X0018782Y0149771D01*
X0018782Y0152170D02*
X0028082Y0152170D01*
X0029922Y0154568D02*
X0018782Y0154568D01*
X0018782Y0156967D02*
X0029702Y0156967D01*
X0028082Y0159365D02*
X0018782Y0159365D01*
X0018782Y0161764D02*
X0028082Y0161764D01*
X0029516Y0164162D02*
X0018782Y0164162D01*
X0018782Y0166561D02*
X0030108Y0166561D01*
X0028082Y0168959D02*
X0018782Y0168959D01*
X0018782Y0171358D02*
X0028082Y0171358D01*
X0029110Y0173756D02*
X0018782Y0173756D01*
X0018782Y0176155D02*
X0030514Y0176155D01*
X0028115Y0178553D02*
X0018782Y0178553D01*
X0018782Y0180952D02*
X0028082Y0180952D01*
X0028704Y0183350D02*
X0018782Y0183350D01*
X0018782Y0185749D02*
X0030637Y0185749D01*
X0028238Y0188147D02*
X0018782Y0188147D01*
X0065241Y0154568D02*
X0096078Y0154568D01*
X0096088Y0152170D02*
X0065875Y0152170D01*
X0065281Y0149771D02*
X0096099Y0149771D01*
X0171309Y0132981D02*
X0206670Y0132981D01*
X0207629Y0135380D02*
X0173708Y0135380D01*
X0194360Y0123853D02*
X0195994Y0122219D01*
X0197509Y0122219D01*
X0260491Y0120289D02*
X0261383Y0119397D01*
X0261383Y0114707D01*
X0316165Y0123387D02*
X0316165Y0123387D01*
X0316165Y0125786D02*
X0316165Y0125786D01*
X0316165Y0130583D02*
X0316165Y0130583D01*
X0316165Y0132981D02*
X0316165Y0132981D01*
X0316165Y0135380D02*
X0316165Y0135380D01*
X0316165Y0140177D02*
X0316165Y0140177D01*
X0316165Y0142576D02*
X0316165Y0142576D01*
X0316165Y0144974D02*
X0316165Y0144974D01*
X0316165Y0171358D02*
X0316165Y0171358D01*
X0316165Y0173756D02*
X0316165Y0173756D01*
X0316165Y0176155D02*
X0316165Y0176155D01*
X0312624Y0176155D02*
X0280923Y0176155D01*
X0280923Y0178553D02*
X0389579Y0178553D01*
X0388451Y0180952D02*
X0280923Y0180952D01*
X0280923Y0183350D02*
X0388759Y0183350D01*
X0390631Y0185749D02*
X0280923Y0185749D01*
X0280923Y0188147D02*
X0395497Y0188147D01*
X0399097Y0180618D02*
X0399097Y0166115D01*
X0388451Y0171358D02*
X0320671Y0171358D01*
X0320871Y0173756D02*
X0388862Y0173756D01*
X0391231Y0176155D02*
X0319706Y0176155D01*
X0311460Y0173756D02*
X0280923Y0173756D01*
X0280923Y0171358D02*
X0311660Y0171358D01*
X0290685Y0177778D02*
X0290685Y0181964D01*
X0313103Y0193314D02*
X0313550Y0192867D01*
X0322467Y0192867D01*
X0344760Y0183935D02*
X0345875Y0182821D01*
X0345875Y0178576D01*
X0362521Y0196141D02*
X0367799Y0194425D01*
X0367799Y0197326D01*
X0395215Y0176155D02*
X0395897Y0176155D01*
X0260812Y0188082D02*
X0255030Y0188082D01*
X0258707Y0202673D02*
X0249743Y0202673D01*
X0029553Y0104199D02*
X0018782Y0104199D01*
X0018782Y0101801D02*
X0028082Y0101801D01*
X0028082Y0099402D02*
X0018782Y0099402D01*
X0018782Y0097004D02*
X0029665Y0097004D01*
X0029959Y0094605D02*
X0018782Y0094605D01*
X0018782Y0092207D02*
X0028082Y0092207D01*
X0028082Y0089808D02*
X0018782Y0089808D01*
X0018782Y0087410D02*
X0029259Y0087410D01*
X0030365Y0085011D02*
X0018782Y0085011D01*
X0018782Y0082613D02*
X0028082Y0082613D01*
X0028082Y0080214D02*
X0018782Y0080214D01*
X0018782Y0077816D02*
X0028853Y0077816D01*
X0030771Y0075417D02*
X0018782Y0075417D01*
X0018782Y0073019D02*
X0028372Y0073019D01*
X0028082Y0070620D02*
X0021180Y0070620D01*
X0023579Y0068222D02*
X0028447Y0068222D01*
X0030845Y0065823D02*
X0025977Y0065823D01*
X0026311Y0065490D02*
X0026311Y0065490D01*
X0028106Y0063425D02*
X0028778Y0063425D01*
X0028782Y0056229D02*
X0030439Y0056229D01*
X0029184Y0053831D02*
X0028782Y0053831D01*
X0028782Y0027447D02*
X0029222Y0027447D01*
X0028782Y0025048D02*
X0030402Y0025048D01*
X0052864Y0028073D02*
X0060280Y0020657D01*
X0073082Y0020657D01*
X0075486Y0041838D02*
X0106320Y0041838D01*
X0111715Y0056229D02*
X0111715Y0056229D01*
X0111715Y0058628D02*
X0111715Y0058628D01*
X0138833Y0058628D02*
X0138833Y0058628D01*
X0138833Y0056229D02*
X0138833Y0056229D01*
X0213082Y0028371D02*
X0216748Y0032037D01*
X0294088Y0032037D01*
X0300949Y0051432D02*
X0244267Y0051432D01*
X0242750Y0053831D02*
X0300949Y0053831D01*
X0300949Y0056229D02*
X0243852Y0056229D01*
X0243383Y0058628D02*
X0300949Y0058628D01*
X0300949Y0061026D02*
X0239535Y0061026D01*
X0237136Y0063425D02*
X0300949Y0063425D01*
X0300949Y0065823D02*
X0234737Y0065823D01*
X0232339Y0068222D02*
X0300949Y0068222D01*
X0300949Y0070620D02*
X0229940Y0070620D01*
X0227542Y0073019D02*
X0300949Y0073019D01*
X0300949Y0075417D02*
X0226517Y0075417D01*
X0222963Y0073072D02*
X0239371Y0056664D01*
X0239670Y0056664D01*
X0233576Y0051432D02*
X0229703Y0051432D01*
X0231178Y0053831D02*
X0227304Y0053831D01*
X0228779Y0056229D02*
X0224906Y0056229D01*
X0224993Y0058628D02*
X0222507Y0058628D01*
X0227522Y0062012D02*
X0240554Y0048980D01*
X0240807Y0048980D01*
X0237252Y0046635D02*
X0234500Y0046635D01*
X0235975Y0049034D02*
X0232101Y0049034D01*
X0236032Y0040577D02*
X0238458Y0040577D01*
X0219801Y0027447D02*
X0216684Y0027447D01*
X0237918Y0025048D02*
X0243246Y0025048D01*
X0243082Y0022650D02*
X0238082Y0022650D01*
X0238082Y0020251D02*
X0243082Y0020251D01*
X0243082Y0017853D02*
X0238082Y0017853D01*
X0252956Y0016357D02*
X0253082Y0016663D01*
X0253082Y0024652D01*
X0253082Y0016663D01*
X0253209Y0016357D01*
X0252956Y0016357D01*
X0253082Y0017853D02*
X0253082Y0017853D01*
X0253082Y0020251D02*
X0253082Y0020251D01*
X0253082Y0022650D02*
X0253082Y0022650D01*
X0252918Y0025048D02*
X0253246Y0025048D01*
D18*
X0238458Y0040577D03*
X0240807Y0048980D03*
X0239670Y0056664D03*
X0227522Y0062012D03*
X0216607Y0060003D03*
X0201191Y0065808D03*
X0196063Y0071614D03*
X0222963Y0073072D03*
X0226619Y0091173D03*
X0220140Y0095951D03*
X0234070Y0102293D03*
X0227363Y0108327D03*
X0260491Y0120289D03*
X0276123Y0111980D03*
X0304346Y0093516D03*
X0376862Y0123199D03*
X0290685Y0177778D03*
X0276123Y0192419D03*
X0260812Y0188082D03*
X0223605Y0192699D03*
X0202535Y0194088D03*
X0162072Y0187642D03*
X0146342Y0195376D03*
X0120448Y0193891D03*
X0086169Y0202673D03*
X0154438Y0169057D03*
X0154033Y0133830D03*
X0194360Y0123853D03*
X0101056Y0115399D03*
X0080620Y0126968D03*
X0073431Y0045512D03*
X0313103Y0193314D03*
X0340078Y0194207D03*
X0362521Y0196141D03*
X0345875Y0178576D03*
D19*
X0276123Y0192419D02*
X0276123Y0111980D01*
X0120448Y0193891D02*
X0100788Y0174231D01*
X0101056Y0115399D01*
X0081336Y0115685D02*
X0080620Y0126968D01*
X0081336Y0115685D02*
X0078981Y0115371D01*
D20*
X0154033Y0133830D02*
X0168198Y0133830D01*
X0173300Y0138932D01*
X0173300Y0175803D01*
X0162072Y0187031D01*
X0162072Y0187642D01*
X0154357Y0169138D02*
X0152252Y0169138D01*
X0154357Y0169138D02*
X0154438Y0169057D01*
D21*
X0172746Y0202673D02*
X0086169Y0202673D01*
X0172746Y0202673D02*
X0227973Y0202673D01*
X0258707Y0202673D01*
X0351225Y0202673D01*
X0390868Y0202673D01*
X0399097Y0194444D01*
X0399097Y0180618D01*
X0115671Y0045455D02*
X0073488Y0045455D01*
X0073431Y0045512D01*
M02*
