%
M48
M72
T01C0.02362
T02C0.03543
T03C0.03937
T04C0.04000
%
T01
X265275Y142168
X128833Y131212
X176930Y156244
X177217Y90347
X64366Y85068
X247056Y87450
X299259Y158489
X373089Y54913
X326193Y131130
X246336Y22759
X239802Y30265
X198169Y141744
X198240Y179743
X318817Y154379
X319397Y180836
X348756Y78825
X385843Y80085
X128399Y95946
X71857Y40703
X169370Y50247
X169773Y58319
X168967Y40762
X169975Y76480
X169144Y85959
X169842Y67943
X281844Y77271
X291499Y77036
X258466Y81722
X271709Y78917
T02
X35299Y143813
X35299Y133970
X35299Y124128
X35299Y114285
X35299Y104443
X35299Y94600
X185837Y143813
X185837Y133970
X185837Y124128
X185837Y114285
X185837Y104443
X185837Y94600
X209460Y143813
X209460Y133970
X209460Y124128
X209460Y114285
X209460Y104443
X209460Y94600
T03
X339713Y25260
X363243Y25240
X351472Y43861
T04
X152500Y10000
X162500Y10000
X172500Y10000
X182500Y10000
X192500Y10000
X202500Y10000
X212500Y10000
X222500Y10000
X237500Y10000
X247500Y10000
X257500Y10000
X267500Y10000
X277500Y10000
X287500Y10000
X297500Y10000
X307500Y10000
X62500Y10000
X72500Y10000
X82500Y10000
X92500Y10000
X102500Y10000
X112500Y10000
X122500Y10000
X132500Y10000
X132477Y44800
X131477Y34800
X132477Y24800
X112477Y44800
X111477Y34800
X112477Y24800
X102477Y44800
X101477Y34800
X102477Y24800
X122477Y44800
X121477Y34800
X122477Y24800
X106388Y178757
X116388Y177757
X126388Y178757
X106404Y168721
X116404Y167721
X126404Y168721
X132500Y200000
X142500Y200000
X152500Y200000
X162500Y200000
X172500Y200000
X182500Y200000
X192500Y200000
X202500Y200000
X32504Y9999
X22504Y9999
X32504Y19999
X22504Y19999
X22510Y179996
X32510Y179996
X22510Y169996
X32510Y169996
M30
