G75*
%MOIN*%
%OFA0B0*%
%FSLAX25Y25*%
%IPPOS*%
%LPD*%
%AMOC8*
5,1,8,0,0,1.08239X$1,22.5*
%
%ADD10C,0.01000*%
%ADD11R,0.03700X0.00100*%
%ADD12R,0.05300X0.00100*%
%ADD13R,0.06500X0.00100*%
%ADD14R,0.07500X0.00100*%
%ADD15R,0.08300X0.00100*%
%ADD16R,0.09200X0.00100*%
%ADD17R,0.09900X0.00100*%
%ADD18R,0.10500X0.00100*%
%ADD19R,0.11200X0.00100*%
%ADD20R,0.11900X0.00100*%
%ADD21R,0.12300X0.00100*%
%ADD22R,0.12900X0.00100*%
%ADD23R,0.13400X0.00100*%
%ADD24R,0.13900X0.00100*%
%ADD25R,0.14300X0.00100*%
%ADD26R,0.14900X0.00100*%
%ADD27R,0.15300X0.00100*%
%ADD28R,0.15700X0.00100*%
%ADD29R,0.16100X0.00100*%
%ADD30R,0.16500X0.00100*%
%ADD31R,0.16900X0.00100*%
%ADD32R,0.17200X0.00100*%
%ADD33R,0.17500X0.00100*%
%ADD34R,0.17900X0.00100*%
%ADD35R,0.18300X0.00100*%
%ADD36R,0.18600X0.00100*%
%ADD37R,0.18900X0.00100*%
%ADD38R,0.19300X0.00100*%
%ADD39R,0.19500X0.00100*%
%ADD40R,0.19900X0.00100*%
%ADD41R,0.20100X0.00100*%
%ADD42R,0.20500X0.00100*%
%ADD43R,0.20700X0.00100*%
%ADD44R,0.21000X0.00100*%
%ADD45R,0.21300X0.00100*%
%ADD46R,0.21500X0.00100*%
%ADD47R,0.21800X0.00100*%
%ADD48R,0.22100X0.00100*%
%ADD49R,0.22300X0.00100*%
%ADD50R,0.22500X0.00100*%
%ADD51R,0.22900X0.00100*%
%ADD52R,0.23100X0.00100*%
%ADD53R,0.23300X0.00100*%
%ADD54R,0.23500X0.00100*%
%ADD55R,0.23700X0.00100*%
%ADD56R,0.23900X0.00100*%
%ADD57R,0.24200X0.00100*%
%ADD58R,0.24500X0.00100*%
%ADD59R,0.24700X0.00100*%
%ADD60R,0.24900X0.00100*%
%ADD61R,0.25100X0.00100*%
%ADD62R,0.25300X0.00100*%
%ADD63R,0.25500X0.00100*%
%ADD64R,0.25700X0.00100*%
%ADD65R,0.25900X0.00100*%
%ADD66R,0.26100X0.00100*%
%ADD67R,0.26300X0.00100*%
%ADD68R,0.12200X0.00100*%
%ADD69R,0.11500X0.00100*%
%ADD70R,0.02600X0.00100*%
%ADD71R,0.11600X0.00100*%
%ADD72R,0.11000X0.00100*%
%ADD73R,0.00800X0.00100*%
%ADD74R,0.00700X0.00100*%
%ADD75R,0.10600X0.00100*%
%ADD76R,0.00400X0.00100*%
%ADD77R,0.10400X0.00100*%
%ADD78R,0.10100X0.00100*%
%ADD79R,0.00300X0.00100*%
%ADD80R,0.09700X0.00100*%
%ADD81R,0.09500X0.00100*%
%ADD82R,0.09600X0.00100*%
%ADD83R,0.09300X0.00100*%
%ADD84R,0.00200X0.00100*%
%ADD85R,0.09100X0.00100*%
%ADD86R,0.08900X0.00100*%
%ADD87R,0.08700X0.00100*%
%ADD88R,0.08800X0.00100*%
%ADD89R,0.08600X0.00100*%
%ADD90R,0.08500X0.00100*%
%ADD91R,0.00100X0.00100*%
%ADD92R,0.02500X0.00100*%
%ADD93R,0.08200X0.00100*%
%ADD94R,0.08100X0.00100*%
%ADD95R,0.00500X0.00100*%
%ADD96R,0.03100X0.00100*%
%ADD97R,0.08000X0.00100*%
%ADD98R,0.04100X0.00100*%
%ADD99R,0.05100X0.00100*%
%ADD100R,0.07800X0.00100*%
%ADD101R,0.05900X0.00100*%
%ADD102R,0.02900X0.00100*%
%ADD103R,0.01100X0.00100*%
%ADD104R,0.06300X0.00100*%
%ADD105R,0.02400X0.00100*%
%ADD106R,0.04400X0.00100*%
%ADD107R,0.07000X0.00100*%
%ADD108R,0.07900X0.00100*%
%ADD109R,0.03200X0.00100*%
%ADD110R,0.07600X0.00100*%
%ADD111R,0.03400X0.00100*%
%ADD112R,0.04000X0.00100*%
%ADD113R,0.03900X0.00100*%
%ADD114R,0.06100X0.00100*%
%ADD115R,0.04200X0.00100*%
%ADD116R,0.04900X0.00100*%
%ADD117R,0.03500X0.00100*%
%ADD118R,0.04500X0.00100*%
%ADD119R,0.06800X0.00100*%
%ADD120R,0.04300X0.00100*%
%ADD121R,0.05500X0.00100*%
%ADD122R,0.03600X0.00100*%
%ADD123R,0.07300X0.00100*%
%ADD124R,0.05400X0.00100*%
%ADD125R,0.07700X0.00100*%
%ADD126R,0.05700X0.00100*%
%ADD127R,0.03800X0.00100*%
%ADD128R,0.09000X0.00100*%
%ADD129R,0.05600X0.00100*%
%ADD130R,0.01200X0.00100*%
%ADD131R,0.06700X0.00100*%
%ADD132R,0.09400X0.00100*%
%ADD133R,0.07200X0.00100*%
%ADD134R,0.06900X0.00100*%
%ADD135R,0.08400X0.00100*%
%ADD136R,0.07100X0.00100*%
%ADD137R,0.10000X0.00100*%
%ADD138R,0.01400X0.00100*%
%ADD139R,0.10200X0.00100*%
%ADD140R,0.05800X0.00100*%
%ADD141R,0.01600X0.00100*%
%ADD142R,0.00600X0.00100*%
%ADD143R,0.10700X0.00100*%
%ADD144R,0.01700X0.00100*%
%ADD145R,0.18500X0.00100*%
%ADD146R,0.06000X0.00100*%
%ADD147R,0.01800X0.00100*%
%ADD148R,0.11400X0.00100*%
%ADD149R,0.00900X0.00100*%
%ADD150R,0.01900X0.00100*%
%ADD151R,0.04600X0.00100*%
%ADD152R,0.12500X0.00100*%
%ADD153R,0.10300X0.00100*%
%ADD154R,0.02300X0.00100*%
%ADD155R,0.04700X0.00100*%
%ADD156R,0.11700X0.00100*%
%ADD157R,0.05200X0.00100*%
%ADD158R,0.04800X0.00100*%
%ADD159R,0.06200X0.00100*%
%ADD160R,0.12000X0.00100*%
%ADD161R,0.10900X0.00100*%
%ADD162R,0.12600X0.00100*%
%ADD163R,0.11100X0.00100*%
%ADD164R,0.05000X0.00100*%
%ADD165R,0.11300X0.00100*%
%ADD166R,0.12700X0.00100*%
%ADD167R,0.12400X0.00100*%
%ADD168R,0.06400X0.00100*%
%ADD169R,0.06600X0.00100*%
%ADD170R,0.03000X0.00100*%
%ADD171R,0.12800X0.00100*%
%ADD172R,0.11800X0.00100*%
%ADD173R,0.01000X0.00100*%
%ADD174R,0.01500X0.00100*%
%ADD175R,0.02000X0.00100*%
%ADD176R,0.02700X0.00100*%
%ADD177R,0.02800X0.00100*%
%ADD178R,0.07400X0.00100*%
%ADD179R,0.03300X0.00100*%
%ADD180R,0.12100X0.00100*%
%ADD181R,0.01300X0.00100*%
%ADD182R,0.02100X0.00100*%
%ADD183R,0.09800X0.00100*%
%ADD184R,0.10800X0.00100*%
%ADD185R,0.02200X0.00100*%
%ADD186R,0.26500X0.00100*%
%ADD187R,0.26200X0.00100*%
%ADD188R,0.26000X0.00100*%
%ADD189R,0.25800X0.00100*%
%ADD190R,0.25600X0.00100*%
%ADD191R,0.25400X0.00100*%
%ADD192R,0.25200X0.00100*%
%ADD193R,0.25000X0.00100*%
%ADD194R,0.24800X0.00100*%
%ADD195R,0.24600X0.00100*%
%ADD196R,0.24300X0.00100*%
%ADD197R,0.24100X0.00100*%
%ADD198R,0.22700X0.00100*%
%ADD199R,0.21700X0.00100*%
%ADD200R,0.20900X0.00100*%
%ADD201R,0.20300X0.00100*%
%ADD202R,0.19700X0.00100*%
%ADD203R,0.19100X0.00100*%
%ADD204R,0.18200X0.00100*%
%ADD205R,0.17100X0.00100*%
%ADD206R,0.16700X0.00100*%
%ADD207R,0.16400X0.00100*%
%ADD208R,0.16000X0.00100*%
%ADD209R,0.15600X0.00100*%
%ADD210R,0.15100X0.00100*%
%ADD211R,0.14700X0.00100*%
%ADD212R,0.13800X0.00100*%
%ADD213R,0.13300X0.00100*%
%ADD214C,0.01100*%
%ADD215C,0.00600*%
%ADD216C,0.00400*%
%ADD217R,0.00787X0.00787*%
%ADD218R,0.00591X0.00984*%
%ADD219C,0.00500*%
%ADD220C,0.00800*%
%ADD221R,0.01969X0.02953*%
D10*
X0023777Y0020657D02*
X0033777Y0010657D01*
X0404978Y0010657D01*
X0404978Y0219319D01*
X0023777Y0219319D01*
X0023748Y0219267D01*
X0013777Y0209968D01*
X0013777Y0070657D01*
X0023777Y0060657D01*
X0023777Y0020657D01*
X0074490Y0106912D02*
X0075622Y0106921D01*
X0076754Y0106912D01*
X0074490Y0106912D02*
X0074490Y0124628D01*
X0076754Y0124628D01*
X0073169Y0124628D02*
X0073169Y0106912D01*
X0070906Y0106912D01*
X0061063Y0106912D02*
X0058799Y0106912D01*
X0058799Y0124628D01*
X0061063Y0124628D01*
X0086596Y0124628D02*
X0088860Y0124628D01*
X0088860Y0106912D01*
X0086596Y0106912D01*
X0061409Y0144112D02*
X0060277Y0144121D01*
X0059145Y0144112D01*
X0059145Y0161828D01*
X0061409Y0161828D01*
X0071251Y0161828D02*
X0073515Y0161828D01*
X0073515Y0144112D01*
X0071251Y0144112D01*
X0074713Y0144112D02*
X0076977Y0144112D01*
X0074713Y0144112D02*
X0074713Y0161828D01*
X0076977Y0161828D01*
X0089083Y0161828D02*
X0089083Y0144112D01*
X0086820Y0144112D01*
X0154298Y0144112D02*
X0154298Y0161828D01*
X0156561Y0161828D01*
X0166404Y0161828D02*
X0168668Y0161828D01*
X0168668Y0144112D01*
X0166404Y0144112D01*
X0169902Y0144112D02*
X0172166Y0144112D01*
X0169902Y0144112D02*
X0169902Y0161828D01*
X0172166Y0161828D01*
X0184272Y0161828D02*
X0184272Y0144112D01*
X0182008Y0144112D01*
X0182447Y0124628D02*
X0184711Y0124628D01*
X0184711Y0106912D01*
X0182447Y0106912D01*
X0170341Y0106912D02*
X0170341Y0124628D01*
X0172605Y0124628D01*
X0168441Y0124628D02*
X0168441Y0106912D01*
X0166178Y0106912D01*
X0156335Y0106912D02*
X0154071Y0106912D01*
X0154071Y0124628D01*
X0156335Y0124628D01*
X0238444Y0124628D02*
X0238444Y0106912D01*
X0240708Y0106912D01*
X0250550Y0106912D02*
X0252814Y0106912D01*
X0252814Y0124628D01*
X0253970Y0124628D02*
X0256234Y0124628D01*
X0253970Y0124628D02*
X0253970Y0106912D01*
X0266077Y0106912D02*
X0268340Y0106912D01*
X0268340Y0124628D01*
X0266077Y0124628D01*
X0240708Y0124628D02*
X0238444Y0124628D01*
X0239394Y0144112D02*
X0239394Y0161828D01*
X0241658Y0161828D01*
X0251500Y0161828D02*
X0253764Y0161828D01*
X0253764Y0144112D01*
X0251500Y0144112D01*
X0255067Y0144112D02*
X0257330Y0144112D01*
X0255067Y0144112D02*
X0255067Y0161828D01*
X0257330Y0161828D01*
X0269437Y0161828D02*
X0269437Y0144112D01*
X0267173Y0144112D01*
X0336716Y0144112D02*
X0336716Y0161828D01*
X0338979Y0161828D01*
X0348822Y0161828D02*
X0351086Y0161828D01*
X0351086Y0144112D01*
X0348822Y0144112D01*
X0352258Y0144112D02*
X0354521Y0144112D01*
X0352258Y0144112D02*
X0352258Y0161828D01*
X0354521Y0161828D01*
X0366628Y0161828D02*
X0366628Y0144112D01*
X0364364Y0144112D01*
X0363884Y0124628D02*
X0366148Y0124628D01*
X0366148Y0106912D01*
X0363884Y0106912D01*
X0351777Y0106912D02*
X0351777Y0124628D01*
X0354041Y0124628D01*
X0350439Y0124628D02*
X0350439Y0106912D01*
X0348175Y0106912D01*
X0338332Y0106912D02*
X0336069Y0106912D01*
X0336069Y0124628D01*
X0338332Y0124628D01*
X0338980Y0144112D02*
X0337848Y0144121D01*
X0336716Y0144112D01*
X0348175Y0124628D02*
X0349307Y0124619D01*
X0350439Y0124628D01*
X0241658Y0144112D02*
X0240526Y0144121D01*
X0239394Y0144112D01*
X0250550Y0124628D02*
X0251682Y0124619D01*
X0252814Y0124628D01*
X0156562Y0144112D02*
X0155430Y0144121D01*
X0154298Y0144112D01*
X0166178Y0124628D02*
X0167310Y0124619D01*
X0168442Y0124628D01*
X0073169Y0124628D02*
X0072037Y0124619D01*
X0070905Y0124628D01*
X0170341Y0106912D02*
X0171473Y0106921D01*
X0172605Y0106912D01*
X0253970Y0106912D02*
X0255102Y0106921D01*
X0256234Y0106912D01*
X0351777Y0106912D02*
X0352909Y0106921D01*
X0354041Y0106912D01*
X0364364Y0161828D02*
X0365496Y0161819D01*
X0366628Y0161828D01*
X0269437Y0161828D02*
X0268305Y0161819D01*
X0267173Y0161828D01*
X0184272Y0161828D02*
X0183140Y0161819D01*
X0182008Y0161828D01*
X0089084Y0161828D02*
X0087952Y0161819D01*
X0086820Y0161828D01*
D11*
X0262850Y0198858D03*
X0265850Y0194358D03*
X0265650Y0194058D03*
X0272750Y0193558D03*
X0272850Y0193658D03*
X0279450Y0200858D03*
X0273550Y0203258D03*
X0273250Y0202658D03*
X0274550Y0207658D03*
X0274350Y0207758D03*
X0269250Y0208258D03*
X0305450Y0189558D03*
X0271250Y0180858D03*
X0375850Y0202358D03*
X0375850Y0202458D03*
X0375850Y0202558D03*
D12*
X0375850Y0199158D03*
X0375850Y0199058D03*
X0375850Y0198958D03*
X0375850Y0198858D03*
X0361950Y0191958D03*
X0371550Y0189258D03*
X0371550Y0189158D03*
X0380150Y0189158D03*
X0380150Y0189258D03*
X0341850Y0193958D03*
X0341650Y0191958D03*
X0337650Y0189058D03*
X0321750Y0189458D03*
X0333950Y0198358D03*
X0341550Y0200358D03*
X0337950Y0202958D03*
X0327050Y0199958D03*
X0320350Y0200058D03*
X0305450Y0191658D03*
X0278950Y0197158D03*
X0264150Y0201758D03*
X0263950Y0201658D03*
X0264250Y0202158D03*
X0267150Y0206458D03*
X0267250Y0206558D03*
X0271250Y0208658D03*
X0275150Y0206858D03*
X0275150Y0206658D03*
X0274950Y0206458D03*
X0275050Y0206358D03*
X0274850Y0206058D03*
X0257350Y0191758D03*
X0257350Y0191658D03*
X0257550Y0191358D03*
X0257650Y0191158D03*
X0257750Y0190858D03*
X0271250Y0180958D03*
D13*
X0271250Y0181058D03*
X0284650Y0191958D03*
X0284750Y0192158D03*
X0284850Y0192358D03*
X0284850Y0192558D03*
X0285150Y0204358D03*
X0285050Y0204558D03*
X0284950Y0204958D03*
X0284850Y0205158D03*
X0283850Y0207358D03*
X0283750Y0207458D03*
X0298350Y0205358D03*
X0298350Y0205258D03*
X0298350Y0205158D03*
X0312550Y0205158D03*
X0312550Y0205058D03*
X0312550Y0205258D03*
X0305450Y0193258D03*
X0257050Y0194258D03*
X0257350Y0204358D03*
X0257650Y0205158D03*
X0257750Y0205258D03*
X0358550Y0189458D03*
D14*
X0371450Y0193858D03*
X0371450Y0193958D03*
X0371450Y0194058D03*
X0371450Y0194158D03*
X0380250Y0194158D03*
X0380250Y0194058D03*
X0380250Y0193958D03*
X0358550Y0202358D03*
X0321750Y0190258D03*
X0305450Y0194558D03*
X0305450Y0194658D03*
X0312050Y0202358D03*
X0312050Y0202458D03*
X0312050Y0202558D03*
X0298850Y0202558D03*
X0298850Y0202658D03*
X0283750Y0206558D03*
X0259550Y0207958D03*
X0259450Y0207858D03*
X0259350Y0207758D03*
X0257650Y0193958D03*
X0257750Y0193858D03*
X0259650Y0189458D03*
X0271250Y0189158D03*
X0283650Y0190758D03*
X0271250Y0181158D03*
D15*
X0271250Y0181258D03*
X0260850Y0188258D03*
X0260750Y0188358D03*
X0272150Y0189758D03*
X0272350Y0189858D03*
X0272450Y0189958D03*
X0273150Y0190858D03*
X0281650Y0188258D03*
X0281750Y0188358D03*
X0282650Y0189658D03*
X0282750Y0189858D03*
X0281850Y0209058D03*
X0271250Y0216358D03*
X0260650Y0209058D03*
X0260550Y0208958D03*
X0325650Y0197158D03*
X0358550Y0202158D03*
D16*
X0339300Y0195258D03*
X0336600Y0197058D03*
X0325200Y0196958D03*
X0280700Y0187558D03*
X0271300Y0181358D03*
X0261800Y0187558D03*
X0261700Y0209858D03*
D17*
X0262350Y0210258D03*
X0280150Y0210258D03*
X0280050Y0187158D03*
X0271250Y0181458D03*
X0262450Y0187158D03*
X0337350Y0196558D03*
X0337650Y0196358D03*
X0337750Y0196258D03*
X0338050Y0196058D03*
X0338250Y0195958D03*
X0338350Y0195858D03*
X0358550Y0190558D03*
X0358550Y0201558D03*
D18*
X0358550Y0201258D03*
X0358550Y0190858D03*
X0337750Y0190258D03*
X0271250Y0181558D03*
X0271250Y0216058D03*
D19*
X0323600Y0200858D03*
X0324200Y0196058D03*
X0337700Y0190558D03*
X0337900Y0201358D03*
X0271300Y0181658D03*
D20*
X0271250Y0181758D03*
X0323850Y0195458D03*
X0323650Y0200158D03*
X0337750Y0190958D03*
X0358550Y0191758D03*
D21*
X0337750Y0191258D03*
X0271250Y0181858D03*
X0271250Y0215758D03*
D22*
X0271250Y0181958D03*
X0337750Y0191758D03*
D23*
X0271300Y0182058D03*
D24*
X0271250Y0182158D03*
D25*
X0271250Y0182258D03*
X0271250Y0215358D03*
D26*
X0271250Y0182358D03*
D27*
X0271250Y0182458D03*
D28*
X0271250Y0182558D03*
D29*
X0271250Y0182658D03*
D30*
X0271250Y0182758D03*
D31*
X0271250Y0182858D03*
D32*
X0271300Y0182958D03*
D33*
X0271250Y0183058D03*
X0271250Y0214558D03*
D34*
X0271250Y0214458D03*
X0271250Y0183158D03*
D35*
X0271250Y0183258D03*
D36*
X0271300Y0183358D03*
X0278000Y0190658D03*
D37*
X0271250Y0183458D03*
X0271250Y0214158D03*
D38*
X0271250Y0183558D03*
D39*
X0271250Y0183658D03*
X0271250Y0213958D03*
D40*
X0271250Y0183758D03*
D41*
X0271250Y0183858D03*
X0271250Y0213758D03*
D42*
X0271250Y0183958D03*
D43*
X0271250Y0184058D03*
X0271250Y0213558D03*
D44*
X0271300Y0184158D03*
D45*
X0271250Y0184258D03*
X0271250Y0213358D03*
D46*
X0271250Y0213258D03*
X0271250Y0184358D03*
D47*
X0271300Y0184458D03*
D48*
X0271250Y0184558D03*
X0271250Y0213058D03*
D49*
X0271250Y0212958D03*
X0271250Y0184658D03*
D50*
X0271250Y0184758D03*
X0271250Y0212858D03*
D51*
X0271250Y0184858D03*
D52*
X0271250Y0184958D03*
X0271250Y0212658D03*
D53*
X0271250Y0212558D03*
X0271250Y0185058D03*
D54*
X0271250Y0185158D03*
X0271250Y0212458D03*
D55*
X0271250Y0212358D03*
X0271250Y0185258D03*
D56*
X0271250Y0185358D03*
X0271250Y0212258D03*
D57*
X0271300Y0185458D03*
D58*
X0271250Y0185558D03*
D59*
X0271250Y0185658D03*
D60*
X0271250Y0185758D03*
D61*
X0271250Y0185858D03*
D62*
X0271250Y0185958D03*
D63*
X0271250Y0186058D03*
D64*
X0271250Y0186158D03*
D65*
X0271250Y0186258D03*
D66*
X0271250Y0186358D03*
D67*
X0271250Y0186458D03*
X0271250Y0211058D03*
D68*
X0264200Y0186558D03*
X0278400Y0186558D03*
X0323700Y0195058D03*
X0323700Y0195158D03*
X0337700Y0191158D03*
X0337900Y0200658D03*
X0337900Y0200758D03*
D69*
X0323650Y0200658D03*
X0323650Y0200558D03*
X0324050Y0195858D03*
X0337750Y0190758D03*
X0358550Y0191458D03*
X0358550Y0200658D03*
X0263750Y0186658D03*
D70*
X0265500Y0191258D03*
X0271300Y0186658D03*
X0273100Y0194858D03*
X0273300Y0195158D03*
X0267100Y0197258D03*
X0266900Y0196958D03*
X0267000Y0196858D03*
X0266800Y0196558D03*
X0262400Y0197358D03*
X0262300Y0197158D03*
X0272200Y0200558D03*
X0272400Y0200858D03*
X0279500Y0202458D03*
X0273300Y0208458D03*
X0323400Y0203158D03*
D71*
X0324000Y0195758D03*
X0337900Y0201158D03*
X0278800Y0186658D03*
D72*
X0279100Y0186758D03*
X0263400Y0186758D03*
X0263200Y0210658D03*
X0279300Y0210658D03*
X0323600Y0201058D03*
X0337900Y0201458D03*
X0337700Y0190458D03*
X0358500Y0200958D03*
D73*
X0321800Y0188858D03*
X0279800Y0190858D03*
X0271300Y0188458D03*
X0269600Y0186758D03*
X0262000Y0195158D03*
X0262000Y0195358D03*
X0270400Y0196758D03*
X0270500Y0196658D03*
X0270600Y0197058D03*
X0274300Y0198058D03*
X0274500Y0198158D03*
X0268700Y0200758D03*
X0268900Y0201058D03*
X0268800Y0201158D03*
X0269000Y0201458D03*
D74*
X0270250Y0196458D03*
X0274350Y0197958D03*
X0274550Y0198258D03*
X0274450Y0198458D03*
X0279450Y0204458D03*
X0278750Y0208558D03*
X0261950Y0195258D03*
X0261650Y0194458D03*
X0269750Y0188458D03*
X0272750Y0188458D03*
X0272950Y0186758D03*
X0277850Y0190858D03*
D75*
X0279400Y0186858D03*
X0263100Y0186858D03*
X0324500Y0196458D03*
X0323600Y0201358D03*
X0337900Y0201658D03*
D76*
X0358500Y0191858D03*
X0279800Y0205458D03*
X0279500Y0204858D03*
X0278900Y0208358D03*
X0278800Y0208458D03*
X0279800Y0208758D03*
X0274900Y0210258D03*
X0274200Y0210458D03*
X0269400Y0208958D03*
X0267900Y0208558D03*
X0269400Y0202358D03*
X0269200Y0202058D03*
X0269100Y0201658D03*
X0274900Y0198958D03*
X0274600Y0198558D03*
X0270200Y0196158D03*
X0261600Y0194558D03*
X0261800Y0190858D03*
X0268100Y0187058D03*
X0268500Y0186958D03*
X0269000Y0186858D03*
X0273500Y0186858D03*
X0274000Y0186958D03*
X0274400Y0187058D03*
X0274200Y0188758D03*
X0273400Y0188558D03*
X0279400Y0192558D03*
D77*
X0279600Y0186958D03*
X0262900Y0186958D03*
X0262700Y0210458D03*
X0279800Y0210458D03*
X0323600Y0201458D03*
X0337900Y0201758D03*
D78*
X0337950Y0201858D03*
X0324750Y0196658D03*
X0358550Y0201458D03*
X0358550Y0190658D03*
X0279850Y0187058D03*
X0262650Y0187058D03*
X0262550Y0210358D03*
D79*
X0266550Y0209858D03*
X0267050Y0210058D03*
X0267350Y0210158D03*
X0267650Y0210258D03*
X0267950Y0210358D03*
X0268350Y0210458D03*
X0268550Y0208758D03*
X0268150Y0208658D03*
X0267350Y0208358D03*
X0271450Y0208358D03*
X0271950Y0208358D03*
X0273950Y0208758D03*
X0274350Y0208658D03*
X0274650Y0208558D03*
X0275150Y0210158D03*
X0275450Y0210058D03*
X0275750Y0209958D03*
X0275950Y0209858D03*
X0274550Y0210358D03*
X0269450Y0202258D03*
X0269250Y0201958D03*
X0274750Y0198858D03*
X0270150Y0196058D03*
X0270050Y0195858D03*
X0270050Y0195658D03*
X0269850Y0195558D03*
X0269750Y0195458D03*
X0276750Y0191158D03*
X0277350Y0190958D03*
X0277550Y0192658D03*
X0275050Y0189058D03*
X0273850Y0188658D03*
X0274750Y0187158D03*
X0275050Y0187258D03*
X0275350Y0187358D03*
X0275850Y0187558D03*
X0268650Y0188658D03*
X0268350Y0188758D03*
X0267450Y0189058D03*
X0266650Y0187558D03*
X0267150Y0187358D03*
X0267450Y0187258D03*
X0267750Y0187158D03*
X0260650Y0194258D03*
X0260350Y0194358D03*
X0359250Y0200258D03*
D80*
X0358550Y0190458D03*
X0338650Y0195658D03*
X0337050Y0196758D03*
X0280250Y0187258D03*
X0271250Y0189658D03*
X0262250Y0187258D03*
X0262150Y0210158D03*
X0280350Y0210158D03*
D81*
X0280550Y0210058D03*
X0262150Y0187358D03*
X0336850Y0196858D03*
X0338950Y0195458D03*
X0358550Y0190358D03*
D82*
X0338800Y0195558D03*
X0337700Y0189958D03*
X0325000Y0196858D03*
X0323600Y0201858D03*
X0337900Y0202058D03*
X0358500Y0201658D03*
X0280400Y0187358D03*
X0262000Y0210058D03*
D83*
X0280850Y0209858D03*
X0282550Y0190458D03*
X0280550Y0187458D03*
X0271250Y0189558D03*
X0261950Y0187458D03*
X0323550Y0201958D03*
X0336750Y0196958D03*
X0339150Y0195358D03*
X0337950Y0202158D03*
X0358550Y0201758D03*
X0358550Y0190258D03*
D84*
X0357800Y0192058D03*
X0357600Y0192158D03*
X0359300Y0192058D03*
X0359500Y0192158D03*
X0359500Y0200158D03*
X0357800Y0200258D03*
X0281200Y0205458D03*
X0280300Y0205558D03*
X0277600Y0206958D03*
X0277200Y0207258D03*
X0276900Y0207458D03*
X0276700Y0207558D03*
X0276400Y0207758D03*
X0276200Y0207858D03*
X0276000Y0207958D03*
X0275800Y0208058D03*
X0275600Y0208158D03*
X0275400Y0208258D03*
X0275200Y0208358D03*
X0274900Y0208458D03*
X0276200Y0209758D03*
X0276400Y0209658D03*
X0276600Y0209558D03*
X0276800Y0209458D03*
X0277000Y0209358D03*
X0277200Y0209258D03*
X0277500Y0209058D03*
X0277700Y0208958D03*
X0277800Y0208858D03*
X0278000Y0208758D03*
X0278400Y0208458D03*
X0279300Y0208558D03*
X0280100Y0208658D03*
X0269700Y0203058D03*
X0269700Y0202958D03*
X0269300Y0202158D03*
X0274900Y0199158D03*
X0275100Y0199358D03*
X0275200Y0199758D03*
X0275300Y0199958D03*
X0275400Y0200158D03*
X0270000Y0195758D03*
X0269600Y0194858D03*
X0268000Y0189858D03*
X0267700Y0189758D03*
X0267400Y0189858D03*
X0267200Y0189958D03*
X0266800Y0189358D03*
X0266600Y0189458D03*
X0266200Y0189658D03*
X0266000Y0189758D03*
X0265700Y0189958D03*
X0265400Y0190158D03*
X0265100Y0190358D03*
X0264600Y0190758D03*
X0263300Y0189658D03*
X0263900Y0189158D03*
X0264300Y0188858D03*
X0264600Y0188658D03*
X0264900Y0188458D03*
X0265200Y0188258D03*
X0265400Y0188158D03*
X0265600Y0188058D03*
X0265800Y0187958D03*
X0266000Y0187858D03*
X0266200Y0187758D03*
X0266400Y0187658D03*
X0266900Y0187458D03*
X0267700Y0188958D03*
X0268000Y0188858D03*
X0267200Y0189158D03*
X0267000Y0189258D03*
X0261800Y0190958D03*
X0261800Y0191158D03*
X0261400Y0190858D03*
X0260600Y0190858D03*
X0260900Y0194358D03*
X0261100Y0194458D03*
X0274500Y0188858D03*
X0274800Y0188958D03*
X0275300Y0189158D03*
X0275500Y0189258D03*
X0275700Y0189358D03*
X0276300Y0189658D03*
X0276500Y0189758D03*
X0276800Y0189958D03*
X0277000Y0190058D03*
X0277300Y0190258D03*
X0278100Y0190258D03*
X0277000Y0191058D03*
X0276500Y0191258D03*
X0276200Y0191458D03*
X0277000Y0192958D03*
X0277300Y0192758D03*
X0280300Y0190958D03*
X0280500Y0191058D03*
X0277900Y0188658D03*
X0277600Y0188458D03*
X0277300Y0188258D03*
X0277100Y0188158D03*
X0276900Y0188058D03*
X0276700Y0187958D03*
X0276500Y0187858D03*
X0276300Y0187758D03*
X0276100Y0187658D03*
X0275600Y0187458D03*
X0264000Y0206158D03*
X0264800Y0206858D03*
X0265200Y0207158D03*
X0265500Y0207358D03*
X0265600Y0207458D03*
X0265800Y0207558D03*
X0266100Y0207758D03*
X0266300Y0207858D03*
X0266500Y0207958D03*
X0266700Y0208058D03*
X0266900Y0208158D03*
X0267100Y0208258D03*
X0267600Y0208458D03*
X0266800Y0209958D03*
X0266300Y0209758D03*
X0266100Y0209658D03*
X0265900Y0209558D03*
X0265700Y0209458D03*
X0265500Y0209358D03*
X0265200Y0209158D03*
X0265000Y0209058D03*
X0264700Y0208858D03*
X0264400Y0208658D03*
X0264100Y0208458D03*
X0264000Y0208358D03*
X0263500Y0207958D03*
D85*
X0261550Y0209758D03*
X0271250Y0216258D03*
X0280950Y0209758D03*
X0282650Y0190358D03*
X0280850Y0187658D03*
X0261650Y0187658D03*
X0358550Y0201858D03*
D86*
X0358550Y0201958D03*
X0339450Y0195158D03*
X0337950Y0202258D03*
X0358550Y0190158D03*
X0281050Y0187758D03*
X0271250Y0189458D03*
X0261450Y0187758D03*
X0261250Y0209558D03*
X0281250Y0209558D03*
D87*
X0261150Y0209458D03*
X0272850Y0190358D03*
X0281250Y0187958D03*
X0261350Y0187858D03*
X0261250Y0187958D03*
X0323550Y0202158D03*
X0358550Y0190058D03*
D88*
X0336200Y0197258D03*
X0325400Y0197058D03*
X0282700Y0190258D03*
X0281200Y0187858D03*
X0273300Y0190758D03*
X0273100Y0190458D03*
X0281400Y0209458D03*
D89*
X0281500Y0209358D03*
X0261000Y0209358D03*
X0282700Y0190158D03*
X0281400Y0188058D03*
X0261100Y0188058D03*
X0337700Y0189658D03*
X0339700Y0195058D03*
X0337900Y0202358D03*
D90*
X0336050Y0197358D03*
X0323550Y0202258D03*
X0358550Y0202058D03*
X0282750Y0190058D03*
X0282650Y0189958D03*
X0281550Y0188158D03*
X0272850Y0190258D03*
X0271250Y0189358D03*
X0260950Y0188158D03*
X0260750Y0209158D03*
X0260850Y0209258D03*
X0281650Y0209258D03*
D91*
X0280550Y0208258D03*
X0280550Y0208158D03*
X0280450Y0208358D03*
X0280550Y0207558D03*
X0280450Y0207358D03*
X0280350Y0207158D03*
X0280250Y0207058D03*
X0280250Y0206958D03*
X0280150Y0206858D03*
X0280050Y0206658D03*
X0279950Y0206458D03*
X0279850Y0206258D03*
X0279750Y0206058D03*
X0279650Y0205858D03*
X0279550Y0205658D03*
X0279450Y0205458D03*
X0279350Y0205258D03*
X0279250Y0205058D03*
X0279150Y0204858D03*
X0279050Y0204658D03*
X0278950Y0204458D03*
X0278850Y0204258D03*
X0278750Y0204058D03*
X0278650Y0203858D03*
X0278650Y0203758D03*
X0278550Y0203658D03*
X0278550Y0203558D03*
X0278450Y0203358D03*
X0278350Y0203158D03*
X0278250Y0202958D03*
X0278250Y0202858D03*
X0278150Y0202658D03*
X0278050Y0202458D03*
X0277950Y0202258D03*
X0277950Y0202158D03*
X0277850Y0201958D03*
X0277850Y0201858D03*
X0277750Y0201758D03*
X0277750Y0201658D03*
X0277650Y0201458D03*
X0277650Y0201358D03*
X0277550Y0201158D03*
X0277550Y0201058D03*
X0277450Y0200958D03*
X0277450Y0200858D03*
X0277350Y0200658D03*
X0277350Y0200558D03*
X0277250Y0200358D03*
X0277250Y0200258D03*
X0277150Y0200058D03*
X0277150Y0199958D03*
X0277050Y0199758D03*
X0277050Y0199658D03*
X0276950Y0199458D03*
X0276950Y0199358D03*
X0276850Y0199158D03*
X0276850Y0199058D03*
X0276850Y0198958D03*
X0276750Y0198758D03*
X0276750Y0198658D03*
X0276650Y0198458D03*
X0276650Y0198358D03*
X0276650Y0198258D03*
X0276550Y0198058D03*
X0276550Y0197958D03*
X0276550Y0197858D03*
X0276450Y0197658D03*
X0276450Y0197558D03*
X0276450Y0197458D03*
X0276350Y0197058D03*
X0276350Y0196958D03*
X0276350Y0196858D03*
X0276250Y0196558D03*
X0276250Y0196458D03*
X0276250Y0196358D03*
X0276250Y0196258D03*
X0276250Y0196158D03*
X0276250Y0196058D03*
X0276150Y0195558D03*
X0276150Y0195458D03*
X0276150Y0195358D03*
X0276150Y0195258D03*
X0276150Y0195158D03*
X0276150Y0195058D03*
X0276250Y0194558D03*
X0276250Y0194458D03*
X0276250Y0194358D03*
X0276250Y0194258D03*
X0276350Y0193958D03*
X0276350Y0193858D03*
X0276450Y0193658D03*
X0276550Y0193458D03*
X0276650Y0193358D03*
X0276750Y0193158D03*
X0276850Y0193058D03*
X0277150Y0192858D03*
X0275950Y0191658D03*
X0276050Y0191558D03*
X0276350Y0191358D03*
X0275650Y0191958D03*
X0275550Y0192058D03*
X0275450Y0192158D03*
X0275350Y0192258D03*
X0275250Y0192458D03*
X0275150Y0192558D03*
X0275050Y0192758D03*
X0274950Y0192958D03*
X0274850Y0193158D03*
X0274850Y0193258D03*
X0274750Y0193458D03*
X0274750Y0193558D03*
X0274650Y0193758D03*
X0274650Y0193858D03*
X0274650Y0193958D03*
X0274650Y0194058D03*
X0274550Y0194358D03*
X0274550Y0194458D03*
X0274550Y0194558D03*
X0274550Y0194658D03*
X0274550Y0194758D03*
X0274550Y0194858D03*
X0274550Y0194958D03*
X0274550Y0195658D03*
X0274550Y0195758D03*
X0274550Y0195858D03*
X0274550Y0195958D03*
X0274550Y0196058D03*
X0274550Y0196158D03*
X0274550Y0196258D03*
X0274550Y0196358D03*
X0274650Y0196758D03*
X0274650Y0196858D03*
X0274650Y0196958D03*
X0274650Y0197058D03*
X0274750Y0197358D03*
X0274750Y0197458D03*
X0274750Y0197558D03*
X0274850Y0197958D03*
X0274850Y0198058D03*
X0274950Y0198358D03*
X0274950Y0198458D03*
X0274950Y0198558D03*
X0275050Y0198758D03*
X0275050Y0198858D03*
X0275150Y0199158D03*
X0275150Y0199258D03*
X0274950Y0199258D03*
X0274850Y0199358D03*
X0274750Y0199258D03*
X0274650Y0199158D03*
X0274550Y0198958D03*
X0274450Y0198858D03*
X0274350Y0198658D03*
X0274250Y0198558D03*
X0274150Y0198358D03*
X0274050Y0198258D03*
X0273950Y0198158D03*
X0273850Y0197958D03*
X0273750Y0197858D03*
X0273650Y0197658D03*
X0273550Y0197558D03*
X0273450Y0197358D03*
X0273350Y0197258D03*
X0273250Y0197158D03*
X0273150Y0196958D03*
X0273050Y0196858D03*
X0272950Y0196658D03*
X0272850Y0196558D03*
X0272750Y0196458D03*
X0272750Y0196358D03*
X0272650Y0196258D03*
X0272550Y0196158D03*
X0272450Y0195958D03*
X0272350Y0195858D03*
X0272250Y0195658D03*
X0272150Y0195558D03*
X0272050Y0195458D03*
X0272050Y0195358D03*
X0271950Y0195258D03*
X0271850Y0195158D03*
X0271750Y0194958D03*
X0271650Y0194858D03*
X0271550Y0194658D03*
X0271450Y0194558D03*
X0271350Y0194458D03*
X0271250Y0194258D03*
X0271150Y0194158D03*
X0271050Y0193958D03*
X0270950Y0193858D03*
X0270850Y0193758D03*
X0270850Y0193658D03*
X0270750Y0193558D03*
X0270650Y0193458D03*
X0270550Y0193258D03*
X0270450Y0193158D03*
X0270350Y0192958D03*
X0270250Y0192858D03*
X0270150Y0192758D03*
X0270150Y0192658D03*
X0270050Y0192558D03*
X0269950Y0192458D03*
X0269850Y0192258D03*
X0269750Y0192158D03*
X0269650Y0191958D03*
X0269550Y0191858D03*
X0269450Y0191758D03*
X0269350Y0191558D03*
X0269250Y0191458D03*
X0269150Y0191258D03*
X0269050Y0191158D03*
X0268950Y0190958D03*
X0268850Y0190858D03*
X0268750Y0190758D03*
X0268650Y0190558D03*
X0268550Y0190458D03*
X0268450Y0190258D03*
X0268350Y0190158D03*
X0268250Y0190058D03*
X0268150Y0189958D03*
X0267050Y0190058D03*
X0266950Y0190258D03*
X0266850Y0190458D03*
X0266850Y0190558D03*
X0266850Y0190658D03*
X0266850Y0190758D03*
X0266950Y0191058D03*
X0266950Y0191158D03*
X0266950Y0191258D03*
X0267050Y0191458D03*
X0267050Y0191558D03*
X0267050Y0191658D03*
X0267150Y0191958D03*
X0267150Y0192058D03*
X0267250Y0192358D03*
X0267250Y0192458D03*
X0267250Y0192558D03*
X0267350Y0192758D03*
X0267350Y0192858D03*
X0267450Y0193158D03*
X0267450Y0193258D03*
X0267450Y0193358D03*
X0267550Y0193558D03*
X0267550Y0193658D03*
X0267550Y0193758D03*
X0267650Y0194058D03*
X0267650Y0194158D03*
X0267750Y0194458D03*
X0267750Y0194558D03*
X0267850Y0194858D03*
X0267850Y0194958D03*
X0267850Y0195058D03*
X0267950Y0195258D03*
X0267950Y0195358D03*
X0267950Y0195458D03*
X0268050Y0195658D03*
X0268050Y0195758D03*
X0268050Y0195858D03*
X0268150Y0196158D03*
X0268150Y0196258D03*
X0268250Y0196558D03*
X0268250Y0196658D03*
X0268250Y0196758D03*
X0268350Y0196958D03*
X0268350Y0197058D03*
X0268450Y0197458D03*
X0268450Y0197558D03*
X0268550Y0197758D03*
X0268550Y0197858D03*
X0268550Y0197958D03*
X0268650Y0198258D03*
X0268650Y0198358D03*
X0268750Y0198658D03*
X0268750Y0198758D03*
X0268850Y0199058D03*
X0268850Y0199158D03*
X0268850Y0199258D03*
X0268950Y0199458D03*
X0268950Y0199558D03*
X0269050Y0199958D03*
X0269050Y0200058D03*
X0269150Y0200358D03*
X0269150Y0200458D03*
X0269150Y0200558D03*
X0269250Y0200758D03*
X0269250Y0200858D03*
X0269350Y0201158D03*
X0269350Y0201258D03*
X0269350Y0201358D03*
X0269450Y0201558D03*
X0269450Y0201658D03*
X0269450Y0201758D03*
X0269550Y0202058D03*
X0269550Y0202158D03*
X0269450Y0202458D03*
X0269350Y0202558D03*
X0269250Y0202458D03*
X0269150Y0202258D03*
X0269050Y0202158D03*
X0268950Y0201958D03*
X0268850Y0201858D03*
X0268750Y0201658D03*
X0268650Y0201558D03*
X0268550Y0201358D03*
X0268450Y0201258D03*
X0268350Y0201058D03*
X0268250Y0200958D03*
X0268150Y0200758D03*
X0268050Y0200658D03*
X0267950Y0200458D03*
X0267850Y0200358D03*
X0267750Y0200158D03*
X0267650Y0200058D03*
X0267550Y0199858D03*
X0267450Y0199758D03*
X0267350Y0199558D03*
X0267250Y0199458D03*
X0267150Y0199258D03*
X0267050Y0199158D03*
X0266950Y0198958D03*
X0266850Y0198858D03*
X0266750Y0198658D03*
X0266650Y0198558D03*
X0266550Y0198358D03*
X0266450Y0198258D03*
X0266350Y0198058D03*
X0266250Y0197958D03*
X0266150Y0197758D03*
X0266050Y0197658D03*
X0265950Y0197458D03*
X0265850Y0197358D03*
X0265750Y0197158D03*
X0265650Y0197058D03*
X0265550Y0196858D03*
X0265450Y0196758D03*
X0265350Y0196558D03*
X0265250Y0196458D03*
X0265150Y0196258D03*
X0265050Y0196158D03*
X0264950Y0196058D03*
X0264950Y0195958D03*
X0264850Y0195858D03*
X0264750Y0195758D03*
X0264750Y0195658D03*
X0264650Y0195558D03*
X0264550Y0195358D03*
X0264450Y0195258D03*
X0264350Y0195158D03*
X0264350Y0195058D03*
X0264250Y0194958D03*
X0264150Y0194858D03*
X0264150Y0194758D03*
X0264050Y0194658D03*
X0263950Y0194558D03*
X0263950Y0194458D03*
X0263850Y0194358D03*
X0263750Y0194258D03*
X0263750Y0194158D03*
X0263650Y0194058D03*
X0263550Y0193958D03*
X0263450Y0193758D03*
X0263350Y0193658D03*
X0263250Y0193458D03*
X0263150Y0193358D03*
X0263050Y0193158D03*
X0262950Y0193058D03*
X0262850Y0192858D03*
X0262850Y0192658D03*
X0262950Y0192458D03*
X0263050Y0192358D03*
X0263150Y0192258D03*
X0263350Y0191958D03*
X0263450Y0191858D03*
X0263550Y0191758D03*
X0263650Y0191658D03*
X0263750Y0191558D03*
X0263850Y0191458D03*
X0263950Y0191358D03*
X0264050Y0191258D03*
X0264150Y0191158D03*
X0264250Y0191058D03*
X0264350Y0190958D03*
X0264450Y0190858D03*
X0264750Y0190658D03*
X0264850Y0190558D03*
X0264950Y0190458D03*
X0265250Y0190258D03*
X0265550Y0190058D03*
X0265850Y0189858D03*
X0266350Y0189558D03*
X0265050Y0188358D03*
X0264750Y0188558D03*
X0264450Y0188758D03*
X0264150Y0188958D03*
X0264050Y0189058D03*
X0263750Y0189258D03*
X0263650Y0189358D03*
X0263550Y0189458D03*
X0263150Y0189758D03*
X0263050Y0189858D03*
X0262950Y0189958D03*
X0262850Y0190058D03*
X0262750Y0190158D03*
X0262650Y0190258D03*
X0262550Y0190358D03*
X0262450Y0190458D03*
X0262350Y0190558D03*
X0262150Y0190858D03*
X0262050Y0190958D03*
X0261950Y0191058D03*
X0261750Y0191258D03*
X0261650Y0191058D03*
X0261550Y0190958D03*
X0260450Y0190958D03*
X0260350Y0191058D03*
X0260250Y0191258D03*
X0260150Y0191458D03*
X0260150Y0191558D03*
X0260150Y0191658D03*
X0260150Y0191758D03*
X0260250Y0191958D03*
X0260350Y0192158D03*
X0260450Y0192258D03*
X0260550Y0192458D03*
X0260650Y0192558D03*
X0260750Y0192758D03*
X0260850Y0192858D03*
X0260950Y0193058D03*
X0261050Y0193158D03*
X0261150Y0193358D03*
X0261250Y0193458D03*
X0261350Y0193658D03*
X0261450Y0193758D03*
X0261550Y0193958D03*
X0261650Y0194058D03*
X0261750Y0194158D03*
X0261750Y0194258D03*
X0261850Y0194358D03*
X0261950Y0194558D03*
X0262050Y0194658D03*
X0262150Y0194758D03*
X0262150Y0194858D03*
X0262250Y0194958D03*
X0262350Y0195058D03*
X0262450Y0195258D03*
X0262550Y0195358D03*
X0262650Y0195558D03*
X0262750Y0195658D03*
X0262750Y0195758D03*
X0262850Y0195858D03*
X0262950Y0195958D03*
X0263050Y0196158D03*
X0263150Y0196258D03*
X0263250Y0196458D03*
X0263350Y0196558D03*
X0263450Y0196758D03*
X0263550Y0196858D03*
X0263650Y0197058D03*
X0263750Y0197158D03*
X0263850Y0197358D03*
X0263950Y0197458D03*
X0264050Y0197658D03*
X0264150Y0197758D03*
X0264250Y0197958D03*
X0264350Y0198058D03*
X0264450Y0198258D03*
X0264550Y0198358D03*
X0264650Y0198558D03*
X0264750Y0198658D03*
X0264850Y0198858D03*
X0264950Y0198958D03*
X0265050Y0199158D03*
X0265150Y0199258D03*
X0265250Y0199458D03*
X0265350Y0199558D03*
X0265450Y0199758D03*
X0265550Y0199858D03*
X0265650Y0200058D03*
X0265750Y0200158D03*
X0265850Y0200358D03*
X0265950Y0200458D03*
X0266050Y0200658D03*
X0266150Y0200758D03*
X0266250Y0200958D03*
X0266350Y0201058D03*
X0266450Y0201258D03*
X0266550Y0201358D03*
X0266650Y0201558D03*
X0266750Y0201658D03*
X0266850Y0201858D03*
X0266950Y0201958D03*
X0267050Y0202158D03*
X0267150Y0202258D03*
X0267250Y0202458D03*
X0267350Y0202558D03*
X0267450Y0202758D03*
X0267550Y0202858D03*
X0267650Y0203058D03*
X0267750Y0203158D03*
X0267850Y0203358D03*
X0267950Y0203458D03*
X0268050Y0203558D03*
X0268150Y0203758D03*
X0268250Y0203858D03*
X0268250Y0203958D03*
X0268350Y0204058D03*
X0268450Y0204158D03*
X0268550Y0204358D03*
X0268650Y0204458D03*
X0268750Y0204658D03*
X0268850Y0204758D03*
X0268950Y0204958D03*
X0269050Y0205058D03*
X0269150Y0205258D03*
X0269250Y0205358D03*
X0269350Y0205558D03*
X0269450Y0205658D03*
X0269550Y0205858D03*
X0269650Y0205958D03*
X0269750Y0206158D03*
X0269850Y0206258D03*
X0269950Y0206458D03*
X0270050Y0206558D03*
X0270150Y0206758D03*
X0270250Y0206858D03*
X0270350Y0207058D03*
X0270450Y0207158D03*
X0270550Y0207358D03*
X0270650Y0207458D03*
X0270750Y0207658D03*
X0270850Y0207758D03*
X0270950Y0207958D03*
X0271050Y0208058D03*
X0271250Y0208258D03*
X0272150Y0208258D03*
X0272250Y0208158D03*
X0272350Y0208058D03*
X0272450Y0207958D03*
X0272450Y0207858D03*
X0272550Y0207658D03*
X0272550Y0207558D03*
X0272450Y0207158D03*
X0272450Y0207058D03*
X0272350Y0206758D03*
X0272350Y0206658D03*
X0272350Y0206558D03*
X0272250Y0206358D03*
X0272250Y0206258D03*
X0272150Y0205858D03*
X0272150Y0205758D03*
X0272050Y0205558D03*
X0272050Y0205458D03*
X0272050Y0205358D03*
X0271950Y0205058D03*
X0271950Y0204958D03*
X0271850Y0204658D03*
X0271850Y0204558D03*
X0271750Y0204258D03*
X0271750Y0204158D03*
X0271750Y0204058D03*
X0271650Y0203858D03*
X0271650Y0203758D03*
X0271550Y0203358D03*
X0271550Y0203258D03*
X0271450Y0202958D03*
X0271450Y0202858D03*
X0271450Y0202758D03*
X0271350Y0202558D03*
X0271350Y0202458D03*
X0271250Y0202158D03*
X0271250Y0202058D03*
X0271150Y0201758D03*
X0271150Y0201658D03*
X0271150Y0201558D03*
X0271050Y0201258D03*
X0271050Y0201158D03*
X0270950Y0200858D03*
X0270950Y0200758D03*
X0270850Y0200458D03*
X0270850Y0200358D03*
X0270850Y0200258D03*
X0270750Y0200058D03*
X0270750Y0199958D03*
X0270750Y0199858D03*
X0270650Y0199658D03*
X0270650Y0199558D03*
X0270650Y0199458D03*
X0270550Y0199158D03*
X0270550Y0199058D03*
X0270450Y0198758D03*
X0270450Y0198658D03*
X0270450Y0198558D03*
X0270350Y0198358D03*
X0270350Y0198258D03*
X0270250Y0197958D03*
X0270250Y0197858D03*
X0270250Y0197758D03*
X0270150Y0197458D03*
X0270150Y0197358D03*
X0270050Y0197058D03*
X0270050Y0196958D03*
X0269950Y0196658D03*
X0269950Y0196558D03*
X0269850Y0196258D03*
X0269850Y0196158D03*
X0269850Y0196058D03*
X0269750Y0195858D03*
X0269750Y0195758D03*
X0269750Y0195658D03*
X0269650Y0195358D03*
X0269650Y0195258D03*
X0269650Y0195158D03*
X0269750Y0195058D03*
X0269850Y0195158D03*
X0269850Y0195258D03*
X0269950Y0195358D03*
X0270050Y0195458D03*
X0270150Y0195558D03*
X0270250Y0195758D03*
X0270350Y0195858D03*
X0270450Y0196058D03*
X0270550Y0196158D03*
X0270650Y0196358D03*
X0270750Y0196458D03*
X0270850Y0196558D03*
X0270950Y0196758D03*
X0271050Y0196858D03*
X0271150Y0197058D03*
X0271250Y0197158D03*
X0271350Y0197258D03*
X0271350Y0197358D03*
X0271450Y0197458D03*
X0271550Y0197558D03*
X0271650Y0197758D03*
X0271750Y0197858D03*
X0271850Y0198058D03*
X0271950Y0198158D03*
X0272050Y0198258D03*
X0272050Y0198358D03*
X0272150Y0198458D03*
X0272250Y0198558D03*
X0272350Y0198758D03*
X0272450Y0198858D03*
X0272550Y0199058D03*
X0272650Y0199158D03*
X0272750Y0199258D03*
X0272750Y0199358D03*
X0272850Y0199458D03*
X0272950Y0199558D03*
X0273050Y0199758D03*
X0273150Y0199858D03*
X0273250Y0200058D03*
X0273350Y0200158D03*
X0273450Y0200258D03*
X0273450Y0200358D03*
X0273550Y0200458D03*
X0273650Y0200558D03*
X0273750Y0200758D03*
X0273850Y0200858D03*
X0273950Y0201058D03*
X0274050Y0201158D03*
X0274150Y0201258D03*
X0274250Y0201458D03*
X0274350Y0201558D03*
X0274450Y0201758D03*
X0274550Y0201858D03*
X0274650Y0201958D03*
X0274650Y0202058D03*
X0274750Y0202158D03*
X0274850Y0202258D03*
X0274950Y0202458D03*
X0275050Y0202558D03*
X0275150Y0202758D03*
X0275250Y0202858D03*
X0275350Y0202958D03*
X0275350Y0203058D03*
X0275450Y0203158D03*
X0275550Y0203258D03*
X0275650Y0203458D03*
X0275750Y0203558D03*
X0275850Y0203758D03*
X0275950Y0203858D03*
X0276050Y0204058D03*
X0276150Y0204158D03*
X0276250Y0204258D03*
X0276350Y0204458D03*
X0276450Y0204558D03*
X0276550Y0204758D03*
X0276650Y0204858D03*
X0276750Y0204958D03*
X0276750Y0205058D03*
X0276850Y0205158D03*
X0276950Y0205258D03*
X0277050Y0205458D03*
X0277150Y0205558D03*
X0277250Y0205758D03*
X0277350Y0205858D03*
X0277450Y0205958D03*
X0277550Y0206158D03*
X0277650Y0206258D03*
X0277750Y0206458D03*
X0277850Y0206558D03*
X0277850Y0206758D03*
X0277450Y0207058D03*
X0277350Y0207158D03*
X0277050Y0207358D03*
X0276550Y0207658D03*
X0277350Y0209158D03*
X0278150Y0208658D03*
X0278250Y0208558D03*
X0278550Y0208358D03*
X0278650Y0208258D03*
X0278750Y0208158D03*
X0278850Y0208058D03*
X0278950Y0208158D03*
X0278850Y0208258D03*
X0279050Y0208258D03*
X0279150Y0208458D03*
X0280150Y0205458D03*
X0280050Y0205358D03*
X0279950Y0205158D03*
X0279850Y0204858D03*
X0279850Y0204758D03*
X0279850Y0204658D03*
X0279950Y0204458D03*
X0280050Y0204258D03*
X0280150Y0204058D03*
X0280250Y0203958D03*
X0280350Y0203758D03*
X0280450Y0203558D03*
X0280550Y0203358D03*
X0280650Y0203158D03*
X0280750Y0202958D03*
X0280850Y0202758D03*
X0280850Y0202658D03*
X0280950Y0202458D03*
X0281050Y0202258D03*
X0281050Y0202158D03*
X0281150Y0201958D03*
X0281150Y0201858D03*
X0281250Y0201558D03*
X0281250Y0201458D03*
X0281350Y0201258D03*
X0281350Y0201158D03*
X0281350Y0201058D03*
X0281450Y0200758D03*
X0281450Y0200658D03*
X0281450Y0200558D03*
X0281550Y0200158D03*
X0281550Y0200058D03*
X0281550Y0199958D03*
X0281550Y0199858D03*
X0281650Y0199158D03*
X0281650Y0199058D03*
X0281650Y0198958D03*
X0281650Y0198858D03*
X0281650Y0198758D03*
X0281650Y0198658D03*
X0281650Y0198558D03*
X0281650Y0198458D03*
X0281650Y0198358D03*
X0281650Y0198258D03*
X0281550Y0197558D03*
X0281550Y0197458D03*
X0281550Y0197358D03*
X0281550Y0197258D03*
X0281450Y0196858D03*
X0281450Y0196758D03*
X0281450Y0196658D03*
X0281350Y0196358D03*
X0281350Y0196258D03*
X0281350Y0196158D03*
X0281250Y0195958D03*
X0281250Y0195858D03*
X0281150Y0195558D03*
X0281050Y0195358D03*
X0281050Y0195258D03*
X0280950Y0195058D03*
X0280950Y0194958D03*
X0280850Y0194758D03*
X0280750Y0194558D03*
X0280750Y0194458D03*
X0280650Y0194358D03*
X0280650Y0194258D03*
X0280550Y0194058D03*
X0280450Y0193858D03*
X0280350Y0193758D03*
X0280350Y0193658D03*
X0280250Y0193558D03*
X0280150Y0193358D03*
X0280050Y0193158D03*
X0279950Y0193058D03*
X0279850Y0192858D03*
X0279750Y0192758D03*
X0279650Y0192658D03*
X0280850Y0191458D03*
X0280950Y0191558D03*
X0281050Y0191658D03*
X0281150Y0191858D03*
X0281250Y0191958D03*
X0281350Y0192158D03*
X0281450Y0192258D03*
X0281450Y0192358D03*
X0281550Y0192458D03*
X0281650Y0192658D03*
X0281750Y0192758D03*
X0281750Y0192858D03*
X0281850Y0192958D03*
X0281950Y0193158D03*
X0282050Y0193358D03*
X0282150Y0193558D03*
X0282250Y0193758D03*
X0282250Y0193858D03*
X0282350Y0193958D03*
X0282350Y0194058D03*
X0282450Y0194258D03*
X0282550Y0194558D03*
X0282650Y0194758D03*
X0282650Y0194858D03*
X0282750Y0195058D03*
X0282750Y0195158D03*
X0282850Y0195458D03*
X0282850Y0195558D03*
X0282950Y0195758D03*
X0282950Y0195858D03*
X0283050Y0196158D03*
X0283050Y0196258D03*
X0283050Y0196358D03*
X0283150Y0196758D03*
X0283150Y0196858D03*
X0283150Y0196958D03*
X0283250Y0197358D03*
X0283250Y0197458D03*
X0283250Y0197558D03*
X0283250Y0197658D03*
X0283250Y0197758D03*
X0283250Y0197858D03*
X0283250Y0197958D03*
X0283250Y0198058D03*
X0283250Y0199458D03*
X0283250Y0199558D03*
X0283250Y0199658D03*
X0283250Y0199758D03*
X0283250Y0199858D03*
X0283250Y0199958D03*
X0283250Y0200058D03*
X0283150Y0200458D03*
X0283150Y0200558D03*
X0283150Y0200658D03*
X0283150Y0200758D03*
X0283050Y0201058D03*
X0283050Y0201158D03*
X0283050Y0201258D03*
X0282950Y0201558D03*
X0282950Y0201658D03*
X0282850Y0201958D03*
X0282750Y0202258D03*
X0282750Y0202358D03*
X0282650Y0202558D03*
X0282650Y0202658D03*
X0282550Y0202858D03*
X0282550Y0202958D03*
X0282450Y0203158D03*
X0282350Y0203358D03*
X0282350Y0203458D03*
X0282250Y0203658D03*
X0282150Y0203858D03*
X0282050Y0204058D03*
X0281950Y0204258D03*
X0281850Y0204458D03*
X0281750Y0204658D03*
X0281650Y0204858D03*
X0281550Y0204958D03*
X0281450Y0205158D03*
X0281350Y0205258D03*
X0275450Y0200258D03*
X0275350Y0200058D03*
X0275350Y0199858D03*
X0275150Y0199858D03*
X0275050Y0199658D03*
X0274950Y0199558D03*
X0275050Y0199458D03*
X0275250Y0199558D03*
X0275250Y0199658D03*
X0269650Y0202458D03*
X0269650Y0202558D03*
X0269650Y0202658D03*
X0269650Y0202758D03*
X0269550Y0202858D03*
X0269450Y0202758D03*
X0269450Y0202658D03*
X0269750Y0202858D03*
X0269750Y0203158D03*
X0263450Y0205558D03*
X0263350Y0205458D03*
X0263250Y0205358D03*
X0263150Y0205258D03*
X0263050Y0205058D03*
X0262950Y0204958D03*
X0262850Y0204858D03*
X0262750Y0204658D03*
X0262650Y0204558D03*
X0262550Y0204358D03*
X0262450Y0204258D03*
X0262350Y0204058D03*
X0262250Y0203958D03*
X0262250Y0203858D03*
X0262150Y0203758D03*
X0262150Y0203658D03*
X0262050Y0203558D03*
X0261950Y0203358D03*
X0261850Y0203158D03*
X0261850Y0203058D03*
X0261750Y0202958D03*
X0261750Y0202858D03*
X0261650Y0202658D03*
X0261550Y0202458D03*
X0261550Y0202358D03*
X0261450Y0202158D03*
X0261450Y0202058D03*
X0261350Y0201858D03*
X0261350Y0201758D03*
X0261250Y0201558D03*
X0261250Y0201458D03*
X0261150Y0201158D03*
X0261150Y0201058D03*
X0261150Y0200958D03*
X0261050Y0200758D03*
X0261050Y0200658D03*
X0261050Y0200558D03*
X0260950Y0200058D03*
X0260950Y0199958D03*
X0260950Y0199858D03*
X0260950Y0199758D03*
X0260850Y0199058D03*
X0260950Y0197758D03*
X0260950Y0197658D03*
X0260950Y0197558D03*
X0260950Y0197458D03*
X0260950Y0197358D03*
X0261050Y0196958D03*
X0261050Y0196858D03*
X0261050Y0196758D03*
X0261150Y0196458D03*
X0261150Y0196358D03*
X0261150Y0196258D03*
X0261250Y0196058D03*
X0261250Y0195958D03*
X0261250Y0195858D03*
X0261350Y0195658D03*
X0261350Y0195558D03*
X0261450Y0195358D03*
X0261450Y0195258D03*
X0261450Y0195158D03*
X0261450Y0195058D03*
X0261450Y0194958D03*
X0261350Y0194758D03*
X0261250Y0194558D03*
X0260150Y0194458D03*
X0260050Y0194558D03*
X0259950Y0194658D03*
X0259850Y0194858D03*
X0259850Y0194958D03*
X0259750Y0195158D03*
X0259750Y0195258D03*
X0259650Y0195458D03*
X0259650Y0195558D03*
X0259550Y0195758D03*
X0259550Y0195858D03*
X0259550Y0195958D03*
X0259450Y0196258D03*
X0259450Y0196358D03*
X0259450Y0196458D03*
X0259350Y0196858D03*
X0259350Y0196958D03*
X0259350Y0197058D03*
X0259250Y0197458D03*
X0259250Y0197558D03*
X0259250Y0197658D03*
X0259250Y0197758D03*
X0259250Y0197858D03*
X0259250Y0197958D03*
X0259250Y0198058D03*
X0259250Y0198158D03*
X0259250Y0198258D03*
X0259250Y0198358D03*
X0259250Y0198458D03*
X0259250Y0198558D03*
X0259250Y0198658D03*
X0259250Y0198758D03*
X0259250Y0198858D03*
X0259250Y0198958D03*
X0259250Y0199058D03*
X0259250Y0199158D03*
X0259250Y0199258D03*
X0259250Y0199358D03*
X0259250Y0199458D03*
X0259250Y0199558D03*
X0259250Y0199658D03*
X0259250Y0199758D03*
X0259250Y0199858D03*
X0259250Y0199958D03*
X0259350Y0200358D03*
X0259350Y0200458D03*
X0259350Y0200558D03*
X0259350Y0200658D03*
X0259450Y0201058D03*
X0259450Y0201158D03*
X0259550Y0201458D03*
X0259550Y0201558D03*
X0259550Y0201658D03*
X0259650Y0201858D03*
X0259650Y0201958D03*
X0259750Y0202258D03*
X0259750Y0202358D03*
X0259850Y0202558D03*
X0259850Y0202658D03*
X0259950Y0202858D03*
X0260050Y0203058D03*
X0260050Y0203158D03*
X0260150Y0203358D03*
X0260150Y0203458D03*
X0260250Y0203558D03*
X0260250Y0203658D03*
X0260350Y0203858D03*
X0260450Y0204058D03*
X0260550Y0204258D03*
X0260650Y0204458D03*
X0260750Y0204558D03*
X0260750Y0204658D03*
X0260850Y0204758D03*
X0260950Y0204958D03*
X0261050Y0205158D03*
X0261150Y0205258D03*
X0261250Y0205458D03*
X0261350Y0205558D03*
X0261450Y0205758D03*
X0261550Y0205858D03*
X0261650Y0205958D03*
X0261750Y0206158D03*
X0261850Y0206258D03*
X0261950Y0206358D03*
X0262150Y0206658D03*
X0262250Y0206758D03*
X0262350Y0206858D03*
X0262450Y0206958D03*
X0262550Y0207058D03*
X0262650Y0207158D03*
X0262750Y0207258D03*
X0262850Y0207358D03*
X0262950Y0207458D03*
X0263050Y0207558D03*
X0263150Y0207658D03*
X0263250Y0207758D03*
X0263350Y0207858D03*
X0263750Y0208158D03*
X0263850Y0208258D03*
X0264250Y0208558D03*
X0264550Y0208758D03*
X0264850Y0208958D03*
X0265350Y0209258D03*
X0265950Y0207658D03*
X0265350Y0207258D03*
X0265050Y0207058D03*
X0264950Y0206958D03*
X0264650Y0206758D03*
X0264550Y0206658D03*
X0264450Y0206558D03*
X0264350Y0206458D03*
X0264250Y0206358D03*
X0264150Y0206258D03*
X0263750Y0205858D03*
X0263650Y0205758D03*
X0263550Y0205658D03*
X0269550Y0194958D03*
X0269550Y0194758D03*
X0276650Y0189858D03*
X0276150Y0189558D03*
X0275950Y0189458D03*
X0277150Y0190158D03*
X0278250Y0190158D03*
X0278350Y0190058D03*
X0278450Y0189858D03*
X0278550Y0189558D03*
X0278550Y0189458D03*
X0278450Y0189258D03*
X0278450Y0189158D03*
X0278350Y0189058D03*
X0278050Y0188758D03*
X0277750Y0188558D03*
X0277450Y0188358D03*
X0280650Y0191158D03*
X0280750Y0191258D03*
X0321250Y0198658D03*
X0356050Y0196958D03*
X0356050Y0196858D03*
X0356050Y0196758D03*
X0356050Y0196658D03*
X0356050Y0196558D03*
X0356050Y0195758D03*
X0356050Y0195658D03*
X0356050Y0195558D03*
X0356050Y0195458D03*
X0356050Y0195358D03*
X0356350Y0193858D03*
X0356350Y0193758D03*
X0356450Y0193558D03*
X0356650Y0193158D03*
X0356750Y0192958D03*
X0357050Y0192558D03*
X0357150Y0192458D03*
X0357450Y0192258D03*
X0359650Y0192258D03*
X0360250Y0192858D03*
X0360450Y0193158D03*
X0360550Y0193358D03*
X0360650Y0193558D03*
X0360750Y0193858D03*
X0360950Y0194658D03*
X0360950Y0194758D03*
X0361050Y0195758D03*
X0361050Y0195858D03*
X0361050Y0195958D03*
X0361050Y0196058D03*
X0361050Y0196158D03*
X0361050Y0196258D03*
X0361050Y0196358D03*
X0361050Y0196458D03*
X0361050Y0196558D03*
X0360950Y0197558D03*
X0360950Y0197658D03*
X0360750Y0198458D03*
X0360650Y0198758D03*
X0360450Y0199158D03*
X0360250Y0199458D03*
X0359750Y0199958D03*
X0359650Y0200058D03*
X0357450Y0200058D03*
X0357150Y0199858D03*
X0357050Y0199758D03*
X0356750Y0199358D03*
X0356650Y0199158D03*
X0356550Y0198958D03*
X0356450Y0198758D03*
X0356350Y0198458D03*
X0356250Y0198158D03*
D92*
X0341550Y0198858D03*
X0273350Y0195258D03*
X0273150Y0194958D03*
X0267250Y0197358D03*
X0267150Y0197158D03*
X0266850Y0196758D03*
X0262250Y0197058D03*
X0265550Y0191158D03*
X0271250Y0188358D03*
X0272350Y0200758D03*
D93*
X0282000Y0208958D03*
X0260400Y0208858D03*
X0282700Y0189758D03*
X0282200Y0188858D03*
X0281900Y0188458D03*
X0260600Y0188458D03*
X0321800Y0190658D03*
X0335800Y0197458D03*
X0337900Y0202458D03*
X0337700Y0189558D03*
D94*
X0358550Y0189858D03*
X0323550Y0202358D03*
X0283750Y0205958D03*
X0260350Y0208758D03*
X0260550Y0188558D03*
X0282050Y0188558D03*
X0282550Y0189358D03*
D95*
X0269150Y0188558D03*
X0270250Y0196358D03*
X0274550Y0198358D03*
X0274750Y0198658D03*
X0274650Y0198758D03*
X0274850Y0199058D03*
X0269250Y0201858D03*
X0269050Y0201758D03*
X0269050Y0201558D03*
X0268950Y0201358D03*
X0279450Y0204658D03*
X0279650Y0205058D03*
X0279550Y0205158D03*
X0279650Y0205358D03*
X0279750Y0205258D03*
X0279850Y0205558D03*
X0280650Y0205658D03*
X0273550Y0208858D03*
X0273150Y0208958D03*
X0273750Y0210558D03*
X0268750Y0210558D03*
X0268950Y0208858D03*
X0261850Y0194958D03*
X0261750Y0194758D03*
D96*
X0266250Y0195358D03*
X0266250Y0195458D03*
X0266650Y0196058D03*
X0265350Y0191658D03*
X0271250Y0188558D03*
X0272850Y0194358D03*
X0272850Y0201658D03*
X0272950Y0202058D03*
X0274050Y0208058D03*
X0358550Y0188958D03*
X0373750Y0194658D03*
X0373850Y0195058D03*
X0373850Y0195158D03*
X0373950Y0195458D03*
X0373950Y0195558D03*
X0374050Y0195858D03*
X0374050Y0195958D03*
X0374050Y0196058D03*
X0374150Y0196258D03*
X0374150Y0196358D03*
X0374150Y0196458D03*
X0374150Y0196558D03*
X0374250Y0196758D03*
X0374250Y0196858D03*
X0374250Y0196958D03*
X0377450Y0196958D03*
X0377450Y0196858D03*
X0377450Y0196758D03*
X0377450Y0196658D03*
X0377550Y0196558D03*
X0377550Y0196458D03*
X0377550Y0196358D03*
X0377550Y0196258D03*
X0377650Y0196058D03*
X0377650Y0195958D03*
X0377650Y0195858D03*
X0377650Y0195758D03*
X0377750Y0195558D03*
X0377750Y0195458D03*
X0377750Y0195358D03*
X0377850Y0195158D03*
X0377850Y0195058D03*
X0377850Y0194958D03*
X0377850Y0194858D03*
X0377950Y0194658D03*
X0377950Y0194558D03*
X0377950Y0194458D03*
D97*
X0340100Y0194858D03*
X0321800Y0190558D03*
X0311800Y0201158D03*
X0299100Y0201258D03*
X0299100Y0201358D03*
X0283800Y0205858D03*
X0260200Y0208658D03*
X0260100Y0208558D03*
X0260300Y0188758D03*
X0260400Y0188658D03*
X0271300Y0189258D03*
X0282100Y0188658D03*
X0282200Y0188758D03*
X0282300Y0188958D03*
X0282700Y0189558D03*
D98*
X0278350Y0194058D03*
X0278450Y0194258D03*
X0278450Y0194358D03*
X0272650Y0193158D03*
X0271250Y0188658D03*
X0265250Y0193158D03*
X0265450Y0193458D03*
X0265350Y0193558D03*
X0265550Y0193858D03*
X0279350Y0199958D03*
X0279350Y0200058D03*
X0279450Y0200358D03*
X0273950Y0204158D03*
X0269150Y0208158D03*
X0268750Y0207958D03*
X0297150Y0201158D03*
X0297150Y0201058D03*
X0297150Y0200958D03*
X0297150Y0200858D03*
X0297150Y0200758D03*
X0297150Y0200658D03*
X0297150Y0200558D03*
X0297150Y0200458D03*
X0297150Y0200358D03*
X0297150Y0200258D03*
X0297150Y0200158D03*
X0297150Y0200058D03*
X0297150Y0199958D03*
X0297150Y0199858D03*
X0297150Y0199758D03*
X0297150Y0199658D03*
X0297150Y0199558D03*
X0297150Y0199458D03*
X0297150Y0199358D03*
X0297150Y0199258D03*
X0297150Y0199158D03*
X0297150Y0199058D03*
X0297150Y0198958D03*
X0297150Y0198858D03*
X0297150Y0198758D03*
X0297150Y0198658D03*
X0297150Y0198558D03*
X0297150Y0198458D03*
X0297150Y0198358D03*
X0297150Y0198258D03*
X0297150Y0198158D03*
X0297150Y0198058D03*
X0297150Y0197958D03*
X0297150Y0197858D03*
X0297150Y0197758D03*
X0297150Y0197658D03*
X0297150Y0197558D03*
X0297150Y0197458D03*
X0297150Y0197358D03*
X0297150Y0197258D03*
X0297150Y0197158D03*
X0297150Y0197058D03*
X0297150Y0196958D03*
X0297150Y0196858D03*
X0297150Y0196758D03*
X0297150Y0196658D03*
X0297150Y0196558D03*
X0297150Y0196458D03*
X0297150Y0196358D03*
X0297150Y0196258D03*
X0297150Y0196158D03*
X0297150Y0196058D03*
X0297150Y0195958D03*
X0297150Y0195858D03*
X0297150Y0195758D03*
X0297150Y0195658D03*
X0297150Y0195558D03*
X0297150Y0195458D03*
X0297150Y0195358D03*
X0297150Y0195258D03*
X0297150Y0195158D03*
X0297150Y0195058D03*
X0297150Y0194958D03*
X0297150Y0194858D03*
X0297150Y0194758D03*
X0297150Y0194658D03*
X0297150Y0194558D03*
X0297150Y0194458D03*
X0297150Y0194358D03*
X0297150Y0194258D03*
X0297150Y0194158D03*
X0297150Y0194058D03*
X0297150Y0193958D03*
X0297150Y0193858D03*
X0297150Y0193758D03*
X0297150Y0193658D03*
X0297150Y0193558D03*
X0297150Y0193458D03*
X0297150Y0193358D03*
X0297150Y0193258D03*
X0297150Y0193158D03*
X0297150Y0193058D03*
X0297150Y0192958D03*
X0297150Y0192858D03*
X0297150Y0192758D03*
X0297150Y0192658D03*
X0297150Y0192558D03*
X0297150Y0192458D03*
X0297150Y0192358D03*
X0297150Y0192258D03*
X0297150Y0192158D03*
X0297150Y0192058D03*
X0297150Y0191958D03*
X0297150Y0191858D03*
X0297150Y0191758D03*
X0297150Y0191658D03*
X0297150Y0191558D03*
X0297150Y0191458D03*
X0297150Y0191358D03*
X0297150Y0191258D03*
X0297150Y0191158D03*
X0297150Y0191058D03*
X0297150Y0190958D03*
X0297150Y0190858D03*
X0297150Y0190758D03*
X0297150Y0190658D03*
X0297150Y0190558D03*
X0297150Y0190458D03*
X0297150Y0190358D03*
X0297150Y0190258D03*
X0297150Y0190158D03*
X0297150Y0190058D03*
X0297150Y0189958D03*
X0297150Y0189858D03*
X0297150Y0189758D03*
X0297150Y0189658D03*
X0297150Y0189558D03*
X0297150Y0189458D03*
X0297150Y0189358D03*
X0297150Y0189258D03*
X0297150Y0189158D03*
X0305450Y0190058D03*
X0313750Y0190058D03*
X0313750Y0189958D03*
X0313750Y0189858D03*
X0313750Y0189758D03*
X0313750Y0189658D03*
X0313750Y0189558D03*
X0313750Y0189458D03*
X0313750Y0189358D03*
X0313750Y0189258D03*
X0313750Y0190158D03*
X0313750Y0190258D03*
X0313750Y0190358D03*
X0313750Y0190458D03*
X0313750Y0190558D03*
X0313750Y0190658D03*
X0313750Y0190758D03*
X0313750Y0190858D03*
X0313750Y0190958D03*
X0313750Y0191058D03*
X0313750Y0191158D03*
X0313750Y0191258D03*
X0313750Y0191358D03*
X0313750Y0191458D03*
X0313750Y0191558D03*
X0313750Y0191658D03*
X0313750Y0191758D03*
X0313750Y0191858D03*
X0313750Y0191958D03*
X0313750Y0192058D03*
X0313750Y0192158D03*
X0313750Y0192258D03*
X0313750Y0192358D03*
X0313750Y0192458D03*
X0313750Y0192558D03*
X0313750Y0192658D03*
X0313750Y0192758D03*
X0313750Y0192858D03*
X0313750Y0192958D03*
X0313750Y0193058D03*
X0313750Y0193158D03*
X0313750Y0193258D03*
X0313750Y0193358D03*
X0313750Y0193458D03*
X0313750Y0193558D03*
X0313750Y0193658D03*
X0313750Y0193758D03*
X0313750Y0193858D03*
X0313750Y0193958D03*
X0313750Y0194058D03*
X0313750Y0194158D03*
X0313750Y0194258D03*
X0313750Y0194358D03*
X0313750Y0194458D03*
X0313750Y0194558D03*
X0313750Y0194658D03*
X0313750Y0194758D03*
X0313750Y0194858D03*
X0313750Y0194958D03*
X0313750Y0195058D03*
X0313750Y0195158D03*
X0313750Y0195258D03*
X0313750Y0195358D03*
X0313750Y0195458D03*
X0313750Y0195558D03*
X0313750Y0195658D03*
X0313750Y0195758D03*
X0313750Y0195858D03*
X0313750Y0195958D03*
X0313750Y0196058D03*
X0313750Y0196158D03*
X0313750Y0196258D03*
X0313750Y0196358D03*
X0313750Y0196458D03*
X0313750Y0196558D03*
X0313750Y0196658D03*
X0313750Y0196758D03*
X0313750Y0196858D03*
X0313750Y0196958D03*
X0313750Y0197058D03*
X0313750Y0197158D03*
X0313750Y0197258D03*
X0313750Y0197358D03*
X0313750Y0197458D03*
X0313750Y0197558D03*
X0313750Y0197658D03*
X0313750Y0197758D03*
X0313750Y0197858D03*
X0313750Y0197958D03*
X0313750Y0198058D03*
X0313750Y0198158D03*
X0313750Y0198258D03*
X0313750Y0198358D03*
X0313750Y0198458D03*
X0313750Y0198558D03*
X0313750Y0198658D03*
X0313750Y0198758D03*
X0313750Y0198858D03*
X0313750Y0198958D03*
X0313750Y0199058D03*
X0313750Y0199158D03*
X0313750Y0199258D03*
X0313750Y0199358D03*
X0313750Y0199458D03*
X0313750Y0199558D03*
X0313750Y0199658D03*
X0313750Y0199758D03*
X0313750Y0199858D03*
X0313750Y0199958D03*
X0313750Y0200058D03*
X0313750Y0200158D03*
X0313750Y0200258D03*
X0313750Y0200358D03*
X0313750Y0200458D03*
X0313750Y0200558D03*
X0313750Y0200658D03*
X0313750Y0200758D03*
X0313750Y0200858D03*
X0313750Y0200958D03*
X0319550Y0199358D03*
X0327750Y0198358D03*
X0327750Y0198258D03*
X0327750Y0198158D03*
X0327750Y0198058D03*
X0327750Y0197958D03*
X0327750Y0197858D03*
X0327750Y0197758D03*
X0327750Y0197658D03*
X0327750Y0197558D03*
X0327750Y0197458D03*
X0327750Y0197358D03*
X0327750Y0194958D03*
X0327750Y0194858D03*
X0327750Y0194758D03*
X0327750Y0194658D03*
X0327750Y0194558D03*
X0327750Y0194458D03*
X0327750Y0194358D03*
X0327750Y0194258D03*
X0327750Y0194158D03*
X0327750Y0194058D03*
X0327750Y0193958D03*
X0327750Y0193858D03*
X0327750Y0193758D03*
X0327750Y0193658D03*
X0327750Y0193558D03*
X0327750Y0193458D03*
X0327750Y0193358D03*
X0327750Y0193258D03*
X0327750Y0193158D03*
X0327750Y0193058D03*
X0327750Y0192958D03*
X0327750Y0192858D03*
X0328050Y0190658D03*
X0328050Y0190558D03*
X0328050Y0190458D03*
X0328150Y0190358D03*
X0328150Y0190258D03*
X0328150Y0190158D03*
X0328250Y0190058D03*
X0328250Y0189958D03*
X0328250Y0189858D03*
X0328350Y0189758D03*
X0328350Y0189658D03*
X0328450Y0189458D03*
X0328550Y0189258D03*
X0337950Y0203058D03*
X0358550Y0189058D03*
X0375850Y0201458D03*
X0375850Y0201558D03*
X0375850Y0201658D03*
D99*
X0375850Y0199558D03*
X0375850Y0199458D03*
X0375850Y0199358D03*
X0375850Y0199258D03*
X0362250Y0192358D03*
X0362250Y0192158D03*
X0354850Y0192158D03*
X0354750Y0192358D03*
X0355050Y0200258D03*
X0358550Y0202858D03*
X0341750Y0192058D03*
X0333750Y0192058D03*
X0333650Y0192158D03*
X0333850Y0198458D03*
X0319650Y0192158D03*
X0305450Y0191458D03*
X0305450Y0191358D03*
X0279050Y0197758D03*
X0263950Y0201558D03*
X0263850Y0201158D03*
X0263650Y0200858D03*
X0267550Y0206858D03*
X0274650Y0205658D03*
X0274950Y0206258D03*
X0271250Y0188758D03*
D100*
X0273000Y0190958D03*
X0260200Y0188858D03*
X0260100Y0188958D03*
X0260000Y0189058D03*
X0283800Y0206058D03*
X0299000Y0201858D03*
X0299000Y0201758D03*
X0305500Y0194958D03*
X0311900Y0201558D03*
X0311900Y0201658D03*
X0311900Y0201758D03*
X0321800Y0190458D03*
X0337700Y0189458D03*
X0260000Y0208458D03*
X0259900Y0208358D03*
X0259800Y0208258D03*
D101*
X0266750Y0206058D03*
X0265950Y0204858D03*
X0265750Y0204758D03*
X0265750Y0204558D03*
X0265550Y0204458D03*
X0265550Y0204258D03*
X0265350Y0204158D03*
X0256450Y0201658D03*
X0256450Y0201558D03*
X0256450Y0201458D03*
X0256450Y0201358D03*
X0256350Y0201158D03*
X0256350Y0201058D03*
X0256250Y0200458D03*
X0256250Y0200358D03*
X0256250Y0197158D03*
X0256350Y0196458D03*
X0256350Y0196358D03*
X0256450Y0196058D03*
X0256450Y0195958D03*
X0256450Y0195858D03*
X0256450Y0195758D03*
X0256550Y0195558D03*
X0256550Y0195458D03*
X0271250Y0188858D03*
X0285850Y0195058D03*
X0285950Y0195458D03*
X0286050Y0195758D03*
X0286050Y0195858D03*
X0286050Y0195958D03*
X0286150Y0196258D03*
X0286150Y0196358D03*
X0286250Y0198558D03*
X0286250Y0198658D03*
X0286250Y0198758D03*
X0286250Y0198858D03*
X0286250Y0198958D03*
X0286250Y0200458D03*
X0286250Y0200558D03*
X0286150Y0201058D03*
X0286150Y0201158D03*
X0286150Y0201258D03*
X0286050Y0201458D03*
X0286050Y0201558D03*
X0286050Y0201658D03*
X0283650Y0208158D03*
X0283650Y0208258D03*
X0283550Y0208358D03*
X0298050Y0206958D03*
X0298050Y0206858D03*
X0298050Y0206758D03*
X0312850Y0206758D03*
X0312850Y0206658D03*
X0312850Y0206858D03*
X0305450Y0192458D03*
X0326950Y0192058D03*
X0371550Y0190458D03*
X0380150Y0190458D03*
X0380150Y0190358D03*
X0380150Y0190558D03*
X0375850Y0197558D03*
X0375850Y0197658D03*
X0375850Y0197758D03*
X0375850Y0197858D03*
D102*
X0337650Y0188858D03*
X0333850Y0193358D03*
X0272950Y0194458D03*
X0266450Y0195858D03*
X0262550Y0197558D03*
X0262550Y0197758D03*
X0262350Y0197258D03*
X0265450Y0191458D03*
X0265550Y0191358D03*
X0272750Y0201558D03*
D103*
X0268350Y0200058D03*
X0270950Y0197758D03*
X0270850Y0197558D03*
X0270650Y0197258D03*
X0274250Y0197758D03*
X0279450Y0204058D03*
X0279450Y0204358D03*
X0262050Y0195658D03*
X0261750Y0190658D03*
X0266450Y0189958D03*
X0266750Y0189758D03*
X0340850Y0198758D03*
X0358550Y0191958D03*
X0358550Y0188858D03*
D104*
X0341150Y0194458D03*
X0358550Y0202658D03*
X0380150Y0191358D03*
X0323550Y0202758D03*
X0312650Y0205558D03*
X0312650Y0205658D03*
X0312650Y0205758D03*
X0298250Y0205758D03*
X0298250Y0205858D03*
X0285550Y0203258D03*
X0285450Y0203558D03*
X0285350Y0204058D03*
X0285250Y0204258D03*
X0285150Y0204458D03*
X0283850Y0207558D03*
X0283750Y0207658D03*
X0283750Y0207758D03*
X0283050Y0208858D03*
X0271250Y0216558D03*
X0257350Y0204458D03*
X0257250Y0204258D03*
X0257150Y0203758D03*
X0256950Y0203258D03*
X0256950Y0194358D03*
X0257450Y0192758D03*
X0271250Y0188958D03*
X0272750Y0191758D03*
X0285050Y0192758D03*
X0285050Y0192858D03*
X0285150Y0192958D03*
X0285250Y0193458D03*
X0285350Y0193658D03*
X0305450Y0193058D03*
X0305450Y0192958D03*
X0321750Y0189758D03*
D105*
X0321700Y0188958D03*
X0324300Y0197358D03*
X0279600Y0202858D03*
X0279500Y0202758D03*
X0279500Y0202658D03*
X0279500Y0203058D03*
X0272200Y0200458D03*
X0272000Y0200158D03*
X0273400Y0195458D03*
X0273400Y0195358D03*
X0267000Y0197058D03*
X0262400Y0196958D03*
X0265600Y0191058D03*
X0265700Y0190958D03*
D106*
X0272600Y0193058D03*
X0279300Y0199358D03*
X0279300Y0199458D03*
X0279400Y0199658D03*
X0279400Y0199758D03*
X0273900Y0203958D03*
X0274100Y0204358D03*
X0274000Y0204458D03*
X0268700Y0207858D03*
X0268500Y0207758D03*
X0268400Y0207658D03*
X0263300Y0200058D03*
X0305500Y0190458D03*
X0319200Y0192858D03*
X0319200Y0192958D03*
X0319200Y0193058D03*
X0319200Y0193158D03*
X0319200Y0193258D03*
X0319200Y0193358D03*
X0319200Y0193458D03*
X0319200Y0193558D03*
X0319300Y0193858D03*
X0319300Y0193958D03*
X0319400Y0194158D03*
X0327600Y0192558D03*
X0333100Y0193158D03*
X0333100Y0193258D03*
X0337700Y0188958D03*
X0353700Y0195358D03*
X0353700Y0195458D03*
X0353700Y0195558D03*
X0353700Y0195658D03*
X0353700Y0195758D03*
X0353700Y0196558D03*
X0353700Y0196658D03*
X0353700Y0196758D03*
X0353700Y0196858D03*
X0353700Y0196958D03*
X0353800Y0197458D03*
X0353900Y0198058D03*
X0353900Y0198158D03*
X0354000Y0198458D03*
X0354100Y0198758D03*
X0363000Y0198758D03*
X0363100Y0198458D03*
X0363200Y0197958D03*
X0363300Y0197658D03*
X0363300Y0197558D03*
X0363400Y0196558D03*
X0363400Y0196458D03*
X0363400Y0196358D03*
X0363400Y0196258D03*
X0363400Y0196158D03*
X0363400Y0196058D03*
X0363400Y0195958D03*
X0363400Y0195858D03*
X0363400Y0195758D03*
X0363300Y0194658D03*
X0369400Y0196058D03*
X0369400Y0196158D03*
X0369400Y0196258D03*
X0369300Y0196458D03*
X0369300Y0196558D03*
X0369300Y0196658D03*
X0369300Y0196758D03*
X0369200Y0196858D03*
X0369200Y0196958D03*
X0369200Y0197058D03*
X0369200Y0197158D03*
X0369100Y0197358D03*
X0369100Y0197458D03*
X0369100Y0197558D03*
X0369000Y0197758D03*
X0369000Y0197858D03*
X0369000Y0197958D03*
X0368900Y0198258D03*
X0368900Y0198358D03*
X0368800Y0198658D03*
X0368800Y0198758D03*
X0368700Y0199058D03*
X0368700Y0199158D03*
X0368600Y0199558D03*
X0368600Y0199658D03*
X0368500Y0199958D03*
X0368500Y0200058D03*
X0368400Y0200458D03*
X0368300Y0200858D03*
X0368000Y0202158D03*
X0375900Y0200958D03*
X0383000Y0199258D03*
X0383000Y0199158D03*
X0383000Y0199058D03*
X0382900Y0198758D03*
X0382900Y0198658D03*
X0382800Y0198358D03*
X0382800Y0198258D03*
X0382700Y0197958D03*
X0382700Y0197858D03*
X0382700Y0197758D03*
X0382600Y0197558D03*
X0382600Y0197458D03*
X0382600Y0197358D03*
X0382500Y0197158D03*
X0382500Y0197058D03*
X0382500Y0196958D03*
X0382400Y0196758D03*
X0382400Y0196658D03*
X0382400Y0196558D03*
X0382300Y0196358D03*
X0382300Y0196258D03*
X0382300Y0196158D03*
X0382200Y0195858D03*
X0382200Y0195758D03*
X0382100Y0195458D03*
X0382100Y0195358D03*
X0382100Y0195258D03*
X0382000Y0195058D03*
X0382000Y0194958D03*
X0382000Y0194858D03*
X0381900Y0194658D03*
X0381900Y0194558D03*
X0381900Y0194458D03*
X0383100Y0199458D03*
X0383100Y0199558D03*
X0383100Y0199658D03*
X0383200Y0199958D03*
X0383200Y0200058D03*
X0383300Y0200358D03*
X0383300Y0200458D03*
X0383400Y0200758D03*
X0383400Y0200858D03*
X0383500Y0201158D03*
X0383500Y0201258D03*
X0383600Y0201558D03*
X0383600Y0201658D03*
X0383600Y0201758D03*
X0383700Y0202058D03*
X0383700Y0202158D03*
X0383800Y0202458D03*
X0383800Y0202558D03*
X0383900Y0202858D03*
X0369500Y0195858D03*
X0369500Y0195758D03*
X0369500Y0195658D03*
X0369500Y0195558D03*
X0369600Y0195458D03*
X0369600Y0195358D03*
X0369600Y0195258D03*
X0369600Y0195158D03*
X0369700Y0195058D03*
X0369700Y0194958D03*
X0369700Y0194858D03*
X0369700Y0194758D03*
X0369800Y0194558D03*
X0369800Y0194458D03*
X0369800Y0194358D03*
X0342300Y0199258D03*
X0342300Y0199358D03*
X0327600Y0199258D03*
D107*
X0312300Y0203758D03*
X0312300Y0203858D03*
X0298600Y0203858D03*
X0298600Y0203958D03*
X0298600Y0204058D03*
X0283800Y0206858D03*
X0305500Y0193958D03*
X0283900Y0190858D03*
X0272800Y0191258D03*
X0272700Y0191358D03*
X0271300Y0189058D03*
X0258900Y0190358D03*
X0258800Y0190458D03*
X0257600Y0193258D03*
X0257600Y0193458D03*
X0258600Y0206758D03*
X0258700Y0206858D03*
X0358500Y0189558D03*
X0371500Y0192858D03*
X0371500Y0192958D03*
X0380200Y0192958D03*
X0380200Y0192858D03*
X0380200Y0192758D03*
D108*
X0358550Y0202258D03*
X0335550Y0197558D03*
X0311850Y0201258D03*
X0311850Y0201358D03*
X0311850Y0201458D03*
X0299050Y0201458D03*
X0299050Y0201558D03*
X0299050Y0201658D03*
X0283750Y0206158D03*
X0259750Y0208058D03*
X0282650Y0189458D03*
X0282550Y0189258D03*
X0282550Y0189158D03*
X0282450Y0189058D03*
D109*
X0278400Y0193358D03*
X0273000Y0194258D03*
X0272900Y0194158D03*
X0266400Y0195558D03*
X0266200Y0195258D03*
X0266100Y0195058D03*
X0262500Y0197958D03*
X0272800Y0201858D03*
X0273000Y0202158D03*
X0279500Y0202058D03*
X0274200Y0207958D03*
X0321700Y0189058D03*
X0373700Y0194358D03*
X0373700Y0194458D03*
X0373700Y0194558D03*
X0373800Y0194758D03*
X0373800Y0194858D03*
X0373800Y0194958D03*
X0373900Y0195258D03*
X0373900Y0195358D03*
X0374000Y0195658D03*
X0374000Y0195758D03*
X0374100Y0196158D03*
X0374200Y0196658D03*
X0377600Y0196158D03*
X0377700Y0195658D03*
X0377800Y0195258D03*
X0377900Y0194758D03*
D110*
X0380200Y0194258D03*
X0371500Y0194258D03*
X0340400Y0194758D03*
X0312000Y0202058D03*
X0312000Y0202158D03*
X0312000Y0202258D03*
X0305500Y0194758D03*
X0298900Y0202258D03*
X0298900Y0202358D03*
X0298900Y0202458D03*
X0283800Y0206258D03*
X0257700Y0194058D03*
X0259700Y0189358D03*
X0259800Y0189258D03*
X0259900Y0189158D03*
D111*
X0265400Y0191758D03*
X0266000Y0194858D03*
X0266200Y0195158D03*
X0262700Y0198158D03*
X0262700Y0198358D03*
X0272800Y0194058D03*
X0272800Y0193858D03*
X0278400Y0193258D03*
X0279400Y0201558D03*
X0279600Y0201658D03*
X0273300Y0202758D03*
X0273200Y0202558D03*
X0273000Y0202258D03*
X0274300Y0207858D03*
X0305500Y0189158D03*
D112*
X0305500Y0189958D03*
X0313800Y0189158D03*
X0328400Y0189558D03*
X0328500Y0189358D03*
X0328600Y0189158D03*
X0319500Y0199158D03*
X0319500Y0199258D03*
X0323400Y0203058D03*
X0313800Y0201058D03*
X0342200Y0198958D03*
X0375900Y0201758D03*
X0375900Y0201858D03*
X0278500Y0193958D03*
X0272700Y0193258D03*
X0265300Y0193358D03*
X0265100Y0192458D03*
X0265200Y0192158D03*
X0263000Y0199058D03*
X0263000Y0199258D03*
X0273500Y0203458D03*
X0273600Y0203558D03*
X0273800Y0203858D03*
X0273900Y0204058D03*
X0268900Y0208058D03*
D113*
X0273750Y0203758D03*
X0273650Y0203358D03*
X0279350Y0200758D03*
X0265450Y0193658D03*
X0265150Y0192358D03*
X0262950Y0199158D03*
X0301250Y0200958D03*
X0301250Y0201058D03*
X0301350Y0200858D03*
X0301350Y0200758D03*
X0301450Y0200558D03*
X0301450Y0200458D03*
X0301550Y0200258D03*
X0301550Y0200158D03*
X0301650Y0200058D03*
X0301650Y0199958D03*
X0301750Y0199758D03*
X0301750Y0199658D03*
X0301850Y0199458D03*
X0301850Y0199358D03*
X0301950Y0199158D03*
X0302050Y0198958D03*
X0302050Y0198858D03*
X0302150Y0198658D03*
X0302150Y0198558D03*
X0302250Y0198358D03*
X0302350Y0198158D03*
X0302350Y0198058D03*
X0302450Y0197858D03*
X0302450Y0197758D03*
X0302550Y0197558D03*
X0302650Y0197358D03*
X0302650Y0197258D03*
X0302750Y0197058D03*
X0302750Y0196958D03*
X0302850Y0196758D03*
X0302950Y0196558D03*
X0302950Y0196458D03*
X0303050Y0196258D03*
X0303050Y0196158D03*
X0303150Y0195958D03*
X0303250Y0195758D03*
X0303250Y0195658D03*
X0303350Y0195458D03*
X0303350Y0195358D03*
X0303450Y0195158D03*
X0307450Y0195058D03*
X0307550Y0195258D03*
X0307550Y0195358D03*
X0307650Y0195558D03*
X0307750Y0195758D03*
X0307750Y0195858D03*
X0307850Y0196058D03*
X0307850Y0196158D03*
X0307950Y0196358D03*
X0308050Y0196558D03*
X0308050Y0196658D03*
X0308150Y0196858D03*
X0308150Y0196958D03*
X0308250Y0197158D03*
X0308350Y0197358D03*
X0308350Y0197458D03*
X0308450Y0197658D03*
X0308450Y0197758D03*
X0308550Y0197958D03*
X0308650Y0198158D03*
X0308650Y0198258D03*
X0308750Y0198458D03*
X0308750Y0198558D03*
X0308850Y0198658D03*
X0308850Y0198758D03*
X0308950Y0198958D03*
X0308950Y0199058D03*
X0309050Y0199258D03*
X0309050Y0199358D03*
X0309150Y0199558D03*
X0309250Y0199758D03*
X0309250Y0199858D03*
X0309350Y0200058D03*
X0309350Y0200158D03*
X0309450Y0200258D03*
X0309450Y0200358D03*
X0309550Y0200558D03*
X0309550Y0200658D03*
X0309650Y0200858D03*
X0309650Y0200958D03*
X0319450Y0199058D03*
X0319450Y0198958D03*
X0305450Y0189858D03*
X0305450Y0189758D03*
X0321750Y0189158D03*
X0375850Y0201958D03*
X0375850Y0202058D03*
D114*
X0375850Y0197458D03*
X0375850Y0197358D03*
X0375850Y0197258D03*
X0375850Y0197158D03*
X0371550Y0190858D03*
X0380150Y0190858D03*
X0358550Y0189358D03*
X0341350Y0194358D03*
X0337650Y0189158D03*
X0321750Y0189658D03*
X0305450Y0192758D03*
X0285950Y0195658D03*
X0285850Y0195358D03*
X0285850Y0195258D03*
X0285750Y0194958D03*
X0285650Y0194258D03*
X0285550Y0194058D03*
X0285550Y0193958D03*
X0285450Y0193758D03*
X0286150Y0197058D03*
X0286050Y0201358D03*
X0285950Y0201758D03*
X0285950Y0201858D03*
X0285850Y0202058D03*
X0285850Y0202158D03*
X0285750Y0202858D03*
X0285750Y0202958D03*
X0285650Y0203158D03*
X0285550Y0203458D03*
X0283650Y0208058D03*
X0283250Y0208758D03*
X0271250Y0208558D03*
X0256950Y0203458D03*
X0256950Y0203358D03*
X0256850Y0203158D03*
X0256850Y0203058D03*
X0256750Y0202858D03*
X0256650Y0202158D03*
X0256650Y0202058D03*
X0256550Y0201758D03*
X0256450Y0201258D03*
X0256450Y0200958D03*
X0256550Y0195658D03*
X0256650Y0195358D03*
X0256750Y0195058D03*
X0256850Y0194558D03*
X0257450Y0192558D03*
X0272750Y0191858D03*
X0298150Y0206258D03*
X0298150Y0206358D03*
X0298150Y0206458D03*
X0312750Y0206258D03*
X0312750Y0206158D03*
D115*
X0319600Y0199458D03*
X0327700Y0198858D03*
X0327700Y0198758D03*
X0327700Y0198658D03*
X0327700Y0198558D03*
X0327700Y0198458D03*
X0327700Y0192758D03*
X0348000Y0189158D03*
X0375900Y0201358D03*
X0305500Y0190258D03*
X0305500Y0190158D03*
X0278500Y0194158D03*
X0278500Y0194458D03*
X0278500Y0194558D03*
X0272700Y0193358D03*
X0265200Y0193258D03*
X0265100Y0192858D03*
X0265000Y0192558D03*
X0263100Y0199358D03*
X0263000Y0199458D03*
X0263200Y0199758D03*
X0273700Y0203658D03*
X0274000Y0204258D03*
X0274600Y0207458D03*
X0279400Y0200458D03*
X0279500Y0200258D03*
X0279300Y0200158D03*
D116*
X0279050Y0198158D03*
X0279150Y0197958D03*
X0279150Y0197858D03*
X0278850Y0196658D03*
X0278850Y0196058D03*
X0278650Y0195958D03*
X0278650Y0195858D03*
X0263750Y0201058D03*
X0267850Y0207158D03*
X0274750Y0205858D03*
X0305450Y0191158D03*
X0319550Y0192258D03*
X0319750Y0194658D03*
X0320050Y0199958D03*
X0327450Y0192358D03*
X0333550Y0192258D03*
X0333750Y0198658D03*
X0333950Y0200158D03*
X0334050Y0200258D03*
X0341850Y0200158D03*
X0342050Y0193658D03*
X0341950Y0192258D03*
X0354550Y0192658D03*
X0358550Y0189158D03*
X0362450Y0192558D03*
X0362550Y0192658D03*
X0362350Y0199858D03*
X0362250Y0200058D03*
X0362150Y0200158D03*
X0354850Y0200058D03*
X0354850Y0199958D03*
X0375850Y0199958D03*
X0375850Y0199858D03*
X0375850Y0199758D03*
X0321750Y0189358D03*
D117*
X0305450Y0189258D03*
X0278450Y0193458D03*
X0272750Y0193758D03*
X0266050Y0194758D03*
X0265850Y0194558D03*
X0265850Y0194458D03*
X0265250Y0191958D03*
X0262750Y0198558D03*
X0273350Y0202858D03*
X0279450Y0201158D03*
X0279450Y0201058D03*
X0279550Y0201358D03*
X0271250Y0208858D03*
X0269650Y0208458D03*
X0269450Y0208358D03*
X0358550Y0203058D03*
X0375850Y0202858D03*
D118*
X0375850Y0200858D03*
X0375850Y0200758D03*
X0375850Y0200658D03*
X0382950Y0198958D03*
X0382950Y0198858D03*
X0382850Y0198558D03*
X0382850Y0198458D03*
X0382750Y0198158D03*
X0382750Y0198058D03*
X0382650Y0197658D03*
X0382550Y0197258D03*
X0382450Y0196858D03*
X0382350Y0196458D03*
X0382250Y0196058D03*
X0382250Y0195958D03*
X0382150Y0195658D03*
X0382150Y0195558D03*
X0382050Y0195158D03*
X0381950Y0194758D03*
X0383050Y0199358D03*
X0383150Y0199758D03*
X0383150Y0199858D03*
X0383250Y0200158D03*
X0383250Y0200258D03*
X0383350Y0200558D03*
X0383350Y0200658D03*
X0383450Y0200958D03*
X0383450Y0201058D03*
X0383550Y0201358D03*
X0383550Y0201458D03*
X0383650Y0201858D03*
X0383650Y0201958D03*
X0383750Y0202258D03*
X0383750Y0202358D03*
X0383850Y0202658D03*
X0383850Y0202758D03*
X0368650Y0199458D03*
X0368650Y0199358D03*
X0368650Y0199258D03*
X0368750Y0198958D03*
X0368750Y0198858D03*
X0368850Y0198558D03*
X0368850Y0198458D03*
X0368950Y0198158D03*
X0368950Y0198058D03*
X0369050Y0197658D03*
X0369150Y0197258D03*
X0369350Y0196358D03*
X0369450Y0195958D03*
X0363350Y0194758D03*
X0363250Y0194358D03*
X0363150Y0193958D03*
X0363150Y0193858D03*
X0363050Y0193658D03*
X0363050Y0193558D03*
X0363250Y0197858D03*
X0363150Y0198358D03*
X0363050Y0198658D03*
X0362950Y0198858D03*
X0362850Y0199158D03*
X0358550Y0202958D03*
X0354350Y0199358D03*
X0354250Y0199158D03*
X0354150Y0198958D03*
X0353750Y0197358D03*
X0353750Y0194958D03*
X0353750Y0194858D03*
X0353850Y0194258D03*
X0353950Y0193858D03*
X0353950Y0193758D03*
X0354050Y0193558D03*
X0342250Y0199458D03*
X0342250Y0199558D03*
X0342150Y0199658D03*
X0333150Y0193058D03*
X0333150Y0192958D03*
X0321750Y0189258D03*
X0319250Y0192658D03*
X0319250Y0192758D03*
X0319350Y0194058D03*
X0319450Y0194258D03*
X0319850Y0199758D03*
X0327550Y0199358D03*
X0305450Y0190658D03*
X0305450Y0190558D03*
X0278550Y0194958D03*
X0278550Y0195058D03*
X0278450Y0194758D03*
X0279250Y0198958D03*
X0279250Y0199058D03*
X0279250Y0199158D03*
X0274250Y0204658D03*
X0274150Y0204758D03*
X0274350Y0204958D03*
X0274350Y0205058D03*
X0274850Y0207158D03*
X0274750Y0207258D03*
X0263350Y0199958D03*
X0263150Y0199658D03*
X0265150Y0192958D03*
X0367850Y0202658D03*
X0367850Y0202758D03*
X0367850Y0202858D03*
X0367950Y0202558D03*
X0367950Y0202458D03*
X0367950Y0202358D03*
X0367950Y0202258D03*
X0368050Y0202058D03*
X0368050Y0201958D03*
X0368050Y0201858D03*
X0368050Y0201758D03*
X0368150Y0201658D03*
X0368150Y0201558D03*
X0368150Y0201458D03*
X0368150Y0201358D03*
X0368250Y0201258D03*
X0368250Y0201158D03*
X0368250Y0201058D03*
X0368250Y0200958D03*
X0368350Y0200758D03*
X0368350Y0200658D03*
X0368350Y0200558D03*
X0368450Y0200358D03*
X0368450Y0200258D03*
X0368450Y0200158D03*
X0368550Y0199858D03*
X0368550Y0199758D03*
D119*
X0371500Y0192558D03*
X0371500Y0192458D03*
X0371500Y0192358D03*
X0380200Y0192358D03*
X0380200Y0192258D03*
X0380200Y0192458D03*
X0380200Y0192558D03*
X0337700Y0189258D03*
X0334900Y0197758D03*
X0323500Y0202658D03*
X0312400Y0204258D03*
X0312400Y0204358D03*
X0312400Y0204458D03*
X0298500Y0204458D03*
X0298500Y0204358D03*
X0298500Y0204558D03*
X0284500Y0205658D03*
X0283800Y0207058D03*
X0305500Y0193658D03*
X0284200Y0191358D03*
X0284100Y0191058D03*
X0258000Y0205658D03*
X0258100Y0205958D03*
X0258200Y0206158D03*
X0258300Y0206258D03*
D120*
X0263250Y0199858D03*
X0263050Y0199558D03*
X0274150Y0204558D03*
X0274650Y0207358D03*
X0279250Y0199858D03*
X0272650Y0192958D03*
X0265250Y0193058D03*
X0265050Y0192758D03*
X0265150Y0192658D03*
X0305450Y0190358D03*
X0319250Y0193658D03*
X0319250Y0193758D03*
X0327650Y0192658D03*
X0327650Y0198958D03*
X0327650Y0199058D03*
X0327650Y0199158D03*
X0319750Y0199658D03*
X0319650Y0199558D03*
X0342350Y0199158D03*
X0342350Y0199058D03*
X0347950Y0199058D03*
X0347950Y0198958D03*
X0347950Y0198858D03*
X0347950Y0198758D03*
X0347950Y0198658D03*
X0347950Y0198558D03*
X0347950Y0198458D03*
X0347950Y0198358D03*
X0347950Y0198258D03*
X0347950Y0198158D03*
X0347950Y0198058D03*
X0347950Y0197958D03*
X0347950Y0197858D03*
X0347950Y0197758D03*
X0347950Y0197658D03*
X0347950Y0197558D03*
X0347950Y0197458D03*
X0347950Y0197358D03*
X0347950Y0197258D03*
X0347950Y0197158D03*
X0347950Y0197058D03*
X0347950Y0196958D03*
X0347950Y0196858D03*
X0347950Y0196758D03*
X0347950Y0196658D03*
X0347950Y0196558D03*
X0347950Y0196458D03*
X0347950Y0196358D03*
X0347950Y0196258D03*
X0347950Y0196158D03*
X0347950Y0196058D03*
X0347950Y0195958D03*
X0347950Y0195858D03*
X0347950Y0195758D03*
X0347950Y0195658D03*
X0347950Y0195558D03*
X0347950Y0195458D03*
X0347950Y0195358D03*
X0347950Y0195258D03*
X0347950Y0195158D03*
X0347950Y0195058D03*
X0347950Y0194958D03*
X0347950Y0194858D03*
X0347950Y0194758D03*
X0347950Y0194658D03*
X0347950Y0194558D03*
X0347950Y0194458D03*
X0347950Y0194358D03*
X0347950Y0194258D03*
X0347950Y0194158D03*
X0347950Y0194058D03*
X0347950Y0193958D03*
X0347950Y0193858D03*
X0347950Y0193758D03*
X0347950Y0193658D03*
X0347950Y0193558D03*
X0347950Y0193458D03*
X0347950Y0193358D03*
X0347950Y0193258D03*
X0347950Y0193158D03*
X0347950Y0193058D03*
X0347950Y0192958D03*
X0347950Y0192858D03*
X0347950Y0192758D03*
X0347950Y0192658D03*
X0347950Y0192558D03*
X0347950Y0192458D03*
X0347950Y0192358D03*
X0347950Y0192258D03*
X0347950Y0192158D03*
X0347950Y0192058D03*
X0347950Y0191958D03*
X0347950Y0191858D03*
X0347950Y0191758D03*
X0347950Y0191658D03*
X0347950Y0191558D03*
X0347950Y0191458D03*
X0347950Y0191358D03*
X0347950Y0191258D03*
X0347950Y0191158D03*
X0347950Y0191058D03*
X0347950Y0190958D03*
X0347950Y0190858D03*
X0347950Y0190758D03*
X0347950Y0190658D03*
X0347950Y0190558D03*
X0347950Y0190458D03*
X0347950Y0190358D03*
X0347950Y0190258D03*
X0347950Y0190158D03*
X0347950Y0190058D03*
X0347950Y0189958D03*
X0347950Y0189858D03*
X0347950Y0189758D03*
X0347950Y0189658D03*
X0347950Y0189558D03*
X0347950Y0189458D03*
X0347950Y0189358D03*
X0347950Y0189258D03*
X0347950Y0199158D03*
X0347950Y0199258D03*
X0347950Y0199358D03*
X0347950Y0199458D03*
X0347950Y0199558D03*
X0347950Y0199658D03*
X0347950Y0199758D03*
X0347950Y0199858D03*
X0347950Y0199958D03*
X0347950Y0200058D03*
X0347950Y0200158D03*
X0347950Y0200258D03*
X0347950Y0200358D03*
X0347950Y0200458D03*
X0347950Y0200558D03*
X0347950Y0200658D03*
X0347950Y0200758D03*
X0347950Y0200858D03*
X0347950Y0200958D03*
X0347950Y0201058D03*
X0347950Y0201158D03*
X0347950Y0201258D03*
X0347950Y0201358D03*
X0347950Y0201458D03*
X0347950Y0201558D03*
X0347950Y0201658D03*
X0347950Y0201758D03*
X0347950Y0201858D03*
X0347950Y0201958D03*
X0347950Y0202058D03*
X0347950Y0202158D03*
X0347950Y0202258D03*
X0347950Y0202358D03*
X0347950Y0202458D03*
X0347950Y0202558D03*
X0347950Y0202658D03*
X0347950Y0202758D03*
X0347950Y0202858D03*
X0347950Y0202958D03*
X0347950Y0203058D03*
X0347950Y0203158D03*
X0347950Y0203258D03*
X0347950Y0203358D03*
X0347950Y0203458D03*
X0347950Y0203558D03*
X0347950Y0203658D03*
X0347950Y0203758D03*
X0347950Y0203858D03*
X0347950Y0203958D03*
X0347950Y0204058D03*
X0347950Y0204158D03*
X0347950Y0204258D03*
X0347950Y0204358D03*
X0347950Y0204458D03*
X0347950Y0204558D03*
X0347950Y0204658D03*
X0347950Y0204758D03*
X0347950Y0204858D03*
X0347950Y0204958D03*
X0347950Y0205058D03*
X0347950Y0205158D03*
X0347950Y0205258D03*
X0347950Y0205358D03*
X0347950Y0205458D03*
X0347950Y0205558D03*
X0347950Y0205658D03*
X0347950Y0205758D03*
X0347950Y0205858D03*
X0347950Y0205958D03*
X0347950Y0206058D03*
X0347950Y0206158D03*
X0347950Y0206258D03*
X0347950Y0206358D03*
X0347950Y0206458D03*
X0347950Y0206558D03*
X0347950Y0206658D03*
X0347950Y0206758D03*
X0347950Y0206858D03*
X0347950Y0206958D03*
X0347950Y0207058D03*
X0347950Y0207158D03*
X0347950Y0207258D03*
X0347950Y0207358D03*
X0347950Y0207458D03*
X0347950Y0207558D03*
X0347950Y0207658D03*
X0347950Y0207758D03*
X0347950Y0207858D03*
X0347950Y0207958D03*
X0347950Y0208058D03*
X0347950Y0208158D03*
X0369750Y0194658D03*
X0375850Y0201058D03*
X0375850Y0201158D03*
X0375850Y0201258D03*
D121*
X0375850Y0198758D03*
X0375850Y0198658D03*
X0375850Y0198558D03*
X0375850Y0198458D03*
X0371550Y0189658D03*
X0371550Y0189558D03*
X0371550Y0189458D03*
X0380150Y0189458D03*
X0380150Y0189358D03*
X0380150Y0189558D03*
X0380150Y0189658D03*
X0361650Y0200458D03*
X0355450Y0200458D03*
X0341350Y0200458D03*
X0334450Y0200458D03*
X0341750Y0194058D03*
X0327150Y0192158D03*
X0305450Y0191958D03*
X0313050Y0207758D03*
X0313050Y0207858D03*
X0297850Y0207858D03*
X0297850Y0207958D03*
X0297850Y0208058D03*
X0267150Y0206358D03*
X0266650Y0205858D03*
X0264750Y0203058D03*
X0264650Y0202858D03*
X0264450Y0202358D03*
X0264250Y0202258D03*
X0257350Y0191958D03*
X0257450Y0191858D03*
X0358550Y0189258D03*
D122*
X0375900Y0202658D03*
X0375900Y0202758D03*
X0305500Y0189458D03*
X0305500Y0189358D03*
X0278400Y0193658D03*
X0278300Y0193558D03*
X0266000Y0194658D03*
X0265700Y0194158D03*
X0265400Y0191858D03*
X0262800Y0198458D03*
X0262800Y0198658D03*
X0273100Y0202358D03*
X0273400Y0202958D03*
X0273400Y0203058D03*
X0279400Y0201258D03*
D123*
X0283750Y0206758D03*
X0298750Y0203258D03*
X0298750Y0203158D03*
X0298750Y0203058D03*
X0305450Y0194358D03*
X0312150Y0202958D03*
X0312150Y0203058D03*
X0323550Y0202558D03*
X0321750Y0190158D03*
X0337650Y0189358D03*
X0358550Y0189658D03*
X0371450Y0193458D03*
X0371450Y0193558D03*
X0371450Y0193658D03*
X0380250Y0193658D03*
X0380250Y0193558D03*
X0380250Y0193458D03*
X0272850Y0191158D03*
X0259450Y0189658D03*
X0259350Y0189758D03*
X0259250Y0189858D03*
X0257650Y0193558D03*
X0257650Y0193758D03*
X0259050Y0207358D03*
X0259150Y0207458D03*
X0271250Y0216458D03*
D124*
X0267400Y0206658D03*
X0267000Y0206258D03*
X0266900Y0206158D03*
X0264400Y0202458D03*
X0264300Y0202058D03*
X0264100Y0201958D03*
X0272600Y0192358D03*
X0272600Y0192158D03*
X0257900Y0190758D03*
X0297800Y0208158D03*
X0313100Y0208158D03*
X0313100Y0208058D03*
X0313100Y0207958D03*
X0334100Y0198258D03*
X0333900Y0191958D03*
X0319800Y0192058D03*
X0305500Y0191858D03*
X0305500Y0191758D03*
X0355200Y0191958D03*
X0371500Y0189358D03*
D125*
X0380250Y0194358D03*
X0358550Y0189758D03*
X0337950Y0202558D03*
X0325950Y0197258D03*
X0323550Y0202458D03*
X0311950Y0201958D03*
X0311950Y0201858D03*
X0305450Y0194858D03*
X0298950Y0201958D03*
X0298950Y0202058D03*
X0298950Y0202158D03*
X0283750Y0206358D03*
X0259750Y0208158D03*
X0257750Y0194158D03*
X0259650Y0189558D03*
X0272850Y0191058D03*
X0321750Y0190358D03*
D126*
X0321750Y0189558D03*
X0334050Y0191858D03*
X0326750Y0200058D03*
X0323450Y0202858D03*
X0312950Y0207158D03*
X0312950Y0207258D03*
X0312950Y0207358D03*
X0297950Y0207358D03*
X0297950Y0207458D03*
X0305450Y0192258D03*
X0305450Y0192158D03*
X0272650Y0191958D03*
X0272550Y0192058D03*
X0257450Y0192058D03*
X0257350Y0192158D03*
X0265050Y0203558D03*
X0265150Y0203758D03*
X0265250Y0203858D03*
X0265250Y0203958D03*
X0265350Y0204058D03*
X0265550Y0204358D03*
X0265750Y0204658D03*
X0265950Y0204958D03*
X0266050Y0205058D03*
X0266150Y0205258D03*
X0266250Y0205358D03*
X0266650Y0205758D03*
X0266650Y0205958D03*
X0355350Y0191858D03*
X0361750Y0191858D03*
X0371550Y0190058D03*
X0371550Y0189958D03*
X0371550Y0189858D03*
X0380150Y0189858D03*
X0380150Y0189958D03*
X0380150Y0190058D03*
X0375850Y0197958D03*
X0375850Y0198058D03*
X0375850Y0198158D03*
X0375850Y0198258D03*
X0358550Y0202758D03*
D127*
X0375900Y0202258D03*
X0375900Y0202158D03*
X0309700Y0201058D03*
X0309600Y0200758D03*
X0309500Y0200458D03*
X0309300Y0199958D03*
X0309200Y0199658D03*
X0309100Y0199458D03*
X0309000Y0199158D03*
X0308900Y0198858D03*
X0308700Y0198358D03*
X0308600Y0198058D03*
X0308500Y0197858D03*
X0308400Y0197558D03*
X0308300Y0197258D03*
X0308200Y0197058D03*
X0308100Y0196758D03*
X0308000Y0196458D03*
X0307900Y0196258D03*
X0307800Y0195958D03*
X0307700Y0195658D03*
X0307600Y0195458D03*
X0307500Y0195158D03*
X0303500Y0195058D03*
X0303400Y0195258D03*
X0303300Y0195558D03*
X0303200Y0195858D03*
X0303100Y0196058D03*
X0303000Y0196358D03*
X0302900Y0196658D03*
X0302800Y0196858D03*
X0302700Y0197158D03*
X0302600Y0197458D03*
X0302500Y0197658D03*
X0302400Y0197958D03*
X0302300Y0198258D03*
X0302200Y0198458D03*
X0302100Y0198758D03*
X0302000Y0199058D03*
X0301900Y0199258D03*
X0301800Y0199558D03*
X0301700Y0199858D03*
X0301500Y0200358D03*
X0301400Y0200658D03*
X0301200Y0201158D03*
X0305500Y0189658D03*
X0278400Y0193858D03*
X0278300Y0193758D03*
X0272700Y0193458D03*
X0265800Y0194258D03*
X0265600Y0193958D03*
X0265500Y0193758D03*
X0265200Y0192258D03*
X0265100Y0192058D03*
X0262900Y0198758D03*
X0262900Y0198958D03*
X0273400Y0203158D03*
X0279500Y0200958D03*
X0279400Y0200658D03*
X0279400Y0200558D03*
X0274600Y0207558D03*
D128*
X0281100Y0209658D03*
X0261400Y0209658D03*
X0323600Y0202058D03*
X0336400Y0197158D03*
X0337700Y0189758D03*
D129*
X0341400Y0191858D03*
X0341600Y0194158D03*
X0334200Y0198158D03*
X0320300Y0194958D03*
X0305500Y0192058D03*
X0313000Y0207458D03*
X0313000Y0207558D03*
X0313000Y0207658D03*
X0297900Y0207658D03*
X0297900Y0207558D03*
X0297900Y0207758D03*
X0266500Y0205658D03*
X0266400Y0205558D03*
X0264900Y0203358D03*
X0264800Y0203158D03*
X0264500Y0202758D03*
X0264600Y0202658D03*
X0264400Y0202558D03*
X0258000Y0190658D03*
X0371500Y0189758D03*
X0380200Y0189758D03*
X0375900Y0198358D03*
D130*
X0279400Y0204158D03*
X0278800Y0208758D03*
X0268500Y0200158D03*
X0268400Y0200258D03*
X0271000Y0197858D03*
X0274000Y0197458D03*
X0274100Y0197258D03*
X0273900Y0196958D03*
X0278800Y0190758D03*
X0266600Y0189858D03*
X0266300Y0190058D03*
X0262000Y0195458D03*
D131*
X0257550Y0193158D03*
X0257550Y0192958D03*
X0257850Y0205358D03*
X0258050Y0205858D03*
X0283850Y0207158D03*
X0284650Y0205358D03*
X0298450Y0204858D03*
X0298450Y0204758D03*
X0298450Y0204658D03*
X0312450Y0204658D03*
X0312450Y0204558D03*
X0305450Y0193558D03*
X0321750Y0189858D03*
X0340950Y0194558D03*
X0337950Y0202758D03*
X0358550Y0202558D03*
X0371450Y0192258D03*
X0284450Y0191758D03*
X0284350Y0191458D03*
X0284250Y0191258D03*
X0284150Y0191158D03*
D132*
X0280700Y0209958D03*
X0261800Y0209958D03*
X0337700Y0189858D03*
D133*
X0337900Y0202658D03*
X0358500Y0202458D03*
X0371500Y0193358D03*
X0371500Y0193258D03*
X0380200Y0193258D03*
X0380200Y0193358D03*
X0312200Y0203158D03*
X0312200Y0203258D03*
X0312200Y0203358D03*
X0298700Y0203358D03*
X0298700Y0203458D03*
X0283800Y0206658D03*
X0305500Y0194258D03*
X0305500Y0194158D03*
X0259200Y0189958D03*
X0259100Y0190058D03*
X0257600Y0193658D03*
X0258900Y0207158D03*
X0259000Y0207258D03*
D134*
X0258550Y0206658D03*
X0258350Y0206358D03*
X0258250Y0206058D03*
X0257550Y0193358D03*
X0258750Y0190558D03*
X0284050Y0190958D03*
X0305450Y0193758D03*
X0305450Y0193858D03*
X0321750Y0189958D03*
X0312350Y0203958D03*
X0312350Y0204058D03*
X0312350Y0204158D03*
X0298550Y0204158D03*
X0298550Y0204258D03*
X0284450Y0205558D03*
X0283850Y0206958D03*
X0371450Y0192758D03*
X0371450Y0192658D03*
X0380250Y0192658D03*
D135*
X0358500Y0189958D03*
X0339900Y0194958D03*
X0281800Y0209158D03*
X0272700Y0190158D03*
X0272600Y0190058D03*
D136*
X0259050Y0190158D03*
X0258950Y0190258D03*
X0258550Y0206458D03*
X0258550Y0206558D03*
X0258750Y0206958D03*
X0258850Y0207058D03*
X0284350Y0205758D03*
X0298650Y0203758D03*
X0298650Y0203658D03*
X0298650Y0203558D03*
X0312250Y0203558D03*
X0312250Y0203458D03*
X0312250Y0203658D03*
X0305450Y0194058D03*
X0321750Y0190058D03*
X0340650Y0194658D03*
X0371450Y0193158D03*
X0371450Y0193058D03*
X0380250Y0193058D03*
X0380250Y0193158D03*
D137*
X0337900Y0196158D03*
X0337700Y0190058D03*
X0323600Y0201658D03*
D138*
X0279500Y0203758D03*
X0279400Y0203958D03*
X0268400Y0199858D03*
X0268300Y0199758D03*
X0268100Y0199458D03*
X0268000Y0199258D03*
X0271000Y0198058D03*
X0271100Y0197958D03*
X0271200Y0198258D03*
X0271200Y0198358D03*
X0270900Y0197658D03*
X0273800Y0196658D03*
X0266300Y0190158D03*
X0266100Y0190258D03*
X0262100Y0195958D03*
X0271300Y0210858D03*
D139*
X0280000Y0210358D03*
X0323600Y0201558D03*
X0337700Y0190158D03*
D140*
X0341500Y0194258D03*
X0334300Y0198058D03*
X0312900Y0206958D03*
X0312900Y0207058D03*
X0298000Y0207058D03*
X0298000Y0207158D03*
X0298000Y0207258D03*
X0286200Y0200758D03*
X0286200Y0200658D03*
X0286300Y0200058D03*
X0286300Y0199958D03*
X0286300Y0199858D03*
X0286300Y0199758D03*
X0286300Y0199658D03*
X0286300Y0199558D03*
X0286300Y0199458D03*
X0286300Y0199358D03*
X0286300Y0199258D03*
X0286300Y0199158D03*
X0286300Y0199058D03*
X0286300Y0198458D03*
X0286300Y0198358D03*
X0286300Y0198258D03*
X0286300Y0198158D03*
X0286300Y0198058D03*
X0286300Y0197958D03*
X0286300Y0197858D03*
X0286300Y0197758D03*
X0286300Y0197658D03*
X0286300Y0197558D03*
X0286300Y0197458D03*
X0286300Y0197358D03*
X0286200Y0196958D03*
X0286200Y0196858D03*
X0286200Y0196758D03*
X0286100Y0196158D03*
X0305500Y0192358D03*
X0266400Y0205458D03*
X0265200Y0203658D03*
X0264900Y0203458D03*
X0264800Y0202958D03*
X0256300Y0200658D03*
X0256300Y0200558D03*
X0256200Y0199958D03*
X0256200Y0199858D03*
X0256200Y0199758D03*
X0256200Y0199658D03*
X0256200Y0199558D03*
X0256200Y0199458D03*
X0256200Y0199358D03*
X0256200Y0199258D03*
X0256200Y0199158D03*
X0256200Y0199058D03*
X0256200Y0198958D03*
X0256200Y0198858D03*
X0256200Y0198758D03*
X0256200Y0198658D03*
X0256200Y0198558D03*
X0256200Y0198458D03*
X0256200Y0198358D03*
X0256200Y0198258D03*
X0256200Y0198158D03*
X0256200Y0198058D03*
X0256200Y0197958D03*
X0256200Y0197858D03*
X0256200Y0197758D03*
X0256200Y0197658D03*
X0256200Y0197558D03*
X0256200Y0197458D03*
X0256300Y0197058D03*
X0256300Y0196958D03*
X0256300Y0196858D03*
X0256400Y0196258D03*
X0257400Y0192258D03*
X0371500Y0190358D03*
X0371500Y0190258D03*
X0371500Y0190158D03*
X0380200Y0190158D03*
X0380200Y0190258D03*
D141*
X0279500Y0203558D03*
X0271400Y0198758D03*
X0271200Y0198458D03*
X0273800Y0196558D03*
X0273600Y0196258D03*
X0268200Y0199658D03*
X0262200Y0196058D03*
X0265900Y0190458D03*
X0266100Y0190358D03*
D142*
X0261000Y0190758D03*
X0261300Y0194258D03*
X0261400Y0194358D03*
X0261600Y0194658D03*
X0261700Y0194858D03*
X0261900Y0195058D03*
X0270100Y0195958D03*
X0270300Y0196258D03*
X0270400Y0196558D03*
X0268900Y0201258D03*
X0279400Y0204758D03*
X0279600Y0204958D03*
X0280000Y0205658D03*
X0273200Y0210658D03*
X0269300Y0210658D03*
X0278000Y0192558D03*
X0277700Y0190358D03*
D143*
X0279550Y0210558D03*
X0262950Y0210558D03*
X0323650Y0201258D03*
X0337750Y0190358D03*
X0358550Y0190958D03*
X0358550Y0201158D03*
D144*
X0279550Y0203658D03*
X0278850Y0208858D03*
X0271550Y0199058D03*
X0271450Y0198858D03*
X0271450Y0198658D03*
X0273750Y0196458D03*
X0273550Y0196158D03*
X0267750Y0198658D03*
X0267950Y0198958D03*
X0267850Y0199058D03*
X0268050Y0199358D03*
X0262150Y0196258D03*
X0262050Y0196158D03*
X0265850Y0190558D03*
D145*
X0278050Y0190558D03*
X0271250Y0214258D03*
D146*
X0283300Y0208658D03*
X0283400Y0208458D03*
X0285800Y0202658D03*
X0285800Y0202558D03*
X0285900Y0202358D03*
X0285900Y0202258D03*
X0286000Y0201958D03*
X0286100Y0200958D03*
X0286100Y0200858D03*
X0286200Y0200358D03*
X0286200Y0200258D03*
X0286200Y0200158D03*
X0286200Y0197258D03*
X0286200Y0197158D03*
X0286100Y0196658D03*
X0286100Y0196558D03*
X0286100Y0196458D03*
X0286000Y0196058D03*
X0286000Y0195558D03*
X0285900Y0195158D03*
X0285800Y0194858D03*
X0285800Y0194758D03*
X0285700Y0194558D03*
X0298100Y0206558D03*
X0298100Y0206658D03*
X0312800Y0206558D03*
X0312800Y0206458D03*
X0312800Y0206358D03*
X0305500Y0192658D03*
X0305500Y0192558D03*
X0334500Y0197958D03*
X0337900Y0202858D03*
X0371500Y0190758D03*
X0371500Y0190658D03*
X0371500Y0190558D03*
X0380200Y0190658D03*
X0380200Y0190758D03*
X0266100Y0205158D03*
X0264900Y0203258D03*
X0256700Y0202658D03*
X0256700Y0202558D03*
X0256600Y0202358D03*
X0256600Y0202258D03*
X0256500Y0201958D03*
X0256500Y0201858D03*
X0256400Y0200858D03*
X0256400Y0200758D03*
X0256300Y0200258D03*
X0256300Y0200158D03*
X0256300Y0200058D03*
X0256300Y0197358D03*
X0256300Y0197258D03*
X0256400Y0196758D03*
X0256400Y0196658D03*
X0256400Y0196558D03*
X0256500Y0196158D03*
X0256600Y0195258D03*
X0256600Y0195158D03*
X0256700Y0194958D03*
X0256700Y0194858D03*
X0256800Y0194658D03*
X0257400Y0192458D03*
X0257500Y0192358D03*
D147*
X0262200Y0196458D03*
X0267600Y0198358D03*
X0267700Y0198758D03*
X0267900Y0198858D03*
X0271600Y0199158D03*
X0273500Y0195958D03*
X0265800Y0190658D03*
X0279500Y0203358D03*
D148*
X0279000Y0210758D03*
X0263500Y0210758D03*
X0323600Y0200758D03*
X0324100Y0195958D03*
X0337700Y0190658D03*
X0337900Y0201258D03*
X0358500Y0191358D03*
D149*
X0279450Y0204258D03*
X0279450Y0204558D03*
X0270250Y0209058D03*
X0270150Y0210758D03*
X0272350Y0210758D03*
X0268850Y0200958D03*
X0268650Y0200858D03*
X0268550Y0200458D03*
X0270750Y0197358D03*
X0270650Y0197158D03*
X0270650Y0196958D03*
X0270450Y0196858D03*
X0274150Y0197558D03*
X0261850Y0190758D03*
D150*
X0265750Y0190758D03*
X0262250Y0196358D03*
X0267550Y0198258D03*
X0267750Y0198558D03*
X0271750Y0199458D03*
X0273450Y0196058D03*
X0273450Y0195858D03*
X0271250Y0208958D03*
D151*
X0271300Y0208758D03*
X0274200Y0204858D03*
X0279300Y0199558D03*
X0279200Y0199258D03*
X0279200Y0198758D03*
X0279200Y0198658D03*
X0278600Y0195358D03*
X0278600Y0195258D03*
X0278600Y0195158D03*
X0278500Y0194658D03*
X0272700Y0192858D03*
X0272600Y0192758D03*
X0305500Y0190758D03*
X0319300Y0192558D03*
X0319500Y0194358D03*
X0319600Y0194458D03*
X0327500Y0199458D03*
X0327500Y0199558D03*
X0333600Y0199558D03*
X0333600Y0199458D03*
X0333600Y0199358D03*
X0333600Y0199258D03*
X0333600Y0199158D03*
X0333700Y0199658D03*
X0333700Y0199758D03*
X0333800Y0199958D03*
X0342100Y0199758D03*
X0333300Y0192758D03*
X0333300Y0192658D03*
X0333200Y0192858D03*
X0353800Y0195058D03*
X0353800Y0195158D03*
X0353800Y0195258D03*
X0353900Y0194558D03*
X0353900Y0194458D03*
X0353900Y0194358D03*
X0354000Y0194058D03*
X0354000Y0193958D03*
X0354000Y0193658D03*
X0354100Y0193358D03*
X0354200Y0193158D03*
X0354300Y0192958D03*
X0353800Y0196358D03*
X0353800Y0196458D03*
X0353800Y0197058D03*
X0353800Y0197158D03*
X0353800Y0197258D03*
X0353900Y0197558D03*
X0353900Y0197658D03*
X0353900Y0197758D03*
X0353900Y0197858D03*
X0353900Y0197958D03*
X0354000Y0198258D03*
X0354000Y0198358D03*
X0354100Y0198558D03*
X0354100Y0198658D03*
X0354200Y0198858D03*
X0354300Y0199058D03*
X0354400Y0199458D03*
X0354600Y0199758D03*
X0362600Y0199558D03*
X0362700Y0199458D03*
X0362800Y0199258D03*
X0362800Y0199058D03*
X0363000Y0198558D03*
X0363100Y0198258D03*
X0363100Y0198158D03*
X0363100Y0198058D03*
X0363200Y0197758D03*
X0363200Y0197458D03*
X0363300Y0197358D03*
X0363300Y0197258D03*
X0363300Y0197158D03*
X0363300Y0197058D03*
X0363300Y0196958D03*
X0363300Y0196858D03*
X0363300Y0196758D03*
X0363300Y0196658D03*
X0363300Y0195658D03*
X0363300Y0195558D03*
X0363300Y0195458D03*
X0363300Y0195358D03*
X0363300Y0195258D03*
X0363300Y0195158D03*
X0363300Y0195058D03*
X0363300Y0194958D03*
X0363200Y0194558D03*
X0363200Y0194458D03*
X0363100Y0194058D03*
X0363000Y0193358D03*
X0362900Y0193158D03*
X0375900Y0200558D03*
D152*
X0323850Y0190858D03*
X0323850Y0190758D03*
X0323750Y0190958D03*
X0323750Y0191058D03*
D153*
X0324650Y0196558D03*
X0358550Y0201358D03*
X0358550Y0190758D03*
D154*
X0358550Y0203158D03*
X0278550Y0192858D03*
X0273450Y0195558D03*
X0267350Y0197658D03*
X0267150Y0197558D03*
X0272050Y0199958D03*
X0272150Y0200258D03*
X0272150Y0200358D03*
X0265750Y0190858D03*
D155*
X0278550Y0194858D03*
X0278650Y0195558D03*
X0279150Y0198258D03*
X0279150Y0198358D03*
X0279150Y0198458D03*
X0279150Y0198858D03*
X0274350Y0205158D03*
X0274550Y0205458D03*
X0274950Y0207058D03*
X0268350Y0207558D03*
X0268150Y0207458D03*
X0268050Y0207358D03*
X0263550Y0200658D03*
X0263350Y0200358D03*
X0263250Y0200158D03*
X0305450Y0190858D03*
X0319350Y0192458D03*
X0319450Y0192358D03*
X0319650Y0194558D03*
X0319950Y0199858D03*
X0327350Y0199658D03*
X0333650Y0199058D03*
X0333650Y0198958D03*
X0333750Y0199858D03*
X0333850Y0200058D03*
X0342050Y0199858D03*
X0342150Y0193058D03*
X0342150Y0192958D03*
X0342150Y0192858D03*
X0342150Y0192758D03*
X0342150Y0192658D03*
X0333350Y0192558D03*
X0327550Y0192458D03*
X0353850Y0194658D03*
X0353850Y0194758D03*
X0353950Y0194158D03*
X0354150Y0193458D03*
X0354250Y0193258D03*
X0354350Y0192858D03*
X0353750Y0195858D03*
X0353750Y0195958D03*
X0353750Y0196058D03*
X0353750Y0196158D03*
X0353750Y0196258D03*
X0354350Y0199258D03*
X0354550Y0199558D03*
X0354650Y0199858D03*
X0362650Y0199358D03*
X0362850Y0198958D03*
X0363250Y0194858D03*
X0363150Y0194258D03*
X0363150Y0194158D03*
X0363050Y0193758D03*
X0362950Y0193458D03*
X0362850Y0193258D03*
X0362750Y0193058D03*
X0362750Y0192858D03*
X0362650Y0192758D03*
X0375850Y0200158D03*
X0375850Y0200258D03*
X0375850Y0200358D03*
X0375850Y0200458D03*
D156*
X0358550Y0200558D03*
X0358550Y0191558D03*
X0337750Y0190858D03*
X0323950Y0195658D03*
X0323650Y0200358D03*
X0323650Y0200458D03*
X0337950Y0201058D03*
X0271250Y0215858D03*
D157*
X0267700Y0206958D03*
X0267400Y0206758D03*
X0274700Y0205958D03*
X0274800Y0206158D03*
X0275100Y0206558D03*
X0275100Y0206758D03*
X0264100Y0201858D03*
X0264000Y0201458D03*
X0263800Y0201358D03*
X0272600Y0192258D03*
X0257700Y0190958D03*
X0257600Y0191058D03*
X0257500Y0191258D03*
X0257400Y0191458D03*
X0257400Y0191558D03*
X0305500Y0191558D03*
X0320100Y0194858D03*
X0327300Y0192258D03*
X0334200Y0200358D03*
X0341900Y0193858D03*
X0355000Y0192058D03*
X0362100Y0192058D03*
X0361900Y0200358D03*
X0355200Y0200358D03*
X0355100Y0200158D03*
D158*
X0354600Y0199658D03*
X0362300Y0199958D03*
X0362400Y0199758D03*
X0362500Y0199658D03*
X0362700Y0192958D03*
X0354600Y0192458D03*
X0354500Y0192558D03*
X0354500Y0192758D03*
X0354300Y0193058D03*
X0342200Y0193158D03*
X0342200Y0193258D03*
X0342200Y0193358D03*
X0342100Y0193458D03*
X0342100Y0193558D03*
X0342100Y0192558D03*
X0342000Y0192458D03*
X0342000Y0192358D03*
X0333500Y0192358D03*
X0333400Y0192458D03*
X0333700Y0198758D03*
X0333700Y0198858D03*
X0327300Y0199758D03*
X0341900Y0200058D03*
X0342000Y0199958D03*
X0305500Y0191058D03*
X0305500Y0190958D03*
X0278700Y0195458D03*
X0278800Y0196158D03*
X0278800Y0196258D03*
X0278800Y0196358D03*
X0278900Y0196858D03*
X0279000Y0197458D03*
X0279000Y0197558D03*
X0279100Y0198058D03*
X0279100Y0198558D03*
X0272700Y0192658D03*
X0272600Y0192558D03*
X0263400Y0200258D03*
X0263400Y0200458D03*
X0263600Y0200558D03*
X0263600Y0200758D03*
X0263700Y0200958D03*
X0274400Y0205258D03*
X0274600Y0205358D03*
X0274600Y0205558D03*
X0274700Y0205758D03*
X0375900Y0200058D03*
D159*
X0375800Y0197058D03*
X0371500Y0191258D03*
X0371500Y0191158D03*
X0371500Y0191058D03*
X0371500Y0190958D03*
X0380200Y0190958D03*
X0380200Y0191058D03*
X0380200Y0191158D03*
X0380200Y0191258D03*
X0312700Y0205858D03*
X0312700Y0205958D03*
X0312700Y0206058D03*
X0298200Y0206058D03*
X0298200Y0205958D03*
X0298200Y0206158D03*
X0285600Y0203358D03*
X0285600Y0203058D03*
X0285700Y0202758D03*
X0285800Y0202458D03*
X0285500Y0203658D03*
X0285400Y0203858D03*
X0283700Y0207858D03*
X0283700Y0207958D03*
X0283300Y0208558D03*
X0285700Y0194658D03*
X0285600Y0194458D03*
X0285600Y0194358D03*
X0285500Y0194158D03*
X0285500Y0193858D03*
X0285400Y0193558D03*
X0285300Y0193358D03*
X0285200Y0193158D03*
X0305500Y0192858D03*
X0256900Y0194458D03*
X0256800Y0194758D03*
X0256700Y0202458D03*
X0256800Y0202758D03*
X0256900Y0202958D03*
X0257000Y0203558D03*
X0257000Y0203658D03*
X0257100Y0203858D03*
X0257200Y0204058D03*
D160*
X0263900Y0210858D03*
X0278600Y0210858D03*
X0323800Y0195358D03*
X0337700Y0191058D03*
X0337900Y0200858D03*
D161*
X0324350Y0196258D03*
X0358550Y0201058D03*
X0358550Y0191058D03*
D162*
X0337700Y0191458D03*
X0323700Y0191258D03*
X0323700Y0191158D03*
X0323600Y0191558D03*
D163*
X0324250Y0196158D03*
X0323650Y0200958D03*
X0358550Y0200858D03*
X0358550Y0191158D03*
X0271250Y0215958D03*
D164*
X0271300Y0216658D03*
X0268000Y0207258D03*
X0267700Y0207058D03*
X0274900Y0206958D03*
X0263800Y0201258D03*
X0278900Y0197358D03*
X0278900Y0197258D03*
X0279000Y0197058D03*
X0279000Y0196958D03*
X0278800Y0196758D03*
X0278900Y0196558D03*
X0278900Y0196458D03*
X0278700Y0195758D03*
X0278700Y0195658D03*
X0279100Y0197658D03*
X0272600Y0192458D03*
X0305500Y0191258D03*
X0319900Y0194758D03*
X0327200Y0199858D03*
X0323500Y0202958D03*
X0333800Y0198558D03*
X0341700Y0200258D03*
X0342000Y0193758D03*
X0341800Y0192158D03*
X0354800Y0192258D03*
X0362300Y0192258D03*
X0362400Y0192458D03*
X0362000Y0200258D03*
X0375900Y0199658D03*
D165*
X0358550Y0200758D03*
X0358550Y0191258D03*
D166*
X0337750Y0191558D03*
X0323650Y0191458D03*
X0323650Y0191358D03*
X0323550Y0191658D03*
X0323550Y0191758D03*
X0323550Y0191858D03*
D167*
X0337700Y0191358D03*
X0337900Y0200558D03*
D168*
X0334700Y0197858D03*
X0312600Y0205358D03*
X0312600Y0205458D03*
X0298300Y0205458D03*
X0298300Y0205558D03*
X0298300Y0205658D03*
X0285400Y0203758D03*
X0285300Y0203958D03*
X0285200Y0204158D03*
X0285100Y0204658D03*
X0285000Y0204758D03*
X0285000Y0204858D03*
X0285200Y0193258D03*
X0285100Y0193058D03*
X0285000Y0192658D03*
X0284900Y0192458D03*
X0284800Y0192258D03*
X0272700Y0191558D03*
X0272600Y0191658D03*
X0257500Y0192658D03*
X0257500Y0192858D03*
X0257200Y0203958D03*
X0257300Y0204158D03*
X0257400Y0204558D03*
X0257400Y0204658D03*
X0257500Y0204758D03*
X0257600Y0204958D03*
X0305500Y0193158D03*
X0371500Y0191758D03*
X0371500Y0191658D03*
X0371500Y0191558D03*
X0371500Y0191458D03*
X0371500Y0191358D03*
X0380200Y0191458D03*
X0380200Y0191558D03*
X0380200Y0191658D03*
X0380200Y0191758D03*
D169*
X0380200Y0191858D03*
X0380200Y0191958D03*
X0380200Y0192058D03*
X0380200Y0192158D03*
X0371500Y0192158D03*
X0371500Y0192058D03*
X0371500Y0191958D03*
X0371500Y0191858D03*
X0312500Y0204758D03*
X0312500Y0204858D03*
X0312500Y0204958D03*
X0298400Y0204958D03*
X0298400Y0205058D03*
X0284800Y0205058D03*
X0284800Y0205258D03*
X0284700Y0205458D03*
X0283800Y0207258D03*
X0284600Y0192058D03*
X0284600Y0191858D03*
X0284500Y0191658D03*
X0284400Y0191558D03*
X0272700Y0191458D03*
X0257500Y0193058D03*
X0257600Y0204858D03*
X0257700Y0205058D03*
X0257800Y0205458D03*
X0257900Y0205558D03*
X0258000Y0205758D03*
X0305500Y0193458D03*
X0305500Y0193358D03*
D170*
X0278400Y0193158D03*
X0266600Y0195958D03*
X0266400Y0195758D03*
X0266400Y0195658D03*
X0266700Y0196358D03*
X0265400Y0191558D03*
X0272700Y0201358D03*
X0272600Y0201458D03*
X0272800Y0201758D03*
X0279500Y0201858D03*
X0279500Y0201958D03*
X0279500Y0202358D03*
X0273900Y0208158D03*
D171*
X0271300Y0215658D03*
X0323500Y0191958D03*
X0337700Y0191658D03*
D172*
X0323900Y0195558D03*
X0323600Y0200258D03*
X0337900Y0200958D03*
X0358500Y0191658D03*
D173*
X0334800Y0193458D03*
X0280100Y0205758D03*
X0272300Y0209058D03*
X0271300Y0209158D03*
X0268700Y0200658D03*
X0268500Y0200558D03*
X0268500Y0200358D03*
X0270800Y0197458D03*
X0274100Y0197358D03*
X0274300Y0197658D03*
X0274400Y0197858D03*
X0278800Y0192458D03*
X0262000Y0195558D03*
D174*
X0267950Y0199158D03*
X0271050Y0198158D03*
X0271350Y0198558D03*
X0273750Y0196758D03*
X0273650Y0196358D03*
X0278750Y0192658D03*
X0279550Y0203858D03*
X0320650Y0198758D03*
D175*
X0279500Y0203158D03*
X0279500Y0203458D03*
X0271800Y0199558D03*
X0271600Y0199358D03*
X0271500Y0198958D03*
X0267400Y0197958D03*
X0273400Y0195658D03*
X0278600Y0192758D03*
D176*
X0278550Y0192958D03*
X0273050Y0194658D03*
X0266750Y0196458D03*
X0266750Y0196658D03*
X0266650Y0196258D03*
X0262450Y0197458D03*
X0272550Y0201158D03*
X0273550Y0208358D03*
X0320050Y0198858D03*
X0337950Y0203158D03*
D177*
X0279500Y0202558D03*
X0279500Y0202258D03*
X0279500Y0202158D03*
X0272600Y0201258D03*
X0272400Y0201058D03*
X0272400Y0200958D03*
X0272300Y0200658D03*
X0273200Y0195058D03*
X0273000Y0194758D03*
X0273000Y0194558D03*
X0278400Y0193058D03*
X0266600Y0196158D03*
X0262500Y0197658D03*
X0273700Y0208258D03*
D178*
X0283800Y0206458D03*
X0298800Y0202958D03*
X0298800Y0202858D03*
X0298800Y0202758D03*
X0305500Y0194458D03*
X0312100Y0202658D03*
X0312100Y0202758D03*
X0312100Y0202858D03*
X0335300Y0197658D03*
X0371500Y0193758D03*
X0380200Y0193758D03*
X0380200Y0193858D03*
X0259300Y0207658D03*
X0259200Y0207558D03*
D179*
X0272850Y0201958D03*
X0273150Y0202458D03*
X0279450Y0201458D03*
X0279550Y0201758D03*
X0266050Y0194958D03*
X0262550Y0197858D03*
X0262550Y0198058D03*
X0262650Y0198258D03*
X0272850Y0193958D03*
X0271250Y0216758D03*
D180*
X0323750Y0195258D03*
D181*
X0358550Y0200358D03*
X0278950Y0208658D03*
X0268250Y0199958D03*
X0268150Y0199558D03*
X0273850Y0197058D03*
X0273850Y0196858D03*
X0274050Y0197158D03*
X0262050Y0195858D03*
X0261950Y0195758D03*
D182*
X0262150Y0196558D03*
X0262250Y0196758D03*
X0267350Y0197758D03*
X0267550Y0198058D03*
X0267450Y0198158D03*
X0267650Y0198458D03*
X0271550Y0199258D03*
X0271950Y0199858D03*
X0273350Y0195758D03*
D183*
X0271300Y0216158D03*
X0323600Y0201758D03*
X0324900Y0196758D03*
X0337200Y0196658D03*
X0337500Y0196458D03*
X0338500Y0195758D03*
X0337900Y0201958D03*
D184*
X0337900Y0201558D03*
X0323600Y0201158D03*
X0324400Y0196358D03*
D185*
X0279500Y0202958D03*
X0279500Y0203258D03*
X0272000Y0200058D03*
X0271800Y0199758D03*
X0271900Y0199658D03*
X0267300Y0197858D03*
X0267200Y0197458D03*
X0262300Y0196858D03*
X0262300Y0196658D03*
D186*
X0271250Y0210958D03*
D187*
X0271300Y0211158D03*
D188*
X0271300Y0211258D03*
D189*
X0271300Y0211358D03*
D190*
X0271300Y0211458D03*
D191*
X0271300Y0211558D03*
D192*
X0271300Y0211658D03*
D193*
X0271300Y0211758D03*
D194*
X0271300Y0211858D03*
D195*
X0271300Y0211958D03*
D196*
X0271250Y0212058D03*
D197*
X0271250Y0212158D03*
D198*
X0271250Y0212758D03*
D199*
X0271250Y0213158D03*
D200*
X0271250Y0213458D03*
D201*
X0271250Y0213658D03*
D202*
X0271250Y0213858D03*
D203*
X0271250Y0214058D03*
D204*
X0271300Y0214358D03*
D205*
X0271250Y0214658D03*
D206*
X0271250Y0214758D03*
D207*
X0271300Y0214858D03*
D208*
X0271300Y0214958D03*
D209*
X0271300Y0215058D03*
D210*
X0271250Y0215158D03*
D211*
X0271250Y0215258D03*
D212*
X0271300Y0215458D03*
D213*
X0271250Y0215558D03*
D214*
X0108959Y0191021D02*
X0105022Y0191021D01*
X0105022Y0188068D01*
X0106991Y0189052D01*
X0107975Y0189052D01*
X0108959Y0188068D01*
X0108959Y0186100D01*
X0107975Y0185116D01*
X0106007Y0185116D01*
X0105022Y0186100D01*
X0102514Y0185116D02*
X0098577Y0191021D01*
X0096068Y0191021D02*
X0096068Y0186100D01*
X0095084Y0185116D01*
X0093116Y0185116D01*
X0092131Y0186100D01*
X0092131Y0191021D01*
X0089623Y0189052D02*
X0089623Y0185116D01*
X0089623Y0188068D02*
X0085686Y0188068D01*
X0085686Y0189052D02*
X0087654Y0191021D01*
X0089623Y0189052D01*
X0085686Y0189052D02*
X0085686Y0185116D01*
X0087784Y0181681D02*
X0089752Y0179713D01*
X0089752Y0175776D01*
X0092261Y0176761D02*
X0093245Y0175776D01*
X0095214Y0175776D01*
X0096198Y0176761D01*
X0096198Y0181681D01*
X0098707Y0181681D02*
X0102643Y0175776D01*
X0105152Y0176761D02*
X0106136Y0175776D01*
X0108105Y0175776D01*
X0109089Y0176761D01*
X0109089Y0177745D01*
X0108105Y0178729D01*
X0105152Y0178729D01*
X0105152Y0176761D01*
X0105152Y0178729D02*
X0107120Y0180697D01*
X0109089Y0181681D01*
X0102643Y0181681D02*
X0098707Y0175776D01*
X0092261Y0176761D02*
X0092261Y0181681D01*
X0089752Y0178729D02*
X0085816Y0178729D01*
X0085816Y0179713D02*
X0087784Y0181681D01*
X0085816Y0179713D02*
X0085816Y0175776D01*
X0098577Y0185116D02*
X0102514Y0191021D01*
X0114363Y0087682D02*
X0114363Y0083745D01*
X0114363Y0085714D02*
X0108458Y0085714D01*
X0110427Y0083745D01*
X0108458Y0081236D02*
X0114363Y0077300D01*
X0113379Y0074791D02*
X0108458Y0074791D01*
X0108458Y0077300D02*
X0114363Y0081236D01*
X0118394Y0080233D02*
X0124299Y0076296D01*
X0123315Y0073787D02*
X0118394Y0073787D01*
X0118394Y0076296D02*
X0124299Y0080233D01*
X0124299Y0082741D02*
X0120362Y0086678D01*
X0119378Y0086678D01*
X0118394Y0085694D01*
X0118394Y0083726D01*
X0119378Y0082741D01*
X0124299Y0082741D02*
X0124299Y0086678D01*
X0128906Y0085895D02*
X0128906Y0083926D01*
X0129890Y0082942D01*
X0128906Y0080433D02*
X0134811Y0076497D01*
X0133827Y0073988D02*
X0128906Y0073988D01*
X0128906Y0076497D02*
X0134811Y0080433D01*
X0133827Y0082942D02*
X0134811Y0083926D01*
X0134811Y0085895D01*
X0133827Y0086879D01*
X0132843Y0086879D01*
X0131859Y0085895D01*
X0131859Y0084911D01*
X0131859Y0085895D02*
X0130875Y0086879D01*
X0129890Y0086879D01*
X0128906Y0085895D01*
X0139353Y0085895D02*
X0142306Y0082942D01*
X0142306Y0086879D01*
X0145258Y0085895D02*
X0139353Y0085895D01*
X0139353Y0080433D02*
X0145258Y0076497D01*
X0144274Y0073988D02*
X0139353Y0073988D01*
X0139353Y0076497D02*
X0145258Y0080433D01*
X0144274Y0073988D02*
X0145258Y0073004D01*
X0145258Y0071035D01*
X0144274Y0070051D01*
X0139353Y0070051D01*
X0141322Y0067542D02*
X0145258Y0067542D01*
X0142306Y0067542D02*
X0142306Y0063606D01*
X0141322Y0063606D02*
X0145258Y0063606D01*
X0141322Y0063606D02*
X0139353Y0065574D01*
X0141322Y0067542D01*
X0134811Y0067542D02*
X0130875Y0067542D01*
X0128906Y0065574D01*
X0130875Y0063606D01*
X0134811Y0063606D01*
X0131859Y0063606D02*
X0131859Y0067542D01*
X0133827Y0070051D02*
X0128906Y0070051D01*
X0124299Y0070835D02*
X0124299Y0072803D01*
X0123315Y0073787D01*
X0124299Y0070835D02*
X0123315Y0069850D01*
X0118394Y0069850D01*
X0120362Y0067342D02*
X0124299Y0067342D01*
X0121346Y0067342D02*
X0121346Y0063405D01*
X0120362Y0063405D02*
X0124299Y0063405D01*
X0120362Y0063405D02*
X0118394Y0065373D01*
X0120362Y0067342D01*
X0114363Y0068345D02*
X0110427Y0068345D01*
X0108458Y0066377D01*
X0110427Y0064409D01*
X0114363Y0064409D01*
X0111411Y0064409D02*
X0111411Y0068345D01*
X0113379Y0070854D02*
X0108458Y0070854D01*
X0113379Y0070854D02*
X0114363Y0071838D01*
X0114363Y0073807D01*
X0113379Y0074791D01*
X0133827Y0073988D02*
X0134811Y0073004D01*
X0134811Y0071035D01*
X0133827Y0070051D01*
D215*
X0028782Y0023156D02*
X0028782Y0018156D01*
X0031282Y0015656D01*
X0046282Y0015656D01*
X0048782Y0018156D01*
X0048782Y0023156D01*
X0046282Y0025656D01*
X0031282Y0025656D01*
X0028782Y0028156D01*
X0028782Y0033156D01*
X0031282Y0035656D01*
X0046282Y0035656D01*
X0048782Y0033156D01*
X0048782Y0028156D01*
X0046282Y0025656D01*
X0031282Y0025656D02*
X0028782Y0023156D01*
X0068777Y0023157D02*
X0068777Y0018157D01*
X0071277Y0015657D01*
X0076277Y0015657D01*
X0078777Y0018157D01*
X0081277Y0015657D01*
X0086277Y0015657D01*
X0088777Y0018157D01*
X0088777Y0023157D01*
X0086277Y0025657D01*
X0081277Y0025657D01*
X0078777Y0023157D01*
X0078777Y0018157D01*
X0078777Y0023157D02*
X0076277Y0025657D01*
X0071277Y0025657D01*
X0068777Y0023157D01*
X0088777Y0023157D02*
X0091277Y0025657D01*
X0096277Y0025657D01*
X0098777Y0023157D01*
X0101277Y0025657D01*
X0106277Y0025657D01*
X0108777Y0023157D01*
X0111277Y0025657D01*
X0116277Y0025657D01*
X0118777Y0023157D01*
X0118777Y0018157D01*
X0116277Y0015657D01*
X0111277Y0015657D01*
X0108777Y0018157D01*
X0106277Y0015657D01*
X0101277Y0015657D01*
X0098777Y0018157D01*
X0096277Y0015657D01*
X0091277Y0015657D01*
X0088777Y0018157D01*
X0098777Y0018157D02*
X0098777Y0023157D01*
X0108777Y0023157D02*
X0108777Y0018157D01*
X0118777Y0018157D02*
X0121277Y0015657D01*
X0126277Y0015657D01*
X0128777Y0018157D01*
X0131277Y0015657D01*
X0136277Y0015657D01*
X0138777Y0018157D01*
X0141277Y0015657D01*
X0146277Y0015657D01*
X0148777Y0018157D01*
X0148777Y0023157D01*
X0146277Y0025657D01*
X0141277Y0025657D01*
X0138777Y0023157D01*
X0138777Y0018157D01*
X0138777Y0023157D02*
X0136277Y0025657D01*
X0131277Y0025657D01*
X0128777Y0023157D01*
X0128777Y0018157D01*
X0128777Y0023157D02*
X0126277Y0025657D01*
X0121277Y0025657D01*
X0118777Y0023157D01*
X0158777Y0023157D02*
X0158777Y0018157D01*
X0161277Y0015657D01*
X0166277Y0015657D01*
X0168777Y0018157D01*
X0171277Y0015657D01*
X0176277Y0015657D01*
X0178777Y0018157D01*
X0178777Y0023157D01*
X0176277Y0025657D01*
X0171277Y0025657D01*
X0168777Y0023157D01*
X0168777Y0018157D01*
X0178777Y0018157D02*
X0181277Y0015657D01*
X0186277Y0015657D01*
X0188777Y0018157D01*
X0191277Y0015657D01*
X0196277Y0015657D01*
X0198777Y0018157D01*
X0201277Y0015657D01*
X0206277Y0015657D01*
X0208777Y0018157D01*
X0208777Y0023157D01*
X0206277Y0025657D01*
X0201277Y0025657D01*
X0198777Y0023157D01*
X0198777Y0018157D01*
X0188777Y0018157D02*
X0188777Y0023157D01*
X0191277Y0025657D01*
X0196277Y0025657D01*
X0198777Y0023157D01*
X0188777Y0023157D02*
X0186277Y0025657D01*
X0181277Y0025657D01*
X0178777Y0023157D01*
X0168777Y0023157D02*
X0166277Y0025657D01*
X0161277Y0025657D01*
X0158777Y0023157D01*
X0208777Y0023157D02*
X0211277Y0025657D01*
X0216277Y0025657D01*
X0218777Y0023157D01*
X0221277Y0025657D01*
X0226277Y0025657D01*
X0228777Y0023157D01*
X0231277Y0025657D01*
X0236277Y0025657D01*
X0238777Y0023157D01*
X0238777Y0018157D01*
X0236277Y0015657D01*
X0231277Y0015657D01*
X0228777Y0018157D01*
X0226277Y0015657D01*
X0221277Y0015657D01*
X0218777Y0018157D01*
X0216277Y0015657D01*
X0211277Y0015657D01*
X0208777Y0018157D01*
X0218777Y0018157D02*
X0218777Y0023157D01*
X0228777Y0023157D02*
X0228777Y0018157D01*
X0243777Y0018157D02*
X0246277Y0015657D01*
X0251277Y0015657D01*
X0253777Y0018157D01*
X0256277Y0015657D01*
X0261277Y0015657D01*
X0263777Y0018157D01*
X0263777Y0023157D01*
X0261277Y0025657D01*
X0256277Y0025657D01*
X0253777Y0023157D01*
X0253777Y0018157D01*
X0243777Y0018157D02*
X0243777Y0023157D01*
X0246277Y0025657D01*
X0251277Y0025657D01*
X0253777Y0023157D01*
X0263777Y0023157D02*
X0266277Y0025657D01*
X0271277Y0025657D01*
X0273777Y0023157D01*
X0276277Y0025657D01*
X0281277Y0025657D01*
X0283777Y0023157D01*
X0286277Y0025657D01*
X0291277Y0025657D01*
X0293777Y0023157D01*
X0293777Y0018157D01*
X0291277Y0015657D01*
X0286277Y0015657D01*
X0283777Y0018157D01*
X0281277Y0015657D01*
X0276277Y0015657D01*
X0273777Y0018157D01*
X0271277Y0015657D01*
X0266277Y0015657D01*
X0263777Y0018157D01*
X0273777Y0018157D02*
X0273777Y0023157D01*
X0283777Y0023157D02*
X0283777Y0018157D01*
X0293777Y0018157D02*
X0296277Y0015657D01*
X0301277Y0015657D01*
X0303777Y0018157D01*
X0306277Y0015657D01*
X0311277Y0015657D01*
X0313777Y0018157D01*
X0316277Y0015657D01*
X0321277Y0015657D01*
X0323777Y0018157D01*
X0323777Y0023157D01*
X0321277Y0025657D01*
X0316277Y0025657D01*
X0313777Y0023157D01*
X0313777Y0018157D01*
X0313777Y0023157D02*
X0311277Y0025657D01*
X0306277Y0025657D01*
X0303777Y0023157D01*
X0303777Y0018157D01*
X0303777Y0023157D02*
X0301277Y0025657D01*
X0296277Y0025657D01*
X0293777Y0023157D01*
X0048787Y0178154D02*
X0046287Y0175654D01*
X0031287Y0175654D01*
X0028787Y0178154D01*
X0028787Y0183154D01*
X0031287Y0185654D01*
X0046287Y0185654D01*
X0048787Y0183154D01*
X0048787Y0178154D01*
X0046287Y0185654D02*
X0048787Y0188154D01*
X0048787Y0193154D01*
X0046287Y0195654D01*
X0031287Y0195654D01*
X0028787Y0193154D01*
X0028787Y0188154D01*
X0031287Y0185654D01*
X0138777Y0208157D02*
X0141277Y0205657D01*
X0146277Y0205657D01*
X0148777Y0208157D01*
X0151277Y0205657D01*
X0156277Y0205657D01*
X0158777Y0208157D01*
X0158777Y0213157D01*
X0156277Y0215657D01*
X0151277Y0215657D01*
X0148777Y0213157D01*
X0148777Y0208157D01*
X0148777Y0213157D02*
X0146277Y0215657D01*
X0141277Y0215657D01*
X0138777Y0213157D01*
X0138777Y0208157D01*
X0158777Y0208157D02*
X0161277Y0205657D01*
X0166277Y0205657D01*
X0168777Y0208157D01*
X0171277Y0205657D01*
X0176277Y0205657D01*
X0178777Y0208157D01*
X0181277Y0205657D01*
X0186277Y0205657D01*
X0188777Y0208157D01*
X0188777Y0213157D01*
X0186277Y0215657D01*
X0181277Y0215657D01*
X0178777Y0213157D01*
X0178777Y0208157D01*
X0178777Y0213157D02*
X0176277Y0215657D01*
X0171277Y0215657D01*
X0168777Y0213157D01*
X0168777Y0208157D01*
X0168777Y0213157D02*
X0166277Y0215657D01*
X0161277Y0215657D01*
X0158777Y0213157D01*
X0188777Y0213157D02*
X0191277Y0215657D01*
X0196277Y0215657D01*
X0198777Y0213157D01*
X0201277Y0215657D01*
X0206277Y0215657D01*
X0208777Y0213157D01*
X0211277Y0215657D01*
X0216277Y0215657D01*
X0218777Y0213157D01*
X0218777Y0208157D01*
X0216277Y0205657D01*
X0211277Y0205657D01*
X0208777Y0208157D01*
X0206277Y0205657D01*
X0201277Y0205657D01*
X0198777Y0208157D01*
X0196277Y0205657D01*
X0191277Y0205657D01*
X0188777Y0208157D01*
X0198777Y0208157D02*
X0198777Y0213157D01*
X0208777Y0213157D02*
X0208777Y0208157D01*
D216*
X0291705Y0166660D02*
X0292473Y0166660D01*
X0292473Y0165893D01*
X0291705Y0165893D01*
X0291705Y0166660D01*
X0294007Y0165893D02*
X0297076Y0165893D01*
X0295542Y0165893D02*
X0295542Y0170497D01*
X0294007Y0168962D01*
X0298611Y0168962D02*
X0298611Y0166660D01*
X0299378Y0165893D01*
X0301680Y0165893D01*
X0301680Y0168962D01*
X0303215Y0168195D02*
X0304750Y0168195D01*
X0303215Y0170497D02*
X0306284Y0170497D01*
X0303215Y0170497D02*
X0303215Y0165893D01*
X0126453Y0170710D02*
X0123384Y0170710D01*
X0123384Y0166106D01*
X0121849Y0166106D02*
X0121849Y0169175D01*
X0123384Y0168408D02*
X0124919Y0168408D01*
X0121849Y0166106D02*
X0119547Y0166106D01*
X0118780Y0166873D01*
X0118780Y0169175D01*
X0115711Y0170710D02*
X0115711Y0166106D01*
X0117245Y0166106D02*
X0114176Y0166106D01*
X0112642Y0166106D02*
X0112642Y0166873D01*
X0111874Y0166873D01*
X0111874Y0166106D01*
X0112642Y0166106D01*
X0114176Y0169175D02*
X0115711Y0170710D01*
X0078770Y0207482D02*
X0077236Y0207482D01*
X0076469Y0208249D01*
X0079538Y0211319D01*
X0079538Y0208249D01*
X0078770Y0207482D01*
X0076469Y0208249D02*
X0076469Y0211319D01*
X0077236Y0212086D01*
X0078770Y0212086D01*
X0079538Y0211319D01*
X0074934Y0211319D02*
X0071865Y0208249D01*
X0071865Y0207482D01*
X0070330Y0207482D02*
X0067261Y0207482D01*
X0070330Y0210551D01*
X0070330Y0211319D01*
X0069563Y0212086D01*
X0068028Y0212086D01*
X0067261Y0211319D01*
X0071865Y0212086D02*
X0074934Y0212086D01*
X0074934Y0211319D01*
X0041527Y0207633D02*
X0041454Y0207556D01*
X0041379Y0207481D01*
X0041301Y0207410D01*
X0041220Y0207341D01*
X0041137Y0207275D01*
X0041052Y0207212D01*
X0040964Y0207153D01*
X0040875Y0207096D01*
X0040783Y0207043D01*
X0040689Y0206993D01*
X0040594Y0206947D01*
X0040497Y0206904D01*
X0040399Y0206865D01*
X0040299Y0206829D01*
X0040198Y0206797D01*
X0040096Y0206769D01*
X0039993Y0206744D01*
X0039889Y0206723D01*
X0039784Y0206706D01*
X0039679Y0206692D01*
X0039574Y0206683D01*
X0039468Y0206677D01*
X0039362Y0206675D01*
X0039256Y0206677D01*
X0039150Y0206683D01*
X0039045Y0206692D01*
X0038940Y0206706D01*
X0038835Y0206723D01*
X0038731Y0206744D01*
X0038628Y0206769D01*
X0038526Y0206797D01*
X0038425Y0206829D01*
X0038325Y0206865D01*
X0038227Y0206904D01*
X0038130Y0206947D01*
X0038035Y0206993D01*
X0037941Y0207043D01*
X0037849Y0207096D01*
X0037760Y0207153D01*
X0037672Y0207212D01*
X0037587Y0207275D01*
X0037504Y0207341D01*
X0037423Y0207410D01*
X0037345Y0207481D01*
X0037270Y0207556D01*
X0037197Y0207633D01*
X0037197Y0211569D02*
X0037270Y0211646D01*
X0037345Y0211721D01*
X0037423Y0211792D01*
X0037504Y0211861D01*
X0037587Y0211927D01*
X0037672Y0211990D01*
X0037760Y0212049D01*
X0037849Y0212106D01*
X0037941Y0212159D01*
X0038035Y0212209D01*
X0038130Y0212255D01*
X0038227Y0212298D01*
X0038325Y0212337D01*
X0038425Y0212373D01*
X0038526Y0212405D01*
X0038628Y0212433D01*
X0038731Y0212458D01*
X0038835Y0212479D01*
X0038940Y0212496D01*
X0039045Y0212510D01*
X0039150Y0212519D01*
X0039256Y0212525D01*
X0039362Y0212527D01*
X0039468Y0212525D01*
X0039574Y0212519D01*
X0039679Y0212510D01*
X0039784Y0212496D01*
X0039889Y0212479D01*
X0039993Y0212458D01*
X0040096Y0212433D01*
X0040198Y0212405D01*
X0040299Y0212373D01*
X0040399Y0212337D01*
X0040497Y0212298D01*
X0040594Y0212255D01*
X0040689Y0212209D01*
X0040783Y0212159D01*
X0040875Y0212106D01*
X0040964Y0212049D01*
X0041052Y0211990D01*
X0041137Y0211927D01*
X0041220Y0211861D01*
X0041301Y0211792D01*
X0041379Y0211721D01*
X0041454Y0211646D01*
X0041527Y0211569D01*
X0028947Y0212046D02*
X0028947Y0209744D01*
X0024343Y0209744D01*
X0024343Y0212046D01*
X0025110Y0212814D01*
X0025878Y0212814D01*
X0026645Y0212046D01*
X0026645Y0209744D01*
X0027412Y0208210D02*
X0028179Y0208210D01*
X0028947Y0207442D01*
X0028947Y0205908D01*
X0028179Y0205140D01*
X0028179Y0203606D02*
X0024343Y0203606D01*
X0025110Y0205140D02*
X0024343Y0205908D01*
X0024343Y0207442D01*
X0025110Y0208210D01*
X0026645Y0207442D02*
X0027412Y0208210D01*
X0026645Y0207442D02*
X0026645Y0205908D01*
X0025878Y0205140D01*
X0025110Y0205140D01*
X0028179Y0203606D02*
X0028947Y0202838D01*
X0028947Y0201304D01*
X0028179Y0200536D01*
X0024343Y0200536D01*
X0026645Y0212046D02*
X0027412Y0212814D01*
X0028179Y0212814D01*
X0028947Y0212046D01*
D217*
X0039362Y0209601D03*
D218*
X0037295Y0211865D03*
D219*
X0035954Y0213903D02*
X0035954Y0205417D01*
X0035257Y0159470D02*
X0035257Y0149470D01*
X0039576Y0149470D01*
X0039576Y0144470D01*
X0035257Y0144470D01*
X0035257Y0119470D01*
X0039576Y0119470D01*
X0039576Y0114470D01*
X0035257Y0114470D01*
X0035257Y0096970D01*
X0057895Y0096970D02*
X0057895Y0159470D01*
X0035257Y0149470D02*
X0035257Y0144470D01*
X0035257Y0119470D02*
X0035257Y0114470D01*
X0185795Y0114470D02*
X0185795Y0096970D01*
X0208433Y0096970D02*
X0208433Y0159470D01*
X0209418Y0159470D02*
X0209418Y0149470D01*
X0213737Y0149470D01*
X0213737Y0144470D01*
X0209418Y0144470D01*
X0209418Y0119470D01*
X0213737Y0119470D01*
X0213737Y0114470D01*
X0209418Y0114470D01*
X0209418Y0096970D01*
X0232056Y0096970D02*
X0232056Y0159470D01*
X0209418Y0149470D02*
X0209418Y0144470D01*
X0190114Y0144470D02*
X0185795Y0144470D01*
X0185795Y0119470D01*
X0190114Y0119470D01*
X0190114Y0114470D01*
X0185795Y0114470D01*
X0185795Y0119470D01*
X0209418Y0119470D02*
X0209418Y0114470D01*
X0190114Y0144470D02*
X0190114Y0149470D01*
X0185795Y0149470D01*
X0185795Y0144470D01*
X0185795Y0149470D02*
X0185795Y0159470D01*
X0367577Y0159470D02*
X0367577Y0149470D01*
X0371896Y0149470D01*
X0371896Y0144470D01*
X0367577Y0144470D01*
X0367577Y0119470D01*
X0371896Y0119470D01*
X0371896Y0114470D01*
X0367577Y0114470D01*
X0367577Y0096970D01*
X0390215Y0096970D02*
X0390215Y0159470D01*
X0367577Y0149470D02*
X0367577Y0144470D01*
X0367577Y0119470D02*
X0367577Y0114470D01*
D220*
X0323885Y0099367D02*
X0323885Y0093462D01*
X0323885Y0093225D02*
X0306956Y0093225D01*
X0306956Y0095824D01*
X0296326Y0095824D01*
X0296326Y0093225D01*
X0279791Y0093225D01*
X0279791Y0093462D02*
X0279791Y0099367D01*
X0347355Y0052826D02*
X0353654Y0052826D01*
X0347355Y0052826D02*
X0347355Y0046527D01*
X0372355Y0052826D02*
X0403654Y0052826D01*
X0403654Y0018968D01*
X0347355Y0018968D01*
X0347355Y0025267D01*
X0148254Y0032957D02*
X0145754Y0030457D01*
X0140754Y0030457D01*
X0138254Y0032957D01*
X0135754Y0030457D01*
X0130754Y0030457D01*
X0128254Y0032957D01*
X0128254Y0037957D01*
X0130754Y0040457D01*
X0128254Y0042957D01*
X0128254Y0047957D01*
X0130754Y0050457D01*
X0128254Y0052957D01*
X0128254Y0057957D01*
X0130754Y0060457D01*
X0135754Y0060457D01*
X0138254Y0057957D01*
X0138254Y0052957D01*
X0135754Y0050457D01*
X0138254Y0047957D01*
X0138254Y0042957D01*
X0135754Y0040457D01*
X0138254Y0037957D01*
X0138254Y0032957D01*
X0138254Y0037957D01*
X0140754Y0040457D01*
X0138254Y0042957D01*
X0138254Y0047957D01*
X0140754Y0050457D01*
X0138254Y0052957D01*
X0138254Y0057957D01*
X0140754Y0060457D01*
X0145754Y0060457D01*
X0148254Y0057957D01*
X0148254Y0052957D01*
X0145754Y0050457D01*
X0148254Y0047957D01*
X0148254Y0042957D01*
X0145754Y0040457D01*
X0148254Y0037957D01*
X0148254Y0032957D01*
X0128254Y0032957D02*
X0125754Y0030457D01*
X0120754Y0030457D01*
X0118254Y0032957D01*
X0115754Y0030457D01*
X0110754Y0030457D01*
X0108254Y0032957D01*
X0108254Y0037957D01*
X0110754Y0040457D01*
X0108254Y0042957D01*
X0108254Y0047957D01*
X0110754Y0050457D01*
X0108254Y0052957D01*
X0108254Y0057957D01*
X0110754Y0060457D01*
X0115754Y0060457D01*
X0118254Y0057957D01*
X0118254Y0052957D01*
X0115754Y0050457D01*
X0118254Y0047957D01*
X0118254Y0042957D01*
X0115754Y0040457D01*
X0118254Y0037957D01*
X0118254Y0032957D01*
X0118254Y0037957D01*
X0120754Y0040457D01*
X0118254Y0042957D01*
X0118254Y0047957D01*
X0120754Y0050457D01*
X0118254Y0052957D01*
X0118254Y0057957D01*
X0120754Y0060457D01*
X0125754Y0060457D01*
X0128254Y0057957D01*
X0128254Y0052957D01*
X0125754Y0050457D01*
X0128254Y0047957D01*
X0128254Y0042957D01*
X0125754Y0040457D01*
X0128254Y0037957D01*
X0128254Y0032957D01*
X0127127Y0093225D02*
X0127127Y0095824D01*
X0116497Y0095824D01*
X0116497Y0093225D01*
X0099962Y0093225D01*
X0099962Y0093462D02*
X0099962Y0099367D01*
X0127127Y0093225D02*
X0144056Y0093225D01*
X0144056Y0093462D02*
X0144056Y0099367D01*
X0144056Y0148973D02*
X0144056Y0154879D01*
X0144056Y0155115D02*
X0127521Y0155115D01*
X0127521Y0152517D01*
X0116891Y0152517D01*
X0116891Y0155115D01*
X0105080Y0155115D01*
X0099962Y0149997D01*
X0115181Y0173878D02*
X0120181Y0173878D01*
X0122681Y0176378D01*
X0125181Y0173878D01*
X0130181Y0173878D01*
X0132681Y0176378D01*
X0135181Y0173878D01*
X0140181Y0173878D01*
X0142681Y0176378D01*
X0142681Y0181378D01*
X0140181Y0183878D01*
X0135181Y0183878D01*
X0132681Y0181378D01*
X0130181Y0183878D01*
X0125181Y0183878D01*
X0122681Y0181378D01*
X0120181Y0183878D01*
X0115181Y0183878D01*
X0112681Y0181378D01*
X0112681Y0176378D01*
X0115181Y0173878D01*
X0115165Y0183915D02*
X0120165Y0183915D01*
X0122665Y0186415D01*
X0125165Y0183915D01*
X0130165Y0183915D01*
X0132665Y0186415D01*
X0135165Y0183915D01*
X0140165Y0183915D01*
X0142665Y0186415D01*
X0142665Y0191415D01*
X0140165Y0193915D01*
X0135165Y0193915D01*
X0132665Y0191415D01*
X0130165Y0193915D01*
X0125165Y0193915D01*
X0122665Y0191415D01*
X0120165Y0193915D01*
X0115165Y0193915D01*
X0112665Y0191415D01*
X0112665Y0186415D01*
X0115165Y0183915D01*
X0279791Y0149997D02*
X0284909Y0155115D01*
X0296720Y0155115D01*
X0296720Y0152517D01*
X0307350Y0152517D01*
X0307350Y0155115D01*
X0323885Y0155115D01*
X0323885Y0154879D02*
X0323885Y0148973D01*
D221*
X0337995Y0157399D03*
X0349806Y0157399D03*
X0353537Y0148541D03*
X0365348Y0148541D03*
X0364868Y0120199D03*
X0353057Y0120199D03*
X0349159Y0111341D03*
X0337348Y0111341D03*
X0267061Y0120199D03*
X0255250Y0120199D03*
X0251535Y0111341D03*
X0239724Y0111341D03*
X0183432Y0120199D03*
X0171621Y0120199D03*
X0167162Y0111341D03*
X0155351Y0111341D03*
X0171182Y0148541D03*
X0182993Y0148541D03*
X0167388Y0157399D03*
X0155577Y0157399D03*
X0087804Y0148541D03*
X0075993Y0148541D03*
X0072236Y0157399D03*
X0060425Y0157399D03*
X0075769Y0120199D03*
X0087580Y0120199D03*
X0071890Y0111341D03*
X0060079Y0111341D03*
X0240673Y0157399D03*
X0252484Y0157399D03*
X0256346Y0148541D03*
X0268157Y0148541D03*
M02*
