%
M48
M72
T01C0.02362
T02C0.03150
T03C0.03543
T04C0.03937
T05C0.04000
%
T01
X70038Y116311
X250230Y177424
X280103Y167120
X351938Y185484
X249909Y109632
X302521Y182656
X366280Y112541
X335292Y167919
X143855Y158400
X191953Y183431
X135760Y184718
X183778Y113196
X190608Y55151
X216037Y80516
X185481Y60956
X209558Y85294
X223488Y91635
X216781Y97670
X62849Y34855
X75587Y192016
X329496Y183550
X213023Y182041
X143451Y123173
X151490Y176985
X109866Y183234
X90474Y104742
X265540Y101323
X265540Y181762
X216940Y51354
X230224Y38322
X227876Y29920
X206024Y49345
X229088Y46007
X212380Y62415
X293764Y82859
T02
X125754Y115682
X125754Y125682
X125754Y135682
X125754Y145682
X125754Y155682
X125754Y165682
X305583Y112285
X305583Y122285
X305583Y132285
X305583Y142285
X305583Y152285
X305583Y162285
T03
X50321Y171000
X50321Y161157
X50321Y151315
X50321Y141472
X50321Y131630
X50321Y121787
X200859Y171000
X200859Y161157
X200859Y151315
X200859Y141472
X200859Y131630
X200859Y121787
X382641Y171000
X382641Y161157
X382641Y151315
X382641Y141472
X382641Y131630
X382641Y121787
X224482Y171000
X224482Y161157
X224482Y151315
X224482Y141472
X224482Y131630
X224482Y121787
T04
X339713Y25260
X363243Y25240
X351472Y43861
T05
X152500Y10000
X162500Y10000
X172500Y10000
X182500Y10000
X192500Y10000
X202500Y10000
X212500Y10000
X222500Y10000
X237500Y10000
X247500Y10000
X257500Y10000
X267500Y10000
X277500Y10000
X287500Y10000
X297500Y10000
X307500Y10000
X62500Y10000
X72500Y10000
X82500Y10000
X92500Y10000
X102500Y10000
X112500Y10000
X122500Y10000
X132500Y10000
X22500Y90000
X32500Y90000
X22500Y80000
X32500Y80000
X22500Y70000
X32500Y70000
X22500Y60000
X32500Y60000
X22500Y50000
X32500Y50000
X22500Y40000
X32500Y40000
X22500Y30000
X32500Y30000
X22500Y20000
X32500Y20000
X32500Y10000
X22500Y10000
X22500Y180000
X32500Y180000
X22500Y170000
X32500Y170000
X22500Y160000
X32500Y160000
X22500Y150000
X32500Y150000
X22500Y140000
X32500Y140000
X22500Y130000
X32500Y130000
X22500Y120000
X32500Y120000
X22500Y110000
X32500Y110000
X32500Y100000
X22500Y100000
X141203Y44990
X140203Y34990
X141203Y24990
X115013Y44370
X114013Y34370
X115013Y24370
X101133Y44847
X100133Y34847
X101133Y24847
X128251Y44382
X127251Y34382
X128251Y24382
X153701Y44947
X152701Y34947
X153701Y24947
X165707Y44883
X164707Y34883
X165707Y24883
X132500Y200000
X142500Y200000
X152500Y200000
X162500Y200000
X172500Y200000
X182500Y200000
X192500Y200000
X202500Y200000
M30
