G75*
%MOIN*%
%OFA0B0*%
%FSLAX25Y25*%
%IPPOS*%
%LPD*%
%AMOC8*
5,1,8,0,0,1.08239X$1,22.5*
%
%ADD10C,0.01000*%
%ADD11C,0.07200*%
%ADD12OC8,0.07200*%
%ADD13R,0.07499X0.08298*%
%ADD14R,0.06318X0.07106*%
%ADD15R,0.09861X0.03562*%
%ADD16R,0.13011X0.56318*%
%ADD17C,0.06350*%
%ADD18R,0.09074X0.09074*%
%ADD19C,0.09074*%
%ADD20C,0.06743*%
%ADD21C,0.08600*%
%ADD22C,0.05562*%
D10*
X0023082Y0020657D02*
X0033082Y0010657D01*
X0404283Y0010657D01*
X0404283Y0219319D01*
X0023082Y0219319D01*
X0023053Y0219267D01*
X0013082Y0209968D01*
X0013082Y0070657D01*
X0023082Y0060657D01*
X0023082Y0020657D01*
D11*
X0073082Y0017657D02*
X0073082Y0023657D01*
X0083082Y0023657D02*
X0083082Y0017657D01*
X0093082Y0017657D02*
X0093082Y0023657D01*
X0103082Y0023657D02*
X0103082Y0017657D01*
X0113082Y0017657D02*
X0113082Y0023657D01*
X0123082Y0023657D02*
X0123082Y0017657D01*
X0133082Y0017657D02*
X0133082Y0023657D01*
X0143082Y0023657D02*
X0143082Y0017657D01*
X0163082Y0017657D02*
X0163082Y0023657D01*
X0173082Y0023657D02*
X0173082Y0017657D01*
X0183082Y0017657D02*
X0183082Y0023657D01*
X0193082Y0023657D02*
X0193082Y0017657D01*
X0203082Y0017657D02*
X0203082Y0023657D01*
X0213082Y0023657D02*
X0213082Y0017657D01*
X0223082Y0017657D02*
X0223082Y0023657D01*
X0233082Y0023657D02*
X0233082Y0017657D01*
X0248082Y0017657D02*
X0248082Y0023657D01*
X0258082Y0023657D02*
X0258082Y0017657D01*
X0268082Y0017657D02*
X0268082Y0023657D01*
X0278082Y0023657D02*
X0278082Y0017657D01*
X0288082Y0017657D02*
X0288082Y0023657D01*
X0298082Y0023657D02*
X0298082Y0017657D01*
X0308082Y0017657D02*
X0308082Y0023657D01*
X0318082Y0023657D02*
X0318082Y0017657D01*
X0213082Y0207657D02*
X0213082Y0213657D01*
X0203082Y0213657D02*
X0203082Y0207657D01*
X0193082Y0207657D02*
X0193082Y0213657D01*
X0183082Y0213657D02*
X0183082Y0207657D01*
X0173082Y0207657D02*
X0173082Y0213657D01*
X0163082Y0213657D02*
X0163082Y0207657D01*
X0153082Y0207657D02*
X0153082Y0213657D01*
X0143082Y0213657D02*
X0143082Y0207657D01*
D12*
X0043082Y0190657D03*
X0033082Y0190657D03*
X0033082Y0180657D03*
X0043082Y0180657D03*
X0043082Y0170657D03*
X0033082Y0170657D03*
X0033082Y0160657D03*
X0043082Y0160657D03*
X0043082Y0150657D03*
X0033082Y0150657D03*
X0033082Y0140657D03*
X0043082Y0140657D03*
X0043082Y0130657D03*
X0033082Y0130657D03*
X0033082Y0120657D03*
X0043082Y0120657D03*
X0043082Y0110657D03*
X0033082Y0110657D03*
X0033082Y0100657D03*
X0043082Y0100657D03*
X0043082Y0090657D03*
X0033082Y0090657D03*
X0033082Y0080657D03*
X0043082Y0080657D03*
X0043082Y0070657D03*
X0033082Y0070657D03*
X0033082Y0060657D03*
X0043082Y0060657D03*
X0043082Y0050657D03*
X0033082Y0050657D03*
X0033082Y0040657D03*
X0043082Y0040657D03*
X0043082Y0030657D03*
X0033082Y0030657D03*
X0033082Y0020657D03*
X0043082Y0020657D03*
D13*
X0044266Y0209601D03*
X0033069Y0209601D03*
D14*
X0052989Y0209846D03*
X0060469Y0209846D03*
X0128977Y0187485D03*
X0136457Y0187485D03*
X0145302Y0187624D03*
X0152782Y0187624D03*
X0306032Y0184547D03*
X0313513Y0184547D03*
X0325179Y0184542D03*
X0332660Y0184542D03*
D15*
X0341756Y0170443D03*
X0341756Y0165443D03*
X0341756Y0160443D03*
X0341756Y0155443D03*
X0341756Y0150443D03*
X0341756Y0145443D03*
X0341756Y0140443D03*
X0341756Y0135443D03*
X0341756Y0130443D03*
X0341756Y0125443D03*
X0290575Y0125443D03*
X0290575Y0130443D03*
X0290575Y0135443D03*
X0290575Y0140443D03*
X0290575Y0145443D03*
X0290575Y0150443D03*
X0290575Y0155443D03*
X0290575Y0160443D03*
X0290575Y0165443D03*
X0290575Y0170443D03*
X0161927Y0168840D03*
X0161927Y0163840D03*
X0161927Y0158840D03*
X0161927Y0153840D03*
X0161927Y0148840D03*
X0161927Y0143840D03*
X0161927Y0138840D03*
X0161927Y0133840D03*
X0161927Y0128840D03*
X0110746Y0128840D03*
X0110746Y0133840D03*
X0110746Y0138840D03*
X0110746Y0143840D03*
X0110746Y0148840D03*
X0110746Y0153840D03*
X0110746Y0158840D03*
X0110746Y0163840D03*
X0110746Y0168840D03*
X0110746Y0173840D03*
X0161927Y0173840D03*
D16*
X0136336Y0151340D03*
X0316165Y0147943D03*
D17*
X0316165Y0152943D03*
X0316165Y0142943D03*
X0316165Y0132943D03*
X0316165Y0122943D03*
X0316165Y0162943D03*
X0316165Y0172943D03*
X0136336Y0176340D03*
X0136336Y0166340D03*
X0136336Y0156340D03*
X0136336Y0146340D03*
X0136336Y0136340D03*
X0136336Y0126340D03*
D18*
X0175584Y0132763D03*
X0191853Y0133010D03*
X0191853Y0148758D03*
X0175584Y0148511D03*
X0175810Y0172461D03*
X0191414Y0172748D03*
X0191414Y0188496D03*
X0175810Y0188209D03*
X0096226Y0188235D03*
X0080657Y0188020D03*
X0080657Y0172272D03*
X0096226Y0172487D03*
X0095848Y0151092D03*
X0080325Y0151121D03*
X0080325Y0135373D03*
X0095848Y0135344D03*
X0260867Y0130681D03*
X0276593Y0130676D03*
X0276593Y0146424D03*
X0260867Y0146429D03*
X0260482Y0163088D03*
X0276583Y0163679D03*
X0276583Y0179427D03*
X0260482Y0178836D03*
X0359359Y0172076D03*
X0375307Y0171822D03*
X0375307Y0187570D03*
X0359359Y0187824D03*
X0360564Y0148624D03*
X0376089Y0148882D03*
X0376089Y0133134D03*
X0360564Y0132876D03*
D19*
X0358117Y0054519D02*
X0365991Y0054519D01*
X0373826Y0039834D02*
X0373826Y0031960D01*
X0350295Y0031980D02*
X0350295Y0039854D01*
D20*
X0393223Y0132445D03*
X0393223Y0142287D03*
X0393223Y0152130D03*
X0393223Y0161972D03*
X0393223Y0171815D03*
X0393223Y0181657D03*
X0235064Y0181657D03*
X0235064Y0171815D03*
X0235064Y0161972D03*
X0235064Y0152130D03*
X0235064Y0142287D03*
X0235064Y0132445D03*
X0211441Y0132445D03*
X0211441Y0142287D03*
X0211441Y0152130D03*
X0211441Y0161972D03*
X0211441Y0171815D03*
X0211441Y0181657D03*
X0060903Y0181657D03*
X0060903Y0171815D03*
X0060903Y0161972D03*
X0060903Y0152130D03*
X0060903Y0142287D03*
X0060903Y0132445D03*
D21*
X0111715Y0055504D03*
X0125595Y0055027D03*
X0138833Y0055039D03*
X0151785Y0055647D03*
X0164283Y0055604D03*
X0176289Y0055540D03*
X0175289Y0045540D03*
X0163283Y0045604D03*
X0164283Y0035604D03*
X0176289Y0035540D03*
X0151785Y0035647D03*
X0138833Y0035039D03*
X0137833Y0045039D03*
X0150785Y0045647D03*
X0124595Y0045027D03*
X0110715Y0045504D03*
X0111715Y0035504D03*
X0125595Y0035027D03*
D22*
X0073431Y0045512D03*
X0196063Y0071614D03*
X0201191Y0065808D03*
X0216607Y0060003D03*
X0227522Y0062012D03*
X0239670Y0056664D03*
X0240807Y0048980D03*
X0238458Y0040577D03*
X0222963Y0073072D03*
X0226619Y0091173D03*
X0220140Y0095951D03*
X0234070Y0102293D03*
X0227363Y0108327D03*
X0260491Y0120289D03*
X0276123Y0111980D03*
X0304346Y0093516D03*
X0376862Y0123199D03*
X0290685Y0177778D03*
X0276123Y0192419D03*
X0260812Y0188082D03*
X0223605Y0192699D03*
X0202535Y0194088D03*
X0162072Y0187642D03*
X0146342Y0195376D03*
X0120448Y0193891D03*
X0086169Y0202673D03*
X0154438Y0169057D03*
X0154033Y0133830D03*
X0194360Y0123853D03*
X0101056Y0115399D03*
X0080620Y0126968D03*
X0313103Y0193314D03*
X0340078Y0194207D03*
X0362521Y0196141D03*
X0345875Y0178576D03*
M02*
