G75*
%MOIN*%
%OFA0B0*%
%FSLAX25Y25*%
%IPPOS*%
%LPD*%
%AMOC8*
5,1,8,0,0,1.08239X$1,22.5*
%
%ADD10C,0.01000*%
%ADD11C,0.06000*%
%ADD12C,0.07874*%
%ADD13C,0.05543*%
%ADD14C,0.07400*%
%ADD15OC8,0.06000*%
%ADD16C,0.02400*%
%ADD17C,0.04362*%
%ADD18C,0.01600*%
%ADD19C,0.05600*%
D10*
X0023777Y0020657D02*
X0033777Y0010657D01*
X0404978Y0010657D01*
X0404978Y0219319D01*
X0023777Y0219319D01*
X0023748Y0219267D01*
X0013777Y0209968D01*
X0013777Y0070657D01*
X0023777Y0060657D01*
X0023777Y0020657D01*
D11*
X0073777Y0017657D02*
X0073777Y0023657D01*
X0083777Y0023657D02*
X0083777Y0017657D01*
X0093777Y0017657D02*
X0093777Y0023657D01*
X0103777Y0023657D02*
X0103777Y0017657D01*
X0113777Y0017657D02*
X0113777Y0023657D01*
X0123777Y0023657D02*
X0123777Y0017657D01*
X0133777Y0017657D02*
X0133777Y0023657D01*
X0143777Y0023657D02*
X0143777Y0017657D01*
X0163777Y0017657D02*
X0163777Y0023657D01*
X0173777Y0023657D02*
X0173777Y0017657D01*
X0183777Y0017657D02*
X0183777Y0023657D01*
X0193777Y0023657D02*
X0193777Y0017657D01*
X0203777Y0017657D02*
X0203777Y0023657D01*
X0213777Y0023657D02*
X0213777Y0017657D01*
X0223777Y0017657D02*
X0223777Y0023657D01*
X0233777Y0023657D02*
X0233777Y0017657D01*
X0248777Y0017657D02*
X0248777Y0023657D01*
X0258777Y0023657D02*
X0258777Y0017657D01*
X0268777Y0017657D02*
X0268777Y0023657D01*
X0278777Y0023657D02*
X0278777Y0017657D01*
X0288777Y0017657D02*
X0288777Y0023657D01*
X0298777Y0023657D02*
X0298777Y0017657D01*
X0308777Y0017657D02*
X0308777Y0023657D01*
X0318777Y0023657D02*
X0318777Y0017657D01*
X0213777Y0207657D02*
X0213777Y0213657D01*
X0203777Y0213657D02*
X0203777Y0207657D01*
X0193777Y0207657D02*
X0193777Y0213657D01*
X0183777Y0213657D02*
X0183777Y0207657D01*
X0173777Y0207657D02*
X0173777Y0213657D01*
X0163777Y0213657D02*
X0163777Y0207657D01*
X0153777Y0207657D02*
X0153777Y0213657D01*
X0143777Y0213657D02*
X0143777Y0207657D01*
D12*
X0358812Y0054519D02*
X0366686Y0054519D01*
X0374520Y0039834D02*
X0374520Y0031960D01*
X0350990Y0031980D02*
X0350990Y0039854D01*
D13*
X0220737Y0105258D03*
X0220737Y0115100D03*
X0220737Y0124943D03*
X0220737Y0134785D03*
X0220737Y0144628D03*
X0220737Y0154470D03*
X0197114Y0154470D03*
X0197114Y0144628D03*
X0197114Y0134785D03*
X0197114Y0124943D03*
X0197114Y0115100D03*
X0197114Y0105258D03*
X0046576Y0105258D03*
X0046576Y0115100D03*
X0046576Y0124943D03*
X0046576Y0134785D03*
X0046576Y0144628D03*
X0046576Y0154470D03*
D14*
X0117681Y0179378D03*
X0127681Y0178378D03*
X0137681Y0179378D03*
X0137665Y0189415D03*
X0127665Y0188415D03*
X0117665Y0189415D03*
X0113754Y0055457D03*
X0123754Y0055457D03*
X0133754Y0055457D03*
X0143754Y0055457D03*
X0142754Y0045457D03*
X0132754Y0045457D03*
X0122754Y0045457D03*
X0112754Y0045457D03*
X0113754Y0035457D03*
X0123754Y0035457D03*
X0133754Y0035457D03*
X0143754Y0035457D03*
D15*
X0043782Y0030656D03*
X0033782Y0030656D03*
X0033782Y0020656D03*
X0043782Y0020656D03*
X0043787Y0180654D03*
X0033787Y0180654D03*
X0033787Y0190654D03*
X0043787Y0190654D03*
D16*
X0043787Y0195854D01*
X0041633Y0195854D01*
X0038787Y0193007D01*
X0035941Y0195854D01*
X0033787Y0195854D01*
X0031633Y0195854D01*
X0028587Y0192807D01*
X0028587Y0190654D01*
X0033787Y0190654D01*
X0033787Y0195854D01*
X0033787Y0190654D01*
X0033787Y0190654D01*
X0033787Y0190653D01*
X0033787Y0190653D01*
X0033787Y0185854D01*
X0033787Y0180654D01*
X0033787Y0180654D01*
X0033787Y0180653D01*
X0033787Y0180653D01*
X0033787Y0175454D01*
X0031633Y0175454D01*
X0028587Y0178500D01*
X0028587Y0180653D01*
X0033787Y0180653D01*
X0033787Y0175454D01*
X0035941Y0175454D01*
X0038787Y0178300D01*
X0041633Y0175454D01*
X0043787Y0175454D01*
X0043787Y0180653D01*
X0043787Y0180653D01*
X0038987Y0180653D01*
X0033787Y0180653D01*
X0033787Y0180654D02*
X0028587Y0180654D01*
X0028587Y0182807D01*
X0031433Y0185654D01*
X0028587Y0188500D01*
X0028587Y0190653D01*
X0033787Y0190653D01*
X0033787Y0180654D01*
X0043787Y0180654D01*
X0043787Y0185854D01*
X0043787Y0190653D01*
X0043787Y0190653D01*
X0038587Y0190653D01*
X0033787Y0190653D01*
X0033787Y0190654D01*
X0043787Y0190654D01*
X0043787Y0190654D01*
X0043787Y0190653D01*
X0043787Y0180654D01*
X0043787Y0180654D01*
X0043787Y0180653D01*
X0043787Y0175454D01*
X0045941Y0175454D01*
X0048987Y0178500D01*
X0048987Y0180653D01*
X0043787Y0180653D01*
X0043787Y0180654D01*
X0048987Y0180654D01*
X0048987Y0182807D01*
X0046141Y0185654D01*
X0048987Y0188500D01*
X0048987Y0190653D01*
X0043787Y0190653D01*
X0043787Y0190654D01*
X0043787Y0195854D01*
X0045941Y0195854D01*
X0048987Y0192807D01*
X0048987Y0190654D01*
X0043787Y0190654D01*
X0043787Y0190546D02*
X0043787Y0190546D01*
X0043787Y0192944D02*
X0043787Y0192944D01*
X0043787Y0195343D02*
X0043787Y0195343D01*
X0041123Y0195343D02*
X0036452Y0195343D01*
X0033787Y0195343D02*
X0033787Y0195343D01*
X0033787Y0192944D02*
X0033787Y0192944D01*
X0033787Y0190546D02*
X0033787Y0190546D01*
X0033787Y0188147D02*
X0033787Y0188147D01*
X0033787Y0185749D02*
X0033787Y0185749D01*
X0033787Y0183350D02*
X0033787Y0183350D01*
X0033787Y0180952D02*
X0033787Y0180952D01*
X0033787Y0180654D02*
X0033787Y0180653D01*
X0033787Y0178553D02*
X0033787Y0178553D01*
X0033787Y0176155D02*
X0033787Y0176155D01*
X0030932Y0176155D02*
X0019477Y0176155D01*
X0019477Y0178553D02*
X0028587Y0178553D01*
X0028587Y0180952D02*
X0019477Y0180952D01*
X0019477Y0183350D02*
X0029130Y0183350D01*
X0031338Y0185749D02*
X0019477Y0185749D01*
X0019477Y0188147D02*
X0028940Y0188147D01*
X0028587Y0190546D02*
X0019477Y0190546D01*
X0019477Y0192944D02*
X0028724Y0192944D01*
X0031123Y0195343D02*
X0019477Y0195343D01*
X0019477Y0197741D02*
X0134465Y0197741D01*
X0134465Y0195343D02*
X0046452Y0195343D01*
X0048850Y0192944D02*
X0112937Y0192944D01*
X0113165Y0193258D02*
X0112619Y0192507D01*
X0112197Y0191680D01*
X0111910Y0190796D01*
X0111765Y0189879D01*
X0111765Y0189415D01*
X0117665Y0189415D01*
X0117665Y0195315D01*
X0117201Y0195315D01*
X0116284Y0195170D01*
X0115400Y0194883D01*
X0114573Y0194461D01*
X0113822Y0193915D01*
X0113165Y0193258D01*
X0111871Y0190546D02*
X0048987Y0190546D01*
X0048635Y0188147D02*
X0111892Y0188147D01*
X0111910Y0188033D02*
X0112197Y0187150D01*
X0112619Y0186323D01*
X0113165Y0185571D01*
X0113822Y0184915D01*
X0114542Y0184391D01*
X0113837Y0183878D01*
X0113180Y0183222D01*
X0112635Y0182470D01*
X0112213Y0181643D01*
X0111926Y0180760D01*
X0111781Y0179842D01*
X0111781Y0179378D01*
X0111781Y0178914D01*
X0111926Y0177997D01*
X0112213Y0177113D01*
X0112635Y0176286D01*
X0113180Y0175535D01*
X0113837Y0174878D01*
X0114588Y0174332D01*
X0115416Y0173910D01*
X0116299Y0173623D01*
X0117216Y0173478D01*
X0117681Y0173478D01*
X0118145Y0173478D01*
X0119062Y0173623D01*
X0119946Y0173910D01*
X0120773Y0174332D01*
X0121524Y0174878D01*
X0122181Y0175535D01*
X0122505Y0175980D01*
X0122848Y0175149D01*
X0124452Y0173546D01*
X0126547Y0172678D01*
X0128815Y0172678D01*
X0130910Y0173546D01*
X0132513Y0175149D01*
X0132904Y0176094D01*
X0134452Y0174546D01*
X0136547Y0173678D01*
X0138815Y0173678D01*
X0140910Y0174546D01*
X0142513Y0176149D01*
X0143381Y0178244D01*
X0143381Y0180512D01*
X0143369Y0180541D01*
X0155590Y0192762D01*
X0156490Y0193662D01*
X0156977Y0194838D01*
X0156977Y0203786D01*
X0158016Y0204825D01*
X0158777Y0206663D01*
X0158777Y0213619D01*
X0158777Y0213619D01*
X0158777Y0206663D01*
X0159538Y0204825D01*
X0160945Y0203419D01*
X0162783Y0202657D01*
X0164772Y0202657D01*
X0166609Y0203419D01*
X0168016Y0204825D01*
X0168777Y0206663D01*
X0168777Y0213619D01*
X0168777Y0213619D01*
X0168777Y0206663D01*
X0169538Y0204825D01*
X0170945Y0203419D01*
X0172783Y0202657D01*
X0174772Y0202657D01*
X0176609Y0203419D01*
X0178016Y0204825D01*
X0178777Y0206663D01*
X0178777Y0213619D01*
X0178777Y0213619D01*
X0178777Y0206663D01*
X0179538Y0204825D01*
X0180945Y0203419D01*
X0182783Y0202657D01*
X0184772Y0202657D01*
X0186609Y0203419D01*
X0188016Y0204825D01*
X0188777Y0206663D01*
X0188777Y0213619D01*
X0188777Y0213619D01*
X0188777Y0206663D01*
X0189538Y0204825D01*
X0190945Y0203419D01*
X0192783Y0202657D01*
X0194772Y0202657D01*
X0196609Y0203419D01*
X0198016Y0204825D01*
X0198777Y0206663D01*
X0198777Y0213619D01*
X0198777Y0213619D01*
X0198777Y0206663D01*
X0199538Y0204825D01*
X0200945Y0203419D01*
X0202783Y0202657D01*
X0204772Y0202657D01*
X0206609Y0203419D01*
X0208016Y0204825D01*
X0208777Y0206663D01*
X0208777Y0213619D01*
X0208777Y0213619D01*
X0208777Y0206663D01*
X0209538Y0204825D01*
X0210945Y0203419D01*
X0212783Y0202657D01*
X0214772Y0202657D01*
X0216609Y0203419D01*
X0218016Y0204825D01*
X0218777Y0206663D01*
X0218777Y0213619D01*
X0399278Y0213619D01*
X0399278Y0094374D01*
X0397952Y0094923D01*
X0396288Y0094923D01*
X0394752Y0094287D01*
X0393576Y0093110D01*
X0393398Y0092682D01*
X0362746Y0092682D01*
X0362402Y0093027D01*
X0360865Y0093663D01*
X0359202Y0093663D01*
X0357665Y0093027D01*
X0356489Y0091850D01*
X0355852Y0090314D01*
X0355852Y0088650D01*
X0356489Y0087114D01*
X0357665Y0085937D01*
X0359202Y0085301D01*
X0360865Y0085301D01*
X0362402Y0085937D01*
X0362746Y0086282D01*
X0396497Y0086282D01*
X0397170Y0086561D01*
X0397952Y0086561D01*
X0399278Y0087110D01*
X0399278Y0016357D01*
X0323651Y0016357D01*
X0323777Y0016663D01*
X0323777Y0024652D01*
X0323016Y0026490D01*
X0321609Y0027896D01*
X0319772Y0028657D01*
X0317783Y0028657D01*
X0315945Y0027896D01*
X0314538Y0026490D01*
X0313777Y0024652D01*
X0313016Y0026490D01*
X0311609Y0027896D01*
X0309772Y0028657D01*
X0307783Y0028657D01*
X0305945Y0027896D01*
X0304538Y0026490D01*
X0303777Y0024652D01*
X0303016Y0026490D01*
X0301977Y0027528D01*
X0301977Y0082369D01*
X0303120Y0083512D01*
X0303608Y0083512D01*
X0305144Y0084148D01*
X0306320Y0085325D01*
X0306957Y0086861D01*
X0306957Y0088525D01*
X0306320Y0090061D01*
X0305144Y0091238D01*
X0303608Y0091874D01*
X0301944Y0091874D01*
X0300408Y0091238D01*
X0299231Y0090061D01*
X0298595Y0088525D01*
X0298595Y0088037D01*
X0297052Y0086495D01*
X0297302Y0087097D01*
X0297302Y0088760D01*
X0296665Y0090297D01*
X0295489Y0091473D01*
X0293952Y0092110D01*
X0292289Y0092110D01*
X0290752Y0091473D01*
X0289576Y0090297D01*
X0288940Y0088760D01*
X0288940Y0088273D01*
X0286964Y0086298D01*
X0286064Y0085398D01*
X0285577Y0084222D01*
X0285577Y0027528D01*
X0284538Y0026490D01*
X0283777Y0024652D01*
X0283016Y0026490D01*
X0281977Y0027528D01*
X0281977Y0084040D01*
X0283330Y0085393D01*
X0283817Y0085393D01*
X0285354Y0086030D01*
X0286530Y0087206D01*
X0287167Y0088743D01*
X0287167Y0090406D01*
X0286530Y0091943D01*
X0285354Y0093119D01*
X0283817Y0093756D01*
X0282154Y0093756D01*
X0280617Y0093119D01*
X0279441Y0091943D01*
X0278805Y0090406D01*
X0278805Y0089919D01*
X0276964Y0088079D01*
X0276064Y0087178D01*
X0275577Y0086002D01*
X0275577Y0027528D01*
X0274538Y0026490D01*
X0273777Y0024652D01*
X0273016Y0026490D01*
X0271977Y0027528D01*
X0271977Y0088779D01*
X0272112Y0088834D01*
X0273288Y0090011D01*
X0273925Y0091547D01*
X0273925Y0093211D01*
X0273288Y0094747D01*
X0272112Y0095924D01*
X0270575Y0096560D01*
X0268912Y0096560D01*
X0267375Y0095924D01*
X0266199Y0094747D01*
X0265562Y0093211D01*
X0265562Y0091547D01*
X0265577Y0091512D01*
X0265577Y0027528D01*
X0264538Y0026490D01*
X0263777Y0024652D01*
X0263016Y0026490D01*
X0261609Y0027896D01*
X0259772Y0028657D01*
X0259391Y0028657D01*
X0258675Y0029331D01*
X0259981Y0029872D01*
X0261158Y0031048D01*
X0261794Y0032585D01*
X0261794Y0034248D01*
X0261158Y0035785D01*
X0260813Y0036129D01*
X0260813Y0069018D01*
X0260326Y0070194D01*
X0225508Y0105011D01*
X0225508Y0106207D01*
X0224782Y0107961D01*
X0223440Y0109303D01*
X0221686Y0110029D01*
X0219787Y0110029D01*
X0218034Y0109303D01*
X0216691Y0107961D01*
X0215965Y0106207D01*
X0215965Y0104308D01*
X0216691Y0102555D01*
X0218034Y0101212D01*
X0219787Y0100486D01*
X0220983Y0100486D01*
X0254413Y0067056D01*
X0254413Y0043502D01*
X0254280Y0043635D01*
X0254280Y0058128D01*
X0253792Y0059304D01*
X0214926Y0098171D01*
X0214926Y0111573D01*
X0215143Y0111790D01*
X0217298Y0111790D01*
X0218034Y0111055D01*
X0219787Y0110328D01*
X0221686Y0110328D01*
X0223440Y0111055D01*
X0224782Y0112397D01*
X0225508Y0114151D01*
X0225508Y0116049D01*
X0224782Y0117803D01*
X0223440Y0119145D01*
X0221686Y0119872D01*
X0219787Y0119872D01*
X0218034Y0119145D01*
X0217079Y0118190D01*
X0213181Y0118190D01*
X0212005Y0117703D01*
X0211104Y0116803D01*
X0209013Y0114711D01*
X0208526Y0113535D01*
X0208526Y0096209D01*
X0209013Y0095033D01*
X0209913Y0094133D01*
X0247880Y0056166D01*
X0247880Y0043635D01*
X0247535Y0043290D01*
X0246898Y0041754D01*
X0246898Y0040407D01*
X0185739Y0097926D01*
X0185531Y0098429D01*
X0184631Y0099329D01*
X0183455Y0099816D01*
X0183134Y0099816D01*
X0182790Y0100161D01*
X0181253Y0100797D01*
X0179590Y0100797D01*
X0178053Y0100161D01*
X0176877Y0098984D01*
X0176240Y0097448D01*
X0176240Y0095784D01*
X0176877Y0094248D01*
X0178053Y0093071D01*
X0179590Y0092435D01*
X0181253Y0092435D01*
X0181936Y0092718D01*
X0250268Y0028452D01*
X0249772Y0028657D01*
X0247783Y0028657D01*
X0246029Y0027931D01*
X0185039Y0088921D01*
X0184797Y0089506D01*
X0183620Y0090682D01*
X0182084Y0091318D01*
X0180420Y0091318D01*
X0178884Y0090682D01*
X0177707Y0089506D01*
X0177071Y0087969D01*
X0177071Y0086306D01*
X0177707Y0084769D01*
X0178884Y0083593D01*
X0180420Y0082956D01*
X0181953Y0082956D01*
X0182252Y0082657D01*
X0181950Y0082782D01*
X0180287Y0082782D01*
X0178750Y0082145D01*
X0177574Y0080969D01*
X0176938Y0079432D01*
X0176938Y0077769D01*
X0177574Y0076232D01*
X0178750Y0075056D01*
X0180287Y0074420D01*
X0180774Y0074420D01*
X0182147Y0073047D01*
X0181882Y0073157D01*
X0180219Y0073157D01*
X0178682Y0072520D01*
X0177506Y0071344D01*
X0176869Y0069808D01*
X0176869Y0068144D01*
X0177506Y0066608D01*
X0178682Y0065431D01*
X0179666Y0065024D01*
X0178279Y0064449D01*
X0177103Y0063273D01*
X0176466Y0061736D01*
X0176466Y0060072D01*
X0177103Y0058536D01*
X0178279Y0057360D01*
X0179815Y0056723D01*
X0180303Y0056723D01*
X0181672Y0055354D01*
X0181076Y0055601D01*
X0179412Y0055601D01*
X0177875Y0054964D01*
X0176699Y0053788D01*
X0176063Y0052252D01*
X0176063Y0050588D01*
X0176699Y0049051D01*
X0177875Y0047875D01*
X0179412Y0047239D01*
X0179899Y0047239D01*
X0200093Y0027045D01*
X0199538Y0026490D01*
X0198777Y0024652D01*
X0198016Y0026490D01*
X0196609Y0027896D01*
X0194772Y0028657D01*
X0192783Y0028657D01*
X0190945Y0027896D01*
X0189538Y0026490D01*
X0188777Y0024652D01*
X0188016Y0026490D01*
X0186609Y0027896D01*
X0184772Y0028657D01*
X0182783Y0028657D01*
X0180945Y0027896D01*
X0179538Y0026490D01*
X0178777Y0024652D01*
X0178016Y0026490D01*
X0176609Y0027896D01*
X0174772Y0028657D01*
X0172783Y0028657D01*
X0170945Y0027896D01*
X0169538Y0026490D01*
X0168777Y0024652D01*
X0168016Y0026490D01*
X0166609Y0027896D01*
X0164772Y0028657D01*
X0162783Y0028657D01*
X0160945Y0027896D01*
X0159538Y0026490D01*
X0158777Y0024652D01*
X0158777Y0016663D01*
X0158904Y0016357D01*
X0148651Y0016357D01*
X0148777Y0016663D01*
X0148777Y0024652D01*
X0148016Y0026490D01*
X0146609Y0027896D01*
X0144772Y0028657D01*
X0142783Y0028657D01*
X0140945Y0027896D01*
X0139538Y0026490D01*
X0138777Y0024652D01*
X0138016Y0026490D01*
X0136609Y0027896D01*
X0134772Y0028657D01*
X0132783Y0028657D01*
X0130945Y0027896D01*
X0129538Y0026490D01*
X0128777Y0024652D01*
X0128016Y0026490D01*
X0126609Y0027896D01*
X0124772Y0028657D01*
X0122783Y0028657D01*
X0120945Y0027896D01*
X0119538Y0026490D01*
X0118777Y0024652D01*
X0118016Y0026490D01*
X0116609Y0027896D01*
X0114772Y0028657D01*
X0112783Y0028657D01*
X0110945Y0027896D01*
X0109538Y0026490D01*
X0108777Y0024652D01*
X0108016Y0026490D01*
X0106818Y0027687D01*
X0106818Y0058891D01*
X0114743Y0066815D01*
X0151273Y0066815D01*
X0152449Y0067303D01*
X0174708Y0089561D01*
X0175608Y0090462D01*
X0176095Y0091638D01*
X0176095Y0098732D01*
X0183670Y0106307D01*
X0190683Y0106307D01*
X0192343Y0104648D01*
X0192343Y0104308D01*
X0193069Y0102555D01*
X0194411Y0101212D01*
X0196165Y0100486D01*
X0198063Y0100486D01*
X0199817Y0101212D01*
X0201159Y0102555D01*
X0201886Y0104308D01*
X0201886Y0106207D01*
X0201159Y0107961D01*
X0199817Y0109303D01*
X0198063Y0110029D01*
X0196165Y0110029D01*
X0196057Y0109984D01*
X0195393Y0110648D01*
X0196165Y0110328D01*
X0198063Y0110328D01*
X0199817Y0111055D01*
X0201159Y0112397D01*
X0201886Y0114151D01*
X0201886Y0116049D01*
X0201159Y0117803D01*
X0199817Y0119145D01*
X0198063Y0119872D01*
X0196165Y0119872D01*
X0194411Y0119145D01*
X0193566Y0118300D01*
X0177997Y0118300D01*
X0176820Y0117813D01*
X0175920Y0116913D01*
X0165945Y0106937D01*
X0165458Y0105761D01*
X0165458Y0096841D01*
X0147189Y0078572D01*
X0112869Y0078572D01*
X0137342Y0103045D01*
X0138845Y0102422D01*
X0140508Y0102422D01*
X0142045Y0103059D01*
X0143221Y0104235D01*
X0143857Y0105772D01*
X0143857Y0107435D01*
X0143221Y0108972D01*
X0142045Y0110148D01*
X0140508Y0110784D01*
X0138845Y0110784D01*
X0137308Y0110148D01*
X0136668Y0109508D01*
X0135443Y0109508D01*
X0134267Y0109021D01*
X0081322Y0056075D01*
X0080422Y0055175D01*
X0079987Y0054125D01*
X0079590Y0053728D01*
X0078953Y0052192D01*
X0078953Y0050528D01*
X0079590Y0048992D01*
X0080766Y0047815D01*
X0082303Y0047179D01*
X0083966Y0047179D01*
X0085503Y0047815D01*
X0086679Y0048992D01*
X0087315Y0050528D01*
X0087315Y0052192D01*
X0087073Y0052776D01*
X0092174Y0057876D01*
X0092174Y0028405D01*
X0090945Y0027896D01*
X0089538Y0026490D01*
X0088777Y0024652D01*
X0088016Y0026490D01*
X0086609Y0027896D01*
X0086418Y0027975D01*
X0086418Y0028074D01*
X0085931Y0029250D01*
X0055793Y0059388D01*
X0055793Y0106616D01*
X0055816Y0106671D01*
X0055816Y0110588D01*
X0055328Y0111765D01*
X0051348Y0115745D01*
X0051348Y0116049D01*
X0050621Y0117803D01*
X0049279Y0119145D01*
X0047525Y0119872D01*
X0045627Y0119872D01*
X0043873Y0119145D01*
X0042531Y0117803D01*
X0041805Y0116049D01*
X0041805Y0114151D01*
X0042531Y0112397D01*
X0043873Y0111055D01*
X0045627Y0110328D01*
X0047525Y0110328D01*
X0047658Y0110384D01*
X0048357Y0109685D01*
X0047525Y0110029D01*
X0045627Y0110029D01*
X0043873Y0109303D01*
X0042531Y0107961D01*
X0041805Y0106207D01*
X0041805Y0104308D01*
X0042531Y0102555D01*
X0043376Y0101709D01*
X0043376Y0047222D01*
X0043863Y0046046D01*
X0044764Y0045146D01*
X0068777Y0021132D01*
X0068777Y0016663D01*
X0068904Y0016357D01*
X0046554Y0016357D01*
X0048781Y0018585D01*
X0048781Y0022727D01*
X0045994Y0025515D01*
X0048981Y0028502D01*
X0048981Y0030656D01*
X0043782Y0030656D01*
X0043782Y0030656D01*
X0048981Y0030656D01*
X0048981Y0032810D01*
X0045935Y0035856D01*
X0043782Y0035856D01*
X0043782Y0030656D01*
X0043781Y0030656D01*
X0043781Y0035856D01*
X0041628Y0035856D01*
X0038640Y0032869D01*
X0035853Y0035656D01*
X0031710Y0035656D01*
X0029477Y0033423D01*
X0029477Y0061791D01*
X0028609Y0063886D01*
X0027006Y0065490D01*
X0027006Y0065490D01*
X0019477Y0073018D01*
X0019477Y0207490D01*
X0026049Y0213619D01*
X0138777Y0213619D01*
X0138777Y0210183D01*
X0134952Y0206358D01*
X0134465Y0205182D01*
X0134465Y0194259D01*
X0134436Y0194247D01*
X0132833Y0192644D01*
X0132442Y0191699D01*
X0130894Y0193247D01*
X0128799Y0194115D01*
X0126531Y0194115D01*
X0124436Y0193247D01*
X0123044Y0191854D01*
X0122711Y0192507D01*
X0122165Y0193258D01*
X0121509Y0193915D01*
X0120757Y0194461D01*
X0119930Y0194883D01*
X0119047Y0195170D01*
X0118130Y0195315D01*
X0117665Y0195315D01*
X0117665Y0189415D01*
X0117665Y0189415D01*
X0117665Y0189415D01*
X0111765Y0189415D01*
X0111765Y0188950D01*
X0111910Y0188033D01*
X0113036Y0185749D02*
X0046236Y0185749D01*
X0043787Y0185749D02*
X0043787Y0185749D01*
X0043787Y0188147D02*
X0043787Y0188147D01*
X0043787Y0183350D02*
X0043787Y0183350D01*
X0043787Y0180952D02*
X0043787Y0180952D01*
X0043787Y0178553D02*
X0043787Y0178553D01*
X0043787Y0176155D02*
X0043787Y0176155D01*
X0040932Y0176155D02*
X0036642Y0176155D01*
X0046642Y0176155D02*
X0112730Y0176155D01*
X0111838Y0178553D02*
X0048987Y0178553D01*
X0048987Y0180952D02*
X0111988Y0180952D01*
X0111781Y0179378D02*
X0117681Y0179378D01*
X0117681Y0173478D01*
X0117681Y0179378D01*
X0117681Y0179378D01*
X0111781Y0179378D01*
X0113309Y0183350D02*
X0048444Y0183350D01*
X0019477Y0173756D02*
X0115891Y0173756D01*
X0117681Y0173756D02*
X0117681Y0173756D01*
X0119471Y0173756D02*
X0124242Y0173756D01*
X0117681Y0176155D02*
X0117681Y0176155D01*
X0117681Y0178553D02*
X0117681Y0178553D01*
X0117681Y0179378D02*
X0117681Y0179378D01*
X0131120Y0173756D02*
X0136359Y0173756D01*
X0139003Y0173756D02*
X0206219Y0173756D01*
X0206209Y0172072D02*
X0206078Y0171755D01*
X0206078Y0171740D01*
X0206072Y0171726D01*
X0206078Y0171104D01*
X0206078Y0170482D01*
X0206083Y0170468D01*
X0206221Y0155090D01*
X0205901Y0154770D01*
X0205265Y0153233D01*
X0205265Y0151570D01*
X0205901Y0150033D01*
X0207077Y0148857D01*
X0208614Y0148221D01*
X0210277Y0148221D01*
X0211814Y0148857D01*
X0212990Y0150033D01*
X0213627Y0151570D01*
X0213627Y0153233D01*
X0212990Y0154770D01*
X0212621Y0155139D01*
X0212485Y0170315D01*
X0212601Y0170590D01*
X0212601Y0170599D01*
X0212604Y0170608D01*
X0212604Y0171235D01*
X0212701Y0187671D01*
X0213061Y0188032D01*
X0213698Y0189569D01*
X0213698Y0191232D01*
X0213061Y0192769D01*
X0211885Y0193945D01*
X0210348Y0194582D01*
X0208685Y0194582D01*
X0207148Y0193945D01*
X0205972Y0192769D01*
X0205336Y0191232D01*
X0205336Y0189569D01*
X0205972Y0188032D01*
X0206301Y0187703D01*
X0206209Y0172072D01*
X0206075Y0171358D02*
X0019477Y0171358D01*
X0019477Y0168959D02*
X0206097Y0168959D01*
X0206118Y0166561D02*
X0019477Y0166561D01*
X0019477Y0164162D02*
X0206140Y0164162D01*
X0206162Y0161764D02*
X0019477Y0161764D01*
X0019477Y0159365D02*
X0206183Y0159365D01*
X0206205Y0156967D02*
X0201245Y0156967D01*
X0201159Y0157173D02*
X0199817Y0158515D01*
X0198063Y0159242D01*
X0196165Y0159242D01*
X0194411Y0158515D01*
X0193069Y0157173D01*
X0192343Y0155419D01*
X0192343Y0153521D01*
X0193069Y0151767D01*
X0194411Y0150425D01*
X0196165Y0149699D01*
X0198063Y0149699D01*
X0199817Y0150425D01*
X0201159Y0151767D01*
X0201886Y0153521D01*
X0201886Y0155419D01*
X0201159Y0157173D01*
X0201886Y0154568D02*
X0205817Y0154568D01*
X0205265Y0152170D02*
X0201326Y0152170D01*
X0199817Y0148673D02*
X0198063Y0149399D01*
X0196165Y0149399D01*
X0194411Y0148673D01*
X0193069Y0147331D01*
X0192343Y0145577D01*
X0192343Y0143679D01*
X0193069Y0141925D01*
X0194411Y0140582D01*
X0196165Y0139856D01*
X0198063Y0139856D01*
X0199817Y0140582D01*
X0201159Y0141925D01*
X0201886Y0143679D01*
X0201886Y0145577D01*
X0201159Y0147331D01*
X0199817Y0148673D01*
X0201117Y0147373D02*
X0216733Y0147373D01*
X0216691Y0147331D02*
X0215965Y0145577D01*
X0215965Y0143679D01*
X0216691Y0141925D01*
X0218034Y0140582D01*
X0219787Y0139856D01*
X0221686Y0139856D01*
X0223440Y0140582D01*
X0224782Y0141925D01*
X0225508Y0143679D01*
X0225508Y0145577D01*
X0224782Y0147331D01*
X0223440Y0148673D01*
X0221686Y0149399D01*
X0219787Y0149399D01*
X0218034Y0148673D01*
X0216691Y0147331D01*
X0215965Y0144974D02*
X0201886Y0144974D01*
X0201429Y0142576D02*
X0216422Y0142576D01*
X0219013Y0140177D02*
X0198838Y0140177D01*
X0198063Y0139557D02*
X0196165Y0139557D01*
X0194411Y0138830D01*
X0193069Y0137488D01*
X0192343Y0135734D01*
X0192343Y0133836D01*
X0193069Y0132082D01*
X0194411Y0130740D01*
X0196165Y0130014D01*
X0198063Y0130014D01*
X0199817Y0130740D01*
X0201159Y0132082D01*
X0201886Y0133836D01*
X0201886Y0135734D01*
X0201159Y0137488D01*
X0199817Y0138830D01*
X0198063Y0139557D01*
X0195390Y0140177D02*
X0048300Y0140177D01*
X0047525Y0139856D02*
X0049279Y0140582D01*
X0050621Y0141925D01*
X0051348Y0143679D01*
X0051348Y0145577D01*
X0050621Y0147331D01*
X0049279Y0148673D01*
X0047525Y0149399D01*
X0045627Y0149399D01*
X0043873Y0148673D01*
X0042531Y0147331D01*
X0041805Y0145577D01*
X0041805Y0143679D01*
X0042531Y0141925D01*
X0043873Y0140582D01*
X0045627Y0139856D01*
X0047525Y0139856D01*
X0047525Y0139557D02*
X0045627Y0139557D01*
X0043873Y0138830D01*
X0042531Y0137488D01*
X0041805Y0135734D01*
X0041805Y0133836D01*
X0042531Y0132082D01*
X0043873Y0130740D01*
X0045627Y0130014D01*
X0047525Y0130014D01*
X0049279Y0130740D01*
X0050621Y0132082D01*
X0051348Y0133836D01*
X0051348Y0135734D01*
X0050621Y0137488D01*
X0049279Y0138830D01*
X0047525Y0139557D01*
X0044852Y0140177D02*
X0019477Y0140177D01*
X0019477Y0137779D02*
X0042821Y0137779D01*
X0041805Y0135380D02*
X0019477Y0135380D01*
X0019477Y0132981D02*
X0042158Y0132981D01*
X0044252Y0130583D02*
X0019477Y0130583D01*
X0019477Y0128184D02*
X0042787Y0128184D01*
X0042784Y0128181D02*
X0042324Y0127548D01*
X0041969Y0126851D01*
X0041727Y0126107D01*
X0041605Y0125334D01*
X0041605Y0124943D01*
X0046576Y0124943D01*
X0046576Y0129914D01*
X0046185Y0129914D01*
X0045412Y0129792D01*
X0044668Y0129550D01*
X0043970Y0129195D01*
X0043337Y0128735D01*
X0042784Y0128181D01*
X0041676Y0125786D02*
X0019477Y0125786D01*
X0019477Y0123387D02*
X0041854Y0123387D01*
X0041969Y0123034D02*
X0041727Y0123778D01*
X0041605Y0124551D01*
X0041605Y0124943D01*
X0046576Y0124943D01*
X0046576Y0124943D01*
X0046576Y0124943D01*
X0046576Y0129914D01*
X0046967Y0129914D01*
X0047740Y0129792D01*
X0048485Y0129550D01*
X0049182Y0129195D01*
X0049815Y0128735D01*
X0050368Y0128181D01*
X0050828Y0127548D01*
X0051184Y0126851D01*
X0051425Y0126107D01*
X0051548Y0125334D01*
X0051548Y0124943D01*
X0046576Y0124943D01*
X0046576Y0124943D01*
X0046576Y0124943D01*
X0046576Y0119971D01*
X0046185Y0119971D01*
X0045412Y0120093D01*
X0044668Y0120335D01*
X0043970Y0120691D01*
X0043337Y0121150D01*
X0042784Y0121704D01*
X0042324Y0122337D01*
X0041969Y0123034D01*
X0043560Y0120989D02*
X0019477Y0120989D01*
X0019477Y0118590D02*
X0043318Y0118590D01*
X0041864Y0116192D02*
X0019477Y0116192D01*
X0019477Y0113793D02*
X0041953Y0113793D01*
X0043533Y0111395D02*
X0019477Y0111395D01*
X0019477Y0108996D02*
X0043567Y0108996D01*
X0041967Y0106598D02*
X0019477Y0106598D01*
X0019477Y0104199D02*
X0041850Y0104199D01*
X0043285Y0101801D02*
X0019477Y0101801D01*
X0019477Y0099402D02*
X0043376Y0099402D01*
X0043376Y0097004D02*
X0019477Y0097004D01*
X0019477Y0094605D02*
X0043376Y0094605D01*
X0043376Y0092207D02*
X0019477Y0092207D01*
X0019477Y0089808D02*
X0043376Y0089808D01*
X0043376Y0087410D02*
X0019477Y0087410D01*
X0019477Y0085011D02*
X0043376Y0085011D01*
X0043376Y0082613D02*
X0019477Y0082613D01*
X0019477Y0080214D02*
X0043376Y0080214D01*
X0043376Y0077816D02*
X0019477Y0077816D01*
X0019477Y0075417D02*
X0043376Y0075417D01*
X0043376Y0073019D02*
X0019477Y0073019D01*
X0021875Y0070620D02*
X0043376Y0070620D01*
X0043376Y0068222D02*
X0024274Y0068222D01*
X0026672Y0065823D02*
X0043376Y0065823D01*
X0043376Y0063425D02*
X0028801Y0063425D01*
X0029477Y0061026D02*
X0043376Y0061026D01*
X0043376Y0058628D02*
X0029477Y0058628D01*
X0029477Y0056229D02*
X0043376Y0056229D01*
X0043376Y0053831D02*
X0029477Y0053831D01*
X0029477Y0051432D02*
X0043376Y0051432D01*
X0043376Y0049034D02*
X0029477Y0049034D01*
X0029477Y0046635D02*
X0043619Y0046635D01*
X0045672Y0044237D02*
X0029477Y0044237D01*
X0029477Y0041838D02*
X0048071Y0041838D01*
X0050470Y0039440D02*
X0029477Y0039440D01*
X0029477Y0037041D02*
X0052868Y0037041D01*
X0055267Y0034643D02*
X0047149Y0034643D01*
X0048981Y0032244D02*
X0057665Y0032244D01*
X0060064Y0029845D02*
X0048981Y0029845D01*
X0047926Y0027447D02*
X0062462Y0027447D01*
X0064861Y0025048D02*
X0046460Y0025048D01*
X0048781Y0022650D02*
X0067259Y0022650D01*
X0068777Y0020251D02*
X0048781Y0020251D01*
X0048049Y0017853D02*
X0068777Y0017853D01*
X0073777Y0020657D02*
X0046576Y0047858D01*
X0046576Y0105258D01*
X0052593Y0107285D02*
X0052616Y0107308D01*
X0052616Y0109952D01*
X0047467Y0115100D01*
X0046576Y0115100D01*
X0049834Y0118590D02*
X0193856Y0118590D01*
X0194508Y0120691D02*
X0195206Y0120335D01*
X0195950Y0120093D01*
X0196723Y0119971D01*
X0197114Y0119971D01*
X0197114Y0124943D01*
X0197114Y0129914D01*
X0196723Y0129914D01*
X0195950Y0129792D01*
X0195206Y0129550D01*
X0194508Y0129195D01*
X0193875Y0128735D01*
X0193322Y0128181D01*
X0192862Y0127548D01*
X0192507Y0126851D01*
X0192265Y0126107D01*
X0192143Y0125334D01*
X0192143Y0124943D01*
X0197114Y0124943D01*
X0197114Y0124943D01*
X0197114Y0124943D01*
X0197114Y0129914D01*
X0197505Y0129914D01*
X0198278Y0129792D01*
X0199023Y0129550D01*
X0199720Y0129195D01*
X0200353Y0128735D01*
X0200906Y0128181D01*
X0201366Y0127548D01*
X0201722Y0126851D01*
X0201963Y0126107D01*
X0202086Y0125334D01*
X0202086Y0124943D01*
X0197114Y0124943D01*
X0197114Y0124943D01*
X0192143Y0124943D01*
X0192143Y0124551D01*
X0192265Y0123778D01*
X0192507Y0123034D01*
X0192862Y0122337D01*
X0193322Y0121704D01*
X0193875Y0121150D01*
X0194508Y0120691D01*
X0194098Y0120989D02*
X0049593Y0120989D01*
X0049815Y0121150D02*
X0049182Y0120691D01*
X0048485Y0120335D01*
X0047740Y0120093D01*
X0046967Y0119971D01*
X0046576Y0119971D01*
X0046576Y0124943D01*
X0051548Y0124943D01*
X0051548Y0124551D01*
X0051425Y0123778D01*
X0051184Y0123034D01*
X0050828Y0122337D01*
X0050368Y0121704D01*
X0049815Y0121150D01*
X0051298Y0123387D02*
X0192392Y0123387D01*
X0192214Y0125786D02*
X0051476Y0125786D01*
X0050365Y0128184D02*
X0193325Y0128184D01*
X0194790Y0130583D02*
X0048900Y0130583D01*
X0050994Y0132981D02*
X0192696Y0132981D01*
X0192343Y0135380D02*
X0051348Y0135380D01*
X0050331Y0137779D02*
X0193359Y0137779D01*
X0192799Y0142576D02*
X0050891Y0142576D01*
X0051348Y0144974D02*
X0192343Y0144974D01*
X0193111Y0147373D02*
X0050579Y0147373D01*
X0049279Y0150425D02*
X0050621Y0151767D01*
X0051348Y0153521D01*
X0051348Y0155419D01*
X0050621Y0157173D01*
X0049279Y0158515D01*
X0047525Y0159242D01*
X0045627Y0159242D01*
X0043873Y0158515D01*
X0042531Y0157173D01*
X0041805Y0155419D01*
X0041805Y0153521D01*
X0042531Y0151767D01*
X0043873Y0150425D01*
X0045627Y0149699D01*
X0047525Y0149699D01*
X0049279Y0150425D01*
X0047700Y0149771D02*
X0195990Y0149771D01*
X0198238Y0149771D02*
X0206163Y0149771D01*
X0209446Y0152402D02*
X0209278Y0171118D01*
X0209404Y0171245D01*
X0209517Y0190400D01*
X0213698Y0190546D02*
X0326541Y0190546D01*
X0326493Y0190662D02*
X0326894Y0189695D01*
X0326894Y0167750D01*
X0326549Y0167405D01*
X0325913Y0165868D01*
X0325913Y0164205D01*
X0326549Y0162668D01*
X0327725Y0161492D01*
X0329262Y0160856D01*
X0330925Y0160856D01*
X0332462Y0161492D01*
X0333638Y0162668D01*
X0334275Y0164205D01*
X0334275Y0165868D01*
X0333638Y0167405D01*
X0333294Y0167750D01*
X0333294Y0188200D01*
X0334219Y0189125D01*
X0334855Y0190662D01*
X0334855Y0192325D01*
X0334219Y0193862D01*
X0333043Y0195038D01*
X0331506Y0195674D01*
X0329843Y0195674D01*
X0328306Y0195038D01*
X0327130Y0193862D01*
X0326493Y0192325D01*
X0326493Y0190662D01*
X0326750Y0192944D02*
X0212886Y0192944D01*
X0213109Y0188147D02*
X0326894Y0188147D01*
X0326894Y0185749D02*
X0212690Y0185749D01*
X0212675Y0183350D02*
X0326894Y0183350D01*
X0326894Y0180952D02*
X0212661Y0180952D01*
X0212647Y0178553D02*
X0326894Y0178553D01*
X0326894Y0176155D02*
X0212633Y0176155D01*
X0212619Y0173756D02*
X0326894Y0173756D01*
X0326894Y0171358D02*
X0212605Y0171358D01*
X0212497Y0168959D02*
X0326894Y0168959D01*
X0326199Y0166561D02*
X0212519Y0166561D01*
X0212540Y0164162D02*
X0325930Y0164162D01*
X0327454Y0161764D02*
X0212562Y0161764D01*
X0213638Y0159694D02*
X0214827Y0157450D01*
X0215441Y0157250D01*
X0216606Y0156967D02*
X0212605Y0156967D01*
X0212583Y0159365D02*
X0399278Y0159365D01*
X0399278Y0156967D02*
X0224867Y0156967D01*
X0224782Y0157173D02*
X0223440Y0158515D01*
X0221686Y0159242D01*
X0219787Y0159242D01*
X0218034Y0158515D01*
X0216691Y0157173D01*
X0215965Y0155419D01*
X0215965Y0153521D01*
X0216691Y0151767D01*
X0218034Y0150425D01*
X0219787Y0149699D01*
X0221686Y0149699D01*
X0223440Y0150425D01*
X0224782Y0151767D01*
X0225508Y0153521D01*
X0225508Y0155419D01*
X0224782Y0157173D01*
X0225508Y0154568D02*
X0399278Y0154568D01*
X0399278Y0152170D02*
X0224948Y0152170D01*
X0221861Y0149771D02*
X0399278Y0149771D01*
X0399278Y0147373D02*
X0224740Y0147373D01*
X0225508Y0144974D02*
X0399278Y0144974D01*
X0399278Y0142576D02*
X0225051Y0142576D01*
X0222461Y0140177D02*
X0399278Y0140177D01*
X0399278Y0137779D02*
X0224491Y0137779D01*
X0224782Y0137488D02*
X0223440Y0138830D01*
X0221686Y0139557D01*
X0219787Y0139557D01*
X0218034Y0138830D01*
X0216691Y0137488D01*
X0215965Y0135734D01*
X0215965Y0133836D01*
X0216691Y0132082D01*
X0218034Y0130740D01*
X0219787Y0130014D01*
X0221686Y0130014D01*
X0223440Y0130740D01*
X0224782Y0132082D01*
X0225508Y0133836D01*
X0225508Y0135734D01*
X0224782Y0137488D01*
X0225508Y0135380D02*
X0399278Y0135380D01*
X0399278Y0132981D02*
X0225154Y0132981D01*
X0223061Y0130583D02*
X0399278Y0130583D01*
X0399278Y0128184D02*
X0224526Y0128184D01*
X0224529Y0128181D02*
X0223975Y0128735D01*
X0223342Y0129195D01*
X0222645Y0129550D01*
X0221901Y0129792D01*
X0221128Y0129914D01*
X0220737Y0129914D01*
X0220737Y0124943D01*
X0220737Y0124943D01*
X0225708Y0124943D01*
X0225708Y0125334D01*
X0225586Y0126107D01*
X0225344Y0126851D01*
X0224989Y0127548D01*
X0224529Y0128181D01*
X0225637Y0125786D02*
X0399278Y0125786D01*
X0399278Y0123387D02*
X0225459Y0123387D01*
X0225344Y0123034D02*
X0225586Y0123778D01*
X0225708Y0124551D01*
X0225708Y0124943D01*
X0220737Y0124943D01*
X0220737Y0124943D01*
X0220737Y0129914D01*
X0220345Y0129914D01*
X0219572Y0129792D01*
X0218828Y0129550D01*
X0218131Y0129195D01*
X0217498Y0128735D01*
X0216944Y0128181D01*
X0216485Y0127548D01*
X0216129Y0126851D01*
X0215887Y0126107D01*
X0215765Y0125334D01*
X0215765Y0124943D01*
X0220737Y0124943D01*
X0220737Y0124943D01*
X0220737Y0119971D01*
X0221128Y0119971D01*
X0221901Y0120093D01*
X0222645Y0120335D01*
X0223342Y0120691D01*
X0223975Y0121150D01*
X0224529Y0121704D01*
X0224989Y0122337D01*
X0225344Y0123034D01*
X0223753Y0120989D02*
X0399278Y0120989D01*
X0399278Y0118590D02*
X0223994Y0118590D01*
X0225449Y0116192D02*
X0399278Y0116192D01*
X0399278Y0113793D02*
X0225360Y0113793D01*
X0223780Y0111395D02*
X0399278Y0111395D01*
X0399278Y0108996D02*
X0223746Y0108996D01*
X0225346Y0106598D02*
X0399278Y0106598D01*
X0399278Y0104199D02*
X0226320Y0104199D01*
X0228719Y0101801D02*
X0399278Y0101801D01*
X0399278Y0099402D02*
X0231117Y0099402D01*
X0233516Y0097004D02*
X0399278Y0097004D01*
X0399278Y0094605D02*
X0398719Y0094605D01*
X0395521Y0094605D02*
X0273347Y0094605D01*
X0273925Y0092207D02*
X0279705Y0092207D01*
X0278694Y0089808D02*
X0273086Y0089808D01*
X0271977Y0087410D02*
X0276296Y0087410D01*
X0275577Y0085011D02*
X0271977Y0085011D01*
X0271977Y0082613D02*
X0275577Y0082613D01*
X0275577Y0080214D02*
X0271977Y0080214D01*
X0271977Y0077816D02*
X0275577Y0077816D01*
X0275577Y0075417D02*
X0271977Y0075417D01*
X0271977Y0073019D02*
X0275577Y0073019D01*
X0275577Y0070620D02*
X0271977Y0070620D01*
X0271977Y0068222D02*
X0275577Y0068222D01*
X0275577Y0065823D02*
X0271977Y0065823D01*
X0271977Y0063425D02*
X0275577Y0063425D01*
X0275577Y0061026D02*
X0271977Y0061026D01*
X0271977Y0058628D02*
X0275577Y0058628D01*
X0275577Y0056229D02*
X0271977Y0056229D01*
X0271977Y0053831D02*
X0275577Y0053831D01*
X0275577Y0051432D02*
X0271977Y0051432D01*
X0271977Y0049034D02*
X0275577Y0049034D01*
X0275577Y0046635D02*
X0271977Y0046635D01*
X0271977Y0044237D02*
X0275577Y0044237D01*
X0275577Y0041838D02*
X0271977Y0041838D01*
X0271977Y0039440D02*
X0275577Y0039440D01*
X0275577Y0037041D02*
X0271977Y0037041D01*
X0271977Y0034643D02*
X0275577Y0034643D01*
X0275577Y0032244D02*
X0271977Y0032244D01*
X0271977Y0029845D02*
X0275577Y0029845D01*
X0275496Y0027447D02*
X0272059Y0027447D01*
X0273613Y0025048D02*
X0273941Y0025048D01*
X0273777Y0024652D02*
X0273777Y0016663D01*
X0273777Y0024652D01*
X0273777Y0022650D02*
X0273777Y0022650D01*
X0273777Y0020251D02*
X0273777Y0020251D01*
X0273777Y0017853D02*
X0273777Y0017853D01*
X0273777Y0016663D02*
X0273651Y0016357D01*
X0273904Y0016357D01*
X0273777Y0016663D01*
X0268777Y0020657D02*
X0268777Y0091413D01*
X0269744Y0092379D01*
X0265562Y0092207D02*
X0238313Y0092207D01*
X0235914Y0094605D02*
X0266140Y0094605D01*
X0265577Y0089808D02*
X0240711Y0089808D01*
X0243110Y0087410D02*
X0265577Y0087410D01*
X0265577Y0085011D02*
X0245508Y0085011D01*
X0247907Y0082613D02*
X0265577Y0082613D01*
X0265577Y0080214D02*
X0250305Y0080214D01*
X0252704Y0077816D02*
X0265577Y0077816D01*
X0265577Y0075417D02*
X0255103Y0075417D01*
X0257501Y0073019D02*
X0265577Y0073019D01*
X0265577Y0070620D02*
X0259900Y0070620D01*
X0260813Y0068222D02*
X0265577Y0068222D01*
X0265577Y0065823D02*
X0260813Y0065823D01*
X0260813Y0063425D02*
X0265577Y0063425D01*
X0265577Y0061026D02*
X0260813Y0061026D01*
X0260813Y0058628D02*
X0265577Y0058628D01*
X0265577Y0056229D02*
X0260813Y0056229D01*
X0260813Y0053831D02*
X0265577Y0053831D01*
X0265577Y0051432D02*
X0260813Y0051432D01*
X0260813Y0049034D02*
X0265577Y0049034D01*
X0265577Y0046635D02*
X0260813Y0046635D01*
X0260813Y0044237D02*
X0265577Y0044237D01*
X0265577Y0041838D02*
X0260813Y0041838D01*
X0260813Y0039440D02*
X0265577Y0039440D01*
X0265577Y0037041D02*
X0260813Y0037041D01*
X0261631Y0034643D02*
X0265577Y0034643D01*
X0265577Y0032244D02*
X0261653Y0032244D01*
X0259918Y0029845D02*
X0265577Y0029845D01*
X0265496Y0027447D02*
X0262059Y0027447D01*
X0263613Y0025048D02*
X0263941Y0025048D01*
X0263777Y0024652D02*
X0263777Y0016663D01*
X0263777Y0024652D01*
X0263777Y0022650D02*
X0263777Y0022650D01*
X0263777Y0020251D02*
X0263777Y0020251D01*
X0263777Y0017853D02*
X0263777Y0017853D01*
X0263777Y0016663D02*
X0263651Y0016357D01*
X0263904Y0016357D01*
X0263777Y0016663D01*
X0258777Y0020657D02*
X0258777Y0024847D01*
X0258772Y0024847D01*
X0182462Y0096616D01*
X0180421Y0096616D01*
X0182462Y0096616D02*
X0182819Y0096616D01*
X0184454Y0099402D02*
X0208526Y0099402D01*
X0208526Y0097004D02*
X0186720Y0097004D01*
X0189271Y0094605D02*
X0209440Y0094605D01*
X0209913Y0094133D02*
X0209913Y0094133D01*
X0211839Y0092207D02*
X0191821Y0092207D01*
X0194371Y0089808D02*
X0214237Y0089808D01*
X0216636Y0087410D02*
X0196921Y0087410D01*
X0199472Y0085011D02*
X0219034Y0085011D01*
X0221433Y0082613D02*
X0202022Y0082613D01*
X0204572Y0080214D02*
X0223831Y0080214D01*
X0226230Y0077816D02*
X0207122Y0077816D01*
X0209673Y0075417D02*
X0228629Y0075417D01*
X0231027Y0073019D02*
X0212223Y0073019D01*
X0214773Y0070620D02*
X0233426Y0070620D01*
X0235824Y0068222D02*
X0217324Y0068222D01*
X0219874Y0065823D02*
X0238223Y0065823D01*
X0240621Y0063425D02*
X0222424Y0063425D01*
X0224974Y0061026D02*
X0243020Y0061026D01*
X0245418Y0058628D02*
X0227525Y0058628D01*
X0230075Y0056229D02*
X0247817Y0056229D01*
X0247880Y0053831D02*
X0232625Y0053831D01*
X0235175Y0051432D02*
X0247880Y0051432D01*
X0247880Y0049034D02*
X0237726Y0049034D01*
X0240276Y0046635D02*
X0247880Y0046635D01*
X0247880Y0044237D02*
X0242826Y0044237D01*
X0245377Y0041838D02*
X0246933Y0041838D01*
X0251080Y0040922D02*
X0251080Y0057492D01*
X0211726Y0096846D01*
X0211726Y0112899D01*
X0213817Y0114990D01*
X0220627Y0114990D01*
X0220737Y0115100D01*
X0217479Y0118590D02*
X0200372Y0118590D01*
X0199720Y0120691D02*
X0200353Y0121150D01*
X0200906Y0121704D01*
X0201366Y0122337D01*
X0201722Y0123034D01*
X0201963Y0123778D01*
X0202086Y0124551D01*
X0202086Y0124943D01*
X0197114Y0124943D01*
X0197114Y0124943D01*
X0197114Y0119971D01*
X0197505Y0119971D01*
X0198278Y0120093D01*
X0199023Y0120335D01*
X0199720Y0120691D01*
X0200131Y0120989D02*
X0217720Y0120989D01*
X0217498Y0121150D02*
X0218131Y0120691D01*
X0218828Y0120335D01*
X0219572Y0120093D01*
X0220345Y0119971D01*
X0220737Y0119971D01*
X0220737Y0124943D01*
X0220737Y0124943D01*
X0215765Y0124943D01*
X0215765Y0124551D01*
X0215887Y0123778D01*
X0216129Y0123034D01*
X0216485Y0122337D01*
X0216944Y0121704D01*
X0217498Y0121150D01*
X0216014Y0123387D02*
X0201836Y0123387D01*
X0202014Y0125786D02*
X0215837Y0125786D01*
X0216948Y0128184D02*
X0200903Y0128184D01*
X0199438Y0130583D02*
X0218413Y0130583D01*
X0216319Y0132981D02*
X0201532Y0132981D01*
X0201886Y0135380D02*
X0215965Y0135380D01*
X0216982Y0137779D02*
X0200869Y0137779D01*
X0197114Y0128184D02*
X0197114Y0128184D01*
X0197114Y0125786D02*
X0197114Y0125786D01*
X0197114Y0123387D02*
X0197114Y0123387D01*
X0197114Y0120989D02*
X0197114Y0120989D01*
X0197114Y0115100D02*
X0178633Y0115100D01*
X0168658Y0105125D01*
X0168658Y0095515D01*
X0148515Y0075372D01*
X0112411Y0075372D01*
X0095434Y0058395D01*
X0095434Y0057681D01*
X0095374Y0057621D01*
X0095374Y0022254D01*
X0093777Y0020657D01*
X0088777Y0020251D02*
X0088777Y0020251D01*
X0088777Y0017853D02*
X0088777Y0017853D01*
X0088777Y0016663D02*
X0088777Y0024652D01*
X0088777Y0016663D01*
X0088651Y0016357D01*
X0088904Y0016357D01*
X0088777Y0016663D01*
X0088777Y0022650D02*
X0088777Y0022650D01*
X0088613Y0025048D02*
X0088941Y0025048D01*
X0083777Y0020657D02*
X0083218Y0021216D01*
X0083218Y0027437D01*
X0052593Y0058063D01*
X0052593Y0107285D01*
X0055793Y0106598D02*
X0131844Y0106598D01*
X0129446Y0104199D02*
X0055793Y0104199D01*
X0055793Y0101801D02*
X0127047Y0101801D01*
X0124649Y0099402D02*
X0055793Y0099402D01*
X0055793Y0097004D02*
X0122250Y0097004D01*
X0119852Y0094605D02*
X0055793Y0094605D01*
X0055793Y0092207D02*
X0117453Y0092207D01*
X0115055Y0089808D02*
X0055793Y0089808D01*
X0055793Y0087410D02*
X0112656Y0087410D01*
X0110258Y0085011D02*
X0055793Y0085011D01*
X0055793Y0082613D02*
X0107859Y0082613D01*
X0105461Y0080214D02*
X0055793Y0080214D01*
X0055793Y0077816D02*
X0103062Y0077816D01*
X0100664Y0075417D02*
X0055793Y0075417D01*
X0055793Y0073019D02*
X0098265Y0073019D01*
X0095867Y0070620D02*
X0055793Y0070620D01*
X0055793Y0068222D02*
X0093468Y0068222D01*
X0091070Y0065823D02*
X0055793Y0065823D01*
X0055793Y0063425D02*
X0088671Y0063425D01*
X0086273Y0061026D02*
X0055793Y0061026D01*
X0056553Y0058628D02*
X0083874Y0058628D01*
X0081476Y0056229D02*
X0058952Y0056229D01*
X0061350Y0053831D02*
X0079692Y0053831D01*
X0078953Y0051432D02*
X0063749Y0051432D01*
X0066147Y0049034D02*
X0079572Y0049034D01*
X0083134Y0051360D02*
X0083134Y0053362D01*
X0136080Y0106308D01*
X0139709Y0106308D01*
X0139676Y0106603D01*
X0143857Y0106598D02*
X0165804Y0106598D01*
X0165458Y0104199D02*
X0143185Y0104199D01*
X0143196Y0108996D02*
X0168004Y0108996D01*
X0170402Y0111395D02*
X0055481Y0111395D01*
X0055816Y0108996D02*
X0134243Y0108996D01*
X0136098Y0101801D02*
X0165458Y0101801D01*
X0165458Y0099402D02*
X0133700Y0099402D01*
X0131301Y0097004D02*
X0165458Y0097004D01*
X0163222Y0094605D02*
X0128903Y0094605D01*
X0126504Y0092207D02*
X0160824Y0092207D01*
X0158425Y0089808D02*
X0124106Y0089808D01*
X0121707Y0087410D02*
X0156027Y0087410D01*
X0153628Y0085011D02*
X0119309Y0085011D01*
X0116910Y0082613D02*
X0151230Y0082613D01*
X0148831Y0080214D02*
X0114512Y0080214D01*
X0113418Y0070015D02*
X0150637Y0070015D01*
X0172895Y0092274D01*
X0172895Y0100058D01*
X0182344Y0109507D01*
X0192009Y0109507D01*
X0196258Y0105258D01*
X0197114Y0105258D01*
X0200124Y0108996D02*
X0208526Y0108996D01*
X0208526Y0106598D02*
X0201724Y0106598D01*
X0201841Y0104199D02*
X0208526Y0104199D01*
X0208526Y0101801D02*
X0200406Y0101801D01*
X0193823Y0101801D02*
X0179164Y0101801D01*
X0177295Y0099402D02*
X0176765Y0099402D01*
X0176240Y0097004D02*
X0176095Y0097004D01*
X0176095Y0094605D02*
X0176729Y0094605D01*
X0176095Y0092207D02*
X0182479Y0092207D01*
X0184494Y0089808D02*
X0185029Y0089808D01*
X0186550Y0087410D02*
X0187580Y0087410D01*
X0188949Y0085011D02*
X0190130Y0085011D01*
X0191347Y0082613D02*
X0192680Y0082613D01*
X0193746Y0080214D02*
X0195231Y0080214D01*
X0196144Y0077816D02*
X0197781Y0077816D01*
X0198543Y0075417D02*
X0200331Y0075417D01*
X0200941Y0073019D02*
X0202881Y0073019D01*
X0203340Y0070620D02*
X0205432Y0070620D01*
X0205738Y0068222D02*
X0207982Y0068222D01*
X0208137Y0065823D02*
X0210532Y0065823D01*
X0210535Y0063425D02*
X0213082Y0063425D01*
X0212934Y0061026D02*
X0215633Y0061026D01*
X0215332Y0058628D02*
X0218183Y0058628D01*
X0217731Y0056229D02*
X0220733Y0056229D01*
X0220129Y0053831D02*
X0223284Y0053831D01*
X0222528Y0051432D02*
X0225834Y0051432D01*
X0224926Y0049034D02*
X0228384Y0049034D01*
X0227325Y0046635D02*
X0230934Y0046635D01*
X0229723Y0044237D02*
X0233485Y0044237D01*
X0232122Y0041838D02*
X0236035Y0041838D01*
X0234520Y0039440D02*
X0238585Y0039440D01*
X0236919Y0037041D02*
X0241135Y0037041D01*
X0239317Y0034643D02*
X0243686Y0034643D01*
X0241716Y0032244D02*
X0246236Y0032244D01*
X0244114Y0029845D02*
X0248786Y0029845D01*
X0257613Y0033416D02*
X0257613Y0068381D01*
X0220737Y0105258D01*
X0217727Y0108996D02*
X0214926Y0108996D01*
X0214926Y0106598D02*
X0216127Y0106598D01*
X0216010Y0104199D02*
X0214926Y0104199D01*
X0214926Y0101801D02*
X0217445Y0101801D01*
X0214926Y0099402D02*
X0222066Y0099402D01*
X0224465Y0097004D02*
X0216093Y0097004D01*
X0218491Y0094605D02*
X0226863Y0094605D01*
X0229262Y0092207D02*
X0220890Y0092207D01*
X0223288Y0089808D02*
X0231660Y0089808D01*
X0234059Y0087410D02*
X0225687Y0087410D01*
X0228085Y0085011D02*
X0236458Y0085011D01*
X0238856Y0082613D02*
X0230484Y0082613D01*
X0232882Y0080214D02*
X0241255Y0080214D01*
X0243653Y0077816D02*
X0235281Y0077816D01*
X0237679Y0075417D02*
X0246052Y0075417D01*
X0248450Y0073019D02*
X0240078Y0073019D01*
X0242477Y0070620D02*
X0250849Y0070620D01*
X0253247Y0068222D02*
X0244875Y0068222D01*
X0247274Y0065823D02*
X0254413Y0065823D01*
X0254413Y0063425D02*
X0249672Y0063425D01*
X0252071Y0061026D02*
X0254413Y0061026D01*
X0254413Y0058628D02*
X0254073Y0058628D01*
X0254280Y0056229D02*
X0254413Y0056229D01*
X0254413Y0053831D02*
X0254280Y0053831D01*
X0254280Y0051432D02*
X0254413Y0051432D01*
X0254413Y0049034D02*
X0254280Y0049034D01*
X0254280Y0046635D02*
X0254413Y0046635D01*
X0254413Y0044237D02*
X0254280Y0044237D01*
X0281977Y0044237D02*
X0285577Y0044237D01*
X0285577Y0046635D02*
X0281977Y0046635D01*
X0281977Y0049034D02*
X0285577Y0049034D01*
X0285577Y0051432D02*
X0281977Y0051432D01*
X0281977Y0053831D02*
X0285577Y0053831D01*
X0285577Y0056229D02*
X0281977Y0056229D01*
X0281977Y0058628D02*
X0285577Y0058628D01*
X0285577Y0061026D02*
X0281977Y0061026D01*
X0281977Y0063425D02*
X0285577Y0063425D01*
X0285577Y0065823D02*
X0281977Y0065823D01*
X0281977Y0068222D02*
X0285577Y0068222D01*
X0285577Y0070620D02*
X0281977Y0070620D01*
X0281977Y0073019D02*
X0285577Y0073019D01*
X0285577Y0075417D02*
X0281977Y0075417D01*
X0281977Y0077816D02*
X0285577Y0077816D01*
X0285577Y0080214D02*
X0281977Y0080214D01*
X0281977Y0082613D02*
X0285577Y0082613D01*
X0285904Y0085011D02*
X0282948Y0085011D01*
X0278777Y0085366D02*
X0278777Y0020657D01*
X0283613Y0025048D02*
X0283941Y0025048D01*
X0283777Y0024652D02*
X0283777Y0016663D01*
X0283777Y0024652D01*
X0283777Y0022650D02*
X0283777Y0022650D01*
X0283777Y0020251D02*
X0283777Y0020251D01*
X0283777Y0017853D02*
X0283777Y0017853D01*
X0283777Y0016663D02*
X0283651Y0016357D01*
X0283904Y0016357D01*
X0283777Y0016663D01*
X0288777Y0020657D02*
X0288777Y0083585D01*
X0293121Y0087929D01*
X0296868Y0089808D02*
X0299127Y0089808D01*
X0297967Y0087410D02*
X0297302Y0087410D01*
X0298777Y0083694D02*
X0302776Y0087693D01*
X0306957Y0087410D02*
X0356366Y0087410D01*
X0355852Y0089808D02*
X0306425Y0089808D01*
X0306007Y0085011D02*
X0399278Y0085011D01*
X0399278Y0082613D02*
X0302221Y0082613D01*
X0301977Y0080214D02*
X0399278Y0080214D01*
X0399278Y0077816D02*
X0301977Y0077816D01*
X0301977Y0075417D02*
X0399278Y0075417D01*
X0399278Y0073019D02*
X0301977Y0073019D01*
X0301977Y0070620D02*
X0399278Y0070620D01*
X0399278Y0068222D02*
X0301977Y0068222D01*
X0301977Y0065823D02*
X0399278Y0065823D01*
X0399278Y0063425D02*
X0301977Y0063425D01*
X0301977Y0061026D02*
X0399278Y0061026D01*
X0399278Y0058628D02*
X0370973Y0058628D01*
X0371719Y0057882D02*
X0370049Y0059552D01*
X0367867Y0060456D01*
X0357631Y0060456D01*
X0355449Y0059552D01*
X0353779Y0057882D01*
X0352875Y0055700D01*
X0352875Y0053338D01*
X0353779Y0051156D01*
X0355449Y0049485D01*
X0357631Y0048582D01*
X0367867Y0048582D01*
X0370049Y0049485D01*
X0371719Y0051156D01*
X0372623Y0053338D01*
X0372623Y0055700D01*
X0371719Y0057882D01*
X0372403Y0056229D02*
X0399278Y0056229D01*
X0399278Y0053831D02*
X0372623Y0053831D01*
X0371834Y0051432D02*
X0399278Y0051432D01*
X0399278Y0049034D02*
X0368958Y0049034D01*
X0372165Y0045521D02*
X0373083Y0045820D01*
X0374037Y0045971D01*
X0374520Y0045971D01*
X0374520Y0035897D01*
X0368383Y0035897D01*
X0368383Y0031477D01*
X0368534Y0030523D01*
X0368833Y0029604D01*
X0369272Y0028744D01*
X0369839Y0027962D01*
X0370522Y0027279D01*
X0371304Y0026711D01*
X0372165Y0026273D01*
X0373083Y0025974D01*
X0374037Y0025823D01*
X0374520Y0025823D01*
X0374520Y0035897D01*
X0374520Y0035897D01*
X0368383Y0035897D01*
X0368383Y0040317D01*
X0368534Y0041271D01*
X0368833Y0042190D01*
X0369272Y0043051D01*
X0369839Y0043832D01*
X0370522Y0044515D01*
X0371304Y0045083D01*
X0372165Y0045521D01*
X0370244Y0044237D02*
X0355004Y0044237D01*
X0354353Y0044887D02*
X0352171Y0045791D01*
X0349809Y0045791D01*
X0347627Y0044887D01*
X0345957Y0043217D01*
X0345053Y0041035D01*
X0345053Y0030799D01*
X0345957Y0028617D01*
X0347627Y0026947D01*
X0349809Y0026043D01*
X0352171Y0026043D01*
X0354353Y0026947D01*
X0356023Y0028617D01*
X0356927Y0030799D01*
X0356927Y0041035D01*
X0356023Y0043217D01*
X0354353Y0044887D01*
X0356594Y0041838D02*
X0368719Y0041838D01*
X0368383Y0039440D02*
X0356927Y0039440D01*
X0356927Y0037041D02*
X0368383Y0037041D01*
X0368383Y0034643D02*
X0356927Y0034643D01*
X0356927Y0032244D02*
X0368383Y0032244D01*
X0368755Y0029845D02*
X0356532Y0029845D01*
X0354853Y0027447D02*
X0370354Y0027447D01*
X0374520Y0027447D02*
X0374520Y0027447D01*
X0374520Y0025823D02*
X0375003Y0025823D01*
X0375957Y0025974D01*
X0376876Y0026273D01*
X0377737Y0026711D01*
X0378518Y0027279D01*
X0379201Y0027962D01*
X0379769Y0028744D01*
X0380208Y0029604D01*
X0380506Y0030523D01*
X0380657Y0031477D01*
X0380657Y0035897D01*
X0374521Y0035897D01*
X0374521Y0035897D01*
X0380657Y0035897D01*
X0380657Y0040317D01*
X0380506Y0041271D01*
X0380208Y0042190D01*
X0379769Y0043051D01*
X0379201Y0043832D01*
X0378518Y0044515D01*
X0377737Y0045083D01*
X0376876Y0045521D01*
X0375957Y0045820D01*
X0375003Y0045971D01*
X0374520Y0045971D01*
X0374520Y0035897D01*
X0374520Y0035897D01*
X0374520Y0035897D01*
X0374520Y0025823D01*
X0378686Y0027447D02*
X0399278Y0027447D01*
X0399278Y0029845D02*
X0380286Y0029845D01*
X0380657Y0032244D02*
X0399278Y0032244D01*
X0399278Y0034643D02*
X0380657Y0034643D01*
X0380657Y0037041D02*
X0399278Y0037041D01*
X0399278Y0039440D02*
X0380657Y0039440D01*
X0380322Y0041838D02*
X0399278Y0041838D01*
X0399278Y0044237D02*
X0378797Y0044237D01*
X0374520Y0044237D02*
X0374520Y0044237D01*
X0374520Y0041838D02*
X0374520Y0041838D01*
X0374520Y0039440D02*
X0374520Y0039440D01*
X0374520Y0037041D02*
X0374520Y0037041D01*
X0374520Y0034643D02*
X0374520Y0034643D01*
X0374520Y0032244D02*
X0374520Y0032244D01*
X0374520Y0029845D02*
X0374520Y0029845D01*
X0399278Y0025048D02*
X0323613Y0025048D01*
X0323777Y0022650D02*
X0399278Y0022650D01*
X0399278Y0020251D02*
X0323777Y0020251D01*
X0323777Y0017853D02*
X0399278Y0017853D01*
X0347127Y0027447D02*
X0322059Y0027447D01*
X0315496Y0027447D02*
X0312059Y0027447D01*
X0305496Y0027447D02*
X0302059Y0027447D01*
X0301977Y0029845D02*
X0345448Y0029845D01*
X0345053Y0032244D02*
X0301977Y0032244D01*
X0301977Y0034643D02*
X0345053Y0034643D01*
X0345053Y0037041D02*
X0301977Y0037041D01*
X0301977Y0039440D02*
X0345053Y0039440D01*
X0345385Y0041838D02*
X0301977Y0041838D01*
X0301977Y0044237D02*
X0346976Y0044237D01*
X0356540Y0049034D02*
X0301977Y0049034D01*
X0301977Y0051432D02*
X0353664Y0051432D01*
X0352875Y0053831D02*
X0301977Y0053831D01*
X0301977Y0056229D02*
X0353094Y0056229D01*
X0354525Y0058628D02*
X0301977Y0058628D01*
X0301977Y0046635D02*
X0399278Y0046635D01*
X0388641Y0065473D02*
X0388641Y0065570D01*
X0384366Y0065570D01*
X0395860Y0089482D02*
X0360033Y0089482D01*
X0356845Y0092207D02*
X0286266Y0092207D01*
X0287167Y0089808D02*
X0289374Y0089808D01*
X0288076Y0087410D02*
X0286615Y0087410D01*
X0282986Y0089574D02*
X0278777Y0085366D01*
X0298777Y0083694D02*
X0298777Y0020657D01*
X0303777Y0020251D02*
X0303777Y0020251D01*
X0303777Y0017853D02*
X0303777Y0017853D01*
X0303777Y0016663D02*
X0303777Y0024652D01*
X0303777Y0016663D01*
X0303651Y0016357D01*
X0303904Y0016357D01*
X0303777Y0016663D01*
X0303777Y0022650D02*
X0303777Y0022650D01*
X0303613Y0025048D02*
X0303941Y0025048D01*
X0313613Y0025048D02*
X0313941Y0025048D01*
X0313777Y0024652D02*
X0313777Y0016663D01*
X0313777Y0024652D01*
X0313777Y0022650D02*
X0313777Y0022650D01*
X0313777Y0020251D02*
X0313777Y0020251D01*
X0313777Y0017853D02*
X0313777Y0017853D01*
X0313777Y0016663D02*
X0313651Y0016357D01*
X0313904Y0016357D01*
X0313777Y0016663D01*
X0285496Y0027447D02*
X0282059Y0027447D01*
X0281977Y0029845D02*
X0285577Y0029845D01*
X0285577Y0032244D02*
X0281977Y0032244D01*
X0281977Y0034643D02*
X0285577Y0034643D01*
X0285577Y0037041D02*
X0281977Y0037041D01*
X0281977Y0039440D02*
X0285577Y0039440D01*
X0285577Y0041838D02*
X0281977Y0041838D01*
X0248777Y0020657D02*
X0182297Y0087137D01*
X0181252Y0087137D01*
X0177071Y0087410D02*
X0172556Y0087410D01*
X0170158Y0085011D02*
X0177607Y0085011D01*
X0179879Y0082613D02*
X0167759Y0082613D01*
X0165361Y0080214D02*
X0177261Y0080214D01*
X0176938Y0077816D02*
X0162962Y0077816D01*
X0160564Y0075417D02*
X0178389Y0075417D01*
X0181119Y0078601D02*
X0233777Y0025942D01*
X0233777Y0020657D01*
X0223777Y0020657D02*
X0223777Y0026249D01*
X0181050Y0068976D01*
X0177206Y0070620D02*
X0155767Y0070620D01*
X0153368Y0068222D02*
X0176869Y0068222D01*
X0178290Y0065823D02*
X0113751Y0065823D01*
X0111352Y0063425D02*
X0177255Y0063425D01*
X0176466Y0061026D02*
X0145708Y0061026D01*
X0146019Y0060925D02*
X0145136Y0061212D01*
X0144218Y0061357D01*
X0143754Y0061357D01*
X0143290Y0061357D01*
X0142372Y0061212D01*
X0141489Y0060925D01*
X0140662Y0060504D01*
X0139910Y0059958D01*
X0139254Y0059301D01*
X0138754Y0058613D01*
X0138254Y0059301D01*
X0137598Y0059958D01*
X0136846Y0060504D01*
X0136019Y0060925D01*
X0135136Y0061212D01*
X0134218Y0061357D01*
X0133754Y0061357D01*
X0133290Y0061357D01*
X0132372Y0061212D01*
X0131489Y0060925D01*
X0130662Y0060504D01*
X0129910Y0059958D01*
X0129254Y0059301D01*
X0128754Y0058613D01*
X0128254Y0059301D01*
X0127598Y0059958D01*
X0126846Y0060504D01*
X0126019Y0060925D01*
X0125136Y0061212D01*
X0124218Y0061357D01*
X0123754Y0061357D01*
X0123290Y0061357D01*
X0122372Y0061212D01*
X0121489Y0060925D01*
X0120662Y0060504D01*
X0119910Y0059958D01*
X0119254Y0059301D01*
X0118754Y0058613D01*
X0118254Y0059301D01*
X0117598Y0059958D01*
X0116846Y0060504D01*
X0116019Y0060925D01*
X0115136Y0061212D01*
X0114218Y0061357D01*
X0113754Y0061357D01*
X0113290Y0061357D01*
X0112372Y0061212D01*
X0111489Y0060925D01*
X0110662Y0060504D01*
X0109910Y0059958D01*
X0109254Y0059301D01*
X0108708Y0058550D01*
X0108286Y0057722D01*
X0107999Y0056839D01*
X0107854Y0055922D01*
X0107854Y0055457D01*
X0107854Y0054993D01*
X0107999Y0054076D01*
X0108286Y0053193D01*
X0108708Y0052365D01*
X0109254Y0051614D01*
X0109910Y0050957D01*
X0110356Y0050634D01*
X0109525Y0050290D01*
X0107922Y0048686D01*
X0107054Y0046591D01*
X0107054Y0044324D01*
X0107922Y0042229D01*
X0109525Y0040625D01*
X0110470Y0040234D01*
X0108922Y0038686D01*
X0108054Y0036591D01*
X0108054Y0034324D01*
X0108922Y0032229D01*
X0110525Y0030625D01*
X0112620Y0029757D01*
X0114888Y0029757D01*
X0116983Y0030625D01*
X0118586Y0032229D01*
X0118754Y0032634D01*
X0118922Y0032229D01*
X0120525Y0030625D01*
X0122620Y0029757D01*
X0124888Y0029757D01*
X0126983Y0030625D01*
X0128586Y0032229D01*
X0128754Y0032634D01*
X0128922Y0032229D01*
X0130525Y0030625D01*
X0132620Y0029757D01*
X0134888Y0029757D01*
X0136983Y0030625D01*
X0138586Y0032229D01*
X0138754Y0032634D01*
X0138922Y0032229D01*
X0140525Y0030625D01*
X0142620Y0029757D01*
X0144888Y0029757D01*
X0146983Y0030625D01*
X0148586Y0032229D01*
X0149454Y0034324D01*
X0149454Y0036591D01*
X0148586Y0038686D01*
X0146983Y0040290D01*
X0146038Y0040681D01*
X0147586Y0042229D01*
X0148454Y0044324D01*
X0148454Y0046591D01*
X0147586Y0048686D01*
X0146194Y0050079D01*
X0146846Y0050411D01*
X0147598Y0050957D01*
X0148254Y0051614D01*
X0148800Y0052365D01*
X0149222Y0053193D01*
X0149509Y0054076D01*
X0149654Y0054993D01*
X0149654Y0055457D01*
X0143754Y0055457D01*
X0133754Y0055457D01*
X0129654Y0055457D01*
X0123754Y0055457D01*
X0113754Y0055457D01*
X0107854Y0055457D01*
X0113754Y0055457D01*
X0113754Y0055457D01*
X0113754Y0055457D01*
X0117854Y0055457D01*
X0123754Y0055457D01*
X0123754Y0055457D01*
X0123754Y0055457D01*
X0133754Y0055457D01*
X0133754Y0055457D01*
X0133754Y0055457D01*
X0137854Y0055457D01*
X0143754Y0055457D01*
X0143754Y0055457D01*
X0143754Y0055457D01*
X0149654Y0055457D01*
X0149654Y0055922D01*
X0149509Y0056839D01*
X0149222Y0057722D01*
X0148800Y0058550D01*
X0148254Y0059301D01*
X0147598Y0059958D01*
X0146846Y0060504D01*
X0146019Y0060925D01*
X0143754Y0061026D02*
X0143754Y0061026D01*
X0143754Y0061357D02*
X0143754Y0055458D01*
X0143754Y0055458D01*
X0143754Y0061357D01*
X0141800Y0061026D02*
X0135708Y0061026D01*
X0133754Y0061026D02*
X0133754Y0061026D01*
X0133754Y0061357D02*
X0133754Y0055458D01*
X0133754Y0055458D01*
X0133754Y0061357D01*
X0131800Y0061026D02*
X0125708Y0061026D01*
X0123754Y0061026D02*
X0123754Y0061026D01*
X0123754Y0061357D02*
X0123754Y0055458D01*
X0123754Y0055458D01*
X0123754Y0061357D01*
X0121800Y0061026D02*
X0115708Y0061026D01*
X0113754Y0061026D02*
X0113754Y0061026D01*
X0113754Y0061357D02*
X0113754Y0055458D01*
X0113754Y0055458D01*
X0113754Y0061357D01*
X0111800Y0061026D02*
X0108954Y0061026D01*
X0108765Y0058628D02*
X0106818Y0058628D01*
X0106818Y0056229D02*
X0107903Y0056229D01*
X0108079Y0053831D02*
X0106818Y0053831D01*
X0106818Y0051432D02*
X0109435Y0051432D01*
X0108269Y0049034D02*
X0106818Y0049034D01*
X0106818Y0046635D02*
X0107072Y0046635D01*
X0107090Y0044237D02*
X0106818Y0044237D01*
X0106818Y0041838D02*
X0108312Y0041838D01*
X0109675Y0039440D02*
X0106818Y0039440D01*
X0106818Y0037041D02*
X0108240Y0037041D01*
X0108054Y0034643D02*
X0106818Y0034643D01*
X0106818Y0032244D02*
X0108915Y0032244D01*
X0106818Y0029845D02*
X0112408Y0029845D01*
X0115101Y0029845D02*
X0122408Y0029845D01*
X0125101Y0029845D02*
X0132408Y0029845D01*
X0135101Y0029845D02*
X0142408Y0029845D01*
X0145101Y0029845D02*
X0197293Y0029845D01*
X0197059Y0027447D02*
X0199691Y0027447D01*
X0203777Y0027887D02*
X0203777Y0020657D01*
X0198777Y0020251D02*
X0198777Y0020251D01*
X0198777Y0017853D02*
X0198777Y0017853D01*
X0198777Y0016663D02*
X0198777Y0024652D01*
X0198777Y0016663D01*
X0198651Y0016357D01*
X0198904Y0016357D01*
X0198777Y0016663D01*
X0198777Y0022650D02*
X0198777Y0022650D01*
X0198613Y0025048D02*
X0198941Y0025048D01*
X0203777Y0027887D02*
X0180244Y0051420D01*
X0176063Y0051432D02*
X0148073Y0051432D01*
X0147239Y0049034D02*
X0176717Y0049034D01*
X0180503Y0046635D02*
X0148436Y0046635D01*
X0148418Y0044237D02*
X0182902Y0044237D01*
X0185300Y0041838D02*
X0147196Y0041838D01*
X0147833Y0039440D02*
X0187699Y0039440D01*
X0190097Y0037041D02*
X0149268Y0037041D01*
X0149454Y0034643D02*
X0192496Y0034643D01*
X0194894Y0032244D02*
X0148593Y0032244D01*
X0147059Y0027447D02*
X0160496Y0027447D01*
X0158941Y0025048D02*
X0148613Y0025048D01*
X0148777Y0022650D02*
X0158777Y0022650D01*
X0158777Y0020251D02*
X0148777Y0020251D01*
X0148777Y0017853D02*
X0158777Y0017853D01*
X0168651Y0016357D02*
X0168777Y0016663D01*
X0168777Y0024652D01*
X0168777Y0016663D01*
X0168904Y0016357D01*
X0168651Y0016357D01*
X0168777Y0017853D02*
X0168777Y0017853D01*
X0168777Y0020251D02*
X0168777Y0020251D01*
X0168777Y0022650D02*
X0168777Y0022650D01*
X0168613Y0025048D02*
X0168941Y0025048D01*
X0170496Y0027447D02*
X0167059Y0027447D01*
X0177059Y0027447D02*
X0180496Y0027447D01*
X0187059Y0027447D02*
X0190496Y0027447D01*
X0188941Y0025048D02*
X0188613Y0025048D01*
X0188777Y0024652D02*
X0188777Y0016663D01*
X0188651Y0016357D01*
X0188904Y0016357D01*
X0188777Y0016663D01*
X0188777Y0024652D01*
X0188777Y0022650D02*
X0188777Y0022650D01*
X0188777Y0020251D02*
X0188777Y0020251D01*
X0188777Y0017853D02*
X0188777Y0017853D01*
X0178904Y0016357D02*
X0178651Y0016357D01*
X0178777Y0016663D01*
X0178777Y0024652D01*
X0178777Y0016663D01*
X0178904Y0016357D01*
X0178777Y0017853D02*
X0178777Y0017853D01*
X0178777Y0020251D02*
X0178777Y0020251D01*
X0178777Y0022650D02*
X0178777Y0022650D01*
X0178613Y0025048D02*
X0178941Y0025048D01*
X0213777Y0027774D02*
X0213777Y0020657D01*
X0213777Y0027774D02*
X0180647Y0060904D01*
X0177064Y0058628D02*
X0148744Y0058628D01*
X0149605Y0056229D02*
X0180797Y0056229D01*
X0176742Y0053831D02*
X0149429Y0053831D01*
X0143754Y0056229D02*
X0143754Y0056229D01*
X0143754Y0058628D02*
X0143754Y0058628D01*
X0138765Y0058628D02*
X0138744Y0058628D01*
X0133754Y0058628D02*
X0133754Y0058628D01*
X0133754Y0056229D02*
X0133754Y0056229D01*
X0128765Y0058628D02*
X0128744Y0058628D01*
X0123754Y0058628D02*
X0123754Y0058628D01*
X0123754Y0056229D02*
X0123754Y0056229D01*
X0118765Y0058628D02*
X0118744Y0058628D01*
X0113754Y0058628D02*
X0113754Y0058628D01*
X0113754Y0056229D02*
X0113754Y0056229D01*
X0103619Y0060216D02*
X0113418Y0070015D01*
X0103619Y0060216D02*
X0103619Y0020816D01*
X0103777Y0020657D01*
X0108777Y0020251D02*
X0108777Y0020251D01*
X0108777Y0017853D02*
X0108777Y0017853D01*
X0108777Y0016663D02*
X0108777Y0024652D01*
X0108777Y0016663D01*
X0108651Y0016357D01*
X0108904Y0016357D01*
X0108777Y0016663D01*
X0108777Y0022650D02*
X0108777Y0022650D01*
X0108613Y0025048D02*
X0108941Y0025048D01*
X0110496Y0027447D02*
X0107059Y0027447D01*
X0117059Y0027447D02*
X0120496Y0027447D01*
X0118941Y0025048D02*
X0118613Y0025048D01*
X0118777Y0024652D02*
X0118777Y0016663D01*
X0118651Y0016357D01*
X0118904Y0016357D01*
X0118777Y0016663D01*
X0118777Y0024652D01*
X0118777Y0022650D02*
X0118777Y0022650D01*
X0118777Y0020251D02*
X0118777Y0020251D01*
X0118777Y0017853D02*
X0118777Y0017853D01*
X0128651Y0016357D02*
X0128777Y0016663D01*
X0128777Y0024652D01*
X0128777Y0016663D01*
X0128904Y0016357D01*
X0128651Y0016357D01*
X0128777Y0017853D02*
X0128777Y0017853D01*
X0128777Y0020251D02*
X0128777Y0020251D01*
X0128777Y0022650D02*
X0128777Y0022650D01*
X0128613Y0025048D02*
X0128941Y0025048D01*
X0130496Y0027447D02*
X0127059Y0027447D01*
X0128593Y0032244D02*
X0128915Y0032244D01*
X0137059Y0027447D02*
X0140496Y0027447D01*
X0138941Y0025048D02*
X0138613Y0025048D01*
X0138777Y0024652D02*
X0138777Y0016663D01*
X0138651Y0016357D01*
X0138904Y0016357D01*
X0138777Y0016663D01*
X0138777Y0024652D01*
X0138777Y0022650D02*
X0138777Y0022650D01*
X0138777Y0020251D02*
X0138777Y0020251D01*
X0138777Y0017853D02*
X0138777Y0017853D01*
X0138915Y0032244D02*
X0138593Y0032244D01*
X0118915Y0032244D02*
X0118593Y0032244D01*
X0092174Y0032244D02*
X0082937Y0032244D01*
X0085335Y0029845D02*
X0092174Y0029845D01*
X0090496Y0027447D02*
X0087059Y0027447D01*
X0092174Y0034643D02*
X0080538Y0034643D01*
X0078140Y0037041D02*
X0092174Y0037041D01*
X0092174Y0039440D02*
X0075741Y0039440D01*
X0073343Y0041838D02*
X0092174Y0041838D01*
X0092174Y0044237D02*
X0070944Y0044237D01*
X0068546Y0046635D02*
X0092174Y0046635D01*
X0092174Y0049034D02*
X0086696Y0049034D01*
X0087315Y0051432D02*
X0092174Y0051432D01*
X0092174Y0053831D02*
X0088128Y0053831D01*
X0090526Y0056229D02*
X0092174Y0056229D01*
X0043782Y0034643D02*
X0043781Y0034643D01*
X0043781Y0032244D02*
X0043782Y0032244D01*
X0040414Y0034643D02*
X0036866Y0034643D01*
X0030697Y0034643D02*
X0029477Y0034643D01*
X0158165Y0073019D02*
X0179885Y0073019D01*
X0178010Y0089808D02*
X0174955Y0089808D01*
X0188494Y0101004D02*
X0192623Y0097139D01*
X0194138Y0097589D01*
X0192388Y0104199D02*
X0181562Y0104199D01*
X0172801Y0113793D02*
X0053300Y0113793D01*
X0051289Y0116192D02*
X0175199Y0116192D01*
X0200157Y0111395D02*
X0208526Y0111395D01*
X0208633Y0113793D02*
X0201738Y0113793D01*
X0201827Y0116192D02*
X0210493Y0116192D01*
X0214926Y0111395D02*
X0217694Y0111395D01*
X0220737Y0120989D02*
X0220737Y0120989D01*
X0220737Y0123387D02*
X0220737Y0123387D01*
X0220737Y0125786D02*
X0220737Y0125786D01*
X0220737Y0128184D02*
X0220737Y0128184D01*
X0219612Y0149771D02*
X0212728Y0149771D01*
X0213627Y0152170D02*
X0216525Y0152170D01*
X0215965Y0154568D02*
X0213074Y0154568D01*
X0192983Y0156967D02*
X0050707Y0156967D01*
X0051348Y0154568D02*
X0192343Y0154568D01*
X0192902Y0152170D02*
X0050788Y0152170D01*
X0045452Y0149771D02*
X0019477Y0149771D01*
X0019477Y0147373D02*
X0042573Y0147373D01*
X0041805Y0144974D02*
X0019477Y0144974D01*
X0019477Y0142576D02*
X0042261Y0142576D01*
X0042364Y0152170D02*
X0019477Y0152170D01*
X0019477Y0154568D02*
X0041805Y0154568D01*
X0042445Y0156967D02*
X0019477Y0156967D01*
X0046576Y0128184D02*
X0046576Y0128184D01*
X0046576Y0125786D02*
X0046576Y0125786D01*
X0046576Y0123387D02*
X0046576Y0123387D01*
X0046576Y0120989D02*
X0046576Y0120989D01*
X0142515Y0176155D02*
X0206233Y0176155D01*
X0206247Y0178553D02*
X0143381Y0178553D01*
X0143780Y0180952D02*
X0206261Y0180952D01*
X0206275Y0183350D02*
X0146178Y0183350D01*
X0148577Y0185749D02*
X0206289Y0185749D01*
X0205925Y0188147D02*
X0150975Y0188147D01*
X0153374Y0190546D02*
X0205336Y0190546D01*
X0206148Y0192944D02*
X0155772Y0192944D01*
X0156977Y0195343D02*
X0329042Y0195343D01*
X0332307Y0195343D02*
X0399278Y0195343D01*
X0399278Y0197741D02*
X0156977Y0197741D01*
X0156977Y0200140D02*
X0399278Y0200140D01*
X0399278Y0202538D02*
X0156977Y0202538D01*
X0158062Y0204937D02*
X0159492Y0204937D01*
X0158777Y0207335D02*
X0158777Y0207335D01*
X0158777Y0209734D02*
X0158777Y0209734D01*
X0158777Y0212132D02*
X0158777Y0212132D01*
X0153777Y0210657D02*
X0153777Y0195475D01*
X0137681Y0179378D01*
X0137665Y0189415D02*
X0137665Y0204545D01*
X0143777Y0210657D01*
X0138777Y0212132D02*
X0024455Y0212132D01*
X0021883Y0209734D02*
X0138328Y0209734D01*
X0135930Y0207335D02*
X0019477Y0207335D01*
X0019477Y0204937D02*
X0134465Y0204937D01*
X0134465Y0202538D02*
X0019477Y0202538D01*
X0019477Y0200140D02*
X0134465Y0200140D01*
X0133134Y0192944D02*
X0131197Y0192944D01*
X0124134Y0192944D02*
X0122394Y0192944D01*
X0117665Y0192944D02*
X0117665Y0192944D01*
X0117665Y0190546D02*
X0117665Y0190546D01*
X0168062Y0204937D02*
X0169492Y0204937D01*
X0168777Y0207335D02*
X0168777Y0207335D01*
X0168777Y0209734D02*
X0168777Y0209734D01*
X0168777Y0212132D02*
X0168777Y0212132D01*
X0178777Y0212132D02*
X0178777Y0212132D01*
X0178777Y0209734D02*
X0178777Y0209734D01*
X0178777Y0207335D02*
X0178777Y0207335D01*
X0178062Y0204937D02*
X0179492Y0204937D01*
X0188062Y0204937D02*
X0189492Y0204937D01*
X0188777Y0207335D02*
X0188777Y0207335D01*
X0188777Y0209734D02*
X0188777Y0209734D01*
X0188777Y0212132D02*
X0188777Y0212132D01*
X0198777Y0212132D02*
X0198777Y0212132D01*
X0198777Y0209734D02*
X0198777Y0209734D01*
X0198777Y0207335D02*
X0198777Y0207335D01*
X0198062Y0204937D02*
X0199492Y0204937D01*
X0208062Y0204937D02*
X0209492Y0204937D01*
X0208777Y0207335D02*
X0208777Y0207335D01*
X0208777Y0209734D02*
X0208777Y0209734D01*
X0208777Y0212132D02*
X0208777Y0212132D01*
X0218777Y0212132D02*
X0399278Y0212132D01*
X0399278Y0209734D02*
X0218777Y0209734D01*
X0218777Y0207335D02*
X0399278Y0207335D01*
X0399278Y0204937D02*
X0218062Y0204937D01*
X0192039Y0166901D02*
X0188208Y0166901D01*
X0276358Y0154776D02*
X0276552Y0152826D01*
X0305217Y0168867D02*
X0305497Y0169147D01*
X0310536Y0169147D01*
X0330094Y0165037D02*
X0330094Y0190913D01*
X0330674Y0191493D01*
X0334599Y0192944D02*
X0399278Y0192944D01*
X0399278Y0190546D02*
X0334807Y0190546D01*
X0333294Y0188147D02*
X0399278Y0188147D01*
X0399278Y0185749D02*
X0333294Y0185749D01*
X0333294Y0183350D02*
X0399278Y0183350D01*
X0399278Y0180952D02*
X0333294Y0180952D01*
X0333294Y0178553D02*
X0399278Y0178553D01*
X0399278Y0176155D02*
X0333294Y0176155D01*
X0333294Y0173756D02*
X0399278Y0173756D01*
X0399278Y0171358D02*
X0333294Y0171358D01*
X0333294Y0168959D02*
X0399278Y0168959D01*
X0399278Y0166561D02*
X0333988Y0166561D01*
X0334257Y0164162D02*
X0399278Y0164162D01*
X0399278Y0161764D02*
X0332734Y0161764D01*
X0337582Y0141900D02*
X0340955Y0141900D01*
X0337582Y0141900D02*
X0337470Y0141787D01*
X0258333Y0098107D02*
X0254470Y0098107D01*
X0254133Y0097771D01*
X0395860Y0089482D02*
X0397120Y0090742D01*
D17*
X0397120Y0090742D03*
X0360033Y0089482D03*
X0384366Y0065570D03*
X0302776Y0087693D03*
X0293121Y0087929D03*
X0282986Y0089574D03*
X0269744Y0092379D03*
X0258333Y0098107D03*
X0188494Y0101004D03*
X0180421Y0096616D03*
X0181252Y0087137D03*
X0181119Y0078601D03*
X0181050Y0068976D03*
X0180647Y0060904D03*
X0180244Y0051420D03*
X0251080Y0040922D03*
X0257613Y0033416D03*
X0139676Y0106603D03*
X0075644Y0095726D03*
X0083134Y0051360D03*
X0140110Y0141870D03*
X0188208Y0166901D03*
X0209446Y0152402D03*
X0276552Y0152826D03*
X0310536Y0169147D03*
X0330094Y0165037D03*
X0337470Y0141787D03*
X0330674Y0191493D03*
X0209517Y0190400D03*
D18*
X0140110Y0141870D02*
X0140029Y0141951D01*
X0137925Y0141951D01*
D19*
X0075644Y0095726D02*
X0067287Y0095726D01*
X0066218Y0094657D01*
M02*
