G75*
%MOIN*%
%OFA0B0*%
%FSLAX25Y25*%
%IPPOS*%
%LPD*%
%AMOC8*
5,1,8,0,0,1.08239X$1,22.5*
%
%ADD10C,0.01000*%
%ADD11R,0.03700X0.00100*%
%ADD12R,0.05300X0.00100*%
%ADD13R,0.06500X0.00100*%
%ADD14R,0.07500X0.00100*%
%ADD15R,0.08300X0.00100*%
%ADD16R,0.09200X0.00100*%
%ADD17R,0.09900X0.00100*%
%ADD18R,0.10500X0.00100*%
%ADD19R,0.11200X0.00100*%
%ADD20R,0.11900X0.00100*%
%ADD21R,0.12300X0.00100*%
%ADD22R,0.12900X0.00100*%
%ADD23R,0.13400X0.00100*%
%ADD24R,0.13900X0.00100*%
%ADD25R,0.14300X0.00100*%
%ADD26R,0.14900X0.00100*%
%ADD27R,0.15300X0.00100*%
%ADD28R,0.15700X0.00100*%
%ADD29R,0.16100X0.00100*%
%ADD30R,0.16500X0.00100*%
%ADD31R,0.16900X0.00100*%
%ADD32R,0.17200X0.00100*%
%ADD33R,0.17500X0.00100*%
%ADD34R,0.17900X0.00100*%
%ADD35R,0.18300X0.00100*%
%ADD36R,0.18600X0.00100*%
%ADD37R,0.18900X0.00100*%
%ADD38R,0.19300X0.00100*%
%ADD39R,0.19500X0.00100*%
%ADD40R,0.19900X0.00100*%
%ADD41R,0.20100X0.00100*%
%ADD42R,0.20500X0.00100*%
%ADD43R,0.20700X0.00100*%
%ADD44R,0.21000X0.00100*%
%ADD45R,0.21300X0.00100*%
%ADD46R,0.21500X0.00100*%
%ADD47R,0.21800X0.00100*%
%ADD48R,0.22100X0.00100*%
%ADD49R,0.22300X0.00100*%
%ADD50R,0.22500X0.00100*%
%ADD51R,0.22900X0.00100*%
%ADD52R,0.23100X0.00100*%
%ADD53R,0.23300X0.00100*%
%ADD54R,0.23500X0.00100*%
%ADD55R,0.23700X0.00100*%
%ADD56R,0.23900X0.00100*%
%ADD57R,0.24200X0.00100*%
%ADD58R,0.24500X0.00100*%
%ADD59R,0.24700X0.00100*%
%ADD60R,0.24900X0.00100*%
%ADD61R,0.25100X0.00100*%
%ADD62R,0.25300X0.00100*%
%ADD63R,0.25500X0.00100*%
%ADD64R,0.25700X0.00100*%
%ADD65R,0.25900X0.00100*%
%ADD66R,0.26100X0.00100*%
%ADD67R,0.26300X0.00100*%
%ADD68R,0.12200X0.00100*%
%ADD69R,0.11500X0.00100*%
%ADD70R,0.02600X0.00100*%
%ADD71R,0.11600X0.00100*%
%ADD72R,0.11000X0.00100*%
%ADD73R,0.00800X0.00100*%
%ADD74R,0.00700X0.00100*%
%ADD75R,0.10600X0.00100*%
%ADD76R,0.00400X0.00100*%
%ADD77R,0.10400X0.00100*%
%ADD78R,0.10100X0.00100*%
%ADD79R,0.00300X0.00100*%
%ADD80R,0.09700X0.00100*%
%ADD81R,0.09500X0.00100*%
%ADD82R,0.09600X0.00100*%
%ADD83R,0.09300X0.00100*%
%ADD84R,0.00200X0.00100*%
%ADD85R,0.09100X0.00100*%
%ADD86R,0.08900X0.00100*%
%ADD87R,0.08700X0.00100*%
%ADD88R,0.08800X0.00100*%
%ADD89R,0.08600X0.00100*%
%ADD90R,0.08500X0.00100*%
%ADD91R,0.00100X0.00100*%
%ADD92R,0.02500X0.00100*%
%ADD93R,0.08200X0.00100*%
%ADD94R,0.08100X0.00100*%
%ADD95R,0.00500X0.00100*%
%ADD96R,0.03100X0.00100*%
%ADD97R,0.08000X0.00100*%
%ADD98R,0.04100X0.00100*%
%ADD99R,0.05100X0.00100*%
%ADD100R,0.07800X0.00100*%
%ADD101R,0.05900X0.00100*%
%ADD102R,0.02900X0.00100*%
%ADD103R,0.01100X0.00100*%
%ADD104R,0.06300X0.00100*%
%ADD105R,0.02400X0.00100*%
%ADD106R,0.04400X0.00100*%
%ADD107R,0.07000X0.00100*%
%ADD108R,0.07900X0.00100*%
%ADD109R,0.03200X0.00100*%
%ADD110R,0.07600X0.00100*%
%ADD111R,0.03400X0.00100*%
%ADD112R,0.04000X0.00100*%
%ADD113R,0.03900X0.00100*%
%ADD114R,0.06100X0.00100*%
%ADD115R,0.04200X0.00100*%
%ADD116R,0.04900X0.00100*%
%ADD117R,0.03500X0.00100*%
%ADD118R,0.04500X0.00100*%
%ADD119R,0.06800X0.00100*%
%ADD120R,0.04300X0.00100*%
%ADD121R,0.05500X0.00100*%
%ADD122R,0.03600X0.00100*%
%ADD123R,0.07300X0.00100*%
%ADD124R,0.05400X0.00100*%
%ADD125R,0.07700X0.00100*%
%ADD126R,0.05700X0.00100*%
%ADD127R,0.03800X0.00100*%
%ADD128R,0.09000X0.00100*%
%ADD129R,0.05600X0.00100*%
%ADD130R,0.01200X0.00100*%
%ADD131R,0.06700X0.00100*%
%ADD132R,0.09400X0.00100*%
%ADD133R,0.07200X0.00100*%
%ADD134R,0.06900X0.00100*%
%ADD135R,0.08400X0.00100*%
%ADD136R,0.07100X0.00100*%
%ADD137R,0.10000X0.00100*%
%ADD138R,0.01400X0.00100*%
%ADD139R,0.10200X0.00100*%
%ADD140R,0.05800X0.00100*%
%ADD141R,0.01600X0.00100*%
%ADD142R,0.00600X0.00100*%
%ADD143R,0.10700X0.00100*%
%ADD144R,0.01700X0.00100*%
%ADD145R,0.18500X0.00100*%
%ADD146R,0.06000X0.00100*%
%ADD147R,0.01800X0.00100*%
%ADD148R,0.11400X0.00100*%
%ADD149R,0.00900X0.00100*%
%ADD150R,0.01900X0.00100*%
%ADD151R,0.04600X0.00100*%
%ADD152R,0.12500X0.00100*%
%ADD153R,0.10300X0.00100*%
%ADD154R,0.02300X0.00100*%
%ADD155R,0.04700X0.00100*%
%ADD156R,0.11700X0.00100*%
%ADD157R,0.05200X0.00100*%
%ADD158R,0.04800X0.00100*%
%ADD159R,0.06200X0.00100*%
%ADD160R,0.12000X0.00100*%
%ADD161R,0.10900X0.00100*%
%ADD162R,0.12600X0.00100*%
%ADD163R,0.11100X0.00100*%
%ADD164R,0.05000X0.00100*%
%ADD165R,0.11300X0.00100*%
%ADD166R,0.12700X0.00100*%
%ADD167R,0.12400X0.00100*%
%ADD168R,0.06400X0.00100*%
%ADD169R,0.06600X0.00100*%
%ADD170R,0.03000X0.00100*%
%ADD171R,0.12800X0.00100*%
%ADD172R,0.11800X0.00100*%
%ADD173R,0.01000X0.00100*%
%ADD174R,0.01500X0.00100*%
%ADD175R,0.02000X0.00100*%
%ADD176R,0.02700X0.00100*%
%ADD177R,0.02800X0.00100*%
%ADD178R,0.07400X0.00100*%
%ADD179R,0.03300X0.00100*%
%ADD180R,0.12100X0.00100*%
%ADD181R,0.01300X0.00100*%
%ADD182R,0.02100X0.00100*%
%ADD183R,0.09800X0.00100*%
%ADD184R,0.10800X0.00100*%
%ADD185R,0.02200X0.00100*%
%ADD186R,0.26500X0.00100*%
%ADD187R,0.26200X0.00100*%
%ADD188R,0.26000X0.00100*%
%ADD189R,0.25800X0.00100*%
%ADD190R,0.25600X0.00100*%
%ADD191R,0.25400X0.00100*%
%ADD192R,0.25200X0.00100*%
%ADD193R,0.25000X0.00100*%
%ADD194R,0.24800X0.00100*%
%ADD195R,0.24600X0.00100*%
%ADD196R,0.24300X0.00100*%
%ADD197R,0.24100X0.00100*%
%ADD198R,0.22700X0.00100*%
%ADD199R,0.21700X0.00100*%
%ADD200R,0.20900X0.00100*%
%ADD201R,0.20300X0.00100*%
%ADD202R,0.19700X0.00100*%
%ADD203R,0.19100X0.00100*%
%ADD204R,0.18200X0.00100*%
%ADD205R,0.17100X0.00100*%
%ADD206R,0.16700X0.00100*%
%ADD207R,0.16400X0.00100*%
%ADD208R,0.16000X0.00100*%
%ADD209R,0.15600X0.00100*%
%ADD210R,0.15100X0.00100*%
%ADD211R,0.14700X0.00100*%
%ADD212R,0.13800X0.00100*%
%ADD213R,0.13300X0.00100*%
%ADD214C,0.01100*%
%ADD215C,0.00600*%
%ADD216C,0.00400*%
%ADD217R,0.00787X0.00787*%
%ADD218R,0.00591X0.00984*%
%ADD219C,0.00500*%
%ADD220C,0.00800*%
%ADD221R,0.01969X0.02953*%
D10*
X0023777Y0020657D02*
X0033777Y0010657D01*
X0404978Y0010657D01*
X0404978Y0219319D01*
X0023777Y0219319D01*
X0023748Y0219267D01*
X0013777Y0209968D01*
X0013777Y0070657D01*
X0023777Y0060657D01*
X0023777Y0020657D01*
X0074490Y0106912D02*
X0075622Y0106921D01*
X0076754Y0106912D01*
X0074490Y0106912D02*
X0074490Y0124628D01*
X0076754Y0124628D01*
X0073169Y0124628D02*
X0073169Y0106912D01*
X0070906Y0106912D01*
X0061063Y0106912D02*
X0058799Y0106912D01*
X0058799Y0124628D01*
X0061063Y0124628D01*
X0086596Y0124628D02*
X0088860Y0124628D01*
X0088860Y0106912D01*
X0086596Y0106912D01*
X0061409Y0144112D02*
X0060277Y0144121D01*
X0059145Y0144112D01*
X0059145Y0161828D01*
X0061409Y0161828D01*
X0071251Y0161828D02*
X0073515Y0161828D01*
X0073515Y0144112D01*
X0071251Y0144112D01*
X0074713Y0144112D02*
X0076977Y0144112D01*
X0074713Y0144112D02*
X0074713Y0161828D01*
X0076977Y0161828D01*
X0089083Y0161828D02*
X0089083Y0144112D01*
X0086820Y0144112D01*
X0154298Y0144112D02*
X0154298Y0161828D01*
X0156561Y0161828D01*
X0166404Y0161828D02*
X0168668Y0161828D01*
X0168668Y0144112D01*
X0166404Y0144112D01*
X0169902Y0144112D02*
X0172166Y0144112D01*
X0169902Y0144112D02*
X0169902Y0161828D01*
X0172166Y0161828D01*
X0184272Y0161828D02*
X0184272Y0144112D01*
X0182008Y0144112D01*
X0182447Y0124628D02*
X0184711Y0124628D01*
X0184711Y0106912D01*
X0182447Y0106912D01*
X0170341Y0106912D02*
X0170341Y0124628D01*
X0172605Y0124628D01*
X0168441Y0124628D02*
X0168441Y0106912D01*
X0166178Y0106912D01*
X0156335Y0106912D02*
X0154071Y0106912D01*
X0154071Y0124628D01*
X0156335Y0124628D01*
X0238444Y0124628D02*
X0238444Y0106912D01*
X0240708Y0106912D01*
X0250550Y0106912D02*
X0252814Y0106912D01*
X0252814Y0124628D01*
X0253970Y0124628D02*
X0256234Y0124628D01*
X0253970Y0124628D02*
X0253970Y0106912D01*
X0266077Y0106912D02*
X0268340Y0106912D01*
X0268340Y0124628D01*
X0266077Y0124628D01*
X0240708Y0124628D02*
X0238444Y0124628D01*
X0239394Y0144112D02*
X0239394Y0161828D01*
X0241658Y0161828D01*
X0251500Y0161828D02*
X0253764Y0161828D01*
X0253764Y0144112D01*
X0251500Y0144112D01*
X0255067Y0144112D02*
X0257330Y0144112D01*
X0255067Y0144112D02*
X0255067Y0161828D01*
X0257330Y0161828D01*
X0269437Y0161828D02*
X0269437Y0144112D01*
X0267173Y0144112D01*
X0336716Y0144112D02*
X0336716Y0161828D01*
X0338979Y0161828D01*
X0348822Y0161828D02*
X0351086Y0161828D01*
X0351086Y0144112D01*
X0348822Y0144112D01*
X0352258Y0144112D02*
X0354521Y0144112D01*
X0352258Y0144112D02*
X0352258Y0161828D01*
X0354521Y0161828D01*
X0366628Y0161828D02*
X0366628Y0144112D01*
X0364364Y0144112D01*
X0363884Y0124628D02*
X0366148Y0124628D01*
X0366148Y0106912D01*
X0363884Y0106912D01*
X0351777Y0106912D02*
X0351777Y0124628D01*
X0354041Y0124628D01*
X0350439Y0124628D02*
X0350439Y0106912D01*
X0348175Y0106912D01*
X0338332Y0106912D02*
X0336069Y0106912D01*
X0336069Y0124628D01*
X0338332Y0124628D01*
X0338980Y0144112D02*
X0337848Y0144121D01*
X0336716Y0144112D01*
X0348175Y0124628D02*
X0349307Y0124619D01*
X0350439Y0124628D01*
X0241658Y0144112D02*
X0240526Y0144121D01*
X0239394Y0144112D01*
X0250550Y0124628D02*
X0251682Y0124619D01*
X0252814Y0124628D01*
X0156562Y0144112D02*
X0155430Y0144121D01*
X0154298Y0144112D01*
X0166178Y0124628D02*
X0167310Y0124619D01*
X0168442Y0124628D01*
X0073169Y0124628D02*
X0072037Y0124619D01*
X0070905Y0124628D01*
X0170341Y0106912D02*
X0171473Y0106921D01*
X0172605Y0106912D01*
X0253970Y0106912D02*
X0255102Y0106921D01*
X0256234Y0106912D01*
X0351777Y0106912D02*
X0352909Y0106921D01*
X0354041Y0106912D01*
X0364364Y0161828D02*
X0365496Y0161819D01*
X0366628Y0161828D01*
X0269437Y0161828D02*
X0268305Y0161819D01*
X0267173Y0161828D01*
X0184272Y0161828D02*
X0183140Y0161819D01*
X0182008Y0161828D01*
X0089084Y0161828D02*
X0087952Y0161819D01*
X0086820Y0161828D01*
D11*
X0207318Y0077084D03*
X0212418Y0076584D03*
X0212618Y0076484D03*
X0211618Y0072084D03*
X0211318Y0071484D03*
X0217518Y0069684D03*
X0210918Y0062484D03*
X0210818Y0062384D03*
X0203918Y0063184D03*
X0203718Y0062884D03*
X0200918Y0067684D03*
X0209318Y0049684D03*
X0243518Y0058384D03*
X0313918Y0071184D03*
X0313918Y0071284D03*
X0313918Y0071384D03*
D12*
X0313918Y0067984D03*
X0313918Y0067884D03*
X0313918Y0067784D03*
X0313918Y0067684D03*
X0318218Y0058084D03*
X0318218Y0057984D03*
X0309618Y0057984D03*
X0309618Y0058084D03*
X0300018Y0060784D03*
X0279918Y0062784D03*
X0279718Y0060784D03*
X0275718Y0057884D03*
X0272018Y0067184D03*
X0276018Y0071784D03*
X0279618Y0069184D03*
X0265118Y0068784D03*
X0258418Y0068884D03*
X0243518Y0060484D03*
X0259818Y0058284D03*
X0217018Y0065984D03*
X0212918Y0074884D03*
X0213118Y0075184D03*
X0213018Y0075284D03*
X0213218Y0075484D03*
X0213218Y0075684D03*
X0209318Y0077484D03*
X0205318Y0075384D03*
X0205218Y0075284D03*
X0202318Y0070984D03*
X0202218Y0070584D03*
X0202018Y0070484D03*
X0195418Y0060584D03*
X0195418Y0060484D03*
X0195618Y0060184D03*
X0195718Y0059984D03*
X0195818Y0059684D03*
X0209318Y0049784D03*
D13*
X0209318Y0049884D03*
X0222718Y0060784D03*
X0222818Y0060984D03*
X0222918Y0061184D03*
X0222918Y0061384D03*
X0243518Y0062084D03*
X0250618Y0073884D03*
X0250618Y0073984D03*
X0250618Y0074084D03*
X0236418Y0074084D03*
X0236418Y0074184D03*
X0236418Y0073984D03*
X0223218Y0073184D03*
X0223118Y0073384D03*
X0223018Y0073784D03*
X0222918Y0073984D03*
X0221918Y0076184D03*
X0221818Y0076284D03*
X0195818Y0074084D03*
X0195718Y0073984D03*
X0195418Y0073184D03*
X0195118Y0063084D03*
X0296618Y0058284D03*
D14*
X0309518Y0062684D03*
X0309518Y0062784D03*
X0309518Y0062884D03*
X0309518Y0062984D03*
X0318318Y0062984D03*
X0318318Y0062884D03*
X0318318Y0062784D03*
X0296618Y0071184D03*
X0259818Y0059084D03*
X0243518Y0063384D03*
X0243518Y0063484D03*
X0250118Y0071184D03*
X0250118Y0071284D03*
X0250118Y0071384D03*
X0236918Y0071384D03*
X0236918Y0071484D03*
X0221818Y0075384D03*
X0197618Y0076784D03*
X0197518Y0076684D03*
X0197418Y0076584D03*
X0195718Y0062784D03*
X0195818Y0062684D03*
X0197718Y0058284D03*
X0209318Y0057984D03*
X0221718Y0059584D03*
X0209318Y0049984D03*
D15*
X0209318Y0050084D03*
X0219718Y0057084D03*
X0219818Y0057184D03*
X0220718Y0058484D03*
X0220818Y0058684D03*
X0211218Y0059684D03*
X0210518Y0058784D03*
X0210418Y0058684D03*
X0210218Y0058584D03*
X0198918Y0057084D03*
X0198818Y0057184D03*
X0198618Y0077784D03*
X0198718Y0077884D03*
X0209318Y0085184D03*
X0219918Y0077884D03*
X0263718Y0065984D03*
X0296618Y0070984D03*
D16*
X0277368Y0064084D03*
X0274668Y0065884D03*
X0263268Y0065784D03*
X0218768Y0056384D03*
X0209368Y0050184D03*
X0199868Y0056384D03*
X0199768Y0078684D03*
D17*
X0200418Y0079084D03*
X0218218Y0079084D03*
X0218118Y0055984D03*
X0209318Y0050284D03*
X0200518Y0055984D03*
X0275418Y0065384D03*
X0275718Y0065184D03*
X0275818Y0065084D03*
X0276118Y0064884D03*
X0276318Y0064784D03*
X0276418Y0064684D03*
X0296618Y0059384D03*
X0296618Y0070384D03*
D18*
X0296618Y0070084D03*
X0296618Y0059684D03*
X0275818Y0059084D03*
X0209318Y0050384D03*
X0209318Y0084884D03*
D19*
X0261668Y0069684D03*
X0262268Y0064884D03*
X0275768Y0059384D03*
X0275968Y0070184D03*
X0209368Y0050484D03*
D20*
X0209318Y0050584D03*
X0261918Y0064284D03*
X0261718Y0068984D03*
X0275818Y0059784D03*
X0296618Y0060584D03*
D21*
X0275818Y0060084D03*
X0209318Y0050684D03*
X0209318Y0084584D03*
D22*
X0209318Y0050784D03*
X0275818Y0060584D03*
D23*
X0209368Y0050884D03*
D24*
X0209318Y0050984D03*
D25*
X0209318Y0051084D03*
X0209318Y0084184D03*
D26*
X0209318Y0051184D03*
D27*
X0209318Y0051284D03*
D28*
X0209318Y0051384D03*
D29*
X0209318Y0051484D03*
D30*
X0209318Y0051584D03*
D31*
X0209318Y0051684D03*
D32*
X0209368Y0051784D03*
D33*
X0209318Y0051884D03*
X0209318Y0083384D03*
D34*
X0209318Y0083284D03*
X0209318Y0051984D03*
D35*
X0209318Y0052084D03*
D36*
X0209368Y0052184D03*
X0216068Y0059484D03*
D37*
X0209318Y0052284D03*
X0209318Y0082984D03*
D38*
X0209318Y0052384D03*
D39*
X0209318Y0052484D03*
X0209318Y0082784D03*
D40*
X0209318Y0052584D03*
D41*
X0209318Y0052684D03*
X0209318Y0082584D03*
D42*
X0209318Y0052784D03*
D43*
X0209318Y0052884D03*
X0209318Y0082384D03*
D44*
X0209368Y0052984D03*
D45*
X0209318Y0053084D03*
X0209318Y0082184D03*
D46*
X0209318Y0082084D03*
X0209318Y0053184D03*
D47*
X0209368Y0053284D03*
D48*
X0209318Y0053384D03*
X0209318Y0081884D03*
D49*
X0209318Y0081784D03*
X0209318Y0053484D03*
D50*
X0209318Y0053584D03*
X0209318Y0081684D03*
D51*
X0209318Y0053684D03*
D52*
X0209318Y0053784D03*
X0209318Y0081484D03*
D53*
X0209318Y0081384D03*
X0209318Y0053884D03*
D54*
X0209318Y0053984D03*
X0209318Y0081284D03*
D55*
X0209318Y0081184D03*
X0209318Y0054084D03*
D56*
X0209318Y0054184D03*
X0209318Y0081084D03*
D57*
X0209368Y0054284D03*
D58*
X0209318Y0054384D03*
D59*
X0209318Y0054484D03*
D60*
X0209318Y0054584D03*
D61*
X0209318Y0054684D03*
D62*
X0209318Y0054784D03*
D63*
X0209318Y0054884D03*
D64*
X0209318Y0054984D03*
D65*
X0209318Y0055084D03*
D66*
X0209318Y0055184D03*
D67*
X0209318Y0055284D03*
X0209318Y0079884D03*
D68*
X0202268Y0055384D03*
X0216468Y0055384D03*
X0261768Y0063884D03*
X0261768Y0063984D03*
X0275768Y0059984D03*
X0275968Y0069484D03*
X0275968Y0069584D03*
D69*
X0275818Y0059584D03*
X0262118Y0064684D03*
X0261718Y0069384D03*
X0261718Y0069484D03*
X0296618Y0069484D03*
X0296618Y0060284D03*
X0201818Y0055484D03*
D70*
X0203568Y0060084D03*
X0204868Y0065384D03*
X0205068Y0065684D03*
X0204968Y0065784D03*
X0205168Y0066084D03*
X0200468Y0066184D03*
X0200368Y0065984D03*
X0210268Y0069384D03*
X0210468Y0069684D03*
X0211368Y0063984D03*
X0211168Y0063684D03*
X0209368Y0055484D03*
X0217568Y0071284D03*
X0211368Y0077284D03*
X0261468Y0071984D03*
D71*
X0262068Y0064584D03*
X0275968Y0069984D03*
X0216868Y0055484D03*
D72*
X0217168Y0055584D03*
X0201468Y0055584D03*
X0201268Y0079484D03*
X0217368Y0079484D03*
X0261668Y0069884D03*
X0275968Y0070284D03*
X0275768Y0059284D03*
X0296568Y0069784D03*
D73*
X0259868Y0057684D03*
X0217868Y0059684D03*
X0209368Y0057284D03*
X0207668Y0055584D03*
X0208568Y0065484D03*
X0208468Y0065584D03*
X0208668Y0065884D03*
X0212368Y0066884D03*
X0212568Y0066984D03*
X0206968Y0069884D03*
X0206868Y0069984D03*
X0207068Y0070284D03*
X0206768Y0069584D03*
X0200068Y0064184D03*
X0200068Y0063984D03*
D74*
X0200018Y0064084D03*
X0199718Y0063284D03*
X0208318Y0065284D03*
X0212418Y0066784D03*
X0212618Y0067084D03*
X0212518Y0067284D03*
X0217518Y0073284D03*
X0216818Y0077384D03*
X0215918Y0059684D03*
X0210818Y0057284D03*
X0211018Y0055584D03*
X0207818Y0057284D03*
D75*
X0201168Y0055684D03*
X0217468Y0055684D03*
X0262568Y0065284D03*
X0261668Y0070184D03*
X0275968Y0070484D03*
D76*
X0296568Y0060684D03*
X0217468Y0061384D03*
X0212268Y0057584D03*
X0211468Y0057384D03*
X0211568Y0055684D03*
X0212068Y0055784D03*
X0212468Y0055884D03*
X0207068Y0055684D03*
X0206568Y0055784D03*
X0206168Y0055884D03*
X0199868Y0059684D03*
X0199668Y0063384D03*
X0208268Y0064984D03*
X0212668Y0067384D03*
X0212968Y0067784D03*
X0207168Y0070484D03*
X0207268Y0070884D03*
X0207468Y0071184D03*
X0205968Y0077384D03*
X0207468Y0077784D03*
X0212268Y0079284D03*
X0212968Y0079084D03*
X0216868Y0077284D03*
X0216968Y0077184D03*
X0217868Y0077584D03*
X0217868Y0074284D03*
X0217568Y0073684D03*
D77*
X0217868Y0079284D03*
X0200768Y0079284D03*
X0200968Y0055784D03*
X0217668Y0055784D03*
X0261668Y0070284D03*
X0275968Y0070584D03*
D78*
X0276018Y0070684D03*
X0262818Y0065484D03*
X0296618Y0070284D03*
X0296618Y0059484D03*
X0217918Y0055884D03*
X0200718Y0055884D03*
X0200618Y0079184D03*
D79*
X0204618Y0078684D03*
X0205118Y0078884D03*
X0205418Y0078984D03*
X0205718Y0079084D03*
X0206018Y0079184D03*
X0206418Y0079284D03*
X0206618Y0077584D03*
X0206218Y0077484D03*
X0205418Y0077184D03*
X0209518Y0077184D03*
X0210018Y0077184D03*
X0212018Y0077584D03*
X0212418Y0077484D03*
X0212718Y0077384D03*
X0213218Y0078984D03*
X0213518Y0078884D03*
X0213818Y0078784D03*
X0214018Y0078684D03*
X0212618Y0079184D03*
X0207518Y0071084D03*
X0207318Y0070784D03*
X0208218Y0064884D03*
X0208118Y0064684D03*
X0208118Y0064484D03*
X0207918Y0064384D03*
X0207818Y0064284D03*
X0212818Y0067684D03*
X0215618Y0061484D03*
X0214818Y0059984D03*
X0215418Y0059784D03*
X0213118Y0057884D03*
X0211918Y0057484D03*
X0212818Y0055984D03*
X0213118Y0056084D03*
X0213418Y0056184D03*
X0213918Y0056384D03*
X0206718Y0057484D03*
X0206418Y0057584D03*
X0205518Y0057884D03*
X0204718Y0056384D03*
X0205218Y0056184D03*
X0205518Y0056084D03*
X0205818Y0055984D03*
X0198718Y0063084D03*
X0198418Y0063184D03*
X0297318Y0069084D03*
D80*
X0296618Y0059284D03*
X0276718Y0064484D03*
X0275118Y0065584D03*
X0218318Y0056084D03*
X0209318Y0058484D03*
X0200318Y0056084D03*
X0200218Y0078984D03*
X0218418Y0078984D03*
D81*
X0218618Y0078884D03*
X0200218Y0056184D03*
X0274918Y0065684D03*
X0277018Y0064284D03*
X0296618Y0059184D03*
D82*
X0296568Y0070484D03*
X0275968Y0070884D03*
X0276868Y0064384D03*
X0275768Y0058784D03*
X0263068Y0065684D03*
X0261668Y0070684D03*
X0218468Y0056184D03*
X0200068Y0078884D03*
D83*
X0218918Y0078684D03*
X0220618Y0059284D03*
X0218618Y0056284D03*
X0209318Y0058384D03*
X0200018Y0056284D03*
X0261618Y0070784D03*
X0274818Y0065784D03*
X0277218Y0064184D03*
X0276018Y0070984D03*
X0296618Y0070584D03*
X0296618Y0059084D03*
D84*
X0297368Y0060884D03*
X0297568Y0060984D03*
X0295868Y0060884D03*
X0295668Y0060984D03*
X0295868Y0069084D03*
X0297568Y0068984D03*
X0219268Y0074284D03*
X0218368Y0074384D03*
X0215668Y0075784D03*
X0215268Y0076084D03*
X0214968Y0076284D03*
X0214768Y0076384D03*
X0214468Y0076584D03*
X0214268Y0076684D03*
X0214068Y0076784D03*
X0213868Y0076884D03*
X0213668Y0076984D03*
X0213468Y0077084D03*
X0213268Y0077184D03*
X0212968Y0077284D03*
X0214268Y0078584D03*
X0214468Y0078484D03*
X0214668Y0078384D03*
X0214868Y0078284D03*
X0215068Y0078184D03*
X0215268Y0078084D03*
X0215568Y0077884D03*
X0215768Y0077784D03*
X0215868Y0077684D03*
X0216068Y0077584D03*
X0216468Y0077284D03*
X0217368Y0077384D03*
X0218168Y0077484D03*
X0213468Y0068984D03*
X0213368Y0068784D03*
X0213268Y0068584D03*
X0213168Y0068184D03*
X0212968Y0067984D03*
X0208068Y0064584D03*
X0207668Y0063684D03*
X0202668Y0059584D03*
X0203168Y0059184D03*
X0203468Y0058984D03*
X0203768Y0058784D03*
X0204068Y0058584D03*
X0204268Y0058484D03*
X0204668Y0058284D03*
X0204868Y0058184D03*
X0205068Y0058084D03*
X0205268Y0057984D03*
X0205768Y0057784D03*
X0206068Y0057684D03*
X0205768Y0058584D03*
X0206068Y0058684D03*
X0205468Y0058684D03*
X0205268Y0058784D03*
X0204268Y0056584D03*
X0204468Y0056484D03*
X0204068Y0056684D03*
X0203868Y0056784D03*
X0203668Y0056884D03*
X0203468Y0056984D03*
X0203268Y0057084D03*
X0202968Y0057284D03*
X0202668Y0057484D03*
X0202368Y0057684D03*
X0201968Y0057984D03*
X0201368Y0058484D03*
X0199868Y0059784D03*
X0199868Y0059984D03*
X0199468Y0059684D03*
X0198668Y0059684D03*
X0198968Y0063184D03*
X0199168Y0063284D03*
X0204968Y0056284D03*
X0212568Y0057684D03*
X0212868Y0057784D03*
X0213368Y0057984D03*
X0213568Y0058084D03*
X0213768Y0058184D03*
X0214368Y0058484D03*
X0214568Y0058584D03*
X0214868Y0058784D03*
X0215068Y0058884D03*
X0215368Y0059084D03*
X0216168Y0059084D03*
X0215068Y0059884D03*
X0214568Y0060084D03*
X0214268Y0060284D03*
X0215068Y0061784D03*
X0215368Y0061584D03*
X0218368Y0059784D03*
X0218568Y0059884D03*
X0215968Y0057484D03*
X0215668Y0057284D03*
X0215368Y0057084D03*
X0215168Y0056984D03*
X0214968Y0056884D03*
X0214768Y0056784D03*
X0214568Y0056684D03*
X0214368Y0056584D03*
X0214168Y0056484D03*
X0213668Y0056284D03*
X0207368Y0070984D03*
X0207768Y0071784D03*
X0207768Y0071884D03*
X0202068Y0074984D03*
X0202868Y0075684D03*
X0203268Y0075984D03*
X0203568Y0076184D03*
X0203668Y0076284D03*
X0203868Y0076384D03*
X0204168Y0076584D03*
X0204368Y0076684D03*
X0204568Y0076784D03*
X0204768Y0076884D03*
X0204968Y0076984D03*
X0205168Y0077084D03*
X0205668Y0077284D03*
X0204868Y0078784D03*
X0204368Y0078584D03*
X0204168Y0078484D03*
X0203968Y0078384D03*
X0203768Y0078284D03*
X0203568Y0078184D03*
X0203268Y0077984D03*
X0203068Y0077884D03*
X0202768Y0077684D03*
X0202468Y0077484D03*
X0202168Y0077284D03*
X0202068Y0077184D03*
X0201568Y0076784D03*
D85*
X0199618Y0078584D03*
X0209318Y0085084D03*
X0219018Y0078584D03*
X0220718Y0059184D03*
X0218918Y0056484D03*
X0199718Y0056484D03*
X0296618Y0070684D03*
D86*
X0296618Y0070784D03*
X0296618Y0058984D03*
X0277518Y0063984D03*
X0276018Y0071084D03*
X0219318Y0078384D03*
X0199318Y0078384D03*
X0209318Y0058284D03*
X0219118Y0056584D03*
X0199518Y0056584D03*
D87*
X0199418Y0056684D03*
X0199318Y0056784D03*
X0210918Y0059184D03*
X0219318Y0056784D03*
X0199218Y0078284D03*
X0261618Y0070984D03*
X0296618Y0058884D03*
D88*
X0274268Y0066084D03*
X0263468Y0065884D03*
X0220768Y0059084D03*
X0219268Y0056684D03*
X0211368Y0059584D03*
X0211168Y0059284D03*
X0219468Y0078284D03*
D89*
X0219568Y0078184D03*
X0199068Y0078184D03*
X0220768Y0058984D03*
X0219468Y0056884D03*
X0199168Y0056884D03*
X0275768Y0058484D03*
X0277768Y0063884D03*
X0275968Y0071184D03*
D90*
X0274118Y0066184D03*
X0261618Y0071084D03*
X0296618Y0070884D03*
X0220818Y0058884D03*
X0220718Y0058784D03*
X0219618Y0056984D03*
X0210918Y0059084D03*
X0209318Y0058184D03*
X0199018Y0056984D03*
X0198818Y0077984D03*
X0198918Y0078084D03*
X0219718Y0078084D03*
D91*
X0218618Y0077084D03*
X0218618Y0076984D03*
X0218518Y0077184D03*
X0218618Y0076384D03*
X0218518Y0076184D03*
X0218418Y0075984D03*
X0218318Y0075884D03*
X0218318Y0075784D03*
X0218218Y0075684D03*
X0218118Y0075484D03*
X0218018Y0075284D03*
X0217918Y0075084D03*
X0217818Y0074884D03*
X0217718Y0074684D03*
X0217618Y0074484D03*
X0217518Y0074284D03*
X0217418Y0074084D03*
X0217318Y0073884D03*
X0217218Y0073684D03*
X0217118Y0073484D03*
X0217018Y0073284D03*
X0216918Y0073084D03*
X0216818Y0072884D03*
X0216718Y0072684D03*
X0216718Y0072584D03*
X0216618Y0072484D03*
X0216618Y0072384D03*
X0216518Y0072184D03*
X0216418Y0071984D03*
X0216318Y0071784D03*
X0216318Y0071684D03*
X0216218Y0071484D03*
X0216118Y0071284D03*
X0216018Y0071084D03*
X0216018Y0070984D03*
X0215918Y0070784D03*
X0215918Y0070684D03*
X0215818Y0070584D03*
X0215818Y0070484D03*
X0215718Y0070284D03*
X0215718Y0070184D03*
X0215618Y0069984D03*
X0215618Y0069884D03*
X0215518Y0069784D03*
X0215518Y0069684D03*
X0215418Y0069484D03*
X0215418Y0069384D03*
X0215318Y0069184D03*
X0215318Y0069084D03*
X0215218Y0068884D03*
X0215218Y0068784D03*
X0215118Y0068584D03*
X0215118Y0068484D03*
X0215018Y0068284D03*
X0215018Y0068184D03*
X0214918Y0067984D03*
X0214918Y0067884D03*
X0214918Y0067784D03*
X0214818Y0067584D03*
X0214818Y0067484D03*
X0214718Y0067284D03*
X0214718Y0067184D03*
X0214718Y0067084D03*
X0214618Y0066884D03*
X0214618Y0066784D03*
X0214618Y0066684D03*
X0214518Y0066484D03*
X0214518Y0066384D03*
X0214518Y0066284D03*
X0214418Y0065884D03*
X0214418Y0065784D03*
X0214418Y0065684D03*
X0214318Y0065384D03*
X0214318Y0065284D03*
X0214318Y0065184D03*
X0214318Y0065084D03*
X0214318Y0064984D03*
X0214318Y0064884D03*
X0214218Y0064384D03*
X0214218Y0064284D03*
X0214218Y0064184D03*
X0214218Y0064084D03*
X0214218Y0063984D03*
X0214218Y0063884D03*
X0214318Y0063384D03*
X0214318Y0063284D03*
X0214318Y0063184D03*
X0214318Y0063084D03*
X0214418Y0062784D03*
X0214418Y0062684D03*
X0214518Y0062484D03*
X0214618Y0062284D03*
X0214718Y0062184D03*
X0214818Y0061984D03*
X0214918Y0061884D03*
X0215218Y0061684D03*
X0214018Y0060484D03*
X0214118Y0060384D03*
X0214418Y0060184D03*
X0213718Y0060784D03*
X0213618Y0060884D03*
X0213518Y0060984D03*
X0213418Y0061084D03*
X0213318Y0061284D03*
X0213218Y0061384D03*
X0213118Y0061584D03*
X0213018Y0061784D03*
X0212918Y0061984D03*
X0212918Y0062084D03*
X0212818Y0062284D03*
X0212818Y0062384D03*
X0212718Y0062584D03*
X0212718Y0062684D03*
X0212718Y0062784D03*
X0212718Y0062884D03*
X0212618Y0063184D03*
X0212618Y0063284D03*
X0212618Y0063384D03*
X0212618Y0063484D03*
X0212618Y0063584D03*
X0212618Y0063684D03*
X0212618Y0063784D03*
X0212618Y0064484D03*
X0212618Y0064584D03*
X0212618Y0064684D03*
X0212618Y0064784D03*
X0212618Y0064884D03*
X0212618Y0064984D03*
X0212618Y0065084D03*
X0212618Y0065184D03*
X0212718Y0065584D03*
X0212718Y0065684D03*
X0212718Y0065784D03*
X0212718Y0065884D03*
X0212818Y0066184D03*
X0212818Y0066284D03*
X0212818Y0066384D03*
X0212918Y0066784D03*
X0212918Y0066884D03*
X0213018Y0067184D03*
X0213018Y0067284D03*
X0213018Y0067384D03*
X0213118Y0067584D03*
X0213118Y0067684D03*
X0213218Y0067984D03*
X0213218Y0068084D03*
X0213018Y0068084D03*
X0212918Y0068184D03*
X0212818Y0068084D03*
X0212718Y0067984D03*
X0212618Y0067784D03*
X0212518Y0067684D03*
X0212418Y0067484D03*
X0212318Y0067384D03*
X0212218Y0067184D03*
X0212118Y0067084D03*
X0212018Y0066984D03*
X0211918Y0066784D03*
X0211818Y0066684D03*
X0211718Y0066484D03*
X0211618Y0066384D03*
X0211518Y0066184D03*
X0211418Y0066084D03*
X0211318Y0065984D03*
X0211218Y0065784D03*
X0211118Y0065684D03*
X0211018Y0065484D03*
X0210918Y0065384D03*
X0210818Y0065284D03*
X0210818Y0065184D03*
X0210718Y0065084D03*
X0210618Y0064984D03*
X0210518Y0064784D03*
X0210418Y0064684D03*
X0210318Y0064484D03*
X0210218Y0064384D03*
X0210118Y0064284D03*
X0210118Y0064184D03*
X0210018Y0064084D03*
X0209918Y0063984D03*
X0209818Y0063784D03*
X0209718Y0063684D03*
X0209618Y0063484D03*
X0209518Y0063384D03*
X0209418Y0063284D03*
X0209318Y0063084D03*
X0209218Y0062984D03*
X0209118Y0062784D03*
X0209018Y0062684D03*
X0208918Y0062584D03*
X0208918Y0062484D03*
X0208818Y0062384D03*
X0208718Y0062284D03*
X0208618Y0062084D03*
X0208518Y0061984D03*
X0208418Y0061784D03*
X0208318Y0061684D03*
X0208218Y0061584D03*
X0208218Y0061484D03*
X0208118Y0061384D03*
X0208018Y0061284D03*
X0207918Y0061084D03*
X0207818Y0060984D03*
X0207718Y0060784D03*
X0207618Y0060684D03*
X0207518Y0060584D03*
X0207418Y0060384D03*
X0207318Y0060284D03*
X0207218Y0060084D03*
X0207118Y0059984D03*
X0207018Y0059784D03*
X0206918Y0059684D03*
X0206818Y0059584D03*
X0206718Y0059384D03*
X0206618Y0059284D03*
X0206518Y0059084D03*
X0206418Y0058984D03*
X0206318Y0058884D03*
X0206218Y0058784D03*
X0205118Y0058884D03*
X0205018Y0059084D03*
X0204918Y0059284D03*
X0204918Y0059384D03*
X0204918Y0059484D03*
X0204918Y0059584D03*
X0205018Y0059884D03*
X0205018Y0059984D03*
X0205018Y0060084D03*
X0205118Y0060284D03*
X0205118Y0060384D03*
X0205118Y0060484D03*
X0205218Y0060784D03*
X0205218Y0060884D03*
X0205318Y0061184D03*
X0205318Y0061284D03*
X0205318Y0061384D03*
X0205418Y0061584D03*
X0205418Y0061684D03*
X0205518Y0061984D03*
X0205518Y0062084D03*
X0205518Y0062184D03*
X0205618Y0062384D03*
X0205618Y0062484D03*
X0205618Y0062584D03*
X0205718Y0062884D03*
X0205718Y0062984D03*
X0205818Y0063284D03*
X0205818Y0063384D03*
X0205918Y0063684D03*
X0205918Y0063784D03*
X0205918Y0063884D03*
X0206018Y0064084D03*
X0206018Y0064184D03*
X0206018Y0064284D03*
X0206118Y0064484D03*
X0206118Y0064584D03*
X0206118Y0064684D03*
X0206218Y0064984D03*
X0206218Y0065084D03*
X0206318Y0065384D03*
X0206318Y0065484D03*
X0206318Y0065584D03*
X0206418Y0065784D03*
X0206418Y0065884D03*
X0206518Y0066284D03*
X0206518Y0066384D03*
X0206618Y0066584D03*
X0206618Y0066684D03*
X0206618Y0066784D03*
X0206718Y0067084D03*
X0206718Y0067184D03*
X0206818Y0067484D03*
X0206818Y0067584D03*
X0206918Y0067884D03*
X0206918Y0067984D03*
X0206918Y0068084D03*
X0207018Y0068284D03*
X0207018Y0068384D03*
X0207118Y0068784D03*
X0207118Y0068884D03*
X0207218Y0069184D03*
X0207218Y0069284D03*
X0207218Y0069384D03*
X0207318Y0069584D03*
X0207318Y0069684D03*
X0207418Y0069984D03*
X0207418Y0070084D03*
X0207418Y0070184D03*
X0207518Y0070384D03*
X0207518Y0070484D03*
X0207518Y0070584D03*
X0207618Y0070884D03*
X0207618Y0070984D03*
X0207718Y0071284D03*
X0207718Y0071384D03*
X0207718Y0071484D03*
X0207718Y0071584D03*
X0207818Y0071684D03*
X0207618Y0071684D03*
X0207518Y0071584D03*
X0207518Y0071484D03*
X0207418Y0071384D03*
X0207518Y0071284D03*
X0207318Y0071284D03*
X0207218Y0071084D03*
X0207118Y0070984D03*
X0207018Y0070784D03*
X0206918Y0070684D03*
X0206818Y0070484D03*
X0206718Y0070384D03*
X0206618Y0070184D03*
X0206518Y0070084D03*
X0206418Y0069884D03*
X0206318Y0069784D03*
X0206218Y0069584D03*
X0206118Y0069484D03*
X0206018Y0069284D03*
X0205918Y0069184D03*
X0205818Y0068984D03*
X0205718Y0068884D03*
X0205618Y0068684D03*
X0205518Y0068584D03*
X0205418Y0068384D03*
X0205318Y0068284D03*
X0205218Y0068084D03*
X0205118Y0067984D03*
X0205018Y0067784D03*
X0204918Y0067684D03*
X0204818Y0067484D03*
X0204718Y0067384D03*
X0204618Y0067184D03*
X0204518Y0067084D03*
X0204418Y0066884D03*
X0204318Y0066784D03*
X0204218Y0066584D03*
X0204118Y0066484D03*
X0204018Y0066284D03*
X0203918Y0066184D03*
X0203818Y0065984D03*
X0203718Y0065884D03*
X0203618Y0065684D03*
X0203518Y0065584D03*
X0203418Y0065384D03*
X0203318Y0065284D03*
X0203218Y0065084D03*
X0203118Y0064984D03*
X0203018Y0064884D03*
X0203018Y0064784D03*
X0202918Y0064684D03*
X0202818Y0064584D03*
X0202818Y0064484D03*
X0202718Y0064384D03*
X0202618Y0064184D03*
X0202518Y0064084D03*
X0202418Y0063984D03*
X0202418Y0063884D03*
X0202318Y0063784D03*
X0202218Y0063684D03*
X0202218Y0063584D03*
X0202118Y0063484D03*
X0202018Y0063384D03*
X0202018Y0063284D03*
X0201918Y0063184D03*
X0201818Y0063084D03*
X0201818Y0062984D03*
X0201718Y0062884D03*
X0201618Y0062784D03*
X0201518Y0062584D03*
X0201418Y0062484D03*
X0201318Y0062284D03*
X0201218Y0062184D03*
X0201118Y0061984D03*
X0201018Y0061884D03*
X0200918Y0061684D03*
X0200918Y0061484D03*
X0201018Y0061284D03*
X0201118Y0061184D03*
X0201218Y0061084D03*
X0201418Y0060784D03*
X0201518Y0060684D03*
X0201618Y0060584D03*
X0201718Y0060484D03*
X0201818Y0060384D03*
X0201918Y0060284D03*
X0202018Y0060184D03*
X0202118Y0060084D03*
X0202218Y0059984D03*
X0202318Y0059884D03*
X0202418Y0059784D03*
X0202518Y0059684D03*
X0202818Y0059484D03*
X0202918Y0059384D03*
X0203018Y0059284D03*
X0203318Y0059084D03*
X0203618Y0058884D03*
X0203918Y0058684D03*
X0204418Y0058384D03*
X0203118Y0057184D03*
X0202818Y0057384D03*
X0202518Y0057584D03*
X0202218Y0057784D03*
X0202118Y0057884D03*
X0201818Y0058084D03*
X0201718Y0058184D03*
X0201618Y0058284D03*
X0201218Y0058584D03*
X0201118Y0058684D03*
X0201018Y0058784D03*
X0200918Y0058884D03*
X0200818Y0058984D03*
X0200718Y0059084D03*
X0200618Y0059184D03*
X0200518Y0059284D03*
X0200418Y0059384D03*
X0200218Y0059684D03*
X0200118Y0059784D03*
X0200018Y0059884D03*
X0199818Y0060084D03*
X0199718Y0059884D03*
X0199618Y0059784D03*
X0198518Y0059784D03*
X0198418Y0059884D03*
X0198318Y0060084D03*
X0198218Y0060284D03*
X0198218Y0060384D03*
X0198218Y0060484D03*
X0198218Y0060584D03*
X0198318Y0060784D03*
X0198418Y0060984D03*
X0198518Y0061084D03*
X0198618Y0061284D03*
X0198718Y0061384D03*
X0198818Y0061584D03*
X0198918Y0061684D03*
X0199018Y0061884D03*
X0199118Y0061984D03*
X0199218Y0062184D03*
X0199318Y0062284D03*
X0199418Y0062484D03*
X0199518Y0062584D03*
X0199618Y0062784D03*
X0199718Y0062884D03*
X0199818Y0062984D03*
X0199818Y0063084D03*
X0199918Y0063184D03*
X0200018Y0063384D03*
X0200118Y0063484D03*
X0200218Y0063584D03*
X0200218Y0063684D03*
X0200318Y0063784D03*
X0200418Y0063884D03*
X0200518Y0064084D03*
X0200618Y0064184D03*
X0200718Y0064384D03*
X0200818Y0064484D03*
X0200818Y0064584D03*
X0200918Y0064684D03*
X0201018Y0064784D03*
X0201118Y0064984D03*
X0201218Y0065084D03*
X0201318Y0065284D03*
X0201418Y0065384D03*
X0201518Y0065584D03*
X0201618Y0065684D03*
X0201718Y0065884D03*
X0201818Y0065984D03*
X0201918Y0066184D03*
X0202018Y0066284D03*
X0202118Y0066484D03*
X0202218Y0066584D03*
X0202318Y0066784D03*
X0202418Y0066884D03*
X0202518Y0067084D03*
X0202618Y0067184D03*
X0202718Y0067384D03*
X0202818Y0067484D03*
X0202918Y0067684D03*
X0203018Y0067784D03*
X0203118Y0067984D03*
X0203218Y0068084D03*
X0203318Y0068284D03*
X0203418Y0068384D03*
X0203518Y0068584D03*
X0203618Y0068684D03*
X0203718Y0068884D03*
X0203818Y0068984D03*
X0203918Y0069184D03*
X0204018Y0069284D03*
X0204118Y0069484D03*
X0204218Y0069584D03*
X0204318Y0069784D03*
X0204418Y0069884D03*
X0204518Y0070084D03*
X0204618Y0070184D03*
X0204718Y0070384D03*
X0204818Y0070484D03*
X0204918Y0070684D03*
X0205018Y0070784D03*
X0205118Y0070984D03*
X0205218Y0071084D03*
X0205318Y0071284D03*
X0205418Y0071384D03*
X0205518Y0071584D03*
X0205618Y0071684D03*
X0205718Y0071884D03*
X0205818Y0071984D03*
X0205918Y0072184D03*
X0206018Y0072284D03*
X0206118Y0072384D03*
X0206218Y0072584D03*
X0206318Y0072684D03*
X0206318Y0072784D03*
X0206418Y0072884D03*
X0206518Y0072984D03*
X0206618Y0073184D03*
X0206718Y0073284D03*
X0206818Y0073484D03*
X0206918Y0073584D03*
X0207018Y0073784D03*
X0207118Y0073884D03*
X0207218Y0074084D03*
X0207318Y0074184D03*
X0207418Y0074384D03*
X0207518Y0074484D03*
X0207618Y0074684D03*
X0207718Y0074784D03*
X0207818Y0074984D03*
X0207918Y0075084D03*
X0208018Y0075284D03*
X0208118Y0075384D03*
X0208218Y0075584D03*
X0208318Y0075684D03*
X0208418Y0075884D03*
X0208518Y0075984D03*
X0208618Y0076184D03*
X0208718Y0076284D03*
X0208818Y0076484D03*
X0208918Y0076584D03*
X0209018Y0076784D03*
X0209118Y0076884D03*
X0209318Y0077084D03*
X0210218Y0077084D03*
X0210318Y0076984D03*
X0210418Y0076884D03*
X0210518Y0076784D03*
X0210518Y0076684D03*
X0210618Y0076484D03*
X0210618Y0076384D03*
X0210518Y0075984D03*
X0210518Y0075884D03*
X0210418Y0075584D03*
X0210418Y0075484D03*
X0210418Y0075384D03*
X0210318Y0075184D03*
X0210318Y0075084D03*
X0210218Y0074684D03*
X0210218Y0074584D03*
X0210118Y0074384D03*
X0210118Y0074284D03*
X0210118Y0074184D03*
X0210018Y0073884D03*
X0210018Y0073784D03*
X0209918Y0073484D03*
X0209918Y0073384D03*
X0209818Y0073084D03*
X0209818Y0072984D03*
X0209818Y0072884D03*
X0209718Y0072684D03*
X0209718Y0072584D03*
X0209618Y0072184D03*
X0209618Y0072084D03*
X0209518Y0071784D03*
X0209518Y0071684D03*
X0209518Y0071584D03*
X0209418Y0071384D03*
X0209418Y0071284D03*
X0209318Y0070984D03*
X0209318Y0070884D03*
X0209218Y0070584D03*
X0209218Y0070484D03*
X0209218Y0070384D03*
X0209118Y0070084D03*
X0209118Y0069984D03*
X0209018Y0069684D03*
X0209018Y0069584D03*
X0208918Y0069284D03*
X0208918Y0069184D03*
X0208918Y0069084D03*
X0208818Y0068884D03*
X0208818Y0068784D03*
X0208818Y0068684D03*
X0208718Y0068484D03*
X0208718Y0068384D03*
X0208718Y0068284D03*
X0208618Y0067984D03*
X0208618Y0067884D03*
X0208518Y0067584D03*
X0208518Y0067484D03*
X0208518Y0067384D03*
X0208418Y0067184D03*
X0208418Y0067084D03*
X0208318Y0066784D03*
X0208318Y0066684D03*
X0208318Y0066584D03*
X0208218Y0066284D03*
X0208218Y0066184D03*
X0208118Y0065884D03*
X0208118Y0065784D03*
X0208018Y0065484D03*
X0208018Y0065384D03*
X0207918Y0065084D03*
X0207918Y0064984D03*
X0207918Y0064884D03*
X0207818Y0064684D03*
X0207818Y0064584D03*
X0207818Y0064484D03*
X0207718Y0064184D03*
X0207718Y0064084D03*
X0207718Y0063984D03*
X0207818Y0063884D03*
X0207918Y0063984D03*
X0207918Y0064084D03*
X0208018Y0064184D03*
X0208118Y0064284D03*
X0208218Y0064384D03*
X0208318Y0064584D03*
X0208418Y0064684D03*
X0208518Y0064884D03*
X0208618Y0064984D03*
X0208718Y0065184D03*
X0208818Y0065284D03*
X0208918Y0065384D03*
X0209018Y0065584D03*
X0209118Y0065684D03*
X0209218Y0065884D03*
X0209318Y0065984D03*
X0209418Y0066084D03*
X0209418Y0066184D03*
X0209518Y0066284D03*
X0209618Y0066384D03*
X0209718Y0066584D03*
X0209818Y0066684D03*
X0209918Y0066884D03*
X0210018Y0066984D03*
X0210118Y0067084D03*
X0210118Y0067184D03*
X0210218Y0067284D03*
X0210318Y0067384D03*
X0210418Y0067584D03*
X0210518Y0067684D03*
X0210618Y0067884D03*
X0210718Y0067984D03*
X0210818Y0068084D03*
X0210818Y0068184D03*
X0210918Y0068284D03*
X0211018Y0068384D03*
X0211118Y0068584D03*
X0211218Y0068684D03*
X0211318Y0068884D03*
X0211418Y0068984D03*
X0211518Y0069084D03*
X0211518Y0069184D03*
X0211618Y0069284D03*
X0211718Y0069384D03*
X0211818Y0069584D03*
X0211918Y0069684D03*
X0212018Y0069884D03*
X0212118Y0069984D03*
X0212218Y0070084D03*
X0212318Y0070284D03*
X0212418Y0070384D03*
X0212518Y0070584D03*
X0212618Y0070684D03*
X0212718Y0070784D03*
X0212718Y0070884D03*
X0212818Y0070984D03*
X0212918Y0071084D03*
X0213018Y0071284D03*
X0213118Y0071384D03*
X0213218Y0071584D03*
X0213318Y0071684D03*
X0213418Y0071784D03*
X0213418Y0071884D03*
X0213518Y0071984D03*
X0213618Y0072084D03*
X0213718Y0072284D03*
X0213818Y0072384D03*
X0213918Y0072584D03*
X0214018Y0072684D03*
X0214118Y0072884D03*
X0214218Y0072984D03*
X0214318Y0073084D03*
X0214418Y0073284D03*
X0214518Y0073384D03*
X0214618Y0073584D03*
X0214718Y0073684D03*
X0214818Y0073784D03*
X0214818Y0073884D03*
X0214918Y0073984D03*
X0215018Y0074084D03*
X0215118Y0074284D03*
X0215218Y0074384D03*
X0215318Y0074584D03*
X0215418Y0074684D03*
X0215518Y0074784D03*
X0215618Y0074984D03*
X0215718Y0075084D03*
X0215818Y0075284D03*
X0215918Y0075384D03*
X0215918Y0075584D03*
X0215518Y0075884D03*
X0215418Y0075984D03*
X0215118Y0076184D03*
X0214618Y0076484D03*
X0215418Y0077984D03*
X0216218Y0077484D03*
X0216318Y0077384D03*
X0216618Y0077184D03*
X0216718Y0077084D03*
X0216818Y0076984D03*
X0216918Y0077084D03*
X0217018Y0076984D03*
X0217118Y0077084D03*
X0217218Y0077284D03*
X0216918Y0076884D03*
X0218218Y0074284D03*
X0218118Y0074184D03*
X0218018Y0073984D03*
X0217918Y0073684D03*
X0217918Y0073584D03*
X0217918Y0073484D03*
X0218018Y0073284D03*
X0218118Y0073084D03*
X0218218Y0072884D03*
X0218318Y0072784D03*
X0218418Y0072584D03*
X0218518Y0072384D03*
X0218618Y0072184D03*
X0218718Y0071984D03*
X0218818Y0071784D03*
X0218918Y0071584D03*
X0218918Y0071484D03*
X0219018Y0071284D03*
X0219118Y0071084D03*
X0219118Y0070984D03*
X0219218Y0070784D03*
X0219218Y0070684D03*
X0219318Y0070384D03*
X0219318Y0070284D03*
X0219418Y0070084D03*
X0219418Y0069984D03*
X0219418Y0069884D03*
X0219518Y0069584D03*
X0219518Y0069484D03*
X0219518Y0069384D03*
X0219618Y0068984D03*
X0219618Y0068884D03*
X0219618Y0068784D03*
X0219618Y0068684D03*
X0219718Y0067984D03*
X0219718Y0067884D03*
X0219718Y0067784D03*
X0219718Y0067684D03*
X0219718Y0067584D03*
X0219718Y0067484D03*
X0219718Y0067384D03*
X0219718Y0067284D03*
X0219718Y0067184D03*
X0219718Y0067084D03*
X0219618Y0066384D03*
X0219618Y0066284D03*
X0219618Y0066184D03*
X0219618Y0066084D03*
X0219518Y0065684D03*
X0219518Y0065584D03*
X0219518Y0065484D03*
X0219418Y0065184D03*
X0219418Y0065084D03*
X0219418Y0064984D03*
X0219318Y0064784D03*
X0219318Y0064684D03*
X0219218Y0064384D03*
X0219118Y0064184D03*
X0219118Y0064084D03*
X0219018Y0063884D03*
X0219018Y0063784D03*
X0218918Y0063584D03*
X0218818Y0063384D03*
X0218818Y0063284D03*
X0218718Y0063184D03*
X0218718Y0063084D03*
X0218618Y0062884D03*
X0218518Y0062684D03*
X0218418Y0062584D03*
X0218418Y0062484D03*
X0218318Y0062384D03*
X0218218Y0062184D03*
X0218118Y0061984D03*
X0218018Y0061884D03*
X0217918Y0061684D03*
X0217818Y0061584D03*
X0217718Y0061484D03*
X0218918Y0060284D03*
X0219018Y0060384D03*
X0219118Y0060484D03*
X0219218Y0060684D03*
X0219318Y0060784D03*
X0219418Y0060984D03*
X0219518Y0061084D03*
X0219518Y0061184D03*
X0219618Y0061284D03*
X0219718Y0061484D03*
X0219818Y0061584D03*
X0219818Y0061684D03*
X0219918Y0061784D03*
X0220018Y0061984D03*
X0220118Y0062184D03*
X0220218Y0062384D03*
X0220318Y0062584D03*
X0220318Y0062684D03*
X0220418Y0062784D03*
X0220418Y0062884D03*
X0220518Y0063084D03*
X0220618Y0063384D03*
X0220718Y0063584D03*
X0220718Y0063684D03*
X0220818Y0063884D03*
X0220818Y0063984D03*
X0220918Y0064284D03*
X0220918Y0064384D03*
X0221018Y0064584D03*
X0221018Y0064684D03*
X0221118Y0064984D03*
X0221118Y0065084D03*
X0221118Y0065184D03*
X0221218Y0065584D03*
X0221218Y0065684D03*
X0221218Y0065784D03*
X0221318Y0066184D03*
X0221318Y0066284D03*
X0221318Y0066384D03*
X0221318Y0066484D03*
X0221318Y0066584D03*
X0221318Y0066684D03*
X0221318Y0066784D03*
X0221318Y0066884D03*
X0221318Y0068284D03*
X0221318Y0068384D03*
X0221318Y0068484D03*
X0221318Y0068584D03*
X0221318Y0068684D03*
X0221318Y0068784D03*
X0221318Y0068884D03*
X0221218Y0069284D03*
X0221218Y0069384D03*
X0221218Y0069484D03*
X0221218Y0069584D03*
X0221118Y0069884D03*
X0221118Y0069984D03*
X0221118Y0070084D03*
X0221018Y0070384D03*
X0221018Y0070484D03*
X0220918Y0070784D03*
X0220818Y0071084D03*
X0220818Y0071184D03*
X0220718Y0071384D03*
X0220718Y0071484D03*
X0220618Y0071684D03*
X0220618Y0071784D03*
X0220518Y0071984D03*
X0220418Y0072184D03*
X0220418Y0072284D03*
X0220318Y0072484D03*
X0220218Y0072684D03*
X0220118Y0072884D03*
X0220018Y0073084D03*
X0219918Y0073284D03*
X0219818Y0073484D03*
X0219718Y0073684D03*
X0219618Y0073784D03*
X0219518Y0073984D03*
X0219418Y0074084D03*
X0213518Y0069084D03*
X0213418Y0068884D03*
X0213418Y0068684D03*
X0213218Y0068684D03*
X0213318Y0068484D03*
X0213318Y0068384D03*
X0213118Y0068484D03*
X0213018Y0068384D03*
X0213118Y0068284D03*
X0207818Y0071984D03*
X0202518Y0075384D03*
X0202618Y0075484D03*
X0202718Y0075584D03*
X0203018Y0075784D03*
X0203118Y0075884D03*
X0203418Y0076084D03*
X0204018Y0076484D03*
X0202918Y0077784D03*
X0202618Y0077584D03*
X0202318Y0077384D03*
X0201918Y0077084D03*
X0201818Y0076984D03*
X0201418Y0076684D03*
X0201318Y0076584D03*
X0201218Y0076484D03*
X0201118Y0076384D03*
X0201018Y0076284D03*
X0200918Y0076184D03*
X0200818Y0076084D03*
X0200718Y0075984D03*
X0200618Y0075884D03*
X0200518Y0075784D03*
X0200418Y0075684D03*
X0200318Y0075584D03*
X0200218Y0075484D03*
X0200018Y0075184D03*
X0199918Y0075084D03*
X0199818Y0074984D03*
X0199718Y0074784D03*
X0199618Y0074684D03*
X0199518Y0074584D03*
X0199418Y0074384D03*
X0199318Y0074284D03*
X0199218Y0074084D03*
X0199118Y0073984D03*
X0199018Y0073784D03*
X0198918Y0073584D03*
X0198818Y0073484D03*
X0198818Y0073384D03*
X0198718Y0073284D03*
X0198618Y0073084D03*
X0198518Y0072884D03*
X0198418Y0072684D03*
X0198318Y0072484D03*
X0198318Y0072384D03*
X0198218Y0072284D03*
X0198218Y0072184D03*
X0198118Y0071984D03*
X0198118Y0071884D03*
X0198018Y0071684D03*
X0197918Y0071484D03*
X0197918Y0071384D03*
X0197818Y0071184D03*
X0197818Y0071084D03*
X0197718Y0070784D03*
X0197718Y0070684D03*
X0197618Y0070484D03*
X0197618Y0070384D03*
X0197618Y0070284D03*
X0197518Y0069984D03*
X0197518Y0069884D03*
X0197418Y0069484D03*
X0197418Y0069384D03*
X0197418Y0069284D03*
X0197418Y0069184D03*
X0197318Y0068784D03*
X0197318Y0068684D03*
X0197318Y0068584D03*
X0197318Y0068484D03*
X0197318Y0068384D03*
X0197318Y0068284D03*
X0197318Y0068184D03*
X0197318Y0068084D03*
X0197318Y0067984D03*
X0197318Y0067884D03*
X0197318Y0067784D03*
X0197318Y0067684D03*
X0197318Y0067584D03*
X0197318Y0067484D03*
X0197318Y0067384D03*
X0197318Y0067284D03*
X0197318Y0067184D03*
X0197318Y0067084D03*
X0197318Y0066984D03*
X0197318Y0066884D03*
X0197318Y0066784D03*
X0197318Y0066684D03*
X0197318Y0066584D03*
X0197318Y0066484D03*
X0197318Y0066384D03*
X0197318Y0066284D03*
X0197418Y0065884D03*
X0197418Y0065784D03*
X0197418Y0065684D03*
X0197518Y0065284D03*
X0197518Y0065184D03*
X0197518Y0065084D03*
X0197618Y0064784D03*
X0197618Y0064684D03*
X0197618Y0064584D03*
X0197718Y0064384D03*
X0197718Y0064284D03*
X0197818Y0064084D03*
X0197818Y0063984D03*
X0197918Y0063784D03*
X0197918Y0063684D03*
X0198018Y0063484D03*
X0198118Y0063384D03*
X0198218Y0063284D03*
X0199318Y0063384D03*
X0199418Y0063584D03*
X0199518Y0063784D03*
X0199518Y0063884D03*
X0199518Y0063984D03*
X0199518Y0064084D03*
X0199518Y0064184D03*
X0199418Y0064384D03*
X0199418Y0064484D03*
X0199318Y0064684D03*
X0199318Y0064784D03*
X0199318Y0064884D03*
X0199218Y0065084D03*
X0199218Y0065184D03*
X0199218Y0065284D03*
X0199118Y0065584D03*
X0199118Y0065684D03*
X0199118Y0065784D03*
X0199018Y0066184D03*
X0199018Y0066284D03*
X0199018Y0066384D03*
X0199018Y0066484D03*
X0199018Y0066584D03*
X0198918Y0067884D03*
X0199018Y0068584D03*
X0199018Y0068684D03*
X0199018Y0068784D03*
X0199018Y0068884D03*
X0199118Y0069384D03*
X0199118Y0069484D03*
X0199118Y0069584D03*
X0199218Y0069784D03*
X0199218Y0069884D03*
X0199218Y0069984D03*
X0199318Y0070284D03*
X0199318Y0070384D03*
X0199418Y0070584D03*
X0199418Y0070684D03*
X0199518Y0070884D03*
X0199518Y0070984D03*
X0199618Y0071184D03*
X0199618Y0071284D03*
X0199718Y0071484D03*
X0199818Y0071684D03*
X0199818Y0071784D03*
X0199918Y0071884D03*
X0199918Y0071984D03*
X0200018Y0072184D03*
X0200118Y0072384D03*
X0200218Y0072484D03*
X0200218Y0072584D03*
X0200318Y0072684D03*
X0200318Y0072784D03*
X0200418Y0072884D03*
X0200518Y0073084D03*
X0200618Y0073184D03*
X0200718Y0073384D03*
X0200818Y0073484D03*
X0200918Y0073684D03*
X0201018Y0073784D03*
X0201118Y0073884D03*
X0201218Y0074084D03*
X0201318Y0074184D03*
X0201418Y0074284D03*
X0201518Y0074384D03*
X0201618Y0074484D03*
X0201718Y0074584D03*
X0201818Y0074684D03*
X0202218Y0075084D03*
X0202318Y0075184D03*
X0202418Y0075284D03*
X0203418Y0078084D03*
X0207618Y0063784D03*
X0207618Y0063584D03*
X0214018Y0058284D03*
X0214218Y0058384D03*
X0214718Y0058684D03*
X0215218Y0058984D03*
X0216318Y0058984D03*
X0216418Y0058884D03*
X0216518Y0058684D03*
X0216618Y0058384D03*
X0216618Y0058284D03*
X0216518Y0058084D03*
X0216518Y0057984D03*
X0216418Y0057884D03*
X0216118Y0057584D03*
X0215818Y0057384D03*
X0215518Y0057184D03*
X0218718Y0059984D03*
X0218818Y0060084D03*
X0259318Y0067484D03*
X0294118Y0065784D03*
X0294118Y0065684D03*
X0294118Y0065584D03*
X0294118Y0065484D03*
X0294118Y0065384D03*
X0294118Y0064584D03*
X0294118Y0064484D03*
X0294118Y0064384D03*
X0294118Y0064284D03*
X0294118Y0064184D03*
X0294418Y0062684D03*
X0294418Y0062584D03*
X0294518Y0062384D03*
X0294718Y0061984D03*
X0294818Y0061784D03*
X0295118Y0061384D03*
X0295218Y0061284D03*
X0295518Y0061084D03*
X0297718Y0061084D03*
X0298318Y0061684D03*
X0298518Y0061984D03*
X0298618Y0062184D03*
X0298718Y0062384D03*
X0298818Y0062684D03*
X0299018Y0063484D03*
X0299018Y0063584D03*
X0299118Y0064584D03*
X0299118Y0064684D03*
X0299118Y0064784D03*
X0299118Y0064884D03*
X0299118Y0064984D03*
X0299118Y0065084D03*
X0299118Y0065184D03*
X0299118Y0065284D03*
X0299118Y0065384D03*
X0299018Y0066384D03*
X0299018Y0066484D03*
X0298818Y0067284D03*
X0298718Y0067584D03*
X0298518Y0067984D03*
X0298318Y0068284D03*
X0297818Y0068784D03*
X0297718Y0068884D03*
X0295518Y0068884D03*
X0295218Y0068684D03*
X0295118Y0068584D03*
X0294818Y0068184D03*
X0294718Y0067984D03*
X0294618Y0067784D03*
X0294518Y0067584D03*
X0294418Y0067284D03*
X0294318Y0066984D03*
D92*
X0279618Y0067684D03*
X0211418Y0064084D03*
X0211218Y0063784D03*
X0205318Y0066184D03*
X0205218Y0065984D03*
X0204918Y0065584D03*
X0200318Y0065884D03*
X0203618Y0059984D03*
X0209318Y0057184D03*
X0210418Y0069584D03*
D93*
X0220068Y0077784D03*
X0198468Y0077684D03*
X0198668Y0057284D03*
X0219968Y0057284D03*
X0220268Y0057684D03*
X0220768Y0058584D03*
X0259868Y0059484D03*
X0273868Y0066284D03*
X0275968Y0071284D03*
X0275768Y0058384D03*
D94*
X0296618Y0058684D03*
X0261618Y0071184D03*
X0221818Y0074784D03*
X0198418Y0077584D03*
X0198618Y0057384D03*
X0220118Y0057384D03*
X0220618Y0058184D03*
D95*
X0207218Y0057384D03*
X0199818Y0063584D03*
X0199918Y0063784D03*
X0208318Y0065184D03*
X0212618Y0067184D03*
X0212818Y0067484D03*
X0212718Y0067584D03*
X0212918Y0067884D03*
X0207318Y0070684D03*
X0207118Y0070584D03*
X0207118Y0070384D03*
X0207018Y0070184D03*
X0217518Y0073484D03*
X0217718Y0073884D03*
X0217618Y0073984D03*
X0217818Y0074084D03*
X0217718Y0074184D03*
X0217918Y0074384D03*
X0218718Y0074484D03*
X0211618Y0077684D03*
X0211218Y0077784D03*
X0211818Y0079384D03*
X0206818Y0079384D03*
X0207018Y0077684D03*
D96*
X0212118Y0076884D03*
X0211018Y0070884D03*
X0210918Y0070484D03*
X0204718Y0064884D03*
X0204318Y0064284D03*
X0204318Y0064184D03*
X0203418Y0060484D03*
X0209318Y0057384D03*
X0210918Y0063184D03*
X0296618Y0057784D03*
X0311818Y0063484D03*
X0311918Y0063884D03*
X0311918Y0063984D03*
X0312018Y0064284D03*
X0312018Y0064384D03*
X0312118Y0064684D03*
X0312118Y0064784D03*
X0312118Y0064884D03*
X0312218Y0065084D03*
X0312218Y0065184D03*
X0312218Y0065284D03*
X0312218Y0065384D03*
X0312318Y0065584D03*
X0312318Y0065684D03*
X0312318Y0065784D03*
X0315518Y0065784D03*
X0315518Y0065684D03*
X0315518Y0065584D03*
X0315518Y0065484D03*
X0315618Y0065384D03*
X0315618Y0065284D03*
X0315618Y0065184D03*
X0315618Y0065084D03*
X0315718Y0064884D03*
X0315718Y0064784D03*
X0315718Y0064684D03*
X0315718Y0064584D03*
X0315818Y0064384D03*
X0315818Y0064284D03*
X0315818Y0064184D03*
X0315918Y0063984D03*
X0315918Y0063884D03*
X0315918Y0063784D03*
X0315918Y0063684D03*
X0316018Y0063484D03*
X0316018Y0063384D03*
X0316018Y0063284D03*
D97*
X0278168Y0063684D03*
X0259868Y0059384D03*
X0249868Y0069984D03*
X0237168Y0070084D03*
X0237168Y0070184D03*
X0221868Y0074684D03*
X0198268Y0077484D03*
X0198168Y0077384D03*
X0198368Y0057584D03*
X0198468Y0057484D03*
X0209368Y0058084D03*
X0220168Y0057484D03*
X0220268Y0057584D03*
X0220368Y0057784D03*
X0220768Y0058384D03*
D98*
X0216418Y0062884D03*
X0216518Y0063084D03*
X0216518Y0063184D03*
X0210718Y0061984D03*
X0209318Y0057484D03*
X0203318Y0061984D03*
X0203518Y0062284D03*
X0203418Y0062384D03*
X0203618Y0062684D03*
X0212018Y0072984D03*
X0207218Y0076984D03*
X0206818Y0076784D03*
X0217518Y0069184D03*
X0217418Y0068884D03*
X0217418Y0068784D03*
X0235218Y0068784D03*
X0235218Y0068884D03*
X0235218Y0068984D03*
X0235218Y0069084D03*
X0235218Y0069184D03*
X0235218Y0069284D03*
X0235218Y0069384D03*
X0235218Y0069484D03*
X0235218Y0069584D03*
X0235218Y0069684D03*
X0235218Y0069784D03*
X0235218Y0069884D03*
X0235218Y0069984D03*
X0235218Y0068684D03*
X0235218Y0068584D03*
X0235218Y0068484D03*
X0235218Y0068384D03*
X0235218Y0068284D03*
X0235218Y0068184D03*
X0235218Y0068084D03*
X0235218Y0067984D03*
X0235218Y0067884D03*
X0235218Y0067784D03*
X0235218Y0067684D03*
X0235218Y0067584D03*
X0235218Y0067484D03*
X0235218Y0067384D03*
X0235218Y0067284D03*
X0235218Y0067184D03*
X0235218Y0067084D03*
X0235218Y0066984D03*
X0235218Y0066884D03*
X0235218Y0066784D03*
X0235218Y0066684D03*
X0235218Y0066584D03*
X0235218Y0066484D03*
X0235218Y0066384D03*
X0235218Y0066284D03*
X0235218Y0066184D03*
X0235218Y0066084D03*
X0235218Y0065984D03*
X0235218Y0065884D03*
X0235218Y0065784D03*
X0235218Y0065684D03*
X0235218Y0065584D03*
X0235218Y0065484D03*
X0235218Y0065384D03*
X0235218Y0065284D03*
X0235218Y0065184D03*
X0235218Y0065084D03*
X0235218Y0064984D03*
X0235218Y0064884D03*
X0235218Y0064784D03*
X0235218Y0064684D03*
X0235218Y0064584D03*
X0235218Y0064484D03*
X0235218Y0064384D03*
X0235218Y0064284D03*
X0235218Y0064184D03*
X0235218Y0064084D03*
X0235218Y0063984D03*
X0235218Y0063884D03*
X0235218Y0063784D03*
X0235218Y0063684D03*
X0235218Y0063584D03*
X0235218Y0063484D03*
X0235218Y0063384D03*
X0235218Y0063284D03*
X0235218Y0063184D03*
X0235218Y0063084D03*
X0235218Y0062984D03*
X0235218Y0062884D03*
X0235218Y0062784D03*
X0235218Y0062684D03*
X0235218Y0062584D03*
X0235218Y0062484D03*
X0235218Y0062384D03*
X0235218Y0062284D03*
X0235218Y0062184D03*
X0235218Y0062084D03*
X0235218Y0061984D03*
X0235218Y0061884D03*
X0235218Y0061784D03*
X0235218Y0061684D03*
X0235218Y0061584D03*
X0235218Y0061484D03*
X0235218Y0061384D03*
X0235218Y0061284D03*
X0235218Y0061184D03*
X0235218Y0061084D03*
X0235218Y0060984D03*
X0235218Y0060884D03*
X0235218Y0060784D03*
X0235218Y0060684D03*
X0235218Y0060584D03*
X0235218Y0060484D03*
X0235218Y0060384D03*
X0235218Y0060284D03*
X0235218Y0060184D03*
X0235218Y0060084D03*
X0235218Y0059984D03*
X0235218Y0059884D03*
X0235218Y0059784D03*
X0235218Y0059684D03*
X0235218Y0059584D03*
X0235218Y0059484D03*
X0235218Y0059384D03*
X0235218Y0059284D03*
X0235218Y0059184D03*
X0235218Y0059084D03*
X0235218Y0058984D03*
X0235218Y0058884D03*
X0235218Y0058784D03*
X0235218Y0058684D03*
X0235218Y0058584D03*
X0235218Y0058484D03*
X0235218Y0058384D03*
X0235218Y0058284D03*
X0235218Y0058184D03*
X0235218Y0058084D03*
X0235218Y0057984D03*
X0243518Y0058884D03*
X0251818Y0058884D03*
X0251818Y0058984D03*
X0251818Y0059084D03*
X0251818Y0059184D03*
X0251818Y0059284D03*
X0251818Y0059384D03*
X0251818Y0059484D03*
X0251818Y0059584D03*
X0251818Y0059684D03*
X0251818Y0059784D03*
X0251818Y0059884D03*
X0251818Y0059984D03*
X0251818Y0060084D03*
X0251818Y0060184D03*
X0251818Y0060284D03*
X0251818Y0060384D03*
X0251818Y0060484D03*
X0251818Y0060584D03*
X0251818Y0060684D03*
X0251818Y0060784D03*
X0251818Y0060884D03*
X0251818Y0060984D03*
X0251818Y0061084D03*
X0251818Y0061184D03*
X0251818Y0061284D03*
X0251818Y0061384D03*
X0251818Y0061484D03*
X0251818Y0061584D03*
X0251818Y0061684D03*
X0251818Y0061784D03*
X0251818Y0061884D03*
X0251818Y0061984D03*
X0251818Y0062084D03*
X0251818Y0062184D03*
X0251818Y0062284D03*
X0251818Y0062384D03*
X0251818Y0062484D03*
X0251818Y0062584D03*
X0251818Y0062684D03*
X0251818Y0062784D03*
X0251818Y0062884D03*
X0251818Y0062984D03*
X0251818Y0063084D03*
X0251818Y0063184D03*
X0251818Y0063284D03*
X0251818Y0063384D03*
X0251818Y0063484D03*
X0251818Y0063584D03*
X0251818Y0063684D03*
X0251818Y0063784D03*
X0251818Y0063884D03*
X0251818Y0063984D03*
X0251818Y0064084D03*
X0251818Y0064184D03*
X0251818Y0064284D03*
X0251818Y0064384D03*
X0251818Y0064484D03*
X0251818Y0064584D03*
X0251818Y0064684D03*
X0251818Y0064784D03*
X0251818Y0064884D03*
X0251818Y0064984D03*
X0251818Y0065084D03*
X0251818Y0065184D03*
X0251818Y0065284D03*
X0251818Y0065384D03*
X0251818Y0065484D03*
X0251818Y0065584D03*
X0251818Y0065684D03*
X0251818Y0065784D03*
X0251818Y0065884D03*
X0251818Y0065984D03*
X0251818Y0066084D03*
X0251818Y0066184D03*
X0251818Y0066284D03*
X0251818Y0066384D03*
X0251818Y0066484D03*
X0251818Y0066584D03*
X0251818Y0066684D03*
X0251818Y0066784D03*
X0251818Y0066884D03*
X0251818Y0066984D03*
X0251818Y0067084D03*
X0251818Y0067184D03*
X0251818Y0067284D03*
X0251818Y0067384D03*
X0251818Y0067484D03*
X0251818Y0067584D03*
X0251818Y0067684D03*
X0251818Y0067784D03*
X0251818Y0067884D03*
X0251818Y0067984D03*
X0251818Y0068084D03*
X0251818Y0068184D03*
X0251818Y0068284D03*
X0251818Y0068384D03*
X0251818Y0068484D03*
X0251818Y0068584D03*
X0251818Y0068684D03*
X0251818Y0068784D03*
X0251818Y0068884D03*
X0251818Y0068984D03*
X0251818Y0069084D03*
X0251818Y0069184D03*
X0251818Y0069284D03*
X0251818Y0069384D03*
X0251818Y0069484D03*
X0251818Y0069584D03*
X0251818Y0069684D03*
X0251818Y0069784D03*
X0257618Y0068184D03*
X0265818Y0067184D03*
X0265818Y0067084D03*
X0265818Y0066984D03*
X0265818Y0066884D03*
X0265818Y0066784D03*
X0265818Y0066684D03*
X0265818Y0066584D03*
X0265818Y0066484D03*
X0265818Y0066384D03*
X0265818Y0066284D03*
X0265818Y0066184D03*
X0265818Y0063784D03*
X0265818Y0063684D03*
X0265818Y0063584D03*
X0265818Y0063484D03*
X0265818Y0063384D03*
X0265818Y0063284D03*
X0265818Y0063184D03*
X0265818Y0063084D03*
X0265818Y0062984D03*
X0265818Y0062884D03*
X0265818Y0062784D03*
X0265818Y0062684D03*
X0265818Y0062584D03*
X0265818Y0062484D03*
X0265818Y0062384D03*
X0265818Y0062284D03*
X0265818Y0062184D03*
X0265818Y0062084D03*
X0265818Y0061984D03*
X0265818Y0061884D03*
X0265818Y0061784D03*
X0265818Y0061684D03*
X0266118Y0059484D03*
X0266118Y0059384D03*
X0266118Y0059284D03*
X0266218Y0059184D03*
X0266218Y0059084D03*
X0266218Y0058984D03*
X0266318Y0058884D03*
X0266318Y0058784D03*
X0266318Y0058684D03*
X0266418Y0058584D03*
X0266418Y0058484D03*
X0266518Y0058284D03*
X0266618Y0058084D03*
X0251818Y0058084D03*
X0251818Y0058184D03*
X0251818Y0058284D03*
X0251818Y0058384D03*
X0251818Y0058484D03*
X0251818Y0058584D03*
X0251818Y0058684D03*
X0251818Y0058784D03*
X0276018Y0071884D03*
X0296618Y0057884D03*
X0313918Y0070284D03*
X0313918Y0070384D03*
X0313918Y0070484D03*
D99*
X0313918Y0068384D03*
X0313918Y0068284D03*
X0313918Y0068184D03*
X0313918Y0068084D03*
X0300318Y0061184D03*
X0300318Y0060984D03*
X0292918Y0060984D03*
X0292818Y0061184D03*
X0279818Y0060884D03*
X0271818Y0060884D03*
X0271718Y0060984D03*
X0271918Y0067284D03*
X0257718Y0060984D03*
X0243518Y0060284D03*
X0243518Y0060184D03*
X0217118Y0066584D03*
X0212718Y0074484D03*
X0213018Y0075084D03*
X0205618Y0075684D03*
X0202018Y0070384D03*
X0201918Y0069984D03*
X0201718Y0069684D03*
X0209318Y0057584D03*
X0293118Y0069084D03*
X0296618Y0071684D03*
D100*
X0275768Y0058284D03*
X0259868Y0059284D03*
X0243568Y0063784D03*
X0249968Y0070384D03*
X0249968Y0070484D03*
X0249968Y0070584D03*
X0237068Y0070584D03*
X0237068Y0070684D03*
X0221868Y0074884D03*
X0211068Y0059784D03*
X0198268Y0057684D03*
X0198168Y0057784D03*
X0198068Y0057884D03*
X0197868Y0077084D03*
X0197968Y0077184D03*
X0198068Y0077284D03*
D101*
X0203818Y0073584D03*
X0203818Y0073384D03*
X0203618Y0073284D03*
X0203618Y0073084D03*
X0203418Y0072984D03*
X0204018Y0073684D03*
X0204818Y0074884D03*
X0194518Y0070484D03*
X0194518Y0070384D03*
X0194518Y0070284D03*
X0194518Y0070184D03*
X0194418Y0069984D03*
X0194418Y0069884D03*
X0194318Y0069284D03*
X0194318Y0069184D03*
X0194318Y0065984D03*
X0194418Y0065284D03*
X0194418Y0065184D03*
X0194518Y0064884D03*
X0194518Y0064784D03*
X0194518Y0064684D03*
X0194518Y0064584D03*
X0194618Y0064384D03*
X0194618Y0064284D03*
X0209318Y0057684D03*
X0223918Y0063884D03*
X0224018Y0064284D03*
X0224118Y0064584D03*
X0224118Y0064684D03*
X0224118Y0064784D03*
X0224218Y0065084D03*
X0224218Y0065184D03*
X0224318Y0067384D03*
X0224318Y0067484D03*
X0224318Y0067584D03*
X0224318Y0067684D03*
X0224318Y0067784D03*
X0224318Y0069284D03*
X0224318Y0069384D03*
X0224218Y0069884D03*
X0224218Y0069984D03*
X0224218Y0070084D03*
X0224118Y0070284D03*
X0224118Y0070384D03*
X0224118Y0070484D03*
X0221718Y0076984D03*
X0221718Y0077084D03*
X0221618Y0077184D03*
X0236118Y0075784D03*
X0236118Y0075684D03*
X0236118Y0075584D03*
X0250918Y0075584D03*
X0250918Y0075684D03*
X0250918Y0075484D03*
X0243518Y0061284D03*
X0265018Y0060884D03*
X0309618Y0059284D03*
X0318218Y0059284D03*
X0318218Y0059384D03*
X0318218Y0059184D03*
X0313918Y0066384D03*
X0313918Y0066484D03*
X0313918Y0066584D03*
X0313918Y0066684D03*
D102*
X0275718Y0057684D03*
X0271918Y0062184D03*
X0211018Y0063284D03*
X0204518Y0064684D03*
X0200618Y0066384D03*
X0200618Y0066584D03*
X0200418Y0066084D03*
X0203518Y0060284D03*
X0203618Y0060184D03*
X0210818Y0070384D03*
D103*
X0212318Y0066584D03*
X0209018Y0066584D03*
X0208918Y0066384D03*
X0208718Y0066084D03*
X0206418Y0068884D03*
X0200118Y0064484D03*
X0199818Y0059484D03*
X0204518Y0058784D03*
X0204818Y0058584D03*
X0217518Y0072884D03*
X0217518Y0073184D03*
X0278918Y0067584D03*
X0296618Y0060784D03*
X0296618Y0057684D03*
D104*
X0279218Y0063284D03*
X0261618Y0071584D03*
X0250718Y0074384D03*
X0250718Y0074484D03*
X0250718Y0074584D03*
X0236318Y0074584D03*
X0236318Y0074684D03*
X0223618Y0072084D03*
X0223518Y0072384D03*
X0223418Y0072884D03*
X0223318Y0073084D03*
X0223218Y0073284D03*
X0221918Y0076384D03*
X0221818Y0076484D03*
X0221818Y0076584D03*
X0221118Y0077684D03*
X0209318Y0085384D03*
X0195418Y0073284D03*
X0195318Y0073084D03*
X0195218Y0072584D03*
X0195018Y0072084D03*
X0195018Y0063184D03*
X0195518Y0061584D03*
X0209318Y0057784D03*
X0210818Y0060584D03*
X0223118Y0061584D03*
X0223118Y0061684D03*
X0223218Y0061784D03*
X0223318Y0062284D03*
X0223418Y0062484D03*
X0243518Y0061884D03*
X0243518Y0061784D03*
X0259818Y0058584D03*
X0296618Y0071484D03*
X0318218Y0060184D03*
D105*
X0262368Y0066184D03*
X0259768Y0057784D03*
X0217668Y0071684D03*
X0217568Y0071584D03*
X0217568Y0071484D03*
X0217568Y0071884D03*
X0210268Y0069284D03*
X0210068Y0068984D03*
X0211468Y0064284D03*
X0211468Y0064184D03*
X0205068Y0065884D03*
X0200468Y0065784D03*
X0203668Y0059884D03*
X0203768Y0059784D03*
D106*
X0210668Y0061884D03*
X0217368Y0068184D03*
X0217368Y0068284D03*
X0217468Y0068484D03*
X0217468Y0068584D03*
X0211968Y0072784D03*
X0212168Y0073184D03*
X0212068Y0073284D03*
X0206768Y0076684D03*
X0206568Y0076584D03*
X0206468Y0076484D03*
X0201368Y0068884D03*
X0243568Y0059284D03*
X0257268Y0061684D03*
X0257268Y0061784D03*
X0257268Y0061884D03*
X0257268Y0061984D03*
X0257268Y0062084D03*
X0257268Y0062184D03*
X0257268Y0062284D03*
X0257268Y0062384D03*
X0257368Y0062684D03*
X0257368Y0062784D03*
X0257468Y0062984D03*
X0265668Y0061384D03*
X0271168Y0061984D03*
X0271168Y0062084D03*
X0275768Y0057784D03*
X0291768Y0064184D03*
X0291768Y0064284D03*
X0291768Y0064384D03*
X0291768Y0064484D03*
X0291768Y0064584D03*
X0291768Y0065384D03*
X0291768Y0065484D03*
X0291768Y0065584D03*
X0291768Y0065684D03*
X0291768Y0065784D03*
X0291868Y0066284D03*
X0291968Y0066884D03*
X0291968Y0066984D03*
X0292068Y0067284D03*
X0292168Y0067584D03*
X0301068Y0067584D03*
X0301168Y0067284D03*
X0301268Y0066784D03*
X0301368Y0066484D03*
X0301368Y0066384D03*
X0301468Y0065384D03*
X0301468Y0065284D03*
X0301468Y0065184D03*
X0301468Y0065084D03*
X0301468Y0064984D03*
X0301468Y0064884D03*
X0301468Y0064784D03*
X0301468Y0064684D03*
X0301468Y0064584D03*
X0301368Y0063484D03*
X0307468Y0064884D03*
X0307468Y0064984D03*
X0307468Y0065084D03*
X0307368Y0065284D03*
X0307368Y0065384D03*
X0307368Y0065484D03*
X0307368Y0065584D03*
X0307268Y0065684D03*
X0307268Y0065784D03*
X0307268Y0065884D03*
X0307268Y0065984D03*
X0307168Y0066184D03*
X0307168Y0066284D03*
X0307168Y0066384D03*
X0307068Y0066584D03*
X0307068Y0066684D03*
X0307068Y0066784D03*
X0306968Y0067084D03*
X0306968Y0067184D03*
X0306868Y0067484D03*
X0306868Y0067584D03*
X0306768Y0067884D03*
X0306768Y0067984D03*
X0306668Y0068384D03*
X0306668Y0068484D03*
X0306568Y0068784D03*
X0306568Y0068884D03*
X0306468Y0069284D03*
X0306368Y0069684D03*
X0306068Y0070984D03*
X0313968Y0069784D03*
X0321068Y0068084D03*
X0321068Y0067984D03*
X0321068Y0067884D03*
X0320968Y0067584D03*
X0320968Y0067484D03*
X0320868Y0067184D03*
X0320868Y0067084D03*
X0320768Y0066784D03*
X0320768Y0066684D03*
X0320768Y0066584D03*
X0320668Y0066384D03*
X0320668Y0066284D03*
X0320668Y0066184D03*
X0320568Y0065984D03*
X0320568Y0065884D03*
X0320568Y0065784D03*
X0320468Y0065584D03*
X0320468Y0065484D03*
X0320468Y0065384D03*
X0320368Y0065184D03*
X0320368Y0065084D03*
X0320368Y0064984D03*
X0320268Y0064684D03*
X0320268Y0064584D03*
X0320168Y0064284D03*
X0320168Y0064184D03*
X0320168Y0064084D03*
X0320068Y0063884D03*
X0320068Y0063784D03*
X0320068Y0063684D03*
X0319968Y0063484D03*
X0319968Y0063384D03*
X0319968Y0063284D03*
X0321168Y0068284D03*
X0321168Y0068384D03*
X0321168Y0068484D03*
X0321268Y0068784D03*
X0321268Y0068884D03*
X0321368Y0069184D03*
X0321368Y0069284D03*
X0321468Y0069584D03*
X0321468Y0069684D03*
X0321568Y0069984D03*
X0321568Y0070084D03*
X0321668Y0070384D03*
X0321668Y0070484D03*
X0321668Y0070584D03*
X0321768Y0070884D03*
X0321768Y0070984D03*
X0321868Y0071284D03*
X0321868Y0071384D03*
X0321968Y0071684D03*
X0307568Y0064684D03*
X0307568Y0064584D03*
X0307568Y0064484D03*
X0307568Y0064384D03*
X0307668Y0064284D03*
X0307668Y0064184D03*
X0307668Y0064084D03*
X0307668Y0063984D03*
X0307768Y0063884D03*
X0307768Y0063784D03*
X0307768Y0063684D03*
X0307768Y0063584D03*
X0307868Y0063384D03*
X0307868Y0063284D03*
X0307868Y0063184D03*
X0280368Y0068084D03*
X0280368Y0068184D03*
X0265668Y0068084D03*
D107*
X0250368Y0072584D03*
X0250368Y0072684D03*
X0243568Y0062784D03*
X0236668Y0072684D03*
X0236668Y0072784D03*
X0236668Y0072884D03*
X0221868Y0075684D03*
X0196768Y0075684D03*
X0196668Y0075584D03*
X0195668Y0062284D03*
X0195668Y0062084D03*
X0196868Y0059284D03*
X0196968Y0059184D03*
X0209368Y0057884D03*
X0210868Y0060084D03*
X0210768Y0060184D03*
X0221968Y0059684D03*
X0296568Y0058384D03*
X0309568Y0061684D03*
X0309568Y0061784D03*
X0318268Y0061784D03*
X0318268Y0061684D03*
X0318268Y0061584D03*
D108*
X0296618Y0071084D03*
X0273618Y0066384D03*
X0249918Y0070084D03*
X0249918Y0070184D03*
X0249918Y0070284D03*
X0237118Y0070284D03*
X0237118Y0070384D03*
X0237118Y0070484D03*
X0221818Y0074984D03*
X0197818Y0076884D03*
X0220718Y0058284D03*
X0220618Y0058084D03*
X0220618Y0057984D03*
X0220518Y0057884D03*
D109*
X0216468Y0062184D03*
X0211068Y0063084D03*
X0210968Y0062984D03*
X0204468Y0064384D03*
X0204268Y0064084D03*
X0204168Y0063884D03*
X0200568Y0066784D03*
X0210868Y0070684D03*
X0211068Y0070984D03*
X0212268Y0076784D03*
X0217568Y0070884D03*
X0259768Y0057884D03*
X0311768Y0063184D03*
X0311768Y0063284D03*
X0311768Y0063384D03*
X0311868Y0063584D03*
X0311868Y0063684D03*
X0311868Y0063784D03*
X0311968Y0064084D03*
X0311968Y0064184D03*
X0312068Y0064484D03*
X0312068Y0064584D03*
X0312168Y0064984D03*
X0312268Y0065484D03*
X0315668Y0064984D03*
X0315768Y0064484D03*
X0315868Y0064084D03*
X0315968Y0063584D03*
D110*
X0318268Y0063084D03*
X0309568Y0063084D03*
X0278468Y0063584D03*
X0250068Y0070884D03*
X0250068Y0070984D03*
X0250068Y0071084D03*
X0236968Y0071084D03*
X0236968Y0071184D03*
X0236968Y0071284D03*
X0221868Y0075084D03*
X0243568Y0063584D03*
X0197968Y0057984D03*
X0197868Y0058084D03*
X0197768Y0058184D03*
X0195768Y0062884D03*
D111*
X0200768Y0066984D03*
X0200768Y0067184D03*
X0204268Y0063984D03*
X0204068Y0063684D03*
X0203468Y0060584D03*
X0210868Y0062684D03*
X0210868Y0062884D03*
X0216468Y0062084D03*
X0217468Y0070384D03*
X0217668Y0070484D03*
X0211368Y0071584D03*
X0211268Y0071384D03*
X0211068Y0071084D03*
X0212368Y0076684D03*
X0243568Y0057984D03*
D112*
X0243568Y0058784D03*
X0251868Y0057984D03*
X0266468Y0058384D03*
X0266568Y0058184D03*
X0266668Y0057984D03*
X0257568Y0067984D03*
X0257568Y0068084D03*
X0251868Y0069884D03*
X0261468Y0071884D03*
X0280268Y0067784D03*
X0313968Y0070584D03*
X0313968Y0070684D03*
X0216568Y0062784D03*
X0210768Y0062084D03*
X0203368Y0062184D03*
X0203168Y0061284D03*
X0203268Y0060984D03*
X0201068Y0067884D03*
X0201068Y0068084D03*
X0211568Y0072284D03*
X0211668Y0072384D03*
X0211868Y0072684D03*
X0211968Y0072884D03*
X0206968Y0076884D03*
D113*
X0211818Y0072584D03*
X0211718Y0072184D03*
X0217418Y0069584D03*
X0203518Y0062484D03*
X0203218Y0061184D03*
X0201018Y0067984D03*
X0239318Y0069784D03*
X0239318Y0069884D03*
X0239418Y0069684D03*
X0239418Y0069584D03*
X0239518Y0069384D03*
X0239518Y0069284D03*
X0239618Y0069084D03*
X0239618Y0068984D03*
X0239718Y0068884D03*
X0239718Y0068784D03*
X0239818Y0068584D03*
X0239818Y0068484D03*
X0239918Y0068284D03*
X0239918Y0068184D03*
X0240018Y0067984D03*
X0240118Y0067784D03*
X0240118Y0067684D03*
X0240218Y0067484D03*
X0240218Y0067384D03*
X0240318Y0067184D03*
X0240418Y0066984D03*
X0240418Y0066884D03*
X0240518Y0066684D03*
X0240518Y0066584D03*
X0240618Y0066384D03*
X0240718Y0066184D03*
X0240718Y0066084D03*
X0240818Y0065884D03*
X0240818Y0065784D03*
X0240918Y0065584D03*
X0241018Y0065384D03*
X0241018Y0065284D03*
X0241118Y0065084D03*
X0241118Y0064984D03*
X0241218Y0064784D03*
X0241318Y0064584D03*
X0241318Y0064484D03*
X0241418Y0064284D03*
X0241418Y0064184D03*
X0241518Y0063984D03*
X0245518Y0063884D03*
X0245618Y0064084D03*
X0245618Y0064184D03*
X0245718Y0064384D03*
X0245818Y0064584D03*
X0245818Y0064684D03*
X0245918Y0064884D03*
X0245918Y0064984D03*
X0246018Y0065184D03*
X0246118Y0065384D03*
X0246118Y0065484D03*
X0246218Y0065684D03*
X0246218Y0065784D03*
X0246318Y0065984D03*
X0246418Y0066184D03*
X0246418Y0066284D03*
X0246518Y0066484D03*
X0246518Y0066584D03*
X0246618Y0066784D03*
X0246718Y0066984D03*
X0246718Y0067084D03*
X0246818Y0067284D03*
X0246818Y0067384D03*
X0246918Y0067484D03*
X0246918Y0067584D03*
X0247018Y0067784D03*
X0247018Y0067884D03*
X0247118Y0068084D03*
X0247118Y0068184D03*
X0247218Y0068384D03*
X0247318Y0068584D03*
X0247318Y0068684D03*
X0247418Y0068884D03*
X0247418Y0068984D03*
X0247518Y0069084D03*
X0247518Y0069184D03*
X0247618Y0069384D03*
X0247618Y0069484D03*
X0247718Y0069684D03*
X0247718Y0069784D03*
X0257518Y0067884D03*
X0257518Y0067784D03*
X0259818Y0057984D03*
X0243518Y0058584D03*
X0243518Y0058684D03*
X0313918Y0070784D03*
X0313918Y0070884D03*
D114*
X0313918Y0066284D03*
X0313918Y0066184D03*
X0313918Y0066084D03*
X0313918Y0065984D03*
X0318218Y0059684D03*
X0309618Y0059684D03*
X0296618Y0058184D03*
X0279418Y0063184D03*
X0275718Y0057984D03*
X0259818Y0058484D03*
X0243518Y0061584D03*
X0224018Y0064484D03*
X0223918Y0064184D03*
X0223918Y0064084D03*
X0223818Y0063784D03*
X0223718Y0063084D03*
X0223618Y0062884D03*
X0223618Y0062784D03*
X0223518Y0062584D03*
X0224218Y0065884D03*
X0224118Y0070184D03*
X0224018Y0070584D03*
X0224018Y0070684D03*
X0223918Y0070884D03*
X0223918Y0070984D03*
X0223818Y0071684D03*
X0223818Y0071784D03*
X0223718Y0071984D03*
X0223618Y0072284D03*
X0221718Y0076884D03*
X0221318Y0077584D03*
X0209318Y0077384D03*
X0195018Y0072284D03*
X0195018Y0072184D03*
X0194918Y0071984D03*
X0194918Y0071884D03*
X0194818Y0071684D03*
X0194718Y0070984D03*
X0194718Y0070884D03*
X0194618Y0070584D03*
X0194518Y0070084D03*
X0194518Y0069784D03*
X0194618Y0064484D03*
X0194718Y0064184D03*
X0194818Y0063884D03*
X0194918Y0063384D03*
X0195518Y0061384D03*
X0210818Y0060684D03*
X0236218Y0075084D03*
X0236218Y0075184D03*
X0236218Y0075284D03*
X0250818Y0075084D03*
X0250818Y0074984D03*
D115*
X0257668Y0068284D03*
X0265768Y0067684D03*
X0265768Y0067584D03*
X0265768Y0067484D03*
X0265768Y0067384D03*
X0265768Y0067284D03*
X0265768Y0061584D03*
X0286068Y0057984D03*
X0313968Y0070184D03*
X0243568Y0059084D03*
X0243568Y0058984D03*
X0217568Y0069084D03*
X0217468Y0069284D03*
X0217368Y0068984D03*
X0211768Y0072484D03*
X0212068Y0073084D03*
X0212668Y0076284D03*
X0201268Y0068584D03*
X0201068Y0068284D03*
X0201168Y0068184D03*
X0203268Y0062084D03*
X0203168Y0061684D03*
X0203068Y0061384D03*
X0210768Y0062184D03*
X0216568Y0062984D03*
X0216568Y0063284D03*
X0216568Y0063384D03*
D116*
X0216718Y0064684D03*
X0216718Y0064784D03*
X0216918Y0064884D03*
X0216918Y0065484D03*
X0217218Y0066684D03*
X0217218Y0066784D03*
X0217118Y0066984D03*
X0212818Y0074684D03*
X0205918Y0075984D03*
X0201818Y0069884D03*
X0243518Y0059984D03*
X0257618Y0061084D03*
X0257818Y0063484D03*
X0259818Y0058184D03*
X0265518Y0061184D03*
X0271618Y0061084D03*
X0280018Y0061084D03*
X0280118Y0062484D03*
X0271818Y0067484D03*
X0272018Y0068984D03*
X0272118Y0069084D03*
X0279918Y0068984D03*
X0292918Y0068884D03*
X0292918Y0068784D03*
X0300218Y0068984D03*
X0300318Y0068884D03*
X0300418Y0068684D03*
X0300618Y0061484D03*
X0300518Y0061384D03*
X0296618Y0057984D03*
X0292618Y0061484D03*
X0313918Y0068584D03*
X0313918Y0068684D03*
X0313918Y0068784D03*
X0258118Y0068784D03*
D117*
X0243518Y0058084D03*
X0217518Y0069884D03*
X0217518Y0069984D03*
X0217618Y0070184D03*
X0211418Y0071684D03*
X0207718Y0077284D03*
X0207518Y0077184D03*
X0209318Y0077684D03*
X0200818Y0067384D03*
X0204118Y0063584D03*
X0203918Y0063384D03*
X0203918Y0063284D03*
X0203318Y0060784D03*
X0210818Y0062584D03*
X0216518Y0062284D03*
X0296618Y0071884D03*
X0313918Y0071684D03*
D118*
X0313918Y0069684D03*
X0313918Y0069584D03*
X0313918Y0069484D03*
X0321018Y0067784D03*
X0321018Y0067684D03*
X0320918Y0067384D03*
X0320918Y0067284D03*
X0320818Y0066984D03*
X0320818Y0066884D03*
X0320718Y0066484D03*
X0320618Y0066084D03*
X0320518Y0065684D03*
X0320418Y0065284D03*
X0320318Y0064884D03*
X0320318Y0064784D03*
X0320218Y0064484D03*
X0320218Y0064384D03*
X0320118Y0063984D03*
X0320018Y0063584D03*
X0321118Y0068184D03*
X0321218Y0068584D03*
X0321218Y0068684D03*
X0321318Y0068984D03*
X0321318Y0069084D03*
X0321418Y0069384D03*
X0321418Y0069484D03*
X0321518Y0069784D03*
X0321518Y0069884D03*
X0321618Y0070184D03*
X0321618Y0070284D03*
X0321718Y0070684D03*
X0321718Y0070784D03*
X0321818Y0071084D03*
X0321818Y0071184D03*
X0321918Y0071484D03*
X0321918Y0071584D03*
X0306718Y0068284D03*
X0306718Y0068184D03*
X0306718Y0068084D03*
X0306818Y0067784D03*
X0306818Y0067684D03*
X0306918Y0067384D03*
X0306918Y0067284D03*
X0307018Y0066984D03*
X0307018Y0066884D03*
X0307118Y0066484D03*
X0307218Y0066084D03*
X0307418Y0065184D03*
X0307518Y0064784D03*
X0301418Y0063584D03*
X0301318Y0063184D03*
X0301218Y0062784D03*
X0301218Y0062684D03*
X0301118Y0062484D03*
X0301118Y0062384D03*
X0301318Y0066684D03*
X0301218Y0067184D03*
X0301118Y0067484D03*
X0301018Y0067684D03*
X0300918Y0067984D03*
X0306418Y0069384D03*
X0306418Y0069484D03*
X0306418Y0069584D03*
X0306318Y0069784D03*
X0306318Y0069884D03*
X0306318Y0069984D03*
X0306318Y0070084D03*
X0306218Y0070184D03*
X0306218Y0070284D03*
X0306218Y0070384D03*
X0306218Y0070484D03*
X0306118Y0070584D03*
X0306118Y0070684D03*
X0306118Y0070784D03*
X0306118Y0070884D03*
X0306018Y0071084D03*
X0306018Y0071184D03*
X0306018Y0071284D03*
X0306018Y0071384D03*
X0305918Y0071484D03*
X0305918Y0071584D03*
X0305918Y0071684D03*
X0306518Y0069184D03*
X0306518Y0069084D03*
X0306518Y0068984D03*
X0306618Y0068684D03*
X0306618Y0068584D03*
X0296618Y0071784D03*
X0292418Y0068184D03*
X0292318Y0067984D03*
X0292218Y0067784D03*
X0291818Y0066184D03*
X0291818Y0063784D03*
X0291818Y0063684D03*
X0291918Y0063084D03*
X0292018Y0062684D03*
X0292018Y0062584D03*
X0292118Y0062384D03*
X0280318Y0068284D03*
X0280318Y0068384D03*
X0280218Y0068484D03*
X0271218Y0061884D03*
X0271218Y0061784D03*
X0265618Y0068184D03*
X0257918Y0068584D03*
X0257518Y0063084D03*
X0257418Y0062884D03*
X0257318Y0061584D03*
X0257318Y0061484D03*
X0259818Y0058084D03*
X0243518Y0059384D03*
X0243518Y0059484D03*
X0217318Y0067784D03*
X0217318Y0067884D03*
X0217318Y0067984D03*
X0216618Y0063884D03*
X0216618Y0063784D03*
X0216518Y0063584D03*
X0203218Y0061784D03*
X0201218Y0068484D03*
X0201418Y0068784D03*
X0212218Y0073584D03*
X0212318Y0073484D03*
X0212418Y0073784D03*
X0212418Y0073884D03*
X0212918Y0075984D03*
X0212818Y0076084D03*
D119*
X0221868Y0075884D03*
X0222568Y0074484D03*
X0236568Y0073384D03*
X0236568Y0073284D03*
X0236568Y0073184D03*
X0250468Y0073184D03*
X0250468Y0073284D03*
X0250468Y0073084D03*
X0261568Y0071484D03*
X0272968Y0066584D03*
X0275768Y0058084D03*
X0243568Y0062484D03*
X0222268Y0060184D03*
X0222168Y0059884D03*
X0196368Y0075084D03*
X0196268Y0074984D03*
X0196168Y0074784D03*
X0196068Y0074484D03*
X0309568Y0061384D03*
X0309568Y0061284D03*
X0309568Y0061184D03*
X0318268Y0061184D03*
X0318268Y0061284D03*
X0318268Y0061384D03*
X0318268Y0061084D03*
D120*
X0307818Y0063484D03*
X0313918Y0069884D03*
X0313918Y0069984D03*
X0313918Y0070084D03*
X0286018Y0070084D03*
X0286018Y0070184D03*
X0286018Y0070284D03*
X0286018Y0070384D03*
X0286018Y0070484D03*
X0286018Y0070584D03*
X0286018Y0070684D03*
X0286018Y0070784D03*
X0286018Y0070884D03*
X0286018Y0070984D03*
X0286018Y0071084D03*
X0286018Y0071184D03*
X0286018Y0071284D03*
X0286018Y0071384D03*
X0286018Y0071484D03*
X0286018Y0071584D03*
X0286018Y0071684D03*
X0286018Y0071784D03*
X0286018Y0071884D03*
X0286018Y0071984D03*
X0286018Y0072084D03*
X0286018Y0072184D03*
X0286018Y0072284D03*
X0286018Y0072384D03*
X0286018Y0072484D03*
X0286018Y0072584D03*
X0286018Y0072684D03*
X0286018Y0072784D03*
X0286018Y0072884D03*
X0286018Y0072984D03*
X0286018Y0073084D03*
X0286018Y0073184D03*
X0286018Y0073284D03*
X0286018Y0073384D03*
X0286018Y0073484D03*
X0286018Y0073584D03*
X0286018Y0073684D03*
X0286018Y0073784D03*
X0286018Y0073884D03*
X0286018Y0073984D03*
X0286018Y0074084D03*
X0286018Y0074184D03*
X0286018Y0074284D03*
X0286018Y0074384D03*
X0286018Y0074484D03*
X0286018Y0074584D03*
X0286018Y0074684D03*
X0286018Y0074784D03*
X0286018Y0074884D03*
X0286018Y0074984D03*
X0286018Y0075084D03*
X0286018Y0075184D03*
X0286018Y0075284D03*
X0286018Y0075384D03*
X0286018Y0075484D03*
X0286018Y0075584D03*
X0286018Y0075684D03*
X0286018Y0075784D03*
X0286018Y0075884D03*
X0286018Y0075984D03*
X0286018Y0076084D03*
X0286018Y0076184D03*
X0286018Y0076284D03*
X0286018Y0076384D03*
X0286018Y0076484D03*
X0286018Y0076584D03*
X0286018Y0076684D03*
X0286018Y0076784D03*
X0286018Y0076884D03*
X0286018Y0076984D03*
X0286018Y0069984D03*
X0286018Y0069884D03*
X0286018Y0069784D03*
X0286018Y0069684D03*
X0286018Y0069584D03*
X0286018Y0069484D03*
X0286018Y0069384D03*
X0286018Y0069284D03*
X0286018Y0069184D03*
X0286018Y0069084D03*
X0286018Y0068984D03*
X0286018Y0068884D03*
X0286018Y0068784D03*
X0286018Y0068684D03*
X0286018Y0068584D03*
X0286018Y0068484D03*
X0286018Y0068384D03*
X0286018Y0068284D03*
X0286018Y0068184D03*
X0286018Y0068084D03*
X0286018Y0067984D03*
X0286018Y0067884D03*
X0286018Y0067784D03*
X0286018Y0067684D03*
X0286018Y0067584D03*
X0286018Y0067484D03*
X0286018Y0067384D03*
X0286018Y0067284D03*
X0286018Y0067184D03*
X0286018Y0067084D03*
X0286018Y0066984D03*
X0286018Y0066884D03*
X0286018Y0066784D03*
X0286018Y0066684D03*
X0286018Y0066584D03*
X0286018Y0066484D03*
X0286018Y0066384D03*
X0286018Y0066284D03*
X0286018Y0066184D03*
X0286018Y0066084D03*
X0286018Y0065984D03*
X0286018Y0065884D03*
X0286018Y0065784D03*
X0286018Y0065684D03*
X0286018Y0065584D03*
X0286018Y0065484D03*
X0286018Y0065384D03*
X0286018Y0065284D03*
X0286018Y0065184D03*
X0286018Y0065084D03*
X0286018Y0064984D03*
X0286018Y0064884D03*
X0286018Y0064784D03*
X0286018Y0064684D03*
X0286018Y0064584D03*
X0286018Y0064484D03*
X0286018Y0064384D03*
X0286018Y0064284D03*
X0286018Y0064184D03*
X0286018Y0064084D03*
X0286018Y0063984D03*
X0286018Y0063884D03*
X0286018Y0063784D03*
X0286018Y0063684D03*
X0286018Y0063584D03*
X0286018Y0063484D03*
X0286018Y0063384D03*
X0286018Y0063284D03*
X0286018Y0063184D03*
X0286018Y0063084D03*
X0286018Y0062984D03*
X0286018Y0062884D03*
X0286018Y0062784D03*
X0286018Y0062684D03*
X0286018Y0062584D03*
X0286018Y0062484D03*
X0286018Y0062384D03*
X0286018Y0062284D03*
X0286018Y0062184D03*
X0286018Y0062084D03*
X0286018Y0061984D03*
X0286018Y0061884D03*
X0286018Y0061784D03*
X0286018Y0061684D03*
X0286018Y0061584D03*
X0286018Y0061484D03*
X0286018Y0061384D03*
X0286018Y0061284D03*
X0286018Y0061184D03*
X0286018Y0061084D03*
X0286018Y0060984D03*
X0286018Y0060884D03*
X0286018Y0060784D03*
X0286018Y0060684D03*
X0286018Y0060584D03*
X0286018Y0060484D03*
X0286018Y0060384D03*
X0286018Y0060284D03*
X0286018Y0060184D03*
X0286018Y0060084D03*
X0286018Y0059984D03*
X0286018Y0059884D03*
X0286018Y0059784D03*
X0286018Y0059684D03*
X0286018Y0059584D03*
X0286018Y0059484D03*
X0286018Y0059384D03*
X0286018Y0059284D03*
X0286018Y0059184D03*
X0286018Y0059084D03*
X0286018Y0058984D03*
X0286018Y0058884D03*
X0286018Y0058784D03*
X0286018Y0058684D03*
X0286018Y0058584D03*
X0286018Y0058484D03*
X0286018Y0058384D03*
X0286018Y0058284D03*
X0286018Y0058184D03*
X0286018Y0058084D03*
X0280418Y0067884D03*
X0280418Y0067984D03*
X0265718Y0067984D03*
X0265718Y0067884D03*
X0265718Y0067784D03*
X0257818Y0068484D03*
X0257718Y0068384D03*
X0257318Y0062584D03*
X0257318Y0062484D03*
X0265718Y0061484D03*
X0243518Y0059184D03*
X0217318Y0068684D03*
X0212218Y0073384D03*
X0212718Y0076184D03*
X0201318Y0068684D03*
X0201118Y0068384D03*
X0203318Y0061884D03*
X0203118Y0061584D03*
X0203218Y0061484D03*
X0210718Y0061784D03*
D121*
X0202518Y0071184D03*
X0202318Y0071084D03*
X0202718Y0071684D03*
X0202818Y0071884D03*
X0204718Y0074684D03*
X0205218Y0075184D03*
X0195418Y0060784D03*
X0195518Y0060684D03*
X0235918Y0076684D03*
X0235918Y0076784D03*
X0235918Y0076884D03*
X0251118Y0076684D03*
X0251118Y0076584D03*
X0272518Y0069284D03*
X0279418Y0069284D03*
X0279818Y0062884D03*
X0293518Y0069284D03*
X0299718Y0069284D03*
X0313918Y0067584D03*
X0313918Y0067484D03*
X0313918Y0067384D03*
X0313918Y0067284D03*
X0318218Y0058484D03*
X0318218Y0058384D03*
X0318218Y0058284D03*
X0318218Y0058184D03*
X0309618Y0058284D03*
X0309618Y0058384D03*
X0309618Y0058484D03*
X0296618Y0058084D03*
X0265218Y0060984D03*
X0243518Y0060784D03*
D122*
X0243568Y0058284D03*
X0243568Y0058184D03*
X0217468Y0070084D03*
X0211468Y0071784D03*
X0211468Y0071884D03*
X0211168Y0071184D03*
X0200868Y0067484D03*
X0200868Y0067284D03*
X0204068Y0063484D03*
X0203768Y0062984D03*
X0203468Y0060684D03*
X0216368Y0062384D03*
X0216468Y0062484D03*
X0313968Y0071484D03*
X0313968Y0071584D03*
D123*
X0318318Y0062484D03*
X0318318Y0062384D03*
X0318318Y0062284D03*
X0309518Y0062284D03*
X0309518Y0062384D03*
X0309518Y0062484D03*
X0296618Y0058484D03*
X0275718Y0058184D03*
X0259818Y0058984D03*
X0243518Y0063184D03*
X0250218Y0071784D03*
X0250218Y0071884D03*
X0261618Y0071384D03*
X0236818Y0071884D03*
X0236818Y0071984D03*
X0236818Y0072084D03*
X0221818Y0075584D03*
X0209318Y0085284D03*
X0197218Y0076284D03*
X0197118Y0076184D03*
X0195718Y0062584D03*
X0195718Y0062384D03*
X0197318Y0058684D03*
X0197418Y0058584D03*
X0197518Y0058484D03*
X0210918Y0059984D03*
D124*
X0210668Y0060984D03*
X0210668Y0061184D03*
X0202168Y0070784D03*
X0202368Y0070884D03*
X0202468Y0071284D03*
X0204968Y0074984D03*
X0205068Y0075084D03*
X0205468Y0075484D03*
X0195968Y0059584D03*
X0235868Y0076984D03*
X0251168Y0076984D03*
X0251168Y0076884D03*
X0251168Y0076784D03*
X0272168Y0067084D03*
X0271968Y0060784D03*
X0257868Y0060884D03*
X0243568Y0060684D03*
X0243568Y0060584D03*
X0293268Y0060784D03*
X0309568Y0058184D03*
D125*
X0318318Y0063184D03*
X0296618Y0058584D03*
X0276018Y0071384D03*
X0264018Y0066084D03*
X0261618Y0071284D03*
X0250018Y0070784D03*
X0250018Y0070684D03*
X0243518Y0063684D03*
X0237018Y0070784D03*
X0237018Y0070884D03*
X0237018Y0070984D03*
X0221818Y0075184D03*
X0210918Y0059884D03*
X0197718Y0058384D03*
X0195818Y0062984D03*
X0197818Y0076984D03*
X0259818Y0059184D03*
D126*
X0259818Y0058384D03*
X0272118Y0060684D03*
X0264818Y0068884D03*
X0261518Y0071684D03*
X0251018Y0075984D03*
X0251018Y0076084D03*
X0251018Y0076184D03*
X0236018Y0076184D03*
X0236018Y0076284D03*
X0243518Y0061084D03*
X0243518Y0060984D03*
X0210718Y0060784D03*
X0210618Y0060884D03*
X0195518Y0060884D03*
X0195418Y0060984D03*
X0203118Y0072384D03*
X0203218Y0072584D03*
X0203318Y0072684D03*
X0203318Y0072784D03*
X0203418Y0072884D03*
X0203618Y0073184D03*
X0203818Y0073484D03*
X0204018Y0073784D03*
X0204118Y0073884D03*
X0204218Y0074084D03*
X0204318Y0074184D03*
X0204718Y0074584D03*
X0204718Y0074784D03*
X0293418Y0060684D03*
X0299818Y0060684D03*
X0309618Y0058884D03*
X0309618Y0058784D03*
X0309618Y0058684D03*
X0318218Y0058684D03*
X0318218Y0058784D03*
X0318218Y0058884D03*
X0313918Y0066784D03*
X0313918Y0066884D03*
X0313918Y0066984D03*
X0313918Y0067084D03*
X0296618Y0071584D03*
D127*
X0313968Y0071084D03*
X0313968Y0070984D03*
X0247768Y0069884D03*
X0247668Y0069584D03*
X0247568Y0069284D03*
X0247368Y0068784D03*
X0247268Y0068484D03*
X0247168Y0068284D03*
X0247068Y0067984D03*
X0246968Y0067684D03*
X0246768Y0067184D03*
X0246668Y0066884D03*
X0246568Y0066684D03*
X0246468Y0066384D03*
X0246368Y0066084D03*
X0246268Y0065884D03*
X0246168Y0065584D03*
X0246068Y0065284D03*
X0245968Y0065084D03*
X0245868Y0064784D03*
X0245768Y0064484D03*
X0245668Y0064284D03*
X0245568Y0063984D03*
X0241568Y0063884D03*
X0241468Y0064084D03*
X0241368Y0064384D03*
X0241268Y0064684D03*
X0241168Y0064884D03*
X0241068Y0065184D03*
X0240968Y0065484D03*
X0240868Y0065684D03*
X0240768Y0065984D03*
X0240668Y0066284D03*
X0240568Y0066484D03*
X0240468Y0066784D03*
X0240368Y0067084D03*
X0240268Y0067284D03*
X0240168Y0067584D03*
X0240068Y0067884D03*
X0239968Y0068084D03*
X0239868Y0068384D03*
X0239768Y0068684D03*
X0239568Y0069184D03*
X0239468Y0069484D03*
X0239268Y0069984D03*
X0243568Y0058484D03*
X0217468Y0069384D03*
X0217468Y0069484D03*
X0217568Y0069784D03*
X0211468Y0071984D03*
X0212668Y0076384D03*
X0200968Y0067784D03*
X0200968Y0067584D03*
X0203868Y0063084D03*
X0203668Y0062784D03*
X0203568Y0062584D03*
X0203268Y0061084D03*
X0203168Y0060884D03*
X0210768Y0062284D03*
X0216368Y0062584D03*
X0216468Y0062684D03*
D128*
X0219168Y0078484D03*
X0199468Y0078484D03*
X0261668Y0070884D03*
X0274468Y0065984D03*
X0275768Y0058584D03*
D129*
X0279468Y0060684D03*
X0279668Y0062984D03*
X0272268Y0066984D03*
X0258368Y0063784D03*
X0243568Y0060884D03*
X0251068Y0076284D03*
X0251068Y0076384D03*
X0251068Y0076484D03*
X0235968Y0076484D03*
X0235968Y0076584D03*
X0235968Y0076384D03*
X0204568Y0074484D03*
X0204468Y0074384D03*
X0202968Y0072184D03*
X0202868Y0071984D03*
X0202568Y0071584D03*
X0202668Y0071484D03*
X0202468Y0071384D03*
X0196068Y0059484D03*
X0309568Y0058584D03*
X0318268Y0058584D03*
X0313968Y0067184D03*
D130*
X0217468Y0072984D03*
X0216868Y0077584D03*
X0206568Y0068984D03*
X0206468Y0069084D03*
X0209068Y0066684D03*
X0212068Y0066284D03*
X0212168Y0066084D03*
X0211968Y0065784D03*
X0216868Y0059584D03*
X0204668Y0058684D03*
X0204368Y0058884D03*
X0200068Y0064284D03*
D131*
X0195618Y0061984D03*
X0195618Y0061784D03*
X0195918Y0074184D03*
X0196118Y0074684D03*
X0221918Y0075984D03*
X0222718Y0074184D03*
X0236518Y0073684D03*
X0236518Y0073584D03*
X0236518Y0073484D03*
X0250518Y0073484D03*
X0250518Y0073384D03*
X0243518Y0062384D03*
X0259818Y0058684D03*
X0279018Y0063384D03*
X0276018Y0071584D03*
X0296618Y0071384D03*
X0309518Y0061084D03*
X0222518Y0060584D03*
X0222418Y0060284D03*
X0222318Y0060084D03*
X0222218Y0059984D03*
D132*
X0218768Y0078784D03*
X0199868Y0078784D03*
X0275768Y0058684D03*
D133*
X0275968Y0071484D03*
X0296568Y0071284D03*
X0309568Y0062184D03*
X0309568Y0062084D03*
X0318268Y0062084D03*
X0318268Y0062184D03*
X0250268Y0071984D03*
X0250268Y0072084D03*
X0250268Y0072184D03*
X0236768Y0072184D03*
X0236768Y0072284D03*
X0221868Y0075484D03*
X0197068Y0076084D03*
X0196968Y0075984D03*
X0195668Y0062484D03*
X0197168Y0058884D03*
X0197268Y0058784D03*
X0243568Y0062984D03*
X0243568Y0063084D03*
D134*
X0243518Y0062684D03*
X0243518Y0062584D03*
X0250418Y0072784D03*
X0250418Y0072884D03*
X0250418Y0072984D03*
X0236618Y0072984D03*
X0236618Y0073084D03*
X0222518Y0074384D03*
X0221918Y0075784D03*
X0196618Y0075484D03*
X0196418Y0075184D03*
X0196318Y0074884D03*
X0195618Y0062184D03*
X0196818Y0059384D03*
X0222118Y0059784D03*
X0259818Y0058784D03*
X0309518Y0061484D03*
X0309518Y0061584D03*
X0318318Y0061484D03*
D135*
X0296568Y0058784D03*
X0277968Y0063784D03*
X0219868Y0077984D03*
X0210768Y0058984D03*
X0210668Y0058884D03*
D136*
X0197118Y0058984D03*
X0197018Y0059084D03*
X0196618Y0075284D03*
X0196618Y0075384D03*
X0196818Y0075784D03*
X0196918Y0075884D03*
X0222418Y0074584D03*
X0236718Y0072584D03*
X0236718Y0072484D03*
X0236718Y0072384D03*
X0250318Y0072384D03*
X0250318Y0072484D03*
X0250318Y0072284D03*
X0243518Y0062884D03*
X0259818Y0058884D03*
X0278718Y0063484D03*
X0309518Y0061984D03*
X0309518Y0061884D03*
X0318318Y0061884D03*
X0318318Y0061984D03*
D137*
X0275968Y0064984D03*
X0275768Y0058884D03*
X0261668Y0070484D03*
D138*
X0217568Y0072584D03*
X0217468Y0072784D03*
X0209268Y0067184D03*
X0209268Y0067084D03*
X0209068Y0066884D03*
X0209168Y0066784D03*
X0208968Y0066484D03*
X0211868Y0065484D03*
X0206168Y0068284D03*
X0206068Y0068084D03*
X0206368Y0068584D03*
X0206468Y0068684D03*
X0200168Y0064784D03*
X0204168Y0059084D03*
X0204368Y0058984D03*
X0209368Y0079684D03*
D139*
X0218068Y0079184D03*
X0261668Y0070384D03*
X0275768Y0058984D03*
D140*
X0279568Y0063084D03*
X0272368Y0066884D03*
X0250968Y0075784D03*
X0250968Y0075884D03*
X0236068Y0075884D03*
X0236068Y0075984D03*
X0236068Y0076084D03*
X0224268Y0069584D03*
X0224268Y0069484D03*
X0224368Y0068884D03*
X0224368Y0068784D03*
X0224368Y0068684D03*
X0224368Y0068584D03*
X0224368Y0068484D03*
X0224368Y0068384D03*
X0224368Y0068284D03*
X0224368Y0068184D03*
X0224368Y0068084D03*
X0224368Y0067984D03*
X0224368Y0067884D03*
X0224368Y0067284D03*
X0224368Y0067184D03*
X0224368Y0067084D03*
X0224368Y0066984D03*
X0224368Y0066884D03*
X0224368Y0066784D03*
X0224368Y0066684D03*
X0224368Y0066584D03*
X0224368Y0066484D03*
X0224368Y0066384D03*
X0224368Y0066284D03*
X0224368Y0066184D03*
X0224268Y0065784D03*
X0224268Y0065684D03*
X0224268Y0065584D03*
X0224168Y0064984D03*
X0204468Y0074284D03*
X0203268Y0072484D03*
X0202968Y0072284D03*
X0202868Y0071784D03*
X0194368Y0069484D03*
X0194368Y0069384D03*
X0194268Y0068784D03*
X0194268Y0068684D03*
X0194268Y0068584D03*
X0194268Y0068484D03*
X0194268Y0068384D03*
X0194268Y0068284D03*
X0194268Y0068184D03*
X0194268Y0068084D03*
X0194268Y0067984D03*
X0194268Y0067884D03*
X0194268Y0067784D03*
X0194268Y0067684D03*
X0194268Y0067584D03*
X0194268Y0067484D03*
X0194268Y0067384D03*
X0194268Y0067284D03*
X0194268Y0067184D03*
X0194268Y0067084D03*
X0194268Y0066984D03*
X0194268Y0066884D03*
X0194268Y0066784D03*
X0194268Y0066684D03*
X0194268Y0066584D03*
X0194268Y0066484D03*
X0194268Y0066384D03*
X0194268Y0066284D03*
X0194368Y0065884D03*
X0194368Y0065784D03*
X0194368Y0065684D03*
X0194468Y0065084D03*
X0195468Y0061084D03*
X0243568Y0061184D03*
X0309568Y0059184D03*
X0309568Y0059084D03*
X0309568Y0058984D03*
X0318268Y0058984D03*
X0318268Y0059084D03*
D141*
X0217568Y0072384D03*
X0209468Y0067584D03*
X0209268Y0067284D03*
X0211868Y0065384D03*
X0211668Y0065084D03*
X0206268Y0068484D03*
X0200268Y0064884D03*
X0203968Y0059284D03*
X0204168Y0059184D03*
D142*
X0199068Y0059584D03*
X0199368Y0063084D03*
X0199468Y0063184D03*
X0199668Y0063484D03*
X0199768Y0063684D03*
X0199968Y0063884D03*
X0208168Y0064784D03*
X0208368Y0065084D03*
X0208468Y0065384D03*
X0206968Y0070084D03*
X0217468Y0073584D03*
X0217668Y0073784D03*
X0218068Y0074484D03*
X0211268Y0079484D03*
X0207368Y0079484D03*
X0216068Y0061384D03*
X0215768Y0059184D03*
D143*
X0217618Y0079384D03*
X0201018Y0079384D03*
X0261718Y0070084D03*
X0275818Y0059184D03*
X0296618Y0059784D03*
X0296618Y0069984D03*
D144*
X0217618Y0072484D03*
X0209618Y0067884D03*
X0209518Y0067684D03*
X0209518Y0067484D03*
X0211818Y0065284D03*
X0211618Y0064984D03*
X0206018Y0067784D03*
X0205918Y0067884D03*
X0206118Y0068184D03*
X0205818Y0067484D03*
X0200218Y0065084D03*
X0200118Y0064984D03*
X0203918Y0059384D03*
X0216918Y0077684D03*
D145*
X0209318Y0083084D03*
X0216118Y0059384D03*
D146*
X0223768Y0063384D03*
X0223868Y0063584D03*
X0223868Y0063684D03*
X0223968Y0063984D03*
X0224068Y0064384D03*
X0224068Y0064884D03*
X0224168Y0065284D03*
X0224168Y0065384D03*
X0224168Y0065484D03*
X0224268Y0065984D03*
X0224268Y0066084D03*
X0224268Y0068984D03*
X0224268Y0069084D03*
X0224268Y0069184D03*
X0224168Y0069684D03*
X0224168Y0069784D03*
X0224068Y0070784D03*
X0223968Y0071084D03*
X0223968Y0071184D03*
X0223868Y0071384D03*
X0223868Y0071484D03*
X0221468Y0077284D03*
X0221368Y0077484D03*
X0236168Y0075484D03*
X0236168Y0075384D03*
X0250868Y0075384D03*
X0250868Y0075284D03*
X0250868Y0075184D03*
X0272568Y0066784D03*
X0275968Y0071684D03*
X0243568Y0061484D03*
X0243568Y0061384D03*
X0204168Y0073984D03*
X0202968Y0072084D03*
X0194768Y0071484D03*
X0194768Y0071384D03*
X0194668Y0071184D03*
X0194668Y0071084D03*
X0194568Y0070784D03*
X0194568Y0070684D03*
X0194468Y0069684D03*
X0194468Y0069584D03*
X0194368Y0069084D03*
X0194368Y0068984D03*
X0194368Y0068884D03*
X0194368Y0066184D03*
X0194368Y0066084D03*
X0194468Y0065584D03*
X0194468Y0065484D03*
X0194468Y0065384D03*
X0194568Y0064984D03*
X0194668Y0064084D03*
X0194668Y0063984D03*
X0194768Y0063784D03*
X0194768Y0063684D03*
X0194868Y0063484D03*
X0195468Y0061284D03*
X0195568Y0061184D03*
X0309568Y0059584D03*
X0309568Y0059484D03*
X0309568Y0059384D03*
X0318268Y0059484D03*
X0318268Y0059584D03*
D147*
X0217568Y0072184D03*
X0209668Y0067984D03*
X0205968Y0067684D03*
X0205768Y0067584D03*
X0205668Y0067184D03*
X0211568Y0064784D03*
X0203868Y0059484D03*
X0200268Y0065284D03*
D148*
X0201568Y0079584D03*
X0217068Y0079584D03*
X0261668Y0069584D03*
X0262168Y0064784D03*
X0275768Y0059484D03*
X0275968Y0070084D03*
X0296568Y0060184D03*
D149*
X0217518Y0073084D03*
X0217518Y0073384D03*
X0210418Y0079584D03*
X0208218Y0079584D03*
X0208318Y0077884D03*
X0206918Y0069784D03*
X0206718Y0069684D03*
X0206618Y0069284D03*
X0212218Y0066384D03*
X0208818Y0066184D03*
X0208718Y0065984D03*
X0208718Y0065784D03*
X0208518Y0065684D03*
X0199918Y0059584D03*
D150*
X0203818Y0059584D03*
X0200318Y0065184D03*
X0205618Y0067084D03*
X0205818Y0067384D03*
X0209818Y0068284D03*
X0211518Y0064884D03*
X0211518Y0064684D03*
X0209318Y0077784D03*
D151*
X0209368Y0077584D03*
X0212268Y0073684D03*
X0217368Y0068384D03*
X0217268Y0068084D03*
X0217268Y0067584D03*
X0217268Y0067484D03*
X0216668Y0064184D03*
X0216668Y0064084D03*
X0216668Y0063984D03*
X0216568Y0063484D03*
X0210768Y0061684D03*
X0210668Y0061584D03*
X0243568Y0059584D03*
X0257368Y0061384D03*
X0257568Y0063184D03*
X0257668Y0063284D03*
X0265568Y0068284D03*
X0265568Y0068384D03*
X0271668Y0068384D03*
X0271668Y0068284D03*
X0271668Y0068184D03*
X0271668Y0068084D03*
X0271668Y0067984D03*
X0271768Y0068484D03*
X0271768Y0068584D03*
X0271868Y0068784D03*
X0280168Y0068584D03*
X0291968Y0066784D03*
X0291968Y0066684D03*
X0291968Y0066584D03*
X0291968Y0066484D03*
X0291968Y0066384D03*
X0291868Y0066084D03*
X0291868Y0065984D03*
X0291868Y0065884D03*
X0291868Y0065284D03*
X0291868Y0065184D03*
X0291868Y0064084D03*
X0291868Y0063984D03*
X0291868Y0063884D03*
X0291968Y0063384D03*
X0291968Y0063284D03*
X0291968Y0063184D03*
X0292068Y0062884D03*
X0292068Y0062784D03*
X0292068Y0062484D03*
X0292168Y0062184D03*
X0292268Y0061984D03*
X0292368Y0061784D03*
X0292068Y0067084D03*
X0292068Y0067184D03*
X0292168Y0067384D03*
X0292168Y0067484D03*
X0292268Y0067684D03*
X0292368Y0067884D03*
X0292468Y0068284D03*
X0292668Y0068584D03*
X0300668Y0068384D03*
X0300768Y0068284D03*
X0300868Y0068084D03*
X0300868Y0067884D03*
X0301068Y0067384D03*
X0301168Y0067084D03*
X0301168Y0066984D03*
X0301168Y0066884D03*
X0301268Y0066584D03*
X0301268Y0066284D03*
X0301368Y0066184D03*
X0301368Y0066084D03*
X0301368Y0065984D03*
X0301368Y0065884D03*
X0301368Y0065784D03*
X0301368Y0065684D03*
X0301368Y0065584D03*
X0301368Y0065484D03*
X0301368Y0064484D03*
X0301368Y0064384D03*
X0301368Y0064284D03*
X0301368Y0064184D03*
X0301368Y0064084D03*
X0301368Y0063984D03*
X0301368Y0063884D03*
X0301368Y0063784D03*
X0301268Y0063384D03*
X0301268Y0063284D03*
X0301168Y0062884D03*
X0301068Y0062184D03*
X0300968Y0061984D03*
X0313968Y0069384D03*
X0271368Y0061584D03*
X0271368Y0061484D03*
X0271268Y0061684D03*
D152*
X0261918Y0059684D03*
X0261918Y0059584D03*
X0261818Y0059784D03*
X0261818Y0059884D03*
D153*
X0262718Y0065384D03*
X0296618Y0070184D03*
X0296618Y0059584D03*
D154*
X0296618Y0071984D03*
X0216618Y0061684D03*
X0211518Y0064384D03*
X0205418Y0066484D03*
X0205218Y0066384D03*
X0210118Y0068784D03*
X0210218Y0069084D03*
X0210218Y0069184D03*
X0203818Y0059684D03*
D155*
X0216618Y0063684D03*
X0216718Y0064384D03*
X0217218Y0067084D03*
X0217218Y0067184D03*
X0217218Y0067284D03*
X0217218Y0067684D03*
X0212418Y0073984D03*
X0212618Y0074284D03*
X0213018Y0075884D03*
X0206418Y0076384D03*
X0206218Y0076284D03*
X0206118Y0076184D03*
X0201618Y0069484D03*
X0201418Y0069184D03*
X0201318Y0068984D03*
X0243518Y0059684D03*
X0257418Y0061284D03*
X0257518Y0061184D03*
X0257718Y0063384D03*
X0265618Y0061284D03*
X0271418Y0061384D03*
X0280218Y0061484D03*
X0280218Y0061584D03*
X0280218Y0061684D03*
X0280218Y0061784D03*
X0280218Y0061884D03*
X0271718Y0067784D03*
X0271718Y0067884D03*
X0271818Y0068684D03*
X0271918Y0068884D03*
X0265418Y0068484D03*
X0258018Y0068684D03*
X0280118Y0068684D03*
X0291818Y0065084D03*
X0291818Y0064984D03*
X0291818Y0064884D03*
X0291818Y0064784D03*
X0291818Y0064684D03*
X0291918Y0063584D03*
X0291918Y0063484D03*
X0292018Y0062984D03*
X0292218Y0062284D03*
X0292318Y0062084D03*
X0292418Y0061684D03*
X0292418Y0068084D03*
X0292618Y0068384D03*
X0292718Y0068684D03*
X0300718Y0068184D03*
X0300918Y0067784D03*
X0301318Y0063684D03*
X0301218Y0063084D03*
X0301218Y0062984D03*
X0301118Y0062584D03*
X0301018Y0062284D03*
X0300918Y0062084D03*
X0300818Y0061884D03*
X0300818Y0061684D03*
X0300718Y0061584D03*
X0313918Y0068984D03*
X0313918Y0069084D03*
X0313918Y0069184D03*
X0313918Y0069284D03*
D156*
X0296618Y0069384D03*
X0296618Y0060384D03*
X0275818Y0059684D03*
X0276018Y0069884D03*
X0261718Y0069284D03*
X0261718Y0069184D03*
X0262018Y0064484D03*
X0209318Y0084684D03*
D157*
X0205768Y0075784D03*
X0205468Y0075584D03*
X0212768Y0074784D03*
X0212868Y0074984D03*
X0213168Y0075384D03*
X0213168Y0075584D03*
X0202168Y0070684D03*
X0202068Y0070284D03*
X0201868Y0070184D03*
X0195468Y0060384D03*
X0195468Y0060284D03*
X0195568Y0060084D03*
X0195668Y0059884D03*
X0195768Y0059784D03*
X0210668Y0061084D03*
X0243568Y0060384D03*
X0258168Y0063684D03*
X0265368Y0061084D03*
X0272268Y0069184D03*
X0279968Y0062684D03*
X0293068Y0060884D03*
X0300168Y0060884D03*
X0299968Y0069184D03*
X0293268Y0069184D03*
X0293168Y0068984D03*
D158*
X0292668Y0068484D03*
X0300368Y0068784D03*
X0300468Y0068584D03*
X0300568Y0068484D03*
X0300768Y0061784D03*
X0292668Y0061284D03*
X0292568Y0061384D03*
X0292568Y0061584D03*
X0292368Y0061884D03*
X0280268Y0061984D03*
X0280268Y0062084D03*
X0280268Y0062184D03*
X0280168Y0062284D03*
X0280168Y0062384D03*
X0280168Y0061384D03*
X0280068Y0061284D03*
X0280068Y0061184D03*
X0271568Y0061184D03*
X0271468Y0061284D03*
X0271768Y0067584D03*
X0271768Y0067684D03*
X0265368Y0068584D03*
X0279968Y0068884D03*
X0280068Y0068784D03*
X0313968Y0068884D03*
X0243568Y0059884D03*
X0243568Y0059784D03*
X0217068Y0066284D03*
X0217068Y0066384D03*
X0217168Y0066884D03*
X0217168Y0067384D03*
X0216968Y0065684D03*
X0216868Y0065184D03*
X0216868Y0065084D03*
X0216868Y0064984D03*
X0216768Y0064284D03*
X0210768Y0061484D03*
X0210668Y0061384D03*
X0201468Y0069084D03*
X0201468Y0069284D03*
X0201668Y0069384D03*
X0201668Y0069584D03*
X0201768Y0069784D03*
X0212468Y0074084D03*
X0212668Y0074184D03*
X0212668Y0074384D03*
X0212768Y0074584D03*
D159*
X0221368Y0077384D03*
X0221768Y0076784D03*
X0221768Y0076684D03*
X0223468Y0072684D03*
X0223568Y0072484D03*
X0223668Y0072184D03*
X0223668Y0071884D03*
X0223768Y0071584D03*
X0223868Y0071284D03*
X0236268Y0074784D03*
X0236268Y0074884D03*
X0236268Y0074984D03*
X0250768Y0074884D03*
X0250768Y0074784D03*
X0250768Y0074684D03*
X0243568Y0061684D03*
X0223768Y0063484D03*
X0223668Y0063284D03*
X0223668Y0063184D03*
X0223568Y0062984D03*
X0223568Y0062684D03*
X0223468Y0062384D03*
X0223368Y0062184D03*
X0223268Y0061984D03*
X0194968Y0063284D03*
X0194868Y0063584D03*
X0194768Y0071284D03*
X0194868Y0071584D03*
X0194968Y0071784D03*
X0195068Y0072384D03*
X0195068Y0072484D03*
X0195168Y0072684D03*
X0195268Y0072884D03*
X0309568Y0060084D03*
X0309568Y0059984D03*
X0309568Y0059884D03*
X0309568Y0059784D03*
X0313868Y0065884D03*
X0318268Y0060084D03*
X0318268Y0059984D03*
X0318268Y0059884D03*
X0318268Y0059784D03*
D160*
X0275768Y0059884D03*
X0275968Y0069684D03*
X0261868Y0064184D03*
X0216668Y0079684D03*
X0201968Y0079684D03*
D161*
X0262418Y0065084D03*
X0296618Y0069884D03*
X0296618Y0059884D03*
D162*
X0275768Y0060284D03*
X0261768Y0060084D03*
X0261768Y0059984D03*
X0261668Y0060384D03*
D163*
X0262318Y0064984D03*
X0261718Y0069784D03*
X0296618Y0069684D03*
X0296618Y0059984D03*
X0209318Y0084784D03*
D164*
X0209368Y0085484D03*
X0206068Y0076084D03*
X0205768Y0075884D03*
X0212968Y0075784D03*
X0201868Y0070084D03*
X0216968Y0066184D03*
X0216968Y0066084D03*
X0217068Y0065884D03*
X0217068Y0065784D03*
X0216868Y0065584D03*
X0216968Y0065384D03*
X0216968Y0065284D03*
X0216768Y0064584D03*
X0216768Y0064484D03*
X0217168Y0066484D03*
X0210668Y0061284D03*
X0243568Y0060084D03*
X0257968Y0063584D03*
X0265268Y0068684D03*
X0261568Y0071784D03*
X0271868Y0067384D03*
X0279768Y0069084D03*
X0280068Y0062584D03*
X0279868Y0060984D03*
X0292868Y0061084D03*
X0300368Y0061084D03*
X0300468Y0061284D03*
X0313968Y0068484D03*
X0300068Y0069084D03*
D165*
X0296618Y0069584D03*
X0296618Y0060084D03*
D166*
X0275818Y0060384D03*
X0261718Y0060284D03*
X0261718Y0060184D03*
X0261618Y0060484D03*
X0261618Y0060584D03*
X0261618Y0060684D03*
D167*
X0275768Y0060184D03*
X0275968Y0069384D03*
D168*
X0272768Y0066684D03*
X0250668Y0074184D03*
X0250668Y0074284D03*
X0236368Y0074284D03*
X0236368Y0074384D03*
X0236368Y0074484D03*
X0223468Y0072584D03*
X0223368Y0072784D03*
X0223268Y0072984D03*
X0223168Y0073484D03*
X0223068Y0073584D03*
X0223068Y0073684D03*
X0223268Y0062084D03*
X0223168Y0061884D03*
X0223068Y0061484D03*
X0222968Y0061284D03*
X0222868Y0061084D03*
X0210768Y0060384D03*
X0210668Y0060484D03*
X0195568Y0061484D03*
X0195568Y0061684D03*
X0195268Y0072784D03*
X0195368Y0072984D03*
X0195468Y0073384D03*
X0195468Y0073484D03*
X0195568Y0073584D03*
X0195668Y0073784D03*
X0243568Y0061984D03*
X0309568Y0060584D03*
X0309568Y0060484D03*
X0309568Y0060384D03*
X0309568Y0060284D03*
X0309568Y0060184D03*
X0318268Y0060284D03*
X0318268Y0060384D03*
X0318268Y0060484D03*
X0318268Y0060584D03*
D169*
X0318268Y0060684D03*
X0318268Y0060784D03*
X0318268Y0060884D03*
X0318268Y0060984D03*
X0309568Y0060984D03*
X0309568Y0060884D03*
X0309568Y0060784D03*
X0309568Y0060684D03*
X0250568Y0073584D03*
X0250568Y0073684D03*
X0250568Y0073784D03*
X0236468Y0073784D03*
X0236468Y0073884D03*
X0222868Y0073884D03*
X0222868Y0074084D03*
X0222768Y0074284D03*
X0221868Y0076084D03*
X0243568Y0062284D03*
X0243568Y0062184D03*
X0222668Y0060884D03*
X0222668Y0060684D03*
X0222568Y0060484D03*
X0222468Y0060384D03*
X0210768Y0060284D03*
X0195568Y0061884D03*
X0195668Y0073684D03*
X0195768Y0073884D03*
X0195868Y0074284D03*
X0195968Y0074384D03*
X0196068Y0074584D03*
D170*
X0204768Y0065184D03*
X0204668Y0064784D03*
X0204468Y0064584D03*
X0204468Y0064484D03*
X0203468Y0060384D03*
X0216468Y0061984D03*
X0217568Y0070684D03*
X0217568Y0070784D03*
X0217568Y0071184D03*
X0210868Y0070584D03*
X0210668Y0070284D03*
X0210768Y0070184D03*
X0211968Y0076984D03*
D171*
X0209368Y0084484D03*
X0261568Y0060784D03*
X0275768Y0060484D03*
D172*
X0275968Y0069784D03*
X0261668Y0069084D03*
X0261968Y0064384D03*
X0296568Y0060484D03*
D173*
X0272868Y0062284D03*
X0218168Y0074584D03*
X0210368Y0077884D03*
X0209368Y0077984D03*
X0206768Y0069484D03*
X0206568Y0069384D03*
X0206568Y0069184D03*
X0208868Y0066284D03*
X0212168Y0066184D03*
X0212368Y0066484D03*
X0212468Y0066684D03*
X0216868Y0061284D03*
X0200068Y0064384D03*
D174*
X0206018Y0067984D03*
X0209118Y0066984D03*
X0209418Y0067384D03*
X0211818Y0065584D03*
X0211718Y0065184D03*
X0216818Y0061484D03*
X0217618Y0072684D03*
X0258718Y0067584D03*
D175*
X0217568Y0071984D03*
X0217568Y0072284D03*
X0209868Y0068384D03*
X0209668Y0068184D03*
X0209568Y0067784D03*
X0211468Y0064484D03*
X0205468Y0066784D03*
X0216668Y0061584D03*
D176*
X0216618Y0061784D03*
X0211118Y0063484D03*
X0204818Y0065284D03*
X0204818Y0065484D03*
X0204718Y0065084D03*
X0200518Y0066284D03*
X0210618Y0069984D03*
X0211618Y0077184D03*
X0258118Y0067684D03*
X0276018Y0071984D03*
D177*
X0217568Y0071384D03*
X0217568Y0071084D03*
X0217568Y0070984D03*
X0210668Y0070084D03*
X0210468Y0069884D03*
X0210468Y0069784D03*
X0210368Y0069484D03*
X0204668Y0064984D03*
X0200568Y0066484D03*
X0211068Y0063584D03*
X0211068Y0063384D03*
X0211268Y0063884D03*
X0216468Y0061884D03*
X0211768Y0077084D03*
D178*
X0221868Y0075284D03*
X0236868Y0071784D03*
X0236868Y0071684D03*
X0236868Y0071584D03*
X0250168Y0071584D03*
X0250168Y0071684D03*
X0250168Y0071484D03*
X0243568Y0063284D03*
X0273368Y0066484D03*
X0309568Y0062584D03*
X0318268Y0062584D03*
X0318268Y0062684D03*
X0197368Y0076484D03*
X0197268Y0076384D03*
D179*
X0210918Y0070784D03*
X0211218Y0071284D03*
X0217518Y0070284D03*
X0217618Y0070584D03*
X0210918Y0062784D03*
X0204118Y0063784D03*
X0200618Y0066684D03*
X0200618Y0066884D03*
X0200718Y0067084D03*
X0209318Y0085584D03*
D180*
X0261818Y0064084D03*
D181*
X0296618Y0069184D03*
X0217018Y0077484D03*
X0206318Y0068784D03*
X0206218Y0068384D03*
X0211918Y0065884D03*
X0211918Y0065684D03*
X0212118Y0065984D03*
X0200118Y0064684D03*
X0200018Y0064584D03*
D182*
X0200218Y0065384D03*
X0200318Y0065584D03*
X0205418Y0066584D03*
X0205618Y0066884D03*
X0205518Y0066984D03*
X0205718Y0067284D03*
X0209618Y0068084D03*
X0210018Y0068684D03*
X0211418Y0064584D03*
D183*
X0209368Y0084984D03*
X0261668Y0070584D03*
X0262968Y0065584D03*
X0275268Y0065484D03*
X0275568Y0065284D03*
X0276568Y0064584D03*
X0275968Y0070784D03*
D184*
X0275968Y0070384D03*
X0261668Y0069984D03*
X0262468Y0065184D03*
D185*
X0217568Y0071784D03*
X0217568Y0072084D03*
X0210068Y0068884D03*
X0209868Y0068584D03*
X0209968Y0068484D03*
X0205368Y0066684D03*
X0205268Y0066284D03*
X0200368Y0065684D03*
X0200368Y0065484D03*
D186*
X0209318Y0079784D03*
D187*
X0209368Y0079984D03*
D188*
X0209368Y0080084D03*
D189*
X0209368Y0080184D03*
D190*
X0209368Y0080284D03*
D191*
X0209368Y0080384D03*
D192*
X0209368Y0080484D03*
D193*
X0209368Y0080584D03*
D194*
X0209368Y0080684D03*
D195*
X0209368Y0080784D03*
D196*
X0209318Y0080884D03*
D197*
X0209318Y0080984D03*
D198*
X0209318Y0081584D03*
D199*
X0209318Y0081984D03*
D200*
X0209318Y0082284D03*
D201*
X0209318Y0082484D03*
D202*
X0209318Y0082684D03*
D203*
X0209318Y0082884D03*
D204*
X0209368Y0083184D03*
D205*
X0209318Y0083484D03*
D206*
X0209318Y0083584D03*
D207*
X0209368Y0083684D03*
D208*
X0209368Y0083784D03*
D209*
X0209368Y0083884D03*
D210*
X0209318Y0083984D03*
D211*
X0209318Y0084084D03*
D212*
X0209368Y0084284D03*
D213*
X0209318Y0084384D03*
D214*
X0145258Y0085895D02*
X0139353Y0085895D01*
X0142306Y0082942D01*
X0142306Y0086879D01*
X0134811Y0085895D02*
X0134811Y0083926D01*
X0133827Y0082942D01*
X0134811Y0080433D02*
X0128906Y0076497D01*
X0128906Y0073988D02*
X0133827Y0073988D01*
X0134811Y0073004D01*
X0134811Y0071035D01*
X0133827Y0070051D01*
X0128906Y0070051D01*
X0130875Y0067542D02*
X0134811Y0067542D01*
X0131859Y0067542D02*
X0131859Y0063606D01*
X0130875Y0063606D02*
X0128906Y0065574D01*
X0130875Y0067542D01*
X0130875Y0063606D02*
X0134811Y0063606D01*
X0139353Y0065574D02*
X0141322Y0067542D01*
X0145258Y0067542D01*
X0144274Y0070051D02*
X0139353Y0070051D01*
X0142306Y0067542D02*
X0142306Y0063606D01*
X0141322Y0063606D02*
X0145258Y0063606D01*
X0141322Y0063606D02*
X0139353Y0065574D01*
X0144274Y0070051D02*
X0145258Y0071035D01*
X0145258Y0073004D01*
X0144274Y0073988D01*
X0139353Y0073988D01*
X0139353Y0076497D02*
X0145258Y0080433D01*
X0145258Y0076497D02*
X0139353Y0080433D01*
X0134811Y0076497D02*
X0128906Y0080433D01*
X0129890Y0082942D02*
X0128906Y0083926D01*
X0128906Y0085895D01*
X0129890Y0086879D01*
X0130875Y0086879D01*
X0131859Y0085895D01*
X0132843Y0086879D01*
X0133827Y0086879D01*
X0134811Y0085895D01*
X0131859Y0085895D02*
X0131859Y0084911D01*
X0124299Y0086678D02*
X0124299Y0082741D01*
X0120362Y0086678D01*
X0119378Y0086678D01*
X0118394Y0085694D01*
X0118394Y0083726D01*
X0119378Y0082741D01*
X0118394Y0080233D02*
X0124299Y0076296D01*
X0123315Y0073787D02*
X0118394Y0073787D01*
X0118394Y0076296D02*
X0124299Y0080233D01*
X0114363Y0081236D02*
X0108458Y0077300D01*
X0108458Y0074791D02*
X0113379Y0074791D01*
X0114363Y0073807D01*
X0114363Y0071838D01*
X0113379Y0070854D01*
X0108458Y0070854D01*
X0110427Y0068345D02*
X0108458Y0066377D01*
X0110427Y0064409D01*
X0114363Y0064409D01*
X0111411Y0064409D02*
X0111411Y0068345D01*
X0110427Y0068345D02*
X0114363Y0068345D01*
X0118394Y0069850D02*
X0123315Y0069850D01*
X0124299Y0070835D01*
X0124299Y0072803D01*
X0123315Y0073787D01*
X0114363Y0077300D02*
X0108458Y0081236D01*
X0110427Y0083745D02*
X0108458Y0085714D01*
X0114363Y0085714D01*
X0114363Y0087682D02*
X0114363Y0083745D01*
X0120362Y0067342D02*
X0124299Y0067342D01*
X0121346Y0067342D02*
X0121346Y0063405D01*
X0120362Y0063405D02*
X0124299Y0063405D01*
X0120362Y0063405D02*
X0118394Y0065373D01*
X0120362Y0067342D01*
X0108105Y0175776D02*
X0109089Y0176761D01*
X0109089Y0177745D01*
X0108105Y0178729D01*
X0105152Y0178729D01*
X0105152Y0176761D01*
X0106136Y0175776D01*
X0108105Y0175776D01*
X0102643Y0175776D02*
X0098707Y0181681D01*
X0096198Y0181681D02*
X0096198Y0176761D01*
X0095214Y0175776D01*
X0093245Y0175776D01*
X0092261Y0176761D01*
X0092261Y0181681D01*
X0089752Y0179713D02*
X0089752Y0175776D01*
X0085816Y0175776D02*
X0085816Y0179713D01*
X0087784Y0181681D01*
X0089752Y0179713D01*
X0089752Y0178729D02*
X0085816Y0178729D01*
X0085686Y0185116D02*
X0085686Y0189052D01*
X0087654Y0191021D01*
X0089623Y0189052D01*
X0089623Y0185116D01*
X0092131Y0186100D02*
X0093116Y0185116D01*
X0095084Y0185116D01*
X0096068Y0186100D01*
X0096068Y0191021D01*
X0098577Y0191021D02*
X0102514Y0185116D01*
X0105022Y0186100D02*
X0106007Y0185116D01*
X0107975Y0185116D01*
X0108959Y0186100D01*
X0108959Y0188068D01*
X0107975Y0189052D01*
X0106991Y0189052D01*
X0105022Y0188068D01*
X0105022Y0191021D01*
X0108959Y0191021D01*
X0102514Y0191021D02*
X0098577Y0185116D01*
X0092131Y0186100D02*
X0092131Y0191021D01*
X0089623Y0188068D02*
X0085686Y0188068D01*
X0098707Y0175776D02*
X0102643Y0181681D01*
X0105152Y0178729D02*
X0107120Y0180697D01*
X0109089Y0181681D01*
D215*
X0028782Y0023156D02*
X0028782Y0018156D01*
X0031282Y0015656D01*
X0046282Y0015656D01*
X0048782Y0018156D01*
X0048782Y0023156D01*
X0046282Y0025656D01*
X0031282Y0025656D01*
X0028782Y0028156D01*
X0028782Y0033156D01*
X0031282Y0035656D01*
X0046282Y0035656D01*
X0048782Y0033156D01*
X0048782Y0028156D01*
X0046282Y0025656D01*
X0031282Y0025656D02*
X0028782Y0023156D01*
X0068777Y0023157D02*
X0068777Y0018157D01*
X0071277Y0015657D01*
X0076277Y0015657D01*
X0078777Y0018157D01*
X0081277Y0015657D01*
X0086277Y0015657D01*
X0088777Y0018157D01*
X0088777Y0023157D01*
X0086277Y0025657D01*
X0081277Y0025657D01*
X0078777Y0023157D01*
X0078777Y0018157D01*
X0078777Y0023157D02*
X0076277Y0025657D01*
X0071277Y0025657D01*
X0068777Y0023157D01*
X0088777Y0023157D02*
X0091277Y0025657D01*
X0096277Y0025657D01*
X0098777Y0023157D01*
X0101277Y0025657D01*
X0106277Y0025657D01*
X0108777Y0023157D01*
X0111277Y0025657D01*
X0116277Y0025657D01*
X0118777Y0023157D01*
X0118777Y0018157D01*
X0116277Y0015657D01*
X0111277Y0015657D01*
X0108777Y0018157D01*
X0106277Y0015657D01*
X0101277Y0015657D01*
X0098777Y0018157D01*
X0096277Y0015657D01*
X0091277Y0015657D01*
X0088777Y0018157D01*
X0098777Y0018157D02*
X0098777Y0023157D01*
X0108777Y0023157D02*
X0108777Y0018157D01*
X0118777Y0018157D02*
X0121277Y0015657D01*
X0126277Y0015657D01*
X0128777Y0018157D01*
X0131277Y0015657D01*
X0136277Y0015657D01*
X0138777Y0018157D01*
X0141277Y0015657D01*
X0146277Y0015657D01*
X0148777Y0018157D01*
X0148777Y0023157D01*
X0146277Y0025657D01*
X0141277Y0025657D01*
X0138777Y0023157D01*
X0138777Y0018157D01*
X0138777Y0023157D02*
X0136277Y0025657D01*
X0131277Y0025657D01*
X0128777Y0023157D01*
X0128777Y0018157D01*
X0128777Y0023157D02*
X0126277Y0025657D01*
X0121277Y0025657D01*
X0118777Y0023157D01*
X0158777Y0023157D02*
X0158777Y0018157D01*
X0161277Y0015657D01*
X0166277Y0015657D01*
X0168777Y0018157D01*
X0171277Y0015657D01*
X0176277Y0015657D01*
X0178777Y0018157D01*
X0178777Y0023157D01*
X0176277Y0025657D01*
X0171277Y0025657D01*
X0168777Y0023157D01*
X0168777Y0018157D01*
X0178777Y0018157D02*
X0181277Y0015657D01*
X0186277Y0015657D01*
X0188777Y0018157D01*
X0191277Y0015657D01*
X0196277Y0015657D01*
X0198777Y0018157D01*
X0201277Y0015657D01*
X0206277Y0015657D01*
X0208777Y0018157D01*
X0208777Y0023157D01*
X0206277Y0025657D01*
X0201277Y0025657D01*
X0198777Y0023157D01*
X0198777Y0018157D01*
X0188777Y0018157D02*
X0188777Y0023157D01*
X0191277Y0025657D01*
X0196277Y0025657D01*
X0198777Y0023157D01*
X0188777Y0023157D02*
X0186277Y0025657D01*
X0181277Y0025657D01*
X0178777Y0023157D01*
X0168777Y0023157D02*
X0166277Y0025657D01*
X0161277Y0025657D01*
X0158777Y0023157D01*
X0208777Y0023157D02*
X0211277Y0025657D01*
X0216277Y0025657D01*
X0218777Y0023157D01*
X0221277Y0025657D01*
X0226277Y0025657D01*
X0228777Y0023157D01*
X0231277Y0025657D01*
X0236277Y0025657D01*
X0238777Y0023157D01*
X0238777Y0018157D01*
X0236277Y0015657D01*
X0231277Y0015657D01*
X0228777Y0018157D01*
X0226277Y0015657D01*
X0221277Y0015657D01*
X0218777Y0018157D01*
X0216277Y0015657D01*
X0211277Y0015657D01*
X0208777Y0018157D01*
X0218777Y0018157D02*
X0218777Y0023157D01*
X0228777Y0023157D02*
X0228777Y0018157D01*
X0243777Y0018157D02*
X0246277Y0015657D01*
X0251277Y0015657D01*
X0253777Y0018157D01*
X0256277Y0015657D01*
X0261277Y0015657D01*
X0263777Y0018157D01*
X0263777Y0023157D01*
X0261277Y0025657D01*
X0256277Y0025657D01*
X0253777Y0023157D01*
X0253777Y0018157D01*
X0243777Y0018157D02*
X0243777Y0023157D01*
X0246277Y0025657D01*
X0251277Y0025657D01*
X0253777Y0023157D01*
X0263777Y0023157D02*
X0266277Y0025657D01*
X0271277Y0025657D01*
X0273777Y0023157D01*
X0276277Y0025657D01*
X0281277Y0025657D01*
X0283777Y0023157D01*
X0286277Y0025657D01*
X0291277Y0025657D01*
X0293777Y0023157D01*
X0293777Y0018157D01*
X0291277Y0015657D01*
X0286277Y0015657D01*
X0283777Y0018157D01*
X0281277Y0015657D01*
X0276277Y0015657D01*
X0273777Y0018157D01*
X0271277Y0015657D01*
X0266277Y0015657D01*
X0263777Y0018157D01*
X0273777Y0018157D02*
X0273777Y0023157D01*
X0283777Y0023157D02*
X0283777Y0018157D01*
X0293777Y0018157D02*
X0296277Y0015657D01*
X0301277Y0015657D01*
X0303777Y0018157D01*
X0306277Y0015657D01*
X0311277Y0015657D01*
X0313777Y0018157D01*
X0316277Y0015657D01*
X0321277Y0015657D01*
X0323777Y0018157D01*
X0323777Y0023157D01*
X0321277Y0025657D01*
X0316277Y0025657D01*
X0313777Y0023157D01*
X0313777Y0018157D01*
X0313777Y0023157D02*
X0311277Y0025657D01*
X0306277Y0025657D01*
X0303777Y0023157D01*
X0303777Y0018157D01*
X0303777Y0023157D02*
X0301277Y0025657D01*
X0296277Y0025657D01*
X0293777Y0023157D01*
X0048787Y0178154D02*
X0046287Y0175654D01*
X0031287Y0175654D01*
X0028787Y0178154D01*
X0028787Y0183154D01*
X0031287Y0185654D01*
X0046287Y0185654D01*
X0048787Y0183154D01*
X0048787Y0178154D01*
X0046287Y0185654D02*
X0048787Y0188154D01*
X0048787Y0193154D01*
X0046287Y0195654D01*
X0031287Y0195654D01*
X0028787Y0193154D01*
X0028787Y0188154D01*
X0031287Y0185654D01*
X0138777Y0208157D02*
X0141277Y0205657D01*
X0146277Y0205657D01*
X0148777Y0208157D01*
X0151277Y0205657D01*
X0156277Y0205657D01*
X0158777Y0208157D01*
X0158777Y0213157D01*
X0156277Y0215657D01*
X0151277Y0215657D01*
X0148777Y0213157D01*
X0148777Y0208157D01*
X0148777Y0213157D02*
X0146277Y0215657D01*
X0141277Y0215657D01*
X0138777Y0213157D01*
X0138777Y0208157D01*
X0158777Y0208157D02*
X0161277Y0205657D01*
X0166277Y0205657D01*
X0168777Y0208157D01*
X0171277Y0205657D01*
X0176277Y0205657D01*
X0178777Y0208157D01*
X0181277Y0205657D01*
X0186277Y0205657D01*
X0188777Y0208157D01*
X0188777Y0213157D01*
X0186277Y0215657D01*
X0181277Y0215657D01*
X0178777Y0213157D01*
X0178777Y0208157D01*
X0178777Y0213157D02*
X0176277Y0215657D01*
X0171277Y0215657D01*
X0168777Y0213157D01*
X0168777Y0208157D01*
X0168777Y0213157D02*
X0166277Y0215657D01*
X0161277Y0215657D01*
X0158777Y0213157D01*
X0188777Y0213157D02*
X0191277Y0215657D01*
X0196277Y0215657D01*
X0198777Y0213157D01*
X0201277Y0215657D01*
X0206277Y0215657D01*
X0208777Y0213157D01*
X0211277Y0215657D01*
X0216277Y0215657D01*
X0218777Y0213157D01*
X0218777Y0208157D01*
X0216277Y0205657D01*
X0211277Y0205657D01*
X0208777Y0208157D01*
X0206277Y0205657D01*
X0201277Y0205657D01*
X0198777Y0208157D01*
X0196277Y0205657D01*
X0191277Y0205657D01*
X0188777Y0208157D01*
X0198777Y0208157D02*
X0198777Y0213157D01*
X0208777Y0213157D02*
X0208777Y0208157D01*
D216*
X0291705Y0166660D02*
X0292473Y0166660D01*
X0292473Y0165893D01*
X0291705Y0165893D01*
X0291705Y0166660D01*
X0294007Y0165893D02*
X0297076Y0165893D01*
X0295542Y0165893D02*
X0295542Y0170497D01*
X0294007Y0168962D01*
X0298611Y0168962D02*
X0298611Y0166660D01*
X0299378Y0165893D01*
X0301680Y0165893D01*
X0301680Y0168962D01*
X0303215Y0168195D02*
X0304750Y0168195D01*
X0303215Y0170497D02*
X0306284Y0170497D01*
X0303215Y0170497D02*
X0303215Y0165893D01*
X0126453Y0170710D02*
X0123384Y0170710D01*
X0123384Y0166106D01*
X0121849Y0166106D02*
X0121849Y0169175D01*
X0123384Y0168408D02*
X0124919Y0168408D01*
X0121849Y0166106D02*
X0119547Y0166106D01*
X0118780Y0166873D01*
X0118780Y0169175D01*
X0115711Y0170710D02*
X0115711Y0166106D01*
X0117245Y0166106D02*
X0114176Y0166106D01*
X0112642Y0166106D02*
X0112642Y0166873D01*
X0111874Y0166873D01*
X0111874Y0166106D01*
X0112642Y0166106D01*
X0114176Y0169175D02*
X0115711Y0170710D01*
X0078770Y0207482D02*
X0077236Y0207482D01*
X0076469Y0208249D01*
X0079538Y0211319D01*
X0079538Y0208249D01*
X0078770Y0207482D01*
X0076469Y0208249D02*
X0076469Y0211319D01*
X0077236Y0212086D01*
X0078770Y0212086D01*
X0079538Y0211319D01*
X0074934Y0211319D02*
X0071865Y0208249D01*
X0071865Y0207482D01*
X0070330Y0207482D02*
X0067261Y0207482D01*
X0070330Y0210551D01*
X0070330Y0211319D01*
X0069563Y0212086D01*
X0068028Y0212086D01*
X0067261Y0211319D01*
X0071865Y0212086D02*
X0074934Y0212086D01*
X0074934Y0211319D01*
X0041527Y0207633D02*
X0041454Y0207556D01*
X0041379Y0207481D01*
X0041301Y0207410D01*
X0041220Y0207341D01*
X0041137Y0207275D01*
X0041052Y0207212D01*
X0040964Y0207153D01*
X0040875Y0207096D01*
X0040783Y0207043D01*
X0040689Y0206993D01*
X0040594Y0206947D01*
X0040497Y0206904D01*
X0040399Y0206865D01*
X0040299Y0206829D01*
X0040198Y0206797D01*
X0040096Y0206769D01*
X0039993Y0206744D01*
X0039889Y0206723D01*
X0039784Y0206706D01*
X0039679Y0206692D01*
X0039574Y0206683D01*
X0039468Y0206677D01*
X0039362Y0206675D01*
X0039256Y0206677D01*
X0039150Y0206683D01*
X0039045Y0206692D01*
X0038940Y0206706D01*
X0038835Y0206723D01*
X0038731Y0206744D01*
X0038628Y0206769D01*
X0038526Y0206797D01*
X0038425Y0206829D01*
X0038325Y0206865D01*
X0038227Y0206904D01*
X0038130Y0206947D01*
X0038035Y0206993D01*
X0037941Y0207043D01*
X0037849Y0207096D01*
X0037760Y0207153D01*
X0037672Y0207212D01*
X0037587Y0207275D01*
X0037504Y0207341D01*
X0037423Y0207410D01*
X0037345Y0207481D01*
X0037270Y0207556D01*
X0037197Y0207633D01*
X0037197Y0211569D02*
X0037270Y0211646D01*
X0037345Y0211721D01*
X0037423Y0211792D01*
X0037504Y0211861D01*
X0037587Y0211927D01*
X0037672Y0211990D01*
X0037760Y0212049D01*
X0037849Y0212106D01*
X0037941Y0212159D01*
X0038035Y0212209D01*
X0038130Y0212255D01*
X0038227Y0212298D01*
X0038325Y0212337D01*
X0038425Y0212373D01*
X0038526Y0212405D01*
X0038628Y0212433D01*
X0038731Y0212458D01*
X0038835Y0212479D01*
X0038940Y0212496D01*
X0039045Y0212510D01*
X0039150Y0212519D01*
X0039256Y0212525D01*
X0039362Y0212527D01*
X0039468Y0212525D01*
X0039574Y0212519D01*
X0039679Y0212510D01*
X0039784Y0212496D01*
X0039889Y0212479D01*
X0039993Y0212458D01*
X0040096Y0212433D01*
X0040198Y0212405D01*
X0040299Y0212373D01*
X0040399Y0212337D01*
X0040497Y0212298D01*
X0040594Y0212255D01*
X0040689Y0212209D01*
X0040783Y0212159D01*
X0040875Y0212106D01*
X0040964Y0212049D01*
X0041052Y0211990D01*
X0041137Y0211927D01*
X0041220Y0211861D01*
X0041301Y0211792D01*
X0041379Y0211721D01*
X0041454Y0211646D01*
X0041527Y0211569D01*
X0028947Y0212046D02*
X0028947Y0209744D01*
X0024343Y0209744D01*
X0024343Y0212046D01*
X0025110Y0212814D01*
X0025878Y0212814D01*
X0026645Y0212046D01*
X0026645Y0209744D01*
X0027412Y0208210D02*
X0028179Y0208210D01*
X0028947Y0207442D01*
X0028947Y0205908D01*
X0028179Y0205140D01*
X0028179Y0203606D02*
X0024343Y0203606D01*
X0025110Y0205140D02*
X0024343Y0205908D01*
X0024343Y0207442D01*
X0025110Y0208210D01*
X0026645Y0207442D02*
X0027412Y0208210D01*
X0026645Y0207442D02*
X0026645Y0205908D01*
X0025878Y0205140D01*
X0025110Y0205140D01*
X0028179Y0203606D02*
X0028947Y0202838D01*
X0028947Y0201304D01*
X0028179Y0200536D01*
X0024343Y0200536D01*
X0026645Y0212046D02*
X0027412Y0212814D01*
X0028179Y0212814D01*
X0028947Y0212046D01*
D217*
X0039362Y0209601D03*
D218*
X0037295Y0211865D03*
D219*
X0035954Y0213903D02*
X0035954Y0205417D01*
X0035257Y0159470D02*
X0035257Y0149470D01*
X0039576Y0149470D01*
X0039576Y0144470D01*
X0035257Y0144470D01*
X0035257Y0119470D01*
X0039576Y0119470D01*
X0039576Y0114470D01*
X0035257Y0114470D01*
X0035257Y0096970D01*
X0057895Y0096970D02*
X0057895Y0159470D01*
X0035257Y0149470D02*
X0035257Y0144470D01*
X0035257Y0119470D02*
X0035257Y0114470D01*
X0185795Y0114470D02*
X0185795Y0096970D01*
X0208433Y0096970D02*
X0208433Y0159470D01*
X0209418Y0159470D02*
X0209418Y0149470D01*
X0213737Y0149470D01*
X0213737Y0144470D01*
X0209418Y0144470D01*
X0209418Y0119470D01*
X0213737Y0119470D01*
X0213737Y0114470D01*
X0209418Y0114470D01*
X0209418Y0096970D01*
X0232056Y0096970D02*
X0232056Y0159470D01*
X0209418Y0149470D02*
X0209418Y0144470D01*
X0190114Y0144470D02*
X0185795Y0144470D01*
X0185795Y0119470D01*
X0190114Y0119470D01*
X0190114Y0114470D01*
X0185795Y0114470D01*
X0185795Y0119470D01*
X0209418Y0119470D02*
X0209418Y0114470D01*
X0190114Y0144470D02*
X0190114Y0149470D01*
X0185795Y0149470D01*
X0185795Y0144470D01*
X0185795Y0149470D02*
X0185795Y0159470D01*
X0367577Y0159470D02*
X0367577Y0149470D01*
X0371896Y0149470D01*
X0371896Y0144470D01*
X0367577Y0144470D01*
X0367577Y0119470D01*
X0371896Y0119470D01*
X0371896Y0114470D01*
X0367577Y0114470D01*
X0367577Y0096970D01*
X0390215Y0096970D02*
X0390215Y0159470D01*
X0367577Y0149470D02*
X0367577Y0144470D01*
X0367577Y0119470D02*
X0367577Y0114470D01*
D220*
X0323885Y0099367D02*
X0323885Y0093462D01*
X0323885Y0093225D02*
X0306956Y0093225D01*
X0306956Y0095824D01*
X0296326Y0095824D01*
X0296326Y0093225D01*
X0279791Y0093225D01*
X0279791Y0093462D02*
X0279791Y0099367D01*
X0347355Y0052826D02*
X0353654Y0052826D01*
X0347355Y0052826D02*
X0347355Y0046527D01*
X0372355Y0052826D02*
X0403654Y0052826D01*
X0403654Y0018968D01*
X0347355Y0018968D01*
X0347355Y0025267D01*
X0148254Y0032957D02*
X0145754Y0030457D01*
X0140754Y0030457D01*
X0138254Y0032957D01*
X0135754Y0030457D01*
X0130754Y0030457D01*
X0128254Y0032957D01*
X0128254Y0037957D01*
X0130754Y0040457D01*
X0128254Y0042957D01*
X0128254Y0047957D01*
X0130754Y0050457D01*
X0128254Y0052957D01*
X0128254Y0057957D01*
X0130754Y0060457D01*
X0135754Y0060457D01*
X0138254Y0057957D01*
X0138254Y0052957D01*
X0135754Y0050457D01*
X0138254Y0047957D01*
X0138254Y0042957D01*
X0135754Y0040457D01*
X0138254Y0037957D01*
X0138254Y0032957D01*
X0138254Y0037957D01*
X0140754Y0040457D01*
X0138254Y0042957D01*
X0138254Y0047957D01*
X0140754Y0050457D01*
X0138254Y0052957D01*
X0138254Y0057957D01*
X0140754Y0060457D01*
X0145754Y0060457D01*
X0148254Y0057957D01*
X0148254Y0052957D01*
X0145754Y0050457D01*
X0148254Y0047957D01*
X0148254Y0042957D01*
X0145754Y0040457D01*
X0148254Y0037957D01*
X0148254Y0032957D01*
X0128254Y0032957D02*
X0125754Y0030457D01*
X0120754Y0030457D01*
X0118254Y0032957D01*
X0115754Y0030457D01*
X0110754Y0030457D01*
X0108254Y0032957D01*
X0108254Y0037957D01*
X0110754Y0040457D01*
X0108254Y0042957D01*
X0108254Y0047957D01*
X0110754Y0050457D01*
X0108254Y0052957D01*
X0108254Y0057957D01*
X0110754Y0060457D01*
X0115754Y0060457D01*
X0118254Y0057957D01*
X0118254Y0052957D01*
X0115754Y0050457D01*
X0118254Y0047957D01*
X0118254Y0042957D01*
X0115754Y0040457D01*
X0118254Y0037957D01*
X0118254Y0032957D01*
X0118254Y0037957D01*
X0120754Y0040457D01*
X0118254Y0042957D01*
X0118254Y0047957D01*
X0120754Y0050457D01*
X0118254Y0052957D01*
X0118254Y0057957D01*
X0120754Y0060457D01*
X0125754Y0060457D01*
X0128254Y0057957D01*
X0128254Y0052957D01*
X0125754Y0050457D01*
X0128254Y0047957D01*
X0128254Y0042957D01*
X0125754Y0040457D01*
X0128254Y0037957D01*
X0128254Y0032957D01*
X0127127Y0093225D02*
X0127127Y0095824D01*
X0116497Y0095824D01*
X0116497Y0093225D01*
X0099962Y0093225D01*
X0099962Y0093462D02*
X0099962Y0099367D01*
X0127127Y0093225D02*
X0144056Y0093225D01*
X0144056Y0093462D02*
X0144056Y0099367D01*
X0144056Y0148973D02*
X0144056Y0154879D01*
X0144056Y0155115D02*
X0127521Y0155115D01*
X0127521Y0152517D01*
X0116891Y0152517D01*
X0116891Y0155115D01*
X0105080Y0155115D01*
X0099962Y0149997D01*
X0115181Y0173878D02*
X0120181Y0173878D01*
X0122681Y0176378D01*
X0125181Y0173878D01*
X0130181Y0173878D01*
X0132681Y0176378D01*
X0135181Y0173878D01*
X0140181Y0173878D01*
X0142681Y0176378D01*
X0142681Y0181378D01*
X0140181Y0183878D01*
X0135181Y0183878D01*
X0132681Y0181378D01*
X0130181Y0183878D01*
X0125181Y0183878D01*
X0122681Y0181378D01*
X0120181Y0183878D01*
X0115181Y0183878D01*
X0112681Y0181378D01*
X0112681Y0176378D01*
X0115181Y0173878D01*
X0115165Y0183915D02*
X0120165Y0183915D01*
X0122665Y0186415D01*
X0125165Y0183915D01*
X0130165Y0183915D01*
X0132665Y0186415D01*
X0135165Y0183915D01*
X0140165Y0183915D01*
X0142665Y0186415D01*
X0142665Y0191415D01*
X0140165Y0193915D01*
X0135165Y0193915D01*
X0132665Y0191415D01*
X0130165Y0193915D01*
X0125165Y0193915D01*
X0122665Y0191415D01*
X0120165Y0193915D01*
X0115165Y0193915D01*
X0112665Y0191415D01*
X0112665Y0186415D01*
X0115165Y0183915D01*
X0279791Y0149997D02*
X0284909Y0155115D01*
X0296720Y0155115D01*
X0296720Y0152517D01*
X0307350Y0152517D01*
X0307350Y0155115D01*
X0323885Y0155115D01*
X0323885Y0154879D02*
X0323885Y0148973D01*
D221*
X0337995Y0157399D03*
X0349806Y0157399D03*
X0353537Y0148541D03*
X0365348Y0148541D03*
X0364868Y0120199D03*
X0353057Y0120199D03*
X0349159Y0111341D03*
X0337348Y0111341D03*
X0267061Y0120199D03*
X0255250Y0120199D03*
X0251535Y0111341D03*
X0239724Y0111341D03*
X0183432Y0120199D03*
X0171621Y0120199D03*
X0167162Y0111341D03*
X0155351Y0111341D03*
X0171182Y0148541D03*
X0182993Y0148541D03*
X0167388Y0157399D03*
X0155577Y0157399D03*
X0087804Y0148541D03*
X0075993Y0148541D03*
X0072236Y0157399D03*
X0060425Y0157399D03*
X0075769Y0120199D03*
X0087580Y0120199D03*
X0071890Y0111341D03*
X0060079Y0111341D03*
X0240673Y0157399D03*
X0252484Y0157399D03*
X0256346Y0148541D03*
X0268157Y0148541D03*
M02*
