G75*
%MOIN*%
%OFA0B0*%
%FSLAX26Y26*%
%IPPOS*%
%LPD*%
%AMOC8*
5,1,8,0,0,1.08239X$1,22.5*
%
%ADD10C,0.060000*%
%ADD11R,0.062992X0.070984*%
%ADD12R,0.051181X0.059055*%
%ADD13R,0.086614X0.023622*%
%ADD14R,0.196850X0.393701*%
%ADD15R,0.078740X0.078740*%
%ADD16C,0.078740*%
%ADD17C,0.055433*%
%ADD18C,0.074000*%
%ADD19OC8,0.060000*%
%ADD20R,0.031496X0.047244*%
%ADD21C,0.056000*%
%ADD22C,0.043622*%
%ADD23C,0.024000*%
%ADD24C,0.066000*%
%ADD25C,0.032000*%
%ADD26C,0.033780*%
%ADD27C,0.040000*%
%ADD28C,0.016000*%
D10*
X00625000Y00070000D02*
X00625000Y00130000D01*
X00725000Y00130000D02*
X00725000Y00070000D01*
X00825000Y00070000D02*
X00825000Y00130000D01*
X00925000Y00130000D02*
X00925000Y00070000D01*
X01025000Y00070000D02*
X01025000Y00130000D01*
X01125000Y00130000D02*
X01125000Y00070000D01*
X01225000Y00070000D02*
X01225000Y00130000D01*
X01325000Y00130000D02*
X01325000Y00070000D01*
X01525000Y00070000D02*
X01525000Y00130000D01*
X01625000Y00130000D02*
X01625000Y00070000D01*
X01725000Y00070000D02*
X01725000Y00130000D01*
X01825000Y00130000D02*
X01825000Y00070000D01*
X01925000Y00070000D02*
X01925000Y00130000D01*
X02025000Y00130000D02*
X02025000Y00070000D01*
X02125000Y00070000D02*
X02125000Y00130000D01*
X02225000Y00130000D02*
X02225000Y00070000D01*
X02375000Y00070000D02*
X02375000Y00130000D01*
X02475000Y00130000D02*
X02475000Y00070000D01*
X02575000Y00070000D02*
X02575000Y00130000D01*
X02675000Y00130000D02*
X02675000Y00070000D01*
X02775000Y00070000D02*
X02775000Y00130000D01*
X02875000Y00130000D02*
X02875000Y00070000D01*
X02975000Y00070000D02*
X02975000Y00130000D01*
X03075000Y00130000D02*
X03075000Y00070000D01*
X02025000Y01970000D02*
X02025000Y02030000D01*
X01925000Y02030000D02*
X01925000Y01970000D01*
X01825000Y01970000D02*
X01825000Y02030000D01*
X01725000Y02030000D02*
X01725000Y01970000D01*
X01625000Y01970000D02*
X01625000Y02030000D01*
X01525000Y02030000D02*
X01525000Y01970000D01*
X01425000Y01970000D02*
X01425000Y02030000D01*
X01325000Y02030000D02*
X01325000Y01970000D01*
D11*
X00336834Y01989437D03*
X00224866Y01989437D03*
X03533815Y00549124D03*
X03645784Y00549124D03*
D12*
X03423833Y00548519D03*
X03349030Y00548519D03*
X03332456Y01496156D03*
X03407260Y01496156D03*
X03495750Y01497128D03*
X03570554Y01497128D03*
X01471777Y01497128D03*
X01396974Y01497128D03*
X01308530Y01497128D03*
X01233727Y01497128D03*
X00498872Y01991890D03*
X00424069Y01991890D03*
D13*
X01051412Y01360128D03*
X01051412Y01310128D03*
X01051412Y01260128D03*
X01051412Y01210128D03*
X01051412Y01160128D03*
X01051412Y01110128D03*
X01051412Y01060128D03*
X01051412Y01010128D03*
X01051412Y00960128D03*
X01051412Y00910128D03*
X01563223Y00910128D03*
X01563223Y00960128D03*
X01563223Y01010128D03*
X01563223Y01060128D03*
X01563223Y01110128D03*
X01563223Y01160128D03*
X01563223Y01210128D03*
X01563223Y01260128D03*
X01563223Y01310128D03*
X01563223Y01360128D03*
X03149701Y01360128D03*
X03149701Y01310128D03*
X03149701Y01260128D03*
X03149701Y01210128D03*
X03149701Y01160128D03*
X03149701Y01110128D03*
X03149701Y01060128D03*
X03149701Y01010128D03*
X03149701Y00960128D03*
X03149701Y00910128D03*
X03661512Y00910128D03*
X03661512Y00960128D03*
X03661512Y01010128D03*
X03661512Y01060128D03*
X03661512Y01110128D03*
X03661512Y01160128D03*
X03661512Y01210128D03*
X03661512Y01260128D03*
X03661512Y01310128D03*
X03661512Y01360128D03*
D14*
X03405607Y01135128D03*
X01307318Y01135128D03*
D15*
X01899793Y01129868D03*
X02058099Y01129868D03*
X02058099Y00972388D03*
X01899793Y00972388D03*
X01899793Y01344388D03*
X02058099Y01344388D03*
X02058099Y01501868D03*
X01899793Y01501868D03*
X02703017Y01129868D03*
X02848782Y01129868D03*
X02848782Y00972388D03*
X02703017Y00972388D03*
X02753017Y01344388D03*
X02898782Y01344388D03*
X02898782Y01501868D03*
X02753017Y01501868D03*
X00706213Y01501868D03*
X00550530Y01501868D03*
X00550530Y01344388D03*
X00706213Y01344388D03*
X00703977Y01129868D03*
X00547072Y01129868D03*
X00547072Y00972388D03*
X00703977Y00972388D03*
D16*
X03397128Y00291969D02*
X03397128Y00213228D01*
X03632433Y00213027D02*
X03632433Y00291767D01*
X03554087Y00438612D02*
X03475347Y00438612D01*
D17*
X02494595Y00946002D03*
X02494595Y01044427D03*
X02494595Y01142852D03*
X02494595Y01241278D03*
X02494595Y01339703D03*
X02494595Y01438128D03*
X02258370Y01438128D03*
X02258370Y01339703D03*
X02258370Y01241278D03*
X02258370Y01142852D03*
X02258370Y01044427D03*
X02258370Y00946002D03*
X00352990Y00946002D03*
X00352990Y01044427D03*
X00352990Y01142852D03*
X00352990Y01241278D03*
X00352990Y01339703D03*
X00352990Y01438128D03*
D18*
X01064036Y01687207D03*
X01164036Y01677207D03*
X01264036Y01687207D03*
X01263881Y01787574D03*
X01163881Y01777574D03*
X01063881Y01787574D03*
X01024769Y00430000D03*
X01124769Y00430000D03*
X01224769Y00430000D03*
X01324769Y00430000D03*
X01314769Y00330000D03*
X01214769Y00330000D03*
X01114769Y00330000D03*
X01014769Y00330000D03*
X01024769Y00230000D03*
X01124769Y00230000D03*
X01224769Y00230000D03*
X01324769Y00230000D03*
D19*
X00225044Y00099988D03*
X00325044Y00099988D03*
X00325044Y00199988D03*
X00225044Y00199988D03*
X00225101Y01699961D03*
X00325101Y01699961D03*
X00325101Y01799961D03*
X00225101Y01799961D03*
D20*
X03239567Y00250000D03*
X03310433Y00250000D03*
X00497933Y00100000D03*
X00427067Y00100000D03*
D21*
X00374988Y00099988D02*
X00459472Y00184472D01*
X00459472Y00295117D01*
X00403215Y00351375D01*
X00103981Y00650608D01*
X00103981Y01249575D01*
X00103981Y01541992D01*
X00153163Y01591174D01*
X00381264Y01591174D01*
X00435736Y01645645D01*
X00435736Y01752093D01*
X00559919Y01876276D01*
X00569677Y01886034D01*
X01171936Y01886034D01*
X01389998Y01886034D01*
X01564656Y01886034D01*
X02377137Y01886034D01*
X03143020Y01886034D01*
X03191069Y01886034D01*
X03696281Y01886034D01*
X03855783Y01726532D01*
X03855783Y01653624D01*
X03855783Y01041656D01*
X03855783Y00875287D01*
X03464799Y00712189D02*
X03328854Y00712189D01*
X03318386Y00722658D01*
X03019793Y01186317D02*
X02848782Y01129868D01*
X02703017Y01129868D01*
X02747353Y01135532D01*
X02747353Y01188542D01*
X02596192Y01339703D01*
X02494595Y01339703D01*
X02494595Y01438128D02*
X02619838Y01438128D01*
X02714397Y01343570D01*
X02752199Y01343570D01*
X02753017Y01344388D01*
X02898782Y01344388D01*
X02936603Y01344388D01*
X03059229Y01247600D01*
X03019793Y01186317D02*
X03055278Y01170087D01*
X03148942Y01331541D02*
X03148942Y01360128D01*
X03149701Y01360128D01*
X03149701Y01394878D01*
X03117815Y01426764D01*
X02258370Y01438128D02*
X02151839Y01438128D01*
X02058099Y01344388D01*
X01899793Y01344388D01*
X01805121Y01249716D01*
X01653118Y01249716D01*
X01656191Y01175932D02*
X01853729Y01175932D01*
X01899793Y01129868D01*
X02058099Y01129868D01*
X02058099Y01186156D01*
X02212351Y01340408D01*
X02257665Y01340408D01*
X02258370Y01339703D01*
X01051709Y01330416D02*
X01051709Y01387840D01*
X01051412Y01387840D01*
X01007384Y01431868D01*
X00763791Y01288846D02*
X00763791Y01243289D01*
X00763791Y01236016D01*
X00763791Y01288846D02*
X00706213Y01344388D01*
X00704061Y01344272D01*
X00550530Y01344388D01*
X00454251Y01440551D01*
X00352990Y01438128D01*
X00352990Y01339703D02*
X00356688Y01338428D01*
X00400815Y01338428D01*
X00547072Y01192171D01*
X00547072Y01129868D01*
X00703977Y01129868D01*
X00703977Y01158572D01*
X00762013Y01158572D01*
X00547072Y01131368D02*
X00547072Y01129868D01*
X00703977Y00972388D02*
X00703977Y00910996D01*
X00643665Y00850684D01*
X00374988Y00099988D02*
X00325044Y00099988D01*
X00225044Y00099988D01*
X00225101Y01799961D02*
X00224866Y01800197D01*
X00224866Y01803306D01*
X00327454Y01803306D01*
X00330255Y01800505D01*
X00224866Y01803306D02*
X00224866Y01989437D01*
D22*
X00717263Y01583406D03*
X01007384Y01431868D03*
X01163308Y01298652D03*
X01167000Y01213645D03*
X01167000Y01129227D03*
X01167000Y01046960D03*
X01160199Y00968972D03*
X01463943Y00978691D03*
X01462000Y01064306D03*
X01458502Y01150801D03*
X01458891Y01223905D03*
X01460057Y01299819D03*
X01393315Y01602245D03*
X02058716Y01618635D03*
X02380105Y01793739D03*
X03005477Y01594566D03*
X03117815Y01426764D03*
X03258028Y01300416D03*
X03259000Y01218775D03*
X03260943Y01133247D03*
X03262262Y01047936D03*
X03257598Y00973250D03*
X03557241Y00969749D03*
X03558407Y01043268D03*
X03557305Y01136163D03*
X03561191Y01213916D03*
X03560219Y01292640D03*
X03761081Y01309665D03*
X03466488Y01640705D03*
X02378785Y01295585D03*
X01655655Y00959246D03*
X02056521Y00885876D03*
X01903182Y00690849D03*
X01891423Y00626975D03*
X01704456Y00671257D03*
X01697732Y00583185D03*
X01621923Y00514226D03*
X01693700Y00502468D03*
X02398024Y00302646D03*
X02463359Y00227590D03*
X02671162Y00311331D03*
X02978611Y00287826D03*
X03080895Y00317815D03*
X03150000Y00250000D03*
X03730885Y00549129D03*
X03147303Y00767245D03*
X03082838Y00704635D03*
X03007829Y00765597D03*
X02845745Y00893429D03*
X00718573Y00407026D03*
X00643665Y00850684D03*
D23*
X00676813Y00815950D02*
X00900100Y00815950D01*
X00900100Y00839948D02*
X00700811Y00839948D01*
X00724810Y00863947D02*
X00900100Y00863947D01*
X00900100Y00887945D02*
X00746384Y00887945D01*
X00744670Y00883806D02*
X00751977Y00901448D01*
X00751977Y00913363D01*
X00763347Y00924733D01*
X00763347Y01020042D01*
X00751632Y01031758D01*
X00656323Y01031758D01*
X00644607Y01020042D01*
X00644607Y00924733D01*
X00647220Y00922121D01*
X00602972Y00877874D01*
X00595665Y00860232D01*
X00595665Y00841136D01*
X00602972Y00823494D01*
X00616475Y00809992D01*
X00634117Y00802684D01*
X00653213Y00802684D01*
X00670855Y00809992D01*
X00744670Y00883806D01*
X00751977Y00911944D02*
X00900100Y00911944D01*
X00900100Y00935942D02*
X00763347Y00935942D01*
X00763347Y00959941D02*
X00900100Y00959941D01*
X00900100Y00983939D02*
X00763347Y00983939D01*
X00763347Y01007938D02*
X00900100Y01007938D01*
X00900100Y01031937D02*
X00595491Y01031937D01*
X00594934Y01032258D02*
X00589338Y01033758D01*
X00554757Y01033758D01*
X00554757Y00980074D01*
X00539387Y00980074D01*
X00539387Y01033758D01*
X00504805Y01033758D01*
X00499210Y01032258D01*
X00494194Y01029362D01*
X00490097Y01025266D01*
X00487201Y01020250D01*
X00485702Y01014654D01*
X00485702Y00980073D01*
X00539386Y00980073D01*
X00539386Y00964703D01*
X00485702Y00964703D01*
X00485702Y00930121D01*
X00487201Y00924526D01*
X00490097Y00919509D01*
X00494194Y00915413D01*
X00499210Y00912517D01*
X00504805Y00911018D01*
X00539387Y00911018D01*
X00539387Y00964702D01*
X00554757Y00964702D01*
X00554757Y00911018D01*
X00589338Y00911018D01*
X00594934Y00912517D01*
X00599950Y00915413D01*
X00604046Y00919509D01*
X00606943Y00924526D01*
X00608442Y00930121D01*
X00608442Y00964703D01*
X00554758Y00964703D01*
X00554758Y00980073D01*
X00608442Y00980073D01*
X00608442Y01014654D01*
X00606943Y01020250D01*
X00604046Y01025266D01*
X00599950Y01029362D01*
X00594934Y01032258D01*
X00608442Y01007938D02*
X00644607Y01007938D01*
X00644607Y00983939D02*
X00608442Y00983939D01*
X00608442Y00959941D02*
X00644607Y00959941D01*
X00644607Y00935942D02*
X00608442Y00935942D01*
X00592795Y00911944D02*
X00637043Y00911944D01*
X00613044Y00887945D02*
X00151981Y00887945D01*
X00151981Y00863947D02*
X00597204Y00863947D01*
X00596157Y00839948D02*
X00151981Y00839948D01*
X00151981Y00815950D02*
X00610517Y00815950D01*
X00554757Y00911944D02*
X00539387Y00911944D01*
X00539387Y00935942D02*
X00554757Y00935942D01*
X00554757Y00959941D02*
X00539387Y00959941D01*
X00539387Y00983939D02*
X00554757Y00983939D01*
X00554757Y01007938D02*
X00539387Y01007938D01*
X00539387Y01031937D02*
X00554757Y01031937D01*
X00498653Y01031937D02*
X00399464Y01031937D01*
X00400707Y01034936D02*
X00393442Y01017398D01*
X00380020Y01003975D01*
X00362482Y00996711D01*
X00343499Y00996711D01*
X00325961Y01003975D01*
X00312538Y01017398D01*
X00305274Y01034936D01*
X00305274Y01053919D01*
X00312538Y01071456D01*
X00325961Y01084879D01*
X00343499Y01092144D01*
X00362482Y01092144D01*
X00380020Y01084879D01*
X00393442Y01071456D01*
X00400707Y01053919D01*
X00400707Y01034936D01*
X00399872Y01055935D02*
X00900100Y01055935D01*
X00900100Y01065175D02*
X00900100Y00780450D01*
X00904362Y00770159D01*
X00912239Y00762283D01*
X01001407Y00673114D01*
X01005407Y00663457D01*
X01030007Y00638857D01*
X01039009Y00629855D01*
X01050770Y00624984D01*
X01461367Y00624984D01*
X01580112Y00506239D01*
X01580112Y00505910D01*
X01586477Y00490542D01*
X01598239Y00478781D01*
X01613606Y00472415D01*
X01630240Y00472415D01*
X01645607Y00478781D01*
X01654551Y00487724D01*
X01658254Y00478783D01*
X01670016Y00467022D01*
X01685383Y00460656D01*
X01702016Y00460656D01*
X01717384Y00467022D01*
X01729145Y00478783D01*
X01735511Y00494151D01*
X01735511Y00510784D01*
X01729145Y00526151D01*
X01717384Y00537913D01*
X01711974Y00540154D01*
X01711826Y00540301D01*
X01709376Y00542752D01*
X01721416Y00547739D01*
X01733178Y00559501D01*
X01739543Y00574868D01*
X01739543Y00591502D01*
X01733178Y00606869D01*
X01721416Y00618631D01*
X01706049Y00624996D01*
X01701176Y00624996D01*
X01696726Y00629446D01*
X01712773Y00629446D01*
X01728140Y00635811D01*
X01739902Y00647573D01*
X01746267Y00662940D01*
X01746267Y00679574D01*
X01739902Y00694941D01*
X01734648Y00700195D01*
X01734648Y00737048D01*
X01849612Y00622084D01*
X01849612Y00618658D01*
X01855978Y00603291D01*
X01867739Y00591529D01*
X01883107Y00585164D01*
X01899740Y00585164D01*
X01915107Y00591529D01*
X01926869Y00603291D01*
X01933234Y00618658D01*
X01933234Y00635292D01*
X01926869Y00650659D01*
X01923513Y00654015D01*
X01926866Y00655403D01*
X01938627Y00667165D01*
X01944993Y00682532D01*
X01944993Y00699166D01*
X01938627Y00714533D01*
X01938245Y00714915D01*
X01938245Y00772814D01*
X01933983Y00783106D01*
X01926106Y00790982D01*
X01820692Y00896397D01*
X01820692Y01083633D01*
X01816429Y01093924D01*
X01808552Y01101800D01*
X01782421Y01127932D01*
X01833847Y01127932D01*
X01840423Y01121356D01*
X01840423Y01082214D01*
X01852139Y01070498D01*
X01947447Y01070498D01*
X01958817Y01081868D01*
X01999075Y01081868D01*
X02010445Y01070498D01*
X02105753Y01070498D01*
X02117469Y01082214D01*
X02117469Y01177522D01*
X02117408Y01177583D01*
X02232233Y01292408D01*
X02247119Y01292408D01*
X02248823Y01291703D01*
X02267918Y01291703D01*
X02285560Y01299010D01*
X02299063Y01312513D01*
X02306370Y01330155D01*
X02306370Y01349250D01*
X02299063Y01366892D01*
X02284854Y01381101D01*
X02267212Y01388408D01*
X02202803Y01388408D01*
X02185161Y01381101D01*
X02171659Y01367598D01*
X02117469Y01313408D01*
X02117469Y01335876D01*
X02171721Y01390128D01*
X02267918Y01390128D01*
X02285560Y01397436D01*
X02299063Y01410938D01*
X02306370Y01428580D01*
X02306370Y01447676D01*
X02299063Y01465318D01*
X02285560Y01478820D01*
X02267918Y01486128D01*
X02142291Y01486128D01*
X02124649Y01478820D01*
X02117469Y01471640D01*
X02117469Y01549522D01*
X02105753Y01561238D01*
X02090099Y01561238D01*
X02090099Y01590889D01*
X02094161Y01594951D01*
X02100527Y01610319D01*
X02100527Y01626952D01*
X02094161Y01642319D01*
X02082400Y01654081D01*
X02067032Y01660446D01*
X02050399Y01660446D01*
X02035032Y01654081D01*
X02023270Y01642319D01*
X02016905Y01626952D01*
X02016905Y01610319D01*
X02023270Y01594951D01*
X02026099Y01592122D01*
X02026099Y01561238D01*
X02010445Y01561238D01*
X01998729Y01549522D01*
X01998729Y01454214D01*
X02010445Y01442498D01*
X02088327Y01442498D01*
X02049587Y01403758D01*
X02010445Y01403758D01*
X01999075Y01392388D01*
X01958817Y01392388D01*
X01947447Y01403758D01*
X01852139Y01403758D01*
X01840423Y01392042D01*
X01840423Y01352900D01*
X01785239Y01297716D01*
X01694459Y01297716D01*
X01697409Y01304837D01*
X01697409Y01392912D01*
X01692537Y01404673D01*
X01647983Y01449228D01*
X01638981Y01458229D01*
X01627220Y01463101D01*
X01517367Y01463101D01*
X01517367Y01497464D01*
X01570685Y01550781D01*
X01579686Y01559783D01*
X01584558Y01571544D01*
X01584558Y01838034D01*
X02346664Y01838034D01*
X02347244Y01820007D01*
X02344659Y01817423D01*
X02338294Y01802056D01*
X02338294Y01785422D01*
X02344659Y01770055D01*
X02356421Y01758293D01*
X02371788Y01751928D01*
X02388422Y01751928D01*
X02403789Y01758293D01*
X02415551Y01770055D01*
X02421916Y01785422D01*
X02421916Y01802056D01*
X02415551Y01817423D01*
X02411221Y01821753D01*
X02410697Y01838034D01*
X03676399Y01838034D01*
X03807783Y01706650D01*
X03807783Y01650879D01*
X03686032Y01529128D01*
X03616144Y01529128D01*
X03616144Y01534940D01*
X03604428Y01546655D01*
X03536679Y01546655D01*
X03533152Y01543129D01*
X03529625Y01546655D01*
X03527750Y01546655D01*
X03527750Y01617808D01*
X03522879Y01629569D01*
X03508299Y01644149D01*
X03508299Y01649022D01*
X03501934Y01664389D01*
X03490172Y01676151D01*
X03474805Y01682516D01*
X03458171Y01682516D01*
X03442804Y01676151D01*
X03431042Y01664389D01*
X03424677Y01649022D01*
X03424677Y01632388D01*
X03431042Y01617021D01*
X03442804Y01605259D01*
X03458171Y01598894D01*
X03463044Y01598894D01*
X03463750Y01598188D01*
X03463750Y01546655D01*
X03461875Y01546655D01*
X03451019Y01535799D01*
X03441134Y01545683D01*
X03373385Y01545683D01*
X03371196Y01543495D01*
X03366539Y01546184D01*
X03360943Y01547683D01*
X03333252Y01547683D01*
X03333252Y01496952D01*
X03331661Y01496952D01*
X03331661Y01547683D01*
X03303969Y01547683D01*
X03298374Y01546184D01*
X03293358Y01543288D01*
X03289261Y01539192D01*
X03286365Y01534175D01*
X03284866Y01528580D01*
X03284866Y01496951D01*
X03331660Y01496951D01*
X03331660Y01495360D01*
X03284866Y01495360D01*
X03284866Y01463732D01*
X03286365Y01458137D01*
X03289261Y01453120D01*
X03293358Y01449024D01*
X03298374Y01446128D01*
X03303969Y01444628D01*
X03331661Y01444628D01*
X03331661Y01495360D01*
X03333252Y01495360D01*
X03333252Y01444628D01*
X03360943Y01444628D01*
X03366539Y01446128D01*
X03371196Y01448817D01*
X03373385Y01446628D01*
X03441134Y01446628D01*
X03451991Y01457485D01*
X03461875Y01447600D01*
X03529625Y01447600D01*
X03533152Y01451127D01*
X03536679Y01447600D01*
X03604428Y01447600D01*
X03616144Y01459316D01*
X03616144Y01465128D01*
X03705652Y01465128D01*
X03717413Y01470000D01*
X03807783Y01560369D01*
X03807783Y01038911D01*
X03761000Y00992128D01*
X03724819Y00992128D01*
X03724819Y01030223D01*
X03719914Y01035128D01*
X03724819Y01040033D01*
X03724819Y01080223D01*
X03719914Y01085128D01*
X03724819Y01090033D01*
X03724819Y01130223D01*
X03719914Y01135128D01*
X03724819Y01140033D01*
X03724819Y01180223D01*
X03719914Y01185128D01*
X03724819Y01190033D01*
X03724819Y01230223D01*
X03719914Y01235128D01*
X03724819Y01240033D01*
X03724819Y01278128D01*
X03733489Y01278128D01*
X03737397Y01274219D01*
X03752764Y01267854D01*
X03769398Y01267854D01*
X03784765Y01274219D01*
X03796527Y01285981D01*
X03802892Y01301348D01*
X03802892Y01317982D01*
X03796527Y01333349D01*
X03784765Y01345111D01*
X03769398Y01351476D01*
X03752764Y01351476D01*
X03737397Y01345111D01*
X03734414Y01342128D01*
X03724819Y01342128D01*
X03724819Y01380223D01*
X03713103Y01391939D01*
X03609921Y01391939D01*
X03598205Y01380223D01*
X03598205Y01340033D01*
X03603110Y01335128D01*
X03598205Y01330223D01*
X03598205Y01329608D01*
X03590242Y01337571D01*
X03570762Y01345640D01*
X03518654Y01345640D01*
X03512316Y01351978D01*
X03356576Y01351978D01*
X03353107Y01353415D01*
X03247486Y01353415D01*
X03228006Y01345347D01*
X03213097Y01330438D01*
X03213008Y01330222D01*
X03213008Y01330223D01*
X03208103Y01335128D01*
X03213008Y01340033D01*
X03213008Y01380223D01*
X03201292Y01391939D01*
X03197701Y01391939D01*
X03197701Y01404426D01*
X03190393Y01422068D01*
X03145005Y01467456D01*
X03127363Y01474764D01*
X03108267Y01474764D01*
X03090625Y01467456D01*
X03077123Y01453954D01*
X03069815Y01436312D01*
X03069815Y01417216D01*
X03077123Y01399574D01*
X03091434Y01385263D01*
X03086394Y01380223D01*
X03086394Y01340033D01*
X03091299Y01335128D01*
X03086394Y01330223D01*
X03086394Y01290033D01*
X03091299Y01285128D01*
X03090354Y01284183D01*
X02968552Y01380321D01*
X02963793Y01385080D01*
X02961119Y01386187D01*
X02958847Y01387981D01*
X02958152Y01388177D01*
X02958152Y01392042D01*
X02946436Y01403758D01*
X02851127Y01403758D01*
X02839757Y01392388D01*
X02812041Y01392388D01*
X02800671Y01403758D01*
X02722091Y01403758D01*
X02647028Y01478820D01*
X02629386Y01486128D01*
X02485047Y01486128D01*
X02467405Y01478820D01*
X02453903Y01465318D01*
X02446595Y01447676D01*
X02446595Y01428580D01*
X02453903Y01410938D01*
X02467405Y01397436D01*
X02485047Y01390128D01*
X02599956Y01390128D01*
X02602382Y01387703D01*
X02485047Y01387703D01*
X02467405Y01380395D01*
X02453903Y01366892D01*
X02446595Y01349250D01*
X02446595Y01330155D01*
X02453903Y01312513D01*
X02467405Y01299010D01*
X02485047Y01291703D01*
X02576310Y01291703D01*
X02678775Y01189238D01*
X02655363Y01189238D01*
X02643647Y01177522D01*
X02643647Y01082214D01*
X02655363Y01070498D01*
X02750671Y01070498D01*
X02762041Y01081868D01*
X02789757Y01081868D01*
X02801127Y01070498D01*
X02896436Y01070498D01*
X02908152Y01082214D01*
X02908152Y01098918D01*
X03016955Y01134833D01*
X03043995Y01122465D01*
X03063078Y01121772D01*
X03080149Y01128128D01*
X03085276Y01128128D01*
X03084394Y01124835D01*
X03084394Y01110128D01*
X03149700Y01110128D01*
X03149700Y01110127D01*
X03084394Y01110127D01*
X03084394Y01095421D01*
X03085893Y01089825D01*
X03086873Y01088128D01*
X03061757Y01088128D01*
X03051466Y01083865D01*
X03011327Y01043726D01*
X03003450Y01035849D01*
X02999188Y01025558D01*
X02999188Y00807273D01*
X02984145Y00801043D01*
X02972383Y00789281D01*
X02966018Y00773914D01*
X02966018Y00757280D01*
X02972383Y00741913D01*
X02984145Y00730151D01*
X02999512Y00723786D01*
X03016146Y00723786D01*
X03027634Y00728545D01*
X03027634Y00726269D01*
X03031897Y00715978D01*
X03041027Y00706848D01*
X03041027Y00696318D01*
X03047392Y00680951D01*
X03059154Y00669189D01*
X03074521Y00662824D01*
X03091155Y00662824D01*
X03106522Y00669189D01*
X03118284Y00680951D01*
X03124649Y00696318D01*
X03124649Y00712951D01*
X03118284Y00728319D01*
X03106522Y00740080D01*
X03091155Y00746446D01*
X03083634Y00746446D01*
X03083634Y00794501D01*
X03105492Y00771043D01*
X03105492Y00758928D01*
X03111857Y00743561D01*
X03123619Y00731799D01*
X03138986Y00725434D01*
X03155620Y00725434D01*
X03170987Y00731799D01*
X03182749Y00743561D01*
X03189114Y00758928D01*
X03189114Y00775562D01*
X03182749Y00790929D01*
X03170987Y00802691D01*
X03155620Y00809056D01*
X03146615Y00809056D01*
X03110779Y00847515D01*
X03110779Y00878317D01*
X03201292Y00878317D01*
X03213008Y00890033D01*
X03213008Y00930223D01*
X03208103Y00935128D01*
X03213008Y00940033D01*
X03213008Y00942887D01*
X03227576Y00928319D01*
X03247056Y00920250D01*
X03296925Y00920250D01*
X03298897Y00918278D01*
X03431079Y00918278D01*
X03434770Y00916749D01*
X03567783Y00916749D01*
X03587263Y00924818D01*
X03600342Y00937896D01*
X03603110Y00935128D01*
X03598205Y00930223D01*
X03598205Y00890033D01*
X03609921Y00878317D01*
X03713103Y00878317D01*
X03724819Y00890033D01*
X03724819Y00928128D01*
X03780620Y00928128D01*
X03792381Y00933000D01*
X03807783Y00948402D01*
X03807783Y00865739D01*
X03815090Y00848097D01*
X03828593Y00834594D01*
X03846235Y00827287D01*
X03865331Y00827287D01*
X03880008Y00833366D01*
X03880008Y00168762D01*
X03672822Y00169454D01*
X03682764Y00179396D01*
X03691803Y00201217D01*
X03691803Y00303576D01*
X03682764Y00325397D01*
X03666063Y00342098D01*
X03644242Y00351137D01*
X03620623Y00351137D01*
X03598802Y00342098D01*
X03582101Y00325397D01*
X03573063Y00303576D01*
X03573063Y00201217D01*
X03582101Y00179396D01*
X03591773Y00169724D01*
X03440918Y00170228D01*
X03443938Y00173248D01*
X03449616Y00181063D01*
X03454001Y00189670D01*
X03456987Y00198857D01*
X03458498Y00208398D01*
X03458498Y00252598D01*
X03397129Y00252598D01*
X03397129Y00252599D01*
X03458498Y00252599D01*
X03458498Y00296798D01*
X03456987Y00306339D01*
X03454001Y00315526D01*
X03449616Y00324133D01*
X03443938Y00331948D01*
X03437108Y00338779D01*
X03429293Y00344457D01*
X03420686Y00348842D01*
X03411499Y00351827D01*
X03401958Y00353338D01*
X03397128Y00353338D01*
X03397128Y00252600D01*
X03397127Y00252600D01*
X03397127Y00353338D01*
X03392298Y00353338D01*
X03382757Y00351827D01*
X03373570Y00348842D01*
X03364963Y00344457D01*
X03357148Y00338779D01*
X03350317Y00331948D01*
X03344639Y00324133D01*
X03340254Y00315526D01*
X03337269Y00306339D01*
X03335758Y00296798D01*
X03335758Y00293496D01*
X03334673Y00294123D01*
X03329077Y00295622D01*
X03310434Y00295622D01*
X03310434Y00250001D01*
X03310432Y00250001D01*
X03310432Y00295622D01*
X03291789Y00295622D01*
X03286193Y00294123D01*
X03281177Y00291226D01*
X03277081Y00287130D01*
X03274522Y00282699D01*
X03263599Y00293622D01*
X03215535Y00293622D01*
X03203913Y00282000D01*
X03177130Y00282000D01*
X03173684Y00285446D01*
X03158317Y00291811D01*
X03141683Y00291811D01*
X03126316Y00285446D01*
X03114554Y00273684D01*
X03108189Y00258317D01*
X03108189Y00241683D01*
X03114554Y00226316D01*
X03126316Y00214554D01*
X03141683Y00208189D01*
X03158317Y00208189D01*
X03173684Y00214554D01*
X03177130Y00218000D01*
X03203913Y00218000D01*
X03215535Y00206378D01*
X03263599Y00206378D01*
X03274522Y00217301D01*
X03277081Y00212870D01*
X03281177Y00208773D01*
X03286193Y00205877D01*
X03291789Y00204378D01*
X03310432Y00204378D01*
X03310432Y00249999D01*
X03310434Y00249999D01*
X03310434Y00204378D01*
X03329077Y00204378D01*
X03334673Y00205877D01*
X03336033Y00206662D01*
X03337269Y00198857D01*
X03340254Y00189670D01*
X03344639Y00181063D01*
X03350317Y00173248D01*
X03353044Y00170521D01*
X03104359Y00171352D01*
X03103323Y00172388D01*
X03084946Y00180000D01*
X03065054Y00180000D01*
X03046677Y00172388D01*
X03045837Y00171547D01*
X03004024Y00171687D01*
X03003323Y00172388D01*
X02984946Y00180000D01*
X02965054Y00180000D01*
X02946677Y00172388D01*
X02946169Y00171880D01*
X02903689Y00172022D01*
X02903323Y00172388D01*
X02884946Y00180000D01*
X02865054Y00180000D01*
X02846677Y00172388D01*
X02846502Y00172213D01*
X02807000Y00172345D01*
X02807000Y00182152D01*
X02978802Y00182152D01*
X02989094Y00186415D01*
X03078682Y00276004D01*
X03089212Y00276004D01*
X03104579Y00282369D01*
X03116341Y00294131D01*
X03122706Y00309498D01*
X03122706Y00326131D01*
X03116341Y00341499D01*
X03104579Y00353260D01*
X03089212Y00359625D01*
X03072578Y00359625D01*
X03057211Y00353260D01*
X03045449Y00341499D01*
X03039084Y00326131D01*
X03039084Y00315602D01*
X03020188Y00296706D01*
X03014057Y00311510D01*
X03002295Y00323271D01*
X02986928Y00329637D01*
X02970294Y00329637D01*
X02954927Y00323271D01*
X02947481Y00315826D01*
X02744796Y00315826D01*
X02734505Y00311563D01*
X02667818Y00244876D01*
X02571863Y00244876D01*
X02560102Y00240004D01*
X02556873Y00236775D01*
X02547872Y00227774D01*
X02543000Y00216012D01*
X02543000Y00173226D01*
X02500960Y00173367D01*
X02484946Y00180000D01*
X02465054Y00180000D01*
X02449455Y00173539D01*
X02400147Y00173703D01*
X02384946Y00180000D01*
X02365054Y00180000D01*
X02350255Y00173870D01*
X02248928Y00174208D01*
X02234946Y00180000D01*
X02215054Y00180000D01*
X02201454Y00174367D01*
X02148116Y00174545D01*
X02134946Y00180000D01*
X02115054Y00180000D01*
X02102254Y00174698D01*
X02047303Y00174881D01*
X02034946Y00180000D01*
X02015054Y00180000D01*
X02003054Y00175029D01*
X01946490Y00175218D01*
X01934946Y00180000D01*
X01915054Y00180000D01*
X01903853Y00175360D01*
X01849271Y00175542D01*
X01849271Y00185281D01*
X01859580Y00195590D01*
X02436229Y00195590D01*
X02439675Y00192144D01*
X02455042Y00185779D01*
X02471675Y00185779D01*
X02487043Y00192144D01*
X02498804Y00203906D01*
X02505170Y00219273D01*
X02505170Y00235906D01*
X02498804Y00251274D01*
X02487043Y00263035D01*
X02471675Y00269401D01*
X02455042Y00269401D01*
X02439675Y00263035D01*
X02436229Y00259590D01*
X02400222Y00259590D01*
X02401468Y00260835D01*
X02406341Y00260835D01*
X02421708Y00267200D01*
X02433470Y00278962D01*
X02439835Y00294329D01*
X02439835Y00310963D01*
X02433470Y00326330D01*
X02421708Y00338092D01*
X02406341Y00344457D01*
X02389707Y00344457D01*
X02374340Y00338092D01*
X02362578Y00326330D01*
X02356997Y00312855D01*
X01808486Y00312855D01*
X01796725Y00307984D01*
X01787723Y00298982D01*
X01697872Y00209130D01*
X01693000Y00197369D01*
X01693000Y00176064D01*
X01644052Y00176228D01*
X01634946Y00180000D01*
X01615054Y00180000D01*
X01606252Y00176354D01*
X01543240Y00176564D01*
X01534946Y00180000D01*
X01515054Y00180000D01*
X01507052Y00176685D01*
X01356966Y00177186D01*
X01356949Y00181633D01*
X01357057Y00181678D01*
X01373092Y00197712D01*
X01381769Y00218662D01*
X01381769Y00241338D01*
X01373092Y00262288D01*
X01357057Y00278322D01*
X01347613Y00282234D01*
X01363092Y00297712D01*
X01371769Y00318662D01*
X01371769Y00341338D01*
X01363092Y00362288D01*
X01347613Y00377766D01*
X01357057Y00381678D01*
X01373092Y00397712D01*
X01381769Y00418662D01*
X01381769Y00441338D01*
X01373092Y00462288D01*
X01357057Y00478322D01*
X01336107Y00487000D01*
X01313431Y00487000D01*
X01292481Y00478322D01*
X01276447Y00462288D01*
X01274769Y00458237D01*
X01273092Y00462288D01*
X01257057Y00478322D01*
X01236107Y00487000D01*
X01213431Y00487000D01*
X01192481Y00478322D01*
X01176447Y00462288D01*
X01174769Y00458237D01*
X01173092Y00462288D01*
X01157057Y00478322D01*
X01136107Y00487000D01*
X01113431Y00487000D01*
X01092481Y00478322D01*
X01076447Y00462288D01*
X01074769Y00458237D01*
X01073092Y00462288D01*
X01057057Y00478322D01*
X01036107Y00487000D01*
X01013431Y00487000D01*
X00992481Y00478322D01*
X00976447Y00462288D01*
X00967769Y00441338D01*
X00967769Y00418662D01*
X00976447Y00397712D01*
X00991925Y00382234D01*
X00982481Y00378322D01*
X00970159Y00366000D01*
X00761914Y00366000D01*
X00755411Y00372502D01*
X00755411Y00386706D01*
X00760383Y00398710D01*
X00760383Y00415343D01*
X00754018Y00430710D01*
X00742257Y00442472D01*
X00726889Y00448837D01*
X00710256Y00448837D01*
X00694889Y00442472D01*
X00683127Y00430710D01*
X00676762Y00415343D01*
X00676762Y00398710D01*
X00682855Y00384000D01*
X00465895Y00384000D01*
X00461706Y00382265D01*
X00440206Y00382265D01*
X00151981Y00670490D01*
X00151981Y01217575D01*
X00311160Y01217575D01*
X00312538Y01214248D01*
X00325961Y01200825D01*
X00343499Y01193561D01*
X00362482Y01193561D01*
X00380020Y01200825D01*
X00393442Y01214248D01*
X00400707Y01231786D01*
X00400707Y01250769D01*
X00393442Y01268307D01*
X00380020Y01281730D01*
X00362482Y01288994D01*
X00343499Y01288994D01*
X00325961Y01281730D01*
X00325807Y01281575D01*
X00151981Y01281575D01*
X00151981Y01522110D01*
X00173045Y01543174D01*
X00390812Y01543174D01*
X00408454Y01550482D01*
X00462925Y01604953D01*
X00476428Y01618456D01*
X00483735Y01636098D01*
X00483735Y01732210D01*
X00587109Y01835584D01*
X00589560Y01838034D01*
X01036755Y01838034D01*
X01031593Y01835896D01*
X01015558Y01819862D01*
X01006881Y01798912D01*
X01006881Y01776236D01*
X01015558Y01755286D01*
X01031593Y01739251D01*
X01036163Y01737358D01*
X01031748Y01735530D01*
X01015714Y01719495D01*
X01007036Y01698545D01*
X01007036Y01675869D01*
X01015714Y01654919D01*
X01031748Y01638885D01*
X01052698Y01630207D01*
X01075374Y01630207D01*
X01096324Y01638885D01*
X01111802Y01654363D01*
X01115714Y01644919D01*
X01131748Y01628885D01*
X01136457Y01626934D01*
X01136908Y01625847D01*
X01145909Y01616845D01*
X01157671Y01611974D01*
X01170401Y01611974D01*
X01182162Y01616845D01*
X01191164Y01625847D01*
X01191614Y01626934D01*
X01196324Y01628885D01*
X01212358Y01644919D01*
X01216270Y01654363D01*
X01231748Y01638885D01*
X01252698Y01630207D01*
X01275374Y01630207D01*
X01296324Y01638885D01*
X01312358Y01654919D01*
X01321036Y01675869D01*
X01321036Y01698545D01*
X01312358Y01719495D01*
X01296324Y01735530D01*
X01291753Y01737423D01*
X01296169Y01739251D01*
X01312203Y01755286D01*
X01320881Y01776236D01*
X01320881Y01798912D01*
X01312203Y01819862D01*
X01296169Y01835896D01*
X01291006Y01838034D01*
X01342094Y01838034D01*
X01346547Y01833582D01*
X01358308Y01828710D01*
X01371039Y01828710D01*
X01382800Y01833582D01*
X01387252Y01838034D01*
X01520558Y01838034D01*
X01520558Y01591164D01*
X01476049Y01546655D01*
X01437902Y01546655D01*
X01434375Y01543129D01*
X01430848Y01546655D01*
X01403313Y01546655D01*
X01411442Y01554784D01*
X01420443Y01563786D01*
X01425009Y01574809D01*
X01428761Y01578561D01*
X01435126Y01593928D01*
X01435126Y01610561D01*
X01428761Y01625929D01*
X01416999Y01637690D01*
X01401632Y01644055D01*
X01384998Y01644055D01*
X01369631Y01637690D01*
X01357869Y01625929D01*
X01351504Y01610561D01*
X01351504Y01593928D01*
X01354015Y01587867D01*
X01312803Y01546655D01*
X01274656Y01546655D01*
X01272467Y01544467D01*
X01267809Y01547156D01*
X01262214Y01548655D01*
X01234523Y01548655D01*
X01234523Y01497924D01*
X01232932Y01497924D01*
X01232932Y01548655D01*
X01205240Y01548655D01*
X01199645Y01547156D01*
X01194628Y01544260D01*
X01190532Y01540164D01*
X01187636Y01535147D01*
X01186137Y01529552D01*
X01186137Y01497923D01*
X01232931Y01497923D01*
X01232931Y01496332D01*
X01186137Y01496332D01*
X01186137Y01464704D01*
X01187636Y01459109D01*
X01190532Y01454092D01*
X01194628Y01449996D01*
X01199645Y01447100D01*
X01205240Y01445600D01*
X01232932Y01445600D01*
X01232932Y01496332D01*
X01234523Y01496332D01*
X01234523Y01445600D01*
X01262214Y01445600D01*
X01267809Y01447100D01*
X01272467Y01449789D01*
X01274656Y01447600D01*
X01330938Y01447600D01*
X01332546Y01443718D01*
X01341548Y01434716D01*
X01372291Y01403973D01*
X01384052Y01399101D01*
X01607600Y01399101D01*
X01614762Y01391939D01*
X01511632Y01391939D01*
X01499916Y01380223D01*
X01499916Y01340033D01*
X01504821Y01335128D01*
X01502296Y01332603D01*
X01500546Y01335607D01*
X01483769Y01348377D01*
X01463381Y01353755D01*
X01421581Y01348086D01*
X01418332Y01347673D01*
X01414027Y01351978D01*
X01356021Y01351978D01*
X01354496Y01352610D01*
X01353476Y01352610D01*
X01352520Y01352965D01*
X01342969Y01352610D01*
X01333411Y01352610D01*
X01332469Y01352219D01*
X01331449Y01352182D01*
X01331006Y01351978D01*
X01200608Y01351978D01*
X01199404Y01350774D01*
X01194792Y01351442D01*
X01191894Y01350705D01*
X01154583Y01351981D01*
X01134839Y01344583D01*
X01119429Y01330192D01*
X01114719Y01319837D01*
X01114719Y01330223D01*
X01109814Y01335128D01*
X01114719Y01340033D01*
X01114719Y01380223D01*
X01103003Y01391939D01*
X01099708Y01391939D01*
X01099708Y01397388D01*
X01092401Y01415030D01*
X01078898Y01428532D01*
X01078392Y01428742D01*
X01034574Y01472560D01*
X01016932Y01479867D01*
X00997836Y01479867D01*
X00980195Y01472560D01*
X00966692Y01459057D01*
X00959384Y01441415D01*
X00959384Y01422320D01*
X00966692Y01404678D01*
X00989626Y01381744D01*
X00988105Y01380223D01*
X00988105Y01340033D01*
X00993010Y01335128D01*
X00988105Y01330223D01*
X00988105Y01290033D01*
X00993010Y01285128D01*
X00988105Y01280223D01*
X00988105Y01242083D01*
X00811791Y01241960D01*
X00811791Y01279746D01*
X00811955Y01280163D01*
X00811791Y01289275D01*
X00811791Y01298394D01*
X00811619Y01298808D01*
X00811611Y01299256D01*
X00807971Y01307614D01*
X00804483Y01316036D01*
X00804166Y01316352D01*
X00803987Y01316764D01*
X00797425Y01323094D01*
X00790980Y01329538D01*
X00790566Y01329710D01*
X00765583Y01353810D01*
X00765583Y01392042D01*
X00753867Y01403758D01*
X00658559Y01403758D01*
X00647116Y01392315D01*
X00609599Y01392343D01*
X00598184Y01403758D01*
X00559012Y01403758D01*
X00522227Y01440498D01*
X00542845Y01440498D01*
X00542845Y01494182D01*
X00558215Y01494182D01*
X00558215Y01440498D01*
X00592797Y01440498D01*
X00598392Y01441997D01*
X00603408Y01444894D01*
X00607505Y01448990D01*
X00610401Y01454006D01*
X00611900Y01459602D01*
X00611900Y01494183D01*
X00558216Y01494183D01*
X00558216Y01509553D01*
X00611900Y01509553D01*
X00611900Y01544134D01*
X00610401Y01549730D01*
X00607505Y01554746D01*
X00603408Y01558843D01*
X00598392Y01561739D01*
X00592797Y01563238D01*
X00558215Y01563238D01*
X00558215Y01509554D01*
X00542845Y01509554D01*
X00542845Y01563238D01*
X00508264Y01563238D01*
X00502668Y01561739D01*
X00497652Y01558843D01*
X00493556Y01554746D01*
X00490659Y01549730D01*
X00489160Y01544134D01*
X00489160Y01509553D01*
X00542844Y01509553D01*
X00542844Y01494183D01*
X00489160Y01494183D01*
X00489160Y01473588D01*
X00487774Y01474909D01*
X00481416Y01481259D01*
X00480880Y01481481D01*
X00480460Y01481882D01*
X00472074Y01485122D01*
X00463770Y01488556D01*
X00463190Y01488556D01*
X00462648Y01488765D01*
X00453661Y01488550D01*
X00444674Y01488545D01*
X00444139Y01488322D01*
X00342297Y01485886D01*
X00324835Y01478158D01*
X00311659Y01464337D01*
X00304776Y01446525D01*
X00305233Y01427435D01*
X00312960Y01409973D01*
X00326782Y01396797D01*
X00344593Y01389913D01*
X00434864Y01392073D01*
X00491160Y01335845D01*
X00491160Y01315965D01*
X00441507Y01365618D01*
X00428005Y01379120D01*
X00410363Y01386428D01*
X00364875Y01386428D01*
X00362482Y01387419D01*
X00361854Y01387419D01*
X00359609Y01388193D01*
X00346868Y01387419D01*
X00343499Y01387419D01*
X00342920Y01387179D01*
X00340548Y01387035D01*
X00329074Y01381444D01*
X00325961Y01380155D01*
X00325518Y01379711D01*
X00323382Y01378671D01*
X00314921Y01369115D01*
X00312538Y01366732D01*
X00312298Y01366152D01*
X00310723Y01364374D01*
X00306564Y01352308D01*
X00305274Y01349194D01*
X00305274Y01348567D01*
X00304500Y01346321D01*
X00305274Y01333580D01*
X00305274Y01330211D01*
X00305514Y01329632D01*
X00305658Y01327261D01*
X00311249Y01315786D01*
X00312538Y01312673D01*
X00312982Y01312230D01*
X00314022Y01310094D01*
X00323578Y01301633D01*
X00325961Y01299251D01*
X00326541Y01299011D01*
X00328319Y01297436D01*
X00339665Y01293524D01*
X00347140Y01290428D01*
X00348646Y01290428D01*
X00350070Y01289937D01*
X00358145Y01290428D01*
X00380933Y01290428D01*
X00490770Y01180591D01*
X00487702Y01177522D01*
X00487702Y01082214D01*
X00499418Y01070498D01*
X00594726Y01070498D01*
X00606096Y01081868D01*
X00644953Y01081868D01*
X00656323Y01070498D01*
X00751632Y01070498D01*
X00763347Y01082214D01*
X00763347Y01110572D01*
X00771560Y01110572D01*
X00789202Y01117880D01*
X00797895Y01126572D01*
X00843798Y01126572D01*
X00843917Y01126524D01*
X00850158Y01126572D01*
X00856400Y01126572D01*
X00856518Y01126621D01*
X00986853Y01127628D01*
X00986105Y01124835D01*
X00986105Y01110128D01*
X01051411Y01110128D01*
X01051411Y01110127D01*
X00986105Y01110127D01*
X00986105Y01095421D01*
X00987604Y01089825D01*
X00988584Y01088128D01*
X00923053Y01088128D01*
X00912761Y01083865D01*
X00904885Y01075989D01*
X00904362Y01075466D01*
X00900100Y01065175D01*
X00908830Y01079934D02*
X00761067Y01079934D01*
X00763347Y01103932D02*
X00986105Y01103932D01*
X01051413Y01110128D02*
X01116719Y01110128D01*
X01116719Y01112247D01*
X01121612Y01099900D01*
X01133088Y01088064D01*
X01121821Y01076608D01*
X01114719Y01059051D01*
X01114719Y01080223D01*
X01111228Y01083714D01*
X01112323Y01084809D01*
X01115220Y01089825D01*
X01116719Y01095421D01*
X01116719Y01110127D01*
X01051413Y01110127D01*
X01051413Y01110128D01*
X01051412Y01160128D02*
X00850035Y01158572D01*
X00762013Y01158572D01*
X00797131Y01209949D02*
X00763791Y01243289D01*
X00811791Y01247923D02*
X00988105Y01247923D01*
X00988105Y01271922D02*
X00811791Y01271922D01*
X00811791Y01295920D02*
X00988105Y01295920D01*
X00988105Y01319919D02*
X00800716Y01319919D01*
X00775838Y01343917D02*
X00988105Y01343917D01*
X00988105Y01367916D02*
X00765583Y01367916D01*
X00765583Y01391914D02*
X00979455Y01391914D01*
X00962038Y01415913D02*
X00546842Y01415913D01*
X00522814Y01439911D02*
X00959384Y01439911D01*
X00971545Y01463910D02*
X00765583Y01463910D01*
X00765583Y01454214D02*
X00765583Y01549522D01*
X00753867Y01561238D01*
X00753336Y01561238D01*
X00759074Y01575089D01*
X00759074Y01591722D01*
X00752708Y01607090D01*
X00740947Y01618851D01*
X00725579Y01625217D01*
X00708946Y01625217D01*
X00693579Y01618851D01*
X00681817Y01607090D01*
X00675452Y01591722D01*
X00675452Y01575089D01*
X00681189Y01561238D01*
X00658559Y01561238D01*
X00646843Y01549522D01*
X00646843Y01454214D01*
X00658559Y01442498D01*
X00753867Y01442498D01*
X00765583Y01454214D01*
X00765583Y01487908D02*
X01186137Y01487908D01*
X01186349Y01463910D02*
X01043224Y01463910D01*
X01067223Y01439911D02*
X01336352Y01439911D01*
X01359674Y01461845D02*
X01359674Y01494055D01*
X01362747Y01497128D01*
X01396974Y01497128D01*
X01362747Y01497128D02*
X01308530Y01497128D01*
X01393315Y01581913D01*
X01393315Y01602245D01*
X01430974Y01583903D02*
X01513297Y01583903D01*
X01520558Y01607901D02*
X01435126Y01607901D01*
X01422790Y01631900D02*
X01520558Y01631900D01*
X01520558Y01655898D02*
X01312764Y01655898D01*
X01321036Y01679897D02*
X01520558Y01679897D01*
X01520558Y01703895D02*
X01318820Y01703895D01*
X01303960Y01727894D02*
X01520558Y01727894D01*
X01520558Y01751892D02*
X01308809Y01751892D01*
X01320738Y01775891D02*
X01520558Y01775891D01*
X01520558Y01799889D02*
X01320476Y01799889D01*
X01308177Y01823888D02*
X01520558Y01823888D01*
X01584558Y01823888D02*
X02347119Y01823888D01*
X02338294Y01799889D02*
X01584558Y01799889D01*
X01584558Y01775891D02*
X02342242Y01775891D01*
X02380105Y01793739D02*
X02377137Y01886034D01*
X02411152Y01823888D02*
X03690545Y01823888D01*
X03714544Y01799889D02*
X02421916Y01799889D01*
X02417968Y01775891D02*
X03738542Y01775891D01*
X03762541Y01751892D02*
X01584558Y01751892D01*
X01584558Y01727894D02*
X03786539Y01727894D01*
X03807783Y01703895D02*
X01584558Y01703895D01*
X01584558Y01679897D02*
X03451848Y01679897D01*
X03481128Y01679897D02*
X03807783Y01679897D01*
X03807783Y01655898D02*
X03505451Y01655898D01*
X03520548Y01631900D02*
X03788804Y01631900D01*
X03764805Y01607901D02*
X03527750Y01607901D01*
X03527750Y01583903D02*
X03740807Y01583903D01*
X03716808Y01559904D02*
X03527750Y01559904D01*
X03495750Y01611443D02*
X03495750Y01497128D01*
X03407260Y01496156D01*
X03450912Y01535906D02*
X03451126Y01535906D01*
X03463750Y01559904D02*
X03037477Y01559904D01*
X03037477Y01567436D02*
X03040923Y01570882D01*
X03047288Y01586249D01*
X03047288Y01602883D01*
X03040923Y01618250D01*
X03029161Y01630012D01*
X03013794Y01636377D01*
X02997161Y01636377D01*
X02981793Y01630012D01*
X02970032Y01618250D01*
X02963666Y01602883D01*
X02963666Y01586249D01*
X02970032Y01570882D01*
X02973477Y01567436D01*
X02973477Y01533868D01*
X02958152Y01533868D01*
X02958152Y01549522D01*
X02946436Y01561238D01*
X02851127Y01561238D01*
X02839412Y01549522D01*
X02839412Y01454214D01*
X02851127Y01442498D01*
X02946436Y01442498D01*
X02958152Y01454214D01*
X02958152Y01469868D01*
X03014326Y01469868D01*
X03026087Y01474740D01*
X03035089Y01483742D01*
X03039961Y01495503D01*
X03039961Y01508233D01*
X03037477Y01514229D01*
X03037477Y01567436D01*
X03046316Y01583903D02*
X03463750Y01583903D01*
X03440162Y01607901D02*
X03045210Y01607901D01*
X03024604Y01631900D02*
X03424879Y01631900D01*
X03427525Y01655898D02*
X02078013Y01655898D01*
X02098477Y01631900D02*
X02986351Y01631900D01*
X02965745Y01607901D02*
X02099525Y01607901D01*
X02090099Y01583903D02*
X02964638Y01583903D01*
X03005477Y01594566D02*
X03005477Y01504352D01*
X03007961Y01501868D01*
X02898782Y01501868D01*
X02958152Y01535906D02*
X02973477Y01535906D01*
X02973477Y01559904D02*
X02947770Y01559904D01*
X03037477Y01535906D02*
X03287364Y01535906D01*
X03284866Y01511907D02*
X03038439Y01511907D01*
X03036815Y01487908D02*
X03284866Y01487908D01*
X03284866Y01463910D02*
X03148551Y01463910D01*
X03172550Y01439911D02*
X03807783Y01439911D01*
X03807783Y01415913D02*
X03192943Y01415913D01*
X03201317Y01391914D02*
X03609896Y01391914D01*
X03598205Y01367916D02*
X03213008Y01367916D01*
X03213008Y01343917D02*
X03226577Y01343917D01*
X03149701Y01331541D02*
X03149701Y01310128D01*
X03149701Y01331541D02*
X03148942Y01331541D01*
X03086394Y01319919D02*
X03045079Y01319919D01*
X03014674Y01343917D02*
X03086394Y01343917D01*
X03086394Y01367916D02*
X02984269Y01367916D01*
X02958152Y01391914D02*
X03084783Y01391914D01*
X03070355Y01415913D02*
X02709936Y01415913D01*
X02710751Y01440498D02*
X02745332Y01440498D01*
X02745332Y01494182D01*
X02760702Y01494182D01*
X02760702Y01440498D01*
X02795283Y01440498D01*
X02800879Y01441997D01*
X02805895Y01444894D01*
X02809992Y01448990D01*
X02812888Y01454006D01*
X02814387Y01459602D01*
X02814387Y01494183D01*
X02760703Y01494183D01*
X02760703Y01509553D01*
X02814387Y01509553D01*
X02814387Y01544134D01*
X02812888Y01549730D01*
X02809992Y01554746D01*
X02805895Y01558843D01*
X02800879Y01561739D01*
X02795283Y01563238D01*
X02760702Y01563238D01*
X02760702Y01509554D01*
X02745332Y01509554D01*
X02745332Y01563238D01*
X02710751Y01563238D01*
X02705155Y01561739D01*
X02700139Y01558843D01*
X02696043Y01554746D01*
X02693146Y01549730D01*
X02691647Y01544134D01*
X02691647Y01509553D01*
X02745331Y01509553D01*
X02745331Y01494183D01*
X02691647Y01494183D01*
X02691647Y01459602D01*
X02693146Y01454006D01*
X02696043Y01448990D01*
X02700139Y01444894D01*
X02705155Y01441997D01*
X02710751Y01440498D01*
X02685937Y01439911D02*
X03071306Y01439911D01*
X03087079Y01463910D02*
X02958152Y01463910D01*
X02839412Y01463910D02*
X02814387Y01463910D01*
X02814387Y01487908D02*
X02839412Y01487908D01*
X02839412Y01511907D02*
X02814387Y01511907D01*
X02814387Y01535906D02*
X02839412Y01535906D01*
X02849793Y01559904D02*
X02804057Y01559904D01*
X02760702Y01559904D02*
X02745332Y01559904D01*
X02745332Y01535906D02*
X02760702Y01535906D01*
X02760702Y01511907D02*
X02745332Y01511907D01*
X02745332Y01487908D02*
X02760702Y01487908D01*
X02760702Y01463910D02*
X02745332Y01463910D01*
X02691647Y01463910D02*
X02661938Y01463910D01*
X02691647Y01487908D02*
X02117469Y01487908D01*
X02117469Y01511907D02*
X02691647Y01511907D01*
X02691647Y01535906D02*
X02117469Y01535906D01*
X02107087Y01559904D02*
X02701977Y01559904D01*
X02453320Y01463910D02*
X02299646Y01463910D01*
X02306370Y01439911D02*
X02446595Y01439911D01*
X02451842Y01415913D02*
X02301123Y01415913D01*
X02272231Y01391914D02*
X02480734Y01391914D01*
X02454926Y01367916D02*
X02298039Y01367916D01*
X02306370Y01343917D02*
X02446595Y01343917D01*
X02450835Y01319919D02*
X02413581Y01319919D01*
X02414231Y01319269D02*
X02402469Y01331031D01*
X02387102Y01337396D01*
X02370469Y01337396D01*
X02355101Y01331031D01*
X02343340Y01319269D01*
X02336974Y01303902D01*
X02336974Y01299029D01*
X02311223Y01273277D01*
X02293852Y01273277D01*
X02285400Y01281730D01*
X02267862Y01288994D01*
X02248879Y01288994D01*
X02231341Y01281730D01*
X02217918Y01268307D01*
X02210654Y01250769D01*
X02210654Y01231786D01*
X02217918Y01214248D01*
X02231341Y01200825D01*
X02248879Y01193561D01*
X02267862Y01193561D01*
X02285400Y01200825D01*
X02293852Y01209278D01*
X02330843Y01209278D01*
X02342604Y01214149D01*
X02378785Y01250330D01*
X02405964Y01223151D01*
X02414966Y01214149D01*
X02426727Y01209278D01*
X02459114Y01209278D01*
X02467566Y01200825D01*
X02485104Y01193561D01*
X02504087Y01193561D01*
X02521624Y01200825D01*
X02535047Y01214248D01*
X02542312Y01231786D01*
X02542312Y01250769D01*
X02535047Y01268307D01*
X02521624Y01281730D01*
X02504087Y01288994D01*
X02485104Y01288994D01*
X02467566Y01281730D01*
X02459114Y01273277D01*
X02446347Y01273277D01*
X02420596Y01299029D01*
X02420596Y01303902D01*
X02414231Y01319269D01*
X02423705Y01295920D02*
X02474865Y01295920D01*
X02531432Y01271922D02*
X02596091Y01271922D01*
X02620090Y01247923D02*
X02542312Y01247923D01*
X02539055Y01223925D02*
X02644088Y01223925D01*
X02668087Y01199926D02*
X02519453Y01199926D01*
X02521624Y01183304D02*
X02504087Y01190569D01*
X02485104Y01190569D01*
X02467566Y01183304D01*
X02454143Y01169882D01*
X02446879Y01152344D01*
X02446879Y01133361D01*
X02454143Y01115823D01*
X02467566Y01102400D01*
X02485104Y01095136D01*
X02504087Y01095136D01*
X02521624Y01102400D01*
X02535047Y01115823D01*
X02542312Y01133361D01*
X02542312Y01152344D01*
X02535047Y01169882D01*
X02521624Y01183304D01*
X02529001Y01175928D02*
X02643647Y01175928D01*
X02643647Y01151929D02*
X02542312Y01151929D01*
X02540062Y01127931D02*
X02643647Y01127931D01*
X02643647Y01103932D02*
X02523156Y01103932D01*
X02521624Y01084879D02*
X02504087Y01092144D01*
X02485104Y01092144D01*
X02467566Y01084879D01*
X02454143Y01071456D01*
X02446879Y01053919D01*
X02446879Y01034936D01*
X02454143Y01017398D01*
X02467566Y01003975D01*
X02485104Y00996711D01*
X02504087Y00996711D01*
X02521624Y01003975D01*
X02535047Y01017398D01*
X02542312Y01034936D01*
X02542312Y01053919D01*
X02535047Y01071456D01*
X02521624Y01084879D01*
X02526570Y01079934D02*
X02645927Y01079934D01*
X02660751Y01033758D02*
X02655155Y01032258D01*
X02650139Y01029362D01*
X02646043Y01025266D01*
X02643146Y01020250D01*
X02641647Y01014654D01*
X02641647Y00980073D01*
X02695331Y00980073D01*
X02695331Y00964703D01*
X02641647Y00964703D01*
X02641647Y00930121D01*
X02643146Y00924526D01*
X02646043Y00919509D01*
X02650139Y00915413D01*
X02655155Y00912517D01*
X02660751Y00911018D01*
X02695332Y00911018D01*
X02695332Y00964702D01*
X02710702Y00964702D01*
X02710702Y00911018D01*
X02745283Y00911018D01*
X02750879Y00912517D01*
X02755895Y00915413D01*
X02759992Y00919509D01*
X02762888Y00924526D01*
X02764387Y00930121D01*
X02764387Y00964703D01*
X02710703Y00964703D01*
X02710703Y00980073D01*
X02764387Y00980073D01*
X02764387Y01014654D01*
X02762888Y01020250D01*
X02759992Y01025266D01*
X02755895Y01029362D01*
X02750879Y01032258D01*
X02745283Y01033758D01*
X02710702Y01033758D01*
X02710702Y00980074D01*
X02695332Y00980074D01*
X02695332Y01033758D01*
X02660751Y01033758D01*
X02654598Y01031937D02*
X02541069Y01031937D01*
X02541477Y01055935D02*
X03023536Y01055935D01*
X03001830Y01031937D02*
X02751437Y01031937D01*
X02764387Y01007938D02*
X02789412Y01007938D01*
X02789412Y01020042D02*
X02789412Y00924733D01*
X02801127Y00913018D01*
X02808604Y00913018D01*
X02803934Y00901745D01*
X02803934Y00885112D01*
X02810300Y00869744D01*
X02822061Y00857983D01*
X02837429Y00851617D01*
X02854062Y00851617D01*
X02869429Y00857983D01*
X02881191Y00869744D01*
X02887556Y00885112D01*
X02887556Y00901745D01*
X02882887Y00913018D01*
X02896436Y00913018D01*
X02908152Y00924733D01*
X02908152Y01020042D01*
X02896436Y01031758D01*
X02801127Y01031758D01*
X02789412Y01020042D01*
X02789412Y00983939D02*
X02764387Y00983939D01*
X02764387Y00959941D02*
X02789412Y00959941D01*
X02789412Y00935942D02*
X02764387Y00935942D01*
X02748740Y00911944D02*
X02808159Y00911944D01*
X02803934Y00887945D02*
X02098332Y00887945D01*
X02098332Y00894193D02*
X02091967Y00909560D01*
X02090099Y00911428D01*
X02090099Y00913018D01*
X02105753Y00913018D01*
X02117469Y00924733D01*
X02117469Y01020042D01*
X02105753Y01031758D01*
X02010445Y01031758D01*
X01998729Y01020042D01*
X01998729Y00924733D01*
X02010445Y00913018D01*
X02024533Y00913018D01*
X02021075Y00909560D01*
X02014710Y00894193D01*
X02014710Y00877560D01*
X02021075Y00862192D01*
X02032837Y00850431D01*
X02048204Y00844065D01*
X02064838Y00844065D01*
X02080205Y00850431D01*
X02091967Y00862192D01*
X02098332Y00877560D01*
X02098332Y00894193D01*
X02090099Y00911944D02*
X02224947Y00911944D01*
X02231341Y00905550D02*
X02248879Y00898285D01*
X02267862Y00898285D01*
X02285400Y00905550D01*
X02298822Y00918973D01*
X02306087Y00936510D01*
X02306087Y00955493D01*
X02298822Y00973031D01*
X02285400Y00986454D01*
X02267862Y00993718D01*
X02248879Y00993718D01*
X02231341Y00986454D01*
X02217918Y00973031D01*
X02210654Y00955493D01*
X02210654Y00936510D01*
X02217918Y00918973D01*
X02231341Y00905550D01*
X02210889Y00935942D02*
X02117469Y00935942D01*
X02117469Y00959941D02*
X02212496Y00959941D01*
X02228827Y00983939D02*
X02117469Y00983939D01*
X02117469Y01007938D02*
X02227378Y01007938D01*
X02231341Y01003975D02*
X02248879Y00996711D01*
X02267862Y00996711D01*
X02285400Y01003975D01*
X02298822Y01017398D01*
X02306087Y01034936D01*
X02306087Y01053919D01*
X02298822Y01071456D01*
X02285400Y01084879D01*
X02267862Y01092144D01*
X02248879Y01092144D01*
X02231341Y01084879D01*
X02217918Y01071456D01*
X02210654Y01053919D01*
X02210654Y01034936D01*
X02217918Y01017398D01*
X02231341Y01003975D01*
X02211896Y01031937D02*
X01948212Y01031937D01*
X01947655Y01032258D02*
X01942059Y01033758D01*
X01907478Y01033758D01*
X01907478Y00980074D01*
X01892108Y00980074D01*
X01892108Y01033758D01*
X01857526Y01033758D01*
X01851931Y01032258D01*
X01846914Y01029362D01*
X01842818Y01025266D01*
X01839922Y01020250D01*
X01838423Y01014654D01*
X01838423Y00980073D01*
X01892107Y00980073D01*
X01892107Y00964703D01*
X01838423Y00964703D01*
X01838423Y00930121D01*
X01839922Y00924526D01*
X01842818Y00919509D01*
X01846914Y00915413D01*
X01851931Y00912517D01*
X01857526Y00911018D01*
X01892108Y00911018D01*
X01892108Y00964702D01*
X01907478Y00964702D01*
X01907478Y00911018D01*
X01942059Y00911018D01*
X01947655Y00912517D01*
X01952671Y00915413D01*
X01956767Y00919509D01*
X01959664Y00924526D01*
X01961163Y00930121D01*
X01961163Y00964703D01*
X01907479Y00964703D01*
X01907479Y00980073D01*
X01961163Y00980073D01*
X01961163Y01014654D01*
X01959664Y01020250D01*
X01956767Y01025266D01*
X01952671Y01029362D01*
X01947655Y01032258D01*
X01961163Y01007938D02*
X01998729Y01007938D01*
X01998729Y00983939D02*
X01961163Y00983939D01*
X01961163Y00959941D02*
X01998729Y00959941D01*
X01998729Y00935942D02*
X01961163Y00935942D01*
X01945516Y00911944D02*
X02023459Y00911944D01*
X02014710Y00887945D02*
X01829143Y00887945D01*
X01820692Y00911944D02*
X01854070Y00911944D01*
X01838423Y00935942D02*
X01820692Y00935942D01*
X01820692Y00959941D02*
X01838423Y00959941D01*
X01838423Y00983939D02*
X01820692Y00983939D01*
X01820692Y01007938D02*
X01838423Y01007938D01*
X01851374Y01031937D02*
X01820692Y01031937D01*
X01820692Y01055935D02*
X02211489Y01055935D01*
X02226396Y01079934D02*
X02115189Y01079934D01*
X02117469Y01103932D02*
X02229809Y01103932D01*
X02231341Y01102400D02*
X02248879Y01095136D01*
X02267862Y01095136D01*
X02285400Y01102400D01*
X02298822Y01115823D01*
X02306087Y01133361D01*
X02306087Y01152344D01*
X02298822Y01169882D01*
X02285400Y01183304D01*
X02267862Y01190569D01*
X02248879Y01190569D01*
X02231341Y01183304D01*
X02217918Y01169882D01*
X02210654Y01152344D01*
X02210654Y01133361D01*
X02217918Y01115823D01*
X02231341Y01102400D01*
X02286931Y01103932D02*
X02466034Y01103932D01*
X02462620Y01079934D02*
X02290345Y01079934D01*
X02305252Y01055935D02*
X02447714Y01055935D01*
X02448121Y01031937D02*
X02304844Y01031937D01*
X02289363Y01007938D02*
X02463603Y01007938D01*
X02467566Y00986454D02*
X02454143Y00973031D01*
X02446879Y00955493D01*
X02446879Y00936510D01*
X02454143Y00918973D01*
X02467566Y00905550D01*
X02485104Y00898285D01*
X02504087Y00898285D01*
X02521624Y00905550D01*
X02535047Y00918973D01*
X02542312Y00936510D01*
X02542312Y00955493D01*
X02535047Y00973031D01*
X02521624Y00986454D01*
X02504087Y00993718D01*
X02485104Y00993718D01*
X02467566Y00986454D01*
X02465051Y00983939D02*
X02287914Y00983939D01*
X02304245Y00959941D02*
X02448721Y00959941D01*
X02447114Y00935942D02*
X02305852Y00935942D01*
X02291794Y00911944D02*
X02461172Y00911944D01*
X02528018Y00911944D02*
X02657294Y00911944D01*
X02641647Y00935942D02*
X02542076Y00935942D01*
X02540469Y00959941D02*
X02641647Y00959941D01*
X02641647Y00983939D02*
X02524139Y00983939D01*
X02525587Y01007938D02*
X02641647Y01007938D01*
X02695332Y01007938D02*
X02710702Y01007938D01*
X02710702Y00983939D02*
X02695332Y00983939D01*
X02695332Y00959941D02*
X02710702Y00959941D01*
X02710702Y00935942D02*
X02695332Y00935942D01*
X02695332Y00911944D02*
X02710702Y00911944D01*
X02816097Y00863947D02*
X02092693Y00863947D01*
X02058099Y00887455D02*
X02056521Y00885876D01*
X02058099Y00887455D02*
X02058099Y00972388D01*
X02001009Y01079934D02*
X01956883Y01079934D01*
X01907478Y01031937D02*
X01892108Y01031937D01*
X01892108Y01007938D02*
X01907478Y01007938D01*
X01907478Y00983939D02*
X01892108Y00983939D01*
X01892108Y00959941D02*
X01907478Y00959941D01*
X01907478Y00935942D02*
X01892108Y00935942D01*
X01892108Y00911944D02*
X01907478Y00911944D01*
X01853141Y00863947D02*
X02020348Y00863947D01*
X01925137Y00791951D02*
X02975054Y00791951D01*
X02966018Y00767953D02*
X01938245Y00767953D01*
X01938245Y00743954D02*
X02971538Y00743954D01*
X03030249Y00719956D02*
X01938245Y00719956D01*
X01944993Y00695957D02*
X03041177Y00695957D01*
X03056384Y00671959D02*
X01940613Y00671959D01*
X01927987Y00647960D02*
X03880008Y00647960D01*
X03880008Y00671959D02*
X03109292Y00671959D01*
X03124500Y00695957D02*
X03880008Y00695957D01*
X03880008Y00719956D02*
X03121748Y00719956D01*
X03111694Y00743954D02*
X03097170Y00743954D01*
X03105492Y00767953D02*
X03083634Y00767953D01*
X03083634Y00791951D02*
X03086010Y00791951D01*
X03140191Y00815950D02*
X03880008Y00815950D01*
X03880008Y00791951D02*
X03181726Y00791951D01*
X03189114Y00767953D02*
X03880008Y00767953D01*
X03880008Y00743954D02*
X03182912Y00743954D01*
X03117829Y00839948D02*
X03823239Y00839948D01*
X03808525Y00863947D02*
X03110779Y00863947D01*
X03210921Y00887945D02*
X03600292Y00887945D01*
X03598205Y00911944D02*
X03213008Y00911944D01*
X03208918Y00935942D02*
X03219952Y00935942D01*
X02999188Y00935942D02*
X02908152Y00935942D01*
X02908152Y00959941D02*
X02999188Y00959941D01*
X02999188Y00983939D02*
X02908152Y00983939D01*
X02908152Y01007938D02*
X02999188Y01007938D01*
X03047535Y01079934D02*
X02905872Y01079934D01*
X02923342Y01103932D02*
X03084394Y01103932D01*
X03085224Y01127931D02*
X03079619Y01127931D01*
X03065236Y01160128D02*
X03055278Y01170087D01*
X03065236Y01160128D02*
X03149701Y01160128D01*
X03149701Y01210128D02*
X03096701Y01210128D01*
X03059229Y01247600D01*
X03075484Y01295920D02*
X03086394Y01295920D01*
X03032045Y01127931D02*
X02996045Y01127931D01*
X02791692Y01079934D02*
X02760107Y01079934D01*
X02710702Y01031937D02*
X02695332Y01031937D01*
X02848782Y00972388D02*
X02845345Y00902577D01*
X02845745Y00893429D01*
X02875393Y00863947D02*
X02999188Y00863947D01*
X02999188Y00887945D02*
X02887556Y00887945D01*
X02883332Y00911944D02*
X02999188Y00911944D01*
X02999188Y00839948D02*
X01877140Y00839948D01*
X01901138Y00815950D02*
X02999188Y00815950D01*
X03305835Y00591555D02*
X03302938Y00586538D01*
X03301439Y00580943D01*
X03301439Y00549314D01*
X03348233Y00549314D01*
X03348233Y00547723D01*
X03301439Y00547723D01*
X03301439Y00516095D01*
X03302938Y00510500D01*
X03305835Y00505483D01*
X03309931Y00501387D01*
X03314947Y00498491D01*
X03320543Y00496991D01*
X03348234Y00496991D01*
X03348234Y00547723D01*
X03349825Y00547723D01*
X03349825Y00496991D01*
X03377516Y00496991D01*
X03383112Y00498491D01*
X03387769Y00501180D01*
X03389958Y00498991D01*
X03457707Y00498991D01*
X03469423Y00510707D01*
X03469423Y00516519D01*
X03482319Y00516519D01*
X03482319Y00505347D01*
X03489685Y00497982D01*
X03463537Y00497982D01*
X03441716Y00488943D01*
X03425015Y00472242D01*
X03415977Y00450421D01*
X03415977Y00426802D01*
X03425015Y00404981D01*
X03441716Y00388280D01*
X03463537Y00379242D01*
X03565896Y00379242D01*
X03587717Y00388280D01*
X03604418Y00404981D01*
X03613457Y00426802D01*
X03613457Y00450421D01*
X03604418Y00472242D01*
X03587717Y00488943D01*
X03574416Y00494453D01*
X03585311Y00505347D01*
X03585311Y00592900D01*
X03573595Y00604616D01*
X03494035Y00604616D01*
X03482319Y00592900D01*
X03482319Y00580519D01*
X03469423Y00580519D01*
X03469423Y00586331D01*
X03457707Y00598046D01*
X03389958Y00598046D01*
X03387769Y00595858D01*
X03383112Y00598547D01*
X03377516Y00600046D01*
X03349825Y00600046D01*
X03349825Y00549315D01*
X03348234Y00549315D01*
X03348234Y00600046D01*
X03320543Y00600046D01*
X03314947Y00598547D01*
X03309931Y00595651D01*
X03305835Y00591555D01*
X03301439Y00575965D02*
X01739543Y00575965D01*
X01736039Y00599963D02*
X01859305Y00599963D01*
X01847734Y00623962D02*
X01708547Y00623962D01*
X01697732Y00583185D02*
X01533442Y00747476D01*
X01095444Y00747476D01*
X01060530Y00782390D01*
X01039534Y00748788D02*
X01082284Y00706038D01*
X01500836Y00706038D01*
X01693700Y00513173D01*
X01693700Y00502468D01*
X01735511Y00503969D02*
X03307348Y00503969D01*
X03301439Y00527968D02*
X01727329Y00527968D01*
X01725643Y00551966D02*
X03301439Y00551966D01*
X03348234Y00551966D02*
X03349825Y00551966D01*
X03349825Y00527968D02*
X03348234Y00527968D01*
X03348234Y00503969D02*
X03349825Y00503969D01*
X03418276Y00455972D02*
X01375708Y00455972D01*
X01381769Y00431973D02*
X03415977Y00431973D01*
X03423775Y00407975D02*
X01377343Y00407975D01*
X01359356Y00383976D02*
X03452107Y00383976D01*
X03439907Y00335979D02*
X03592683Y00335979D01*
X03576544Y00311981D02*
X03455154Y00311981D01*
X03458498Y00287982D02*
X03573063Y00287982D01*
X03573063Y00263984D02*
X03458498Y00263984D01*
X03458498Y00239985D02*
X03573063Y00239985D01*
X03573063Y00215987D02*
X03458498Y00215987D01*
X03454755Y00191988D02*
X03576885Y00191988D01*
X03687980Y00191988D02*
X03880008Y00191988D01*
X03880008Y00215987D02*
X03691803Y00215987D01*
X03691803Y00239985D02*
X03880008Y00239985D01*
X03880008Y00263984D02*
X03691803Y00263984D01*
X03691803Y00287982D02*
X03880008Y00287982D01*
X03880008Y00311981D02*
X03688321Y00311981D01*
X03672182Y00335979D02*
X03880008Y00335979D01*
X03880008Y00359978D02*
X01364048Y00359978D01*
X01371769Y00335979D02*
X02372228Y00335979D01*
X02423820Y00335979D02*
X02636680Y00335979D01*
X02635716Y00335015D02*
X02629351Y00319647D01*
X02629351Y00303014D01*
X02635716Y00287647D01*
X02647477Y00275885D01*
X02662845Y00269520D01*
X02679478Y00269520D01*
X02694845Y00275885D01*
X02706607Y00287647D01*
X02712972Y00303014D01*
X02712972Y00319647D01*
X02706607Y00335015D01*
X02694845Y00346776D01*
X02679478Y00353142D01*
X02662845Y00353142D01*
X02647477Y00346776D01*
X02635716Y00335015D01*
X02629351Y00311981D02*
X02439413Y00311981D01*
X02437206Y00287982D02*
X02635577Y00287982D01*
X02686926Y00263984D02*
X02484753Y00263984D01*
X02503480Y00239985D02*
X02560083Y00239985D01*
X02543000Y00215987D02*
X02503808Y00215987D01*
X02486666Y00191988D02*
X02543000Y00191988D01*
X02575000Y00209647D02*
X02575000Y00100000D01*
X02575000Y00209647D02*
X02578228Y00212876D01*
X02683005Y00212876D01*
X02775000Y00210152D02*
X02775000Y00100000D01*
X02994667Y00191988D02*
X03339501Y00191988D01*
X03310434Y00215987D02*
X03310432Y00215987D01*
X03310432Y00239985D02*
X03310434Y00239985D01*
X03310433Y00250000D02*
X03313031Y00252598D01*
X03397128Y00252598D01*
X03397127Y00263984D02*
X03397128Y00263984D01*
X03397127Y00287982D02*
X03397128Y00287982D01*
X03397127Y00311981D02*
X03397128Y00311981D01*
X03397127Y00335979D02*
X03397128Y00335979D01*
X03354348Y00335979D02*
X03118627Y00335979D01*
X03122706Y00311981D02*
X03339102Y00311981D01*
X03310434Y00287982D02*
X03310432Y00287982D01*
X03310432Y00263984D02*
X03310434Y00263984D01*
X03277933Y00287982D02*
X03269239Y00287982D01*
X03239567Y00250000D02*
X03150000Y00250000D01*
X03110536Y00263984D02*
X03066662Y00263984D01*
X03042664Y00239985D02*
X03108892Y00239985D01*
X03124883Y00215987D02*
X03018665Y00215987D01*
X03110192Y00287982D02*
X03132440Y00287982D01*
X03167560Y00287982D02*
X03209895Y00287982D01*
X03205926Y00215987D02*
X03175116Y00215987D01*
X03273208Y00215987D02*
X03275281Y00215987D01*
X03035463Y00311981D02*
X03013586Y00311981D01*
X03043163Y00335979D02*
X02705642Y00335979D01*
X02712972Y00311981D02*
X02735514Y00311981D01*
X02710924Y00287982D02*
X02706746Y00287982D01*
X02463359Y00227590D02*
X01846326Y00227590D01*
X01817272Y00198536D01*
X01817272Y00107728D01*
X01817274Y00107541D01*
X01817281Y00107355D01*
X01817292Y00107168D01*
X01817308Y00106982D01*
X01817328Y00106796D01*
X01817353Y00106611D01*
X01817382Y00106427D01*
X01817416Y00106243D01*
X01817454Y00106060D01*
X01817497Y00105879D01*
X01817543Y00105698D01*
X01817595Y00105518D01*
X01817650Y00105340D01*
X01817710Y00105163D01*
X01817774Y00104988D01*
X01817843Y00104814D01*
X01817915Y00104642D01*
X01817992Y00104471D01*
X01818072Y00104303D01*
X01818157Y00104137D01*
X01818246Y00103972D01*
X01818339Y00103810D01*
X01818435Y00103650D01*
X01818536Y00103493D01*
X01818640Y00103338D01*
X01818748Y00103186D01*
X01818860Y00103036D01*
X01818975Y00102889D01*
X01819093Y00102745D01*
X01819216Y00102603D01*
X01819341Y00102465D01*
X01819470Y00102330D01*
X01819602Y00102198D01*
X01819737Y00102069D01*
X01819875Y00101944D01*
X01820017Y00101821D01*
X01820161Y00101703D01*
X01820308Y00101588D01*
X01820458Y00101476D01*
X01820610Y00101368D01*
X01820765Y00101264D01*
X01820922Y00101163D01*
X01821082Y00101067D01*
X01821244Y00100974D01*
X01821409Y00100885D01*
X01821575Y00100800D01*
X01821743Y00100720D01*
X01821914Y00100643D01*
X01822086Y00100571D01*
X01822260Y00100502D01*
X01822435Y00100438D01*
X01822612Y00100378D01*
X01822790Y00100323D01*
X01822970Y00100271D01*
X01823151Y00100225D01*
X01823332Y00100182D01*
X01823515Y00100144D01*
X01823699Y00100110D01*
X01823883Y00100081D01*
X01824068Y00100056D01*
X01824254Y00100036D01*
X01824440Y00100020D01*
X01824627Y00100009D01*
X01824813Y00100002D01*
X01825000Y00100000D01*
X01725000Y00100000D02*
X01725000Y00191004D01*
X01814852Y00280856D01*
X02376234Y00280856D01*
X02398024Y00302646D01*
X02413942Y00263984D02*
X02441964Y00263984D01*
X02440051Y00191988D02*
X01855979Y00191988D01*
X01752725Y00263984D02*
X01371396Y00263984D01*
X01381769Y00239985D02*
X01728727Y00239985D01*
X01704728Y00215987D02*
X01380661Y00215987D01*
X01367368Y00191988D02*
X01693000Y00191988D01*
X01776724Y00287982D02*
X01353362Y00287982D01*
X01369002Y00311981D02*
X01806375Y00311981D01*
X01787723Y00298982D02*
X01787723Y00298982D01*
X01729637Y00479970D02*
X03432743Y00479970D01*
X03462685Y00503969D02*
X03483697Y00503969D01*
X03533815Y00548519D02*
X03423833Y00548519D01*
X03377827Y00599963D02*
X03489382Y00599963D01*
X03533815Y00549124D02*
X03533815Y00548519D01*
X03585311Y00551966D02*
X03594288Y00551966D01*
X03594288Y00527968D02*
X03585311Y00527968D01*
X03583933Y00503969D02*
X03595666Y00503969D01*
X03594288Y00505347D02*
X03606003Y00493632D01*
X03685564Y00493632D01*
X03697280Y00505347D01*
X03697280Y00517124D01*
X03703761Y00517124D01*
X03707201Y00513683D01*
X03722569Y00507318D01*
X03739202Y00507318D01*
X03754569Y00513683D01*
X03766331Y00525445D01*
X03772696Y00540812D01*
X03772696Y00557446D01*
X03766331Y00572813D01*
X03754569Y00584575D01*
X03739202Y00590940D01*
X03722569Y00590940D01*
X03707201Y00584575D01*
X03703750Y00581124D01*
X03697280Y00581124D01*
X03697280Y00592900D01*
X03685564Y00604616D01*
X03606003Y00604616D01*
X03594288Y00592900D01*
X03594288Y00505347D01*
X03596690Y00479970D02*
X03880008Y00479970D01*
X03880008Y00455972D02*
X03611158Y00455972D01*
X03613457Y00431973D02*
X03880008Y00431973D01*
X03880008Y00407975D02*
X03605658Y00407975D01*
X03577326Y00383976D02*
X03880008Y00383976D01*
X03880008Y00503969D02*
X03695901Y00503969D01*
X03767376Y00527968D02*
X03880008Y00527968D01*
X03880008Y00551966D02*
X03772696Y00551966D01*
X03763180Y00575965D02*
X03880008Y00575965D01*
X03880008Y00599963D02*
X03690217Y00599963D01*
X03730885Y00549129D02*
X03730885Y00549124D01*
X03645784Y00549124D01*
X03594288Y00575965D02*
X03585311Y00575965D01*
X03578248Y00599963D02*
X03601351Y00599963D01*
X03880008Y00623962D02*
X01933234Y00623962D01*
X01923541Y00599963D02*
X03320232Y00599963D01*
X03348234Y00599963D02*
X03349825Y00599963D01*
X03349825Y00575965D02*
X03348234Y00575965D01*
X03855783Y00875287D02*
X03858430Y00872640D01*
X03807783Y00887945D02*
X03722732Y00887945D01*
X03724819Y00911944D02*
X03807783Y00911944D01*
X03807783Y00935942D02*
X03795324Y00935942D01*
X03774254Y00960128D02*
X03855783Y01041656D01*
X03807783Y01055935D02*
X03724819Y01055935D01*
X03724819Y01079934D02*
X03807783Y01079934D01*
X03807783Y01103932D02*
X03724819Y01103932D01*
X03724819Y01127931D02*
X03807783Y01127931D01*
X03807783Y01151929D02*
X03724819Y01151929D01*
X03724819Y01175928D02*
X03807783Y01175928D01*
X03807783Y01199926D02*
X03724819Y01199926D01*
X03724819Y01223925D02*
X03807783Y01223925D01*
X03807783Y01247923D02*
X03724819Y01247923D01*
X03724819Y01271922D02*
X03742944Y01271922D01*
X03779218Y01271922D02*
X03807783Y01271922D01*
X03807783Y01295920D02*
X03800644Y01295920D01*
X03802090Y01319919D02*
X03807783Y01319919D01*
X03807783Y01343917D02*
X03785959Y01343917D01*
X03807783Y01367916D02*
X03724819Y01367916D01*
X03724819Y01343917D02*
X03736203Y01343917D01*
X03760618Y01310128D02*
X03761081Y01309665D01*
X03760618Y01310128D02*
X03661512Y01310128D01*
X03598205Y01343917D02*
X03574921Y01343917D01*
X03713128Y01391914D02*
X03807783Y01391914D01*
X03807783Y01463910D02*
X03616144Y01463910D01*
X03570554Y01497128D02*
X03699287Y01497128D01*
X03855783Y01653624D01*
X03807783Y01559904D02*
X03807317Y01559904D01*
X03807783Y01535906D02*
X03783319Y01535906D01*
X03759320Y01511907D02*
X03807783Y01511907D01*
X03807783Y01487908D02*
X03735322Y01487908D01*
X03692810Y01535906D02*
X03615178Y01535906D01*
X03495750Y01611443D02*
X03466488Y01640705D01*
X03333252Y01535906D02*
X03331661Y01535906D01*
X03331661Y01511907D02*
X03333252Y01511907D01*
X03333252Y01487908D02*
X03331661Y01487908D01*
X03331661Y01463910D02*
X03333252Y01463910D01*
X03193973Y01883131D02*
X03191069Y01886034D01*
X03144738Y01884316D02*
X03143020Y01886034D01*
X02171977Y01367916D02*
X02149509Y01367916D01*
X02147978Y01343917D02*
X02125511Y01343917D01*
X02123980Y01319919D02*
X02117469Y01319919D01*
X02211747Y01271922D02*
X02221533Y01271922D01*
X02210654Y01247923D02*
X02187748Y01247923D01*
X02163750Y01223925D02*
X02213910Y01223925D01*
X02233512Y01199926D02*
X02139751Y01199926D01*
X02117469Y01175928D02*
X02223964Y01175928D01*
X02210654Y01151929D02*
X02117469Y01151929D01*
X02117469Y01127931D02*
X02212903Y01127931D01*
X02303837Y01127931D02*
X02449128Y01127931D01*
X02446879Y01151929D02*
X02306087Y01151929D01*
X02292776Y01175928D02*
X02460189Y01175928D01*
X02469737Y01199926D02*
X02283229Y01199926D01*
X02258370Y01241278D02*
X02324478Y01241278D01*
X02378785Y01295585D01*
X02433093Y01241278D01*
X02494595Y01241278D01*
X02405191Y01223925D02*
X02352380Y01223925D01*
X02376378Y01247923D02*
X02381192Y01247923D01*
X02333866Y01295920D02*
X02278100Y01295920D01*
X02302130Y01319919D02*
X02343990Y01319919D01*
X02085741Y01439911D02*
X01657299Y01439911D01*
X01647983Y01449228D02*
X01647983Y01449228D01*
X01620855Y01431101D02*
X01390418Y01431101D01*
X01359674Y01461845D01*
X01360351Y01415913D02*
X01091518Y01415913D01*
X01103028Y01391914D02*
X01511607Y01391914D01*
X01499916Y01367916D02*
X01114719Y01367916D01*
X01114719Y01343917D02*
X01134126Y01343917D01*
X01114756Y01319919D02*
X01114719Y01319919D01*
X01051709Y01310128D02*
X01051709Y01330416D01*
X01051709Y01310128D02*
X01051412Y01310128D01*
X01051412Y01360128D02*
X01051412Y01387840D01*
X01186137Y01511907D02*
X00765583Y01511907D01*
X00765583Y01535906D02*
X01188074Y01535906D01*
X01232932Y01535906D02*
X01234523Y01535906D01*
X01234523Y01511907D02*
X01232932Y01511907D01*
X01232932Y01487908D02*
X01234523Y01487908D01*
X01234523Y01463910D02*
X01232932Y01463910D01*
X01326052Y01559904D02*
X00755201Y01559904D01*
X00717263Y01583406D02*
X00717263Y01512918D01*
X00706213Y01501868D01*
X00646843Y01511907D02*
X00611900Y01511907D01*
X00611900Y01487908D02*
X00646843Y01487908D01*
X00646843Y01463910D02*
X00611900Y01463910D01*
X00558215Y01463910D02*
X00542845Y01463910D01*
X00542845Y01487908D02*
X00558215Y01487908D01*
X00558215Y01511907D02*
X00542845Y01511907D01*
X00542845Y01535906D02*
X00558215Y01535906D01*
X00558215Y01559904D02*
X00542845Y01559904D01*
X00499490Y01559904D02*
X00417876Y01559904D01*
X00441875Y01583903D02*
X00675452Y01583903D01*
X00682628Y01607901D02*
X00465873Y01607901D01*
X00481997Y01631900D02*
X01048612Y01631900D01*
X01079459Y01631900D02*
X01128733Y01631900D01*
X01164036Y01643974D02*
X01164036Y01677207D01*
X01164036Y01777419D01*
X01163881Y01777574D01*
X01163881Y01877979D01*
X01171936Y01886034D01*
X01019585Y01823888D02*
X00575413Y01823888D01*
X00551414Y01799889D02*
X01007286Y01799889D01*
X01007024Y01775891D02*
X00527416Y01775891D01*
X00503417Y01751892D02*
X01018952Y01751892D01*
X01024112Y01727894D02*
X00483735Y01727894D01*
X00483735Y01703895D02*
X01009252Y01703895D01*
X01007036Y01679897D02*
X00483735Y01679897D01*
X00483735Y01655898D02*
X01015308Y01655898D01*
X01199338Y01631900D02*
X01248612Y01631900D01*
X01279459Y01631900D02*
X01363841Y01631900D01*
X01351504Y01607901D02*
X00751897Y01607901D01*
X00759074Y01583903D02*
X01350050Y01583903D01*
X01416561Y01559904D02*
X01489298Y01559904D01*
X01471777Y01497128D02*
X01552558Y01577909D01*
X01552558Y01873937D01*
X01564656Y01886034D01*
X01389998Y01886034D02*
X01364673Y01860710D01*
X01584558Y01655898D02*
X02039419Y01655898D01*
X02018954Y01631900D02*
X01584558Y01631900D01*
X01584558Y01607901D02*
X02017906Y01607901D01*
X02026099Y01583903D02*
X01584558Y01583903D01*
X01579737Y01559904D02*
X01848753Y01559904D01*
X01846914Y01558843D02*
X01851931Y01561739D01*
X01857526Y01563238D01*
X01892108Y01563238D01*
X01892108Y01509554D01*
X01907478Y01509554D01*
X01907478Y01563238D01*
X01942059Y01563238D01*
X01947655Y01561739D01*
X01952671Y01558843D01*
X01956767Y01554746D01*
X01959664Y01549730D01*
X01961163Y01544134D01*
X01961163Y01509553D01*
X01907479Y01509553D01*
X01907479Y01494183D01*
X01961163Y01494183D01*
X01961163Y01459602D01*
X01959664Y01454006D01*
X01956767Y01448990D01*
X01952671Y01444894D01*
X01947655Y01441997D01*
X01942059Y01440498D01*
X01907478Y01440498D01*
X01907478Y01494182D01*
X01892108Y01494182D01*
X01892108Y01440498D01*
X01857526Y01440498D01*
X01851931Y01441997D01*
X01846914Y01444894D01*
X01842818Y01448990D01*
X01839922Y01454006D01*
X01838423Y01459602D01*
X01838423Y01494183D01*
X01892107Y01494183D01*
X01892107Y01509553D01*
X01838423Y01509553D01*
X01838423Y01544134D01*
X01839922Y01549730D01*
X01842818Y01554746D01*
X01846914Y01558843D01*
X01838423Y01535906D02*
X01555809Y01535906D01*
X01531811Y01511907D02*
X01838423Y01511907D01*
X01838423Y01487908D02*
X01517367Y01487908D01*
X01517367Y01463910D02*
X01838423Y01463910D01*
X01892108Y01463910D02*
X01907478Y01463910D01*
X01907478Y01487908D02*
X01892108Y01487908D01*
X01892108Y01511907D02*
X01907478Y01511907D01*
X01907478Y01535906D02*
X01892108Y01535906D01*
X01892108Y01559904D02*
X01907478Y01559904D01*
X01950833Y01559904D02*
X02009111Y01559904D01*
X01998729Y01535906D02*
X01961163Y01535906D01*
X01961163Y01511907D02*
X01998729Y01511907D01*
X01998729Y01487908D02*
X01961163Y01487908D01*
X01961163Y01463910D02*
X01998729Y01463910D01*
X02058099Y01501868D02*
X02058099Y01618019D01*
X02058716Y01618635D01*
X02061742Y01415913D02*
X01681298Y01415913D01*
X01697409Y01391914D02*
X01840423Y01391914D01*
X01840423Y01367916D02*
X01697409Y01367916D01*
X01697409Y01343917D02*
X01831440Y01343917D01*
X01807442Y01319919D02*
X01697409Y01319919D01*
X01665409Y01311202D02*
X01665409Y01386547D01*
X01620855Y01431101D01*
X01499916Y01343917D02*
X01489628Y01343917D01*
X01563223Y01310128D02*
X01564297Y01311202D01*
X01665409Y01311202D01*
X01653118Y01249716D02*
X01613530Y01210128D01*
X01563223Y01210128D01*
X01563223Y01160128D02*
X01656191Y01160128D01*
X01656191Y01175932D01*
X01782422Y01127931D02*
X01833848Y01127931D01*
X01840423Y01103932D02*
X01806421Y01103932D01*
X01820692Y01079934D02*
X01842703Y01079934D01*
X01462000Y01064306D02*
X01455693Y01067491D01*
X01358917Y01067491D02*
X01307318Y01119090D01*
X01307318Y01135128D01*
X01307318Y01042409D01*
X01316686Y01033040D01*
X01352440Y00977042D01*
X01461035Y00975748D02*
X01463943Y00978691D01*
X01457443Y01148344D02*
X01458502Y01150801D01*
X01461083Y01219967D02*
X01458891Y01223905D01*
X01374367Y01220929D02*
X01335209Y01181772D01*
X01307318Y01147079D01*
X01307318Y01135128D01*
X01120014Y01103932D02*
X01116719Y01103932D01*
X01114719Y01079934D02*
X01125092Y01079934D01*
X01051412Y01210128D02*
X00797131Y01209949D01*
X00646887Y01079934D02*
X00604162Y01079934D01*
X00489982Y01079934D02*
X00384965Y01079934D01*
X00380020Y01102400D02*
X00393442Y01115823D01*
X00400707Y01133361D01*
X00400707Y01152344D01*
X00393442Y01169882D01*
X00380020Y01183304D01*
X00362482Y01190569D01*
X00343499Y01190569D01*
X00325961Y01183304D01*
X00312538Y01169882D01*
X00305274Y01152344D01*
X00305274Y01133361D01*
X00312538Y01115823D01*
X00325961Y01102400D01*
X00343499Y01095136D01*
X00362482Y01095136D01*
X00380020Y01102400D01*
X00381551Y01103932D02*
X00487702Y01103932D01*
X00487702Y01127931D02*
X00398457Y01127931D01*
X00400707Y01151929D02*
X00487702Y01151929D01*
X00487702Y01175928D02*
X00387396Y01175928D01*
X00377849Y01199926D02*
X00471435Y01199926D01*
X00447436Y01223925D02*
X00397450Y01223925D01*
X00400707Y01247923D02*
X00423438Y01247923D01*
X00399439Y01271922D02*
X00389827Y01271922D01*
X00352990Y01241278D02*
X00344693Y01249575D01*
X00103981Y01249575D01*
X00151981Y01295920D02*
X00332715Y01295920D01*
X00309235Y01319919D02*
X00151981Y01319919D01*
X00151981Y01343917D02*
X00304646Y01343917D01*
X00313722Y01367916D02*
X00151981Y01367916D01*
X00151981Y01391914D02*
X00339415Y01391914D01*
X00310331Y01415913D02*
X00151981Y01415913D01*
X00151981Y01439911D02*
X00304934Y01439911D01*
X00311494Y01463910D02*
X00151981Y01463910D01*
X00151981Y01487908D02*
X00426840Y01487908D01*
X00465337Y01487908D02*
X00489160Y01487908D01*
X00489160Y01511907D02*
X00151981Y01511907D01*
X00165776Y01535906D02*
X00489160Y01535906D01*
X00601570Y01559904D02*
X00657225Y01559904D01*
X00646843Y01535906D02*
X00611900Y01535906D01*
X00435023Y01391914D02*
X00428231Y01391914D01*
X00439209Y01367916D02*
X00459050Y01367916D01*
X00441507Y01365618D02*
X00441507Y01365618D01*
X00463207Y01343917D02*
X00483078Y01343917D01*
X00487206Y01319919D02*
X00491160Y01319919D01*
X00328132Y01199926D02*
X00151981Y01199926D01*
X00151981Y01175928D02*
X00318584Y01175928D01*
X00305274Y01151929D02*
X00151981Y01151929D01*
X00151981Y01127931D02*
X00307523Y01127931D01*
X00324429Y01103932D02*
X00151981Y01103932D01*
X00151981Y01079934D02*
X00321016Y01079934D01*
X00306109Y01055935D02*
X00151981Y01055935D01*
X00151981Y01031937D02*
X00306516Y01031937D01*
X00321998Y01007938D02*
X00151981Y01007938D01*
X00151981Y00983939D02*
X00323447Y00983939D01*
X00325961Y00986454D02*
X00312538Y00973031D01*
X00305274Y00955493D01*
X00305274Y00936510D01*
X00312538Y00918973D01*
X00325961Y00905550D01*
X00343499Y00898285D01*
X00362482Y00898285D01*
X00380020Y00905550D01*
X00393442Y00918973D01*
X00400707Y00936510D01*
X00400707Y00955493D01*
X00393442Y00973031D01*
X00380020Y00986454D01*
X00362482Y00993718D01*
X00343499Y00993718D01*
X00325961Y00986454D01*
X00307116Y00959941D02*
X00151981Y00959941D01*
X00151981Y00935942D02*
X00305509Y00935942D01*
X00319567Y00911944D02*
X00151981Y00911944D01*
X00151981Y00791951D02*
X00900100Y00791951D01*
X00906569Y00767953D02*
X00151981Y00767953D01*
X00151981Y00743954D02*
X00930567Y00743954D01*
X00954566Y00719956D02*
X00151981Y00719956D01*
X00151981Y00695957D02*
X00978564Y00695957D01*
X01001886Y00671959D02*
X00151981Y00671959D01*
X00174511Y00647960D02*
X01020904Y00647960D01*
X01032536Y00681584D02*
X01057136Y00656984D01*
X01474622Y00656984D01*
X01617379Y00514226D01*
X01621923Y00514226D01*
X01580916Y00503969D02*
X00318502Y00503969D01*
X00294504Y00527968D02*
X01558383Y00527968D01*
X01534385Y00551966D02*
X00270505Y00551966D01*
X00246507Y00575965D02*
X01510386Y00575965D01*
X01486388Y00599963D02*
X00222508Y00599963D01*
X00198510Y00623962D02*
X01462389Y00623962D01*
X01500836Y00706038D02*
X01499397Y00707476D01*
X01734648Y00719956D02*
X01751740Y00719956D01*
X01738886Y00695957D02*
X01775739Y00695957D01*
X01799737Y00671959D02*
X01746267Y00671959D01*
X01740062Y00647960D02*
X01823736Y00647960D01*
X01889976Y00626975D02*
X01891423Y00626975D01*
X01889976Y00626975D02*
X01756054Y00760897D01*
X01899644Y00690849D02*
X01903182Y00690849D01*
X01657762Y00479970D02*
X01646797Y00479970D01*
X01597049Y00479970D02*
X01353078Y00479970D01*
X01296461Y00479970D02*
X01253078Y00479970D01*
X01196461Y00479970D02*
X01153078Y00479970D01*
X01096461Y00479970D02*
X01053078Y00479970D01*
X00996461Y00479970D02*
X00342501Y00479970D01*
X00366499Y00455972D02*
X00973831Y00455972D01*
X00967769Y00431973D02*
X00752755Y00431973D01*
X00760383Y00407975D02*
X00972196Y00407975D01*
X00990183Y00383976D02*
X00755411Y00383976D01*
X00723412Y00402187D02*
X00718573Y00407026D01*
X00723412Y00402187D02*
X00723412Y00353591D01*
X00723412Y00348000D01*
X00676762Y00407975D02*
X00414496Y00407975D01*
X00390498Y00431973D02*
X00684390Y00431973D01*
X00465838Y00383976D02*
X00438495Y00383976D01*
X00439555Y00099988D02*
X00325044Y00099988D01*
X00427067Y00100000D02*
X00439555Y00099988D01*
X00497933Y00100000D02*
X00550000Y00100000D01*
X01025000Y00100000D02*
X01025000Y00168000D01*
X01024769Y00230000D01*
X01124769Y00230000D02*
X01125000Y00168000D01*
X01125000Y00100000D01*
X01225000Y00100000D02*
X01225000Y00168000D01*
X01224769Y00230000D01*
X01324769Y00230000D02*
X01325000Y00168000D01*
X01325000Y00100000D01*
X00501349Y00911944D02*
X00386414Y00911944D01*
X00400471Y00935942D02*
X00485702Y00935942D01*
X00485702Y00959941D02*
X00398865Y00959941D01*
X00382534Y00983939D02*
X00485702Y00983939D01*
X00485702Y01007938D02*
X00383983Y01007938D01*
X00559919Y01876276D02*
X00559919Y01935760D01*
X00503789Y01991890D01*
X00498872Y01991890D01*
X00424069Y01991890D02*
X00421616Y01989437D01*
X00336834Y01989437D01*
X02494434Y01044588D02*
X02494595Y01044427D01*
X03598388Y00935942D02*
X03602295Y00935942D01*
X03661512Y00960128D02*
X03774254Y00960128D01*
X03776810Y01007938D02*
X03724819Y01007938D01*
X03723106Y01031937D02*
X03800808Y01031937D01*
D24*
X03558407Y01043268D02*
X03557240Y01044435D01*
X03452308Y01044435D01*
X03493703Y01040328D01*
X03416817Y01056816D01*
X03416817Y01043859D01*
X03378857Y01005898D01*
X03409163Y01005898D01*
X03445312Y00969749D01*
X03557241Y00969749D01*
X03493703Y01040328D02*
X03405607Y01091136D01*
X03405607Y01135128D01*
X03366856Y01218775D01*
X03259000Y01218775D01*
X03258028Y01300416D02*
X03342564Y01300416D01*
X03412037Y01230943D01*
X03412037Y01193023D01*
X03432930Y01213916D01*
X03561191Y01213916D01*
X03557305Y01136163D02*
X03556270Y01135128D01*
X03405607Y01135128D01*
X03405607Y01186592D01*
X03412037Y01193023D01*
X03412037Y01230943D02*
X03412037Y01288266D01*
X03416412Y01292640D01*
X03560219Y01292640D01*
X03405607Y01135128D02*
X03262824Y01135128D01*
X03260943Y01133247D01*
X03364863Y01050270D02*
X03379428Y01064834D01*
X03416817Y01056816D01*
X03364863Y01050270D02*
X03264596Y01050270D01*
X03262262Y01047936D01*
X03257598Y00973250D02*
X03346209Y00973250D01*
X03378857Y01005898D01*
X01461035Y00975748D02*
X01352440Y00977042D01*
X01316686Y01027203D02*
X01279407Y00970167D01*
X01172173Y00969359D01*
X01160199Y00968972D01*
X01167000Y01046960D02*
X01283910Y01047932D01*
X01318743Y01081792D01*
X01309999Y01146603D01*
X01457443Y01148344D01*
X01455693Y01067491D02*
X01358917Y01067491D01*
X01339680Y01117759D02*
X01217449Y01128450D01*
X01167000Y01129227D01*
X01167000Y01213645D02*
X01343954Y01212478D01*
X01343954Y01252155D01*
X01324551Y01252155D01*
X01293043Y01283663D01*
X01197631Y01297478D01*
X01163308Y01298652D01*
X01343954Y01299610D02*
X01343954Y01252155D01*
X01350369Y01285617D02*
X01428487Y01295538D01*
X01460057Y01299819D01*
X01350369Y01285617D02*
X01343954Y01299610D01*
X01374367Y01220929D02*
X01461083Y01219967D01*
X01343954Y01212478D02*
X01335209Y01181772D01*
X01309999Y01146603D02*
X01318628Y01134942D01*
X01318628Y01130712D01*
X01339680Y01117759D01*
X01318628Y01134942D02*
X01307318Y01135128D01*
X01316686Y01033040D02*
X01316686Y01027203D01*
D25*
X00723412Y00353591D02*
X00747002Y00330000D01*
X01014769Y00330000D01*
X00723412Y00348000D02*
X00473056Y00348000D01*
X00471321Y00346265D01*
X00408324Y00346265D01*
X00403215Y00351375D01*
X00325044Y00199988D02*
X00225044Y00199988D01*
X00325044Y00199988D02*
X00325044Y00099988D01*
X00325101Y01699961D02*
X00225101Y01699961D01*
X00325101Y01699961D02*
X00330255Y01705115D01*
X00330255Y01800505D01*
X00225101Y01989201D02*
X00224866Y01989437D01*
D26*
X00550000Y00100000D03*
D27*
X01014769Y00330000D02*
X01114769Y00330000D01*
X01214769Y00330000D01*
X01314769Y00330000D01*
D28*
X01032536Y00681584D02*
X00928100Y00786020D01*
X00928100Y01059605D01*
X00928622Y01060128D01*
X01051412Y01060128D01*
X01051412Y01010128D02*
X00953287Y01010128D01*
X00952585Y01009426D01*
X00952585Y00835737D01*
X01039534Y00748788D01*
X01060530Y00782390D02*
X00980567Y00862352D01*
X00980567Y00960413D01*
X00980853Y00960128D01*
X01051412Y00960128D01*
X01563223Y00960128D02*
X01654773Y00960128D01*
X01655655Y00959246D01*
X01696655Y01010128D02*
X01563223Y01010128D01*
X01563223Y01060128D02*
X01718237Y01060128D01*
X01759105Y01019260D01*
X01759105Y00763948D01*
X01756054Y00760897D01*
X01706648Y00673449D02*
X01704456Y00671257D01*
X01706648Y00673449D02*
X01706648Y01000134D01*
X01696655Y01010128D01*
X01792692Y01078063D02*
X01792692Y00884799D01*
X01910245Y00767245D01*
X01910245Y00697913D01*
X01903182Y00690849D01*
X01792692Y01078063D02*
X01760627Y01110128D01*
X01563223Y01110128D01*
X03007829Y00765597D02*
X03027188Y00784956D01*
X03027188Y01019989D01*
X03067327Y01060128D01*
X03149701Y01060128D01*
X03149701Y01010128D02*
X03076357Y01010128D01*
X03055634Y00989404D01*
X03055634Y00731839D01*
X03082838Y00704635D01*
X03147303Y00767245D02*
X03082779Y00836492D01*
X03082779Y00949930D01*
X03089604Y00960128D01*
X03149701Y00960128D01*
X03080895Y00317815D02*
X02973233Y00210152D01*
X02775000Y00210152D01*
X02750366Y00287826D02*
X02683005Y00220465D01*
X02683005Y00212876D01*
X02750366Y00287826D02*
X02978611Y00287826D01*
M02*
