G75*
%MOIN*%
%OFA0B0*%
%FSLAX26Y26*%
%IPPOS*%
%LPD*%
%AMOC8*
5,1,8,0,0,1.08239X$1,22.5*
%
%ADD10C,0.060000*%
%ADD11C,0.078740*%
%ADD12C,0.055433*%
%ADD13C,0.074000*%
%ADD14OC8,0.060000*%
%ADD15C,0.024000*%
%ADD16C,0.043622*%
%ADD17C,0.056000*%
%ADD18C,0.066000*%
%ADD19C,0.033780*%
%ADD20C,0.016000*%
D10*
X00625000Y00070000D02*
X00625000Y00130000D01*
X00725000Y00130000D02*
X00725000Y00070000D01*
X00825000Y00070000D02*
X00825000Y00130000D01*
X00925000Y00130000D02*
X00925000Y00070000D01*
X01025000Y00070000D02*
X01025000Y00130000D01*
X01125000Y00130000D02*
X01125000Y00070000D01*
X01225000Y00070000D02*
X01225000Y00130000D01*
X01325000Y00130000D02*
X01325000Y00070000D01*
X01525000Y00070000D02*
X01525000Y00130000D01*
X01625000Y00130000D02*
X01625000Y00070000D01*
X01725000Y00070000D02*
X01725000Y00130000D01*
X01825000Y00130000D02*
X01825000Y00070000D01*
X01925000Y00070000D02*
X01925000Y00130000D01*
X02025000Y00130000D02*
X02025000Y00070000D01*
X02125000Y00070000D02*
X02125000Y00130000D01*
X02225000Y00130000D02*
X02225000Y00070000D01*
X02375000Y00070000D02*
X02375000Y00130000D01*
X02475000Y00130000D02*
X02475000Y00070000D01*
X02575000Y00070000D02*
X02575000Y00130000D01*
X02675000Y00130000D02*
X02675000Y00070000D01*
X02775000Y00070000D02*
X02775000Y00130000D01*
X02875000Y00130000D02*
X02875000Y00070000D01*
X02975000Y00070000D02*
X02975000Y00130000D01*
X03075000Y00130000D02*
X03075000Y00070000D01*
X02025000Y01970000D02*
X02025000Y02030000D01*
X01925000Y02030000D02*
X01925000Y01970000D01*
X01825000Y01970000D02*
X01825000Y02030000D01*
X01725000Y02030000D02*
X01725000Y01970000D01*
X01625000Y01970000D02*
X01625000Y02030000D01*
X01525000Y02030000D02*
X01525000Y01970000D01*
X01425000Y01970000D02*
X01425000Y02030000D01*
X01325000Y02030000D02*
X01325000Y01970000D01*
D11*
X03475347Y00438612D02*
X03554087Y00438612D01*
X03632433Y00291767D02*
X03632433Y00213027D01*
X03397128Y00213228D02*
X03397128Y00291969D01*
D12*
X02494595Y00946002D03*
X02494595Y01044427D03*
X02494595Y01142852D03*
X02494595Y01241278D03*
X02494595Y01339703D03*
X02494595Y01438128D03*
X02258370Y01438128D03*
X02258370Y01339703D03*
X02258370Y01241278D03*
X02258370Y01142852D03*
X02258370Y01044427D03*
X02258370Y00946002D03*
X00352990Y00946002D03*
X00352990Y01044427D03*
X00352990Y01142852D03*
X00352990Y01241278D03*
X00352990Y01339703D03*
X00352990Y01438128D03*
D13*
X01064036Y01687207D03*
X01164036Y01677207D03*
X01264036Y01687207D03*
X01263881Y01787574D03*
X01163881Y01777574D03*
X01063881Y01787574D03*
X01024769Y00430000D03*
X01124769Y00430000D03*
X01224769Y00430000D03*
X01324769Y00430000D03*
X01314769Y00330000D03*
X01214769Y00330000D03*
X01114769Y00330000D03*
X01014769Y00330000D03*
X01024769Y00230000D03*
X01124769Y00230000D03*
X01224769Y00230000D03*
X01324769Y00230000D03*
D14*
X00325044Y00199988D03*
X00225044Y00199988D03*
X00225044Y00099988D03*
X00325044Y00099988D03*
X00325101Y01699961D03*
X00225101Y01699961D03*
X00225101Y01799961D03*
X00325101Y01799961D03*
D15*
X00182000Y00172321D02*
X00182000Y00127654D01*
X00204333Y00149988D01*
X00245754Y00149988D01*
X00275044Y00179277D01*
X00304333Y00149988D01*
X00345754Y00149988D01*
X00375044Y00179277D01*
X00375044Y00220698D01*
X00345754Y00249988D01*
X00304333Y00249988D01*
X00275044Y00220698D01*
X00275044Y00179277D01*
X00275044Y00220698D01*
X00245754Y00249988D01*
X00204333Y00249988D01*
X00182000Y00227654D01*
X00182000Y00511338D01*
X00173322Y00532288D01*
X00157288Y00548322D01*
X00082000Y00623610D01*
X00082000Y01968326D01*
X00147721Y02029614D01*
X01275000Y02029614D01*
X01275000Y01995255D01*
X01236752Y01957007D01*
X01231881Y01945246D01*
X01231881Y01836015D01*
X01231593Y01835896D01*
X01215558Y01819862D01*
X01211647Y01810418D01*
X01196169Y01825896D01*
X01175219Y01834574D01*
X01152543Y01834574D01*
X01131593Y01825896D01*
X01117667Y01811970D01*
X01114342Y01818497D01*
X01108883Y01826010D01*
X01102317Y01832576D01*
X01094804Y01838035D01*
X01086529Y01842251D01*
X01077697Y01845121D01*
X01068524Y01846574D01*
X01063881Y01846574D01*
X01063881Y01787575D01*
X01063880Y01787575D01*
X01063880Y01846574D01*
X01059237Y01846574D01*
X01050065Y01845121D01*
X01041233Y01842251D01*
X01032958Y01838035D01*
X01025445Y01832576D01*
X01018878Y01826010D01*
X01013419Y01818497D01*
X01009203Y01810222D01*
X01006334Y01801390D01*
X01004881Y01792217D01*
X01004881Y01787574D01*
X01063879Y01787574D01*
X01063879Y01787573D01*
X01004881Y01787573D01*
X01004881Y01782930D01*
X01006334Y01773758D01*
X01009203Y01764926D01*
X01013419Y01756651D01*
X01018878Y01749138D01*
X01025445Y01742571D01*
X01032653Y01737334D01*
X01025600Y01732210D01*
X01019033Y01725643D01*
X01013575Y01718130D01*
X01009359Y01709856D01*
X01006489Y01701023D01*
X01005036Y01691851D01*
X01005036Y01687208D01*
X01064035Y01687208D01*
X01064035Y01687207D01*
X01005036Y01687207D01*
X01005036Y01682564D01*
X01006489Y01673391D01*
X01009359Y01664559D01*
X01013575Y01656285D01*
X01019033Y01648771D01*
X01025600Y01642205D01*
X01033113Y01636746D01*
X01041388Y01632530D01*
X01050220Y01629660D01*
X01059392Y01628207D01*
X01064035Y01628207D01*
X01064035Y01687206D01*
X01064036Y01687206D01*
X01064036Y01628207D01*
X01068679Y01628207D01*
X01077852Y01629660D01*
X01086684Y01632530D01*
X01094959Y01636746D01*
X01102472Y01642205D01*
X01109039Y01648771D01*
X01112274Y01653224D01*
X01115714Y01644919D01*
X01131748Y01628885D01*
X01152698Y01620207D01*
X01175374Y01620207D01*
X01196324Y01628885D01*
X01212358Y01644919D01*
X01216270Y01654363D01*
X01231748Y01638885D01*
X01252698Y01630207D01*
X01275374Y01630207D01*
X01296324Y01638885D01*
X01312358Y01654919D01*
X01321036Y01675869D01*
X01321036Y01698545D01*
X01320916Y01698833D01*
X01443126Y01821043D01*
X01452128Y01830045D01*
X01457000Y01841806D01*
X01457000Y01931289D01*
X01467388Y01941677D01*
X01475000Y01960054D01*
X01482612Y01941677D01*
X01496677Y01927612D01*
X01515054Y01920000D01*
X01534946Y01920000D01*
X01553323Y01927612D01*
X01567388Y01941677D01*
X01575000Y01960054D01*
X01582612Y01941677D01*
X01596677Y01927612D01*
X01615054Y01920000D01*
X01634946Y01920000D01*
X01653323Y01927612D01*
X01667388Y01941677D01*
X01675000Y01960054D01*
X01682612Y01941677D01*
X01696677Y01927612D01*
X01715054Y01920000D01*
X01734946Y01920000D01*
X01753323Y01927612D01*
X01767388Y01941677D01*
X01775000Y01960054D01*
X01782612Y01941677D01*
X01796677Y01927612D01*
X01815054Y01920000D01*
X01834946Y01920000D01*
X01853323Y01927612D01*
X01867388Y01941677D01*
X01875000Y01960054D01*
X01882612Y01941677D01*
X01896677Y01927612D01*
X01915054Y01920000D01*
X01934946Y01920000D01*
X01953323Y01927612D01*
X01967388Y01941677D01*
X01975000Y01960054D01*
X01982612Y01941677D01*
X01996677Y01927612D01*
X02015054Y01920000D01*
X02034946Y01920000D01*
X02053323Y01927612D01*
X02067388Y01941677D01*
X02075000Y01960054D01*
X02075000Y02029614D01*
X03880008Y02029614D01*
X03880008Y00057000D01*
X03123735Y00057000D01*
X03125000Y00060054D01*
X03125000Y00139946D01*
X03117388Y00158323D01*
X03103323Y00172388D01*
X03084946Y00180000D01*
X03065054Y00180000D01*
X03046677Y00172388D01*
X03032612Y00158323D01*
X03025000Y00139946D01*
X03017388Y00158323D01*
X03003323Y00172388D01*
X02984946Y00180000D01*
X02965054Y00180000D01*
X02946677Y00172388D01*
X02932612Y00158323D01*
X02925000Y00139946D01*
X02917388Y00158323D01*
X02903323Y00172388D01*
X02884946Y00180000D01*
X02865054Y00180000D01*
X02846677Y00172388D01*
X02832612Y00158323D01*
X02825000Y00139946D01*
X02817388Y00158323D01*
X02803323Y00172388D01*
X02784946Y00180000D01*
X02765054Y00180000D01*
X02746677Y00172388D01*
X02732612Y00158323D01*
X02725000Y00139946D01*
X02717388Y00158323D01*
X02703323Y00172388D01*
X02703161Y00172455D01*
X02703161Y00284201D01*
X02706607Y00287647D01*
X02712972Y00303014D01*
X02712972Y00313544D01*
X03031566Y00632138D01*
X03035829Y00642429D01*
X03035829Y00734467D01*
X03043275Y00741913D01*
X03049640Y00757280D01*
X03049640Y00773914D01*
X03043275Y00789281D01*
X03031513Y00801043D01*
X03016146Y00807408D01*
X02999512Y00807408D01*
X02984145Y00801043D01*
X02972383Y00789281D01*
X02966018Y00773914D01*
X02966018Y00757280D01*
X02972383Y00741913D01*
X02979829Y00734467D01*
X02979829Y00659596D01*
X02673375Y00353142D01*
X02662845Y00353142D01*
X02647477Y00346776D01*
X02635716Y00335015D01*
X02629351Y00319647D01*
X02629351Y00303014D01*
X02635716Y00287647D01*
X02639162Y00284201D01*
X02639162Y00164872D01*
X02632612Y00158323D01*
X02625000Y00139946D01*
X02617388Y00158323D01*
X02603323Y00172388D01*
X02584946Y00180000D01*
X02565054Y00180000D01*
X02546677Y00172388D01*
X02532612Y00158323D01*
X02525000Y00139946D01*
X02517388Y00158323D01*
X02503323Y00172388D01*
X02484946Y00180000D01*
X02465054Y00180000D01*
X02460975Y00178310D01*
X02452421Y00186865D01*
X02455042Y00185779D01*
X02471675Y00185779D01*
X02487043Y00192144D01*
X02498804Y00203906D01*
X02505170Y00219273D01*
X02505170Y00224146D01*
X02512722Y00231698D01*
X02521723Y00240700D01*
X02526595Y00252461D01*
X02526595Y00910521D01*
X02535047Y00918973D01*
X02542312Y00936510D01*
X02542312Y00955493D01*
X02535047Y00973031D01*
X02521624Y00986454D01*
X02504087Y00993718D01*
X02489141Y00993718D01*
X02492133Y00996711D01*
X02504087Y00996711D01*
X02521624Y01003975D01*
X02535047Y01017398D01*
X02542312Y01034936D01*
X02542312Y01053919D01*
X02535047Y01071456D01*
X02521624Y01084879D01*
X02504087Y01092144D01*
X02485104Y01092144D01*
X02467566Y01084879D01*
X02454143Y01071456D01*
X02446879Y01053919D01*
X02446879Y01041965D01*
X02370896Y00965983D01*
X02366024Y00954221D01*
X02366024Y00329776D01*
X02362578Y00326330D01*
X02356213Y00310963D01*
X02356213Y00294329D01*
X02362578Y00278962D01*
X02374340Y00267200D01*
X02389707Y00260835D01*
X02406341Y00260835D01*
X02421708Y00267200D01*
X02433470Y00278962D01*
X02439835Y00294329D01*
X02439835Y00310963D01*
X02433470Y00326330D01*
X02430024Y00329776D01*
X02430024Y00934601D01*
X02446879Y00951456D01*
X02446879Y00936510D01*
X02454143Y00918973D01*
X02462595Y00910521D01*
X02462595Y00272081D01*
X02459915Y00269401D01*
X02455042Y00269401D01*
X02439675Y00263035D01*
X02427913Y00251274D01*
X02421548Y00235906D01*
X02421548Y00219273D01*
X02422633Y00216652D01*
X01944993Y00694293D01*
X01944993Y00699166D01*
X01938627Y00714533D01*
X01926866Y00726295D01*
X01911498Y00732660D01*
X01894865Y00732660D01*
X01879498Y00726295D01*
X01867736Y00714533D01*
X01861371Y00699166D01*
X01861371Y00682532D01*
X01867736Y00667165D01*
X01871092Y00663809D01*
X01867739Y00662421D01*
X01855978Y00650659D01*
X01849612Y00635292D01*
X01849612Y00618658D01*
X01855978Y00603291D01*
X01867739Y00591529D01*
X01883107Y00585164D01*
X01887979Y00585164D01*
X02327401Y00145742D01*
X02325000Y00139946D01*
X02325000Y00060054D01*
X02326265Y00057000D01*
X02273735Y00057000D01*
X02275000Y00060054D01*
X02275000Y00139946D01*
X02267388Y00158323D01*
X02253323Y00172388D01*
X02245227Y00175741D01*
X01746267Y00674701D01*
X01746267Y00679574D01*
X01739902Y00694941D01*
X01728140Y00706703D01*
X01712773Y00713068D01*
X01696140Y00713068D01*
X01680772Y00706703D01*
X01669011Y00694941D01*
X01662645Y00679574D01*
X01662645Y00662940D01*
X01669011Y00647573D01*
X01680772Y00635811D01*
X01696140Y00629446D01*
X01701012Y00629446D01*
X01705462Y00624996D01*
X01689416Y00624996D01*
X01674048Y00618631D01*
X01662287Y00606869D01*
X01655921Y00591502D01*
X01655921Y00574868D01*
X01662287Y00559501D01*
X01674048Y00547739D01*
X01683894Y00543661D01*
X01670016Y00537913D01*
X01661072Y00528969D01*
X01657369Y00537910D01*
X01645607Y00549672D01*
X01630240Y00556037D01*
X01613606Y00556037D01*
X01598239Y00549672D01*
X01586477Y00537910D01*
X01580112Y00522543D01*
X01580112Y00505910D01*
X01586477Y00490542D01*
X01589923Y00487097D01*
X01589923Y00478796D01*
X01594795Y00467035D01*
X01603796Y00458033D01*
X01603797Y00458033D01*
X01891452Y00170378D01*
X01891452Y00167163D01*
X01882612Y00158323D01*
X01875000Y00139946D01*
X01867388Y00158323D01*
X01853323Y00172388D01*
X01834946Y00180000D01*
X01815054Y00180000D01*
X01796677Y00172388D01*
X01782612Y00158323D01*
X01775000Y00139946D01*
X01767388Y00158323D01*
X01753323Y00172388D01*
X01734946Y00180000D01*
X01715054Y00180000D01*
X01696677Y00172388D01*
X01682612Y00158323D01*
X01675000Y00139946D01*
X01667388Y00158323D01*
X01653323Y00172388D01*
X01634946Y00180000D01*
X01615054Y00180000D01*
X01596677Y00172388D01*
X01582612Y00158323D01*
X01575000Y00139946D01*
X01567388Y00158323D01*
X01553323Y00172388D01*
X01534946Y00180000D01*
X01515054Y00180000D01*
X01496677Y00172388D01*
X01482612Y00158323D01*
X01475000Y00139946D01*
X01475000Y00060054D01*
X01476265Y00057000D01*
X01373735Y00057000D01*
X01375000Y00060054D01*
X01375000Y00139946D01*
X01367388Y00158323D01*
X01353323Y00172388D01*
X01343976Y00176259D01*
X01357057Y00181678D01*
X01373092Y00197712D01*
X01381769Y00218662D01*
X01381769Y00241338D01*
X01373092Y00262288D01*
X01357057Y00278322D01*
X01347613Y00282234D01*
X01363092Y00297712D01*
X01371769Y00318662D01*
X01371769Y00341338D01*
X01363092Y00362288D01*
X01349166Y00376213D01*
X01355692Y00379539D01*
X01363205Y00384997D01*
X01369772Y00391564D01*
X01375231Y00399077D01*
X01379447Y00407352D01*
X01382316Y00416184D01*
X01383769Y00425357D01*
X01383769Y00429999D01*
X01324771Y00429999D01*
X01324771Y00430000D01*
X01383769Y00430000D01*
X01383769Y00434643D01*
X01382316Y00443816D01*
X01379447Y00452648D01*
X01375231Y00460923D01*
X01369772Y00468436D01*
X01363205Y00475003D01*
X01355692Y00480461D01*
X01347417Y00484677D01*
X01338585Y00487547D01*
X01329413Y00489000D01*
X01324770Y00489000D01*
X01324770Y00430001D01*
X01324769Y00430001D01*
X01324769Y00489000D01*
X01320126Y00489000D01*
X01310953Y00487547D01*
X01302121Y00484677D01*
X01293846Y00480461D01*
X01286333Y00475003D01*
X01279767Y00468436D01*
X01274769Y00461558D01*
X01269772Y00468436D01*
X01263205Y00475003D01*
X01255692Y00480461D01*
X01247417Y00484677D01*
X01238585Y00487547D01*
X01229413Y00489000D01*
X01224770Y00489000D01*
X01224770Y00430001D01*
X01224769Y00430001D01*
X01224769Y00489000D01*
X01220126Y00489000D01*
X01210953Y00487547D01*
X01202121Y00484677D01*
X01193846Y00480461D01*
X01186333Y00475003D01*
X01179767Y00468436D01*
X01174769Y00461558D01*
X01169772Y00468436D01*
X01163205Y00475003D01*
X01155692Y00480461D01*
X01147417Y00484677D01*
X01138585Y00487547D01*
X01129413Y00489000D01*
X01124770Y00489000D01*
X01124770Y00430001D01*
X01124769Y00430001D01*
X01124769Y00489000D01*
X01120126Y00489000D01*
X01110953Y00487547D01*
X01102121Y00484677D01*
X01093846Y00480461D01*
X01086333Y00475003D01*
X01079767Y00468436D01*
X01074769Y00461558D01*
X01069772Y00468436D01*
X01063205Y00475003D01*
X01055692Y00480461D01*
X01047417Y00484677D01*
X01038585Y00487547D01*
X01029413Y00489000D01*
X01024770Y00489000D01*
X01024770Y00430001D01*
X01024769Y00430001D01*
X01024769Y00489000D01*
X01020126Y00489000D01*
X01010953Y00487547D01*
X01002121Y00484677D01*
X00993846Y00480461D01*
X00986333Y00475003D01*
X00979767Y00468436D01*
X00974308Y00460923D01*
X00970092Y00452648D01*
X00967222Y00443816D01*
X00965769Y00434643D01*
X00965769Y00430000D01*
X01024768Y00430000D01*
X01024768Y00429999D01*
X00965769Y00429999D01*
X00965769Y00425357D01*
X00967222Y00416184D01*
X00970092Y00407352D01*
X00974308Y00399077D01*
X00979767Y00391564D01*
X00986333Y00384997D01*
X00990786Y00381762D01*
X00982481Y00378322D01*
X00966447Y00362288D01*
X00957769Y00341338D01*
X00957769Y00318662D01*
X00966447Y00297712D01*
X00982481Y00281678D01*
X00991925Y00277766D01*
X00976447Y00262288D01*
X00967769Y00241338D01*
X00967769Y00218662D01*
X00976447Y00197712D01*
X00992481Y00181678D01*
X01005793Y00176164D01*
X00996677Y00172388D01*
X00982612Y00158323D01*
X00975000Y00139946D01*
X00967388Y00158323D01*
X00957000Y00168711D01*
X00957000Y00471970D01*
X01219089Y00734060D01*
X02197156Y00734060D01*
X02208917Y00738931D01*
X02276267Y00806282D01*
X02285269Y00815283D01*
X02290141Y00827045D01*
X02290141Y00910291D01*
X02298822Y00918973D01*
X02306087Y00936510D01*
X02306087Y00955493D01*
X02298822Y00973031D01*
X02285400Y00986454D01*
X02267862Y00993718D01*
X02252916Y00993718D01*
X02255909Y00996711D01*
X02267862Y00996711D01*
X02285400Y01003975D01*
X02298822Y01017398D01*
X02306087Y01034936D01*
X02306087Y01053919D01*
X02298822Y01071456D01*
X02285400Y01084879D01*
X02267862Y01092144D01*
X02248879Y01092144D01*
X02231341Y01084879D01*
X02217918Y01071456D01*
X02210654Y01053919D01*
X02210654Y01041965D01*
X02164478Y00995789D01*
X02159606Y00984028D01*
X02159606Y00880970D01*
X02124575Y00845938D01*
X01650819Y00845938D01*
X01652575Y00847694D01*
X01679392Y00874511D01*
X01683655Y00884802D01*
X01683655Y00928117D01*
X01691101Y00935562D01*
X01697466Y00950930D01*
X01697466Y00967563D01*
X01691101Y00982930D01*
X01679339Y00994692D01*
X01663972Y01001057D01*
X01647338Y01001057D01*
X01631971Y00994692D01*
X01620209Y00982930D01*
X01613844Y00967563D01*
X01613844Y00950930D01*
X01620209Y00935562D01*
X01627655Y00928117D01*
X01627655Y00901970D01*
X01617240Y00891555D01*
X01162927Y00891555D01*
X01162184Y00891867D01*
X01149453Y00891929D01*
X01137668Y00887115D01*
X00700521Y00454210D01*
X00700446Y00454179D01*
X00695995Y00449728D01*
X00691533Y00445309D01*
X00691502Y00445235D01*
X00691444Y00445177D01*
X00689040Y00439373D01*
X00687049Y00434633D01*
X00683127Y00430710D01*
X00676762Y00415343D01*
X00676762Y00398710D01*
X00683127Y00383342D01*
X00694889Y00371581D01*
X00710256Y00365215D01*
X00726889Y00365215D01*
X00742257Y00371581D01*
X00754018Y00383342D01*
X00760383Y00398710D01*
X00760383Y00415343D01*
X00758011Y00421071D01*
X00793000Y00455720D01*
X00793000Y00168711D01*
X00782612Y00158323D01*
X00775000Y00139946D01*
X00767388Y00158323D01*
X00753323Y00172388D01*
X00751413Y00173179D01*
X00751413Y00174162D01*
X00746541Y00185923D01*
X00445157Y00487308D01*
X00445157Y00959590D01*
X00445384Y00960139D01*
X00445384Y00999311D01*
X00440512Y01011072D01*
X00400707Y01050877D01*
X00400707Y01053919D01*
X00393442Y01071456D01*
X00380020Y01084879D01*
X00362482Y01092144D01*
X00343499Y01092144D01*
X00325961Y01084879D01*
X00312538Y01071456D01*
X00305274Y01053919D01*
X00305274Y01034936D01*
X00312538Y01017398D01*
X00325961Y01003975D01*
X00343499Y00996711D01*
X00362482Y00996711D01*
X00363813Y00997262D01*
X00370803Y00990272D01*
X00362482Y00993718D01*
X00343499Y00993718D01*
X00325961Y00986454D01*
X00312538Y00973031D01*
X00305274Y00955493D01*
X00305274Y00936510D01*
X00312538Y00918973D01*
X00320990Y00910521D01*
X00320990Y00365644D01*
X00325862Y00353883D01*
X00334864Y00344881D01*
X00575000Y00104745D01*
X00575000Y00060054D01*
X00576265Y00057000D01*
X00352766Y00057000D01*
X00375044Y00079277D01*
X00375044Y00120698D01*
X00345754Y00149988D01*
X00304333Y00149988D01*
X00275044Y00120698D01*
X00275044Y00079277D01*
X00297321Y00057000D01*
X00252766Y00057000D01*
X00275044Y00079277D01*
X00275044Y00120698D01*
X00245754Y00149988D01*
X00204333Y00149988D01*
X00182000Y00172321D01*
X00182000Y00167990D02*
X00186331Y00167990D01*
X00182000Y00143991D02*
X00198337Y00143991D01*
X00251751Y00143991D02*
X00298337Y00143991D01*
X00275044Y00119993D02*
X00275044Y00119993D01*
X00275044Y00095994D02*
X00275044Y00095994D01*
X00267762Y00071996D02*
X00282325Y00071996D01*
X00367762Y00071996D02*
X00575000Y00071996D01*
X00575000Y00095994D02*
X00375044Y00095994D01*
X00375044Y00119993D02*
X00559752Y00119993D01*
X00535754Y00143991D02*
X00351751Y00143991D01*
X00363756Y00167990D02*
X00511755Y00167990D01*
X00487757Y00191988D02*
X00375044Y00191988D01*
X00375044Y00215987D02*
X00463758Y00215987D01*
X00439760Y00239985D02*
X00355757Y00239985D01*
X00415761Y00263984D02*
X00182000Y00263984D01*
X00182000Y00287982D02*
X00391763Y00287982D01*
X00367764Y00311981D02*
X00182000Y00311981D01*
X00182000Y00335979D02*
X00343766Y00335979D01*
X00323337Y00359978D02*
X00182000Y00359978D01*
X00182000Y00383976D02*
X00320990Y00383976D01*
X00320990Y00407975D02*
X00182000Y00407975D01*
X00182000Y00431973D02*
X00320990Y00431973D01*
X00320990Y00455972D02*
X00182000Y00455972D01*
X00182000Y00479970D02*
X00320990Y00479970D01*
X00320990Y00503969D02*
X00182000Y00503969D01*
X00175112Y00527968D02*
X00320990Y00527968D01*
X00320990Y00551966D02*
X00153644Y00551966D01*
X00157288Y00548322D02*
X00157288Y00548322D01*
X00129645Y00575965D02*
X00320990Y00575965D01*
X00320990Y00599963D02*
X00105647Y00599963D01*
X00082000Y00623962D02*
X00320990Y00623962D01*
X00320990Y00647960D02*
X00082000Y00647960D01*
X00082000Y00671959D02*
X00320990Y00671959D01*
X00320990Y00695957D02*
X00082000Y00695957D01*
X00082000Y00719956D02*
X00320990Y00719956D01*
X00320990Y00743954D02*
X00082000Y00743954D01*
X00082000Y00767953D02*
X00320990Y00767953D01*
X00320990Y00791951D02*
X00082000Y00791951D01*
X00082000Y00815950D02*
X00320990Y00815950D01*
X00320990Y00839948D02*
X00082000Y00839948D01*
X00082000Y00863947D02*
X00320990Y00863947D01*
X00320990Y00887945D02*
X00082000Y00887945D01*
X00082000Y00911944D02*
X00319567Y00911944D01*
X00305509Y00935942D02*
X00082000Y00935942D01*
X00082000Y00959941D02*
X00307116Y00959941D01*
X00323447Y00983939D02*
X00082000Y00983939D01*
X00082000Y01007938D02*
X00321998Y01007938D01*
X00306516Y01031937D02*
X00082000Y01031937D01*
X00082000Y01055935D02*
X00306109Y01055935D01*
X00321016Y01079934D02*
X00082000Y01079934D01*
X00082000Y01103932D02*
X00321977Y01103932D01*
X00320602Y01104931D02*
X00326933Y01100331D01*
X00333906Y01096778D01*
X00341348Y01094360D01*
X00349078Y01093136D01*
X00352990Y01093136D01*
X00352990Y01142851D01*
X00352991Y01142851D01*
X00352991Y01093136D01*
X00356903Y01093136D01*
X00364632Y01094360D01*
X00372075Y01096778D01*
X00379047Y01100331D01*
X00385378Y01104931D01*
X00390912Y01110464D01*
X00395512Y01116795D01*
X00399064Y01123768D01*
X00401483Y01131210D01*
X00402707Y01138939D01*
X00402707Y01142852D01*
X00352992Y01142852D01*
X00352992Y01142853D01*
X00402707Y01142853D01*
X00402707Y01146765D01*
X00401483Y01154494D01*
X00399064Y01161937D01*
X00395512Y01168909D01*
X00390912Y01175240D01*
X00385378Y01180774D01*
X00379047Y01185374D01*
X00372075Y01188926D01*
X00364632Y01191345D01*
X00356903Y01192569D01*
X00352991Y01192569D01*
X00352991Y01142854D01*
X00352990Y01142854D01*
X00352990Y01192569D01*
X00349078Y01192569D01*
X00341348Y01191345D01*
X00333906Y01188926D01*
X00326933Y01185374D01*
X00320602Y01180774D01*
X00315069Y01175240D01*
X00310469Y01168909D01*
X00306916Y01161937D01*
X00304498Y01154494D01*
X00303274Y01146765D01*
X00303274Y01142853D01*
X00352989Y01142853D01*
X00352989Y01142852D01*
X00303274Y01142852D01*
X00303274Y01138939D01*
X00304498Y01131210D01*
X00306916Y01123768D01*
X00310469Y01116795D01*
X00315069Y01110464D01*
X00320602Y01104931D01*
X00305564Y01127931D02*
X00082000Y01127931D01*
X00082000Y01151929D02*
X00304092Y01151929D01*
X00315756Y01175928D02*
X00082000Y01175928D01*
X00082000Y01199926D02*
X00328132Y01199926D01*
X00325961Y01200825D02*
X00343499Y01193561D01*
X00362482Y01193561D01*
X00380020Y01200825D01*
X00393442Y01214248D01*
X00400707Y01231786D01*
X00400707Y01250769D01*
X00393442Y01268307D01*
X00380020Y01281730D01*
X00362482Y01288994D01*
X00343499Y01288994D01*
X00325961Y01281730D01*
X00312538Y01268307D01*
X00305274Y01250769D01*
X00305274Y01231786D01*
X00312538Y01214248D01*
X00325961Y01200825D01*
X00308530Y01223925D02*
X00082000Y01223925D01*
X00082000Y01247923D02*
X00305274Y01247923D01*
X00316153Y01271922D02*
X00082000Y01271922D01*
X00082000Y01295920D02*
X00334001Y01295920D01*
X00325961Y01299251D02*
X00343499Y01291986D01*
X00362482Y01291986D01*
X00380020Y01299251D01*
X00393442Y01312673D01*
X00400707Y01330211D01*
X00400707Y01349194D01*
X00393442Y01366732D01*
X00380020Y01380155D01*
X00362482Y01387419D01*
X00343499Y01387419D01*
X00325961Y01380155D01*
X00312538Y01366732D01*
X00305274Y01349194D01*
X00305274Y01330211D01*
X00312538Y01312673D01*
X00325961Y01299251D01*
X00309537Y01319919D02*
X00082000Y01319919D01*
X00082000Y01343917D02*
X00305274Y01343917D01*
X00313722Y01367916D02*
X00082000Y01367916D01*
X00082000Y01391914D02*
X00339870Y01391914D01*
X00343499Y01390411D02*
X00362482Y01390411D01*
X00380020Y01397676D01*
X00393442Y01411099D01*
X00400707Y01428636D01*
X00400707Y01447619D01*
X00393442Y01465157D01*
X00380020Y01478580D01*
X00362482Y01485844D01*
X00343499Y01485844D01*
X00325961Y01478580D01*
X00312538Y01465157D01*
X00305274Y01447619D01*
X00305274Y01428636D01*
X00312538Y01411099D01*
X00325961Y01397676D01*
X00343499Y01390411D01*
X00366110Y01391914D02*
X02245250Y01391914D01*
X02248879Y01390411D02*
X02267862Y01390411D01*
X02285400Y01397676D01*
X02298822Y01411099D01*
X02306087Y01428636D01*
X02306087Y01447619D01*
X02298822Y01465157D01*
X02285400Y01478580D01*
X02267862Y01485844D01*
X02248879Y01485844D01*
X02231341Y01478580D01*
X02217918Y01465157D01*
X02210654Y01447619D01*
X02210654Y01428636D01*
X02217918Y01411099D01*
X02231341Y01397676D01*
X02248879Y01390411D01*
X02248879Y01387419D02*
X02231341Y01380155D01*
X02217918Y01366732D01*
X02210654Y01349194D01*
X02210654Y01330211D01*
X02217918Y01312673D01*
X02231341Y01299251D01*
X02248879Y01291986D01*
X02267862Y01291986D01*
X02285400Y01299251D01*
X02298822Y01312673D01*
X02306087Y01330211D01*
X02306087Y01349194D01*
X02298822Y01366732D01*
X02285400Y01380155D01*
X02267862Y01387419D01*
X02248879Y01387419D01*
X02271490Y01391914D02*
X02346785Y01391914D01*
X02346785Y01367916D02*
X02297639Y01367916D01*
X02306087Y01343917D02*
X02346785Y01343917D01*
X02346785Y01322715D02*
X02343340Y01319269D01*
X02336974Y01303902D01*
X02336974Y01287268D01*
X02343340Y01271901D01*
X02355101Y01260139D01*
X02370469Y01253774D01*
X02387102Y01253774D01*
X02402469Y01260139D01*
X02414231Y01271901D01*
X02420596Y01287268D01*
X02420596Y01303902D01*
X02414231Y01319269D01*
X02410785Y01322715D01*
X02410785Y01765289D01*
X02415551Y01770055D01*
X02421916Y01785422D01*
X02421916Y01802056D01*
X02415551Y01817423D01*
X02403789Y01829185D01*
X02388422Y01835550D01*
X02371788Y01835550D01*
X02356421Y01829185D01*
X02344659Y01817423D01*
X02338294Y01802056D01*
X02338294Y01785422D01*
X02344659Y01770055D01*
X02346785Y01767929D01*
X02346785Y01322715D01*
X02343990Y01319919D02*
X02301824Y01319919D01*
X02277359Y01295920D02*
X02336974Y01295920D01*
X02343331Y01271922D02*
X02295207Y01271922D01*
X02298822Y01268307D02*
X02285400Y01281730D01*
X02267862Y01288994D01*
X02248879Y01288994D01*
X02231341Y01281730D01*
X02217918Y01268307D01*
X02210654Y01250769D01*
X02210654Y01231786D01*
X02217918Y01214248D01*
X02231341Y01200825D01*
X02248879Y01193561D01*
X02267862Y01193561D01*
X02285400Y01200825D01*
X02298822Y01214248D01*
X02306087Y01231786D01*
X02306087Y01250769D01*
X02298822Y01268307D01*
X02306087Y01247923D02*
X02446879Y01247923D01*
X02446879Y01250769D02*
X02446879Y01231786D01*
X02454143Y01214248D01*
X02467566Y01200825D01*
X02485104Y01193561D01*
X02504087Y01193561D01*
X02521624Y01200825D01*
X02535047Y01214248D01*
X02542312Y01231786D01*
X02542312Y01250769D01*
X02535047Y01268307D01*
X02521624Y01281730D01*
X02504087Y01288994D01*
X02485104Y01288994D01*
X02467566Y01281730D01*
X02454143Y01268307D01*
X02446879Y01250769D01*
X02457758Y01271922D02*
X02414240Y01271922D01*
X02420596Y01295920D02*
X02475606Y01295920D01*
X02467566Y01299251D02*
X02485104Y01291986D01*
X02504087Y01291986D01*
X02521624Y01299251D01*
X02535047Y01312673D01*
X02542312Y01330211D01*
X02542312Y01349194D01*
X02535047Y01366732D01*
X02521624Y01380155D01*
X02504087Y01387419D01*
X02485104Y01387419D01*
X02467566Y01380155D01*
X02454143Y01366732D01*
X02446879Y01349194D01*
X02446879Y01330211D01*
X02454143Y01312673D01*
X02467566Y01299251D01*
X02451142Y01319919D02*
X02413581Y01319919D01*
X02410785Y01343917D02*
X02446879Y01343917D01*
X02455327Y01367916D02*
X02410785Y01367916D01*
X02410785Y01391914D02*
X02481475Y01391914D01*
X02485104Y01390411D02*
X02504087Y01390411D01*
X02521624Y01397676D01*
X02535047Y01411099D01*
X02542312Y01428636D01*
X02542312Y01447619D01*
X02535047Y01465157D01*
X02521624Y01478580D01*
X02504087Y01485844D01*
X02485104Y01485844D01*
X02467566Y01478580D01*
X02454143Y01465157D01*
X02446879Y01447619D01*
X02446879Y01428636D01*
X02454143Y01411099D01*
X02467566Y01397676D01*
X02485104Y01390411D01*
X02507715Y01391914D02*
X03880008Y01391914D01*
X03880008Y01367916D02*
X02533863Y01367916D01*
X02542312Y01343917D02*
X03880008Y01343917D01*
X03880008Y01319919D02*
X02538048Y01319919D01*
X02513584Y01295920D02*
X03880008Y01295920D01*
X03880008Y01271922D02*
X02531432Y01271922D01*
X02542312Y01247923D02*
X03880008Y01247923D01*
X03880008Y01223925D02*
X02539055Y01223925D01*
X02519453Y01199926D02*
X03880008Y01199926D01*
X03880008Y01175928D02*
X02531829Y01175928D01*
X02532517Y01175240D02*
X02526983Y01180774D01*
X02520652Y01185374D01*
X02513680Y01188926D01*
X02506237Y01191345D01*
X02498508Y01192569D01*
X02494596Y01192569D01*
X02494596Y01142854D01*
X02494594Y01142854D01*
X02494594Y01192569D01*
X02490682Y01192569D01*
X02482953Y01191345D01*
X02475511Y01188926D01*
X02468538Y01185374D01*
X02462207Y01180774D01*
X02456674Y01175240D01*
X02452074Y01168909D01*
X02448521Y01161937D01*
X02446103Y01154494D01*
X02444879Y01146765D01*
X02444879Y01142853D01*
X02494594Y01142853D01*
X02494594Y01142852D01*
X02444879Y01142852D01*
X02444879Y01138939D01*
X02446103Y01131210D01*
X02448521Y01123768D01*
X02452074Y01116795D01*
X02456674Y01110464D01*
X02462207Y01104931D01*
X02468538Y01100331D01*
X02475511Y01096778D01*
X02482953Y01094360D01*
X02490682Y01093136D01*
X02494594Y01093136D01*
X02494594Y01142851D01*
X02494596Y01142851D01*
X02494596Y01093136D01*
X02498508Y01093136D01*
X02506237Y01094360D01*
X02513680Y01096778D01*
X02520652Y01100331D01*
X02526983Y01104931D01*
X02532517Y01110464D01*
X02537117Y01116795D01*
X02540669Y01123768D01*
X02543087Y01131210D01*
X02544312Y01138939D01*
X02544312Y01142852D01*
X02494596Y01142852D01*
X02494596Y01142853D01*
X02544312Y01142853D01*
X02544312Y01146765D01*
X02543087Y01154494D01*
X02540669Y01161937D01*
X02537117Y01168909D01*
X02532517Y01175240D01*
X02543494Y01151929D02*
X03880008Y01151929D01*
X03880008Y01127931D02*
X02542022Y01127931D01*
X02494596Y01127931D02*
X02494594Y01127931D01*
X02494594Y01151929D02*
X02494596Y01151929D01*
X02494594Y01175928D02*
X02494596Y01175928D01*
X02469737Y01199926D02*
X02283229Y01199926D01*
X02277455Y01188926D02*
X02270012Y01191345D01*
X02262283Y01192569D01*
X02258371Y01192569D01*
X02258371Y01142854D01*
X02258370Y01142854D01*
X02258370Y01192569D01*
X02254458Y01192569D01*
X02246728Y01191345D01*
X02239286Y01188926D01*
X02232313Y01185374D01*
X02225982Y01180774D01*
X02220449Y01175240D01*
X02215849Y01168909D01*
X02212296Y01161937D01*
X02209878Y01154494D01*
X02208654Y01146765D01*
X02208654Y01142853D01*
X02258369Y01142853D01*
X02258369Y01142852D01*
X02208654Y01142852D01*
X02208654Y01138939D01*
X02209878Y01131210D01*
X02212296Y01123768D01*
X02215849Y01116795D01*
X02220449Y01110464D01*
X02225982Y01104931D01*
X02232313Y01100331D01*
X02239286Y01096778D01*
X02246728Y01094360D01*
X02254458Y01093136D01*
X02258370Y01093136D01*
X02258370Y01142851D01*
X02258371Y01142851D01*
X02258371Y01093136D01*
X02262283Y01093136D01*
X02270012Y01094360D01*
X02277455Y01096778D01*
X02284428Y01100331D01*
X02290758Y01104931D01*
X02296292Y01110464D01*
X02300892Y01116795D01*
X02304445Y01123768D01*
X02306863Y01131210D01*
X02308087Y01138939D01*
X02308087Y01142852D01*
X02258372Y01142852D01*
X02258372Y01142853D01*
X02308087Y01142853D01*
X02308087Y01146765D01*
X02306863Y01154494D01*
X02304445Y01161937D01*
X02300892Y01168909D01*
X02296292Y01175240D01*
X02290758Y01180774D01*
X02284428Y01185374D01*
X02277455Y01188926D01*
X02295605Y01175928D02*
X02457361Y01175928D01*
X02445697Y01151929D02*
X02307269Y01151929D01*
X02305797Y01127931D02*
X02447168Y01127931D01*
X02463581Y01103932D02*
X02289384Y01103932D01*
X02290345Y01079934D02*
X02462620Y01079934D01*
X02447714Y01055935D02*
X02305252Y01055935D01*
X02304844Y01031937D02*
X02436850Y01031937D01*
X02412851Y01007938D02*
X02289363Y01007938D01*
X02287914Y00983939D02*
X02388853Y00983939D01*
X02368393Y00959941D02*
X02304245Y00959941D01*
X02305852Y00935942D02*
X02366024Y00935942D01*
X02366024Y00911944D02*
X02291794Y00911944D01*
X02290141Y00887945D02*
X02366024Y00887945D01*
X02366024Y00863947D02*
X02290141Y00863947D01*
X02290141Y00839948D02*
X02366024Y00839948D01*
X02366024Y00815950D02*
X02285545Y00815950D01*
X02276267Y00806282D02*
X02276267Y00806282D01*
X02261937Y00791951D02*
X02366024Y00791951D01*
X02366024Y00767953D02*
X02237938Y00767953D01*
X02213940Y00743954D02*
X02366024Y00743954D01*
X02366024Y00719956D02*
X01933205Y00719956D01*
X01944993Y00695957D02*
X02366024Y00695957D01*
X02366024Y00671959D02*
X01967327Y00671959D01*
X01991325Y00647960D02*
X02366024Y00647960D01*
X02430024Y00647960D02*
X02462595Y00647960D01*
X02462595Y00671959D02*
X02430024Y00671959D01*
X02430024Y00695957D02*
X02462595Y00695957D01*
X02462595Y00719956D02*
X02430024Y00719956D01*
X02430024Y00743954D02*
X02462595Y00743954D01*
X02462595Y00767953D02*
X02430024Y00767953D01*
X02430024Y00791951D02*
X02462595Y00791951D01*
X02462595Y00815950D02*
X02430024Y00815950D01*
X02430024Y00839948D02*
X02462595Y00839948D01*
X02462595Y00863947D02*
X02430024Y00863947D01*
X02430024Y00887945D02*
X02462595Y00887945D01*
X02461172Y00911944D02*
X02430024Y00911944D01*
X02431365Y00935942D02*
X02447114Y00935942D01*
X02494595Y00946002D02*
X02494595Y00258826D01*
X02463359Y00227590D01*
X02423237Y00239985D02*
X02399300Y00239985D01*
X02413942Y00263984D02*
X02441964Y00263984D01*
X02437206Y00287982D02*
X02462595Y00287982D01*
X02462595Y00311981D02*
X02439413Y00311981D01*
X02430024Y00335979D02*
X02462595Y00335979D01*
X02462595Y00359978D02*
X02430024Y00359978D01*
X02430024Y00383976D02*
X02462595Y00383976D01*
X02462595Y00407975D02*
X02430024Y00407975D01*
X02430024Y00431973D02*
X02462595Y00431973D01*
X02462595Y00455972D02*
X02430024Y00455972D01*
X02430024Y00479970D02*
X02462595Y00479970D01*
X02462595Y00503969D02*
X02430024Y00503969D01*
X02430024Y00527968D02*
X02462595Y00527968D01*
X02462595Y00551966D02*
X02430024Y00551966D01*
X02430024Y00575965D02*
X02462595Y00575965D01*
X02462595Y00599963D02*
X02430024Y00599963D01*
X02430024Y00623962D02*
X02462595Y00623962D01*
X02526595Y00623962D02*
X02944195Y00623962D01*
X02920196Y00599963D02*
X02526595Y00599963D01*
X02526595Y00575965D02*
X02896197Y00575965D01*
X02872199Y00551966D02*
X02526595Y00551966D01*
X02526595Y00527968D02*
X02848200Y00527968D01*
X02824202Y00503969D02*
X02526595Y00503969D01*
X02526595Y00479970D02*
X02800203Y00479970D01*
X02776205Y00455972D02*
X02526595Y00455972D01*
X02526595Y00431973D02*
X02752206Y00431973D01*
X02728208Y00407975D02*
X02526595Y00407975D01*
X02526595Y00383976D02*
X02704209Y00383976D01*
X02680211Y00359978D02*
X02526595Y00359978D01*
X02526595Y00335979D02*
X02636680Y00335979D01*
X02629351Y00311981D02*
X02526595Y00311981D01*
X02526595Y00287982D02*
X02635577Y00287982D01*
X02639162Y00263984D02*
X02526595Y00263984D01*
X02521009Y00239985D02*
X02639162Y00239985D01*
X02639162Y00215987D02*
X02503808Y00215987D01*
X02486666Y00191988D02*
X02639162Y00191988D01*
X02639162Y00167990D02*
X02607721Y00167990D01*
X02623324Y00143991D02*
X02626676Y00143991D01*
X02625000Y00139946D02*
X02625000Y00060054D01*
X02623735Y00057000D01*
X02626265Y00057000D01*
X02625000Y00060054D01*
X02625000Y00139946D01*
X02625000Y00119993D02*
X02625000Y00119993D01*
X02625000Y00095994D02*
X02625000Y00095994D01*
X02625000Y00071996D02*
X02625000Y00071996D01*
X02671162Y00103838D02*
X02671162Y00311331D01*
X02712972Y00311981D02*
X02943636Y00311981D01*
X02943165Y00311510D02*
X02936800Y00296142D01*
X02936800Y00279509D01*
X02943165Y00264142D01*
X02954927Y00252380D01*
X02970294Y00246015D01*
X02986928Y00246015D01*
X03002295Y00252380D01*
X03014057Y00264142D01*
X03020422Y00279509D01*
X03020422Y00290039D01*
X03039317Y00308934D01*
X03045449Y00294131D01*
X03057211Y00282369D01*
X03072578Y00276004D01*
X03089212Y00276004D01*
X03104579Y00282369D01*
X03116341Y00294131D01*
X03122706Y00309498D01*
X03122706Y00320654D01*
X03171040Y00368988D01*
X03175303Y00379279D01*
X03175303Y00736115D01*
X03182749Y00743561D01*
X03189114Y00758928D01*
X03189114Y00775562D01*
X03182749Y00790929D01*
X03170987Y00802691D01*
X03155620Y00809056D01*
X03138986Y00809056D01*
X03123619Y00802691D01*
X03111857Y00790929D01*
X03105492Y00775562D01*
X03105492Y00758928D01*
X03111857Y00743561D01*
X03119303Y00736115D01*
X03119303Y00725858D01*
X03118284Y00728319D01*
X03106522Y00740080D01*
X03091155Y00746446D01*
X03074521Y00746446D01*
X03059154Y00740080D01*
X03047392Y00728319D01*
X03041027Y00712951D01*
X03041027Y00696318D01*
X03047392Y00680951D01*
X03054838Y00673505D01*
X03054838Y00403651D01*
X02980824Y00329637D01*
X02970294Y00329637D01*
X02954927Y00323271D01*
X02943165Y00311510D01*
X02936800Y00287982D02*
X02706746Y00287982D01*
X02703161Y00263984D02*
X02943323Y00263984D01*
X03013899Y00263984D02*
X03337758Y00263984D01*
X03337758Y00287982D02*
X03110192Y00287982D01*
X03122706Y00311981D02*
X03341155Y00311981D01*
X03337758Y00303778D02*
X03346796Y00325599D01*
X03363497Y00342300D01*
X03385318Y00351338D01*
X03408937Y00351338D01*
X03430758Y00342300D01*
X03447459Y00325599D01*
X03456498Y00303778D01*
X03456498Y00201419D01*
X03447459Y00179598D01*
X03430758Y00162897D01*
X03408937Y00153858D01*
X03385318Y00153858D01*
X03363497Y00162897D01*
X03346796Y00179598D01*
X03337758Y00201419D01*
X03337758Y00303778D01*
X03357177Y00335979D02*
X03138032Y00335979D01*
X03162030Y00359978D02*
X03880008Y00359978D01*
X03880008Y00383976D02*
X03577326Y00383976D01*
X03587717Y00388280D02*
X03604418Y00404981D01*
X03613457Y00426802D01*
X03613457Y00450421D01*
X03604418Y00472242D01*
X03587717Y00488943D01*
X03565896Y00497982D01*
X03463537Y00497982D01*
X03441716Y00488943D01*
X03425015Y00472242D01*
X03415977Y00450421D01*
X03415977Y00426802D01*
X03425015Y00404981D01*
X03441716Y00388280D01*
X03463537Y00379242D01*
X03565896Y00379242D01*
X03587717Y00388280D01*
X03605658Y00407975D02*
X03880008Y00407975D01*
X03880008Y00431973D02*
X03613457Y00431973D01*
X03611158Y00455972D02*
X03880008Y00455972D01*
X03880008Y00479970D02*
X03596690Y00479970D01*
X03730885Y00549129D02*
X03773635Y00549129D01*
X03773635Y00548157D01*
X03880008Y00551966D02*
X03175303Y00551966D01*
X03175303Y00527968D02*
X03880008Y00527968D01*
X03880008Y00503969D02*
X03175303Y00503969D01*
X03175303Y00479970D02*
X03432743Y00479970D01*
X03418276Y00455972D02*
X03175303Y00455972D01*
X03175303Y00431973D02*
X03415977Y00431973D01*
X03423775Y00407975D02*
X03175303Y00407975D01*
X03175303Y00383976D02*
X03452107Y00383976D01*
X03437079Y00335979D02*
X03589855Y00335979D01*
X03592453Y00338577D02*
X03585622Y00331747D01*
X03579944Y00323932D01*
X03575559Y00315325D01*
X03572574Y00306138D01*
X03571063Y00296597D01*
X03571063Y00252397D01*
X03632431Y00252397D01*
X03632431Y00252396D01*
X03571063Y00252396D01*
X03571063Y00208196D01*
X03572574Y00198656D01*
X03575559Y00189469D01*
X03579944Y00180862D01*
X03585622Y00173047D01*
X03592453Y00166216D01*
X03600268Y00160538D01*
X03608875Y00156153D01*
X03618062Y00153168D01*
X03627603Y00151656D01*
X03632432Y00151656D01*
X03632432Y00252395D01*
X03632433Y00252395D01*
X03632433Y00151656D01*
X03637263Y00151656D01*
X03646804Y00153168D01*
X03655991Y00156153D01*
X03664598Y00160538D01*
X03672413Y00166216D01*
X03679243Y00173047D01*
X03684921Y00180862D01*
X03689306Y00189469D01*
X03692292Y00198656D01*
X03693803Y00208196D01*
X03693803Y00252396D01*
X03632434Y00252396D01*
X03632434Y00252397D01*
X03693803Y00252397D01*
X03693803Y00296597D01*
X03692292Y00306138D01*
X03689306Y00315325D01*
X03684921Y00323932D01*
X03679243Y00331747D01*
X03672413Y00338577D01*
X03664598Y00344255D01*
X03655991Y00348641D01*
X03646804Y00351626D01*
X03637263Y00353137D01*
X03632433Y00353137D01*
X03632433Y00252398D01*
X03632432Y00252398D01*
X03632432Y00353137D01*
X03627603Y00353137D01*
X03618062Y00351626D01*
X03608875Y00348641D01*
X03600268Y00344255D01*
X03592453Y00338577D01*
X03574472Y00311981D02*
X03453100Y00311981D01*
X03456498Y00287982D02*
X03571063Y00287982D01*
X03571063Y00263984D02*
X03456498Y00263984D01*
X03456498Y00239985D02*
X03571063Y00239985D01*
X03571063Y00215987D02*
X03456498Y00215987D01*
X03452591Y00191988D02*
X03574740Y00191988D01*
X03590679Y00167990D02*
X03435851Y00167990D01*
X03358404Y00167990D02*
X03107721Y00167990D01*
X03123324Y00143991D02*
X03880008Y00143991D01*
X03880008Y00119993D02*
X03125000Y00119993D01*
X03125000Y00095994D02*
X03880008Y00095994D01*
X03880008Y00071996D02*
X03125000Y00071996D01*
X03026265Y00057000D02*
X03023735Y00057000D01*
X03025000Y00060054D01*
X03025000Y00139946D01*
X03025000Y00060054D01*
X03026265Y00057000D01*
X03025000Y00071996D02*
X03025000Y00071996D01*
X03025000Y00095994D02*
X03025000Y00095994D01*
X03025000Y00119993D02*
X03025000Y00119993D01*
X03023324Y00143991D02*
X03026676Y00143991D01*
X03042279Y00167990D02*
X03007721Y00167990D01*
X02942279Y00167990D02*
X02907721Y00167990D01*
X02923324Y00143991D02*
X02926676Y00143991D01*
X02925000Y00139946D02*
X02925000Y00060054D01*
X02923735Y00057000D01*
X02926265Y00057000D01*
X02925000Y00060054D01*
X02925000Y00139946D01*
X02925000Y00119993D02*
X02925000Y00119993D01*
X02925000Y00095994D02*
X02925000Y00095994D01*
X02925000Y00071996D02*
X02925000Y00071996D01*
X02826265Y00057000D02*
X02823735Y00057000D01*
X02825000Y00060054D01*
X02825000Y00139946D01*
X02825000Y00060054D01*
X02826265Y00057000D01*
X02825000Y00071996D02*
X02825000Y00071996D01*
X02825000Y00095994D02*
X02825000Y00095994D01*
X02825000Y00119993D02*
X02825000Y00119993D01*
X02823324Y00143991D02*
X02826676Y00143991D01*
X02842279Y00167990D02*
X02807721Y00167990D01*
X02742279Y00167990D02*
X02707721Y00167990D01*
X02703161Y00191988D02*
X03341664Y00191988D01*
X03337758Y00215987D02*
X02703161Y00215987D01*
X02703161Y00239985D02*
X03337758Y00239985D01*
X03051598Y00287982D02*
X03020422Y00287982D01*
X02987167Y00335979D02*
X02735408Y00335979D01*
X02759407Y00359978D02*
X03011165Y00359978D01*
X03035164Y00383976D02*
X02783405Y00383976D01*
X02807404Y00407975D02*
X03054838Y00407975D01*
X03054838Y00431973D02*
X02831402Y00431973D01*
X02855401Y00455972D02*
X03054838Y00455972D01*
X03054838Y00479970D02*
X02879399Y00479970D01*
X02903398Y00503969D02*
X03054838Y00503969D01*
X03054838Y00527968D02*
X02927396Y00527968D01*
X02951395Y00551966D02*
X03054838Y00551966D01*
X03054838Y00575965D02*
X02975393Y00575965D01*
X02999392Y00599963D02*
X03054838Y00599963D01*
X03054838Y00623962D02*
X03023390Y00623962D01*
X03035829Y00647960D02*
X03054838Y00647960D01*
X03054838Y00671959D02*
X03035829Y00671959D01*
X03035829Y00695957D02*
X03041177Y00695957D01*
X03043929Y00719956D02*
X03035829Y00719956D01*
X03044120Y00743954D02*
X03068507Y00743954D01*
X03097170Y00743954D02*
X03111694Y00743954D01*
X03105492Y00767953D02*
X03049640Y00767953D01*
X03040604Y00791951D02*
X03112880Y00791951D01*
X03181726Y00791951D02*
X03880008Y00791951D01*
X03880008Y00767953D02*
X03189114Y00767953D01*
X03182912Y00743954D02*
X03880008Y00743954D01*
X03880008Y00719956D02*
X03175303Y00719956D01*
X03175303Y00695957D02*
X03880008Y00695957D01*
X03880008Y00671959D02*
X03175303Y00671959D01*
X03175303Y00647960D02*
X03880008Y00647960D01*
X03880008Y00623962D02*
X03175303Y00623962D01*
X03175303Y00599963D02*
X03880008Y00599963D01*
X03880008Y00575965D02*
X03175303Y00575965D01*
X02979829Y00671959D02*
X02526595Y00671959D01*
X02526595Y00695957D02*
X02979829Y00695957D01*
X02979829Y00719956D02*
X02526595Y00719956D01*
X02526595Y00743954D02*
X02971538Y00743954D01*
X02966018Y00767953D02*
X02526595Y00767953D01*
X02526595Y00791951D02*
X02975054Y00791951D01*
X02899183Y00840496D02*
X02895343Y00836656D01*
X02899183Y00840496D02*
X02845745Y00893429D01*
X02542076Y00935942D02*
X03880008Y00935942D01*
X03880008Y00911944D02*
X02528018Y00911944D01*
X02526595Y00887945D02*
X03880008Y00887945D01*
X03880008Y00863947D02*
X02526595Y00863947D01*
X02526595Y00839948D02*
X03880008Y00839948D01*
X03880008Y00815950D02*
X02526595Y00815950D01*
X02540469Y00959941D02*
X03880008Y00959941D01*
X03880008Y00983939D02*
X02524139Y00983939D01*
X02525587Y01007938D02*
X03880008Y01007938D01*
X03880008Y01031937D02*
X02541069Y01031937D01*
X02541477Y01055935D02*
X03880008Y01055935D01*
X03880008Y01079934D02*
X02526570Y01079934D01*
X02525609Y01103932D02*
X03880008Y01103932D01*
X03761081Y01309665D02*
X03761081Y01340416D01*
X03776445Y01355780D01*
X03880008Y01415913D02*
X02537041Y01415913D01*
X02542312Y01439911D02*
X03880008Y01439911D01*
X03880008Y01463910D02*
X02535564Y01463910D01*
X02453627Y01463910D02*
X02410785Y01463910D01*
X02410785Y01439911D02*
X02446879Y01439911D01*
X02452149Y01415913D02*
X02410785Y01415913D01*
X02346785Y01415913D02*
X02300817Y01415913D01*
X02306087Y01439911D02*
X02346785Y01439911D01*
X02346785Y01463910D02*
X02299339Y01463910D01*
X02346785Y01487908D02*
X00082000Y01487908D01*
X00082000Y01463910D02*
X00312022Y01463910D01*
X00305274Y01439911D02*
X00082000Y01439911D01*
X00082000Y01415913D02*
X00310544Y01415913D01*
X00395437Y01415913D02*
X02215924Y01415913D01*
X02210654Y01439911D02*
X00400707Y01439911D01*
X00393959Y01463910D02*
X02217402Y01463910D01*
X02346785Y01511907D02*
X00082000Y01511907D01*
X00082000Y01535906D02*
X02346785Y01535906D01*
X02346785Y01559904D02*
X00082000Y01559904D01*
X00082000Y01583903D02*
X02346785Y01583903D01*
X02346785Y01607901D02*
X00082000Y01607901D01*
X00082000Y01631900D02*
X01043328Y01631900D01*
X01064035Y01631900D02*
X01064036Y01631900D01*
X01084744Y01631900D02*
X01128733Y01631900D01*
X01064036Y01655898D02*
X01064035Y01655898D01*
X01064035Y01679897D02*
X01064036Y01679897D01*
X01013855Y01655898D02*
X00354577Y01655898D01*
X00346640Y01647961D02*
X00325102Y01647961D01*
X00325102Y01699960D01*
X00325101Y01699960D01*
X00325101Y01647961D01*
X00303562Y01647961D01*
X00275101Y01676422D01*
X00246640Y01647961D01*
X00225102Y01647961D01*
X00225102Y01699960D01*
X00225101Y01699960D01*
X00225101Y01647961D01*
X00203562Y01647961D01*
X00173101Y01678422D01*
X00173101Y01699961D01*
X00225100Y01699961D01*
X00225100Y01699962D01*
X00173101Y01699962D01*
X00173101Y01721500D01*
X00201562Y01749961D01*
X00173101Y01778422D01*
X00173101Y01799961D01*
X00225100Y01799961D01*
X00225100Y01799962D01*
X00173101Y01799962D01*
X00173101Y01821500D01*
X00203562Y01851961D01*
X00225101Y01851961D01*
X00225101Y01799963D01*
X00225102Y01799963D01*
X00225102Y01851961D01*
X00246640Y01851961D01*
X00275101Y01823500D01*
X00303562Y01851961D01*
X00325101Y01851961D01*
X00325101Y01799963D01*
X00325102Y01799963D01*
X00325102Y01851961D01*
X00346640Y01851961D01*
X00377101Y01821500D01*
X00377101Y01799962D01*
X00325103Y01799962D01*
X00325103Y01799961D01*
X00377101Y01799961D01*
X00377101Y01778422D01*
X00348640Y01749961D01*
X00377101Y01721500D01*
X00377101Y01699962D01*
X00325103Y01699962D01*
X00325103Y01699961D01*
X00377101Y01699961D01*
X00377101Y01678422D01*
X00346640Y01647961D01*
X00325102Y01655898D02*
X00325101Y01655898D01*
X00325101Y01679897D02*
X00325102Y01679897D01*
X00325100Y01699961D02*
X00273101Y01699961D01*
X00225103Y01699961D01*
X00225103Y01699962D01*
X00325100Y01699962D01*
X00325100Y01699961D01*
X00325101Y01699963D02*
X00325101Y01799960D01*
X00325102Y01799960D01*
X00325102Y01747961D01*
X00325102Y01699963D01*
X00325101Y01699963D01*
X00325101Y01703895D02*
X00325102Y01703895D01*
X00325101Y01727894D02*
X00325102Y01727894D01*
X00325101Y01751892D02*
X00325102Y01751892D01*
X00325101Y01775891D02*
X00325102Y01775891D01*
X00325101Y01799889D02*
X00325102Y01799889D01*
X00325100Y01799961D02*
X00273101Y01799961D01*
X00225103Y01799961D01*
X00225103Y01799962D01*
X00325100Y01799962D01*
X00325100Y01799961D01*
X00325101Y01823888D02*
X00325102Y01823888D01*
X00325101Y01847886D02*
X00325102Y01847886D01*
X00350715Y01847886D02*
X01231881Y01847886D01*
X01231881Y01871885D02*
X00082000Y01871885D01*
X00082000Y01895883D02*
X01231881Y01895883D01*
X01231881Y01919882D02*
X00082000Y01919882D01*
X00082000Y01943880D02*
X01231881Y01943880D01*
X01247624Y01967879D02*
X00082000Y01967879D01*
X00107255Y01991877D02*
X01271623Y01991877D01*
X01275000Y02015876D02*
X00132989Y02015876D01*
X00082000Y01847886D02*
X00199487Y01847886D01*
X00225101Y01847886D02*
X00225102Y01847886D01*
X00225101Y01823888D02*
X00225102Y01823888D01*
X00225102Y01799960D02*
X00225102Y01747961D01*
X00225102Y01699963D01*
X00225101Y01699963D01*
X00225101Y01799960D01*
X00225102Y01799960D01*
X00225101Y01799889D02*
X00225102Y01799889D01*
X00225101Y01775891D02*
X00225102Y01775891D01*
X00225101Y01751892D02*
X00225102Y01751892D01*
X00225101Y01727894D02*
X00225102Y01727894D01*
X00225101Y01703895D02*
X00225102Y01703895D01*
X00225101Y01679897D02*
X00225102Y01679897D01*
X00225101Y01655898D02*
X00225102Y01655898D01*
X00254577Y01655898D02*
X00295625Y01655898D01*
X00377101Y01679897D02*
X01005458Y01679897D01*
X01007422Y01703895D02*
X00377101Y01703895D01*
X00370708Y01727894D02*
X01021284Y01727894D01*
X01016877Y01751892D02*
X00350571Y01751892D01*
X00374570Y01775891D02*
X01005996Y01775891D01*
X01006096Y01799889D02*
X00377101Y01799889D01*
X00374714Y01823888D02*
X01017336Y01823888D01*
X01063880Y01823888D02*
X01063881Y01823888D01*
X01063880Y01799889D02*
X01063881Y01799889D01*
X01110425Y01823888D02*
X01129585Y01823888D01*
X01198177Y01823888D02*
X01219585Y01823888D01*
X01263881Y01787574D02*
X01263881Y01938881D01*
X01325000Y02000000D01*
X01425000Y02000000D02*
X01425000Y01848172D01*
X01264036Y01687207D01*
X01279459Y01631900D02*
X02346785Y01631900D01*
X02346785Y01655898D02*
X01312764Y01655898D01*
X01321036Y01679897D02*
X02346785Y01679897D01*
X02346785Y01703895D02*
X01325978Y01703895D01*
X01349977Y01727894D02*
X02346785Y01727894D01*
X02346785Y01751892D02*
X01373975Y01751892D01*
X01397974Y01775891D02*
X02342242Y01775891D01*
X02338294Y01799889D02*
X01421972Y01799889D01*
X01445971Y01823888D02*
X02351124Y01823888D01*
X02380105Y01793739D02*
X02378785Y01792419D01*
X02378785Y01295585D01*
X02450135Y01223925D02*
X02302830Y01223925D01*
X02233512Y01199926D02*
X00377849Y01199926D01*
X00390225Y01175928D02*
X02221136Y01175928D01*
X02209472Y01151929D02*
X00401889Y01151929D01*
X00400417Y01127931D02*
X02210944Y01127931D01*
X02258370Y01127931D02*
X02258371Y01127931D01*
X02258370Y01151929D02*
X02258371Y01151929D01*
X02258370Y01175928D02*
X02258371Y01175928D01*
X02213910Y01223925D02*
X00397450Y01223925D01*
X00400707Y01247923D02*
X02210654Y01247923D01*
X02221533Y01271922D02*
X00389827Y01271922D01*
X00371979Y01295920D02*
X02239381Y01295920D01*
X02214917Y01319919D02*
X00396444Y01319919D01*
X00400707Y01343917D02*
X02210654Y01343917D01*
X02219102Y01367916D02*
X00392258Y01367916D01*
X00352990Y01175928D02*
X00352991Y01175928D01*
X00352990Y01151929D02*
X00352991Y01151929D01*
X00352990Y01127931D02*
X00352991Y01127931D01*
X00352990Y01103932D02*
X00352991Y01103932D01*
X00384004Y01103932D02*
X02227357Y01103932D01*
X02226396Y01079934D02*
X00384965Y01079934D01*
X00399872Y01055935D02*
X02211489Y01055935D01*
X02200625Y01031937D02*
X00419648Y01031937D01*
X00441810Y01007938D02*
X02176627Y01007938D01*
X02159606Y00983939D02*
X01690091Y00983939D01*
X01697466Y00959941D02*
X02159606Y00959941D01*
X02159606Y00935942D02*
X01691258Y00935942D01*
X01683655Y00911944D02*
X02159606Y00911944D01*
X02159606Y00887945D02*
X01683655Y00887945D01*
X01668828Y00863947D02*
X02142583Y00863947D01*
X02191606Y00867715D02*
X02191606Y00977663D01*
X02258370Y01044427D01*
X02258370Y01103932D02*
X02258371Y01103932D01*
X02258370Y00946002D02*
X02258141Y00945772D01*
X02258141Y00833410D01*
X02190790Y00766060D01*
X01205835Y00766060D01*
X00925000Y00485225D01*
X00925000Y00100000D01*
X00975000Y00095994D02*
X00975000Y00095994D01*
X00975000Y00071996D02*
X00975000Y00071996D01*
X00975000Y00060054D02*
X00975000Y00139946D01*
X00975000Y00060054D01*
X00973735Y00057000D01*
X00976265Y00057000D01*
X00975000Y00060054D01*
X00975000Y00119993D02*
X00975000Y00119993D01*
X00973324Y00143991D02*
X00976676Y00143991D01*
X00992279Y00167990D02*
X00957721Y00167990D01*
X00957000Y00191988D02*
X00982171Y00191988D01*
X00968877Y00215987D02*
X00957000Y00215987D01*
X00957000Y00239985D02*
X00967769Y00239985D01*
X00978143Y00263984D02*
X00957000Y00263984D01*
X00957000Y00287982D02*
X00976177Y00287982D01*
X00960537Y00311981D02*
X00957000Y00311981D01*
X00957000Y00335979D02*
X00957769Y00335979D01*
X00957000Y00359978D02*
X00965490Y00359978D01*
X00957000Y00383976D02*
X00987738Y00383976D01*
X00969889Y00407975D02*
X00957000Y00407975D01*
X00957000Y00431973D02*
X00965769Y00431973D01*
X00971786Y00455972D02*
X00957000Y00455972D01*
X00965000Y00479970D02*
X00993171Y00479970D01*
X00988999Y00503969D02*
X01580916Y00503969D01*
X01582359Y00527968D02*
X01012997Y00527968D01*
X01036996Y00551966D02*
X01603777Y00551966D01*
X01640069Y00551966D02*
X01669822Y00551966D01*
X01655921Y00575965D02*
X01060994Y00575965D01*
X01084993Y00599963D02*
X01659426Y00599963D01*
X01686918Y00623962D02*
X01108991Y00623962D01*
X01132990Y00647960D02*
X01668850Y00647960D01*
X01662645Y00671959D02*
X01156988Y00671959D01*
X01180987Y00695957D02*
X01670027Y00695957D01*
X01704456Y00671257D02*
X02225000Y00150713D01*
X02225000Y00100000D01*
X02275000Y00095994D02*
X02325000Y00095994D01*
X02325000Y00071996D02*
X02275000Y00071996D01*
X02275000Y00119993D02*
X02325000Y00119993D01*
X02326676Y00143991D02*
X02273324Y00143991D01*
X02257721Y00167990D02*
X02305154Y00167990D01*
X02281155Y00191988D02*
X02228980Y00191988D01*
X02204981Y00215987D02*
X02257157Y00215987D01*
X02233158Y00239985D02*
X02180983Y00239985D01*
X02156984Y00263984D02*
X02209160Y00263984D01*
X02185161Y00287982D02*
X02132986Y00287982D01*
X02108987Y00311981D02*
X02161163Y00311981D01*
X02137164Y00335979D02*
X02084989Y00335979D01*
X02060990Y00359978D02*
X02113165Y00359978D01*
X02089167Y00383976D02*
X02036992Y00383976D01*
X02012993Y00407975D02*
X02065168Y00407975D01*
X02041170Y00431973D02*
X01988995Y00431973D01*
X01964996Y00455972D02*
X02017171Y00455972D01*
X01993173Y00479970D02*
X01940998Y00479970D01*
X01916999Y00503969D02*
X01969174Y00503969D01*
X01945176Y00527968D02*
X01893000Y00527968D01*
X01869002Y00551966D02*
X01921177Y00551966D01*
X01897179Y00575965D02*
X01845003Y00575965D01*
X01859305Y00599963D02*
X01821005Y00599963D01*
X01797006Y00623962D02*
X01849612Y00623962D01*
X01891423Y00626975D02*
X02375000Y00143398D01*
X02375000Y00100000D01*
X02475000Y00100000D02*
X02475000Y00119031D01*
X01903182Y00690849D01*
X01865750Y00671959D02*
X01749009Y00671959D01*
X01738886Y00695957D02*
X01861371Y00695957D01*
X01873159Y00719956D02*
X01204985Y00719956D01*
X01187242Y00813938D02*
X02137830Y00813938D01*
X02191606Y00867715D01*
X02056521Y00885876D02*
X01994024Y00885876D01*
X01987970Y00879823D01*
X01627655Y00911944D02*
X00445157Y00911944D01*
X00445157Y00935942D02*
X01620052Y00935942D01*
X01613844Y00959941D02*
X00445302Y00959941D01*
X00445384Y00983939D02*
X01621218Y00983939D01*
X01495764Y01004543D02*
X01465775Y00990809D01*
X01463943Y00978691D02*
X01459727Y00928246D01*
X01467791Y00920181D01*
X01495764Y01004543D02*
X01462000Y01064306D01*
X01458502Y01150801D02*
X01457711Y01190593D01*
X01465775Y01198657D01*
X01463759Y01194618D02*
X01467791Y01190586D01*
X01463759Y01194618D02*
X01458891Y01223905D01*
X01139701Y00887945D02*
X00445157Y00887945D01*
X00445157Y00863947D02*
X01114273Y00863947D01*
X01090039Y00839948D02*
X00445157Y00839948D01*
X00445157Y00815950D02*
X01065806Y00815950D01*
X01041572Y00791951D02*
X00445157Y00791951D01*
X00445157Y00767953D02*
X01017338Y00767953D01*
X00993105Y00743954D02*
X00445157Y00743954D01*
X00445157Y00719956D02*
X00968871Y00719956D01*
X00944637Y00695957D02*
X00445157Y00695957D01*
X00445157Y00671959D02*
X00920404Y00671959D01*
X00896170Y00647960D02*
X00445157Y00647960D01*
X00445157Y00623962D02*
X00871936Y00623962D01*
X00847702Y00599963D02*
X00445157Y00599963D01*
X00445157Y00575965D02*
X00823469Y00575965D01*
X00799235Y00551966D02*
X00445157Y00551966D01*
X00445157Y00527968D02*
X00775001Y00527968D01*
X00750768Y00503969D02*
X00445157Y00503969D01*
X00452494Y00479970D02*
X00726534Y00479970D01*
X00702300Y00455972D02*
X00476492Y00455972D01*
X00500491Y00431973D02*
X00684390Y00431973D01*
X00676762Y00407975D02*
X00524489Y00407975D01*
X00548488Y00383976D02*
X00682864Y00383976D01*
X00718573Y00407026D02*
X00718573Y00427051D01*
X01155662Y00859899D01*
X01187242Y00813938D02*
X00825000Y00451696D01*
X00825000Y00100000D01*
X00775000Y00095994D02*
X00775000Y00095994D01*
X00775000Y00071996D02*
X00775000Y00071996D01*
X00775000Y00060054D02*
X00775000Y00139946D01*
X00775000Y00060054D01*
X00773735Y00057000D01*
X00776265Y00057000D01*
X00775000Y00060054D01*
X00775000Y00119993D02*
X00775000Y00119993D01*
X00773324Y00143991D02*
X00776676Y00143991D01*
X00792279Y00167990D02*
X00757721Y00167990D01*
X00740476Y00191988D02*
X00793000Y00191988D01*
X00793000Y00215987D02*
X00716478Y00215987D01*
X00692479Y00239985D02*
X00793000Y00239985D01*
X00793000Y00263984D02*
X00668481Y00263984D01*
X00644482Y00287982D02*
X00793000Y00287982D01*
X00793000Y00311981D02*
X00620484Y00311981D01*
X00596485Y00335979D02*
X00793000Y00335979D01*
X00793000Y00359978D02*
X00572486Y00359978D01*
X00754281Y00383976D02*
X00793000Y00383976D01*
X00793000Y00407975D02*
X00760383Y00407975D01*
X00769020Y00431973D02*
X00793000Y00431973D01*
X01024769Y00431973D02*
X01024770Y00431973D01*
X01024771Y00430000D02*
X01065769Y00430000D01*
X01124768Y00430000D01*
X01124768Y00429999D01*
X01024771Y00429999D01*
X01024771Y00430000D01*
X01024769Y00455972D02*
X01024770Y00455972D01*
X01024769Y00479970D02*
X01024770Y00479970D01*
X01056368Y00479970D02*
X01093171Y00479970D01*
X01124769Y00479970D02*
X01124770Y00479970D01*
X01124769Y00455972D02*
X01124770Y00455972D01*
X01124769Y00431973D02*
X01124770Y00431973D01*
X01124771Y00430000D02*
X01224768Y00430000D01*
X01224768Y00429999D01*
X01183769Y00429999D01*
X01124771Y00429999D01*
X01124771Y00430000D01*
X01156368Y00479970D02*
X01193171Y00479970D01*
X01224769Y00479970D02*
X01224770Y00479970D01*
X01224769Y00455972D02*
X01224770Y00455972D01*
X01224769Y00431973D02*
X01224770Y00431973D01*
X01224771Y00430000D02*
X01265769Y00430000D01*
X01324768Y00430000D01*
X01324768Y00429999D01*
X01224771Y00429999D01*
X01224771Y00430000D01*
X01256368Y00479970D02*
X01293171Y00479970D01*
X01324769Y00479970D02*
X01324770Y00479970D01*
X01324769Y00455972D02*
X01324770Y00455972D01*
X01324769Y00431973D02*
X01324770Y00431973D01*
X01377753Y00455972D02*
X01605858Y00455972D01*
X01589923Y00479970D02*
X01356368Y00479970D01*
X01383769Y00431973D02*
X01629856Y00431973D01*
X01653855Y00407975D02*
X01379649Y00407975D01*
X01361800Y00383976D02*
X01677853Y00383976D01*
X01701852Y00359978D02*
X01364048Y00359978D01*
X01371769Y00335979D02*
X01725851Y00335979D01*
X01749849Y00311981D02*
X01369002Y00311981D01*
X01353362Y00287982D02*
X01773848Y00287982D01*
X01797846Y00263984D02*
X01371396Y00263984D01*
X01381769Y00239985D02*
X01821845Y00239985D01*
X01845843Y00215987D02*
X01380661Y00215987D01*
X01367368Y00191988D02*
X01869842Y00191988D01*
X01857721Y00167990D02*
X01891452Y00167990D01*
X01923452Y00183633D02*
X01923452Y00101548D01*
X01925000Y00100000D01*
X01875000Y00095994D02*
X01875000Y00095994D01*
X01875000Y00071996D02*
X01875000Y00071996D01*
X01875000Y00060054D02*
X01875000Y00139946D01*
X01875000Y00060054D01*
X01873735Y00057000D01*
X01876265Y00057000D01*
X01875000Y00060054D01*
X01875000Y00119993D02*
X01875000Y00119993D01*
X01873324Y00143991D02*
X01876676Y00143991D01*
X01923452Y00183633D02*
X01621923Y00485162D01*
X01621923Y00514226D01*
X01693700Y00502468D02*
X02025000Y00171167D01*
X02025000Y00100000D01*
X02125000Y00100000D02*
X02125000Y00155918D01*
X01697732Y00583185D01*
X01773008Y00647960D02*
X01854860Y00647960D01*
X02015324Y00623962D02*
X02366024Y00623962D01*
X02366024Y00599963D02*
X02039322Y00599963D01*
X02063321Y00575965D02*
X02366024Y00575965D01*
X02366024Y00551966D02*
X02087319Y00551966D01*
X02111318Y00527968D02*
X02366024Y00527968D01*
X02366024Y00503969D02*
X02135316Y00503969D01*
X02159315Y00479970D02*
X02366024Y00479970D01*
X02366024Y00455972D02*
X02183313Y00455972D01*
X02207312Y00431973D02*
X02366024Y00431973D01*
X02366024Y00407975D02*
X02231311Y00407975D01*
X02255309Y00383976D02*
X02366024Y00383976D01*
X02366024Y00359978D02*
X02279308Y00359978D01*
X02303306Y00335979D02*
X02366024Y00335979D01*
X02356635Y00311981D02*
X02327305Y00311981D01*
X02351303Y00287982D02*
X02358842Y00287982D01*
X02375302Y00263984D02*
X02382106Y00263984D01*
X02398024Y00302646D02*
X02398024Y00947856D01*
X02494595Y01044427D01*
X02494594Y01103932D02*
X02494596Y01103932D01*
X02410785Y01487908D02*
X03880008Y01487908D01*
X03880008Y01511907D02*
X02410785Y01511907D01*
X02410785Y01535906D02*
X03880008Y01535906D01*
X03880008Y01559904D02*
X02410785Y01559904D01*
X02410785Y01583903D02*
X03880008Y01583903D01*
X03880008Y01607901D02*
X02410785Y01607901D01*
X02410785Y01631900D02*
X03880008Y01631900D01*
X03880008Y01655898D02*
X02410785Y01655898D01*
X02410785Y01679897D02*
X03880008Y01679897D01*
X03880008Y01703895D02*
X02410785Y01703895D01*
X02410785Y01727894D02*
X03880008Y01727894D01*
X03880008Y01751892D02*
X02410785Y01751892D01*
X02417968Y01775891D02*
X03880008Y01775891D01*
X03880008Y01799889D02*
X02421916Y01799889D01*
X02409086Y01823888D02*
X03880008Y01823888D01*
X03880008Y01847886D02*
X01457000Y01847886D01*
X01457000Y01871885D02*
X03880008Y01871885D01*
X03880008Y01895883D02*
X01457000Y01895883D01*
X01457000Y01919882D02*
X03880008Y01919882D01*
X03880008Y01943880D02*
X02068300Y01943880D01*
X02075000Y01967879D02*
X03880008Y01967879D01*
X03880008Y01991877D02*
X02075000Y01991877D01*
X02075000Y02015876D02*
X03880008Y02015876D01*
X03466488Y01710840D02*
X03462800Y01714528D01*
X03466488Y01710840D02*
X03466488Y01640705D01*
X03005477Y01594566D02*
X02966757Y01633287D01*
X02966757Y01661006D01*
X02106343Y01638619D02*
X02086360Y01618635D01*
X02058716Y01618635D01*
X01981699Y01943880D02*
X01968300Y01943880D01*
X01975000Y01960054D02*
X01975000Y02029614D01*
X01975000Y01960054D01*
X01975000Y01967879D02*
X01975000Y01967879D01*
X01975000Y01991877D02*
X01975000Y01991877D01*
X01975000Y02015876D02*
X01975000Y02015876D01*
X01975000Y02029614D02*
X01975000Y02029614D01*
X01875000Y02029614D02*
X01875000Y01960054D01*
X01875000Y02029614D01*
X01875000Y02029614D01*
X01875000Y02015876D02*
X01875000Y02015876D01*
X01875000Y01991877D02*
X01875000Y01991877D01*
X01875000Y01967879D02*
X01875000Y01967879D01*
X01868300Y01943880D02*
X01881699Y01943880D01*
X01781699Y01943880D02*
X01768300Y01943880D01*
X01775000Y01960054D02*
X01775000Y02029614D01*
X01775000Y01960054D01*
X01775000Y01967879D02*
X01775000Y01967879D01*
X01775000Y01991877D02*
X01775000Y01991877D01*
X01775000Y02015876D02*
X01775000Y02015876D01*
X01775000Y02029614D02*
X01775000Y02029614D01*
X01675000Y02029614D02*
X01675000Y01960054D01*
X01675000Y02029614D01*
X01675000Y02029614D01*
X01675000Y02015876D02*
X01675000Y02015876D01*
X01675000Y01991877D02*
X01675000Y01991877D01*
X01675000Y01967879D02*
X01675000Y01967879D01*
X01668300Y01943880D02*
X01681699Y01943880D01*
X01581699Y01943880D02*
X01568300Y01943880D01*
X01575000Y01960054D02*
X01575000Y02029614D01*
X01575000Y01960054D01*
X01575000Y01967879D02*
X01575000Y01967879D01*
X01575000Y01991877D02*
X01575000Y01991877D01*
X01575000Y02015876D02*
X01575000Y02015876D01*
X01575000Y02029614D02*
X01575000Y02029614D01*
X01475000Y02029614D02*
X01475000Y01960054D01*
X01475000Y02029614D01*
X01475000Y02029614D01*
X01475000Y02015876D02*
X01475000Y02015876D01*
X01475000Y01991877D02*
X01475000Y01991877D01*
X01475000Y01967879D02*
X01475000Y01967879D01*
X01468300Y01943880D02*
X01481699Y01943880D01*
X01427128Y01644255D02*
X01427128Y01636057D01*
X01393315Y01602245D01*
X01248612Y01631900D02*
X01199338Y01631900D01*
X00777734Y01586768D02*
X00720625Y01586768D01*
X00717263Y01583406D01*
X00275489Y01823888D02*
X00274714Y01823888D01*
X00250715Y01847886D02*
X00299487Y01847886D01*
X00175489Y01823888D02*
X00082000Y01823888D01*
X00082000Y01799889D02*
X00173101Y01799889D01*
X00175633Y01775891D02*
X00082000Y01775891D01*
X00082000Y01751892D02*
X00199631Y01751892D01*
X00179495Y01727894D02*
X00082000Y01727894D01*
X00082000Y01703895D02*
X00173101Y01703895D01*
X00173101Y01679897D02*
X00082000Y01679897D01*
X00082000Y01655898D02*
X00195625Y01655898D01*
X00352990Y01044427D02*
X00361902Y01044427D01*
X00413384Y00992945D01*
X00413384Y00966504D01*
X00413157Y00966277D01*
X00413157Y00474053D01*
X00719413Y00167797D01*
X00719413Y00105587D01*
X00625000Y00100000D02*
X00352990Y00372010D01*
X00352990Y00946002D01*
X00294331Y00239985D02*
X00255757Y00239985D01*
X00275044Y00215987D02*
X00275044Y00215987D01*
X00275044Y00191988D02*
X00275044Y00191988D01*
X00286331Y00167990D02*
X00263756Y00167990D01*
X00194331Y00239985D02*
X00182000Y00239985D01*
X01357721Y00167990D02*
X01492279Y00167990D01*
X01476676Y00143991D02*
X01373324Y00143991D01*
X01375000Y00119993D02*
X01475000Y00119993D01*
X01475000Y00095994D02*
X01375000Y00095994D01*
X01375000Y00071996D02*
X01475000Y00071996D01*
X01573735Y00057000D02*
X01575000Y00060054D01*
X01575000Y00139946D01*
X01575000Y00060054D01*
X01576265Y00057000D01*
X01573735Y00057000D01*
X01575000Y00071996D02*
X01575000Y00071996D01*
X01575000Y00095994D02*
X01575000Y00095994D01*
X01575000Y00119993D02*
X01575000Y00119993D01*
X01573324Y00143991D02*
X01576676Y00143991D01*
X01592279Y00167990D02*
X01557721Y00167990D01*
X01657721Y00167990D02*
X01692279Y00167990D01*
X01757721Y00167990D02*
X01792279Y00167990D01*
X01776676Y00143991D02*
X01773324Y00143991D01*
X01775000Y00139946D02*
X01775000Y00060054D01*
X01773735Y00057000D01*
X01776265Y00057000D01*
X01775000Y00060054D01*
X01775000Y00139946D01*
X01775000Y00119993D02*
X01775000Y00119993D01*
X01775000Y00095994D02*
X01775000Y00095994D01*
X01775000Y00071996D02*
X01775000Y00071996D01*
X01676265Y00057000D02*
X01673735Y00057000D01*
X01675000Y00060054D01*
X01675000Y00139946D01*
X01675000Y00060054D01*
X01676265Y00057000D01*
X01675000Y00071996D02*
X01675000Y00071996D01*
X01675000Y00095994D02*
X01675000Y00095994D01*
X01675000Y00119993D02*
X01675000Y00119993D01*
X01673324Y00143991D02*
X01676676Y00143991D01*
X02507721Y00167990D02*
X02542279Y00167990D01*
X02526676Y00143991D02*
X02523324Y00143991D01*
X02525000Y00139946D02*
X02525000Y00060054D01*
X02523735Y00057000D01*
X02526265Y00057000D01*
X02525000Y00060054D01*
X02525000Y00139946D01*
X02525000Y00119993D02*
X02525000Y00119993D01*
X02525000Y00095994D02*
X02525000Y00095994D01*
X02525000Y00071996D02*
X02525000Y00071996D01*
X02671162Y00103838D02*
X02675000Y00100000D01*
X02723324Y00143991D02*
X02726676Y00143991D01*
X02725000Y00139946D02*
X02725000Y00060054D01*
X02723735Y00057000D01*
X02726265Y00057000D01*
X02725000Y00060054D01*
X02725000Y00139946D01*
X02725000Y00119993D02*
X02725000Y00119993D01*
X02725000Y00095994D02*
X02725000Y00095994D01*
X02725000Y00071996D02*
X02725000Y00071996D01*
X03632432Y00167990D02*
X03632433Y00167990D01*
X03632432Y00191988D02*
X03632433Y00191988D01*
X03632432Y00215987D02*
X03632433Y00215987D01*
X03632432Y00239985D02*
X03632433Y00239985D01*
X03632432Y00263984D02*
X03632433Y00263984D01*
X03632432Y00287982D02*
X03632433Y00287982D01*
X03632432Y00311981D02*
X03632433Y00311981D01*
X03632432Y00335979D02*
X03632433Y00335979D01*
X03675010Y00335979D02*
X03880008Y00335979D01*
X03880008Y00311981D02*
X03690393Y00311981D01*
X03693803Y00287982D02*
X03880008Y00287982D01*
X03880008Y00263984D02*
X03693803Y00263984D01*
X03693803Y00239985D02*
X03880008Y00239985D01*
X03880008Y00215987D02*
X03693803Y00215987D01*
X03690125Y00191988D02*
X03880008Y00191988D01*
X03880008Y00167990D02*
X03674186Y00167990D01*
X02968193Y00647960D02*
X02526595Y00647960D01*
D16*
X02845745Y00893429D03*
X03007829Y00765597D03*
X03082838Y00704635D03*
X03147303Y00767245D03*
X03257598Y00973250D03*
X03262262Y01047936D03*
X03260943Y01133247D03*
X03259000Y01218775D03*
X03258028Y01300416D03*
X03117815Y01426764D03*
X03005477Y01594566D03*
X03466488Y01640705D03*
X03560219Y01292640D03*
X03561191Y01213916D03*
X03557305Y01136163D03*
X03558407Y01043268D03*
X03557241Y00969749D03*
X03761081Y01309665D03*
X03730885Y00549129D03*
X03150000Y00250000D03*
X03080895Y00317815D03*
X02978611Y00287826D03*
X02671162Y00311331D03*
X02463359Y00227590D03*
X02398024Y00302646D03*
X01891423Y00626975D03*
X01903182Y00690849D03*
X01704456Y00671257D03*
X01697732Y00583185D03*
X01621923Y00514226D03*
X01693700Y00502468D03*
X02056521Y00885876D03*
X01655655Y00959246D03*
X01463943Y00978691D03*
X01462000Y01064306D03*
X01458502Y01150801D03*
X01458891Y01223905D03*
X01460057Y01299819D03*
X01163308Y01298652D03*
X01167000Y01213645D03*
X01167000Y01129227D03*
X01167000Y01046960D03*
X01160199Y00968972D03*
X00643665Y00850684D03*
X00718573Y00407026D03*
X02378785Y01295585D03*
X02058716Y01618635D03*
X02380105Y01793739D03*
X01393315Y01602245D03*
X01007384Y01431868D03*
X00717263Y01583406D03*
D17*
X01007384Y01431868D02*
X01019029Y01431868D01*
X01036533Y01414363D01*
X00643665Y00850684D02*
X00560100Y00850684D01*
X00549409Y00839993D01*
X03117815Y01426764D02*
X03119749Y01426764D01*
X03146963Y01399550D01*
D18*
X03258028Y01300416D02*
X03400861Y01300416D01*
X03414468Y01286809D01*
X03416412Y01285837D02*
X03423215Y01292640D01*
X03560219Y01292640D01*
X03561191Y01213916D02*
X03431960Y01213916D01*
X03425157Y01207112D01*
X03380460Y01215859D02*
X03377544Y01218775D01*
X03259000Y01218775D01*
X03260943Y01133247D02*
X03405723Y01133247D01*
X03407666Y01135191D01*
X03450420Y01127416D02*
X03459167Y01136163D01*
X03557305Y01136163D01*
X03558407Y01043268D02*
X03466300Y01043268D01*
X03465133Y01042101D01*
X03404505Y01054938D02*
X03265753Y01046769D01*
X03294902Y01050251D01*
X03283249Y01051437D01*
X03265753Y01046769D02*
X03262262Y01047936D01*
X03257598Y00973250D02*
X03285578Y00973250D01*
X03287912Y00975584D01*
X03522263Y00974417D02*
X03526931Y00969749D01*
X03557241Y00969749D01*
X01460057Y01299819D02*
X01347649Y01276675D01*
X01328022Y01301167D01*
X01293043Y01283663D02*
X01290709Y01281329D01*
X01163308Y01298652D01*
X01167000Y01213645D02*
X01325682Y01214812D01*
X01340847Y01206643D01*
X01325690Y01126122D02*
X01315187Y01115620D01*
X01167000Y01129227D01*
X01167000Y01046960D02*
X01300038Y01042101D01*
X01301205Y01040934D01*
X01289545Y00974417D02*
X01280796Y00966638D01*
X01160199Y00968972D01*
D19*
X00550000Y00100000D03*
D20*
X01155662Y00859899D02*
X01159319Y00863555D01*
X01628838Y00863555D01*
X01655655Y00890372D01*
X01655655Y00959246D01*
X02671162Y00311331D02*
X03007829Y00647998D01*
X03007829Y00765597D01*
X03082838Y00704635D02*
X03082838Y00392053D01*
X02978611Y00287826D01*
X03080895Y00317815D02*
X03080895Y00318441D01*
X03147303Y00384849D01*
X03147303Y00767245D01*
M02*
