G75*
%MOIN*%
%OFA0B0*%
%FSLAX26Y26*%
%IPPOS*%
%LPD*%
%AMOC8*
5,1,8,0,0,1.08239X$1,22.5*
%
%ADD10C,0.072000*%
%ADD11C,0.090740*%
%ADD12C,0.067433*%
%ADD13C,0.086000*%
%ADD14OC8,0.072000*%
%ADD15C,0.055622*%
%ADD16C,0.045780*%
D10*
X00625000Y00070000D02*
X00625000Y00130000D01*
X00725000Y00130000D02*
X00725000Y00070000D01*
X00825000Y00070000D02*
X00825000Y00130000D01*
X00925000Y00130000D02*
X00925000Y00070000D01*
X01025000Y00070000D02*
X01025000Y00130000D01*
X01125000Y00130000D02*
X01125000Y00070000D01*
X01225000Y00070000D02*
X01225000Y00130000D01*
X01325000Y00130000D02*
X01325000Y00070000D01*
X01525000Y00070000D02*
X01525000Y00130000D01*
X01625000Y00130000D02*
X01625000Y00070000D01*
X01725000Y00070000D02*
X01725000Y00130000D01*
X01825000Y00130000D02*
X01825000Y00070000D01*
X01925000Y00070000D02*
X01925000Y00130000D01*
X02025000Y00130000D02*
X02025000Y00070000D01*
X02125000Y00070000D02*
X02125000Y00130000D01*
X02225000Y00130000D02*
X02225000Y00070000D01*
X02375000Y00070000D02*
X02375000Y00130000D01*
X02475000Y00130000D02*
X02475000Y00070000D01*
X02575000Y00070000D02*
X02575000Y00130000D01*
X02675000Y00130000D02*
X02675000Y00070000D01*
X02775000Y00070000D02*
X02775000Y00130000D01*
X02875000Y00130000D02*
X02875000Y00070000D01*
X02975000Y00070000D02*
X02975000Y00130000D01*
X03075000Y00130000D02*
X03075000Y00070000D01*
X02025000Y01970000D02*
X02025000Y02030000D01*
X01925000Y02030000D02*
X01925000Y01970000D01*
X01825000Y01970000D02*
X01825000Y02030000D01*
X01725000Y02030000D02*
X01725000Y01970000D01*
X01625000Y01970000D02*
X01625000Y02030000D01*
X01525000Y02030000D02*
X01525000Y01970000D01*
X01425000Y01970000D02*
X01425000Y02030000D01*
X01325000Y02030000D02*
X01325000Y01970000D01*
D11*
X03475347Y00438612D02*
X03554087Y00438612D01*
X03632433Y00291767D02*
X03632433Y00213027D01*
X03397128Y00213228D02*
X03397128Y00291969D01*
D12*
X02494595Y00946002D03*
X02494595Y01044427D03*
X02494595Y01142852D03*
X02494595Y01241278D03*
X02494595Y01339703D03*
X02494595Y01438128D03*
X02258370Y01438128D03*
X02258370Y01339703D03*
X02258370Y01241278D03*
X02258370Y01142852D03*
X02258370Y01044427D03*
X02258370Y00946002D03*
X00352990Y00946002D03*
X00352990Y01044427D03*
X00352990Y01142852D03*
X00352990Y01241278D03*
X00352990Y01339703D03*
X00352990Y01438128D03*
D13*
X01064036Y01687207D03*
X01164036Y01677207D03*
X01264036Y01687207D03*
X01263881Y01787574D03*
X01163881Y01777574D03*
X01063881Y01787574D03*
X01024769Y00430000D03*
X01124769Y00430000D03*
X01224769Y00430000D03*
X01324769Y00430000D03*
X01314769Y00330000D03*
X01214769Y00330000D03*
X01114769Y00330000D03*
X01014769Y00330000D03*
X01024769Y00230000D03*
X01124769Y00230000D03*
X01224769Y00230000D03*
X01324769Y00230000D03*
D14*
X00225044Y00099988D03*
X00325044Y00099988D03*
X00325044Y00199988D03*
X00225044Y00199988D03*
X00225101Y01699961D03*
X00325101Y01699961D03*
X00325101Y01799961D03*
X00225101Y01799961D03*
D15*
X00717263Y01583406D03*
X01007384Y01431868D03*
X01163308Y01298652D03*
X01167000Y01213645D03*
X01167000Y01129227D03*
X01167000Y01046960D03*
X01160199Y00968972D03*
X01463943Y00978691D03*
X01462000Y01064306D03*
X01458502Y01150801D03*
X01458891Y01223905D03*
X01460057Y01299819D03*
X01393315Y01602245D03*
X02058716Y01618635D03*
X02380105Y01793739D03*
X03005477Y01594566D03*
X03117815Y01426764D03*
X03258028Y01300416D03*
X03259000Y01218775D03*
X03260943Y01133247D03*
X03262262Y01047936D03*
X03257598Y00973250D03*
X03557241Y00969749D03*
X03558407Y01043268D03*
X03557305Y01136163D03*
X03561191Y01213916D03*
X03560219Y01292640D03*
X03761081Y01309665D03*
X03466488Y01640705D03*
X02378785Y01295585D03*
X01655655Y00959246D03*
X02056521Y00885876D03*
X01903182Y00690849D03*
X01891423Y00626975D03*
X01704456Y00671257D03*
X01697732Y00583185D03*
X01621923Y00514226D03*
X01693700Y00502468D03*
X02398024Y00302646D03*
X02463359Y00227590D03*
X02671162Y00311331D03*
X02978611Y00287826D03*
X03080895Y00317815D03*
X03150000Y00250000D03*
X03730885Y00549129D03*
X03147303Y00767245D03*
X03082838Y00704635D03*
X03007829Y00765597D03*
X02845745Y00893429D03*
X00718573Y00407026D03*
X00643665Y00850684D03*
D16*
X00550000Y00100000D03*
M02*
