G75*
%MOIN*%
%OFA0B0*%
%FSLAX26Y26*%
%IPPOS*%
%LPD*%
%AMOC8*
5,1,8,0,0,1.08239X$1,22.5*
%
%ADD10C,0.072000*%
%ADD11R,0.074992X0.082984*%
%ADD12R,0.063181X0.071055*%
%ADD13R,0.098614X0.035622*%
%ADD14R,0.208850X0.405701*%
%ADD15R,0.090740X0.090740*%
%ADD16C,0.090740*%
%ADD17C,0.067433*%
%ADD18C,0.086000*%
%ADD19OC8,0.072000*%
%ADD20R,0.043496X0.059244*%
%ADD21C,0.055622*%
%ADD22C,0.045780*%
D10*
X00625000Y00070000D02*
X00625000Y00130000D01*
X00725000Y00130000D02*
X00725000Y00070000D01*
X00825000Y00070000D02*
X00825000Y00130000D01*
X00925000Y00130000D02*
X00925000Y00070000D01*
X01025000Y00070000D02*
X01025000Y00130000D01*
X01125000Y00130000D02*
X01125000Y00070000D01*
X01225000Y00070000D02*
X01225000Y00130000D01*
X01325000Y00130000D02*
X01325000Y00070000D01*
X01525000Y00070000D02*
X01525000Y00130000D01*
X01625000Y00130000D02*
X01625000Y00070000D01*
X01725000Y00070000D02*
X01725000Y00130000D01*
X01825000Y00130000D02*
X01825000Y00070000D01*
X01925000Y00070000D02*
X01925000Y00130000D01*
X02025000Y00130000D02*
X02025000Y00070000D01*
X02125000Y00070000D02*
X02125000Y00130000D01*
X02225000Y00130000D02*
X02225000Y00070000D01*
X02375000Y00070000D02*
X02375000Y00130000D01*
X02475000Y00130000D02*
X02475000Y00070000D01*
X02575000Y00070000D02*
X02575000Y00130000D01*
X02675000Y00130000D02*
X02675000Y00070000D01*
X02775000Y00070000D02*
X02775000Y00130000D01*
X02875000Y00130000D02*
X02875000Y00070000D01*
X02975000Y00070000D02*
X02975000Y00130000D01*
X03075000Y00130000D02*
X03075000Y00070000D01*
X02025000Y01970000D02*
X02025000Y02030000D01*
X01925000Y02030000D02*
X01925000Y01970000D01*
X01825000Y01970000D02*
X01825000Y02030000D01*
X01725000Y02030000D02*
X01725000Y01970000D01*
X01625000Y01970000D02*
X01625000Y02030000D01*
X01525000Y02030000D02*
X01525000Y01970000D01*
X01425000Y01970000D02*
X01425000Y02030000D01*
X01325000Y02030000D02*
X01325000Y01970000D01*
D11*
X00336834Y01989437D03*
X00224866Y01989437D03*
X03533815Y00549124D03*
X03645784Y00549124D03*
D12*
X03423833Y00548519D03*
X03349030Y00548519D03*
X03332456Y01496156D03*
X03407260Y01496156D03*
X03495750Y01497128D03*
X03570554Y01497128D03*
X01471777Y01497128D03*
X01396974Y01497128D03*
X01308530Y01497128D03*
X01233727Y01497128D03*
X00498872Y01991890D03*
X00424069Y01991890D03*
D13*
X01051412Y01360128D03*
X01051412Y01310128D03*
X01051412Y01260128D03*
X01051412Y01210128D03*
X01051412Y01160128D03*
X01051412Y01110128D03*
X01051412Y01060128D03*
X01051412Y01010128D03*
X01051412Y00960128D03*
X01051412Y00910128D03*
X01563223Y00910128D03*
X01563223Y00960128D03*
X01563223Y01010128D03*
X01563223Y01060128D03*
X01563223Y01110128D03*
X01563223Y01160128D03*
X01563223Y01210128D03*
X01563223Y01260128D03*
X01563223Y01310128D03*
X01563223Y01360128D03*
X03149701Y01360128D03*
X03149701Y01310128D03*
X03149701Y01260128D03*
X03149701Y01210128D03*
X03149701Y01160128D03*
X03149701Y01110128D03*
X03149701Y01060128D03*
X03149701Y01010128D03*
X03149701Y00960128D03*
X03149701Y00910128D03*
X03661512Y00910128D03*
X03661512Y00960128D03*
X03661512Y01010128D03*
X03661512Y01060128D03*
X03661512Y01110128D03*
X03661512Y01160128D03*
X03661512Y01210128D03*
X03661512Y01260128D03*
X03661512Y01310128D03*
X03661512Y01360128D03*
D14*
X03405607Y01135128D03*
X01307318Y01135128D03*
D15*
X01899793Y01129868D03*
X02058099Y01129868D03*
X02058099Y00972388D03*
X01899793Y00972388D03*
X01899793Y01344388D03*
X02058099Y01344388D03*
X02058099Y01501868D03*
X01899793Y01501868D03*
X02703017Y01129868D03*
X02848782Y01129868D03*
X02848782Y00972388D03*
X02703017Y00972388D03*
X02753017Y01344388D03*
X02898782Y01344388D03*
X02898782Y01501868D03*
X02753017Y01501868D03*
X00706213Y01501868D03*
X00550530Y01501868D03*
X00550530Y01344388D03*
X00706213Y01344388D03*
X00703977Y01129868D03*
X00547072Y01129868D03*
X00547072Y00972388D03*
X00703977Y00972388D03*
D16*
X03397128Y00291969D02*
X03397128Y00213228D01*
X03632433Y00213027D02*
X03632433Y00291767D01*
X03554087Y00438612D02*
X03475347Y00438612D01*
D17*
X02494595Y00946002D03*
X02494595Y01044427D03*
X02494595Y01142852D03*
X02494595Y01241278D03*
X02494595Y01339703D03*
X02494595Y01438128D03*
X02258370Y01438128D03*
X02258370Y01339703D03*
X02258370Y01241278D03*
X02258370Y01142852D03*
X02258370Y01044427D03*
X02258370Y00946002D03*
X00352990Y00946002D03*
X00352990Y01044427D03*
X00352990Y01142852D03*
X00352990Y01241278D03*
X00352990Y01339703D03*
X00352990Y01438128D03*
D18*
X01064036Y01687207D03*
X01164036Y01677207D03*
X01264036Y01687207D03*
X01263881Y01787574D03*
X01163881Y01777574D03*
X01063881Y01787574D03*
X01024769Y00430000D03*
X01124769Y00430000D03*
X01224769Y00430000D03*
X01324769Y00430000D03*
X01314769Y00330000D03*
X01214769Y00330000D03*
X01114769Y00330000D03*
X01014769Y00330000D03*
X01024769Y00230000D03*
X01124769Y00230000D03*
X01224769Y00230000D03*
X01324769Y00230000D03*
D19*
X00225044Y00099988D03*
X00325044Y00099988D03*
X00325044Y00199988D03*
X00225044Y00199988D03*
X00225101Y01699961D03*
X00325101Y01699961D03*
X00325101Y01799961D03*
X00225101Y01799961D03*
D20*
X03239567Y00250000D03*
X03310433Y00250000D03*
X00497933Y00100000D03*
X00427067Y00100000D03*
D21*
X00718573Y00407026D03*
X00643665Y00850684D03*
X01160199Y00968972D03*
X01167000Y01046960D03*
X01167000Y01129227D03*
X01167000Y01213645D03*
X01163308Y01298652D03*
X01007384Y01431868D03*
X00717263Y01583406D03*
X01393315Y01602245D03*
X01460057Y01299819D03*
X01458891Y01223905D03*
X01458502Y01150801D03*
X01462000Y01064306D03*
X01463943Y00978691D03*
X01655655Y00959246D03*
X02056521Y00885876D03*
X01903182Y00690849D03*
X01891423Y00626975D03*
X01704456Y00671257D03*
X01697732Y00583185D03*
X01621923Y00514226D03*
X01693700Y00502468D03*
X02398024Y00302646D03*
X02463359Y00227590D03*
X02671162Y00311331D03*
X02978611Y00287826D03*
X03080895Y00317815D03*
X03150000Y00250000D03*
X03730885Y00549129D03*
X03147303Y00767245D03*
X03082838Y00704635D03*
X03007829Y00765597D03*
X02845745Y00893429D03*
X03257598Y00973250D03*
X03262262Y01047936D03*
X03260943Y01133247D03*
X03259000Y01218775D03*
X03258028Y01300416D03*
X03117815Y01426764D03*
X03005477Y01594566D03*
X03466488Y01640705D03*
X03560219Y01292640D03*
X03561191Y01213916D03*
X03557305Y01136163D03*
X03558407Y01043268D03*
X03557241Y00969749D03*
X03761081Y01309665D03*
X02378785Y01295585D03*
X02058716Y01618635D03*
X02380105Y01793739D03*
D22*
X00550000Y00100000D03*
M02*
